<svg xmlns="http://www.w3.org/2000/svg" viewBox="0 0 16 16"><style>.st0{fill:#f6f6f6}.st1{fill:#424242}.st2{fill:#f0eff1}.st3{fill:#e51400}.st4{fill:#fff}</style><path class="st0" d="M14 7.76V0H0v12h7.05c.252 2.247 2.135 4 4.45 4A4.5 4.5 0 0 0 14 7.76z" id="outline"/><path class="st1" d="M7.05 11H1V1h12v6.275a4.472 4.472 0 0 0-1-.225V2H2v8h5.275a4.472 4.472 0 0 0-.225 1zM3 9h4.76a4.5 4.5 0 0 1 2.834-1.909L9.028 4.899 6.424 8.265a.498.498 0 0 1-.403.235.485.485 0 0 1-.42-.2L4.446 6.761 3 8.207V9zm0-2.207l1.146-1.146a.494.494 0 0 1 .39-.145c.145.01.277.082.363.198l1.063 1.417 2.614-3.382a.498.498 0 0 1 .831-.026L11 5.94V3H3v3.793z" id="icon_x5F_bg"/><path class="st2" d="M7.76 9H3v-.793l1.446-1.446L5.601 8.3a.485.485 0 0 0 .42.2.5.5 0 0 0 .403-.234L9.028 4.9l1.565 2.192A4.45 4.45 0 0 1 11.5 7c.171 0 .334.032.5.05V2H2v8h5.275c.126-.354.28-.693.485-1zM3 3h8v2.94L9.407 3.71a.498.498 0 0 0-.831.025L5.962 7.117 4.899 5.7a.497.497 0 0 0-.753-.054L3 6.793V3z" id="icon_x5F_fg"/><path class="st3" d="M11.5 8a3.5 3.5 0 1 0 0 7 3.5 3.5 0 0 0 0-7zm1.854 4.646l-.707.707-1.147-1.146-1.146 1.147-.707-.707 1.147-1.146-1.147-1.146.707-.707 1.146 1.147 1.146-1.147.707.707-1.146 1.145 1.147 1.146z" id="not_x5F_bg"/><path class="st4" d="M13.354 10.354l-.708-.708-1.146 1.147-1.146-1.147-.708.708 1.147 1.146-1.147 1.146.708.708 1.146-1.147 1.146 1.147.708-.708-1.147-1.146z" id="not_x5F_fg"/></svg>