<svg xmlns="http://www.w3.org/2000/svg" width="16" height="16" viewBox="0 0 16 16"><style type="text/css">.icon-canvas-transparent{opacity:0;fill:#F6F6F6;} .icon-vs-out{fill:#F6F6F6;} .icon-vs-blue{fill:#1BA1E2;} .icon-white{fill:#FFFFFF;}</style><path class="icon-canvas-transparent" d="M16 16h-16v-16h16v16z" id="canvas"/><path class="icon-vs-out" d="M16 8c0 4.418-3.582 8-8 8s-8-3.582-8-8 3.582-8 8-8 8 3.582 8 8z" id="outline"/><path class="icon-vs-blue" d="M8 15c3.865 0 7-3.134 7-7 0-3.865-3.135-7-7-7s-7 3.135-7 7c0 3.866 3.135 7 7 7zm-4-8l4-4 4 4v3l-3-3v6h-2v-6l-3 3v-3z" id="iconBg"/><g id="iconFg"><path class="icon-white" d="M4 10v-3l4-4 4 4v3l-3-3v6h-2v-6l-3 3z"/></g></svg>