<svg xmlns="http://www.w3.org/2000/svg" width="16" height="16"><style type="text/css">.icon-canvas-transparent{opacity:0;fill:#F6F6F6;} .icon-vs-out{fill:#F6F6F6;} .icon-vs-action-blue{fill:#00539C;}</style><path class="icon-canvas-transparent" d="M16 16h-16v-16h16v16z" id="canvas"/><path class="icon-vs-out" d="M6.909 14.996c-3.313-.301-5.909-3.154-5.909-6.496 0-1.289.382-2.488 1.031-3.5h-1.031v-1.414l2.586-2.586h5.462l.043.004c3.313.301 5.909 3.154 5.909 6.496 0 1.289-.382 2.488-1.031 3.5h1.031v1.414l-2.586 2.586-5.505-.004z" id="outline"/><path class="icon-vs-action-blue" d="M7 12.331v1.669c-2.799-.254-5-2.637-5-5.5 0-1.86.931-3.504 2.348-4.5h-2.348l2-2h4v4l-2 2v-3h-.002l.002-.238c-1.389.586-2.363 2.136-2.363 3.738 0 1.965 1.465 3.585 3.363 3.831zm0-.224v-.107l-.029-.007.029.114zm5.363-4.607c0 1.602-.975 3.152-2.363 3.738l.002-.238h-.002v-3l-2 2v4h4l2-2h-2.348c1.417-.996 2.348-2.641 2.348-4.5 0-2.863-2.201-5.246-5-5.5v1.669c1.898.246 3.363 1.866 3.363 3.831z" id="iconBg"/></svg>