<?xml version="1.0" encoding="UTF-8" standalone="no"?>
<svg
   xmlns:dc="http://purl.org/dc/elements/1.1/"
   xmlns:cc="http://creativecommons.org/ns#"
   xmlns:rdf="http://www.w3.org/1999/02/22-rdf-syntax-ns#"
   xmlns:svg="http://www.w3.org/2000/svg"
   xmlns="http://www.w3.org/2000/svg"
   xmlns:xlink="http://www.w3.org/1999/xlink"
   xmlns:sodipodi="http://sodipodi.sourceforge.net/DTD/sodipodi-0.dtd"
   xmlns:inkscape="http://www.inkscape.org/namespaces/inkscape"
   width="500mm"
   height="500mm"
   viewBox="0 0 1417.3228 1417.3228"
   version="1.1"
   id="svg42"
   sodipodi:docname="4k_movistar_partidazo.svg"
   inkscape:version="0.92.4 (5da689c313, 2019-01-14)">
  <metadata
     id="metadata48">
    <rdf:RDF>
      <cc:Work
         rdf:about="">
        <dc:format>image/svg+xml</dc:format>
        <dc:type
           rdf:resource="http://purl.org/dc/dcmitype/StillImage" />
        <dc:title />
      </cc:Work>
    </rdf:RDF>
  </metadata>
  <defs
     id="defs46">
    <linearGradient
       gradientTransform="matrix(1.0959189,0,0,1.1013931,-198.01018,-203.48459)"
       gradientUnits="userSpaceOnUse"
       y2="1369.6112"
       x2="1378.3104"
       y1="1680.0857"
       x1="1687.0757"
       id="linearGradient2355"
       xlink:href="#linearGradient2367"
       inkscape:collect="always" />
    <linearGradient
       inkscape:collect="always"
       id="linearGradient2367">
      <stop
         style="stop-color:#91c6ef;stop-opacity:1"
         offset="0"
         id="stop2363" />
      <stop
         style="stop-color:#fafafa;stop-opacity:0.50196081"
         offset="1"
         id="stop2365" />
    </linearGradient>
    <filter
       height="1.0239997"
       y="-0.011999825"
       width="1.0240003"
       x="-0.012000175"
       id="filter3369"
       style="color-interpolation-filters:sRGB"
       inkscape:collect="always">
      <feGaussianBlur
         id="feGaussianBlur3371"
         stdDeviation="5.1926353"
         inkscape:collect="always" />
    </filter>
  </defs>
  <sodipodi:namedview
     pagecolor="#ffffff"
     bordercolor="#666666"
     borderopacity="1"
     objecttolerance="10"
     gridtolerance="10"
     guidetolerance="10"
     inkscape:pageopacity="0"
     inkscape:pageshadow="2"
     inkscape:window-width="1920"
     inkscape:window-height="1017"
     id="namedview44"
     showgrid="false"
     units="mm"
     inkscape:zoom="0.28063241"
     inkscape:cx="285.84852"
     inkscape:cy="878.96037"
     inkscape:window-x="-8"
     inkscape:window-y="-8"
     inkscape:window-maximized="1"
     inkscape:current-layer="svg42" />
  <g
     id="g863"
     transform="matrix(0.74999998,0,0,0.74999998,-4.1169072e-7,5.061728e-6)">
    <path
       transform="rotate(-180,944.88188,944.88188)"
       sodipodi:nodetypes="cccc"
       inkscape:connector-curvature="0"
       id="path2346"
       d="m 1876.9659,838.75924 0.3356,1038.33096 -1038.51194,0.2112 C 1304.6053,1632.379 1667.2142,1298.7208 1876.9659,838.75924 Z"
       inkscape:transform-center-y="-0.69622776"
       inkscape:transform-center-x="169.4141"
       style="opacity:1;fill:url(#linearGradient2355);fill-opacity:1;stroke:none;stroke-width:7.55905533;stroke-miterlimit:4;stroke-dasharray:none;stroke-opacity:1;filter:url(#filter3369)" />
    <text
       id="text854"
       y="307.96774"
       x="48.18718"
       style="font-style:normal;font-weight:normal;font-size:333.33334351px;line-height:1.25;font-family:sans-serif;letter-spacing:0px;word-spacing:0px;fill:#000000;fill-opacity:1;stroke:#c9e3f7;stroke-width:7.55905533;stroke-miterlimit:4;stroke-dasharray:none;stroke-opacity:1"
       xml:space="preserve"><tspan
         style="font-style:normal;font-variant:normal;font-weight:bold;font-stretch:normal;font-family:sans-serif;-inkscape-font-specification:'sans-serif Bold';stroke:#c9e3f7;stroke-width:7.55905533;stroke-miterlimit:4;stroke-dasharray:none;stroke-opacity:1"
         y="307.96774"
         x="48.18718"
         id="tspan852"
         sodipodi:role="line">4K</tspan></text>
  </g>
  <g
     id="g915"
     transform="matrix(0.91500747,0,0,0.91500747,14.170725,-394.67547)">
    <g
       id="g894">
      <path
         style="opacity:1;fill:#ffffff"
         inkscape:connector-curvature="0"
         id="path2"
         d="m 948.3,1168.8028 c 6.46,-1.94 14.14,-0.68 18.99,4.23 7.36,6.77 7.37,19.81 0,26.58 -7.36,7.39 -21.26,6.77 -27.47,-1.81 -7.86,-9.29 -3.3,-25.53 8.48,-29 z" />
      <path
         style="opacity:1;fill:#ffffff"
         inkscape:connector-curvature="0"
         id="path4"
         d="m 868.5,1190.4028 c 9.43,-5.86 18.95,-11.6 28.12,-17.84 0.58,2.87 0.33,5.81 0.38,8.72 0.01,12.7 -0.02,25.41 0.01,38.11 10.08,-0.09 20.15,-0.1 30.23,0 -0.2,8.16 -0.04,16.32 -0.07,24.47 -10.03,-0.17 -20.06,0.07 -30.09,-0.16 -0.2,17.2 -0.01,34.4 -0.09,51.59 0.15,5.66 1.64,12.32 7.08,15.21 7.1,3.17 15.38,1.31 21.94,-2.33 -0.04,8.65 -0.02,17.3 0,25.95 -10.39,2.83 -21.61,3.42 -32.03,0.39 -9.67,-2.79 -17.97,-10.05 -21.72,-19.42 -2.71,-6.22 -3.71,-13.05 -3.77,-19.79 0.04,-17.16 -0.01,-34.32 0.03,-51.48 -6.03,-0.05 -12.05,-0.01 -18.06,0 0.14,-8.17 0.03,-16.34 0.02,-24.51 6.03,0.01 12.07,0.07 18.11,-0.03 -0.2,-9.63 -0.03,-19.26 -0.09,-28.88 z" />
      <path
         style="opacity:1;fill:#ffffff"
         inkscape:connector-curvature="0"
         id="path6"
         d="m 1063.53,1172.8128 c 9.55,0.01 19.1,0.08 28.65,-0.02 -0.05,53.91 -0.08,107.82 0.02,161.72 -9.56,-0.07 -19.11,-0.07 -28.66,-0.01 -0.11,-3.68 -0.06,-7.36 0.08,-11.03 -5.25,7.29 -13.93,11.48 -22.66,12.75 -13.68,1.24 -28.34,-1.69 -39.07,-10.68 -10.2,-8.39 -15.71,-21.25 -17.67,-34.07 -2.24,-15.57 -1.3,-32.05 5.22,-46.53 5.17,-11.62 15.31,-20.97 27.54,-24.68 10.21,-3.06 21.51,-4.18 31.73,-0.53 5.66,2.01 10.82,5.31 15,9.64 -0.46,-18.84 -0.09,-37.71 -0.18,-56.56 m -29.43,69.75 c -6.69,1.6 -12.49,6.19 -15.8,12.18 -3.92,6.82 -5.14,14.84 -5.28,22.6 0.2,10.64 2.94,22.32 11.55,29.35 9.63,8.36 25.84,6.73 33.65,-3.34 7.32,-9.25 8.59,-21.7 7.55,-33.06 -1.12,-8.66 -4.23,-17.69 -11.35,-23.21 -5.52,-4.87 -13.33,-5.71 -20.32,-4.52 z" />
      <path
         style="opacity:1;fill:#ffffff"
         inkscape:connector-curvature="0"
         id="path8"
         d="m 525.01,1174.4128 c 17.98,0.18 35.97,0.02 53.95,0.08 13.07,-0.39 27.12,0.86 38.1,8.64 7.73,5.22 13.34,13.25 16.02,22.15 3.38,11.14 3.46,23.18 0.52,34.44 -2.71,9.89 -8.77,19.05 -17.57,24.51 -8.53,5.6 -18.88,7.62 -28.94,7.93 -10.72,-0.01 -21.43,0.09 -32.14,-0.06 0.07,20.82 0.11,41.64 -0.02,62.45 -9.95,-0.14 -19.91,-0.14 -29.86,0 -0.16,-53.38 -0.03,-106.76 -0.06,-160.14 m 29.99,27.91 c -0.03,14.01 0.07,28.02 -0.06,42.03 10.71,-0.06 21.41,0 32.11,-0.02 7.35,-0.16 14.85,-4.7 16.89,-12.05 1.96,-6.94 1.93,-14.88 -1.47,-21.39 -3.25,-5.77 -10.08,-8.62 -16.48,-8.59 -10.33,0.04 -20.66,0.01 -30.99,0.02 z" />
      <path
         style="opacity:1;fill:#ffffff"
         inkscape:connector-curvature="0"
         id="path10"
         d="m 676.95,1219.4528 c 15.81,-4.36 34.6,-1.96 46.31,10.35 -0.11,-3.48 -0.12,-6.96 -0.19,-10.44 9.64,-0.08 19.28,-0.01 28.92,-0.03 0.01,38.38 0.02,76.76 0,115.15 -9.61,0 -19.22,-0.06 -28.83,0.04 -0.01,-3.7 -0.09,-7.39 0.15,-11.07 -6.9,8.28 -17.59,12.88 -28.29,13.01 -12.6,0.43 -25.71,-2.58 -35.79,-10.4 -11.88,-8.82 -18.36,-23.31 -20.17,-37.7 -1.9,-14.96 -0.4,-30.83 6.67,-44.35 6.23,-12.19 17.93,-21.33 31.22,-24.56 m 14.28,23.15 c -6.64,1.66 -12.66,5.8 -16.5,11.48 -4.76,6.76 -6.4,15.16 -6.6,23.28 0.38,7.84 1.92,15.89 6.52,22.43 6.09,9.49 18.57,14.54 29.46,11.33 7.3,-1.93 13.37,-7.33 16.99,-13.85 5.51,-10.59 6.1,-23.35 2.57,-34.66 -2.64,-7.5 -7.6,-14.65 -15.05,-17.98 -5.29,-2.9 -11.58,-2.87 -17.39,-2.03 z" />
      <path
         style="opacity:1;fill:#ffffff"
         inkscape:connector-curvature="0"
         id="path12"
         d="m 825.04,1219.2728 c 6.48,-2.05 13.5,-2.43 20.13,-0.85 0.02,9.36 -0.14,18.72 0.08,28.07 -5.3,-3.6 -12.14,-3.97 -18.25,-2.71 -9.16,2.11 -16.03,9.8 -19.36,18.29 -5.02,12.41 -5.29,26.03 -5.16,39.22 0,11.07 -0.02,22.13 0.03,33.2 -9.5,-0.04 -18.99,-0.04 -28.48,0 -0.01,-38.39 -0.08,-76.77 0.03,-115.15 9.49,-0.04 18.98,0 28.47,-0.02 -0.05,6.1 0.02,12.19 -0.16,18.29 5.54,-8.15 13.09,-15.34 22.67,-18.34 z" />
      <path
         style="opacity:1;fill:#ffffff"
         inkscape:connector-curvature="0"
         id="path14"
         d="m 1134.24,1224.4828 c 9.3,-5.28 20.18,-7.31 30.8,-6.98 10.32,0.72 20.8,4.65 27.98,12.29 0.01,-3.47 -0.01,-6.94 0.03,-10.4 9.62,-0.09 19.25,-0.08 28.87,-0.03 -0.16,38.37 -0.06,76.74 -0.04,115.11 -9.6,0.04 -19.2,-0.11 -28.8,0.08 -0.08,-3.8 -0.07,-7.6 -0.08,-11.4 -5.28,7.32 -14.16,11.4 -22.87,12.88 -13.49,1.57 -27.88,-0.77 -39.21,-8.58 -10.42,-6.81 -17.1,-18.21 -20.34,-30.03 -3.55,-14.33 -3.48,-29.65 0.89,-43.79 3.72,-12.03 11.69,-22.93 22.77,-29.15 m 26.07,18.26 c -6.05,1.73 -11.68,5.33 -15.26,10.56 -5.1,6.88 -6.93,15.61 -7.11,24.03 0.29,9.43 2.78,19.5 9.72,26.32 6.21,6.86 16.36,10.02 25.34,7.68 7.41,-1.68 13.84,-6.86 17.5,-13.48 5.01,-8.57 5.77,-18.96 4.47,-28.62 -1.38,-10.01 -7.03,-19.93 -16.34,-24.46 -5.56,-3.08 -12.23,-3.09 -18.32,-2.03 z" />
      <path
         style="opacity:1;fill:#ffffff"
         inkscape:connector-curvature="0"
         id="path16"
         d="m 1376.67,1218.1128 c 19.09,-2.71 40.27,2.55 53.43,17.27 13.38,14.99 17.1,36.65 13.32,55.97 -1.75,7.8 -4.54,15.48 -9.24,22.02 -7.31,11.04 -19.33,18.46 -32.11,21.44 -17.18,3.63 -36.38,1.79 -51.05,-8.46 -14.28,-9.82 -22.38,-26.98 -23.19,-44.05 -1.53,-17.92 3.82,-37.32 17.37,-49.74 8.32,-8.38 19.88,-13.01 31.47,-14.45 m 3.54,24.46 c -9.08,1.83 -16.15,9.11 -19.53,17.5 -4.22,10.66 -4.22,22.93 -0.09,33.62 3.22,8.15 9.85,15.43 18.62,17.48 11.38,3.4 24.27,-2.24 30.05,-12.49 6.13,-10.56 7.07,-23.7 3.57,-35.29 -2.52,-8.05 -7.75,-15.75 -15.7,-19.17 -5.26,-2.54 -11.28,-2.37 -16.92,-1.65 z" />
      <path
         style="opacity:1;fill:#ffffff"
         inkscape:connector-curvature="0"
         id="path18"
         d="m 940.04,1219.3628 c 9.63,-0.04 19.27,-0.06 28.9,0 -0.21,38.36 -0.07,76.74 -0.07,115.11 -9.61,0.04 -19.21,-0.09 -28.81,0.06 -0.09,-38.39 -0.05,-76.78 -0.02,-115.17 z" />
      <path
         style="opacity:1;fill:#ffffff"
         inkscape:connector-curvature="0"
         id="path20"
         d="m 1238.05,1219.3528 c 27.19,-0.06 54.38,0.01 81.58,-0.03 -0.42,3.92 0.27,7.93 -0.43,11.8 -16.18,26.43 -32.62,52.73 -48.76,79.18 17.48,0.09 34.97,-0.01 52.46,0.06 -0.12,8.03 -0.04,16.07 -0.05,24.1 -29.46,0.02 -58.92,-0.02 -88.38,0.03 0.29,-3.96 -0.52,-8.12 0.5,-11.94 16.36,-26.31 32.8,-52.57 49.11,-78.91 -15.36,0.41 -30.73,-0.05 -46.08,0.21 0.03,-8.16 -0.04,-16.33 0.05,-24.5 z" />
      <path
         style="opacity:1;fill:#004e7e"
         inkscape:connector-curvature="0"
         id="path23"
         d="m 279.53,994.32278 h 8.94 c 12.67,1.34 23.98,8.96002 31.39,19.11002 6.86,9.03 11,19.71 14.67,30.34 6.7,19.91 10.02,40.83 11.33,61.76 -0.64,1.55 -1.27,3.15 -1.06,4.87 0.23,7.29 0.61,14.59 0.32,21.89 -0.09,3.57 -0.87,7.31 0.74,10.68 -0.8,10.52 -2.04,21.02 -3.9,31.41 -1.47,8.08 -4.41,16.46 -10.98,21.8 -5.63,4.99 -14.44,6.26 -21,2.38 -5.55,-3.41 -8.18,-9.95 -8.88,-16.18 -0.39,-5.83 -0.08,-11.69 0.68,-17.48 1.51,-15.17 3.28,-30.37 3.06,-45.63 -0.51,-7.65 -0.89,-15.89 -5.46,-22.39 -4.16,-6.06 -12.6,-8.45 -19.37,-5.66 -6.21,2.68 -11.22,7.53 -15.27,12.85 -7.52,9.62 -12.26,21 -16.78,32.25 -7.47,19.13 -13.1,38.91 -19.47,58.42 -4.43,13.05 -11.74,25.62 -23.02,33.87 -9.94,7.38 -22.32,10.56 -34.49,11.64 -8.37,0.47 -16.93,0.57 -25.05,-1.84 -16.06,-4.38 -29.29,-16.12 -37.83,-30.15 -10.01,-16.49 -19.37,-33.35 -28.99,-50.06 -4.22,-7.28 -8.1,-14.9 -13.86,-21.11 -3.06,-3.26 -7.48,-6.11 -12.14,-5.1 -4.92,0.67 -9.04,4.6 -10.32,9.35 -1.99,6.94 -1.41,14.32 -0.35,21.37 3.43,19.97 11.34,38.78 15.99,58.45 1.78,7.44 2.73,16.06 -1.99,22.66 -6.73,9.46 -22.41,7.73 -28.66,-1.41 -5.93,-7.63 -8.96,-16.91 -12.22,-25.88 -8.2,-23.77 -14.01,-48.51 -15.56,-73.67 v -17.98 c 1.63,-21.59 5.47,-43.36 14.5,-63.18 6.48,-14.07 16.63,-27.41 31.2,-33.71 11.22,-4.98 24.42,-5.62 36.02,-1.62 10.45,3.65 18.13,12 25.54,19.81 12.54,15.54 22.79,32.74 33.44,49.57 6.29,9.16 14.5,17.99 25.43,21.29 11.18,3.61 24.22,-0.9 31.17,-10.27 4.23,-5.28 6.68,-11.65 9.24,-17.83 7.88,-19.57 15.46,-39.29 24.63,-58.31 9.35,-18.6 27.17,-33.95002 48.36,-36.31002 z" />
      <path
         style="opacity:1;fill:#01da95"
         inkscape:connector-curvature="0"
         id="path26"
         d="m 443.24,1089.4428 c 21.59,0.18 43.17,-0.26 64.75,-0.13 28.02,0.31 56.05,0.11 84.07,0.17 295.99,0 591.98,-0.01 887.96,0 8.27,0.14 16.72,2.34 23.29,7.55 8,5.69 12.96,14.87 14.69,24.41 v 264.42 c -2.16,15.54 -14.78,28.94 -30.35,31.46 H 472.75 c -5.72,-1.6 -11.4,-3.81 -15.91,-7.78 -8.43,-6.77 -13.46,-17.4 -13.69,-28.17 0,-44.36 0,-88.72 0,-133.08 0.18,-52.95 -0.43,-105.9 0.09,-158.85 m 505.06,79.36 c -11.78,3.47 -16.34,19.71 -8.48,29 6.21,8.58 20.11,9.2 27.47,1.81 7.37,-6.77 7.36,-19.81 0,-26.58 -4.85,-4.91 -12.53,-6.17 -18.99,-4.23 m -79.8,21.6 c 0.06,9.62 -0.11,19.25 0.09,28.88 -6.04,0.1 -12.08,0.04 -18.11,0.03 0.01,8.17 0.12,16.34 -0.02,24.51 6.01,-0.01 12.03,-0.05 18.06,0 -0.04,17.16 0.01,34.32 -0.03,51.48 0.06,6.74 1.06,13.57 3.77,19.79 3.75,9.37 12.05,16.63 21.72,19.42 10.42,3.03 21.64,2.44 32.03,-0.39 -0.02,-8.65 -0.04,-17.3 0,-25.95 -6.56,3.64 -14.84,5.5 -21.94,2.33 -5.44,-2.89 -6.93,-9.55 -7.08,-15.21 0.08,-17.19 -0.11,-34.39 0.09,-51.59 10.03,0.23 20.06,-0.01 30.09,0.16 0.03,-8.15 -0.13,-16.31 0.07,-24.47 -10.08,-0.1 -20.15,-0.09 -30.23,0 -0.03,-12.7 0,-25.41 -0.01,-38.11 -0.05,-2.91 0.2,-5.85 -0.38,-8.72 -9.17,6.24 -18.69,11.98 -28.12,17.84 m 195.03,-17.59 c 0.09,18.85 -0.28,37.72 0.18,56.56 -4.18,-4.33 -9.34,-7.63 -15,-9.64 -10.22,-3.65 -21.52,-2.53 -31.73,0.53 -12.23,3.71 -22.37,13.06 -27.54,24.68 -6.52,14.48 -7.46,30.96 -5.22,46.53 1.96,12.82 7.47,25.68 17.67,34.07 10.73,8.99 25.39,11.92 39.07,10.68 8.73,-1.27 17.41,-5.46 22.66,-12.75 -0.14,3.67 -0.19,7.35 -0.08,11.03 9.55,-0.06 19.1,-0.06 28.66,0.01 -0.1,-53.9 -0.07,-107.81 -0.02,-161.72 -9.55,0.1 -19.1,0.03 -28.65,0.02 m -538.52,1.6 c 0.03,53.38 -0.1,106.76 0.06,160.14 9.95,-0.14 19.91,-0.14 29.86,0 0.13,-20.81 0.09,-41.63 0.02,-62.45 10.71,0.15 21.42,0.05 32.14,0.06 10.06,-0.31 20.41,-2.33 28.94,-7.93 8.8,-5.46 14.86,-14.62 17.57,-24.51 2.94,-11.26 2.86,-23.3 -0.52,-34.44 -2.68,-8.9 -8.29,-16.93 -16.02,-22.15 -10.98,-7.78 -25.03,-9.03 -38.1,-8.64 -17.98,-0.06 -35.97,0.1 -53.95,-0.08 m 151.94,45.04 c -13.29,3.23 -24.99,12.37 -31.22,24.56 -7.07,13.52 -8.57,29.39 -6.67,44.35 1.81,14.39 8.29,28.88 20.17,37.7 10.08,7.82 23.19,10.83 35.79,10.4 10.7,-0.13 21.39,-4.73 28.29,-13.01 -0.24,3.68 -0.16,7.37 -0.15,11.07 9.61,-0.1 19.22,-0.04 28.83,-0.04 0.02,-38.39 0.01,-76.77 0,-115.15 -9.64,0.02 -19.28,-0.05 -28.92,0.03 0.07,3.48 0.08,6.96 0.19,10.44 -11.71,-12.31 -30.5,-14.71 -46.31,-10.35 m 148.09,-0.18 c -9.58,3 -17.13,10.19 -22.67,18.34 0.18,-6.1 0.11,-12.19 0.16,-18.29 -9.49,0.02 -18.98,-0.02 -28.47,0.02 -0.11,38.38 -0.04,76.76 -0.03,115.15 9.49,-0.04 18.98,-0.04 28.48,0 -0.05,-11.07 -0.03,-22.13 -0.03,-33.2 -0.13,-13.19 0.14,-26.81 5.16,-39.22 3.33,-8.49 10.2,-16.18 19.36,-18.29 6.11,-1.26 12.95,-0.89 18.25,2.71 -0.22,-9.35 -0.06,-18.71 -0.08,-28.07 -6.63,-1.58 -13.65,-1.2 -20.13,0.85 m 309.2,5.21 c -11.08,6.22 -19.05,17.12 -22.77,29.15 -4.37,14.14 -4.44,29.46 -0.89,43.79 3.24,11.82 9.92,23.22 20.34,30.03 11.33,7.81 25.72,10.15 39.21,8.58 8.71,-1.48 17.59,-5.56 22.87,-12.88 0.01,3.8 0,7.6 0.08,11.4 9.6,-0.19 19.2,-0.04 28.8,-0.08 -0.02,-38.37 -0.12,-76.74 0.04,-115.11 -9.62,-0.05 -19.25,-0.06 -28.87,0.03 -0.04,3.46 -0.02,6.93 -0.03,10.4 -7.18,-7.64 -17.66,-11.57 -27.98,-12.29 -10.62,-0.33 -21.5,1.7 -30.8,6.98 m 242.43,-6.37 c -11.59,1.44 -23.15,6.07 -31.47,14.45 -13.55,12.42 -18.9,31.82 -17.37,49.74 0.81,17.07 8.91,34.23 23.19,44.05 14.67,10.25 33.87,12.09 51.05,8.46 12.78,-2.98 24.8,-10.4 32.11,-21.44 4.7,-6.54 7.49,-14.22 9.24,-22.02 3.78,-19.32 0.06,-40.98 -13.32,-55.97 -13.16,-14.72 -34.34,-19.98 -53.43,-17.27 m -436.63,1.25 c -0.03,38.39 -0.07,76.78 0.02,115.17 9.6,-0.15 19.2,-0.02 28.81,-0.06 0,-38.37 -0.14,-76.75 0.07,-115.11 -9.63,-0.06 -19.27,-0.04 -28.9,0 m 298.01,-0.01 c -0.09,8.17 -0.02,16.34 -0.05,24.5 15.35,-0.26 30.72,0.2 46.08,-0.21 -16.31,26.34 -32.75,52.6 -49.11,78.91 -1.02,3.82 -0.21,7.98 -0.5,11.94 29.46,-0.05 58.92,-0.01 88.38,-0.03 0.01,-8.03 -0.07,-16.07 0.05,-24.1 -17.49,-0.07 -34.98,0.03 -52.46,-0.06 16.14,-26.45 32.58,-52.75 48.76,-79.18 0.7,-3.87 0.01,-7.88 0.43,-11.8 -27.2,0.04 -54.39,-0.03 -81.58,0.03 z" />
      <path
         style="opacity:1;fill:#01da95"
         inkscape:connector-curvature="0"
         id="path28"
         d="m 555,1202.3228 c 10.33,-0.01 20.66,0.02 30.99,-0.02 6.4,-0.03 13.23,2.82 16.48,8.59 3.4,6.51 3.43,14.45 1.47,21.39 -2.04,7.35 -9.54,11.89 -16.89,12.05 -10.7,0.02 -21.4,-0.04 -32.11,0.02 0.13,-14.01 0.03,-28.02 0.06,-42.03 z" />
      <path
         style="opacity:1;fill:#01da95"
         inkscape:connector-curvature="0"
         id="path30"
         d="m 691.23,1242.6028 c 5.81,-0.84 12.1,-0.87 17.39,2.03 7.45,3.33 12.41,10.48 15.05,17.98 3.53,11.31 2.94,24.07 -2.57,34.66 -3.62,6.52 -9.69,11.92 -16.99,13.85 -10.89,3.21 -23.37,-1.84 -29.46,-11.33 -4.6,-6.54 -6.14,-14.59 -6.52,-22.43 0.2,-8.12 1.84,-16.52 6.6,-23.28 3.84,-5.68 9.86,-9.82 16.5,-11.48 z" />
      <path
         style="opacity:1;fill:#01da95"
         inkscape:connector-curvature="0"
         id="path32"
         d="m 1034.1,1242.5628 c 6.99,-1.19 14.8,-0.35 20.32,4.52 7.12,5.52 10.23,14.55 11.35,23.21 1.04,11.36 -0.23,23.81 -7.55,33.06 -7.81,10.07 -24.02,11.7 -33.65,3.34 -8.61,-7.03 -11.35,-18.71 -11.55,-29.35 0.14,-7.76 1.36,-15.78 5.28,-22.6 3.31,-5.99 9.11,-10.58 15.8,-12.18 z" />
      <path
         style="opacity:1;fill:#01da95"
         inkscape:connector-curvature="0"
         id="path34"
         d="m 1160.31,1242.7428 c 6.09,-1.06 12.76,-1.05 18.32,2.03 9.31,4.53 14.96,14.45 16.34,24.46 1.3,9.66 0.54,20.05 -4.47,28.62 -3.66,6.62 -10.09,11.8 -17.5,13.48 -8.98,2.34 -19.13,-0.82 -25.34,-7.68 -6.94,-6.82 -9.43,-16.89 -9.72,-26.32 0.18,-8.42 2.01,-17.15 7.11,-24.03 3.58,-5.23 9.21,-8.83 15.26,-10.56 z" />
      <path
         style="opacity:1;fill:#01da95"
         inkscape:connector-curvature="0"
         id="path36"
         d="m 1380.21,1242.5728 c 5.64,-0.72 11.66,-0.89 16.92,1.65 7.95,3.42 13.18,11.12 15.7,19.17 3.5,11.59 2.56,24.73 -3.57,35.29 -5.78,10.25 -18.67,15.89 -30.05,12.49 -8.77,-2.05 -15.4,-9.33 -18.62,-17.48 -4.13,-10.69 -4.13,-22.96 0.09,-33.62 3.38,-8.39 10.45,-15.67 19.53,-17.5 z" />
      <path
         style="opacity:1;fill:#02386d"
         inkscape:connector-curvature="0"
         id="path39"
         d="m 344.8,1110.4028 c -0.21,-1.72 0.42,-3.32 1.06,-4.87 0.66,12.47 0.91,24.97 0,37.44 -1.61,-3.37 -0.83,-7.11 -0.74,-10.68 0.29,-7.3 -0.09,-14.6 -0.32,-21.89 z" />
    </g>
  </g>
</svg>
