<?xml version="1.0" encoding="utf-8"?>
<!-- Generator: Adobe Illustrator 23.0.1, SVG Export Plug-In . SVG Version: 6.00 Build 0)  -->
<!DOCTYPE svg PUBLIC "-//W3C//DTD SVG 1.1//EN" "http://www.w3.org/Graphics/SVG/1.1/DTD/svg11.dtd" [
	<!ENTITY ns_extend "http://ns.adobe.com/Extensibility/1.0/">
	<!ENTITY ns_ai "http://ns.adobe.com/AdobeIllustrator/10.0/">
	<!ENTITY ns_graphs "http://ns.adobe.com/Graphs/1.0/">
	<!ENTITY ns_vars "http://ns.adobe.com/Variables/1.0/">
	<!ENTITY ns_imrep "http://ns.adobe.com/ImageReplacement/1.0/">
	<!ENTITY ns_sfw "http://ns.adobe.com/SaveForWeb/1.0/">
	<!ENTITY ns_custom "http://ns.adobe.com/GenericCustomNamespace/1.0/">
	<!ENTITY ns_adobe_xpath "http://ns.adobe.com/XPath/1.0/">
]>
<svg version="1.1" id="Livello_1" xmlns:x="&ns_extend;" xmlns:i="&ns_ai;" xmlns:graph="&ns_graphs;"
	 xmlns="http://www.w3.org/2000/svg" xmlns:xlink="http://www.w3.org/1999/xlink" x="0px" y="0px" viewBox="0 0 3979.5 3886.7"
	 style="enable-background:new 0 0 3979.5 3886.7;" xml:space="preserve">
<style type="text/css">
	.st0{fill:#DC4811;}
	.st1{fill:#FFFFFF;}
</style>
<metadata>
	<sfw  xmlns="&ns_sfw;">
		<slices></slices>
		<sliceSourceBounds  bottomLeftOrigin="true" height="3886.7" width="3979.5" x="-1930.6" y="-1887.8"></sliceSourceBounds>
	</sfw>
</metadata>
<g id="g748" transform="translate(0,312)">
	<polygon id="polygon716" class="st0" points="1282.7,2361.6 0,2361.6 0,-312 1282.7,-312 	"/>
	<path id="path718" class="st1" d="M703.2,1279.8H564.1l69.5-548.6L703.2,1279.8z M1151.3,1998.4L857.7,51.2
		c0-7.7-7.7-15.5-23.2-15.5H432.7c-7.7-7.7-15.5,0-23.2,15.5L123.6,1998.4c0,7.7,0,15.5,7.7,15.5c7.7,7.7,7.7,7.7,15.5,7.7h324.5
		c7.7,0,15.5-7.7,23.2-15.5l54.1-363.2c0-7.7,7.7-15.5,23.2-15.5h139.1c7.7,0,15.5,7.7,23.2,15.5l54.1,363.2
		c0,7.7,7.7,15.5,23.2,15.5h324.5c7.7,0,15.5,0,15.5-7.7C1151.3,2013.9,1151.3,2006.1,1151.3,1998.4z"/>
	<polygon id="polygon720" class="st0" points="2534.5,2183.9 1452.7,2183.9 1452.7,-87.9 2534.5,-87.9 	"/>
	<path id="path722" class="st1" d="M2341.3,538c0-154.5-100.5-355.4-332.3-355.4s-363.2,146.8-363.2,340v208.6
		c0,23.2,15.5,38.6,46.4,38.6h224.1c30.9,0,46.4-15.5,46.4-38.6V522.5c0-23.2,15.5-38.6,38.6-38.6c23.2,0,38.6,7.7,38.6,30.9V878
		c0,7.7,0,23.2-7.7,30.9c-7.7,7.7-15.5,15.5-30.9,15.5h-61.8c-23.2,0-38.6,15.5-38.6,38.6v185.5c0,23.2,15.5,30.9,38.6,38.6h61.8
		c7.7,0,23.2,0,30.9,7.7c7.7,7.7,15.5,15.5,7.7,30.9v355.4c0,23.2-15.5,30.9-38.6,30.9s-38.6-15.5-38.6-38.6v-216.4
		c0-30.9-15.5-38.6-46.4-38.6h-224.1c-30.9,0-46.4,15.5-46.4,38.6v216.4c0,200.9,131.4,340,363.2,340
		c231.8,0,332.3-193.2,332.3-355.4v-309.1c0-85-38.6-146.8-85-200.9c46.4-54.1,85-115.9,85-200.9
		C2341.3,847.1,2341.3,538,2341.3,538z"/>
	<polygon id="polygon724" class="st0" points="3979.5,2353.8 2712.2,2353.8 2712.2,-312 3979.5,-312 	"/>
	<path id="path726" class="st1" d="M3438.6,746.6h301.4c7.7,0,15.5,0,23.2-7.7s7.7-15.5,7.7-23.2V445.3
		c0-293.6-146.8-448.2-432.7-448.2c-386.4,0-425,285.9-425,417.3v239.5c0,146.8,54.1,285.9,208.6,401.8
		c185.5,139.1,285.9,216.4,285.9,316.8v216.4c0,38.6-7.7,85-61.8,85c-38.6,0-61.8-30.9-61.8-85v-270.4c0-15.5-15.5-30.9-30.9-30.9
		H2944c-7.7,0-15.5,0-15.5,7.7c-7.7,7.7-7.7,15.5-7.7,15.5v309.1c0,301.4,193.2,417.3,417.3,417.3s448.2-77.3,448.2-448.2v-231.8
		c0-177.7-69.5-332.3-216.4-448.2c-185.5-131.4-270.4-231.8-270.4-316.8V437.5c0-46.4,15.5-77.3,61.8-77.3
		c30.9,0,61.8,30.9,61.8,77.3v278.2C3407.7,738.9,3423.1,746.6,3438.6,746.6"/>
	<path id="path728" class="st0" d="M247.3,3242.5h-54.1l23.2-193.2L247.3,3242.5z M309.1,2740.2H131.4l-85,517.7L7.7,3551.5h146.8
		l23.2-162.3h85l23.2,162.3h146.8l-38.6-293.6L309.1,2740.2z"/>
	<polygon id="polygon730" class="st0" points="540.9,3551.5 687.7,3551.5 687.7,2879.3 788.2,2879.3 788.2,2740.2 432.7,2740.2 
		432.7,2879.3 540.9,2879.3 	"/>
	<path id="path732" class="st0" d="M1004.5,2879.3h23.2c23.2,0,30.9,15.5,30.9,38.6v115.9c0,15.5-7.7,30.9-23.2,38.6
		c0,0-7.7,0-23.2,0h-7.7L1004.5,2879.3z M1205.4,3033.8v-115.9c0-115.9-54.1-177.7-170-177.7H857.7v811.3h146.8v-332.3l85,332.3
		h154.5l-131.4-370.9C1174.5,3157.5,1205.4,3111.1,1205.4,3033.8L1205.4,3033.8z"/>
	<polygon id="polygon734" class="st0" points="1622.7,3412.5 1445,3412.5 1445,3211.6 1599.5,3211.6 1599.5,3072.5 1445,3072.5 
		1445,2879.3 1622.7,2879.3 1622.7,2740.2 1298.2,2740.2 1298.2,3551.5 1622.7,3551.5 	"/>
	<path id="path736" class="st0" d="M1870,2724.8c-115.9,0-177.7,61.8-177.7,177.7v77.3c0,77.3,38.6,139.1,108.2,193.2
		c69.5,46.4,100.5,85,100.5,123.6v92.7c0,23.2-7.7,38.6-30.9,38.6s-30.9-15.5-30.9-38.6v-115.9h-146.8v115.9
		c0,115.9,61.8,177.7,177.7,177.7s177.7-61.8,177.7-177.7v-100.5c0-77.3-38.6-139.1-108.2-193.2c-69.5-46.4-100.5-85-100.5-115.9
		v-69.5c0-38.6,15.5-38.6,30.9-38.6c23.2,0,30.9,15.5,30.9,38.6v115.9h146.8v-115.9C2047.7,2786.6,1993.6,2724.8,1870,2724.8"/>
	<polygon id="polygon738" class="st0" points="2464.9,3412.5 2279.5,3412.5 2279.5,3211.6 2434,3211.6 2434,3072.5 2279.5,3072.5 
		2279.5,2879.3 2464.9,2879.3 2464.9,2740.2 2140.4,2740.2 2140.4,3551.5 2464.9,3551.5 	"/>
	<path id="path740" class="st0" d="M2681.3,2879.3h23.2c23.2,0,30.9,15.5,30.9,38.6v115.9c0,15.5-7.7,30.9-23.2,38.6
		c0,0-7.7,0-23.2,0h-7.7L2681.3,2879.3z M2882.2,3033.8v-115.9c0-115.9-54.1-177.7-170-177.7h-177.7v811.3h146.8v-332.3l85,332.3
		h154.5l-131.4-370.9C2859,3157.5,2882.2,3111.1,2882.2,3033.8L2882.2,3033.8z"/>
	<polygon id="polygon742" class="st0" points="3129.5,3551.5 2982.7,3551.5 2982.7,2740.2 3129.5,2740.2 	"/>
	<polygon id="polygon744" class="st0" points="3554.5,3412.5 3376.7,3412.5 3376.7,3211.6 3531.3,3211.6 3531.3,3072.5 
		3376.7,3072.5 3376.7,2879.3 3554.5,2879.3 3554.5,2740.2 3229.9,2740.2 3229.9,3551.5 3554.5,3551.5 	"/>
	<path id="path746" class="st0" d="M3979.5,3026.1v-115.9c0-115.9-61.8-177.7-177.7-177.7s-177.7,61.8-177.7,177.7v77.3
		c0,77.3,38.6,139.1,108.2,193.2c69.5,46.4,100.5,85,100.5,123.6v92.7c0,23.2-7.7,38.6-30.9,38.6c-23.2,0-30.9-15.5-30.9-38.6
		v-115.9H3624V3397c0,115.9,61.8,177.7,177.7,177.7s177.7-61.8,177.7-177.7v-100.5c0-77.3-38.6-139.1-108.2-193.2
		c-69.5-46.4-100.5-85-100.5-115.9v-69.5c0-38.6,15.5-38.6,30.9-38.6c23.2,0,30.9,15.5,30.9,38.6v115.9L3979.5,3026.1z"/>
</g>
</svg>
