<?xml version="1.0" encoding="UTF-8" standalone="no"?>
<!-- Created with Inkscape (http://www.inkscape.org/) -->

<svg
   xmlns:dc="http://purl.org/dc/elements/1.1/"
   xmlns:cc="http://creativecommons.org/ns#"
   xmlns:rdf="http://www.w3.org/1999/02/22-rdf-syntax-ns#"
   xmlns:svg="http://www.w3.org/2000/svg"
   xmlns="http://www.w3.org/2000/svg"
   xmlns:sodipodi="http://sodipodi.sourceforge.net/DTD/sodipodi-0.dtd"
   xmlns:inkscape="http://www.inkscape.org/namespaces/inkscape"
   width="1000"
   height="532.83179"
   id="svg6566"
   version="1.1"
   inkscape:version="0.48.5 r10040"
   sodipodi:docname="drawing-5.svg">
  <defs
     id="defs6568">
    <clipPath
       id="clipPath11779"
       clipPathUnits="userSpaceOnUse">
      <path
         id="path11781"
         d="m 398.789,310.243 0,-104.883 -45.347,0 0,104.883 45.347,0"
         inkscape:connector-curvature="0" />
    </clipPath>
    <clipPath
       id="clipPath11685"
       clipPathUnits="userSpaceOnUse">
      <path
         id="path11687"
         d="m 398.789,310.243 0,-104.883 -45.347,0 0,104.883 45.347,0"
         inkscape:connector-curvature="0" />
    </clipPath>
    <clipPath
       clipPathUnits="userSpaceOnUse"
       id="clipPath15132">
      <path
         inkscape:connector-curvature="0"
         d="m 419.528,0 419.527,0 0,595.275 -419.527,0 0,-595.275 z"
         id="path15134" />
    </clipPath>
  </defs>
  <sodipodi:namedview
     id="base"
     pagecolor="#ffffff"
     bordercolor="#666666"
     borderopacity="1.0"
     inkscape:pageopacity="0.0"
     inkscape:pageshadow="2"
     inkscape:zoom="0.40168361"
     inkscape:cx="751.2186"
     inkscape:cy="-26.342986"
     inkscape:document-units="px"
     inkscape:current-layer="g10871"
     showgrid="false"
     fit-margin-left="0.5"
     fit-margin-bottom="0.5"
     fit-margin-top="0.5"
     fit-margin-right="0.5"
     inkscape:window-width="1059"
     inkscape:window-height="1028"
     inkscape:window-x="853"
     inkscape:window-y="-12"
     inkscape:window-maximized="0" />
  <metadata
     id="metadata6571">
    <rdf:RDF>
      <cc:Work
         rdf:about="">
        <dc:format>image/svg+xml</dc:format>
        <dc:type
           rdf:resource="http://purl.org/dc/dcmitype/StillImage" />
        <dc:title></dc:title>
      </cc:Work>
    </rdf:RDF>
  </metadata>
  <g
     inkscape:label="Layer 1"
     inkscape:groupmode="layer"
     id="layer1"
     transform="translate(-815.16277,-674.6211)">
    <g
       transform="matrix(0,1.25,1.25,0,19.867204,1258.6799)"
       inkscape:label="DS_Nintendogs"
       id="g10871">
      <g
         id="g15124"
         transform="matrix(0,25.647444,-25.647444,0,-419.5788,1098.2135)">
        <path
           d="m 0,0 1.107,1.843 -19.104,0 0,-14.746 9.459,0 -1.077,-1.843 22.779,0 L 13.164,0 0,0 z m 12.302,-13.883 -20.408,0 1.045,1.842 -10.074,0 0,13.021 16.715,0 -1.107,-1.842 13.829,0 0,-13.021 z"
           style="fill:#f15d2a;fill-opacity:1;fill-rule:nonzero;stroke:none"
           id="path15126"
           inkscape:connector-curvature="0" />
      </g>
      <g
         id="g15128"
         transform="matrix(0,25.647444,-25.647444,0,9920.5241,-16106.497)">
        <g
           id="g15130"
           clip-path="url(#clipPath15132)">
          <g
             id="g15136"
             transform="translate(680.7064,398.8175)">
            <path
               d="m 0,0 0.42,1.739 -4.527,0 -1.435,-5.945 -2.362,0 3.572,5.945 -4.788,0 L -9.54,0 l 2.135,0 -3.284,-5.465 0.347,7.204 -2.058,0 -3.473,-5.945 -2.032,0 1.436,5.945 -1.789,0 -1.307,-5.356 c 0.205,1.182 -0.452,1.491 -0.956,1.649 l -0.002,0 c 0.844,0.197 1.524,0.94 1.602,1.827 0.091,1.038 -0.678,1.88 -1.716,1.88 l -2.834,0 -1.854,-7.684 2.896,0.001 c 0.74,0.008 2.275,0.339 2.766,1.923 l -0.45,-1.924 5.101,0 0.728,1.274 1.915,0 -0.084,-1.274 11.325,0 0.42,1.742 -3.045,-0.003 0.332,1.375 1.826,0 0.42,1.739 -1.827,0 L -2.738,0 0,0 z m -21.328,-3.415 c -0.161,-0.665 -0.899,-0.782 -1.037,-0.782 l -0.735,0 0.365,1.514 0.646,0 c 0.215,0 0.922,-0.067 0.761,-0.732 m 0.687,3.002 c -0.105,-0.375 -0.46,-0.679 -0.793,-0.679 l -0.915,0 0.327,1.357 0.969,0 c 0.333,0 0.517,-0.304 0.412,-0.678 m 8.388,-2.519 -1.036,0 1.171,2.047 -0.135,-2.047 z"
               style="fill:#f15d2a;fill-opacity:1;fill-rule:nonzero;stroke:none"
               id="path15138"
               inkscape:connector-curvature="0" />
          </g>
        </g>
      </g>
    </g>
  </g>
</svg>
