<?xml version="1.0" encoding="utf-8"?>
<!-- Generator: Adobe Illustrator 23.0.1, SVG Export Plug-In . SVG Version: 6.00 Build 0)  -->
<!DOCTYPE svg PUBLIC "-//W3C//DTD SVG 1.1//EN" "http://www.w3.org/Graphics/SVG/1.1/DTD/svg11.dtd" [
	<!ENTITY ns_extend "http://ns.adobe.com/Extensibility/1.0/">
	<!ENTITY ns_ai "http://ns.adobe.com/AdobeIllustrator/10.0/">
	<!ENTITY ns_graphs "http://ns.adobe.com/Graphs/1.0/">
	<!ENTITY ns_vars "http://ns.adobe.com/Variables/1.0/">
	<!ENTITY ns_imrep "http://ns.adobe.com/ImageReplacement/1.0/">
	<!ENTITY ns_sfw "http://ns.adobe.com/SaveForWeb/1.0/">
	<!ENTITY ns_custom "http://ns.adobe.com/GenericCustomNamespace/1.0/">
	<!ENTITY ns_adobe_xpath "http://ns.adobe.com/XPath/1.0/">
]>
<svg version="1.1" id="Livello_1" xmlns:x="&ns_extend;" xmlns:i="&ns_ai;" xmlns:graph="&ns_graphs;"
	 xmlns="http://www.w3.org/2000/svg" xmlns:xlink="http://www.w3.org/1999/xlink" x="0px" y="0px" viewBox="0 0 215.1 50.1"
	 style="enable-background:new 0 0 215.1 50.1;" xml:space="preserve">
<style type="text/css">
	.st0{fill-rule:evenodd;clip-rule:evenodd;fill:#FF0000;}
</style>
<metadata>
	<sfw  xmlns="&ns_sfw;">
		<slices></slices>
		<sliceSourceBounds  bottomLeftOrigin="true" height="50.1" width="215.1" x="0" y="-0.1"></sliceSourceBounds>
	</sfw>
</metadata>
<path id="Fill-1" class="st0" d="M215.1,7.3c0,4-3.3,7.3-7.3,7.3s-7.3-3.3-7.3-7.3s3.3-7.3,7.3-7.3C211.9,0,215.1,3.3,215.1,7.3
	L215.1,7.3z M200.4,28.5c0,11.3-9.1,20.4-20.4,20.4c-11.2,0-20.3-9.1-20.3-20.4c0-11.2,9.1-20.3,20.3-20.3
	C191.3,8.2,200.4,17.3,200.4,28.5L200.4,28.5z M138.5,9h9.4v5.4c2.4-4.5,6.7-6.3,12.2-6.3v9.6c-6.4,0-12.2,3-12.2,11.5V48h-9.4V9z
	 M116.3,0.1h9.4v8.7h8.4v8.4h-8.4v18.1c0,3.1,0.6,4.8,4.2,4.8c1.3,0,2.8-0.3,4.1-0.4v7.7c-2.2,0.5-4.5,0.9-7.5,0.9
	c-7.7,0-10.3-3.5-10.3-9.4L116.3,0.1L116.3,0.1z M102.4,47.6v-3.5c-3.6,2.9-7.8,4.4-12.6,4.4c-7.3,0-13.1-4.7-13.1-12.1
	c0-7.6,6-10.9,11.8-12.1l3.9-0.8c3.4-0.7,7.7-1.4,10.1-2.3v-1.1c0-3.8-3.3-4.9-7.3-4.9c-5.4,0-7.2,1.6-7.2,5.8l-9.3-0.4
	c0-9.1,8-12.6,16.5-12.6c8.3,0,16.6,1.7,16.6,12.7v26.9C111.8,47.6,102.4,47.6,102.4,47.6z M102.4,28.3c-1.2,0.6-2.7,1.1-4.4,1.4
	l-5.1,1.1c-3.5,0.7-6.4,1.7-6.4,5.3c0,2.9,2.7,4.8,6,4.8c4.3,0,9.9-2.1,9.9-7.1V28.3z M28,22.9c-1.2-3.8-4.5-6.2-8.2-6.2
	c-6.7,0-10,5.7-10,11.7c0,6.1,3,11.7,9.5,11.7c5.6,0,8-4,9.4-7.5l8,4.2c-2.6,5.7-7.1,11.9-17.5,11.9C7.3,48.7,0,40,0,28.4
	C0,16.9,7.3,8.1,19.8,8.1c9.4,0,14,5.2,16.4,11L28,22.9z M64.3,9.2h9.1v24.9v0.4c0,1.7-0.3,6.7-4.1,10.7c-3,3.2-7.3,4.9-12.8,4.9
	c-5.7,0-10.3-1.7-13.4-5C38.7,40.5,38.9,34.7,39,34v0.2v-25h9.1v25v0.2c0,0.3,0,2.7,1.7,4.4c1.4,1.4,3.6,2.1,6.7,2.1
	c2.8,0,4.9-0.7,6.1-2c1.6-1.6,1.7-4.1,1.7-4.5V9.2z"/>
</svg>
