<?xml version="1.0" encoding="UTF-8" standalone="no"?>
<svg
   xmlns:dc="http://purl.org/dc/elements/1.1/"
   xmlns:cc="http://creativecommons.org/ns#"
   xmlns:rdf="http://www.w3.org/1999/02/22-rdf-syntax-ns#"
   xmlns:svg="http://www.w3.org/2000/svg"
   xmlns="http://www.w3.org/2000/svg"
   xmlns:sodipodi="http://sodipodi.sourceforge.net/DTD/sodipodi-0.dtd"
   xmlns:inkscape="http://www.inkscape.org/namespaces/inkscape"
   width="500mm"
   height="500mm"
   version="1.1"
   viewBox="0 0 1417.3229 1417.3229"
   id="svg10"
   sodipodi:docname="energy.svg"
   inkscape:version="0.92.4 (5da689c313, 2019-01-14)">
  <metadata
     id="metadata16">
    <rdf:RDF>
      <cc:Work
         rdf:about="">
        <dc:format>image/svg+xml</dc:format>
        <dc:type
           rdf:resource="http://purl.org/dc/dcmitype/StillImage" />
        <dc:title></dc:title>
      </cc:Work>
    </rdf:RDF>
  </metadata>
  <defs
     id="defs14" />
  <sodipodi:namedview
     pagecolor="#ffffff"
     bordercolor="#666666"
     borderopacity="1"
     objecttolerance="10"
     gridtolerance="10"
     guidetolerance="10"
     inkscape:pageopacity="0"
     inkscape:pageshadow="2"
     inkscape:window-width="1920"
     inkscape:window-height="1017"
     id="namedview12"
     showgrid="false"
     units="mm"
     inkscape:zoom="0.2895498"
     inkscape:cx="1162.1213"
     inkscape:cy="1088.4679"
     inkscape:window-x="-8"
     inkscape:window-y="-8"
     inkscape:window-maximized="1"
     inkscape:current-layer="svg10" />
  <g
     id="g8"
     style="fill:#202023"
     transform="matrix(0.69498136,0,0,0.69498136,14.173869,108)">
    <path
       d="m 770.94,0 h 836.72 c -0.6758,2.4414 -1.332,4.8789 -2.0078,7.3203 -1.3125,4.8203 -2.6641,9.6172 -4.0977,14.395 -0.6758,2.0508 -1.375,4.1016 -2.0312,6.1523 -0.7578,2.0703 -1.5156,4.1211 -2.2539,6.1914 -0.2461,0.90234 -0.7383,2.707 -0.9844,3.6289 -1.7227,5.6211 -3.0742,11.383 -5.1641,16.898 -0.207,0.90234 -0.6562,2.7266 -0.8633,3.6289 -0.8203,2.0508 -1.5977,4.1211 -2.3555,6.1719 -0.6171,2.0898 -1.1914,4.1641 -1.7227,6.2539 -1.1875,2.1328 -2.3359,4.2656 -3.4844,6.3984 -0.1445,0.92188 -0.4101,2.8086 -0.5546,3.7305 -4.9375,9.8633 -8.6094,20.301 -14.02,29.938 -20.23,42.98 -47.105,82.719 -78.324,118.44 -15.477,14.559 -29.23,30.984 -46.039,44.066 -22.875,19.48 -48.867,34.941 -75.621,48.434 -0.961,0.14453 -2.8867,0.39062 -3.8516,0.53516 -3.4844,1.8867 -6.9883,3.75 -10.477,5.6367 -0.9415,0.16406 -2.8477,0.47266 -3.7891,0.63672 -4.2227,1.9062 -8.4883,3.6484 -12.711,5.4336 -0.9219,0.20312 -2.7462,0.63672 -3.6484,0.83984 -5.6172,1.8477 -11.355,3.1602 -16.8911,5.207 -1.8867,0.32812 -3.75,0.63672 -5.5977,0.96484 -2.7227,0.80078 -5.4727,1.5391 -8.1758,2.2969 -22.672,4.6953 -45.7339,8.2031 -68.918,7.4219 -266.55995,0.14453 -533.13995,-0.20313 -799.69995,0.1875 0.98438,-2.3789 1.9688,-4.7578 2.9141,-7.1367 0.94141,-2.8711 1.8633,-5.7422 2.8281,-8.5938 0.63281,-2.0508 1.2891,-4.0977 1.9688,-6.1484 0.75781,-2.0742 1.5156,-4.125 2.3164,-6.1719 0.20312,-0.92578 0.61328,-2.7695 0.79688,-3.6914 4.6133,-12.406 8.957,-24.914 13.551,-37.34 l 0.82031,-3.6914 c 1.0664,-2.8516 2.0703,-5.7031 3.1367,-8.5508 0.69531,-2.0938 1.4141,-4.1445 2.1523,-6.2148 0.22266,-0.90234 0.65625,-2.7461 0.87891,-3.668 0.75781,-2.0508 1.5391,-4.1016 2.2969,-6.1523 0.63672,-2.0703 1.2695,-4.1445 1.8867,-6.2148 1.0664,-2.8477 2.1094,-5.6992 3.2188,-8.5273 0.18359,-0.94531 0.55078,-2.7891 0.73828,-3.7344 3.668,-9.5156 7.2969,-19.07 10.555,-28.746 0.59375,-2.0508 1.1875,-4.125 1.7852,-6.1719 1.1445,-2.1562 2.293,-4.2891 3.4609,-6.4219 0.125,-0.96094 0.37109,-2.8672 0.49219,-3.832 8.6094,-15.625 15.09,-32.461 25.523,-47.039 12.543,-19.789 27.219,-38.203 44.438,-54.113 27.859,-28.195 62.625,-48.68 99.109,-63.648 0.92578,-0.16406 2.7891,-0.47266 3.7109,-0.63672 2.1523,-1.1484 4.2852,-2.2734 6.4375,-3.4219 2.0898,-0.63672 4.1602,-1.3125 6.25,-1.9688 0.90234,-0.26953 2.707,-0.80078 3.6289,-1.0664 3.5469,-1.0078 7.1328,-1.9102 10.723,-2.8516 2.0508,-0.77734 4.0977,-1.5781 6.1484,-2.3789 1.8438,-0.26562 3.6914,-0.55469 5.5547,-0.82031 2.7461,-0.83984 5.5156,-1.6211 8.2812,-2.418 3.3828,-0.73828 6.7852,-1.3125 10.207,-1.9297 3.9805,-1.1484 8.1406,-1.4766 12.262,-1.9258 5.5312,-2.1758 11.785,-0.63672 17.195,-3.2188 7.1133,-0.57422 14.598,0.77734 21.297,-2.3594 z"
       id="path2"
       inkscape:connector-curvature="0" />
    <path
       d="m 398.04,483.86 c 135.9,0.0195 271.83,0.26562 407.75,-0.10547 -3.8516,7.5664 -4.6094,16.223 -7.9922,23.992 -0.18359,0.92188 -0.55469,2.7695 -0.75781,3.6914 -1.1484,2.8281 -2.2578,5.6992 -3.4023,8.5508 -0.20703,0.92187 -0.59766,2.7891 -0.78125,3.7109 -0.75781,2.0508 -1.4766,4.1016 -2.1914,6.1719 -1.0469,2.8711 -2.0703,5.7422 -3.1172,8.6133 -0.22656,0.90234 -0.65625,2.7266 -0.88281,3.6289 -2.8672,7.5469 -4.1172,15.605 -7.3164,23.027 -0.18359,0.92188 -0.55469,2.7695 -0.75781,3.6914 -1.1484,2.8477 -2.2773,5.7188 -3.4258,8.5703 -0.16016,0.94531 -0.48828,2.8086 -0.65234,3.7539 -1.1719,2.8281 -2.2969,5.6797 -3.4453,8.5273 -0.18359,0.94531 -0.53125,2.7891 -0.71875,3.7344 -0.79688,2.0273 -1.5977,4.0781 -2.3555,6.1289 -1.6797,5.5977 -3.0977,11.258 -4.7969,16.836 -0.67578,2.0508 -1.375,4.1016 -2.0508,6.1523 -0.75781,2.0508 -1.5156,4.1016 -2.2734,6.1719 -0.22656,0.90234 -0.63672,2.7461 -0.83984,3.6719 -0.80078,2.0469 -1.5586,4.0977 -2.2969,6.1719 -0.69922,2.0508 -1.375,4.0977 -2.0078,6.1719 -0.71875,2.0273 -1.3945,4.0781 -2.0508,6.1289 -0.71875,2.0312 -1.4141,4.082 -2.0898,6.1328 -1.7461,5.5781 -3.1602,11.215 -4.7773,16.832 -0.80078,2.0508 -1.5781,4.082 -2.3789,6.1523 -0.18359,0.92188 -0.55469,2.7891 -0.73828,3.7109 -1.168,2.832 -2.2734,5.6797 -3.4219,8.5312 -0.16406,0.94531 -0.49219,2.8086 -0.65625,3.7539 -1.168,2.8281 -2.2969,5.6992 -3.4453,8.5508 -0.18359,0.94141 -0.53125,2.7891 -0.71484,3.7305 -0.80078,2.0312 -1.6016,4.082 -2.3594,6.1523 -1.6797,5.5781 -3.1133,11.234 -4.7539,16.836 -0.78125,2.0469 -1.5586,4.0781 -2.3359,6.1289 -0.20703,0.92187 -0.63672,2.7891 -0.84375,3.7109 -0.77734,2.0312 -1.5547,4.082 -2.293,6.1328 -0.65625,2.0508 -1.3125,4.1211 -1.9492,6.1914 -1.0039,2.832 -1.9688,5.6797 -2.9531,8.5312 -0.67578,2.0312 -1.3516,4.0781 -2.0273,6.1094 -2.6016,7.75 -4.4688,15.75 -7.1133,23.48 154.02,-0.043 308.07003,-0.043 462.11003,0 -0.4883,1.3125 -1.4727,3.957 -1.9648,5.2695 -0.7383,2.0703 -1.4766,4.1211 -2.2344,6.1914 -0.2071,0.92188 -0.6367,2.7695 -0.8633,3.6719 -0.7774,2.0508 -1.5352,4.1211 -2.2734,6.1914 -0.6992,2.0312 -1.375,4.1016 -2.0078,6.1523 -0.6992,2.0508 -1.3945,4.0781 -2.0508,6.1523 -3.4258,9.5938 -5.2891,19.684 -9.2266,29.117 -0.1836,0.92188 -0.5508,2.7656 -0.7344,3.7109 -1.1719,2.8281 -2.2969,5.6992 -3.4453,8.5508 -0.1641,0.94141 -0.4922,2.8281 -0.6562,3.75 -1.1875,2.832 -2.2969,5.6797 -3.4453,8.5312 -0.1641,0.92188 -0.5313,2.7891 -0.7149,3.7109 -3.1992,7.4023 -4.6758,15.359 -7.1758,22.988 -0.6758,2.0508 -1.3516,4.0781 -2.0273,6.1484 -0.7617,2.0508 -1.5195,4.1016 -2.2969,6.1758 -0.207,0.92187 -0.5937,2.7656 -0.8008,3.6875 -1.1055,2.832 -2.1328,5.6797 -3.1953,8.5508 -0.6172,2.0508 -1.2539,4.1016 -1.8867,6.1719 -0.7578,2.0508 -1.5391,4.1016 -2.2969,6.1719 -0.2265,0.90234 -0.6953,2.7305 -0.9218,3.6523 -1.9492,5.5156 -3.3203,11.234 -4.9805,16.875 -0.7188,2.0078 -1.4375,4.0586 -2.1328,6.0898 -0.6563,2.0508 -1.332,4.1211 -1.9883,6.1914 l -2.2734,6.1523 c -0.2266,0.92188 -0.6563,2.75 -0.8829,3.6719 -0.7382,2.0508 -1.4766,4.1211 -2.1523,6.2109 -1.0664,2.8516 -2.0898,5.7227 -3.1367,8.5742 -0.2265,0.92187 -0.6757,2.74607 -0.8828,3.64837 -1.9648,5.5586 -3.3008,11.32 -5.1836,16.918 -0.2265,0.9024 -0.6757,2.7266 -0.9023,3.6289 -1.0664,2.8477 -2.0898,5.7188 -3.1367,8.5898 -0.7188,2.0508 -1.4336,4.1211 -2.1523,6.1953 -0.2266,0.9024 -0.6758,2.7266 -0.9023,3.6484 -0.7579,2.0508 -1.4766,4.1211 -2.1719,6.2148 -1.0664,2.8477 -2.0703,5.6992 -3.1172,8.5703 -0.2266,0.9219 -0.6758,2.7266 -0.879,3.6484 -1.9688,5.5156 -3.3633,11.238 -4.9844,16.875 -0.7773,2.0312 -1.5781,4.0625 -2.3555,6.1328 -0.1835,0.9219 -0.5117,2.7891 -0.6992,3.7109 -1.6797,3.0742 -1.7617,8.8359 -6.0469,9.3086 -152.68997,0.4102 -305.44997,-0.3281 -458.11997,0.3711 -5.4727,6.375 -4.7969,15.992 -8.4219,23.52 -0.67969,2.0273 -1.375,4.0781 -2.0508,6.1289 -0.65625,2.0508 -1.332,4.1016 -1.9883,6.1719 -0.75781,2.0312 -1.5391,4.082 -2.3164,6.1523 -0.18359,0.9219 -0.57422,2.7891 -0.75781,3.7305 -1.1719,2.832 -2.2773,5.6836 -3.4023,8.5508 -0.20703,0.9258 -0.59766,2.75 -0.78125,3.6719 -2.543,6.7461 -4.0781,13.781 -6.25,20.629 -0.76172,2.0078 -1.4766,4.0391 -2.1953,6.0898 -0.65625,2.0508 -1.2891,4.1016 -1.9062,6.1719 -1.0664,2.8516 -2.1094,5.6992 -3.1992,8.5508 -0.16406,0.9414 -0.53125,2.8086 -0.69531,3.7305 -1.168,2.832 -2.2734,5.7031 -3.4219,8.5742 -0.20703,0.9024 -0.59375,2.7461 -0.80078,3.668 -2.8906,7.5273 -4.1406,15.586 -7.3398,23.027 -0.20312,0.9219 -0.59375,2.75 -0.79688,3.6719 -1.0859,2.8281 -2.1133,5.6992 -3.1562,8.5703 l -2.1523,6.2148 c -0.22656,0.9219 -0.65625,2.7461 -0.88281,3.668 -0.77734,2.0312 -1.5391,4.082 -2.2773,6.1523 -0.69531,2.0312 -1.3711,4.082 -2.0273,6.1523 -1.7422,5.5547 -3.1758,11.215 -4.8164,16.812 -0.78125,2.0508 -1.5586,4.1016 -2.3359,6.1719 -0.20703,0.9258 -0.59766,2.75 -0.80078,3.6719 -1.0859,2.8281 -2.1133,5.7227 -3.1562,8.5898 -0.69922,2.0508 -1.4375,4.125 -2.1523,6.1953 -0.22656,0.9219 -0.65625,2.7461 -0.88281,3.6484 -0.77734,2.0508 -1.5352,4.1016 -2.2734,6.1719 -0.69922,2.0312 -1.375,4.082 -2.0508,6.1523 -1.7227,5.5977 -3.0938,11.297 -5.0234,16.855 l -0.82031,3.6914 c -1.1484,2.8281 -2.2734,5.6992 -3.4219,8.5508 -0.16406,0.9414 -0.49219,2.8086 -0.65625,3.7305 -1.168,2.832 -2.2734,5.7031 -3.4453,8.5508 -0.18359,0.9453 -0.55078,2.8086 -0.73438,3.7344 -0.78125,2.0273 -1.5391,4.0977 -2.2773,6.1719 -3.0547,7.8125 -4.3438,16.219 -7.707,23.949 21.215,-0.4101 42.43,-0.082 63.648,-0.1836 228.41,0.059 456.82004,-0.1054 685.24004,0.082 -1.3711,6.0898 -3.668,11.934 -6.375,17.57 -0.1641,0.9218 -0.4922,2.7891 -0.6563,3.7109 -1.168,2.832 -2.2969,5.7031 -3.4414,8.5508 -0.1641,0.9257 -0.5156,2.75 -0.6797,3.6719 -1.8828,4.1836 -3.5859,8.4492 -5.2656,12.715 -0.6367,2.0508 -1.2734,4.0977 -1.9062,6.1719 -0.7812,2.0508 -1.5391,4.0977 -2.3164,6.1719 -0.1836,0.9218 -0.5742,2.7461 -0.7578,3.668 -2.8086,6.1523 -5.0664,12.531 -7.4609,18.844 -0.207,0.9453 -0.6367,2.8125 -0.8437,3.7344 -0.7579,2.0312 -1.4727,4.0781 -2.1523,6.1523 -1.6172,4.2852 -3.3203,8.5703 -5.207,12.754 -0.2032,0.9218 -0.5938,2.7461 -0.7774,3.668 -1.1055,2.8125 -2.1328,5.6602 -3.1758,8.5117 -1.6211,5.6602 -3.6719,11.215 -6.3359,16.484 -0.1211,0.9453 -0.3906,2.832 -0.5312,3.793 -1.2734,2.1133 -2.5234,4.2461 -3.7539,6.3789 l -0.4102,3.8555 c -6.7617,12.16 -11.969,25.16 -19.574,36.848 -8.5469,13.082 -16.766,26.555 -27.797,37.75 -7.6055,9.9258 -16.191,19.215 -26.277,26.676 -28.145,25.059 -61.496,44.25 -97.141,56.328 -2.0508,0.6757 -4.082,1.375 -6.1094,2.0703 -2.0312,0.6797 -4.0781,1.3555 -6.1094,2.0508 -4.6953,1.6211 -9.4922,2.9727 -14.328,4.1211 -2.7266,0.6992 -5.4531,1.3945 -8.1562,2.1328 -12.64799,2.6484 -25.31599,5.2695 -38.10899,7.0742 -5.2891,0.7617 -10.945,-0.3868 -15.844,2.1133 -12.074,0.6992 -24.148,0.1445 -36.199,0.3906 -303.83,-0.125 -607.63,-0.062 -911.46,-0.02 v -4.6758 c 0.90234,-2.1758 1.8242,-4.3281 2.7461,-6.4414 1.6797,-5.6367 3.0547,-11.336 4.9609,-16.855 0.24609,-0.8985 0.71875,-2.7266 0.96484,-3.6289 0.71484,-2.0898 1.4336,-4.1602 2.1289,-6.2109 1.0664,-2.8711 2.0938,-5.7422 3.1602,-8.5703 0.18359,-0.9258 0.57422,-2.7695 0.77734,-3.6914 1.0859,-2.8711 2.1133,-5.7227 3.1758,-8.5508 0.65625,-2.0703 1.332,-4.1016 2.0117,-6.1328 2.2109,-6.8086 3.8516,-13.801 6.0664,-20.605 0.69531,-2.0508 1.3945,-4.082 2.0898,-6.0898 0.65625,-2.0938 1.332,-4.1445 1.9883,-6.1758 0.75781,-2.0898 1.5391,-4.1406 2.3164,-6.1719 0.20703,-0.9219 0.61719,-2.7656 0.83984,-3.6875 0.78125,-2.0508 1.5391,-4.125 2.2773,-6.1523 0.67578,-2.0703 1.332,-4.1211 2.0078,-6.1523 2.7266,-7.5469 4.2422,-15.441 6.9297,-22.988 0.75781,-2.0703 1.5156,-4.1211 2.293,-6.1484 l 0.73828,-3.6914 c 1.1719,-2.8711 2.2773,-5.7422 3.4453,-8.5703 0.18359,-0.9258 0.55469,-2.7695 0.73828,-3.7148 0.77734,-2.0508 1.5352,-4.0977 2.2969,-6.1484 0.67578,-2.0742 1.3711,-4.1211 2.0469,-6.1719 1.7031,-5.6016 3.0977,-11.301 5.0234,-16.836 0.20703,-0.9219 0.65625,-2.75 0.88281,-3.6719 1.0664,-2.8477 2.0898,-5.6992 3.1758,-8.5273 0.61328,-2.0938 1.25,-4.1641 1.8867,-6.2148 0.75781,-2.0703 1.5156,-4.1211 2.3164,-6.1523 0.20312,-0.9219 0.63281,-2.7695 0.83984,-3.6914 0.77734,-2.0508 1.5391,-4.1211 2.2734,-6.1523 0.67969,-2.0703 1.375,-4.1211 2.0508,-6.1484 1.6836,-5.6406 3.0352,-11.34 5.0039,-16.855 0.24609,-0.9024 0.71484,-2.7266 0.96094,-3.6289 0.71875,-2.0938 1.4375,-4.1445 2.1328,-6.2148 1.0469,-2.8711 2.0703,-5.7227 3.1367,-8.5508 0.22656,-0.9219 0.63672,-2.7695 0.83984,-3.6914 0.75781,-2.0703 1.4961,-4.1406 2.2344,-6.1719 3.7305,-9.5156 5.4922,-19.664 9.2227,-29.156 0.1875,-0.9258 0.57422,-2.7695 0.76172,-3.6914 1.1445,-2.8516 2.2539,-5.7031 3.4219,-8.5312 0.16406,-0.9219 0.49219,-2.8086 0.65625,-3.7539 1.1484,-2.8711 2.2734,-5.7188 3.4414,-8.5703 0.1875,-0.9219 0.53516,-2.7695 0.71875,-3.7109 0.80078,-2.0508 1.5781,-4.1016 2.3594,-6.1523 1.7188,-5.5977 3.1133,-11.297 4.9609,-16.836 0.22266,-0.9219 0.69531,-2.7656 0.94141,-3.6875 0.77734,-2.0508 1.5352,-4.1016 2.2969,-6.1328 0.63281,-2.0898 1.25,-4.1406 1.8633,-6.2109 1.0859,-2.8516 2.1133,-5.7227 3.1992,-8.5508 0.20313,-0.9258 0.61328,-2.7695 0.79688,-3.6914 0.78125,-2.0508 1.5391,-4.1016 2.2969,-6.1523 0.67578,-2.0703 1.3555,-4.1211 2.0312,-6.1523 1.7617,-5.5781 3.1562,-11.238 4.8359,-16.812 0.69922,-2.0742 1.3945,-4.1016 2.1133,-6.1328 0.67578,-2.0703 1.3516,-4.1016 2.0469,-6.1328 0.65625,-2.0898 1.332,-4.1406 2.0117,-6.1914 0.73828,-2.0703 1.4961,-4.1211 2.2734,-6.1523 0.22656,-0.9219 0.63672,-2.7656 0.86328,-3.668 0.75781,-2.0703 1.5156,-4.1211 2.2734,-6.1719 3.3203,-9.6172 5.207,-19.707 9.1836,-29.117 0.18359,-0.9258 0.57422,-2.7891 0.75781,-3.7344 1.1484,-2.8477 2.2773,-5.7188 3.4453,-8.5273 0.14062,-0.9454 0.46875,-2.8125 0.63281,-3.7539 1.1484,-2.8516 2.2773,-5.7227 3.4258,-8.5508 0.20312,-0.9219 0.57422,-2.7695 0.77734,-3.6914 2.9922,-7.5039 4.2031,-15.582 7.3594,-23.047 0.18359,-0.9219 0.55469,-2.75 0.73828,-3.6719 1.1484,-2.8711 2.2734,-5.7422 3.4219,-8.5898 0.20703,-0.9258 0.59375,-2.75 0.78125,-3.6719 0.73828,-2.0703 1.4727,-4.1406 2.1914,-6.1914 1.0469,-2.8711 2.0508,-5.7617 3.1172,-8.5938 0.22266,-0.9219 0.65625,-2.7461 0.87891,-3.6484 1.9688,-5.5781 3.3008,-11.34 5.1875,-16.918 0.22656,-0.9024 0.67578,-2.7266 0.90234,-3.6289 1.0664,-2.8711 2.0703,-5.7422 3.1172,-8.5898 0.71484,-2.0742 1.4336,-4.1445 2.1914,-6.1953 0.18359,-0.9219 0.57422,-2.7891 0.77734,-3.7109 1.1484,-2.8477 2.2578,-5.7188 3.4062,-8.5508 0.20312,-0.9219 0.57031,-2.7461 0.75781,-3.668 3.1133,-7.4844 4.3242,-15.566 7.3359,-23.051 0.22656,-0.9219 0.67969,-2.7266 0.90234,-3.6289 0.73828,-2.0898 1.457,-4.1602 2.1523,-6.2109 1.0469,-2.8711 2.0703,-5.7227 3.1562,-8.5508 0.1875,-0.9454 0.57422,-2.7891 0.76172,-3.7109 1.0859,-2.8516 2.1289,-5.7031 3.2148,-8.5117 2.9961,-8.8359 5.0859,-17.941 8.0586,-26.781 0.75781,-2.0703 1.5156,-4.0977 2.2734,-6.1484 0.22656,-0.9024 0.65625,-2.7305 0.88281,-3.6523 0.73828,-2.0703 1.4531,-4.1406 2.1719,-6.2109 1.0234,-2.8711 2.0508,-5.7227 3.1172,-8.5742 0.20312,-0.9219 0.63281,-2.7852 0.83984,-3.71095 0.77734,-2.0508 1.5586,-4.0781 2.3164,-6.1094 1.6602,-5.6406 3.0547,-11.34 4.9609,-16.895 0.24609,-0.90234 0.71484,-2.707 0.96094,-3.6094 0.71875,-2.0703 1.4375,-4.1445 2.1328,-6.2148 1.0664,-2.8477 2.0703,-5.7188 3.1562,-8.5703 0.18359,-0.92187 0.57422,-2.7695 0.78125,-3.6914 1.0664,-2.8516 2.0898,-5.6992 3.1562,-8.5508 0.65625,-2.0508 1.332,-4.1016 2.0273,-6.1094 2.2578,-6.8477 3.7539,-13.902 6.2539,-20.648 0.22656,-0.90234 0.69531,-2.7266 0.92188,-3.6289 0.73828,-2.0742 1.4766,-4.1445 2.2148,-6.1953 0.96094,-2.8477 1.9062,-5.7188 2.8672,-8.5508 0.71875,-2.0898 1.4766,-4.1406 2.2344,-6.1914 0.20703,-0.92188 0.63672,-2.7695 0.86328,-3.6914 0.75781,-2.0508 1.5156,-4.1016 2.2734,-6.1289 2.6445,-7.5664 4.1836,-15.461 6.9102,-22.988 0.69531,-2.0508 1.3711,-4.1016 2.0703,-6.1289 0.65625,-2.0742 1.3125,-4.125 1.9883,-6.1758 0.75781,-2.0703 1.5156,-4.1211 2.3164,-6.1719 0.20312,-0.90234 0.61328,-2.7461 0.82031,-3.668 0.77734,-2.0508 1.5352,-4.1211 2.293,-6.1719 0.67578,-2.0508 1.375,-4.1016 2.0508,-6.1328 1.7227,-5.6172 3.0938,-11.316 5.0234,-16.855 0.20312,-0.92188 0.61328,-2.7461 0.82031,-3.668 1.1445,-2.8711 2.2539,-5.7227 3.4219,-8.5742 0.16406,-0.92188 0.53125,-2.7891 0.69531,-3.7109 1.0859,-2.8477 2.1133,-5.7188 3.1562,-8.5703 0.71875,-2.0703 1.4375,-4.1406 2.1758,-6.2148 0.22266,-0.92188 0.65625,-2.7461 0.87891,-3.668 0.78125,-2.0508 1.5391,-4.1016 2.3164,-6.1523 1.6602,-5.6172 3.0742,-11.32 4.9609,-16.875 0.24609,-0.90234 0.71875,-2.707 0.94531,-3.6289 0.73828,-2.0508 1.4727,-4.1211 2.2109,-6.1719 0.96484,-2.8516 1.9062,-5.7227 2.8711,-8.5742 0.73828,-2.0703 1.4766,-4.1406 2.2344,-6.1914 0.20703,-0.90234 0.61328,-2.7461 0.83984,-3.668 4.1016,-9.4141 5.6367,-19.645 9.4102,-29.16 0.20312,-0.92188 0.57422,-2.7695 0.77734,-3.6914 1.1484,-2.8516 2.2539,-5.6992 3.4453,-8.5312 0.14453,-0.94141 0.47266,-2.8281 0.61328,-3.75 1.168,-2.8711 2.2773,-5.7227 3.4453,-8.5508 0.18359,-0.94531 0.55469,-2.7891 0.73828,-3.7109 0.79688,-2.0742 1.5781,-4.1211 2.3555,-6.1523 2.4414,-7.6484 3.9766,-15.586 7.0742,-23.008 0.22266,-0.90234 0.63281,-2.7266 0.85938,-3.6484 0.75781,-2.0508 1.5391,-4.1211 2.2969,-6.1719 0.65625,-2.0742 1.332,-4.1445 1.9883,-6.1953 0.69531,-2.0508 1.3711,-4.1016 2.0703,-6.1289 0.67578,-2.0703 1.3516,-4.1211 2.0273,-6.1953 0.69922,-2.0273 1.3945,-4.0586 2.1133,-6.0898 1.6992,-5.5977 3.0742,-11.297 4.9805,-16.832 0.24609,-0.92188 0.71875,-2.7266 0.96484,-3.6289 0.71484,-2.0742 1.4336,-4.1641 2.1289,-6.2344 1.0469,-2.8711 2.0703,-5.7422 3.1367,-8.5938 0.20703,-0.92188 0.61719,-2.7461 0.82031,-3.668 0.78125,-2.0508 1.5391,-4.1016 2.2969,-6.1523 0.67578,-2.0508 1.332,-4.1016 2.0078,-6.1523 3.3398,-9.5977 5.3906,-19.602 9.0391,-29.074 0.65625,-2.0742 1.3125,-4.1445 1.9688,-6.1953 0.75781,-2.0508 1.5156,-4.1016 2.3164,-6.1523 0.18359,-0.92188 0.59375,-2.7656 0.77734,-3.7109 1.0898,-2.8281 2.1523,-5.6602 3.2188,-8.5078 1.4961,-5.1484 3.1562,-10.254 4.9844,-15.316 z"
       id="path4"
       inkscape:connector-curvature="0" />
    <path
       d="m 1782.2,1313.4 c 7.2148,-2.1953 14.387,1.0664 21.645,0.9219 12.957,-0.5117 25.645,2.625 38.188,5.4766 2.707,0.6953 5.4727,1.4141 8.2227,2.1719 0.8984,0.2656 2.7031,0.8008 3.6055,1.0664 2.0312,0.7187 4.0781,1.4336 6.1719,2.1523 25.027,9.4531 48.867,22.617 68.75,40.684 8.0547,5.5352 14.309,13.02 20.211,20.711 15.168,16.219 25.336,36.129 34.727,56.059 0.6523,2.0703 1.3711,4.1641 2.1094,6.2539 0.207,0.9258 0.6367,2.75 0.8594,3.6719 1.0469,2.8281 2.0703,5.6992 3.1602,8.5703 0.6133,2.0508 1.25,4.1211 1.9258,6.2148 0.6758,2.7656 1.3945,5.5547 2.2148,8.3438 0.3047,2.4609 0.6133,4.9648 1.0039,7.4844 2.2109,5.7031 0.7969,12.16 3.5859,17.738 v 45.707 c -3.3008,7.0938 -2.1914,15.336 -4.7148,22.719 -0.7578,2.7266 -1.4336,5.4531 -2.0508,8.2227 -1.0039,3.5898 -1.9453,7.1953 -2.9922,10.785 -0.1836,0.9453 -0.5117,2.7891 -0.6953,3.7305 -1.25,2.1133 -2.5,4.2266 -3.7305,6.3789 -0.1055,0.9648 -0.3086,2.8711 -0.4102,3.8359 -10.25,20.605 -20.48,41.746 -37.102,58.109 -9.1836,8.5117 -17.098,18.477 -27.469,25.633 -13.387,10.09 -27.836,18.578 -42.926,25.836 -0.9414,0.1445 -2.8672,0.3906 -3.832,0.5117 -2.1523,1.1289 -4.3047,2.2773 -6.4141,3.4258 -2.1133,0.6367 -4.1836,1.3125 -6.2539,2.0078 -0.9023,0.2461 -2.7266,0.7188 -3.6289,0.9648 -4.6719,1.7656 -9.4688,3.1367 -14.285,4.3672 -3.4023,0.7813 -6.8281,1.375 -10.211,2.0312 -5.3477,1.168 -10.883,1.4961 -16.047,3.3828 h -53.523 c -7.1133,-3.3828 -15.434,-2.0078 -22.812,-4.6758 -4.7969,-1.3945 -9.6133,-2.6445 -14.391,-4.0195 -6.1289,-2.2344 -12.32,-4.2422 -18.531,-6.1523 -10.863,-5.6367 -22.281,-10.293 -32.266,-17.449 -36.281,-22.758 -63.707,-58.273 -78.957,-98.098 -0.7383,-2.0898 -1.4375,-4.1406 -2.1523,-6.1914 l -1.0664,-3.6094 c -0.7812,-2.7461 -1.4961,-5.4961 -2.1719,-8.1992 -0.7187,-2.75 -1.418,-5.4961 -2.0938,-8.1836 -0.8203,-3.3828 -1.3945,-6.8086 -1.9883,-10.172 -1.4766,-4.6328 -1.4961,-9.5352 -1.8047,-14.312 -0.3672,-1.3516 -1.1055,-4.0781 -1.4961,-5.4531 -0.9609,-25.938 0,-52.227 7.5469,-77.262 0.2422,-0.8828 0.7774,-2.6875 1.043,-3.5898 1.5156,-5.0234 3.0742,-10.07 5.2891,-14.824 0.125,-0.9453 0.4102,-2.8125 0.5547,-3.7344 1.2305,-2.1523 2.4805,-4.2852 3.7695,-6.3984 0.082,-0.9609 0.2891,-2.9102 0.3711,-3.875 8.9375,-16.75 18.531,-33.34 30.992,-47.734 8.2812,-8.1602 16.277,-16.652 24.781,-24.566 17.055,-13.391 35.504,-25.363 55.941,-32.828 2.0312,-0.7382 4.0781,-1.4766 6.1289,-2.2148 0.9219,-0.1835 2.7891,-0.5742 3.7109,-0.7578 2.8086,-1.1484 5.6758,-2.2344 8.5469,-3.3242 5.5742,-1.1055 11.152,-2.375 16.582,-4.1211 3.1602,-0.3047 6.3164,-0.5507 9.5117,-0.8593 7.9141,-3.2617 16.707,-0.4102 24.867,-2.5625 z"
       id="path6"
       inkscape:connector-curvature="0" />
  </g>
</svg>
