<?xml version="1.0" encoding="UTF-8" standalone="no"?>
<svg
   xmlns:dc="http://purl.org/dc/elements/1.1/"
   xmlns:cc="http://creativecommons.org/ns#"
   xmlns:rdf="http://www.w3.org/1999/02/22-rdf-syntax-ns#"
   xmlns:svg="http://www.w3.org/2000/svg"
   xmlns="http://www.w3.org/2000/svg"
   xmlns:xlink="http://www.w3.org/1999/xlink"
   xmlns:sodipodi="http://sodipodi.sourceforge.net/DTD/sodipodi-0.dtd"
   xmlns:inkscape="http://www.inkscape.org/namespaces/inkscape"
   width="500mm"
   height="500mm"
   viewBox="0 0 1417.3228 1417.3228"
   version="1.1"
   id="svg4591"
   sodipodi:docname="hd_movistar_cero.svg"
   inkscape:version="0.92.4 (5da689c313, 2019-01-14)">
  <metadata
     id="metadata4597">
    <rdf:RDF>
      <cc:Work
         rdf:about="">
        <dc:format>image/svg+xml</dc:format>
        <dc:type
           rdf:resource="http://purl.org/dc/dcmitype/StillImage" />
        <dc:title />
      </cc:Work>
    </rdf:RDF>
  </metadata>
  <defs
     id="defs4595">
    <linearGradient
       gradientTransform="matrix(1.0959189,0,0,1.1013931,-198.01018,-203.48459)"
       gradientUnits="userSpaceOnUse"
       y2="1369.6112"
       x2="1378.3104"
       y1="1680.0857"
       x1="1687.0757"
       id="linearGradient2355"
       xlink:href="#linearGradient2367"
       inkscape:collect="always" />
    <linearGradient
       inkscape:collect="always"
       id="linearGradient2367">
      <stop
         style="stop-color:#b5cbdb;stop-opacity:1"
         offset="0"
         id="stop2363" />
      <stop
         style="stop-color:#fafafa;stop-opacity:0.50196081"
         offset="1"
         id="stop2365" />
    </linearGradient>
    <filter
       height="1.0239997"
       y="-0.011999825"
       width="1.0240003"
       x="-0.012000175"
       id="filter3369"
       style="color-interpolation-filters:sRGB"
       inkscape:collect="always">
      <feGaussianBlur
         id="feGaussianBlur3371"
         stdDeviation="5.1926353"
         inkscape:collect="always" />
    </filter>
  </defs>
  <sodipodi:namedview
     pagecolor="#ffffff"
     bordercolor="#666666"
     borderopacity="1"
     objecttolerance="10"
     gridtolerance="10"
     guidetolerance="10"
     inkscape:pageopacity="0"
     inkscape:pageshadow="2"
     inkscape:window-width="1920"
     inkscape:window-height="1017"
     id="namedview4593"
     showgrid="false"
     units="mm"
     inkscape:zoom="0.24313187"
     inkscape:cx="-789.84034"
     inkscape:cy="412.58897"
     inkscape:window-x="-8"
     inkscape:window-y="-8"
     inkscape:window-maximized="1"
     inkscape:current-layer="svg4591" />
  <rect
     style="opacity:1;fill:#f6f6f6;fill-opacity:1;stroke:none;stroke-width:16.4023838;stroke-opacity:1"
     id="rect4638"
     width="1388.9144"
     height="1241.8695"
     x="14.17312"
     y="87.726685" />
  <path
     style="opacity:1;fill:#000000;stroke-width:13.9281435"
     inkscape:connector-curvature="0"
     id="path4572"
     d="M 14.17312,87.727117 H 1403.0876 c 0.1393,41.227403 0,82.314523 0,123.541923 -462.97147,-0.55561 -925.94298,0.69451 -1388.91448,-0.69451 z" />
  <path
     inkscape:connector-curvature="0"
     style="opacity:1;fill:#5690a8;fill-opacity:1;stroke:none;stroke-width:13.89016724;stroke-opacity:1"
     id="path4579"
     d="m 284.75357,371.5324 c 17.22381,-47.50437 96.25886,-49.17119 113.76047,-1.66682 6.94508,46.11535 -3.33364,92.64741 -7.50069,138.48496 46.53206,0.97231 93.20302,0.83341 139.73508,-0.5556 15.97369,-61.95015 -0.55561,-183.76691 95.84215,-172.09917 77.78494,22.64097 38.75357,115.28838 33.47531,171.96026 37.36454,3.88925 88.89706,-10.41762 110.84353,30.28057 10.27872,29.16935 7.63959,71.53436 -24.5856,85.84123 -33.4753,13.33456 -70.56205,8.0563 -105.84307,9.30641 -8.0563,50.97692 -15.69589,101.95383 -23.33548,152.93074 35.00322,4.86156 81.25748,-8.88971 105.56527,24.7245 22.08536,31.11397 12.36225,86.25794 -28.19704,97.64787 -31.39178,7.36179 -63.89477,4.30595 -95.84215,4.44486 -9.58422,45.28194 -11.66774,92.36959 -25.55791,136.81819 -23.05768,50.9769 -109.31561,40.4203 -118.06642,-15.557 -0.83341,-40.69823 8.0563,-80.84081 13.05676,-120.98339 -46.39316,-0.41671 -92.92522,-0.41671 -139.45728,-0.41671 -9.16751,44.17074 -11.25103,90.0083 -24.02999,133.3456 -18.47392,48.3378 -96.25886,49.1712 -116.2607,1.2501 -7.22288,-44.0318 3.75035,-88.34144 11.25104,-131.53986 -36.11443,-5.27826 -83.75771,5.55607 -107.926598,-28.61374 -24.029989,-31.66958 -10.695429,-80.56297 25.835708,-95.70325 31.53068,-6.94509 64.45038,-3.33364 96.53666,-3.19474 14.72358,-50.69911 21.11306,-103.20394 26.25242,-155.56987 -37.50345,-1.66682 -91.6751,7.77849 -110.01012,-35.00322 -19.02953,-29.58606 -2.22243,-71.25656 28.05813,-85.56343 32.08629,-6.25058 65.14489,-2.77804 97.64788,-2.08353 17.0849,-44.58743 15.14028,-93.20302 28.75264,-138.48496 m -13.47346,139.73508 c -30.41946,29.44715 -18.75172,79.72956 -23.75218,118.34422 37.64235,1.80572 75.70141,6.38948 113.20486,-0.1389 25.69681,-32.78079 20.83525,-79.59066 24.02999,-119.17763 -37.78126,-1.25012 -75.97922,-5.55607 -113.48267,0.97231 m 266.1356,0.69451 c -21.39086,34.16981 -16.3904,78.47944 -21.94646,117.37191 39.58697,1.80572 80.97967,8.8897 119.45543,-3.88925 20.27965,-35.41993 19.30734,-77.78493 19.44624,-117.37191 -39.03137,0.4167 -78.47945,-2.91694 -116.95521,3.88925 M 369.62249,633.91765 c -7.91739,50.83801 -15.55698,101.67603 -21.25195,152.93074 46.53206,0.97231 93.06412,0.97231 139.59618,-0.4167 8.05629,-51.39362 16.946,-102.64834 22.22426,-154.45866 -46.80986,-0.1389 -93.61972,0.2778 -140.56849,1.94462 M 221.83112,794.34908 c -19.16843,35.55883 -15.41809,78.34054 -17.77942,117.51081 41.80941,2.36133 83.75771,1.94463 125.01151,-4.58375 6.52837,-39.17027 11.94554,-78.61835 14.16797,-118.34422 -40.14259,0.5556 -83.34101,-10.00092 -121.40006,5.41716 m 273.35848,-4.30595 c -21.94646,35.00322 -16.946,79.86846 -22.77987,119.45544 40.14258,1.80572 83.4799,11.66774 121.53896,-5.83387 15.83479,-36.67005 16.3904,-77.22933 19.02953,-116.53851 -39.30917,-0.1389 -78.89615,-3.19473 -117.78862,2.91694 z" />
  <g
     id="#000000e0"
     style="opacity:1;fill:#1f5373;fill-opacity:1"
     transform="matrix(13.890167,0,0,13.890167,14.17312,87.895188)">
    <path
       d="m 18.51,30.48 c 2.7,-0.47 5.45,-0.16 8.17,-0.07 -0.23,2.85 0.12,6.22 -1.73,8.58 -2.7,0.47 -5.44,0.14 -8.15,0.01 0.36,-2.78 -0.48,-6.4 1.71,-8.52 z"
       id="path4582"
       style="opacity:0.87999998;fill:#1f5373;fill-opacity:1"
       inkscape:connector-curvature="0" />
    <path
       d="m 37.67,30.53 c 2.77,-0.49 5.61,-0.25 8.42,-0.28 -0.01,2.85 0.06,5.9 -1.4,8.45 -2.77,0.92 -5.75,0.41 -8.6,0.28 0.4,-2.8 0.04,-5.99 1.58,-8.45 z"
       id="path4584"
       style="opacity:0.87999998;fill:#1f5373;fill-opacity:1"
       inkscape:connector-curvature="0" />
    <path
       d="m 14.95,50.86 c 2.74,-1.11 5.85,-0.35 8.74,-0.39 -0.16,2.86 -0.55,5.7 -1.02,8.52 -2.97,0.47 -5.99,0.5 -9,0.33 0.17,-2.82 -0.1,-5.9 1.28,-8.46 z"
       id="path4586"
       style="opacity:0.87999998;fill:#1f5373;fill-opacity:1"
       inkscape:connector-curvature="0" />
    <path
       d="m 34.63,50.55 c 2.8,-0.44 5.65,-0.22 8.48,-0.21 -0.19,2.83 -0.23,5.75 -1.37,8.39 -2.74,1.26 -5.86,0.55 -8.75,0.42 0.42,-2.85 0.06,-6.08 1.64,-8.6 z"
       id="path4588"
       style="opacity:0.87999998;fill:#1f5373;fill-opacity:1"
       inkscape:connector-curvature="0" />
  </g>
  <path
     style="opacity:1;fill:#000000;stroke-width:13.9281435"
     inkscape:connector-curvature="0"
     id="path4572-5"
     d="M 14.17312,1206.0536 H 1403.0876 c 0.1396,41.2274 0,82.3146 0,123.542 -462.97149,-0.5557 -925.94298,0.6945 -1388.91448,-0.6946 z" />
  <g
     id="g827"
     transform="matrix(0.74999998,0,0,0.74999998,7.3936517e-6,1.9202328e-6)">
    <path
       style="opacity:1;fill:url(#linearGradient2355);fill-opacity:1;stroke:none;stroke-width:7.55905533;stroke-miterlimit:4;stroke-dasharray:none;stroke-opacity:1;filter:url(#filter3369)"
       inkscape:transform-center-x="169.4141"
       inkscape:transform-center-y="-0.69622776"
       d="m 1876.9659,838.75924 0.3356,1038.33096 -1038.51194,0.2112 C 1304.6053,1632.379 1667.2142,1298.7208 1876.9659,838.75924 Z"
       id="path2346"
       inkscape:connector-curvature="0"
       sodipodi:nodetypes="cccc" />
    <text
       xml:space="preserve"
       style="font-style:normal;font-weight:normal;font-size:333.33334351px;line-height:1.25;font-family:sans-serif;letter-spacing:0px;word-spacing:0px;fill:#000000;fill-opacity:1;stroke:#d5e2eb;stroke-width:7.55905533;stroke-miterlimit:4;stroke-dasharray:none;stroke-opacity:1"
       x="1319.764"
       y="1823.4952"
       id="text854"><tspan
         sodipodi:role="line"
         id="tspan852"
         x="1319.764"
         y="1823.4952"
         style="font-style:normal;font-variant:normal;font-weight:bold;font-stretch:normal;font-family:sans-serif;-inkscape-font-specification:'sans-serif Bold';letter-spacing:-25.87000084px;stroke:#d5e2eb;stroke-width:7.55905533;stroke-miterlimit:4;stroke-dasharray:none;stroke-opacity:1"
         dx="0">HD</tspan></text>
  </g>
  <path
     style="opacity:1;fill:#000000;stroke-width:13.89016724"
     inkscape:connector-curvature="0"
     id="path4574"
     d="m 1031.0722,341.11293 c 97.9257,-24.44669 215.9921,9.86202 267.108,101.39822 50.9769,80.84077 37.2256,179.46096 38.4757,270.02485 -0.9723,87.09134 11.39,181.26668 -36.1144,259.32942 -60.8389,111.81588 -215.9921,139.04058 -324.19651,84.86888 -80.56297,-39.5869 -124.17809,-130.56753 -124.8726,-217.51998 0.1389,-93.34192 -1.80572,-186.68384 1.11121,-279.74796 5.00046,-100.84261 76.39592,-199.3239 178.4886,-218.35343 m 16.8071,131.53988 c -56.25513,30.28057 -58.06085,101.39822 -56.39403,157.23669 3.33364,83.61881 -6.94508,168.48773 6.80618,251.41203 12.64005,72.64557 113.62155,100.56481 163.48725,48.33778 43.4762,-46.53206 34.3087,-115.84399 35.8366,-174.3216 -3.7503,-74.868 8.8898,-151.68062 -11.251,-224.7429 -13.7513,-58.75541 -87.0913,-85.98013 -138.485,-57.922 z" />
</svg>
