<?xml version="1.0" encoding="UTF-8" standalone="no"?>
<!-- Created with Inkscape (http://www.inkscape.org/) -->

<svg
   xmlns:dc="http://purl.org/dc/elements/1.1/"
   xmlns:cc="http://creativecommons.org/ns#"
   xmlns:rdf="http://www.w3.org/1999/02/22-rdf-syntax-ns#"
   xmlns:svg="http://www.w3.org/2000/svg"
   xmlns="http://www.w3.org/2000/svg"
   xmlns:sodipodi="http://sodipodi.sourceforge.net/DTD/sodipodi-0.dtd"
   xmlns:inkscape="http://www.inkscape.org/namespaces/inkscape"
   width="302.19357mm"
   height="302.18637mm"
   viewBox="0 0 1070.7646 1070.739"
   id="svg2"
   version="1.1"
   inkscape:version="0.92.1 r15371"
   sodipodi:docname="Logotip d'À Punt (2017-).svg">
  <defs
     id="defs4" />
  <sodipodi:namedview
     id="base"
     pagecolor="#ffffff"
     bordercolor="#666666"
     borderopacity="1.0"
     inkscape:pageopacity="0.0"
     inkscape:pageshadow="2"
     inkscape:zoom="0.12374369"
     inkscape:cx="837.96035"
     inkscape:cy="384.40866"
     inkscape:document-units="px"
     inkscape:current-layer="layer1"
     showgrid="false"
     fit-margin-top="10"
     fit-margin-left="10"
     fit-margin-right="10"
     fit-margin-bottom="10"
     inkscape:window-width="1366"
     inkscape:window-height="705"
     inkscape:window-x="-8"
     inkscape:window-y="-8"
     inkscape:window-maximized="1" />
  <metadata
     id="metadata7">
    <rdf:RDF>
      <cc:Work
         rdf:about="">
        <dc:format>image/svg+xml</dc:format>
        <dc:type
           rdf:resource="http://purl.org/dc/dcmitype/StillImage" />
        <dc:title></dc:title>
      </cc:Work>
    </rdf:RDF>
  </metadata>
  <g
     inkscape:label="Capa 1"
     inkscape:groupmode="layer"
     id="layer1"
     transform="translate(316.98807,-197.42586)">
    <path
       inkscape:connector-curvature="0"
       id="path16613"
       style="fill:#000000;fill-opacity:1;fill-rule:nonzero;stroke:none;stroke-width:1.25"
       d="m 718.34344,732.79541 c 0,276.10939 -223.85256,499.93639 -499.96199,499.93639 -276.109432,0 -499.93645,-223.827 -499.93645,-499.93639 0,-276.10946 223.827018,-499.93648 499.93645,-499.93648 276.10943,0 499.96199,223.82702 499.96199,499.93648" />
    <path
       inkscape:connector-curvature="0"
       id="path16617"
       style="fill:#ffffff;fill-opacity:1;fill-rule:nonzero;stroke:none;stroke-width:1.25"
       d="m 343.52802,565.64227 v 38.17204 c -38.29964,-31.18064 -88.23455,-49.93495 -144.75271,-49.93495 -129.187849,0 -224.873132,99.64027 -224.873132,220.05066 v 1.58199 c 0,119.61935 94.894234,217.70312 223.265592,217.70312 57.15602,0 107.67791,-19.31562 146.36025,-51.08311 v 39.01404 h 97.19074 V 565.64227 Z m -17.1723,209.86974 c 0,72.56771 -49.39914,133.16843 -127.58041,133.16843 -74.9152,0 -128.345809,-61.39177 -128.345809,-134.75042 v -1.58199 c 0,-73.38426 49.399029,-133.98495 126.738269,-133.98495 75.75724,0 129.18795,61.4172 129.18795,135.56694 z" />
    <path
       inkscape:connector-curvature="0"
       id="path16621"
       style="fill:#ffffff;fill-opacity:1;fill-rule:nonzero;stroke:none;stroke-width:1.25"
       d="m 165.99695,394.89668 c -12.68149,-13.6511 -23.44928,-23.04101 -32.96679,-28.75662 -10.20636,-6.12386 -20.87217,-9.23682 -31.69095,-9.23682 -14.084859,0 -26.026397,4.87357 -35.492807,14.49314 -9.415522,9.56852 -14.186944,21.51005 -14.186944,35.54389 0,11.4312 3.648772,21.61212 10.844331,30.26207 6.634131,7.98652 16.764057,16.22822 32.0992,22.78586 23.72989,10.1809 96.93557,35.67147 96.93557,35.67147 h 67.74519 z" />
  </g>
</svg>
