<?xml version="1.0" encoding="UTF-8" standalone="no"?>
<svg
   xmlns:dc="http://purl.org/dc/elements/1.1/"
   xmlns:cc="http://creativecommons.org/ns#"
   xmlns:rdf="http://www.w3.org/1999/02/22-rdf-syntax-ns#"
   xmlns:svg="http://www.w3.org/2000/svg"
   xmlns="http://www.w3.org/2000/svg"
   xmlns:xlink="http://www.w3.org/1999/xlink"
   id="svg2"
   width="1900.0414"
   height="1773.3959"
   version="1.0">
  <metadata
     id="metadata7">
    <rdf:RDF>
      <cc:Work
         rdf:about="">
        <dc:format>image/svg+xml</dc:format>
        <dc:type
           rdf:resource="http://purl.org/dc/dcmitype/StillImage" />
        <dc:title></dc:title>
      </cc:Work>
    </rdf:RDF>
  </metadata>
  <defs
     id="defs5">
    <radialGradient
       r="100.18169"
       fy="348.03381"
       fx="-822.27057"
       cy="348.03381"
       cx="-822.27057"
       gradientTransform="matrix(1,0,0,0.8246754,0,61.018895)"
       gradientUnits="userSpaceOnUse"
       id="radialGradient3262"
       xlink:href="#linearGradient3182" />
    <radialGradient
       r="100.18169"
       fy="348.03381"
       fx="-822.27057"
       cy="348.03381"
       cx="-822.27057"
       gradientTransform="matrix(1,0,0,0.8246754,0,61.018895)"
       gradientUnits="userSpaceOnUse"
       id="radialGradient3260"
       xlink:href="#linearGradient3229" />
    <radialGradient
       r="100.18169"
       fy="348.03381"
       fx="-822.27057"
       cy="348.03381"
       cx="-822.27057"
       gradientTransform="matrix(1,0,0,0.8246754,0,61.018895)"
       gradientUnits="userSpaceOnUse"
       id="radialGradient3258"
       xlink:href="#linearGradient3208" />
    <radialGradient
       r="100.18169"
       fy="348.03381"
       fx="-822.27057"
       cy="348.03381"
       cx="-822.27057"
       gradientTransform="matrix(1,0,0,0.8246754,0,61.018895)"
       gradientUnits="userSpaceOnUse"
       id="radialGradient3256"
       xlink:href="#linearGradient3182" />
    <radialGradient
       r="100.18169"
       fy="348.03381"
       fx="-822.27057"
       cy="348.03381"
       cx="-822.27057"
       gradientTransform="matrix(1,0,0,0.8246754,0,61.018895)"
       gradientUnits="userSpaceOnUse"
       id="radialGradient3254"
       xlink:href="#linearGradient3182" />
    <radialGradient
       r="100.18169"
       fy="348.03381"
       fx="-822.27057"
       cy="348.03381"
       cx="-822.27057"
       gradientTransform="matrix(1,0,0,0.8246754,0,61.018895)"
       gradientUnits="userSpaceOnUse"
       id="radialGradient3252"
       xlink:href="#linearGradient3182" />
    <radialGradient
       r="100.18169"
       fy="348.03381"
       fx="-822.27057"
       cy="348.03381"
       cx="-822.27057"
       gradientTransform="matrix(1,0,0,0.8246754,0,61.018895)"
       gradientUnits="userSpaceOnUse"
       id="radialGradient3250"
       xlink:href="#linearGradient3182" />
    <radialGradient
       r="100.18169"
       fy="348.03381"
       fx="-822.27057"
       cy="348.03381"
       cx="-822.27057"
       gradientTransform="matrix(1,0,0,0.8246754,0,61.018895)"
       gradientUnits="userSpaceOnUse"
       id="radialGradient3237"
       xlink:href="#linearGradient3182" />
    <radialGradient
       r="100.18169"
       fy="348.03381"
       fx="-822.27057"
       cy="348.03381"
       cx="-822.27057"
       gradientTransform="matrix(1,0,0,0.8246754,0,61.018895)"
       gradientUnits="userSpaceOnUse"
       id="radialGradient3226"
       xlink:href="#linearGradient3229" />
    <radialGradient
       r="100.18169"
       fy="348.03381"
       fx="-822.27057"
       cy="348.03381"
       cx="-822.27057"
       gradientTransform="matrix(1,0,0,0.8246754,0,61.018895)"
       gradientUnits="userSpaceOnUse"
       id="radialGradient3216"
       xlink:href="#linearGradient3182" />
    <radialGradient
       r="100.18169"
       fy="348.03381"
       fx="-822.27057"
       cy="348.03381"
       cx="-822.27057"
       gradientTransform="matrix(1,0,0,0.8246754,0,61.018895)"
       gradientUnits="userSpaceOnUse"
       id="radialGradient3206"
       xlink:href="#linearGradient3208" />
    <radialGradient
       r="100.18169"
       fy="348.03381"
       fx="-822.27057"
       cy="348.03381"
       cx="-822.27057"
       gradientTransform="matrix(1,0,0,0.8246754,0,61.018895)"
       gradientUnits="userSpaceOnUse"
       id="radialGradient3202"
       xlink:href="#linearGradient3182" />
    <radialGradient
       r="100.18169"
       fy="348.03381"
       fx="-822.27057"
       cy="348.03381"
       cx="-822.27057"
       gradientTransform="matrix(1,0,0,0.8246754,0,61.018895)"
       gradientUnits="userSpaceOnUse"
       id="radialGradient3200"
       xlink:href="#linearGradient3182" />
    <radialGradient
       r="100.18169"
       fy="348.03381"
       fx="-822.27057"
       cy="348.03381"
       cx="-822.27057"
       gradientTransform="matrix(1,0,0,0.8246754,0,61.018895)"
       gradientUnits="userSpaceOnUse"
       id="radialGradient3194"
       xlink:href="#linearGradient3182" />
    <radialGradient
       gradientUnits="userSpaceOnUse"
       gradientTransform="matrix(1,0,0,0.8246754,0,61.018895)"
       r="100.18169"
       fy="348.03381"
       fx="-822.27057"
       cy="348.03381"
       cx="-822.27057"
       id="radialGradient3188"
       xlink:href="#linearGradient3182" />
    <linearGradient
       id="linearGradient3182">
      <stop
         id="stop3184"
         offset="0"
         style="stop-color:#0055d4;stop-opacity:1;" />
      <stop
         id="stop3186"
         offset="1"
         style="stop-color:#0055d4;stop-opacity:0;" />
    </linearGradient>
    <linearGradient
       id="linearGradient3208">
      <stop
         style="stop-color:#6600ff;stop-opacity:1"
         offset="0"
         id="stop3210" />
      <stop
         style="stop-color:#5500d4;stop-opacity:0"
         offset="1"
         id="stop3212" />
    </linearGradient>
    <linearGradient
       id="linearGradient3229">
      <stop
         id="stop3231"
         offset="0"
         style="stop-color:#00aad4;stop-opacity:1" />
      <stop
         id="stop3233"
         offset="1"
         style="stop-color:#00aad4;stop-opacity:0" />
    </linearGradient>
    <linearGradient
       xlink:href="#linearGradient1161"
       id="linearGradient3520"
       gradientUnits="userSpaceOnUse"
       gradientTransform="translate(7991.4092,-7484.0182)"
       x1="475.01208"
       y1="29234.521"
       x2="-1343.6307"
       y2="29445.83" />
    <linearGradient
       id="linearGradient1161">
      <stop
         id="stop1157"
         offset="0"
         style="stop-color:#0b7eda;stop-opacity:1" />
      <stop
         id="stop1159"
         offset="1"
         style="stop-color:#4629c5;stop-opacity:1" />
    </linearGradient>
    <filter
       style="color-interpolation-filters:sRGB"
       id="filter1680-0-6"
       x="-0.2760295"
       width="1.5520591"
       y="-0.33142158"
       height="1.6628431">
      <feGaussianBlur
         stdDeviation="331.22039"
         id="feGaussianBlur1682-3-9" />
    </filter>
    <radialGradient
       gradientUnits="userSpaceOnUse"
       gradientTransform="matrix(1.2287763,0.13965752,-0.11471893,1.0093539,14488.688,-16453.644)"
       r="5894.7637"
       fy="49919.949"
       fx="10653.991"
       cy="49919.949"
       cx="10653.991"
       id="radialGradient1742-9"
       xlink:href="#linearGradient1726" />
    <linearGradient
       id="linearGradient1726">
      <stop
         id="stop1722"
         offset="0"
         style="stop-color:#00447a;stop-opacity:0.98431373" />
      <stop
         id="stop1724"
         offset="1"
         style="stop-color:#00f1dc;stop-opacity:0.89017344" />
    </linearGradient>
    <filter
       height="1.6507783"
       y="-0.32538918"
       width="1.5524561"
       x="-0.27622804"
       id="filter1760-9"
       style="color-interpolation-filters:sRGB">
      <feGaussianBlur
         id="feGaussianBlur1762-4"
         stdDeviation="849.27152" />
    </filter>
  </defs>
  <g
     id="layer1"
     transform="matrix(5.8862959,0,0,5.8862959,-259.03407,1420.5453)">
    <g
       transform="translate(3.3542923)"
       id="g904">
      <path
         style="fill:url(#radialGradient1742-9);fill-opacity:1;stroke:#000000;stroke-width:1px;stroke-linecap:butt;stroke-linejoin:miter;stroke-opacity:1;filter:url(#filter1760-9)"
         d="m 20789.142,30600.232 c -939.217,1004.696 -919.938,4036.983 536.096,5133.629 1532.35,199.732 3521.115,47.447 4830.916,-1126.136 1180.952,-1058.135 1322.028,-2745.411 1031.55,-3847.197 -1685.213,-1571.613 -3173.53,-1692.323 -6398.562,-160.296 z"
         id="path1720-7"
         transform="matrix(0.02899877,0,0,0.02899877,-486.14648,-1037.8193)" />
      <path
         style="opacity:1;fill:#ffffff;stroke-width:0.16435228"
         d="m 169.50138,-37.760372 c -1.11531,-0.506793 -1.18542,-0.820216 -1.1845,-5.296771 0,-5.809341 0.42614,-11.619689 1.15957,-15.84193 0.92515,-5.328024 2.66181,-9.610386 5.83628,-14.392302 3.87281,-5.833896 8.22316,-10.14238 18.80653,-18.625082 7.26677,-5.824271 10.70739,-8.800423 14.05286,-12.154983 3.68648,-3.69666 5.04906,-5.77442 5.93206,-9.04667 0.4408,-1.63311 0.44447,-6.22725 0.006,-7.88857 -0.53337,-2.02607 -1.34084,-3.48763 -2.63633,-4.77587 -1.34544,-1.33782 -2.25381,-1.8866 -4.2075,-2.54222 -1.9446,-0.6525 -3.90158,-0.87794 -6.65622,-0.76614 -2.76289,0.1118 -4.13113,0.44264 -6.32758,1.53074 -2.94657,1.45961 -5.36258,4.38463 -7.92496,9.59424 -2.12973,4.33002 -2.75813,5.09049 -4.01237,4.85525 -0.53796,-0.10082 -10.537,-3.817 -12.22684,-4.54402 -1.18111,-0.50771 -1.47483,-0.94734 -1.47483,-2.20506 0,-1.95981 1.14776,-5.06078 3.28902,-8.8861 4.21538,-7.53089 8.08478,-11.53704 14.03856,-14.53482 5.09038,-2.56301 9.74069,-3.53088 16.93992,-3.52611 4.60633,0.003 6.38973,0.18696 9.77892,1.00762 11.34026,2.74632 18.96947,11.60037 20.79669,24.1353 0.3125,2.14155 0.3565,7.02381 0.0824,9.20376 -0.40691,3.25393 -1.5465,7.08833 -2.98578,10.04717 -2.97578,6.117351 -9.43846,12.721339 -22.00382,22.484675 -8.57911,6.666124 -13.60517,11.244224 -15.63381,14.24063 -0.81838,1.208332 -1.61212,2.883593 -2.20084,4.64344 -0.60486,1.807045 -1.11651,4.404982 -1.03466,5.251226 l 0.055,0.527872 21.03716,0.08248 c 22.99862,0.09164 21.41492,0.0092 22.04506,1.054736 0.28685,0.474718 0.30609,0.971523 0.30609,7.820295 0,6.968182 -0.009,7.338794 -0.32166,7.845128 -0.67084,1.10954 1.80163,1.030359 -31.99857,1.026235 -29.98853,-0.0031 -30.64159,-0.0092 -31.33159,-0.323505 z"
         id="path812" />
    </g>
  </g>
</svg>
