<?xml version="1.0" encoding="UTF-8" standalone="no"?>
<svg xmlns:dc="http://purl.org/dc/elements/1.1/" xmlns:cc="http://creativecommons.org/ns#" xmlns:rdf="http://www.w3.org/1999/02/22-rdf-syntax-ns#" xmlns:svg="http://www.w3.org/2000/svg" xmlns="http://www.w3.org/2000/svg" id="svg125759" version="1.1" viewBox="0 0 264.5833272454602 107.9671450923537" height="408.0647888183594" width="1000">
 <defs id="defs125753">
  <clipPath id="clipPath125224" clipPathUnits="userSpaceOnUse">
   <path id="path125222" d="M 229.09,331.9141 H 467.709 V 470.9991 H 229.09 Z" />
  </clipPath>
  <clipPath id="clipPath125232" clipPathUnits="userSpaceOnUse">
   <path id="path125230" d="M 231.982,406.4270999999999 H 384.038 V 468.4757999999999 H 231.982 Z" />
  </clipPath>
 </defs>
 <metadata id="metadata125756">
  <rdf:RDF>
   <cc:Work rdf:about="">
    <dc:format>image/svg+xml</dc:format>
    <dc:type rdf:resource="http://purl.org/dc/dcmitype/StillImage" />
    <dc:title></dc:title>
   </cc:Work>
  </rdf:RDF>
 </metadata>
 <g transform="translate(-141.0004396825397,-8.721606007207242)" id="layer1">
  <g id="g125218" transform="matrix(1.740038757650689,0,0,-1.740038757650689,-262.6572313947824,823.8876550286197)">
   <g id="g125220" clip-path="url(#clipPath125224)">
    <g id="g125226">
     <g id="g125228" clip-path="url(#clipPath125232)">
      <path d="M 286.5762,434.5309 C 286.5762,435.282 286.8406000000001,435.9228 287.3707,436.4527 287.8995,436.9818 288.5403,437.2464 289.2918999999999,437.2464 290.0435,437.2464 290.6838,436.9818 291.2137,436.4527 291.7427,435.9228 292.0085,435.282 292.0085,434.5309 292.0085,433.7788 291.7427,433.138 291.2137,432.6092000000001 290.6838,432.0793 290.0435,431.8152 289.2918999999999,431.8152 288.5403,431.8152 287.8995,432.0793 287.3707,432.6092000000001 286.8406000000001,433.138 286.5762,433.7788 286.5762,434.5309" style="fill:#4a3a3e" id="path125234" />
      <path d="M 300.7117,457.2497 C 300.7966,457.8317 300.8404000000001,458.3725 300.8404000000001,458.8705 300.8404000000001,459.3691 300.8404000000001,459.89 300.8404000000001,460.4310999999999 300.8404000000001,461.8433 300.7033,463.0084 300.4329999999999,463.9236 300.1632,464.8378 299.7868,465.5642 299.3098000000001,466.1063 298.8307,466.6458000000001 298.2498000000001,467.03 297.5663,467.2582 296.8773,467.4876 296.1405,467.6031 295.3522,467.6031 293.9382999999999,467.6031 292.7732,467.3228 291.8572,466.7613 290.9431,466.1997 290.2154,465.4403 289.6751,464.4841 289.1360999999999,463.5274 288.7287,462.4258 288.4597,461.1784 288.1895,459.932 288.0126,458.6221 287.9291,457.2497 Z M 287.8681,456.377 C 287.8681,455.961 287.8541,455.5346 287.8358,455.0991 287.8143,454.6619 287.806,454.1103 287.806,453.4467 287.806,452.073 287.8871,450.6408000000001 288.0546000000001,449.1428000000001 288.2198,447.6474000000001 288.585,446.2939 289.1455,445.0892 289.706,443.8824 290.5379,442.8848 291.6404000000001,442.0949 292.7401,441.3062 294.2051,440.9125 296.0357,440.9125 297.8664,440.9125 299.3733,441.1818 300.5563,441.7207 301.7451,442.2621 302.6775,442.9157 303.3635,443.6851 304.0492,444.455 304.5584,445.2327 304.894,446.0239 305.2239,446.815 305.4746,447.4579 305.6429000000001,447.9572 L 306.575,447.7707 C 306.4519,447.312 306.2119,446.6581 305.8583,445.8053 305.5058,444.953 304.9453,444.1013 304.1744000000001,443.2479 303.4054,442.3972 302.3674,441.6467 301.0569,441.0039 299.7473,440.3607 298.054,440.0382 295.9723,440.0382 293.8966,440.0382 291.9727,440.3714 290.2057,441.0359 288.4382999999999,441.6982 286.9099,442.6565 285.6217,443.9039 284.3315,445.1516 283.3356,446.6379 282.6271,448.3632 281.922,450.089 281.5681,452.0127 281.5681,454.1308 281.5681,455.961 281.9316999999999,457.7388 282.6596000000001,459.4633 283.387,461.1889 284.3846,462.7158 285.6518,464.0472 286.9196,465.3763 288.406,466.4485 290.1122,467.2582 291.8174,468.0701 293.6470000000001,468.4758 295.6007,468.4758 296.7637,468.4758 298.0099,468.2675 299.3418,467.8513 300.6735,467.4356 301.9077,466.7613 303.0547,465.825 304.1959,464.8898 305.1522000000001,463.6513 305.9218,462.1152 306.6913,460.5749 307.0748,458.6617 307.0748,456.377" style="fill:#ef3120" id="path125236" />
      <path d="M 310.229,467.6655 H 329.997 L 314.4675,441.7842 H 323.2604 C 324.468,441.7842 325.4541,442.022 326.2234,442.5011 326.9932,442.9780999999999 327.6169,443.5827 328.0959,444.308 328.5718,445.0366999999999 328.9472,445.815 329.2191,446.6487 329.4880999999999,447.4792 329.7466,448.2703 329.997,449.0171 H 330.4954999999999 L 329.6861,440.9125 H 307.9816 L 323.51,466.792 H 318.1471 C 317.1096000000001,466.792 316.2028,466.7613 315.4354,466.6978 314.6661,466.6364 313.968,466.4175 313.347,466.0436 312.7216999999999,465.6686 312.1400000000001,465.0656 311.601,464.2349 311.0588,463.4025 310.4776,462.2191 309.8517,460.6793 H 309.3544000000001" style="fill:#ef3120" id="path125238" />
      <path d="M 333.8333,467.6655 H 353.6047 L 338.0739,441.7842 H 346.8676 C 348.0722,441.7842 349.0605,442.022 349.8297,442.5011 350.5993,442.9780999999999 351.2210999999999,443.5827 351.7023,444.308 352.1793,445.0366999999999 352.553,445.815 352.8234,446.6487 353.0926,447.4792 353.3527,448.2703 353.6047,449.0171 H 354.1016 L 353.2903,440.9125 H 331.5888 L 347.1159,466.792 H 341.7532 C 340.7136,466.792 339.8091,466.7613 339.042,466.6978 338.2722,466.6364 337.5746,466.4175 336.9504,466.0436 336.3279,465.6686 335.744,465.0656 335.2071,464.2349 334.6646000000001,463.4025 334.0837,462.2191 333.4579,460.6793 H 332.9608" style="fill:#ef3120" id="path125240" />
      <path d="M 361.2127,454.256 C 361.2127,451.3042 361.4411,448.9562 361.9,447.2102 362.3574,445.4634 362.9598,444.1228 363.7068,443.187 364.457,442.2513 365.3297,441.6383 366.3268,441.3465 367.3248,441.0574 368.3851,440.9125 369.508,440.9125 370.6293,440.9125 371.6898000000001,441.0574 372.6902,441.3465 373.6868,441.6383 374.5593,442.2513 375.3084,443.187 376.0573,444.1228 376.6567,445.4634 377.1176,447.2102 377.5731,448.9562 377.8014,451.3042 377.8014,454.256 377.8014,456.7509 377.6364,458.8399 377.3038,460.5229 376.9706,462.207 376.4614,463.5796 375.7757,464.6395 375.0897,465.7007 374.2272,466.459 373.1876,466.9166 372.148,467.3737 370.9195,467.6031 369.508,467.6031 368.0946,467.6031 366.8683,467.3737 365.83,466.9166 364.7872,466.459 363.9276,465.7007 363.2416,464.6395 362.5527,463.5796 362.0457,462.207 361.7136,460.5229 361.379,458.8399 361.2127,456.7509 361.2127,454.256 Z M 354.9764,454.256 C 354.9764,456.293 355.4222,458.186 356.3183,459.932 357.2109,461.678 358.3578000000001,463.1839 359.748,464.4526 361.1412,465.7210999999999 362.6994,466.7072 364.4247,467.4152 366.1503,468.1216 367.8461,468.4758 369.508,468.4758 371.1715,468.4758 372.8638,468.1216 374.5926,467.4152 376.3147,466.7072 377.8732,465.7210999999999 379.2688,464.4526 380.6596000000001,463.1839 381.8034,461.678 382.699,459.932 383.5919,458.186 384.038,456.293 384.038,454.256 384.038,452.3 383.622,450.4608 382.7925,448.7355 381.9598,447.0118 380.8689,445.504 379.5171,444.2146 378.1671,442.9264999999999 376.617,441.9080999999999 374.871,441.1592000000001 373.1242,440.4125 371.3365,440.0382 369.508,440.0382 367.6787,440.0382 365.8918,440.4125 364.1439,441.1592000000001 362.3993,441.9080999999999 360.8505,442.9264999999999 359.4992,444.2146 358.1455,445.504 357.0575,447.0118 356.2250999999999,448.7355 355.3924,450.4608 354.9764,452.3 354.9764,454.256" style="fill:#ef3120" id="path125242" />
      <path d="M 242.1482,455.6283 C 242.1482,457.79 242.4487,459.6194 243.053,461.1165 243.6554,462.614 244.4046,463.8287 245.2973,464.7644 246.1924,465.7007 247.158,466.3871 248.1997,466.8237 249.237,467.2582 250.195,467.4771 251.0665,467.4771 252.3129,467.4771 253.3108,467.042 254.06,466.1682 254.8091,465.2944 255.1833,463.9436 255.1833,462.1152 V 441.4379 C 249.7996,439.8912 245.3828,440.678 242.1482,442.0199 Z M 260.5464,457.6858 C 260.5464,459.3489 260.8065,460.8058 261.3253,462.0517 261.8461,463.2994 262.52,464.3183 263.353,465.1076000000001 264.1827,465.8969 265.1202,466.4892 266.1598000000001,466.8854 267.1994,467.2808 268.2358,467.4771 269.2754,467.4771 270.6087,467.4771 271.6566,467.0824 272.4243,466.2926 273.1946,465.5023 273.5805,464.4001 273.5805,462.9874 V 446.7547 C 269.6268,446.8234 265.2016,445.9564 260.5464,443.6371 Z M 236.7852,445.2884 C 239.3439,442.768 247.7665,436.0803 260.127,442.4591 266.9691,445.9895 273.6759,445.5932999999999 278.9429,444.1204 V 459.0584 C 278.9429,465.253 275.9085,468.3514 269.8391,468.3514 268.5477,468.3514 267.3945,468.1837 266.3785,467.8513 265.3593,467.5183 264.4760999999999,467.0714 263.7273,466.5112 262.9810999999999,465.9496 262.3553,465.3165 261.8547,464.6082 261.3573,463.9006 260.9621,463.175 260.6713,462.4258 H 260.5464 C 260.0477,464.5455 258.9976,466.0638 257.3972,466.9796 255.795,467.8933 253.9579,468.3514 251.8786,468.3514 249.5488,468.3514 247.5652,467.7689 245.9234,466.6051 244.2792,465.4403 243.0231,463.6108 242.1482,461.1165 H 242.023 V 467.6655 H 231.982 V 466.792 H 236.7852" style="fill:#ef3120" id="path125244" />
      <path d="M 345.1909,429.0414 V 418.6363 H 354.0591 V 429.0414 H 358.5254 V 428.6107 407.576 407.1466 H 354.0591 V 417.9812 H 345.1909 V 407.1466 H 340.7493 V 429.0414" style="fill:#ef3120" id="path125246" />
      <path d="M 369.5977,407.4862999999999 C 370.9266999999999,407.4862999999999 372.0623,407.6432 373.0043,407.9616 373.9437,408.2798 374.7393,408.7102 375.3834,409.2538 376.028,409.7957 376.5396,410.4166999999999 376.9155,411.1151 377.2955,411.8099 377.584,412.5432 377.7767,413.3122 377.9702,414.0823 378.1016,414.8481 378.1609,415.6193 378.2232999999999,416.387 378.2526,417.1103 378.2526,417.7860999999999 378.2526,419.4477 378.1507,420.9484 377.9446,422.2895 377.7418,423.6333 377.3360999999999,424.7828 376.7336,425.7336999999999 376.1301,426.6887 375.2797,427.4198 374.1869,427.9327 373.09,428.4462 371.6544000000001,428.7007 369.8721,428.7007 369.4630999999999,428.7007 369.095,428.6961 368.7682,428.6864 368.441,428.676 368.1736,428.6512 367.9691,428.6107 V 407.576 C 368.5624,407.5160999999999 369.1055,407.4862999999999 369.5977,407.4862999999999 Z M 363.5192,429.0414 V 429.0414 C 364.5628,429.0414 365.606,429.0562 366.6509,429.086 367.6948000000001,429.1164 368.739,429.1311 369.7799,429.1311 370.7021,429.1311 371.6745,429.072 372.6978,428.9465 373.7198,428.8256 374.7342,428.6053 375.7343,428.2858 376.7384999999999,427.9703 377.6904,427.5442000000001 378.5903,427.0095 379.4912999999999,426.4788 380.2884999999999,425.8014 380.9847,424.9827 381.6804,424.1618 382.2328,423.1862 382.6415,422.06 383.0513,420.9336 383.2563,419.6097 383.2563,418.0929 383.2563,416.5974 383.0513,415.2830999999999 382.6415,414.1581 382.2328,413.0312 381.6855,412.0552 381,411.2380999999999 380.3135,410.4166999999999 379.5327,409.7384999999999 378.6521,409.2076 377.7712999999999,408.6729 376.8569,408.2496000000001 375.9049,407.9318 374.9532,407.611 374.0117,407.393 373.0798,407.2710999999999 372.1509,407.1466 371.2862999999999,407.0862 370.4868999999999,407.0862 369.321,407.0862 368.1599000000001,407.0956 367.0021,407.116 365.8456000000001,407.1356 364.6865,407.1466 363.5192,407.1466" style="fill:#ef3120" id="path125248" />
      <path d="M 283.2343,407.8549000000001 H 287.1539 V 428.3017 H 283.7202 V 429.0159 H 291.5312999999999 V 407.8549000000001 H 294.965 V 407.1413 H 283.2343" style="fill:#4a3a3e" id="path125250" />
      <path d="M 331.4042,420.5008 C 331.4714,420.9762999999999 331.506,421.4180999999999 331.506,421.8265 331.506,422.2341 331.506,422.6587 331.506,423.1012 331.506,424.2564 331.3953,425.2089 331.1753,425.9567 330.9539,426.704 330.6486000000001,427.2991 330.2587,427.7414 329.8683,428.1823 329.3932,428.4978 328.8333,428.6846000000001 328.2736,428.8708 327.6709,428.9653 327.0268,428.9653 325.873,428.9653 324.9223,428.7360999999999 324.1764,428.2767 323.4294,427.8177 322.8354,427.1968 322.3947,426.4154 321.9537,425.6332 321.6224,424.7328 321.4021,423.7125 321.1812,422.6931 321.0375,421.6223 320.9695,420.5008 Z M 320.9187,419.7871 C 320.9187,419.4464 320.9104,419.0979 320.8934,418.7419 320.876,418.3847 320.8677,417.9338999999999 320.8677,417.3897 320.8677,416.269 320.9359,415.0953 321.0716,413.8719 321.2068,412.648 321.5039,411.5428000000001 321.9623,410.5578 322.4202,409.5717 323.0987,408.7551 323.9977,408.1102 324.8971,407.464 326.0928,407.1413 327.5868,407.1413 329.0794,407.1413 330.3098000000001,407.3619 331.2771,407.8041 332.2441,408.2459 333.0073,408.7809 333.567,409.4107 334.1269,410.0389 334.5421,410.676 334.8148000000001,411.322 335.0851,411.9671 335.2888,412.4954 335.4252999999999,412.9027 L 336.1884,412.7504 C 336.0865,412.3758 335.8909,411.8403 335.6035,411.1441 335.314,410.4471 334.8562,409.7501 334.2288,409.0539 333.6008000000001,408.3566 332.7528,407.7442 331.6844,407.2178 330.615,406.6912 329.232,406.4270999999999 327.5355,406.4270999999999 325.8383,406.4270999999999 324.2697,406.7 322.8275,407.2431 321.3849,407.7859 320.1381,408.5688 319.0865,409.5891 318.0348,410.6091 317.2201,411.8236 316.6434,413.2348 316.066,414.6444000000001 315.7782,416.218 315.7782,417.9513 315.7782,419.4464 316.0746,420.8998 316.6687,422.311 317.2622,423.7209 318.0767,424.9706 319.112,426.0586 320.1467,427.1454000000001 321.3594000000001,428.0217 322.7513,428.6846000000001 324.1420000000001,429.3474000000001 325.6349,429.6785 327.2302,429.6785 328.1795,429.6785 329.1979,429.5087 330.2845,429.169 331.3698000000001,428.8289 332.379,428.2767 333.3128,427.512 334.2457,426.7464 335.0257,425.735 335.6540000000001,424.4782999999999 336.2814,423.2197 336.5957,421.6562 336.5957,419.7871" style="fill:#4a3a3e" id="path125252" />
      <path d="M 311.5771,429.0159 V 428.3017 H 314.5371 L 307.7164,412.2912 301.1507,428.3017 H 304.5964999999999 V 429.0159 H 294.2204 V 428.3017 H 296.7107 L 305.3121,407.0912999999999 H 306.6623 L 315.5941,428.3017 H 317.3721 V 429.0159" style="fill:#4a3a3e" id="path125254" />
      <path d="M 278.9316,438.7982 C 277.5616,439.2359 276.0359,439.4519 274.5551,439.5379 V 407.8549000000001 H 271.1213 V 407.1413 H 283.3367 V 407.8549000000001 H 278.9316" style="fill:#4a3a3e" id="path125256" />
     </g>
    </g>
   </g>
  </g>
 </g>
</svg>
