<?xml version="1.0" encoding="UTF-8" ?>
<!DOCTYPE svg PUBLIC "-//W3C//DTD SVG 1.1//EN" "http://www.w3.org/Graphics/SVG/1.1/DTD/svg11.dtd">
<svg width="1656pt" height="423pt" viewBox="0 0 1656 423" version="1.1" xmlns="http://www.w3.org/2000/svg">
<g id="#ffffffff">
<path fill="#ffffff" opacity="1.00" d=" M 1130.00 196.23 C 1139.45 190.19 1148.93 184.20 1158.49 178.33 C 1158.47 193.89 1158.51 209.44 1158.46 225.00 C 1168.61 225.03 1178.77 224.96 1188.93 225.04 C 1188.75 233.19 1188.89 241.35 1188.85 249.51 C 1178.73 249.45 1168.60 249.47 1158.49 249.48 C 1158.51 266.33 1158.42 283.19 1158.53 300.04 C 1158.63 305.55 1159.47 312.09 1164.34 315.48 C 1171.57 319.76 1180.55 317.52 1187.55 313.89 C 1187.45 322.49 1187.49 331.09 1187.52 339.69 C 1176.76 342.91 1164.91 343.23 1154.18 339.74 C 1144.90 336.75 1137.23 329.46 1133.59 320.44 C 1131.15 314.30 1129.87 307.66 1129.99 301.04 C 1130.05 283.84 1129.93 266.65 1130.06 249.45 C 1124.04 249.46 1118.03 249.50 1112.02 249.54 C 1111.98 241.36 1112.01 233.18 1112.01 225.01 C 1118.01 225.02 1124.02 224.96 1130.03 225.05 C 1129.96 215.45 1130.04 205.84 1130.00 196.23 Z" />
<path fill="#ffffff" opacity="1.00" d=" M 1476.07 191.14 C 1489.25 178.57 1509.30 175.95 1526.40 180.49 C 1537.30 183.32 1547.00 190.61 1552.34 200.57 C 1560.27 215.64 1559.70 234.39 1552.51 249.64 C 1547.81 259.66 1540.31 267.94 1533.74 276.74 C 1524.46 289.02 1514.84 301.08 1505.77 313.52 C 1524.35 313.49 1542.92 313.60 1561.50 313.47 C 1561.46 322.36 1561.44 331.26 1561.53 340.16 C 1527.53 340.15 1493.52 340.12 1459.52 340.17 C 1459.48 336.36 1459.48 332.55 1459.51 328.74 C 1477.21 306.02 1494.79 283.20 1512.42 260.43 C 1517.66 253.54 1523.60 246.91 1526.69 238.69 C 1529.66 230.99 1530.18 221.96 1526.56 214.39 C 1522.39 205.51 1510.45 203.24 1501.93 206.49 C 1493.87 209.46 1489.81 218.07 1488.78 226.11 C 1479.80 224.59 1470.88 222.74 1461.92 221.10 C 1462.90 209.85 1467.59 198.78 1476.07 191.14 Z" />
<path fill="#ffffff" opacity="1.00" d=" M 525.00 180.09 C 536.02 180.26 547.03 180.12 558.05 180.17 C 569.36 180.29 580.80 179.50 591.96 181.84 C 608.79 185.06 624.69 194.29 634.79 208.29 C 644.12 220.88 648.46 236.49 649.58 251.96 C 650.94 272.05 647.72 293.31 636.23 310.26 C 624.11 328.44 602.62 339.15 581.04 340.11 C 562.38 340.25 543.72 340.01 525.07 340.23 C 524.92 286.85 525.04 233.47 525.00 180.09 M 554.99 208.00 C 554.98 242.98 555.05 277.96 554.96 312.94 C 570.29 313.00 586.85 312.82 600.05 303.90 C 612.04 296.14 618.17 281.85 619.04 267.97 C 620.25 253.84 618.68 238.54 610.30 226.65 C 603.48 216.60 591.77 211.05 580.08 209.06 C 571.81 207.37 563.35 208.18 554.99 208.00 Z" />
<path fill="#ffffff" opacity="1.00" d=" M 681.21 234.25 C 692.20 225.22 707.11 222.21 721.03 223.38 C 732.52 224.27 743.82 228.88 752.16 236.94 C 763.64 248.41 769.56 264.87 769.15 281.00 C 769.13 284.66 769.13 288.33 769.23 292.00 C 742.76 291.94 716.28 292.04 689.81 291.95 C 690.64 299.09 693.36 306.33 698.84 311.21 C 708.18 319.34 723.00 319.94 733.29 313.26 C 738.09 310.44 741.29 305.73 744.20 301.12 C 751.79 304.04 759.37 307.06 767.13 309.52 C 763.70 318.45 757.50 326.32 749.95 332.17 C 737.42 341.46 720.96 343.45 705.86 341.54 C 692.63 339.77 680.01 332.75 672.20 321.82 C 662.53 308.68 658.76 291.66 660.38 275.55 C 661.94 259.91 668.62 244.13 681.21 234.25 M 706.27 249.36 C 698.05 252.62 692.27 260.68 690.76 269.26 C 707.21 269.12 723.68 269.04 740.13 269.30 C 738.11 262.37 734.94 255.16 728.56 251.21 C 722.02 247.10 713.41 246.74 706.27 249.36 Z" />
<path fill="#ffffff" opacity="1.00" d=" M 812.71 236.10 C 819.05 227.65 829.68 223.32 840.06 223.11 C 853.74 223.00 868.16 227.08 877.80 237.24 C 889.42 249.27 893.29 266.71 893.10 282.98 C 893.22 299.16 889.27 316.60 877.44 328.36 C 868.63 337.67 855.58 341.84 843.02 342.13 C 831.88 342.78 820.29 338.58 812.72 330.25 C 813.02 349.16 812.76 368.08 812.86 386.99 C 803.26 387.00 793.66 387.00 784.05 387.00 C 784.22 333.00 784.19 279.00 784.07 225.00 C 793.68 225.04 803.29 224.97 812.91 225.03 C 812.85 228.72 812.88 232.41 812.71 236.10 M 830.36 248.39 C 821.37 250.74 814.83 258.68 812.38 267.40 C 808.93 279.14 809.39 292.25 814.52 303.44 C 818.67 312.31 828.15 318.46 838.04 317.79 C 845.46 317.17 852.81 313.31 856.78 306.88 C 862.29 298.77 863.64 288.60 863.08 279.00 C 862.58 269.50 859.51 259.41 851.91 253.18 C 846.16 247.90 837.76 246.86 830.36 248.39 Z" />
<path fill="#ffffff" opacity="1.00" d=" M 952.57 223.68 C 967.95 221.77 984.41 224.72 997.15 233.88 C 1007.79 241.49 1014.99 253.33 1017.93 265.98 C 1021.89 282.98 1019.97 301.74 1010.77 316.78 C 1003.23 329.35 990.03 337.92 975.76 340.79 C 961.97 343.44 947.19 342.54 934.29 336.72 C 920.57 330.64 910.23 318.19 905.84 303.93 C 902.47 294.32 902.51 283.99 903.10 273.95 C 904.66 261.12 909.79 248.35 919.16 239.24 C 927.92 230.19 940.15 225.00 952.57 223.68 M 954.36 248.45 C 948.20 250.05 942.74 254.08 939.23 259.37 C 934.25 266.47 932.46 275.37 932.60 283.93 C 932.86 293.00 935.55 302.35 941.69 309.23 C 948.46 316.81 959.83 319.72 969.44 316.48 C 976.54 314.42 982.01 308.74 985.49 302.41 C 990.85 291.18 991.41 277.75 986.86 266.15 C 984.11 259.22 979.08 252.91 972.14 249.85 C 966.62 247.26 960.23 247.46 954.36 248.45 Z" />
<path fill="#ffffff" opacity="1.00" d=" M 1091.75 223.68 C 1096.76 222.70 1101.93 223.09 1106.90 224.10 C 1106.90 233.43 1106.68 242.78 1107.04 252.11 C 1098.46 247.04 1086.79 247.79 1079.02 254.06 C 1073.76 258.08 1070.33 264.04 1068.23 270.23 C 1063.65 282.94 1063.89 296.66 1064.00 309.98 C 1063.99 320.04 1064.00 330.10 1063.99 340.16 C 1054.52 340.17 1045.05 340.07 1035.59 340.21 C 1035.31 301.83 1035.59 263.44 1035.45 225.06 C 1044.96 224.95 1054.48 225.04 1063.99 225.01 C 1063.99 231.15 1064.01 237.29 1063.99 243.43 C 1069.95 233.39 1080.12 225.62 1091.75 223.68 Z" />
<path fill="#ffffff" opacity="1.00" d=" M 1233.05 225.13 C 1249.77 220.94 1269.04 223.02 1282.67 234.22 C 1293.29 242.80 1299.69 255.71 1301.99 269.01 C 1303.44 276.58 1302.91 284.31 1302.96 291.97 C 1276.55 292.01 1250.15 291.97 1223.74 291.99 C 1224.06 300.44 1228.43 308.73 1235.50 313.46 C 1243.91 318.78 1254.98 319.10 1263.96 315.02 C 1270.07 312.11 1274.36 306.69 1278.01 301.17 C 1285.59 304.30 1293.41 306.82 1301.04 309.86 C 1296.80 318.42 1291.35 326.70 1283.45 332.30 C 1276.46 337.48 1268.02 340.45 1259.44 341.57 C 1245.87 343.26 1231.37 341.82 1219.55 334.46 C 1202.57 323.91 1193.86 303.50 1193.84 283.99 C 1193.39 269.80 1197.34 255.31 1205.73 243.77 C 1212.20 234.53 1222.22 228.06 1233.05 225.13 M 1243.22 248.28 C 1233.28 250.47 1226.35 259.47 1224.37 269.11 C 1240.78 269.22 1257.20 269.13 1273.63 269.16 C 1271.93 261.58 1267.81 254.09 1260.74 250.36 C 1255.46 247.30 1249.06 247.49 1243.22 248.28 Z" />
<path fill="#ffffff" opacity="1.00" d=" M 1329.41 231.31 C 1347.81 216.80 1378.20 222.22 1390.45 242.17 C 1384.73 247.35 1378.94 252.44 1373.42 257.83 C 1368.55 251.73 1361.07 247.05 1353.01 247.85 C 1348.11 247.66 1343.42 252.05 1343.86 257.06 C 1343.52 261.91 1348.12 265.20 1352.03 267.04 C 1360.14 270.41 1368.80 272.37 1376.74 276.22 C 1382.89 279.36 1389.21 283.20 1392.65 289.44 C 1396.50 295.57 1396.65 303.10 1395.84 310.08 C 1394.09 321.84 1386.23 332.43 1375.58 337.67 C 1359.52 345.58 1339.06 342.99 1325.22 331.74 C 1318.24 326.35 1312.74 319.08 1309.38 310.93 C 1316.98 306.76 1324.75 302.90 1332.28 298.61 C 1334.43 304.24 1337.47 309.87 1342.46 313.46 C 1348.44 318.02 1357.04 319.27 1363.86 315.88 C 1370.31 312.74 1371.43 301.86 1364.96 298.14 C 1358.71 294.00 1351.26 292.38 1344.40 289.57 C 1335.65 286.31 1326.54 281.86 1321.54 273.58 C 1313.39 260.09 1317.03 241.03 1329.41 231.31 Z" />
</g>
<g id="#004e7eff">
<path fill="#004e7e" opacity="1.00" d=" M 279.75 0.00 L 288.26 0.00 C 301.02 1.24 312.40 8.91 319.86 19.10 C 326.69 28.11 330.84 38.76 334.50 49.37 C 341.23 69.31 344.55 90.27 345.86 111.22 C 343.84 117.31 345.46 123.78 345.22 130.04 C 345.67 136.26 343.91 142.64 345.85 148.71 C 345.11 158.82 343.89 168.90 342.18 178.88 C 340.80 186.71 338.38 194.87 332.47 200.52 C 327.80 205.32 320.62 207.76 314.07 205.92 C 308.45 204.62 304.31 199.77 302.55 194.46 C 300.49 188.88 300.87 182.84 301.12 177.01 C 302.21 165.32 303.75 153.66 304.31 141.92 C 305.11 132.11 305.29 122.16 303.47 112.44 C 302.30 107.20 300.04 101.70 295.36 98.66 C 290.40 94.98 283.28 94.88 277.96 97.86 C 270.72 101.75 265.42 108.30 260.97 115.05 C 254.47 125.19 250.09 136.49 245.78 147.69 C 239.52 164.79 234.36 182.26 228.78 199.58 C 224.43 212.71 217.26 225.40 206.07 233.85 C 196.04 241.52 183.41 244.83 171.01 245.94 C 162.64 246.39 154.09 246.50 145.97 244.10 C 129.89 239.73 116.65 227.98 108.10 213.95 C 98.09 197.45 88.72 180.57 79.09 163.85 C 74.88 156.58 71.01 148.96 65.24 142.76 C 62.17 139.49 57.73 136.64 53.06 137.68 C 47.86 138.40 43.70 142.74 42.56 147.77 C 40.52 156.20 41.67 165.00 43.37 173.38 C 47.00 190.42 53.26 206.73 57.66 223.55 C 59.22 230.24 61.02 237.34 59.01 244.13 C 57.65 249.09 53.90 253.49 48.89 254.99 C 41.83 257.17 33.46 254.97 28.69 249.23 C 22.86 242.26 19.70 233.62 16.62 225.20 C 7.83 200.51 1.64 174.75 0.00 148.55 L 0.00 130.75 C 1.59 109.11 5.45 87.30 14.47 67.43 C 21.04 53.13 31.43 39.59 46.33 33.40 C 57.64 28.58 70.89 28.07 82.45 32.32 C 92.55 36.09 100.01 44.23 107.25 51.87 C 118.08 65.32 127.29 79.98 136.40 94.63 C 141.65 103.64 148.07 112.23 156.73 118.24 C 164.24 123.40 174.10 125.63 182.88 122.57 C 193.17 119.64 200.05 110.41 203.90 100.89 C 212.82 79.54 220.82 57.79 230.86 36.92 C 240.18 17.99 258.22 2.25 279.75 0.00 Z" />
</g>
<g id="#01da95ff">
<path fill="#01da95" opacity="1.00" d=" M 443.21 95.14 C 470.16 95.28 497.10 94.68 524.04 95.16 C 886.38 95.15 1248.72 95.17 1611.05 95.15 C 1619.92 94.94 1629.31 95.21 1637.19 99.80 C 1646.94 104.92 1653.78 114.68 1656.00 125.39 L 1656.00 393.39 C 1653.28 408.11 1641.15 420.32 1626.41 423.00 L 472.94 423.00 C 461.13 420.42 450.67 412.09 446.10 400.82 C 442.84 393.68 443.00 385.68 443.15 378.00 C 443.15 346.00 443.15 314.00 443.15 282.00 C 443.34 219.71 442.77 157.43 443.21 95.14 M 1130.00 196.23 C 1130.04 205.84 1129.96 215.45 1130.03 225.05 C 1124.02 224.96 1118.01 225.02 1112.01 225.01 C 1112.01 233.18 1111.98 241.36 1112.02 249.54 C 1118.03 249.50 1124.04 249.46 1130.06 249.45 C 1129.93 266.65 1130.05 283.84 1129.99 301.04 C 1129.87 307.66 1131.15 314.30 1133.59 320.44 C 1137.23 329.46 1144.90 336.75 1154.18 339.74 C 1164.91 343.23 1176.76 342.91 1187.52 339.69 C 1187.49 331.09 1187.45 322.49 1187.55 313.89 C 1180.55 317.52 1171.57 319.76 1164.34 315.48 C 1159.47 312.09 1158.63 305.55 1158.53 300.04 C 1158.42 283.19 1158.51 266.33 1158.49 249.48 C 1168.60 249.47 1178.73 249.45 1188.85 249.51 C 1188.89 241.35 1188.75 233.19 1188.93 225.04 C 1178.77 224.96 1168.61 225.03 1158.46 225.00 C 1158.51 209.44 1158.47 193.89 1158.49 178.33 C 1148.93 184.20 1139.45 190.19 1130.00 196.23 M 1476.07 191.14 C 1467.59 198.78 1462.90 209.85 1461.92 221.10 C 1470.88 222.74 1479.80 224.59 1488.78 226.11 C 1489.81 218.07 1493.87 209.46 1501.93 206.49 C 1510.45 203.24 1522.39 205.51 1526.56 214.39 C 1530.18 221.96 1529.66 230.99 1526.69 238.69 C 1523.60 246.91 1517.66 253.54 1512.42 260.43 C 1494.79 283.20 1477.21 306.02 1459.51 328.74 C 1459.48 332.55 1459.48 336.36 1459.52 340.17 C 1493.52 340.12 1527.53 340.15 1561.53 340.16 C 1561.44 331.26 1561.46 322.36 1561.50 313.47 C 1542.92 313.60 1524.35 313.49 1505.77 313.52 C 1514.84 301.08 1524.46 289.02 1533.74 276.74 C 1540.31 267.94 1547.81 259.66 1552.51 249.64 C 1559.70 234.39 1560.27 215.64 1552.34 200.57 C 1547.00 190.61 1537.30 183.32 1526.40 180.49 C 1509.30 175.95 1489.25 178.57 1476.07 191.14 M 525.00 180.09 C 525.04 233.47 524.92 286.85 525.07 340.23 C 543.72 340.01 562.38 340.25 581.04 340.11 C 602.62 339.15 624.11 328.44 636.23 310.26 C 647.72 293.31 650.94 272.05 649.58 251.96 C 648.46 236.49 644.12 220.88 634.79 208.29 C 624.69 194.29 608.79 185.06 591.96 181.84 C 580.80 179.50 569.36 180.29 558.05 180.17 C 547.03 180.12 536.02 180.26 525.00 180.09 M 681.21 234.25 C 668.62 244.13 661.94 259.91 660.38 275.55 C 658.76 291.66 662.53 308.68 672.20 321.82 C 680.01 332.75 692.63 339.77 705.86 341.54 C 720.96 343.45 737.42 341.46 749.95 332.17 C 757.50 326.32 763.70 318.45 767.13 309.52 C 759.37 307.06 751.79 304.04 744.20 301.12 C 741.29 305.73 738.09 310.44 733.29 313.26 C 723.00 319.94 708.18 319.34 698.84 311.21 C 693.36 306.33 690.64 299.09 689.81 291.95 C 716.28 292.04 742.76 291.94 769.23 292.00 C 769.13 288.33 769.13 284.66 769.15 281.00 C 769.56 264.87 763.64 248.41 752.16 236.94 C 743.82 228.88 732.52 224.27 721.03 223.38 C 707.11 222.21 692.20 225.22 681.21 234.25 M 812.71 236.10 C 812.88 232.41 812.85 228.72 812.91 225.03 C 803.29 224.97 793.68 225.04 784.07 225.00 C 784.19 279.00 784.22 333.00 784.05 387.00 C 793.66 387.00 803.26 387.00 812.86 386.99 C 812.76 368.08 813.02 349.16 812.72 330.25 C 820.29 338.58 831.88 342.78 843.02 342.13 C 855.58 341.84 868.63 337.67 877.44 328.36 C 889.27 316.60 893.22 299.16 893.10 282.98 C 893.29 266.71 889.42 249.27 877.80 237.24 C 868.16 227.08 853.74 223.00 840.06 223.11 C 829.68 223.32 819.05 227.65 812.71 236.10 M 952.57 223.68 C 940.15 225.00 927.92 230.19 919.16 239.24 C 909.79 248.35 904.66 261.12 903.10 273.95 C 902.51 283.99 902.47 294.32 905.84 303.93 C 910.23 318.19 920.57 330.64 934.29 336.72 C 947.19 342.54 961.97 343.44 975.76 340.79 C 990.03 337.92 1003.23 329.35 1010.77 316.78 C 1019.97 301.74 1021.89 282.98 1017.93 265.98 C 1014.99 253.33 1007.79 241.49 997.15 233.88 C 984.41 224.72 967.95 221.77 952.57 223.68 M 1091.75 223.68 C 1080.12 225.62 1069.95 233.39 1063.99 243.43 C 1064.01 237.29 1063.99 231.15 1063.99 225.01 C 1054.48 225.04 1044.96 224.95 1035.45 225.06 C 1035.59 263.44 1035.31 301.83 1035.59 340.21 C 1045.05 340.07 1054.52 340.17 1063.99 340.16 C 1064.00 330.10 1063.99 320.04 1064.00 309.98 C 1063.89 296.66 1063.65 282.94 1068.23 270.23 C 1070.33 264.04 1073.76 258.08 1079.02 254.06 C 1086.79 247.79 1098.46 247.04 1107.04 252.11 C 1106.68 242.78 1106.90 233.43 1106.90 224.10 C 1101.93 223.09 1096.76 222.70 1091.75 223.68 M 1233.05 225.13 C 1222.22 228.06 1212.20 234.53 1205.73 243.77 C 1197.34 255.31 1193.39 269.80 1193.84 283.99 C 1193.86 303.50 1202.57 323.91 1219.55 334.46 C 1231.37 341.82 1245.87 343.26 1259.44 341.57 C 1268.02 340.45 1276.46 337.48 1283.45 332.30 C 1291.35 326.70 1296.80 318.42 1301.04 309.86 C 1293.41 306.82 1285.59 304.30 1278.01 301.17 C 1274.36 306.69 1270.07 312.11 1263.96 315.02 C 1254.98 319.10 1243.91 318.78 1235.50 313.46 C 1228.43 308.73 1224.06 300.44 1223.74 291.99 C 1250.15 291.97 1276.55 292.01 1302.96 291.97 C 1302.91 284.31 1303.44 276.58 1301.99 269.01 C 1299.69 255.71 1293.29 242.80 1282.67 234.22 C 1269.04 223.02 1249.77 220.94 1233.05 225.13 M 1329.41 231.31 C 1317.03 241.03 1313.39 260.09 1321.54 273.58 C 1326.54 281.86 1335.65 286.31 1344.40 289.57 C 1351.26 292.38 1358.71 294.00 1364.96 298.14 C 1371.43 301.86 1370.31 312.74 1363.86 315.88 C 1357.04 319.27 1348.44 318.02 1342.46 313.46 C 1337.47 309.87 1334.43 304.24 1332.28 298.61 C 1324.75 302.90 1316.98 306.76 1309.38 310.93 C 1312.74 319.08 1318.24 326.35 1325.22 331.74 C 1339.06 342.99 1359.52 345.58 1375.58 337.67 C 1386.23 332.43 1394.09 321.84 1395.84 310.08 C 1396.65 303.10 1396.50 295.57 1392.65 289.44 C 1389.21 283.20 1382.89 279.36 1376.74 276.22 C 1368.80 272.37 1360.14 270.41 1352.03 267.04 C 1348.12 265.20 1343.52 261.91 1343.86 257.06 C 1343.42 252.05 1348.11 247.66 1353.01 247.85 C 1361.07 247.05 1368.55 251.73 1373.42 257.83 C 1378.94 252.44 1384.73 247.35 1390.45 242.17 C 1378.20 222.22 1347.81 216.80 1329.41 231.31 Z" />
<path fill="#01da95" opacity="1.00" d=" M 554.99 208.00 C 563.35 208.18 571.81 207.37 580.08 209.06 C 591.77 211.05 603.48 216.60 610.30 226.65 C 618.68 238.54 620.25 253.84 619.04 267.97 C 618.17 281.85 612.04 296.14 600.05 303.90 C 586.85 312.82 570.29 313.00 554.96 312.94 C 555.05 277.96 554.98 242.98 554.99 208.00 Z" />
<path fill="#01da95" opacity="1.00" d=" M 706.27 249.36 C 713.41 246.74 722.02 247.10 728.56 251.21 C 734.94 255.16 738.11 262.37 740.13 269.30 C 723.68 269.04 707.21 269.12 690.76 269.26 C 692.27 260.68 698.05 252.62 706.27 249.36 Z" />
<path fill="#01da95" opacity="1.00" d=" M 830.36 248.39 C 837.76 246.86 846.16 247.90 851.91 253.18 C 859.51 259.41 862.58 269.50 863.08 279.00 C 863.64 288.60 862.29 298.77 856.78 306.88 C 852.81 313.31 845.46 317.17 838.04 317.79 C 828.15 318.46 818.67 312.31 814.52 303.44 C 809.39 292.25 808.93 279.14 812.38 267.40 C 814.83 258.68 821.37 250.74 830.36 248.39 Z" />
<path fill="#01da95" opacity="1.00" d=" M 954.36 248.45 C 960.23 247.46 966.62 247.26 972.14 249.85 C 979.08 252.91 984.11 259.22 986.86 266.15 C 991.41 277.75 990.85 291.18 985.49 302.41 C 982.01 308.74 976.54 314.42 969.44 316.48 C 959.83 319.72 948.46 316.81 941.69 309.23 C 935.55 302.35 932.86 293.00 932.60 283.93 C 932.46 275.37 934.25 266.47 939.23 259.37 C 942.74 254.08 948.20 250.05 954.36 248.45 Z" />
<path fill="#01da95" opacity="1.00" d=" M 1243.22 248.28 C 1249.06 247.49 1255.46 247.30 1260.74 250.36 C 1267.81 254.09 1271.93 261.58 1273.63 269.16 C 1257.20 269.13 1240.78 269.22 1224.37 269.11 C 1226.35 259.47 1233.28 250.47 1243.22 248.28 Z" />
</g>
<g id="#02386dff">
<path fill="#02386d" opacity="1.00" d=" M 345.22 130.04 C 345.46 123.78 343.84 117.31 345.86 111.22 C 346.51 123.71 346.77 136.22 345.85 148.71 C 343.91 142.64 345.67 136.26 345.22 130.04 Z" />
</g>
</svg>
