<?xml version="1.0" encoding="UTF-8" ?>
<!DOCTYPE svg PUBLIC "-//W3C//DTD SVG 1.1//EN" "http://www.w3.org/Graphics/SVG/1.1/DTD/svg11.dtd">
<svg width="536pt" height="155pt" viewBox="0 0 536 155" version="1.1" xmlns="http://www.w3.org/2000/svg">
<g id="#396885d5">
<path fill="#396885" opacity="0.84" d=" M 100.43 0.00 L 102.34 0.00 C 101.96 0.26 101.19 0.77 100.81 1.03 L 99.96 0.63 L 100.43 0.00 Z" />
</g>
<g id="#004e7eff">
<path fill="#004e7e" opacity="1.00" d=" M 102.34 0.00 L 106.44 0.00 C 106.53 0.01 106.70 0.04 106.79 0.05 C 114.49 1.97 119.31 9.03 121.66 16.18 C 126.88 31.13 127.77 47.42 125.49 63.04 C 124.93 66.93 124.15 71.28 120.93 73.92 C 118.54 76.05 114.41 76.22 112.18 73.76 C 109.88 71.47 110.05 67.96 110.16 64.96 C 110.67 57.31 112.06 49.61 111.13 41.93 C 110.82 38.34 107.97 34.47 103.99 35.05 C 99.54 35.89 96.67 39.96 94.49 43.60 C 89.42 53.05 86.79 63.53 83.43 73.65 C 81.28 80.06 76.75 86.10 70.16 88.35 C 64.42 90.27 58.01 90.83 52.19 88.93 C 46.61 87.07 42.21 82.75 39.22 77.80 C 34.91 70.67 30.91 63.35 26.72 56.14 C 25.22 53.85 23.65 51.11 20.84 50.32 C 17.62 49.80 15.13 53.03 15.24 56.02 C 14.77 66.45 20.49 75.79 21.81 85.94 C 22.58 89.58 19.86 93.83 15.90 93.60 C 11.93 93.88 9.43 90.26 7.96 87.07 C 3.82 77.74 1.73 67.68 0.00 57.67 L 0.00 44.86 C 1.94 33.75 4.04 20.85 13.92 13.85 C 19.95 9.70 28.82 9.53 34.49 14.41 C 42.32 20.91 46.77 30.31 52.47 38.53 C 55.66 42.89 61.22 46.82 66.83 44.90 C 70.98 43.65 73.41 39.76 74.95 35.96 C 78.09 28.41 80.89 20.71 84.47 13.36 C 87.59 7.30 93.02 1.84 99.96 0.63 L 100.81 1.03 C 101.19 0.77 101.96 0.26 102.34 0.00 Z" />
</g>
<g id="#4e7b96de">
<path fill="#4e7b96" opacity="0.87" d=" M 106.44 0.00 L 106.67 0.00 L 106.79 0.05 C 106.70 0.04 106.53 0.01 106.44 0.00 Z" />
</g>
<g id="#01da95ff">
<path fill="#01da95" opacity="1.00" d=" M 162.14 34.81 C 282.09 34.83 402.04 34.78 521.99 34.84 C 528.30 34.60 534.58 39.31 535.43 45.70 L 534.98 46.56 C 535.24 46.94 535.75 47.68 536.00 48.06 L 536.00 143.10 C 535.02 148.12 531.60 152.45 526.80 154.32 C 509.23 153.67 491.62 154.20 474.03 154.03 C 378.34 154.00 282.65 153.99 186.97 154.00 C 182.31 154.04 177.65 154.04 173.01 153.78 C 172.72 154.09 172.15 154.70 171.86 155.00 L 171.34 155.00 C 166.91 151.92 161.87 148.09 162.15 142.03 C 162.12 106.29 162.10 70.55 162.14 34.81 M 192.10 66.13 C 192.13 76.42 192.23 86.71 191.91 97.00 C 191.81 106.14 192.41 115.29 191.87 124.43 C 200.86 124.08 210.10 125.54 218.91 123.22 C 227.12 120.98 233.78 114.23 236.02 106.03 C 238.49 97.22 238.12 87.28 233.83 79.09 C 229.66 71.17 220.86 66.25 212.01 66.15 C 205.37 66.09 198.74 66.15 192.10 66.13 M 409.56 71.89 C 409.59 75.40 409.59 78.91 409.61 82.42 C 407.42 82.43 405.23 82.44 403.05 82.48 C 403.13 85.42 403.16 88.37 403.21 91.32 C 405.35 91.29 407.49 91.26 409.63 91.26 C 409.58 97.52 409.56 103.78 409.59 110.04 C 409.64 114.54 411.03 119.45 414.82 122.24 C 419.26 125.70 425.30 125.50 430.53 124.36 C 430.59 121.27 430.59 118.19 430.63 115.10 C 427.22 116.62 421.64 117.44 420.32 112.84 C 419.33 105.72 420.01 98.43 419.96 91.25 C 423.61 91.26 427.26 91.27 430.91 91.26 C 430.87 88.30 430.86 85.34 430.85 82.38 C 427.19 82.44 423.52 82.44 419.86 82.41 C 419.90 76.71 419.75 71.01 419.99 65.31 C 416.50 67.48 413.03 69.68 409.56 71.89 M 245.16 89.03 C 238.47 98.21 239.13 112.46 247.53 120.37 C 253.68 125.87 263.09 126.34 270.47 123.22 C 274.71 121.34 277.47 117.44 279.86 113.64 C 277.15 112.42 274.38 111.34 271.61 110.28 C 269.16 113.72 265.56 116.81 261.04 116.35 C 255.70 116.42 251.79 111.68 251.21 106.68 C 260.97 106.67 270.73 106.67 280.49 106.66 C 280.80 100.27 279.88 93.40 275.64 88.34 C 268.28 79.08 252.12 79.54 245.16 89.03 M 285.31 82.42 C 285.47 102.13 285.26 121.84 285.42 141.54 C 288.81 141.46 292.21 141.45 295.62 141.48 C 295.52 134.62 295.65 127.77 295.51 120.91 C 303.46 128.34 317.93 125.45 322.48 115.61 C 325.80 108.34 325.79 99.50 322.90 92.09 C 318.83 81.61 303.44 78.03 295.45 86.17 C 295.51 85.23 295.62 83.36 295.67 82.42 C 292.22 82.42 288.77 82.42 285.31 82.42 M 342.39 82.61 C 338.47 83.78 334.85 86.10 332.35 89.36 C 325.10 99.00 326.60 115.03 337.09 121.79 C 345.76 127.16 358.46 126.18 365.42 118.42 C 372.65 109.83 372.46 95.53 364.51 87.46 C 358.82 81.83 349.90 80.55 342.39 82.61 M 375.67 82.51 C 375.83 96.49 375.70 110.48 375.76 124.46 C 379.14 124.47 382.53 124.47 385.92 124.48 C 386.63 115.20 384.45 105.25 388.57 96.54 C 390.76 91.66 396.82 89.58 401.65 91.79 C 401.53 88.44 401.53 85.08 401.53 81.72 C 395.26 80.74 389.53 84.10 385.87 88.97 C 385.87 86.78 385.90 84.60 385.91 82.41 C 382.49 82.40 379.08 82.40 375.67 82.51 M 438.73 86.74 C 429.74 95.61 429.93 112.17 439.38 120.64 C 449.04 128.88 466.51 125.65 471.20 113.34 C 468.46 112.34 465.72 111.35 463.00 110.33 C 460.34 114.95 454.65 117.71 449.46 115.78 C 445.44 114.57 443.45 110.54 442.67 106.73 C 452.41 106.62 462.16 106.69 471.91 106.69 C 472.32 99.72 471.18 92.11 465.97 87.01 C 458.85 79.90 446.03 79.91 438.73 86.74 M 481.98 84.02 C 476.42 87.48 474.70 95.89 478.90 101.04 C 482.38 105.25 488.10 106.03 492.78 108.28 C 494.54 109.03 496.29 110.84 495.59 112.92 C 494.86 116.19 490.78 116.99 488.02 115.97 C 484.96 115.03 483.26 112.12 481.88 109.46 C 479.10 110.91 476.34 112.38 473.60 113.90 C 477.28 121.77 486.48 127.19 495.12 124.47 C 502.80 122.71 507.96 113.19 504.10 106.05 C 500.62 100.35 493.34 99.98 487.98 97.04 C 485.52 95.75 485.65 92.09 488.09 90.84 C 491.49 89.57 494.79 91.76 497.10 94.08 C 499.17 92.22 501.24 90.36 503.33 88.51 C 498.75 81.85 488.83 79.50 481.98 84.02 Z" />
<path fill="#01da95" opacity="1.00" d=" M 202.80 75.77 C 208.95 75.89 215.81 75.96 220.76 80.18 C 225.82 84.47 227.00 91.62 226.46 97.91 C 226.06 103.31 223.62 108.96 218.70 111.68 C 213.94 114.58 208.18 114.53 202.79 114.50 C 202.80 101.59 202.78 88.68 202.80 75.77 Z" />
<path fill="#01da95" opacity="1.00" d=" M 300.37 91.47 C 304.44 89.21 309.93 90.99 312.17 95.00 C 315.29 100.70 315.18 108.64 310.73 113.63 C 307.03 117.85 299.59 116.90 296.87 112.04 C 293.23 105.71 293.62 95.58 300.37 91.47 Z" />
<path fill="#01da95" opacity="1.00" d=" M 345.23 91.34 C 350.67 88.65 357.47 92.29 358.96 98.01 C 361.79 105.27 358.10 116.52 349.06 116.33 C 336.88 115.73 335.10 96.27 345.23 91.34 Z" />
</g>
<g id="#4dcba1e3">
<path fill="#4dcba1" opacity="0.89" d=" M 535.43 45.70 L 536.00 46.19 L 536.00 48.06 C 535.75 47.68 535.24 46.94 534.98 46.56 L 535.43 45.70 Z" />
</g>
<g id="#ffffffff">
<path fill="#ffffff" opacity="1.00" d=" M 192.10 66.13 C 198.74 66.15 205.37 66.09 212.01 66.15 C 220.86 66.25 229.66 71.17 233.83 79.09 C 238.12 87.28 238.49 97.22 236.02 106.03 C 233.78 114.23 227.12 120.98 218.91 123.22 C 210.10 125.54 200.86 124.08 191.87 124.43 C 192.41 115.29 191.81 106.14 191.91 97.00 C 192.23 86.71 192.13 76.42 192.10 66.13 M 202.80 75.77 C 202.78 88.68 202.80 101.59 202.79 114.50 C 208.18 114.53 213.94 114.58 218.70 111.68 C 223.62 108.96 226.06 103.31 226.46 97.91 C 227.00 91.62 225.82 84.47 220.76 80.18 C 215.81 75.96 208.95 75.89 202.80 75.77 Z" />
<path fill="#ffffff" opacity="1.00" d=" M 409.56 71.89 C 413.03 69.68 416.50 67.48 419.99 65.31 C 419.75 71.01 419.90 76.71 419.86 82.41 C 423.52 82.44 427.19 82.44 430.85 82.38 C 430.86 85.34 430.87 88.30 430.91 91.26 C 427.26 91.27 423.61 91.26 419.96 91.25 C 420.01 98.43 419.33 105.72 420.32 112.84 C 421.64 117.44 427.22 116.62 430.63 115.10 C 430.59 118.19 430.59 121.27 430.53 124.36 C 425.30 125.50 419.26 125.70 414.82 122.24 C 411.03 119.45 409.64 114.54 409.59 110.04 C 409.56 103.78 409.58 97.52 409.63 91.26 C 407.49 91.26 405.35 91.29 403.21 91.32 C 403.16 88.37 403.13 85.42 403.05 82.48 C 405.23 82.44 407.42 82.43 409.61 82.42 C 409.59 78.91 409.59 75.40 409.56 71.89 Z" />
<path fill="#ffffff" opacity="1.00" d=" M 245.16 89.03 C 252.12 79.54 268.28 79.08 275.64 88.34 C 279.88 93.40 280.80 100.27 280.49 106.66 C 270.73 106.67 260.97 106.67 251.21 106.68 C 251.79 111.68 255.70 116.42 261.04 116.35 C 265.56 116.81 269.16 113.72 271.61 110.28 C 274.38 111.34 277.15 112.42 279.86 113.64 C 277.47 117.44 274.71 121.34 270.47 123.22 C 263.09 126.34 253.68 125.87 247.53 120.37 C 239.13 112.46 238.47 98.21 245.16 89.03 M 251.36 98.46 C 257.59 98.70 263.82 98.53 270.05 98.53 C 268.96 94.36 265.69 90.23 260.97 90.49 C 256.14 90.16 252.86 94.38 251.36 98.46 Z" />
<path fill="#ffffff" opacity="1.00" d=" M 285.31 82.42 C 288.77 82.42 292.22 82.42 295.67 82.42 C 295.62 83.36 295.51 85.23 295.45 86.17 C 303.44 78.03 318.83 81.61 322.90 92.09 C 325.79 99.50 325.80 108.34 322.48 115.61 C 317.93 125.45 303.46 128.34 295.51 120.91 C 295.65 127.77 295.52 134.62 295.62 141.48 C 292.21 141.45 288.81 141.46 285.42 141.54 C 285.26 121.84 285.47 102.13 285.31 82.42 M 300.37 91.47 C 293.62 95.58 293.23 105.71 296.87 112.04 C 299.59 116.90 307.03 117.85 310.73 113.63 C 315.18 108.64 315.29 100.70 312.17 95.00 C 309.93 90.99 304.44 89.21 300.37 91.47 Z" />
<path fill="#ffffff" opacity="1.00" d=" M 342.39 82.61 C 349.90 80.55 358.82 81.83 364.51 87.46 C 372.46 95.53 372.65 109.83 365.42 118.42 C 358.46 126.18 345.76 127.16 337.09 121.79 C 326.60 115.03 325.10 99.00 332.35 89.36 C 334.85 86.10 338.47 83.78 342.39 82.61 M 345.23 91.34 C 335.10 96.27 336.88 115.73 349.06 116.33 C 358.10 116.52 361.79 105.27 358.96 98.01 C 357.47 92.29 350.67 88.65 345.23 91.34 Z" />
<path fill="#ffffff" opacity="1.00" d=" M 375.67 82.51 C 379.08 82.40 382.49 82.40 385.91 82.41 C 385.90 84.60 385.87 86.78 385.87 88.97 C 389.53 84.10 395.26 80.74 401.53 81.72 C 401.53 85.08 401.53 88.44 401.65 91.79 C 396.82 89.58 390.76 91.66 388.57 96.54 C 384.45 105.25 386.63 115.20 385.92 124.48 C 382.53 124.47 379.14 124.47 375.76 124.46 C 375.70 110.48 375.83 96.49 375.67 82.51 Z" />
<path fill="#ffffff" opacity="1.00" d=" M 438.73 86.74 C 446.03 79.91 458.85 79.90 465.97 87.01 C 471.18 92.11 472.32 99.72 471.91 106.69 C 462.16 106.69 452.41 106.62 442.67 106.73 C 443.45 110.54 445.44 114.57 449.46 115.78 C 454.65 117.71 460.34 114.95 463.00 110.33 C 465.72 111.35 468.46 112.34 471.20 113.34 C 466.51 125.65 449.04 128.88 439.38 120.64 C 429.93 112.17 429.74 95.61 438.73 86.74 M 443.01 98.56 C 449.23 98.53 455.46 98.69 461.69 98.49 C 460.34 94.59 457.54 90.44 452.92 90.51 C 447.96 89.97 444.18 94.12 443.01 98.56 Z" />
<path fill="#ffffff" opacity="1.00" d=" M 481.98 84.02 C 488.83 79.50 498.75 81.85 503.33 88.51 C 501.24 90.36 499.17 92.22 497.10 94.08 C 494.79 91.76 491.49 89.57 488.09 90.84 C 485.65 92.09 485.52 95.75 487.98 97.04 C 493.34 99.98 500.62 100.35 504.10 106.05 C 507.96 113.19 502.80 122.71 495.12 124.47 C 486.48 127.19 477.28 121.77 473.60 113.90 C 476.34 112.38 479.10 110.91 481.88 109.46 C 483.26 112.12 484.96 115.03 488.02 115.97 C 490.78 116.99 494.86 116.19 495.59 112.92 C 496.29 110.84 494.54 109.03 492.78 108.28 C 488.10 106.03 482.38 105.25 478.90 101.04 C 474.70 95.89 476.42 87.48 481.98 84.02 Z" />
</g>
<g id="#00da95ff">
<path fill="#00da95" opacity="1.00" d=" M 251.36 98.46 C 252.86 94.38 256.14 90.16 260.97 90.49 C 265.69 90.23 268.96 94.36 270.05 98.53 C 263.82 98.53 257.59 98.70 251.36 98.46 Z" />
<path fill="#00da95" opacity="1.00" d=" M 443.01 98.56 C 444.18 94.12 447.96 89.97 452.92 90.51 C 457.54 90.44 460.34 94.59 461.69 98.49 C 455.46 98.69 449.23 98.53 443.01 98.56 Z" />
</g>
<g id="#009566b1">
<path fill="#009566" opacity="0.69" d=" M 171.86 155.00 C 172.15 154.70 172.72 154.09 173.01 153.78 C 177.65 154.04 182.31 154.04 186.97 154.00 C 282.65 153.99 378.34 154.00 474.03 154.03 C 491.62 154.20 509.23 153.67 526.80 154.32 L 525.38 155.00 L 171.86 155.00 Z" />
</g>
</svg>
