<?xml version="1.0" encoding="UTF-8" ?>
<!DOCTYPE svg PUBLIC "-//W3C//DTD SVG 1.1//EN" "http://www.w3.org/Graphics/SVG/1.1/DTD/svg11.dtd">
<svg width="603pt" height="146pt" viewBox="0 0 603 146" version="1.1" xmlns="http://www.w3.org/2000/svg">
<g id="#ffffffff">
<path fill="#ffffff" opacity="1.00" d=" M 201.92 49.97 C 207.92 42.71 216.65 37.77 226.01 36.62 C 235.40 35.97 245.27 38.34 252.53 44.54 C 256.95 48.29 260.99 52.95 262.84 58.52 C 240.90 58.57 218.96 58.38 197.03 58.62 C 197.40 55.18 199.90 52.58 201.92 49.97 Z" />
<path fill="#ffffff" opacity="1.00" d=" M 376.30 37.44 C 385.60 35.51 395.71 37.13 403.60 42.52 C 412.63 48.27 419.01 58.19 419.86 68.93 C 421.15 78.05 417.93 87.26 412.66 94.63 C 405.73 103.72 394.33 109.03 382.95 108.85 C 372.26 108.32 361.81 103.16 355.31 94.59 C 350.02 87.24 346.91 78.04 348.14 68.93 C 349.28 53.72 361.59 40.67 376.30 37.44 Z" />
</g>
<g id="#e4c723ff">
<path fill="#e4c723" opacity="1.00" d=" M 72.38 0.00 L 74.68 0.00 C 98.20 0.74 121.07 13.36 133.73 33.27 C 138.57 40.39 141.35 48.58 143.81 56.76 L 142.62 56.50 C 142.91 56.65 143.50 56.96 143.80 57.12 C 144.69 62.04 145.31 67.03 145.26 72.04 C 145.25 95.08 145.29 118.13 145.26 141.16 C 145.60 143.06 143.08 142.32 142.05 142.56 C 130.99 142.50 119.93 142.52 108.86 142.52 C 108.62 118.68 108.87 94.82 108.76 70.98 C 108.35 52.86 92.13 36.88 74.02 36.69 C 58.39 35.71 43.20 46.53 38.43 61.34 C 36.55 66.68 36.47 72.42 36.48 78.02 C 36.55 99.51 36.42 121.00 36.55 142.50 C 24.37 142.56 12.18 142.50 0.00 142.53 L 0.00 69.39 C 1.14 51.55 8.36 33.87 21.37 21.41 C 34.55 7.68 53.48 0.32 72.38 0.00 Z" />
<path fill="#e4c723" opacity="1.00" d=" M 229.37 0.00 L 234.63 0.00 C 241.28 0.58 247.98 1.46 254.30 3.67 C 270.59 9.15 284.40 21.29 292.41 36.44 C 299.83 49.61 303.07 64.97 302.46 80.02 C 302.14 82.92 302.05 86.04 300.59 88.64 C 296.43 89.38 292.19 88.88 288.00 88.99 C 257.77 89.05 227.54 88.88 197.31 89.08 C 200.20 93.64 203.32 98.09 207.02 102.03 C 211.27 106.32 216.68 109.23 222.24 111.48 C 222.53 111.25 223.11 110.78 223.41 110.55 C 223.43 110.90 223.46 111.62 223.48 111.97 C 232.98 112.80 242.74 112.90 251.96 110.14 C 259.29 108.10 265.71 103.87 272.34 100.29 C 278.46 109.75 284.70 119.12 290.81 128.58 C 275.11 140.95 254.58 145.00 235.02 145.64 C 210.38 146.62 185.58 134.95 170.83 115.16 C 150.36 87.59 153.56 45.21 178.16 21.19 C 191.53 7.64 210.55 0.68 229.37 0.00 M 201.92 49.97 C 199.90 52.58 197.40 55.18 197.03 58.62 C 218.96 58.38 240.90 58.57 262.84 58.52 C 260.99 52.95 256.95 48.29 252.53 44.54 C 245.27 38.34 235.40 35.97 226.01 36.62 C 216.65 37.77 207.92 42.71 201.92 49.97 Z" />
<path fill="#e4c723" opacity="1.00" d=" M 382.39 0.00 L 385.64 0.00 C 400.11 0.62 414.58 5.02 426.28 13.70 C 439.53 22.86 448.97 36.86 453.74 52.13 C 458.03 66.93 457.61 83.09 452.31 97.57 C 445.78 115.51 431.92 130.79 414.44 138.57 C 396.41 147.12 374.66 147.55 356.30 139.76 C 341.07 133.67 328.19 122.07 320.33 107.69 C 312.48 93.79 309.97 77.22 312.22 61.50 C 314.74 46.08 322.13 31.33 333.52 20.56 C 346.44 7.80 364.31 0.61 382.39 0.00 M 376.30 37.44 C 361.59 40.67 349.28 53.72 348.14 68.93 C 346.91 78.04 350.02 87.24 355.31 94.59 C 361.81 103.16 372.26 108.32 382.95 108.85 C 394.33 109.03 405.73 103.72 412.66 94.63 C 417.93 87.26 421.15 78.05 419.86 68.93 C 419.01 58.19 412.63 48.27 403.60 42.52 C 395.71 37.13 385.60 35.51 376.30 37.44 Z" />
<path fill="#e4c723" opacity="1.00" d=" M 462.74 0.00 L 467.61 0.00 C 485.02 1.19 502.45 6.86 516.27 17.72 C 522.64 22.81 528.23 28.85 532.96 35.50 C 548.36 12.76 575.81 -0.08 603.00 0.12 L 603.00 36.56 C 593.01 36.81 582.93 39.80 575.27 46.39 C 566.98 53.03 561.75 63.71 562.36 74.39 C 563.02 86.34 570.65 97.23 580.99 102.97 C 587.66 106.80 595.32 108.70 603.00 108.69 L 603.00 145.19 C 575.87 145.49 547.97 132.73 532.94 109.67 C 517.41 132.25 489.95 145.82 462.63 144.76 C 462.82 132.72 462.78 120.68 462.64 108.64 C 473.64 108.50 484.92 104.73 492.77 96.80 C 499.00 90.90 503.05 82.61 503.26 73.97 C 503.87 63.45 498.72 52.97 490.66 46.34 C 482.94 39.65 472.73 36.70 462.67 36.31 C 462.81 24.21 462.69 12.10 462.74 0.00 Z" />
</g>
</svg>
