<?xml version="1.0" encoding="UTF-8" standalone="no"?>
<!-- Created with Inkscape (http://www.inkscape.org/) -->

<svg
   xmlns:dc="http://purl.org/dc/elements/1.1/"
   xmlns:cc="http://creativecommons.org/ns#"
   xmlns:rdf="http://www.w3.org/1999/02/22-rdf-syntax-ns#"
   xmlns:svg="http://www.w3.org/2000/svg"
   xmlns="http://www.w3.org/2000/svg"
   xmlns:sodipodi="http://sodipodi.sourceforge.net/DTD/sodipodi-0.dtd"
   xmlns:inkscape="http://www.inkscape.org/namespaces/inkscape"
   version="1.1"
   width="500mm"
   height="500mm"
   id="svg4689"
   inkscape:version="0.92.4 (5da689c313, 2019-01-14)"
   sodipodi:docname="nickelodeon_jr.svg">
  <metadata
     id="metadata25">
    <rdf:RDF>
      <cc:Work
         rdf:about="">
        <dc:format>image/svg+xml</dc:format>
        <dc:type
           rdf:resource="http://purl.org/dc/dcmitype/StillImage" />
        <dc:title></dc:title>
      </cc:Work>
    </rdf:RDF>
  </metadata>
  <sodipodi:namedview
     pagecolor="#ffffff"
     bordercolor="#666666"
     borderopacity="1"
     objecttolerance="10"
     gridtolerance="10"
     guidetolerance="10"
     inkscape:pageopacity="0"
     inkscape:pageshadow="2"
     inkscape:window-width="1920"
     inkscape:window-height="1017"
     id="namedview23"
     showgrid="false"
     inkscape:zoom="0.31300221"
     inkscape:cx="519.60221"
     inkscape:cy="633.93631"
     inkscape:window-x="-8"
     inkscape:window-y="-8"
     inkscape:window-maximized="1"
     inkscape:current-layer="svg4689"
     units="mm" />
  <defs
     id="defs4691">
    <inkscape:perspective
       sodipodi:type="inkscape:persp3d"
       inkscape:vp_x="0 : 28.414055 : 1"
       inkscape:vp_y="0 : 1000 : 0"
       inkscape:vp_z="215.65343 : 28.414055 : 1"
       inkscape:persp3d-origin="107.82671 : 18.942703 : 1"
       id="perspective27" />
    <clipPath
       id="clipPath650">
      <path
         d="m 276.75,138.723 h 39.788 v 10.486 H 276.75 Z"
         id="path652"
         inkscape:connector-curvature="0" />
    </clipPath>
  </defs>
  <g
     id="g833"
     transform="matrix(8.5877076,0,0,8.5877076,18.897623,-15039.846)">
    <path
       inkscape:connector-curvature="0"
       style="fill:#f57c14;fill-opacity:1;fill-rule:nonzero;stroke:none"
       id="path656"
       d="m 19.15426,1851.4374 c -5.268234,-0.01 -10.0974483,2.1571 -13.5445643,5.6097 -3.4525359,3.4417 -5.6096934358,8.2763 -5.6096934358,13.5445 v 17.4958 H 14.541845 v -7.6585 -9.5392 c 0.0054,-2.0975 0.50406,-3.8861 1.349579,-5.2736 0.856359,-1.3713 1.967458,-2.1789 3.262836,-2.1843 1.295378,0.01 2.406477,0.813 3.262836,2.1843 0.845519,1.3875 1.344159,3.1761 1.349579,5.2736 v 17.1977 h 14.541843 v -17.4958 c 0,-5.2682 -2.157158,-10.1028 -5.609694,-13.5445 -3.447116,-3.4526 -8.27633,-5.6152 -13.544564,-5.6097" />
    <path
       inkscape:connector-curvature="0"
       style="fill:#f57c14;fill-opacity:1;fill-rule:nonzero;stroke:none"
       id="path660"
       d="m 53.95387,1846.7296 c 1.463398,-1.4634 2.368537,-3.4851 2.368537,-5.7181 0,-2.2331 -0.905139,-4.2493 -2.368537,-5.7127 -1.463398,-1.4634 -3.485056,-2.3631 -5.718093,-2.3631 -2.227618,0 -4.249275,0.8997 -5.712674,2.3631 -1.463398,1.4634 -2.368537,3.4796 -2.368537,5.7127 0,2.233 0.905139,4.2547 2.368537,5.7181 l 1.783178,1.7885 c 2.980997,2.9756 3.192377,3.7669 0.35772,6.6016 l -1.620578,1.6206 c -1.333319,1.3333 -2.151738,3.1707 -2.151738,5.1978 v 26.146 h 14.693603 v -26.146 c 0,-2.0271 -0.823839,-3.8645 -2.151737,-5.1978 l -1.620579,-1.6206 c -2.834656,-2.8347 -2.623276,-3.626 0.35772,-6.607 z" />
    <path
       inkscape:connector-curvature="0"
       style="fill:#f57c14;fill-opacity:1;fill-rule:nonzero;stroke:none"
       id="path664"
       d="m 80.00074,1876.7016 c -0.861779,1.5826 -1.967458,2.5203 -3.262836,2.5203 -1.295379,0 -2.401057,-0.9377 -3.262836,-2.5203 -0.845519,-1.5989 -1.344159,-3.6694 -1.349579,-6.0921 0.0054,-2.4173 0.50406,-4.4877 1.349579,-6.0921 0.861779,-1.5772 1.967457,-2.5148 3.262836,-2.5203 1.295378,0.01 2.401057,0.9431 3.262836,2.5203 0.628719,1.1924 1.062319,2.6342 1.246599,4.2927 h 14.558103 c -0.42818,-4.5582 -2.466098,-8.6937 -5.522974,-11.7452 -3.447116,-3.4525 -8.28175,-5.6096 -13.544564,-5.6096 -5.262814,0 -10.097448,2.1571 -13.544564,5.6096 -3.452536,3.4472 -5.615114,8.2818 -5.609694,13.5446 -0.0054,5.2682 2.157158,10.1029 5.609694,13.5446 2.655796,2.6503 7.273631,5.6151 13.544564,5.6097 4.715394,0.01 9.078489,-1.729 12.411785,-4.5691 2.433578,-2.065 6.037873,-6.2059 6.655753,-12.7858 H 81.247339 c -0.18428,1.6586 -0.61788,3.1057 -1.246599,4.2927" />
    <path
       inkscape:connector-curvature="0"
       style="fill:#f57c14;fill-opacity:1;fill-rule:nonzero;stroke:none"
       id="path668"
       d="m 134.27005,1885.5438 c 0,-0.4878 -0.14634,-0.9377 -0.38482,-1.3225 l -7.96197,-12.0433 5.51213,-10.0107 c 2.03792,-3.4579 0.88888,-7.9132 -2.56907,-9.9511 -3.45796,-2.0379 -7.91319,-0.8889 -9.95653,2.5691 l -6.57987,11.7668 v -7.8427 c 0,-4.0163 -3.25742,-7.2737 -7.27364,-7.2737 -4.01079,0 -7.268208,3.2574 -7.268208,7.2737 v 29.3763 h 14.541848 v -11.5012 l 7.66929,11.4958 11.7397,-0.01 v 0 c 1.39836,0 2.53114,-1.1328 2.53114,-2.5311" />
    <path
       inkscape:connector-curvature="0"
       style="fill:#4ac3cb;fill-opacity:1;fill-rule:nonzero;stroke:none"
       id="path672"
       d="m 164.81117,1874.8745 c 0,8.8617 -4.31431,14.5852 -14.67734,14.5852 h -0.40108 c -3.62056,0 -7.41455,-0.9593 -9.78309,-2.4824 -4.11378,-2.6503 -6.79667,-7.0026 -4.08668,-11.5987 2.50946,-4.2656 11.30069,-5.0515 12.60149,2.3685 0.45528,2.5962 1.83196,2.2601 1.83196,-0.1355 l 0.005,-17.6529 c 0,-5.2737 3.25741,-8.5203 7.26821,-8.5203 4.01079,0.01 7.26279,3.252 7.26279,7.2628 l -0.0217,16.1733 z m -7.24111,-25.7179 c 3.97285,0 7.18691,-3.2194 7.18691,-7.1923 0,-3.9729 -3.21406,-7.1869 -7.18691,-7.1869 -3.97286,0 -7.19233,3.214 -7.19233,7.1869 0,3.9729 3.21947,7.1923 7.19233,7.1923" />
    <path
       inkscape:connector-curvature="0"
       style="fill:#4ac3cb;fill-opacity:1;fill-rule:nonzero;stroke:none"
       id="path676"
       d="m 182.92425,1888.0949 v -19.5553 c 0,-1.4146 0.88346,-3.794 2.5203,-4.4281 1.66936,-0.645 3.19237,0.098 5.02433,0.7804 6.02703,2.2981 10.72075,-0.7425 11.44703,-4.6828 0.7317,-3.9404 -1.87532,-7.7289 -5.81566,-8.4606 -4.84005,-0.9052 -8.25465,0.6178 -12.21124,3.6693 -0.005,0 -0.005,0.01 -0.0108,0.01 -0.28184,0.2168 -1.0298,0.8672 -1.28996,1.084 -0.93224,-2.9376 -3.68018,-5.0677 -6.92133,-5.0677 -4.0108,0 -7.26279,3.252 -7.26279,7.2574 v 29.398 h 14.52016 z" />
    <path
       inkscape:connector-curvature="0"
       style="fill:#4ac3cb;fill-opacity:1;fill-rule:nonzero;stroke:none"
       id="path680"
       d="m 195.32194,1888.4917 c 3.97286,0 7.18691,-3.2195 7.18691,-7.1923 0,-3.9729 -3.21405,-7.187 -7.18691,-7.187 -3.96744,0 -7.19233,3.2141 -7.19233,7.187 0,3.9728 3.22489,7.1923 7.19233,7.1923" />
    <path
       inkscape:connector-curvature="0"
       style="fill:#4ac3cb;fill-opacity:1;fill-rule:nonzero;stroke:none"
       id="path684"
       d="m 210.63993,1853.697 h 0.14634 l 2.36854,2.6449 2.34685,-2.6449 h 0.15176 v 4.9647 h -0.88887 v -3.0732 l -1.52844,1.8211 h -0.1626 l -1.5447,-1.8211 v 3.0732 h -0.88888 z m -3.42002,0.8401 h -1.47423 v -0.7588 h 3.84277 v 0.7588 h -1.47966 v 4.1246 h -0.88888 z" />
  </g>
</svg>
