<?xml version="1.0" encoding="UTF-8" standalone="no"?>
<!-- Generator: Adobe Illustrator 16.0.0, SVG Export Plug-In . SVG Version: 6.00 Build 0)  -->

<svg
   xmlns:dc="http://purl.org/dc/elements/1.1/"
   xmlns:cc="http://creativecommons.org/ns#"
   xmlns:rdf="http://www.w3.org/1999/02/22-rdf-syntax-ns#"
   xmlns:svg="http://www.w3.org/2000/svg"
   xmlns="http://www.w3.org/2000/svg"
   xmlns:sodipodi="http://sodipodi.sourceforge.net/DTD/sodipodi-0.dtd"
   xmlns:inkscape="http://www.inkscape.org/namespaces/inkscape"
   version="1.1"
   id="Layer_1"
   x="0px"
   y="0px"
   width="1000"
   height="147.62093"
   viewBox="0 0 999.99998 147.62093"
   enable-background="new 0 0 1000.223 227.107"
   xml:space="preserve"
   inkscape:version="0.48.5 r10040"
   sodipodi:docname="Nickelodeon_(2009).svg"><metadata
     id="metadata69"><rdf:RDF><cc:Work
         rdf:about=""><dc:format>image/svg+xml</dc:format><dc:type
           rdf:resource="http://purl.org/dc/dcmitype/StillImage" /><dc:title /></cc:Work></rdf:RDF></metadata><defs
     id="defs67" /><sodipodi:namedview
     pagecolor="#ffffff"
     bordercolor="#666666"
     borderopacity="1"
     objecttolerance="10"
     gridtolerance="10"
     guidetolerance="10"
     inkscape:pageopacity="0"
     inkscape:pageshadow="2"
     inkscape:window-width="1027"
     inkscape:window-height="1021"
     id="namedview65"
     showgrid="false"
     inkscape:zoom="0.35270133"
     inkscape:cx="864.52493"
     inkscape:cy="-25.988261"
     inkscape:window-x="885"
     inkscape:window-y="0"
     inkscape:window-maximized="0"
     inkscape:current-layer="g3"
     fit-margin-top="0"
     fit-margin-left="0"
     fit-margin-right="0"
     fit-margin-bottom="0" /><g
     id="g3"
     transform="translate(-1.1230469e-5,-79.226436)"><g
       id="g37"
       transform="matrix(0.99977605,0,0,0.99977605,0,79.226436)"><g
         id="g39"><g
           id="g41"><path
             d="m 49.682,48.017 c 13.779,0 25.52,4.854 35.221,14.552 9.7,9.579 14.553,21.289 14.553,35.13 l 0,45.694 -37.725,0 0,-44.953 c 0,-5.313 -1.175,-9.856 -3.521,-13.625 -2.351,-3.766 -5.192,-5.655 -8.528,-5.655 -3.277,0 -6.087,1.889 -8.436,5.655 -2.349,3.769 -3.523,8.312 -3.523,13.625 l 0,44.955 -37.723,0 0,-45.696 C 0,83.858 4.851,72.149 14.553,62.569 24.192,52.87 35.901,48.017 49.682,48.017 z"
             id="path43"
             inkscape:connector-curvature="0"
             style="fill:#f57c14" /><path
             d="m 135.772,40.51 c -4.017,3.955 -6.087,6.891 -6.21,8.807 l 0,0.185 c 0,1.979 1.761,4.698 5.283,8.158 l 4.171,4.172 c 3.707,3.77 5.561,8.281 5.561,13.531 l 0,68.034 -38.095,0 0,-68.036 c 0,-5.315 1.854,-9.826 5.561,-13.533 l 4.265,-4.17 c 3.459,-3.46 5.192,-6.212 5.192,-8.251 l 0,-0.185 c -0.187,-1.855 -2.257,-4.758 -6.212,-8.713 l -4.542,-4.636 c -4.14,-4.078 -6.21,-9.02 -6.21,-14.831 0,-5.807 2.07,-10.721 6.21,-14.738 4.016,-4.14 8.929,-6.211 14.739,-6.211 5.87,0 10.812,2.04 14.83,6.12 4.139,4.078 6.21,9.021 6.21,14.829 0,5.871 -2.071,10.814 -6.21,14.831 l -4.543,4.637 z"
             id="path45"
             inkscape:connector-curvature="0"
             style="fill:#f57c14" /><path
             d="m 207.646,113.729 c 1.668,-3.153 2.748,-6.858 3.245,-11.122 l 37.631,0 c -1.051,11.924 -5.809,22.058 -14.274,30.401 l 0,0.095 c -9.641,9.698 -21.258,14.55 -34.851,14.55 l -0.463,0 c -13.657,0 -25.304,-4.852 -34.944,-14.55 l 0,-0.095 c -9.701,-9.576 -14.553,-21.195 -14.553,-34.85 l 0,-0.465 c 0,-13.655 4.85,-25.274 14.553,-34.85 9.639,-9.7 21.35,-14.553 35.129,-14.553 13.718,0 25.427,4.853 35.13,14.553 8.465,8.405 13.222,18.537 14.274,30.401 l -37.633,0 c -0.496,-4.264 -1.576,-7.971 -3.245,-11.122 -2.41,-4.326 -5.253,-6.488 -8.528,-6.488 -3.275,0 -6.087,2.163 -8.434,6.488 -2.349,4.389 -3.523,9.67 -3.523,15.85 0,6.117 1.174,11.369 3.523,15.759 2.347,4.324 5.159,6.52 8.434,6.58 3.276,-0.061 6.119,-2.257 8.529,-6.582 z"
             id="path47"
             inkscape:connector-curvature="0"
             style="fill:#f57c14" /><path
             d="m 327.584,101.87 19.095,29.197 c 1.606,2.41 2.41,4.574 2.41,6.488 0,0.804 -0.124,1.546 -0.371,2.225 -0.866,2.41 -2.72,3.615 -5.562,3.615 l -31.143,0 -19.651,-30.123 0,30.031 -37.724,0 0,-76.47 c 0,-5.192 1.854,-9.64 5.562,-13.35 3.645,-3.645 8.064,-5.469 13.254,-5.469 5.252,0 9.701,1.824 13.347,5.469 3.708,3.71 5.562,8.157 5.562,13.35 l 0,20.393 17.056,-30.496 c 2.656,-4.512 6.518,-7.415 11.585,-8.715 1.67,-0.431 3.306,-0.648 4.912,-0.648 3.276,0 6.396,0.867 9.363,2.595 4.509,2.719 7.414,6.613 8.712,11.678 0.431,1.608 0.648,3.215 0.648,4.82 0,3.276 -0.896,6.396 -2.688,9.362 l -14.367,26.048 z"
             id="path49"
             inkscape:connector-curvature="0"
             style="fill:#f57c14" /><path
             d="m 393.145,48.291 c 13.533,0 25.211,4.945 35.037,14.83 6.675,6.675 10.661,15.356 11.957,26.046 0.309,2.595 0.463,5.005 0.463,7.231 0,2.471 -0.185,4.696 -0.555,6.674 l -58.487,0 c 0.495,3.891 1.544,7.292 3.152,10.198 2.349,4.324 5.159,6.517 8.436,6.581 3.336,0 6.456,-1.946 9.361,-5.841 1.421,-1.975 2.531,-3.953 3.334,-5.931 l 33.647,0 c -0.372,8.527 -4.019,16.746 -10.939,24.656 -9.824,9.887 -21.535,14.832 -35.126,14.832 -13.905,0 -25.708,-4.854 -35.41,-14.554 -9.7,-9.64 -14.55,-21.347 -14.55,-35.128 0,-13.719 4.85,-25.427 14.55,-35.127 9.702,-9.648 21.413,-14.467 35.13,-14.467 z m 10.939,40.784 c -0.681,-3.154 -1.483,-5.563 -2.411,-7.232 -2.472,-4.447 -5.314,-6.674 -8.527,-6.674 -3.584,0 -6.396,2.165 -8.435,6.488 -1.049,2.225 -1.885,4.698 -2.503,7.415 l 21.876,0.003 0,0 z"
             id="path51"
             inkscape:connector-curvature="0"
             style="fill:#f57c14" /><path
             d="m 463.633,0.004 c 5.25,0 9.699,1.854 13.347,5.562 3.708,3.646 5.562,8.096 5.562,13.35 l 0,124.48 -37.726,0 0,-124.482 c 0,-5.252 1.822,-9.702 5.469,-13.349 3.709,-3.707 8.157,-5.561 13.348,-5.561 z"
             id="path53"
             inkscape:connector-curvature="0"
             style="fill:#f57c14" /><path
             d="m 572.599,62.656 c 9.7,9.703 14.552,21.415 14.552,35.13 0,13.779 -4.852,25.522 -14.552,35.221 -0.313,0.312 -0.897,0.866 -1.763,1.67 -0.74,0.68 -1.109,1.052 -1.109,1.11 -9.332,7.849 -20.053,11.775 -32.164,11.775 l -0.463,0 c -12.05,0 -22.709,-3.958 -31.977,-11.865 -0.619,-0.371 -1.607,-1.266 -2.967,-2.688 -9.7,-9.7 -14.552,-21.442 -14.552,-35.222 0,-13.717 4.852,-25.426 14.552,-35.129 9.701,-9.762 21.439,-14.645 35.224,-14.645 13.777,-10e-4 25.518,4.881 35.219,14.643 z m -26.787,50.981 c 2.407,-4.387 3.615,-9.668 3.615,-15.85 0,-6.117 -1.208,-11.37 -3.615,-15.758 -2.352,-4.388 -5.159,-6.581 -8.435,-6.581 -3.277,0 -6.117,2.193 -8.527,6.581 -2.286,4.45 -3.431,9.701 -3.431,15.758 0,6.117 1.145,11.4 3.431,15.85 2.41,4.391 5.25,6.581 8.527,6.581 3.276,0 6.085,-2.194 8.435,-6.581 z"
             id="path55"
             inkscape:connector-curvature="0"
             style="fill:#f57c14" /><path
             d="m 676.007,133.102 c -9.641,9.699 -21.353,14.552 -35.13,14.552 -13.779,0 -25.488,-4.853 -35.127,-14.552 -9.701,-9.701 -14.553,-21.414 -14.553,-35.13 0,-13.716 4.852,-25.426 14.553,-35.128 9.64,-9.7 21.348,-14.553 35.127,-14.553 4.076,0 8.063,0.498 11.958,1.486 l 0,-30.869 c 0,-5.252 1.853,-9.7 5.561,-13.349 C 662.103,1.854 666.551,0 671.743,0 c 5.192,0 9.638,1.854 13.348,5.56 3.646,3.648 5.497,8.065 5.561,13.255 l 0,79.156 c -0.001,13.719 -4.884,25.429 -14.645,35.131 z m -35.13,-12.791 c 3.274,0 6.086,-2.191 8.435,-6.581 2.347,-4.324 3.523,-9.608 3.523,-15.851 0,-6.178 -1.177,-11.431 -3.523,-15.757 -2.352,-4.388 -5.16,-6.581 -8.435,-6.581 -3.338,0 -6.148,2.193 -8.434,6.581 -2.351,4.326 -3.523,9.578 -3.523,15.757 0,6.179 1.173,11.462 3.523,15.851 2.286,4.387 5.097,6.581 8.434,6.581 z"
             id="path57"
             inkscape:connector-curvature="0"
             style="fill:#f57c14" /><path
             d="m 744.644,48.291 c 13.534,0 25.212,4.945 35.037,14.83 6.676,6.675 10.659,15.356 11.956,26.046 0.309,2.595 0.463,5.005 0.463,7.231 0,2.471 -0.185,4.696 -0.555,6.674 l -58.487,0 c 0.493,3.891 1.543,7.292 3.151,10.198 2.35,4.324 5.159,6.517 8.435,6.581 3.336,0 6.457,-1.946 9.362,-5.841 1.419,-1.975 2.532,-3.953 3.333,-5.931 l 33.649,0 c -0.371,8.527 -4.021,16.746 -10.938,24.656 -9.824,9.887 -21.537,14.832 -35.13,14.832 -13.902,0 -25.705,-4.854 -35.407,-14.554 -9.701,-9.64 -14.553,-21.347 -14.553,-35.128 0,-13.719 4.852,-25.427 14.553,-35.127 9.702,-9.648 21.412,-14.467 35.131,-14.467 z m 10.938,40.784 c -0.681,-3.154 -1.485,-5.563 -2.41,-7.232 -2.474,-4.447 -5.316,-6.674 -8.527,-6.674 -3.586,0 -6.396,2.165 -8.435,6.488 -1.053,2.225 -1.886,4.698 -2.503,7.415 l 21.875,0.003 0,0 z"
             id="path59"
             inkscape:connector-curvature="0"
             style="fill:#f57c14" /><path
             d="m 881.806,62.656 c 9.702,9.703 14.553,21.415 14.553,35.13 0,13.779 -4.851,25.522 -14.553,35.221 -0.31,0.312 -0.897,0.866 -1.761,1.67 -0.744,0.68 -1.111,1.052 -1.111,1.11 -9.33,7.849 -20.058,11.775 -32.162,11.775 l -0.464,0 c -12.05,0 -22.709,-3.958 -31.979,-11.865 -0.618,-0.371 -1.606,-1.266 -2.965,-2.688 -9.703,-9.7 -14.554,-21.442 -14.554,-35.222 0,-13.717 4.851,-25.426 14.554,-35.129 9.697,-9.762 21.442,-14.645 35.221,-14.645 13.779,-10e-4 25.52,4.881 35.221,14.643 z m -26.787,50.981 c 2.41,-4.387 3.615,-9.668 3.615,-15.85 0,-6.117 -1.205,-11.37 -3.615,-15.758 -2.35,-4.388 -5.159,-6.581 -8.435,-6.581 -3.274,0 -6.119,2.193 -8.527,6.581 -2.287,4.45 -3.429,9.701 -3.429,15.758 0,6.117 1.142,11.4 3.429,15.85 2.408,4.391 5.253,6.581 8.527,6.581 3.273,0 6.085,-2.194 8.435,-6.581 z"
             id="path61"
             inkscape:connector-curvature="0"
             style="fill:#f57c14" /><path
             d="m 950.45,48.017 c 13.777,0 25.519,4.854 35.221,14.552 9.702,9.579 14.553,21.289 14.553,35.13 l 0,45.694 -37.724,0 0,-44.953 c 0,-5.313 -1.175,-9.856 -3.522,-13.625 -2.35,-3.766 -5.191,-5.655 -8.527,-5.655 -3.276,0 -6.087,1.889 -8.435,5.655 -2.35,3.769 -3.522,8.312 -3.522,13.625 l 0,44.955 -37.724,0 0,-45.696 c 0,-13.841 4.85,-25.552 14.552,-35.13 9.636,-9.699 21.346,-14.552 35.128,-14.552 z"
             id="path63"
             inkscape:connector-curvature="0"
             style="fill:#f57c14" /></g></g></g></g></svg>