<?xml version="1.0" encoding="UTF-8" standalone="no"?>
<!-- Generator: Adobe Illustrator 16.0.0, SVG Export Plug-In . SVG Version: 6.00 Build 0)  -->
<svg xmlns:dc="http://purl.org/dc/elements/1.1/" xmlns:cc="http://creativecommons.org/ns#" xmlns:rdf="http://www.w3.org/1999/02/22-rdf-syntax-ns#" xmlns:svg="http://www.w3.org/2000/svg" xmlns="http://www.w3.org/2000/svg" xmlns:sodipodi="http://sodipodi.sourceforge.net/DTD/sodipodi-0.dtd" xmlns:inkscape="http://www.inkscape.org/namespaces/inkscape" version="1.1" id="Layer_1" x="0px" y="0px" width="1000" height="1056.61" viewBox="-299.711 -237 1000 1056.61" enable-background="new -299.711 -237 946.422 1000" xml:space="preserve" inkscape:version="0.91 r13725" sodipodi:docname="Syfy_2017_vertical.svg"><metadata id="metadata5907"><rdf:RDF><cc:Work rdf:about=""><dc:format>image/svg+xml</dc:format><dc:type rdf:resource="http://purl.org/dc/dcmitype/StillImage"/><dc:title/></cc:Work></rdf:RDF></metadata><defs id="defs5905"/><sodipodi:namedview pagecolor="#ffffff" bordercolor="#666666" borderopacity="1" objecttolerance="10" gridtolerance="10" guidetolerance="10" inkscape:pageopacity="0" inkscape:pageshadow="2" inkscape:window-width="1366" inkscape:window-height="705" id="namedview5903" showgrid="false" inkscape:zoom="0.35852524" inkscape:cx="281.99236" inkscape:cy="479.18082" inkscape:window-x="-8" inkscape:window-y="-8" inkscape:window-maximized="1" inkscape:current-layer="Layer_1"/>
<g id="Clip-2" transform="matrix(1.05661,0,0,1.05661,16.966638,13.41659)">
</g>
<g id="Clip-5" transform="matrix(1.05661,0,0,1.05661,16.966638,13.41659)">
</g>
<g id="Clip-8" transform="matrix(1.05661,0,0,1.05661,16.966638,13.41659)">
</g>
<g id="g5869" transform="matrix(1.05661,0,0,1.05661,16.966638,13.41659)">
	<defs id="defs5871">
		<filter id="Adobe_OpacityMaskFilter" filterUnits="userSpaceOnUse" x="176.767" y="-237" width="469.944" height="476.60699">
			<feColorMatrix type="matrix" values="1 0 0 0 0  0 1 0 0 0  0 0 1 0 0  0 0 0 1 0" id="feColorMatrix5874"/>
		</filter>
	</defs>
	<mask maskUnits="userSpaceOnUse" x="176.767" y="-237" width="469.944" height="476.607" id="mask-2">
		<g id="g5877" style="filter:url(#Adobe_OpacityMaskFilter)">
			<polygon id="path-1" points="646.711,239.607 176.767,239.607 176.767,-236.998 646.711,-236.998 " style="fill:#ffffff"/>
		</g>
	</mask>
	<path id="Fill-1" mask="url(#mask-2)" d="m 635.833,-237 -190.361,0 c -4.249,4.251 -6.628,6.634 -10.876,10.879 l 0,226.321 -47.893,0 0,-226.321 -10.877,-10.879 -188.182,0 c -4.249,4.251 -6.628,6.634 -10.877,10.879 l 0,228.496 128.913,130.073 0,96.282 c 4.25,4.248 6.628,6.626 10.877,10.877 l 188.187,0 c 4.25,-4.251 6.629,-6.63 10.877,-10.877 l 0,-97.398 131.09,-131.132 0,-226.321 c -4.249,-4.245 -6.629,-6.628 -10.878,-10.879" inkscape:connector-curvature="0"/>
	<defs id="defs5881">
		<filter id="Adobe_OpacityMaskFilter_1_" filterUnits="userSpaceOnUse" x="176.767" y="286.396" width="469.944" height="476.604">
			<feColorMatrix type="matrix" values="1 0 0 0 0  0 1 0 0 0  0 0 1 0 0  0 0 0 1 0" id="feColorMatrix5884"/>
		</filter>
	</defs>
	<mask maskUnits="userSpaceOnUse" x="176.767" y="286.396" width="469.944" height="476.604" id="mask-4">
		<g id="g5887" style="filter:url(#Adobe_OpacityMaskFilter_1_)">
			<polygon id="path-3" points="176.767,763 176.767,286.396 646.711,286.396 646.711,763 " style="fill:#ffffff"/>
		</g>
	</mask>
	<path id="Fill-4" mask="url(#mask-4)" d="m 635.833,286.396 -190.361,0 c -4.249,4.249 -6.628,6.636 -10.876,10.882 l 0,226.32 -47.893,0 0,-226.32 c -4.25,-4.246 -6.627,-6.633 -10.877,-10.882 l -188.182,0 c -4.249,4.249 -6.628,6.636 -10.877,10.882 l 0,228.492 128.913,130.07 0,96.28 c 4.25,4.253 6.628,6.634 10.877,10.88 l 188.187,0 c 4.25,-4.246 6.629,-6.627 10.877,-10.88 l 0,-97.393 131.091,-131.13 0,-226.32 c -4.25,-4.246 -6.63,-6.632 -10.879,-10.881" inkscape:connector-curvature="0"/>
	<defs id="defs5891">
		<filter id="Adobe_OpacityMaskFilter_2_" filterUnits="userSpaceOnUse" x="-299.711" y="-237" width="428.58301" height="237.2">
			<feColorMatrix type="matrix" values="1 0 0 0 0  0 1 0 0 0  0 0 1 0 0  0 0 0 1 0" id="feColorMatrix5894"/>
		</filter>
	</defs>
	<mask maskUnits="userSpaceOnUse" x="-299.711" y="-237" width="428.583" height="237.2" id="mask-6">
		<g id="g5897" style="filter:url(#Adobe_OpacityMaskFilter_2_)">
			<polygon id="path-5" points="128.871,0.2 -299.711,0.2 -299.711,-236.998 128.871,-236.998 " style="fill:#ffffff"/>
		</g>
	</mask>
	<path id="Fill-7" mask="url(#mask-6)" d="m 117.996,-237 -322.526,0 -95.181,95.208 0,131.143 c 4.25,4.251 6.631,6.629 10.877,10.85 l 203.413,0 0,-46.785 203.417,0 c 4.249,-4.25 6.626,-6.633 10.875,-10.885 l 0,-168.651 c -4.249,-4.246 -6.626,-6.629 -10.875,-10.88" inkscape:connector-curvature="0"/>
	<path id="Fill-10" d="m -288.833,46.988 c -4.249,4.25 -6.631,6.633 -10.876,10.884 l 0,170.856 c 4.246,4.246 6.628,6.63 10.876,10.879 l 322.525,0 95.178,-95.207 0,-133.317 C 124.624,6.832 122.242,4.448 117.996,0.203 l -203.416,0 0,46.786 -203.413,0 z" inkscape:connector-curvature="0"/>
	<path id="Fill-12" d="m 117.996,286.396 -322.526,0 -95.181,95.211 0,370.513 c 4.25,4.253 6.631,6.634 10.877,10.88 l 188.188,0 c 4.246,-4.246 6.627,-6.627 10.877,-10.88 l 0,-59.294 207.765,0 c 4.249,-4.254 6.626,-6.635 10.875,-10.885 l 0,-147.463 c -4.249,-4.253 -6.626,-6.631 -10.875,-10.88 l -207.765,0 0,-46.789 207.765,0 c 4.249,-4.249 6.626,-6.632 10.875,-10.881 l 0,-168.65 c -4.249,-4.247 -6.626,-6.633 -10.875,-10.882" inkscape:connector-curvature="0"/>
</g>
</svg>