<?xml version="1.0" encoding="utf-8"?>
<!-- Generator: Adobe Illustrator 21.1.0, SVG Export Plug-In . SVG Version: 6.00 Build 0)  -->
<svg version="1.1" id="Livello_1" xmlns="http://www.w3.org/2000/svg" xmlns:xlink="http://www.w3.org/1999/xlink" x="0px" y="0px"
	 viewBox="0 0 397.6 103.5" style="enable-background:new 0 0 397.6 103.5;" xml:space="preserve">
<style type="text/css">
	.st0{fill:#FF0027;}
</style>
<g>
	<polygon class="st0" points="5.7,35.4 0,52.9 15.1,64 9.3,81.8 24.2,92.6 35.7,57.3 	"/>
	<polygon class="st0" points="103,35.4 97.3,17.9 78.5,17.9 72.7,0 54.3,0 65.8,35.4 	"/>
	<polygon class="st0" points="54.3,0 35.8,0 30,17.9 11.3,17.9 5.7,35.4 42.8,35.4 	"/>
	<polygon class="st0" points="108.7,52.9 103,35.4 73,57.3 84.3,92.6 99.3,81.8 93.6,64 	"/>
	<polygon class="st0" points="24.2,92.6 39.2,103.5 54.3,92.6 69.4,103.5 84.3,92.6 54.3,70.9 	"/>
</g>
<g>
	<path class="st0" d="M165.8,35l0.8,11.6H165c-3.2-7.5-4.4-9.8-8.3-9.8h-2.6V65c0,2.8,1.1,2.9,4.5,3.3v1.8h-16.3v-1.8
		c3.4-0.4,4.5-0.6,4.5-3.3V36.8h-2.7c-3.9,0-5.1,2.3-8.3,9.8h-1.6L135,35H165.8z"/>
	<path class="st0" d="M188.9,53.5v1.1h-16.3c-0.2,7,3.4,11.2,8.3,11.2c3.4,0,5.6-1.4,7.5-4l0.8,0.4c-1.3,5-5,8.4-10.7,8.4
		c-7.3,0-12.1-5.4-12.1-13.1c0-8.6,5.5-14.5,12.4-14.5C185.4,43.1,188.9,47.5,188.9,53.5z M172.7,52.8h10c0-4.7-1.2-7.9-4.5-7.9
		C174.9,44.9,173.1,48.2,172.7,52.8z"/>
	<path class="st0" d="M200.9,66.2c0,1.8,0.8,2,3.1,2.2V70h-13.2v-1.6c2.3-0.2,3.1-0.5,3.1-2.2V35.9l-3-1.6v-1.1l8.9-2.4h1.1
		L200.9,66.2L200.9,66.2z"/>
	<path class="st0" d="M228.4,53.5v1.1h-16.3c-0.2,7,3.4,11.2,8.3,11.2c3.4,0,5.7-1.4,7.5-4l0.8,0.4c-1.3,5-5,8.4-10.7,8.4
		c-7.3,0-12.1-5.4-12.1-13.1c0-8.6,5.5-14.5,12.4-14.5C224.9,43.1,228.4,47.5,228.4,53.5z M212.2,52.8h10c0-4.7-1.2-7.9-4.5-7.9
		C214.4,44.9,212.6,48.2,212.2,52.8z"/>
	<path class="st0" d="M261.6,43.2L252,70.1h-2.5l-10.1-26.9l-2.5,20.7c0,0.4-0.1,1.1-0.1,1.2c0,2.5,1.1,3,4.8,3.2v1.8H230v-1.8
		c2.9-0.1,3.9-0.7,4.2-3l3.1-25c0-2.7-0.9-3.5-4.2-3.7V35h11.3c0.1,1.1,0.4,2,0.8,3.1l8.2,21.8L261,38c0.4-1.1,0.7-1.9,0.8-3H273
		v1.8c-3.2,0.1-4.2,1-4.2,3.7l3.1,25c0.3,2.4,1.4,2.9,4.1,3v1.8h-16.3v-1.8c3.5-0.2,4.7-0.8,4.7-3.2c0-0.1,0-0.9-0.1-1.2L261.6,43.2
		z"/>
	<path class="st0" d="M298.8,64.5c0,1.7,0.4,2.8,1.7,2.8c0.8,0,1.5-0.2,2-0.5l0.3,1.1c-1.5,1.7-3.3,2.6-5.7,2.6
		c-2.7,0-4.5-1.6-5-4.4c-1.6,2.1-4.2,4.3-7.8,4.3c-4,0-6.8-2.5-6.8-6.5c0-4.3,3.1-6.1,6.8-7.5l7.6-2.8v-4.3c0-2.9-1-4.9-3.5-4.9
		c-2.4,0-3.4,1.8-3.4,4.2c0,1,0.2,2,0.4,3.1l-4.2,0.5c-1.4-0.4-2.2-1.5-2.2-3.1c0-4.2,4.3-6.3,9.9-6.3c6.4,0,9.9,2.4,9.9,8.2
		L298.8,64.5L298.8,64.5z M291.9,65v-9.4l-4.3,1.8c-2.1,0.8-3.4,2-3.4,4.8c0,2.6,1.2,4.5,3.9,4.5C289.5,66.6,290.5,66,291.9,65z"/>
	<path class="st0" d="M318.8,34.4v-1.1l8.9-2.4h1.1v33.9c0,1.7,0.1,2.2,2,2.4l1.2,0.1v1.5l-9.1,1.8h-1.3l0.2-4.7
		c-2,2.9-4.5,4.7-8,4.7c-6.1,0-10.1-4.9-10.1-12.5c0-9.5,5.6-14.9,12.8-14.9c2.3,0,4.2,0.7,5.4,1.8v-9L318.8,34.4z M310.5,55.7
		c0,6.1,2.5,10.7,7.1,10.7c1.7,0,3.1-0.6,4.2-1.6V51.5c0-3.9-1.6-6.2-4.7-6.2C312.9,45.3,310.5,49.4,310.5,55.7z"/>
	<path class="st0" d="M343.7,65.8c0,2.1,1.2,2.4,4.2,2.6V70h-14.3v-1.6c2.4-0.2,3.2-0.5,3.2-2.2V48.5l-3-1.8v-1l9-2.8h1.2l-0.2,7.4
		c2.4-5.5,3.9-7.4,6.9-7.4c1,0,1.8,0.3,2.2,0.9v5.4h-1c-3.1,0-5.6,0.2-8.1,2.7v13.9H343.7z"/>
	<path class="st0" d="M364.2,66.2c0,1.8,0.8,2,3.2,2.2V70h-13.2v-1.6c2.4-0.2,3.2-0.5,3.2-2.2V48.5l-3-1.8v-1l8.8-2.8h1.1v23.3
		H364.2z M356.6,36.1c0-2.1,1.7-4,4.1-4c2.5,0,4.1,1.8,4.1,4c0,2.1-1.6,4-4.1,4C358.3,40.1,356.6,38.2,356.6,36.1z"/>
	<path class="st0" d="M384.4,34.4v-1.1l8.9-2.4h1.1v33.9c0,1.7,0.1,2.2,2,2.4l1.2,0.1v1.5l-9.1,1.8h-1.3l0.2-4.7
		c-2,2.9-4.5,4.7-8.1,4.7c-6,0-10.1-4.9-10.1-12.5c0-9.5,5.6-14.9,12.8-14.9c2.3,0,4.2,0.7,5.4,1.8v-9L384.4,34.4z M376.1,55.7
		c0,6.1,2.5,10.7,7.1,10.7c1.7,0,3.1-0.6,4.2-1.6V51.5c0-3.9-1.7-6.2-4.7-6.2C378.5,45.3,376.1,49.4,376.1,55.7z"/>
</g>
</svg>
