<?xml version="1.0" encoding="UTF-8" ?>
<!DOCTYPE svg PUBLIC "-//W3C//DTD SVG 1.1//EN" "http://www.w3.org/Graphics/SVG/1.1/DTD/svg11.dtd">
<svg width="277pt" height="64pt" viewBox="0 0 277 64" version="1.1" xmlns="http://www.w3.org/2000/svg">
<g id="#0000c5ff">
<path fill="#0000c5" opacity="1.00" d=" M 0.00 1.31 C 11.57 1.26 23.14 1.30 34.71 1.29 C 34.66 21.79 34.68 42.29 34.70 62.79 C 29.23 62.79 23.75 62.79 18.28 62.80 C 18.31 47.15 18.30 31.49 18.29 15.84 C 12.19 15.82 6.10 15.87 0.00 15.82 L 0.00 1.31 Z" />
</g>
<g id="#0201beff">
<path fill="#0201be" opacity="1.00" d=" M 51.62 1.31 C 60.43 1.27 69.23 1.27 78.04 1.31 C 83.93 1.36 90.19 3.35 93.95 8.11 C 98.85 14.16 99.65 22.66 97.87 30.02 C 96.65 35.16 92.77 39.20 88.20 41.63 C 92.98 48.56 97.48 55.70 102.09 62.75 C 95.70 62.84 89.30 62.77 82.91 62.79 C 79.27 56.85 75.60 50.93 71.97 44.98 C 71.07 43.50 68.98 44.47 67.60 44.18 C 67.65 50.39 67.61 56.60 67.63 62.81 C 62.30 62.79 56.97 62.80 51.64 62.80 C 51.64 42.30 51.68 21.80 51.62 1.31 M 67.62 15.73 C 67.62 20.38 67.65 25.03 67.60 29.67 C 71.42 29.62 75.72 30.42 79.02 27.96 C 82.42 25.73 82.41 20.24 79.26 17.79 C 76.00 15.15 71.53 15.77 67.62 15.73 Z" />
</g>
<g id="#0401b6ff">
<path fill="#0401b6" opacity="1.00" d=" M 112.74 1.55 C 126.41 0.94 140.13 1.46 153.82 1.30 C 153.74 21.80 153.76 42.29 153.81 62.79 C 139.59 62.79 125.37 62.81 111.15 62.78 C 111.20 57.93 111.18 53.08 111.17 48.23 C 120.03 48.21 128.90 48.22 137.76 48.23 C 137.76 45.34 137.77 42.45 137.79 39.56 C 131.33 39.52 124.88 39.55 118.42 39.55 C 118.46 34.78 118.46 30.01 118.42 25.24 C 124.82 25.25 131.23 25.19 137.63 25.28 C 137.85 22.14 137.78 18.98 137.73 15.83 C 129.43 15.80 121.13 15.93 112.84 15.76 C 112.80 11.02 112.94 6.28 112.74 1.55 Z" />
</g>
<g id="#0602b0ff">
<path fill="#0602b0" opacity="1.00" d=" M 171.84 10.82 C 180.56 0.03 196.80 -2.29 209.19 2.85 C 214.13 4.78 218.22 8.30 221.80 12.13 C 217.80 15.65 213.68 19.03 209.76 22.65 C 206.43 19.15 202.07 16.10 197.03 16.28 C 191.83 15.91 186.82 18.82 184.10 23.17 C 179.82 30.70 181.71 41.82 189.60 46.21 C 196.37 49.60 204.87 47.20 209.69 41.59 C 213.74 45.05 217.69 48.63 221.78 52.05 C 210.96 65.52 189.42 67.61 175.90 57.11 C 161.79 46.59 160.93 23.93 171.84 10.82 Z" />
</g>
<g id="#0702a8ff">
<path fill="#0702a8" opacity="1.00" d=" M 234.30 1.29 C 247.96 1.28 261.62 1.31 275.29 1.28 C 275.27 6.14 275.28 10.99 275.27 15.84 C 266.98 15.82 258.69 15.83 250.40 15.84 C 250.35 18.98 250.37 22.12 250.42 25.26 C 256.88 25.23 263.34 25.24 269.80 25.25 C 269.75 30.01 269.75 34.77 269.80 39.54 C 263.32 39.55 256.85 39.54 250.37 39.54 C 250.37 42.42 250.37 45.30 250.36 48.18 C 259.24 48.29 268.12 48.17 277.00 48.25 L 277.00 62.75 C 262.77 62.83 248.54 62.78 234.31 62.79 C 234.34 42.29 234.36 21.79 234.30 1.29 Z" />
</g>
</svg>
