<?xml version="1.0" encoding="UTF-8" standalone="no"?>
<!-- Generator: Adobe Illustrator 21.1.0, SVG Export Plug-In . SVG Version: 6.00 Build 0)  -->

<svg
   xmlns:dc="http://purl.org/dc/elements/1.1/"
   xmlns:cc="http://creativecommons.org/ns#"
   xmlns:rdf="http://www.w3.org/1999/02/22-rdf-syntax-ns#"
   xmlns:svg="http://www.w3.org/2000/svg"
   xmlns="http://www.w3.org/2000/svg"
   xmlns:sodipodi="http://sodipodi.sourceforge.net/DTD/sodipodi-0.dtd"
   xmlns:inkscape="http://www.inkscape.org/namespaces/inkscape"
   version="1.1"
   id="Capa_1"
   x="0px"
   y="0px"
   viewBox="0 0 1889.7637 1889.7637"
   xml:space="preserve"
   sodipodi:docname="antena3.svg"
   width="500mm"
   height="500mm"
   inkscape:version="0.92.4 (5da689c313, 2019-01-14)"><metadata
   id="metadata17"><rdf:RDF><cc:Work
       rdf:about=""><dc:format>image/svg+xml</dc:format><dc:type
         rdf:resource="http://purl.org/dc/dcmitype/StillImage" /><dc:title /></cc:Work></rdf:RDF></metadata><defs
   id="defs15" /><sodipodi:namedview
   pagecolor="#ffffff"
   bordercolor="#666666"
   borderopacity="1"
   objecttolerance="10"
   gridtolerance="10"
   guidetolerance="10"
   inkscape:pageopacity="0"
   inkscape:pageshadow="2"
   inkscape:window-width="1920"
   inkscape:window-height="1017"
   id="namedview13"
   showgrid="false"
   units="mm"
   inkscape:zoom="0.22605364"
   inkscape:cx="771.19144"
   inkscape:cy="975.28427"
   inkscape:window-x="-8"
   inkscape:window-y="-8"
   inkscape:window-maximized="1"
   inkscape:current-layer="Capa_1" />
<style
   type="text/css"
   id="style2">
	.st0{fill:#FF7328;}
</style>
<g
   id="g10"
   transform="matrix(5.981446,0,0,5.981446,37.795598,164.77238)">
	<path
   class="st0"
   d="m 65.1,142.6 c 22,-36.5 42.6,-73.8 67,-108.8 4.9,-7 9.9,-13.9 13.8,-21.5 2.3,-4.5 1.7,-8 -1.4,-10.3 -3.1,-2.3 -7.1,-2.2 -9.8,-1.9 C 67.5,5.5 0.6,50.4 0,115.1 c 0.2,23.6 13.4,52.2 24.1,59.7 8.1,5.7 15.2,4.9 23.3,-4.9 6.9,-8.4 12.1,-18 17.7,-27.3 z"
   id="path4"
   inkscape:connector-curvature="0"
   style="fill:#ff7328" />
	<path
   class="st0"
   d="m 255.9,169.9 c 8,9.8 15.2,10.5 23.3,4.9 10.8,-7.5 23.9,-36.1 24.1,-59.7 C 302.7,50.4 235.9,5.5 168.8,0.1 166.1,-0.2 162.1,-0.2 159,2 c -3.1,2.3 -3.7,5.8 -1.4,10.3 3.9,7.6 8.9,14.5 13.8,21.5 24.4,35 45,72.3 67,108.8 5.5,9.3 10.6,18.9 17.5,27.3 z"
   id="path6"
   inkscape:connector-curvature="0"
   style="fill:#ff7328" />
	<path
   class="st0"
   d="m 164.3,114.8 c -6.3,-1 -11.2,-1 -12.6,-1.1 v 0 c -1.4,0 -6.3,0.1 -12.6,1.1 -36.9,5.5 -62.5,26.3 -78.4,59.3 -8.1,16.9 -4.5,28.5 10.1,40 0.9,0.7 1.7,1.3 2.6,2 2.7,1.8 5.3,3.5 7.9,5.2 38.2,25 52.2,33.8 57.9,36.4 2.3,1.1 6.5,3.1 12.2,3.2 v 0 c 0.1,0 0.2,0 0.3,0 0.1,0 0.2,0 0.3,0 v 0 c 5.7,-0.1 9.8,-2.1 12.2,-3.2 5.6,-2.6 19.6,-11.5 57.9,-36.4 2.6,-1.7 5.2,-3.4 7.9,-5.2 0.9,-0.7 1.7,-1.3 2.6,-2 14.6,-11.5 18.2,-23.1 10.1,-40 -15.9,-33 -41.5,-53.8 -78.4,-59.3 z"
   id="path8"
   inkscape:connector-curvature="0"
   style="fill:#ff7328" />
</g>
</svg>