<?xml version="1.0" encoding="UTF-8" standalone="no"?>
<svg
   xmlns:dc="http://purl.org/dc/elements/1.1/"
   xmlns:cc="http://creativecommons.org/ns#"
   xmlns:rdf="http://www.w3.org/1999/02/22-rdf-syntax-ns#"
   xmlns:svg="http://www.w3.org/2000/svg"
   xmlns="http://www.w3.org/2000/svg"
   xmlns:sodipodi="http://sodipodi.sourceforge.net/DTD/sodipodi-0.dtd"
   xmlns:inkscape="http://www.inkscape.org/namespaces/inkscape"
   width="500mm"
   height="500mm"
   version="1.1"
   viewBox="0 0 499.99368 499.99368"
   id="svg28"
   sodipodi:docname="bbc_world.svg"
   inkscape:version="0.92.4 (5da689c313, 2019-01-14)">
  <metadata
     id="metadata34">
    <rdf:RDF>
      <cc:Work
         rdf:about="">
        <dc:format>image/svg+xml</dc:format>
        <dc:type
           rdf:resource="http://purl.org/dc/dcmitype/StillImage" />
        <dc:title></dc:title>
      </cc:Work>
    </rdf:RDF>
  </metadata>
  <defs
     id="defs32" />
  <sodipodi:namedview
     pagecolor="#ffffff"
     bordercolor="#666666"
     borderopacity="1"
     objecttolerance="10"
     gridtolerance="10"
     guidetolerance="10"
     inkscape:pageopacity="0"
     inkscape:pageshadow="2"
     inkscape:window-width="1920"
     inkscape:window-height="1017"
     id="namedview30"
     showgrid="false"
     inkscape:pagecheckerboard="true"
     units="mm"
     inkscape:zoom="0.236"
     inkscape:cx="500"
     inkscape:cy="500"
     inkscape:window-x="-8"
     inkscape:window-y="-8"
     inkscape:window-maximized="1"
     inkscape:current-layer="svg28" />
  <g
     transform="matrix(1.8141732,0,0,1.8141732,234.92108,176.10556)"
     id="g26">
    <rect
       x="-123.98"
       y="-91.559998"
       width="264.57999"
       height="264.57999"
       id="rect2"
       style="fill:#b90005" />
    <path
       d="m 14.969,-11.769 c 0,4.7643 -5.9287,4.4815 -5.9287,4.4815 H 3.1117 v -8.6087 h 5.9286 c 6.1013,-0.04188 5.9287,4.1272 5.9287,4.1272 M 3.112,-29.025 h 4.5176 c 4.6911,0.24802 4.5141,3.7404 4.5141,3.7404 0,4.3405 -5.1873,4.4112 -5.1873,4.4112 H 3.1119 Z m 10.761,9.8446 c 0,0 4.058,-1.7292 4.0218,-6.3157 0,0 0.61715,-7.5167 -9.3418,-8.4335 H -2.498 v 31.512 h 12.667 c 0,0 10.584,0.03141 10.584,-8.8911 -5.3e-4,0 0.25022,-6.072 -6.8798,-7.8712 m -28.599,-20.924 h 46.526 v 43.843 h -46.526 z m -23.956,28.335 c 0,4.7643 -5.9287,4.4815 -5.9287,4.4815 h -5.929 v -8.6087 h 5.929 c 6.1017,-0.04188 5.9287,4.1272 5.9287,4.1272 m -11.858,-17.256 h 4.5185 c 4.6913,0.24802 4.5138,3.7404 4.5138,3.7404 0,4.3405 -5.1869,4.4112 -5.1869,4.4112 h -3.8454 z m 10.761,9.8446 c 0,0 4.0586,-1.7292 4.0222,-6.3157 0,0 0.61667,-7.5167 -9.3423,-8.4335 h -11.051 v 31.512 h 12.668 c 0,0 10.584,0.03141 10.584,-8.8911 0,0 0.24948,-6.072 -6.8798,-7.8712 m -28.599,-20.924 h 46.526 v 43.843 h -46.526 z m 144.34,8.4336 v 5.8218 c 0,0 -5.6827,-3.4923 -11.962,-3.5626 0,0 -11.716,-0.23011 -12.244,11.23 0,0 -0.42321,10.539 12.103,11.14 0,0 5.2556,0.63294 12.385,-3.9136 v 6.0293 c 0,0 -9.5639,5.6822 -20.643,1.3057 0,0 -9.3135,-3.401 -9.6683,-14.561 0,0 -0.38734,-11.479 12.034,-15.289 0,0 3.317,-1.2698 9.2779,-0.70546 5.2e-4,0 3.5628,0.35227 8.7179,2.5048 m -37.035,35.409 h 46.526 v -43.843 h -46.526 z"
       id="path4"
       inkscape:connector-curvature="0"
       style="fill:#ffffff;stroke-width:0.15383001" />
    <g
       transform="matrix(1.2962,0,0,1.2962,0.75318,-3866.2)"
       aria-label="WORLD NEWS"
       id="g24"
       style="fill:#ffffff">
      <path
         d="m -44.085,3031.2 q -1.48,-5.12 -2.92,-10.28 -1.44,-5.16 -2.8,-10.32 -1.36,5.12 -2.8,10.32 -1.4,5.16 -2.88,10.28 h -5.36 q -2.12,-7 -4.04,-14.16 -1.92,-7.16 -3.64,-14.44 h 5.48 q 1.16,5.84 2.44,11.72 1.32,5.84 2.76,11.44 1.52,-5.52 2.92,-11 1.44,-5.48 2.76,-10.96 h 5 q 1.32,5.44 2.72,10.84 1.4,5.4 2.88,10.8 1.44,-5.56 2.72,-11.32 1.28,-5.76 2.44,-11.52 h 5.36 q -1.76,7.28 -3.68,14.44 -1.92,7.16 -4,14.16 z"
         id="path6"
         inkscape:connector-curvature="0" />
      <path
         d="m -14.844,3002 q 3.2,0 5.76,1.04 2.56,1.04 4.4,3 1.88,1.96 2.84,4.72 1,2.76 1,6.16 0,3.4 -1,6.16 -0.96,2.72 -2.8,4.68 -1.84,1.96 -4.44,3 -2.56,1.04 -5.76,1.04 -3.2,0 -5.76,-1.04 -2.56,-1.04 -4.44,-3 -1.84,-1.96 -2.84,-4.72 -0.96,-2.76 -0.96,-6.16 0,-3.4 0.96,-6.12 1,-2.76 2.84,-4.72 1.84,-1.96 4.4,-3 2.6,-1.04 5.8,-1.04 z m 0,25.4 q 2.72,0 4.68,-1.24 1.96,-1.28 3,-3.6 1.04,-2.36 1.04,-5.64 0,-3.32 -1.04,-5.64 -1.04,-2.36 -3,-3.6 -1.96,-1.28 -4.68,-1.28 -2.72,0 -4.68,1.28 -1.96,1.24 -3,3.6 -1.04,2.32 -1.04,5.6 0,3.28 1.04,5.64 1.04,2.36 3,3.64 1.96,1.24 4.68,1.24 z"
         id="path8"
         inkscape:connector-curvature="0" />
      <path
         d="m 9.9659,3020.2 v 10.96 h -5 v -28.6 h 9.84 q 5.56,0 8.52,2.32 2.96,2.28 2.96,6.52 0,2.84 -1.44,4.88 -1.44,2 -4.12,3 1.88,2.88 3.72,5.84 1.84,2.96 3.64,6.04 h -5.84 q -1.56,-2.8 -3.2,-5.52 -1.6,-2.72 -3.28,-5.48 -0.48,0.04 -1,0.04 z m 0,-13.6 v 9.56 h 4.52 q 3.32,0 5,-1.12 1.68,-1.16 1.68,-3.64 0,-2.48 -1.68,-3.64 -1.68,-1.16 -4.96,-1.16 z"
         id="path10"
         inkscape:connector-curvature="0" />
      <path
         d="m 31.997,3002.6 h 5.08 v 24.2 h 14.08 v 4.4 h -19.16 z"
         id="path12"
         inkscape:connector-curvature="0" />
      <path
         d="m 55.581,3031.2 v -28.6 h 10.44 q 4.48,0 7.64,1.68 3.2,1.68 4.88,4.88 1.72,3.16 1.72,7.68 0,4.56 -1.72,7.76 -1.68,3.2 -4.88,4.92 -3.16,1.68 -7.68,1.68 z m 5.08,-24.28 v 19.96 h 5.04 q 4.48,0 6.88,-2.56 2.4,-2.56 2.4,-7.48 0,-4.84 -2.36,-7.36 -2.36,-2.56 -6.88,-2.56 z"
         id="path14"
         inkscape:connector-curvature="0" />
      <path
         d="m -31.246,3070.8 q -2.28,-3.56 -4.68,-7.2 -2.36,-3.64 -4.72,-7.2 -2.36,-3.56 -4.68,-6.92 v 21.32 h -4.88 v -28.6 h 5.12 q 3.6,5.2 7.08,10.48 3.52,5.28 7,10.72 v -21.2 h 4.88 v 28.6 z"
         id="path16"
         inkscape:connector-curvature="0" />
      <path
         d="m -19.287,3042.2 h 19.12 v 4.28 h -14.04 v 7.4 h 12.52 v 4.28 h -12.52 v 8.36 h 14.8 v 4.28 h -19.88 z"
         id="path18"
         inkscape:connector-curvature="0" />
      <path
         d="m 28.665,3070.8 q -1.48,-5.12 -2.92,-10.28 -1.44,-5.16 -2.8,-10.32 -1.36,5.12 -2.8,10.32 -1.4,5.16 -2.88,10.28 h -5.36 q -2.12,-7 -4.04,-14.16 -1.92,-7.16 -3.64,-14.44 h 5.48 q 1.16,5.84 2.44,11.72 1.32,5.84 2.76,11.44 1.52,-5.52 2.92,-11 1.44,-5.48 2.76,-10.96 h 5 q 1.32,5.44 2.72,10.84 1.4,5.4 2.88,10.8 1.44,-5.56 2.72,-11.32 1.28,-5.76 2.44,-11.52 h 5.36 q -1.76,7.28 -3.68,14.44 -1.92,7.16 -4,14.16 z"
         id="path20"
         inkscape:connector-curvature="0" />
      <path
         d="m 53.469,3071.4 q -2.32,0 -4.6,-0.52 -2.28,-0.52 -4.28,-1.6 v -4.64 q 4.12,2.56 8.96,2.56 3,0 4.6,-1.12 1.64,-1.12 1.64,-3.08 0,-1.12 -0.48,-1.84 -0.48,-0.76 -1.32,-1.24 -0.8,-0.52 -1.88,-0.84 -1.04,-0.32 -2.2,-0.6 -2.12,-0.52 -3.88,-1.16 -1.72,-0.68 -3,-1.6 -1.24,-0.92 -1.92,-2.28 -0.68,-1.36 -0.68,-3.32 0,-2.64 1.32,-4.52 1.32,-1.92 3.76,-2.96 2.44,-1.04 5.8,-1.04 2.2,0 4.36,0.52 2.16,0.52 3.84,1.4 v 4.52 q -1.6,-1 -3.76,-1.6 -2.12,-0.64 -4.52,-0.64 -2.72,0 -4.24,1.04 -1.52,1 -1.52,2.88 0,1.36 0.72,2.16 0.72,0.76 2.04,1.24 1.32,0.44 3.08,0.88 1.92,0.48 3.64,1.08 1.76,0.6 3.08,1.56 1.36,0.92 2.12,2.36 0.76,1.44 0.76,3.6 0,2.76 -1.36,4.72 -1.36,1.96 -3.96,3.04 -2.56,1.04 -6.12,1.04 z"
         id="path22"
         inkscape:connector-curvature="0" />
    </g>
  </g>
</svg>
