<?xml version="1.0" encoding="UTF-8" standalone="no"?>
<svg
   xmlns:dc="http://purl.org/dc/elements/1.1/"
   xmlns:cc="http://creativecommons.org/ns#"
   xmlns:rdf="http://www.w3.org/1999/02/22-rdf-syntax-ns#"
   xmlns:svg="http://www.w3.org/2000/svg"
   xmlns="http://www.w3.org/2000/svg"
   xmlns:sodipodi="http://sodipodi.sourceforge.net/DTD/sodipodi-0.dtd"
   xmlns:inkscape="http://www.inkscape.org/namespaces/inkscape"
   width="500mm"
   height="500mm"
   viewBox="0 0 1417.3229 1417.3229"
   version="1.1"
   id="svg17"
   sodipodi:docname="bemad_tv.svg"
   inkscape:version="0.92.4 (5da689c313, 2019-01-14)">
  <metadata
     id="metadata23">
    <rdf:RDF>
      <cc:Work
         rdf:about="">
        <dc:format>image/svg+xml</dc:format>
        <dc:type
           rdf:resource="http://purl.org/dc/dcmitype/StillImage" />
        <dc:title />
      </cc:Work>
    </rdf:RDF>
  </metadata>
  <defs
     id="defs21" />
  <sodipodi:namedview
     pagecolor="#ffffff"
     bordercolor="#666666"
     borderopacity="1"
     objecttolerance="10"
     gridtolerance="10"
     guidetolerance="10"
     inkscape:pageopacity="0"
     inkscape:pageshadow="2"
     inkscape:window-width="1920"
     inkscape:window-height="1017"
     id="namedview19"
     showgrid="false"
     units="mm"
     inkscape:zoom="0.10314685"
     inkscape:cx="-1972.6328"
     inkscape:cy="1144"
     inkscape:window-x="-8"
     inkscape:window-y="-8"
     inkscape:window-maximized="1"
     inkscape:current-layer="svg17" />
  <g
     id="surface1"
     transform="matrix(0.6798921,0,0,0.6798921,28.345738,125.7378)">
    <path
       style="fill:#ffffff;fill-opacity:1;fill-rule:nonzero;stroke:none"
       d="m 596.44531,636.07812 c 0.25,-11.09765 -0.74609,-28.55859 14.08985,-30.17968 31.17187,-2.05469 62.65625,-1.7461 93.89062,-0.1836 13.09375,0.3086 20.76172,12.09375 26.43359,22.32032 36.28516,65.41015 72.82032,130.63281 109.16407,195.98046 38.65625,-66.46875 75.5625,-134 113.40625,-200.96875 4.86328,-9.28906 13.33984,-17.64453 24.5625,-17.51953 29.48831,-1.1875 59.16411,-1.62109 88.58981,0.1875 12.4063,0.0625 15.711,14.15235 15.0274,24.12891 0.1875,153.82812 -0.062,307.66016 0.125,461.48825 -0.5,9.9766 0.6836,25.1914 -12.2188,27.6836 -29.9258,2.8711 -60.289,1.5586 -90.33982,0.875 -12.09375,0.9336 -18.57812,-11.289 -17.57812,-21.9492 -0.9375,-88.3555 0.30859,-176.71484 -0.5625,-265.07031 -27.1836,45.20703 -52.1211,91.78516 -79.17579,136.99219 -10.91015,22.32422 -39.02734,15.77734 -59.04296,15.83984 -14.08985,1.1836 -21.13282,-12.47265 -27.49219,-22.51171 -25.25,-43.83594 -50.4375,-87.73047 -75.9961,-131.44141 -0.1875,86.54687 0,173.0312 -0.0625,259.5195 0.25,10.9102 -0.6875,27.4961 -14.96484,28.3086 -30.98437,1.5586 -62.21875,1.6836 -93.20312,-0.125 -14.02735,-1.1211 -14.71485,-17.2734 -14.52735,-28.0586 -0.0625,-151.77341 0.125,-303.54294 -0.125,-455.31638 z m 0,0"
       id="path2"
       inkscape:connector-curvature="0" />
    <path
       style="fill:#2e4fb0;fill-opacity:1;fill-rule:nonzero;stroke:none"
       d="m 582.66797,0 h 14.21484 c -0.80859,155.69922 0.0625,311.46094 -0.4375,467.22266 1.2461,10.66406 -2.11719,25.2539 9.47656,31.30468 13.96485,2.99219 28.30469,2.36719 42.51954,2.49219 68.45312,-0.625 136.90625,0.125 205.36328,-0.375 47.5039,-0.62109 97.5039,-11.03516 134.97265,-42.02734 47.50786,-38.90625 59.60156,-111.36328 34.60156,-166.11328 -11.2852,-25.75 -33.66406,-43.95704 -57.10546,-58.30079 C 1022.2578,200.28125 1033.1055,124.27344 1008.7266,67.46875 1031.2344,44.832031 1053.0547,21.324219 1076.8711,0 h 13.4023 c 0.9375,141.35937 0.1875,282.77734 0.375,424.13672 0.4375,22.13672 -2.0586,44.58203 2.2461,66.46875 3.9883,12.53515 19.0743,8.66797 29.1758,10.16406 116.832,0.3125 233.6016,-0.62109 350.4375,0.4375 2.6172,22.13672 -18.082,34.54297 -31.1094,48.69922 -19.5781,17.70703 -35.7265,39.40625 -57.4218,54.62109 -25.6211,3.55469 -51.8711,-1.80859 -77.3672,3.11719 -12.8438,3.12109 -16.9571,17.33594 -21.8203,27.9375 -51.8086,139.54688 -103.5547,279.16016 -155.4883,418.71097 -6.9805,20.0156 -17.2695,39.4062 -18.3906,60.9218 12.7812,7.2305 28.1171,4.8008 42.207,5.4844 22.0703,-0.5586 44.3906,1.3086 66.3984,-1.7461 10.1602,-0.9961 13.7149,-11.6601 17.4532,-19.5156 8.4179,-21.1992 15.0898,-43.0234 23.0703,-64.4141 64.2109,0.125 128.3632,0.062 192.5156,0.062 10.7266,26.8125 16.2734,56.1836 32.1094,80.625 15.2734,7.2969 32.9804,4.0547 49.375,4.9883 23.6289,-0.8086 48.7539,3.4297 70.7617,-7.4804 -43.4531,-118.28911 -87.2188,-236.51177 -131.0469,-354.73833 40.7109,-40.83985 81.5469,-81.4961 122.1953,-122.40235 8.2266,-9.03906 19.0742,-14.71484 30.6094,-18.39453 1.4961,158.00782 0.125,316.07813 0.6875,474.08591 0.1836,10.2227 0.7461,26.4375 14.3984,27.3711 32.4219,3.3047 65.1524,0.4375 97.6953,1.2461 55.9219,-1.1836 113.6524,5.7383 167.6446,-12.9062 22.1914,-6.5469 41.332,-20.5157 63.2773,-27.6836 14.4024,-2.9336 24.625,9.164 30.9844,20.2656 v 18.8281 c -184.9102,188.1875 -373.2539,373.1328 -559.2266,560.2578 -16.7695,18.3946 -38.6523,31.6758 -63.4023,35.6055 H 109.10156 C 52.929688,1708.2695 5.546875,1661.3164 0,1604.8203 V 608.26953 C 3.804688,584.01172 16.148438,562.12891 34.351562,545.78906 217.70703,364.46484 398.56641,180.57812 582.66797,0 m 13.77734,636.07812 c 0.25,151.77344 0.0625,303.54297 0.125,455.31638 -0.1875,10.7852 0.5,26.9375 14.52735,28.0586 30.98437,1.8086 62.21875,1.6836 93.20312,0.125 14.27734,-0.8125 15.21484,-17.3984 14.96484,-28.3086 0.0625,-86.4883 -0.125,-172.97263 0.0625,-259.5195 25.5586,43.71094 50.7461,87.60547 75.9961,131.44141 6.35937,10.03906 13.40234,23.69531 27.49219,22.51171 20.01562,-0.0625 48.13281,6.48438 59.04296,-15.83984 27.05469,-45.20703 51.99219,-91.78516 79.17579,-136.99219 0.87109,88.35547 -0.375,176.71481 0.5625,265.07031 -1,10.6602 5.48437,22.8828 17.57812,21.9492 30.05082,0.6836 60.41402,1.9961 90.33982,-0.875 12.9024,-2.4922 11.7188,-17.707 12.2188,-27.6836 -0.1875,-153.82809 0.062,-307.66013 -0.125,-461.48825 0.6836,-9.97656 -2.6211,-24.06641 -15.0274,-24.12891 -29.4257,-1.80859 -59.1015,-1.375 -88.58981,-0.1875 -11.22266,-0.125 -19.69922,8.23047 -24.5625,17.51953 -37.84375,66.96875 -74.75,134.5 -113.40625,200.96875 -36.34375,-65.34765 -72.87891,-130.57031 -109.16407,-195.98046 -5.67187,-10.22657 -13.33984,-22.01172 -26.43359,-22.32032 -31.23437,-1.5625 -62.71875,-1.87109 -93.89062,0.1836 -14.83594,1.62109 -13.83985,19.08203 -14.08985,30.17968 z m 0,0"
       id="path4"
       inkscape:connector-curvature="0" />
    <path
       style="fill:#2e4fb0;fill-opacity:1;fill-rule:nonzero;stroke:none"
       d="m 719.26562,95.089844 c 44.63672,0.375 89.33594,-0.933594 133.97657,0.625 16.89453,1.558594 37.65625,4.488286 46.07031,21.449216 8.79297,19.14453 6.11328,46.57813 -13.02734,58.55078 -21.32422,13.03125 -47.50782,10.22657 -71.38672,10.97657 -12.90235,16.14843 -8.60157,37.41015 -9.35157,56.55468 0.875,14.33985 -2.11718,30.11719 5.30079,43.21094 25.625,10.10156 55.92187,-0.87109 80.60937,13.46875 22.44531,12.03516 24.19141,42.96094 15.33984,64.16406 -9.10546,19.64063 -32.29687,25.19141 -51.99609,25.75 -45.19922,0.875 -90.33594,-0.0625 -135.53516,0.3125 0,-98.39453 0,-196.72656 0,-295.062496 z m 0,0"
       id="path6"
       inkscape:connector-curvature="0" />
    <path
       style="fill:#2e4fb0;fill-opacity:1;fill-rule:nonzero;stroke:none"
       d="m 1214.0898,95.902344 c 80.1133,0.621094 160.4102,-1.621094 240.461,1.058594 1.8711,3.554692 5.6719,10.726562 7.543,14.281252 -24.25,22.75781 -45.6368,48.76172 -71.5079,69.64843 -58.7265,1.8711 -117.6445,0.1875 -176.4336,0.6875 -0.062,-28.55859 0,-57.11718 -0.062,-85.675776 z m 0,0"
       id="path8"
       inkscape:connector-curvature="0" />
    <path
       style="fill:#2e4fb0;fill-opacity:1;fill-rule:nonzero;stroke:none"
       d="m 1214.1523,287.95312 c 69.2032,0.1875 138.4024,-0.3125 207.6055,0.125 14.3399,-2.55468 15.586,17.71094 5.3633,23.38282 -28.0547,26.1914 -55.5508,53.1875 -84.4766,78.3789 -42.3945,4.67969 -85.7226,0.4375 -128.4922,1.8711 0,-34.60547 -0.062,-69.14844 0,-103.75782 z m 0,0"
       id="path10"
       inkscape:connector-curvature="0" />
    <path
       style="fill:#2e4fb0;fill-opacity:1;fill-rule:nonzero;stroke:none"
       d="m 1750.3125,713.96094 c 39.5859,2.12109 81.2969,-6.23438 119.2031,8.29297 27.6172,10.85156 45.2617,39.84375 44.2617,69.21484 0.062,50.25781 1,100.57812 -0.4375,150.83594 -0.9335,33.60937 -28.7382,61.73051 -61.2187,67.03121 -33.6055,5.4219 -67.832,1.8711 -101.6836,2.6797 -0.3125,-99.33201 -0.062,-198.66013 -0.125,-298.05466 z m 0,0"
       id="path12"
       inkscape:connector-curvature="0" />
    <path
       style="fill:#2e4fb0;fill-opacity:1;fill-rule:nonzero;stroke:none"
       d="m 1356.6094,752.24609 c 20.1367,57.80469 39.2773,115.85547 59.2265,173.71875 -39.4648,0.0625 -78.9296,0 -118.3906,0 19.5117,-57.98828 39.3985,-115.78906 59.1641,-173.71875 z m 0,0"
       id="path14"
       inkscape:connector-curvature="0" />
  </g>
</svg>
