<?xml version="1.0" encoding="UTF-8" standalone="no"?>
<!-- Generator: Adobe Illustrator 12.0.1, SVG Export Plug-In . SVG Version: 6.00 Build 51448)  -->

<svg
   xmlns:dc="http://purl.org/dc/elements/1.1/"
   xmlns:cc="http://creativecommons.org/ns#"
   xmlns:rdf="http://www.w3.org/1999/02/22-rdf-syntax-ns#"
   xmlns:svg="http://www.w3.org/2000/svg"
   xmlns="http://www.w3.org/2000/svg"
   xmlns:sodipodi="http://sodipodi.sourceforge.net/DTD/sodipodi-0.dtd"
   xmlns:inkscape="http://www.inkscape.org/namespaces/inkscape"
   version="1.1"
   id="Layer_1"
   width="500mm"
   height="500mm"
   viewBox="0 0 1889.7638 1889.7637"
   overflow="visible"
   enable-background="new 0 0 300.094 71.011"
   xml:space="preserve"
   sodipodi:docname="bloomberg.svg"
   style="overflow:visible"
   inkscape:version="0.92.4 (5da689c313, 2019-01-14)"><metadata
   id="metadata45"><rdf:RDF><cc:Work
       rdf:about=""><dc:format>image/svg+xml</dc:format><dc:type
         rdf:resource="http://purl.org/dc/dcmitype/StillImage" /><dc:title></dc:title></cc:Work></rdf:RDF></metadata><defs
   id="defs43" /><sodipodi:namedview
   pagecolor="#ffffff"
   bordercolor="#666666"
   borderopacity="1"
   objecttolerance="10"
   gridtolerance="10"
   guidetolerance="10"
   inkscape:pageopacity="0"
   inkscape:pageshadow="2"
   inkscape:window-width="1920"
   inkscape:window-height="1017"
   id="namedview41"
   showgrid="false"
   inkscape:pagecheckerboard="true"
   units="mm"
   inkscape:zoom="0.33459238"
   inkscape:cx="717.64704"
   inkscape:cy="872.54622"
   inkscape:window-x="-8"
   inkscape:window-y="-8"
   inkscape:window-maximized="1"
   inkscape:current-layer="Layer_1" />


















<g
   id="g66"
   transform="matrix(6.0453706,0,0,6.0453706,37.79519,730.23496)"><path
     id="path2"
     d="m 7.985,7.813 h 6.52 c 5.959,0 8.585,1.883 8.585,5.708 0,3.324 -2.626,5.581 -7.897,5.581 H 7.985 Z m -7.897,37.61 h 15.98 c 8.398,0 16.796,-3 16.796,-12.657 0,-5.708 -4.002,-10.09 -9.579,-10.724 V 21.91 c 4.563,-1.367 7.71,-4.69 7.71,-9.706 0,-8.088 -6.903,-11.157 -13.61,-11.157 H 0.088 Z M 7.985,25.868 h 7.582 c 6.392,0 9.411,1.632 9.411,6.274 0,5.821 -5.654,6.515 -9.726,6.515 H 7.985 Z"
     inkscape:connector-curvature="0"
     style="fill:#010101" /><line
     id="line4"
     y2="0"
     x2="41.793999"
     y1="45.423"
     x1="41.793999"
     stroke-miterlimit="10"
     style="fill:none;stroke:#010101;stroke-width:7.5;stroke-miterlimit:10" /><path
     id="path6"
     d="m 58.099,30.382 c 0,-4.701 3.324,-9.022 8.841,-9.022 5.517,0 8.831,4.322 8.831,9.022 0,4.7 -3.314,9.023 -8.831,9.023 -5.517,0 -8.841,-4.322 -8.841,-9.023 m -7.523,0 c 0,9.465 7.267,15.789 16.364,15.789 9.086,0 16.364,-6.323 16.364,-15.789 0,-9.466 -7.278,-15.799 -16.364,-15.799 -9.097,0 -16.364,6.334 -16.364,15.799"
     inkscape:connector-curvature="0"
     style="fill:#010101" /><path
     id="path8"
     d="m 94.219,30.382 c 0,-4.701 3.324,-9.022 8.841,-9.022 5.517,0 8.831,4.322 8.831,9.022 0,4.7 -3.314,9.023 -8.831,9.023 -5.517,0 -8.841,-4.322 -8.841,-9.023 m -7.523,0 c 0,9.465 7.268,15.789 16.364,15.789 9.086,0 16.364,-6.323 16.364,-15.789 0,-9.466 -7.277,-15.798 -16.364,-15.798 -9.096,-10e-4 -16.364,6.333 -16.364,15.798"
     inkscape:connector-curvature="0"
     style="fill:#010101" /><path
     id="path10"
     d="m 124.006,15.336 h 7.149 v 4.706 h 0.118 c 1.318,-2.822 4.199,-5.463 9.214,-5.463 4.642,0 7.848,1.814 9.411,5.581 2.193,-3.816 5.389,-5.581 9.893,-5.581 8.024,0 10.848,5.713 10.848,12.922 v 17.923 h -7.523 V 28.376 c 0,-3.757 -1.121,-7.017 -5.576,-7.017 -4.7,0 -6.461,3.884 -6.461,7.764 v 16.3 h -7.513 V 27.5 c 0,-3.708 -1.505,-6.141 -5.143,-6.141 -4.947,0 -6.894,3.624 -6.894,7.641 v 16.423 h -7.523 z"
     inkscape:connector-curvature="0"
     style="fill:#010101" /><path
     id="path12"
     d="m 201.686,30.382 c 0,4.706 -3.314,9.023 -8.841,9.023 -5.518,0 -8.841,-4.317 -8.841,-9.023 0,-4.701 3.323,-9.033 8.841,-9.033 5.526,0 8.841,4.332 8.841,9.033 m -24.95,15.041 h 7.149 v -4.51 h 0.118 c 2.202,3.624 6.146,5.257 10.354,5.257 9.264,0 14.85,-6.894 14.85,-15.789 0,-8.9 -5.959,-15.798 -14.544,-15.798 -5.636,0 -8.654,2.626 -10.218,4.583 h -0.187 V 0 h -7.523 v 45.423 z"
     inkscape:connector-curvature="0"
     style="fill:#010101" /><path
     id="path14"
     d="m 220.134,27.373 c 0.561,-4.332 3.324,-7.149 7.769,-7.149 4.701,0 7.582,2.759 7.651,7.149 z m 22.942,5.64 v -2.065 c 0,-10.473 -5.703,-16.364 -14.102,-16.364 -9.106,0 -16.364,6.333 -16.364,15.798 0,9.465 7.258,15.789 16.364,15.789 4.75,0 9.214,-1.691 12.715,-6.009 L 236.3,36.096 c -1.878,2.307 -4.327,4.066 -8.084,4.066 -4.198,0 -7.592,-2.699 -8.083,-7.149 z"
     inkscape:connector-curvature="0"
     style="fill:#010101" /><path
     id="path16"
     d="m 247.974,15.336 h 7.523 v 4.765 h 0.128 c 1.632,-3.447 4.946,-5.522 8.899,-5.522 0.944,0 1.819,0.192 2.694,0.447 v 7.268 c -1.249,-0.31 -2.448,-0.561 -3.639,-0.561 -7.08,0 -8.083,5.959 -8.083,7.592 v 16.099 h -7.523 V 15.336 Z"
     inkscape:connector-curvature="0"
     style="fill:#010101" /><path
     id="path18"
     d="m 284.045,21.359 c 5.448,0 8.899,3.624 8.899,8.84 0,5.006 -3.383,8.831 -8.959,8.831 -5.074,0 -8.841,-3.948 -8.841,-8.713 10e-4,-5.334 3.629,-8.958 8.901,-8.958 m 8.899,-6.023 v 4.514 h -0.118 c -2.202,-3.639 -6.155,-5.271 -10.354,-5.271 -9.273,0 -14.85,6.898 -14.85,15.803 0,8.516 5.959,15.415 14.978,15.415 3.766,0 7.65,-1.436 9.854,-4.381 h 0.107 v 2.198 c 0,5.949 -2.242,10.09 -9.519,10.09 -4.199,0 -7.337,-1.574 -10.346,-4.347 l -4.504,6.155 c 4.248,3.776 9.332,4.957 14.918,4.957 11.723,0 16.983,-6.903 16.983,-17.741 V 15.336 Z"
     inkscape:connector-curvature="0"
     style="fill:#010101" /><polygon
     id="polygon20"
     points="7.542,70.637 4.258,70.637 4.258,58.61 0,58.61 0,55.69 11.811,55.69 11.811,58.61 7.542,58.61 "
     style="fill:#010101" /><polygon
     id="polygon22"
     points="24.723,58.738 17.868,58.738 17.868,61.531 24.349,61.531 24.349,64.56 17.868,64.56 17.868,67.598 25.106,67.598 25.106,70.627 14.574,70.627 14.574,55.69 24.723,55.69 "
     style="fill:#010101" /><polygon
     id="polygon24"
     points="32.344,67.598 38.431,67.598 38.431,70.627 29.049,70.627 29.049,55.69 32.344,55.69 "
     style="fill:#010101" /><polygon
     id="polygon26"
     points="51.707,58.738 44.853,58.738 44.853,61.531 51.324,61.531 51.324,64.56 44.853,64.56 44.853,67.598 52.081,67.598 52.081,70.627 41.559,70.627 41.559,55.69 51.707,55.69 "
     style="fill:#010101" /><polygon
     id="polygon28"
     points="62.613,70.627 59.978,70.627 54.008,55.69 57.774,55.69 61.453,65.484 61.492,65.484 65.249,55.69 68.779,55.69 "
     style="fill:#010101" /><line
     id="line30"
     y2="55.689999"
     x2="72.908997"
     y1="70.626999"
     x1="72.908997"
     stroke-miterlimit="10"
     style="fill:none;stroke:#010101;stroke-width:3.29999995;stroke-miterlimit:10" /><path
     id="path32"
     d="m 86.746,59.348 c -0.521,-0.669 -1.583,-1.003 -2.38,-1.003 -0.934,0 -2.223,0.433 -2.223,1.554 0,2.724 6.874,0.963 6.874,6.195 0,3.333 -2.675,4.917 -5.753,4.917 -1.917,0 -3.609,-0.57 -5.025,-1.869 l 2.34,-2.586 c 0.688,0.895 1.78,1.406 2.872,1.406 1.082,0 2.281,-0.491 2.281,-1.554 0,-2.733 -7.001,-1.259 -7.001,-6.244 0,-3.177 2.763,-4.849 5.694,-4.849 1.682,0 3.304,0.452 4.573,1.563 z"
     inkscape:connector-curvature="0"
     style="fill:#010101" /><line
     id="line34"
     y2="55.689999"
     x2="94.681999"
     y1="70.626999"
     x1="94.681999"
     stroke-miterlimit="10"
     style="fill:none;stroke:#010101;stroke-width:3.29999995;stroke-miterlimit:10" /><path
     id="path36"
     d="m 107.554,55.316 c 4.651,0 8.054,3.059 8.054,7.848 0,4.789 -3.403,7.848 -8.054,7.848 -4.671,0 -8.064,-3.059 -8.064,-7.848 0,-4.789 3.393,-7.848 8.064,-7.848 m 0,12.656 c 2.793,0 4.632,-2.025 4.632,-4.809 0,-2.784 -1.839,-4.809 -4.632,-4.809 -2.813,0 -4.642,2.025 -4.642,4.809 0,2.784 1.83,4.809 4.642,4.809"
     inkscape:connector-curvature="0"
     style="fill:#010101" /><polygon
     id="polygon38"
     points="129.218,66.075 129.258,66.075 129.258,55.69 132.552,55.69 132.552,70.627 128.235,70.627 121.725,59.997 121.686,59.997 121.686,70.627 118.391,70.627 118.391,55.69 122.866,55.69 "
     style="fill:#010101" /></g>
</svg>