<?xml version="1.0" encoding="UTF-8" standalone="no"?>
<!-- Generator: Adobe Illustrator 21.0.0, SVG Export Plug-In . SVG Version: 6.00 Build 0)  -->

<svg
   xmlns:dc="http://purl.org/dc/elements/1.1/"
   xmlns:cc="http://creativecommons.org/ns#"
   xmlns:rdf="http://www.w3.org/1999/02/22-rdf-syntax-ns#"
   xmlns:svg="http://www.w3.org/2000/svg"
   xmlns="http://www.w3.org/2000/svg"
   xmlns:sodipodi="http://sodipodi.sourceforge.net/DTD/sodipodi-0.dtd"
   xmlns:inkscape="http://www.inkscape.org/namespaces/inkscape"
   version="1.1"
   id="Capa_1"
   x="0px"
   y="0px"
   viewBox="0 0 1889.7639 1889.7637"
   xml:space="preserve"
   sodipodi:docname="cataluna_beteve.svg"
   width="500mm"
   height="500mm"
   inkscape:version="0.92.4 (5da689c313, 2019-01-14)"><metadata
   id="metadata25"><rdf:RDF><cc:Work
       rdf:about=""><dc:format>image/svg+xml</dc:format><dc:type
         rdf:resource="http://purl.org/dc/dcmitype/StillImage" /><dc:title /></cc:Work></rdf:RDF></metadata><defs
   id="defs23">
	
	
	
	
	
	
	
</defs><sodipodi:namedview
   pagecolor="#ffffff"
   bordercolor="#666666"
   borderopacity="1"
   objecttolerance="10"
   gridtolerance="10"
   guidetolerance="10"
   inkscape:pageopacity="0"
   inkscape:pageshadow="2"
   inkscape:window-width="1920"
   inkscape:window-height="1017"
   id="namedview21"
   showgrid="false"
   units="mm"
   inkscape:zoom="0.28979592"
   inkscape:cx="332.27406"
   inkscape:cy="1193.5584"
   inkscape:window-x="-8"
   inkscape:window-y="-8"
   inkscape:window-maximized="1"
   inkscape:current-layer="Capa_1" />
<style
   type="text/css"
   id="style2">
	.st0{fill:#F95741;}
</style>
<g
   id="g846"
   transform="matrix(7.4048019,0,0,7.4048019,37.793658,-12798.393)"><path
     class="st0"
     d="m 38.3,1848.3638 c -1.5,-2.1 -3.4,-3.8 -5.7,-5.1 -2.3,-1.3 -4.9,-1.9 -8,-1.9 -3.1,0 -5.8,0.6 -8,1.9 -2.2,1.3 -4.2,3.1 -5.5,5.3 v -21.5 H 0 v 61 h 11.1 v -6 c 1.3,2.3 3.3,4.1 5.5,5.3 2.2,1.3 4.9,1.9 7.9,1.9 3,0 5.7,-0.6 8,-1.9 2.3,-1.3 4.2,-3 5.7,-5.1 1.5,-2.2 2.6,-4.7 3.3,-7.6 0.7,-2.9 1.1,-6 1.1,-9.4 0,-3.3 -0.4,-6.4 -1.1,-9.4 -0.6,-2.8 -1.7,-5.3 -3.2,-7.5 z m -7.6,23.5 c 0,2.7 -0.7,4.8 -2.4,6.4 -1.7,1.6 -3.9,2.4 -6.9,2.4 -3.6,0 -6.2,-1.1 -7.9,-3.2 -1.6,-2.2 -2.5,-5 -2.5,-8.6 v -6.8 c 0,-3.6 0.9,-6.5 2.5,-8.6 1.6,-2.2 4.3,-3.2 7.9,-3.2 3,0 5.2,0.8 6.8,2.4 1.7,1.6 2.4,3.7 2.4,6.4 v 12.8 z"
     id="path4"
     inkscape:connector-curvature="0"
     style="fill:#f95741" /><path
     class="st0"
     d="m 81.6,1847.6638 c -1.8,-1.9 -4,-3.5 -6.5,-4.6 -2.5,-1.1 -5.3,-1.7 -8.5,-1.7 -3.1,0 -5.9,0.6 -8.5,1.7 -2.5,1.1 -4.7,2.8 -6.5,4.8 -1.8,2.1 -3.2,4.6 -4.2,7.5 -1,2.9 -1.5,6.2 -1.5,9.8 0,3.6 0.5,6.9 1.4,9.8 0.9,3 2.3,5.5 4.1,7.6 1.8,2.1 3.9,3.7 6.5,4.9 2.6,1.2 5.5,1.8 8.7,1.8 5.6,0 10.2,-1.6 13.7,-4.4 3.6,-2.8 5.7,-6.7 6.4,-12 H 75.6 c -0.3,2.7 -1.2,4.3 -2.8,5.6 -1.6,1.3 -3.6,2 -6,2 -2.5,0 -4.7,-0.7 -6.5,-2.2 -1.8,-1.5 -2.8,-3.6 -2.8,-6.4 v -3 h 29.4 v -5.7 c 0,-3.1 -0.3,-6 -1.3,-8.7 -1,-2.6 -2.2,-4.9 -4,-6.8 z m -5.9,12.4 H 57.5 v -1.4 c 0,-2.5 1,-4.6 2.7,-6.2 1.7,-1.6 3.9,-2.4 6.5,-2.4 2.6,0 4.8,0.8 6.5,2.4 1.7,1.6 2.6,3.6 2.6,6.2 v 1.4 z"
     id="path6"
     inkscape:connector-curvature="0"
     style="fill:#f95741" /><polygon
     transform="translate(0,1820.7638)"
     class="st0"
     points="119.4,30.4 119.4,21.5 108.2,21.5 108.2,6.3 97.1,6.3 97.1,21.5 88.2,21.5 88.2,30.4 97.1,30.4 97.1,67.4 119.4,67.4 119.4,58.5 108.2,58.5 108.2,30.4 "
     id="polygon8"
     style="fill:#f95741" /><path
     class="st0"
     d="m 156.4,1847.6638 c -1.8,-1.9 -4,-3.5 -6.5,-4.6 -2.5,-1.1 -5.3,-1.7 -8.5,-1.7 -3.1,0 -5.9,0.6 -8.5,1.7 -2.5,1.1 -4.7,2.8 -6.5,4.8 -1.8,2.1 -3.2,4.6 -4.2,7.5 -1,2.9 -1.5,6.2 -1.5,9.8 0,3.6 0.5,6.9 1.4,9.8 0.9,3 2.3,5.5 4.1,7.6 1.8,2.1 3.9,3.7 6.5,4.9 2.6,1.2 5.5,1.8 8.7,1.8 5.6,0 10.2,-1.6 13.7,-4.4 3.6,-2.8 5.7,-6.7 6.4,-12 h -11.2 c -0.3,2.7 -1.2,4.3 -2.8,5.6 -1.6,1.3 -3.6,2 -6,2 -2.5,0 -4.5,-0.7 -6.3,-2.2 -1.8,-1.5 -2.6,-3.6 -2.6,-6.4 v -3 H 162 v -5.7 c 0,-3.1 -0.6,-6 -1.5,-8.7 -0.8,-2.6 -2.3,-4.9 -4.1,-6.8 z m -5.8,12.4 h -17.8 v -1.4 c 0,-2.5 0.7,-4.6 2.4,-6.2 1.7,-1.6 3.8,-2.4 6.4,-2.4 2.6,0 4.8,0.8 6.5,2.4 1.7,1.6 2.6,3.6 2.6,6.2 v 1.4 z"
     id="path10"
     inkscape:connector-curvature="0"
     style="fill:#f95741" /><polygon
     transform="translate(0,1820.7638)"
     class="st0"
     points="172.6,21.5 160.8,21.5 176.7,67.4 189.1,67.4 205.2,21.5 193.3,21.5 183,54.9 182.7,54.9 "
     id="polygon12"
     style="fill:#f95741" /><path
     class="st0"
     d="m 245,1868.9638 v -5.7 c 0,-3.1 -0.5,-6 -1.5,-8.7 -1,-2.7 -2.4,-5 -4.2,-6.9 -1.8,-1.9 -4,-3.5 -6.5,-4.6 -2.5,-1.1 -5.4,-1.7 -8.5,-1.7 -3.1,0 -5.9,0.6 -8.5,1.7 -2.5,1.1 -4.7,2.8 -6.5,4.8 -1.8,2.1 -3.2,4.6 -4.2,7.5 -1,2.9 -1.5,6.2 -1.5,9.8 0,3.6 0.5,6.9 1.4,9.8 0.9,3 2.3,5.5 4.1,7.6 1.8,2.1 3.9,3.7 6.5,4.9 2.6,1.2 5.5,1.8 8.7,1.8 5.6,0 10.2,-1.6 13.7,-4.4 3.6,-2.8 5.7,-6.7 6.4,-12 h -11.2 c -0.3,2.7 -1.2,4.3 -2.8,5.6 -1.6,1.3 -3.6,2 -6,2 -2.5,0 -4.5,-0.7 -6.3,-2.2 -1.8,-1.5 -2.6,-3.6 -2.6,-6.4 v -3 H 245 Z m -29.4,-10.3 c 0,-2.5 0.8,-4.6 2.5,-6.2 1.7,-1.6 3.8,-2.4 6.4,-2.4 2.6,0 4.8,0.8 6.5,2.4 1.7,1.6 2.5,3.6 2.5,6.2 v 1.4 h -17.8 v -1.4 z"
     id="path14"
     inkscape:connector-curvature="0"
     style="fill:#f95741" /><rect
     x="-429.6756"
     y="1792.0598"
     transform="rotate(-20.120166)"
     class="st0"
     width="22.600645"
     height="8.7002478"
     id="rect16"
     style="fill:#f95741;stroke-width:1.00002849" /></g>
</svg>