<?xml version="1.0" encoding="UTF-8" standalone="no"?>
<!-- Generator: Adobe Illustrator 16.0.0, SVG Export Plug-In . SVG Version: 6.00 Build 0)  -->

<svg
   xmlns:dc="http://purl.org/dc/elements/1.1/"
   xmlns:cc="http://creativecommons.org/ns#"
   xmlns:rdf="http://www.w3.org/1999/02/22-rdf-syntax-ns#"
   xmlns:svg="http://www.w3.org/2000/svg"
   xmlns="http://www.w3.org/2000/svg"
   xmlns:sodipodi="http://sodipodi.sourceforge.net/DTD/sodipodi-0.dtd"
   xmlns:inkscape="http://www.inkscape.org/namespaces/inkscape"
   version="1.1"
   id="svg3100"
   sodipodi:docname="cnbc.svg"
   inkscape:version="0.92.4 (5da689c313, 2019-01-14)"
   x="0px"
   y="0px"
   width="500mm"
   height="500mm"
   viewBox="-66.809 -112.76 1889.7636 1889.7637"
   enable-background="new -66.809 -112.76 700.806 560.091"
   xml:space="preserve"><metadata
   id="metadata24"><rdf:RDF><cc:Work
       rdf:about=""><dc:format>image/svg+xml</dc:format><dc:type
         rdf:resource="http://purl.org/dc/dcmitype/StillImage" /><dc:title></dc:title></cc:Work></rdf:RDF></metadata><defs
   id="defs22">
	
	
	
	
	
	
	
	
	
	
	
</defs><sodipodi:namedview
   pagecolor="#ffffff"
   bordercolor="#666666"
   borderopacity="1"
   objecttolerance="10"
   gridtolerance="10"
   guidetolerance="10"
   inkscape:pageopacity="0"
   inkscape:pageshadow="2"
   inkscape:window-width="1920"
   inkscape:window-height="1017"
   id="namedview20"
   showgrid="false"
   inkscape:pagecheckerboard="true"
   units="mm"
   inkscape:zoom="0.40524765"
   inkscape:cx="350.40302"
   inkscape:cy="766.55556"
   inkscape:window-x="-8"
   inkscape:window-y="-8"
   inkscape:window-maximized="1"
   inkscape:current-layer="svg3100" />
<g
   id="g853"><path
     id="path3113"
     inkscape:connector-curvature="0"
     d="M 878.00932,245.56114 C 849.72783,174.94672 780.82971,98.683761 651.78844,109.16021 487.4089,127.02997 436.1838,284.55983 461.0301,378.53722 395.55941,334.20582 284.23776,314.71295 187.07109,397.94467 61.612579,523.70606 128.71932,693.78332 197.68733,734.57857 121.67807,727.54249 1.5470889,778.9022 -25.028454,913.25547 -53.299592,1080.0658 73.862284,1177.3101 197.68733,1177.3101 H 1570.7648 c 143.1859,0 222.6278,-123.8716 213.7175,-240.69424 -14.0463,-152.46378 -153.564,-210.96052 -229.669,-198.42606 63.5835,-35.47548 148.5005,-202.11495 19.3764,-333.11845 -102.4994,-97.49543 -233.1638,-62.01996 -279.108,-19.49805 24.7661,-81.44553 -15.848,-249.80389 -182.0914,-276.43121 -11.4938,-1.28658 -22.5578,-1.97518 -33.1016,-1.97518 -126.90559,0.0181 -183.97079,92.7866 -201.87938,138.39423"
     style="fill:#ffffff;stroke-width:2.58869505" /><path
     id="path3115"
     inkscape:connector-curvature="0"
     d="m 209.93704,424.48915 c -72.49123,65.62342 -98.87521,214.31806 31.8047,301.24126 L 763.08162,1083.4078 510.30073,504.28308 C 457.33085,367.62328 312.42088,337.82223 209.93704,424.48915"
     style="fill:#f37021;stroke-width:2.58869505" /><path
     id="path3117"
     inkscape:connector-curvature="0"
     d="m 658.7132,142.91938 c -84.74352,1.72666 -211.996,102.64176 -155.36571,256.74159 L 764.79275,1016.2519 856.66294,367.71648 C 877.92131,206.57021 755.97047,132.18147 658.7132,142.91938"
     style="fill:#cc004c;stroke-width:2.58869505" /><path
     id="path3119"
     inkscape:connector-curvature="0"
     d="m 897.46078,342.9815 h 49.4363 c 0,0 26.39952,0 29.99262,12.45421 -19.45404,15.88682 -72.4058,17.87753 -65.3749,102.73754 l 83.10488,557.99065 259.65902,-618.20888 c 53.1123,-138.03439 -58.3699,-253.31416 -157.2606,-256.83737 -4.6182,-0.33135 -9.2546,-0.60058 -14.054,-0.60058 -88.75862,-0.003 -190.47362,64.5051 -185.50332,202.46443"
     style="fill:#6460aa;stroke-width:2.58869505" /><path
     id="path3121"
     inkscape:connector-curvature="0"
     d="M 1243.8256,509.53554 998.23091,1081.7122 1519.418,722.14765 c 120.1414,-85.21466 100.765,-221.4525 33.5133,-288.79481 -28.1935,-31.69598 -79.9596,-56.17986 -134.7959,-56.17986 -64.7847,-0.0129 -134.1177,34.34939 -174.3098,132.36256"
     style="fill:#0089d0;stroke-width:2.58869505" /><path
     id="path3123"
     inkscape:connector-curvature="0"
     d="M 1461.0637,803.55952 971.60618,1145.4407 h 602.66372 c 123.6438,0 203.1012,-127.4829 167.7785,-244.47117 -23.6581,-73.53447 -93.6512,-131.25719 -174.8922,-131.34003 -34.1967,0.0129 -70.4617,10.31336 -106.0925,33.93002"
     style="fill:#0db14b;stroke-width:2.58869505" /><path
     id="path3125"
     inkscape:connector-curvature="0"
     d="M 195.89337,1145.4407 H 789.66493 L 300.08316,803.55952 C 186.9779,730.88968 59.800492,773.41158 13.887398,894.00594 -25.031043,1032.0533 72.140802,1145.4407 195.89337,1145.4407"
     style="fill:#fcb711;stroke-width:2.58869505" /><path
     d="m -27.09941,1392.8682 c 0,58.2249 47.598335,164.2087 229.34543,164.2087 167.56623,0 220.48951,-76.8895 220.48951,-112.1449 H 293.00826 c 0,0 -6.1611,46.5784 -79.34091,46.5784 -73.22642,0 -93.02994,-61.1217 -93.02994,-96.4651 0,-35.2089 19.80352,-93.03 93.02994,-93.03 73.17981,0 79.34091,40.5519 79.34091,40.5519 h 129.72727 c 0,-35.2968 -38.83042,-111.1016 -220.48951,-111.1016 -181.747095,0 -229.34543,112.8723 -229.34543,161.4026"
     id="path9"
     inkscape:connector-curvature="0"
     style="fill:#292526;stroke-width:2.58869505" /><path
     d="m 1333.4048,1392.8682 c 0,58.2249 47.6475,164.2087 229.3454,164.2087 167.5507,0 220.4947,-76.8895 220.4947,-112.1449 h -129.6367 c 0,0 -6.1895,46.5784 -79.3875,46.5784 -73.2342,0 -93.0584,-61.1217 -93.0584,-96.4651 0,-35.2089 19.8242,-93.03 93.0584,-93.03 73.198,0 79.3875,40.5519 79.3875,40.5519 h 129.6367 c 0,-35.2968 -38.789,-111.1016 -220.4947,-111.1016 -181.6953,0 -229.3454,112.8723 -229.3454,161.4026"
     id="path11"
     inkscape:connector-curvature="0"
     style="fill:#292526;stroke-width:2.58869505" /><polyline
     transform="matrix(2.588695,0,0,2.588695,143.93308,399.07334)"
     points="244.659,323.649 244.659,399.79 186.338,323.649 120.732,323.649 120.732,444.25 165.709,444.25    165.709,367.234 223.009,444.25 289.639,444.25 289.639,323.649 244.659,323.649  "
     id="polyline13"
     style="fill:#292526" /><path
     d="m 1150.3815,1474.5156 v 0.4116 h -97.014 v -57.324 h 97.014 v 0.1863 c 20.7147,0 37.4558,12.7312 37.4558,28.4084 0,15.6383 -16.7411,28.3177 -37.4558,28.3177 m -96.1235,-176.8933 h 93.4778 v 0.132 c 15.8376,0 28.6802,10.4195 28.6802,23.2439 0,12.8736 -12.8426,23.2025 -28.6802,23.2025 v 0.1398 h -93.4778 z m 191.4056,85.502 c 21.1962,0 65.5146,-24.6055 65.5146,-72.2738 0,-67.8781 -126.3982,-73.9486 -145.7875,-73.9486 H 932.50653 v 312.1992 h 232.88417 c 112.0077,0 157.0018,-35.3849 157.0018,-94.4744 0,-59.0896 -76.7289,-71.5024 -76.7289,-71.5024 z"
     id="path15"
     inkscape:connector-curvature="0"
     style="fill:#292526;stroke-width:2.58869505" /></g>
</svg>