<?xml version="1.0" encoding="UTF-8" standalone="no"?>
<!-- Created with Inkscape (http://www.inkscape.org/) -->

<svg
   xmlns:dc="http://purl.org/dc/elements/1.1/"
   xmlns:cc="http://creativecommons.org/ns#"
   xmlns:rdf="http://www.w3.org/1999/02/22-rdf-syntax-ns#"
   xmlns:svg="http://www.w3.org/2000/svg"
   xmlns="http://www.w3.org/2000/svg"
   xmlns:sodipodi="http://sodipodi.sourceforge.net/DTD/sodipodi-0.dtd"
   xmlns:inkscape="http://www.inkscape.org/namespaces/inkscape"
   width="500mm"
   height="500mm"
   id="svg2"
   version="1.1"
   sodipodi:docname="cocina.svg"
   inkscape:version="0.92.4 (5da689c313, 2019-01-14)">
  <metadata
     id="metadata21">
    <rdf:RDF>
      <cc:Work
         rdf:about="">
        <dc:format>image/svg+xml</dc:format>
        <dc:type
           rdf:resource="http://purl.org/dc/dcmitype/StillImage" />
        <dc:title></dc:title>
      </cc:Work>
    </rdf:RDF>
  </metadata>
  <defs
     id="defs19" />
  <sodipodi:namedview
     pagecolor="#ffffff"
     bordercolor="#666666"
     borderopacity="1"
     objecttolerance="10"
     gridtolerance="10"
     guidetolerance="10"
     inkscape:pageopacity="0"
     inkscape:pageshadow="2"
     inkscape:window-width="1920"
     inkscape:window-height="1017"
     id="namedview17"
     showgrid="false"
     inkscape:pagecheckerboard="true"
     units="mm"
     inkscape:zoom="0.27601165"
     inkscape:cx="865.87325"
     inkscape:cy="882.47382"
     inkscape:window-x="-8"
     inkscape:window-y="-8"
     inkscape:window-maximized="1"
     inkscape:current-layer="layer1" />
  <g
     inkscape:label="Layer 1"
     inkscape:groupmode="layer"
     id="layer1"
     transform="translate(-11.129354,1371.2386)">
    <g
       id="g36"
       transform="matrix(2.3683711,0,0,2.3683711,22.566778,-1393.8985)">
      <rect
         transform="matrix(24.889525,0,0,24.889525,-5452.9429,-10546.785)"
         x="219.533"
         y="435.73801"
         clip-path="url(#SVGID_904_)"
         width="30.775999"
         height="8.8389997"
         id="rect5377" />
      <path
         inkscape:connector-curvature="0"
         transform="matrix(24.889525,0,0,24.889525,-5452.9429,-10546.785)"
         clip-path="url(#SVGID_904_)"
         d="m 228.238,443.161 c 2.759,-0.226 3.634,-0.864 3.357,-2.318 0.787,-1.183 -1.598,-1.918 -2.826,-2.164 -2.428,0.314 -2.866,1.298 -2.473,2.22 0.253,1.198 0.256,1.839 1.942,2.262"
         id="path5379"
         style="fill:#ffffff" />
      <path
         inkscape:connector-curvature="0"
         transform="matrix(24.889525,0,0,24.889525,-5452.9429,-10546.785)"
         clip-path="url(#SVGID_904_)"
         d="m 225.877,442.502 c -0.502,0.267 -0.943,0.379 -1.494,0.379 -1.305,0 -2.214,-0.798 -2.214,-1.94 0,-0.714 0.402,-1.354 1.065,-1.694 0.346,-0.179 0.758,-0.269 1.232,-0.269 0.396,0 0.663,0.045 1.043,0.185 0.156,0.056 0.206,0.077 0.323,0.15 v 0.875 c -0.335,-0.251 -0.842,-0.412 -1.299,-0.412 -0.814,0 -1.377,0.475 -1.377,1.153 0,0.686 0.558,1.166 1.349,1.166 0.368,0 0.797,-0.129 1.143,-0.335 l 0.19,-0.111 0.039,-0.022 z"
         id="path5381"
         style="fill:#ffffff" />
      <path
         inkscape:connector-curvature="0"
         transform="matrix(24.889525,0,0,24.889525,-5452.9429,-10546.785)"
         clip-path="url(#SVGID_904_)"
         d="m 235.61,442.502 c -0.501,0.267 -0.942,0.379 -1.494,0.379 -1.304,0 -2.213,-0.798 -2.213,-1.94 0,-0.714 0.402,-1.354 1.065,-1.694 0.346,-0.179 0.758,-0.269 1.232,-0.269 0.396,0 0.663,0.045 1.042,0.185 0.156,0.056 0.207,0.077 0.324,0.15 v 0.875 c -0.335,-0.251 -0.842,-0.412 -1.299,-0.412 -0.814,0 -1.377,0.475 -1.377,1.153 0,0.686 0.557,1.166 1.349,1.166 0.368,0 0.797,-0.129 1.143,-0.335 l 0.189,-0.111 0.039,-0.022 z"
         id="path5383"
         style="fill:#ffffff" />
      <rect
         transform="matrix(24.889525,0,0,24.889525,-5452.9429,-10546.785)"
         x="236.67"
         y="439.02802"
         clip-path="url(#SVGID_904_)"
         width="0.95899999"
         height="3.803"
         id="rect5385"
         style="fill:#ffffff" />
      <polygon
         transform="matrix(24.889525,0,0,24.889525,-5452.9429,-10546.785)"
         clip-path="url(#SVGID_904_)"
         points="242.622,439.028 242.622,442.831 241.831,442.831 239.729,440.478 239.729,442.831 238.787,442.831 238.787,439.028 239.651,439.028 241.686,441.27 241.686,439.028 "
         id="polygon5387"
         style="fill:#ffffff" />
      <path
         inkscape:connector-curvature="0"
         transform="matrix(24.889525,0,0,24.889525,-5452.9429,-10546.785)"
         clip-path="url(#SVGID_904_)"
         d="m 247.673,442.831 h -1.02 l -0.312,-0.753 h -1.7 l -0.285,0.753 h -1.003 l 1.533,-3.803 h 1.098 z m -2.782,-1.416 h 1.171 l -0.613,-1.473 z"
         id="path5389"
         style="fill:#ffffff" />
      <path
         inkscape:connector-curvature="0"
         transform="matrix(24.889525,0,0,24.889525,-5452.9429,-10546.785)"
         clip-path="url(#SVGID_904_)"
         d="m 229.233,442.035 c 0.616,0 1.115,-0.499 1.115,-1.115 0,-0.616 -0.499,-1.115 -1.115,-1.115 -0.616,0 -1.115,0.499 -1.115,1.115 0,0.616 0.499,1.115 1.115,1.115"
         id="path5391"
         style="fill:#fabb00" />
      <path
         inkscape:connector-curvature="0"
         transform="matrix(24.889525,0,0,24.889525,-5452.9429,-10546.785)"
         clip-path="url(#SVGID_904_)"
         d="m 224.573,437.429 c -0.141,-0.08 -0.266,-0.116 -0.398,-0.116 -0.266,0 -0.464,0.188 -0.464,0.441 0,0.256 0.193,0.438 0.462,0.438 0.139,0 0.279,-0.044 0.412,-0.129 v 0.183 c -0.128,0.069 -0.264,0.102 -0.422,0.102 -0.169,0 -0.298,-0.043 -0.411,-0.136 -0.136,-0.113 -0.214,-0.28 -0.214,-0.457 0,-0.337 0.274,-0.6 0.628,-0.6 0.128,0 0.247,0.027 0.407,0.096 z"
         id="path5393"
         style="fill:#ffffff" />
      <path
         inkscape:connector-curvature="0"
         transform="matrix(24.889525,0,0,24.889525,-5452.9429,-10546.785)"
         clip-path="url(#SVGID_904_)"
         d="m 229.955,438.332 h -0.171 l -0.155,-0.344 h -0.494 l -0.146,0.344 h -0.17 l 0.499,-1.169 h 0.117 z m -0.755,-0.493 h 0.361 l -0.187,-0.42 z"
         id="path5395"
         style="fill:#ffffff" />
      <polygon
         transform="matrix(24.889525,0,0,24.889525,-5452.9429,-10546.785)"
         clip-path="url(#SVGID_904_)"
         points="235.321,437.17 235.321,438.332 235.178,438.332 234.402,437.438 234.402,438.332 234.245,438.332 234.245,437.17 234.379,437.17 235.163,438.07 235.163,437.17 "
         id="polygon5397"
         style="fill:#ffffff" />
      <path
         inkscape:connector-curvature="0"
         transform="matrix(24.889525,0,0,24.889525,-5452.9429,-10546.785)"
         clip-path="url(#SVGID_904_)"
         d="m 240.735,438.332 h -0.17 l -0.155,-0.344 h -0.494 l -0.146,0.344 h -0.171 l 0.499,-1.169 h 0.118 z m -0.754,-0.493 h 0.361 l -0.187,-0.42 z"
         id="path5399"
         style="fill:#ffffff" />
      <polygon
         transform="matrix(24.889525,0,0,24.889525,-5452.9429,-10546.785)"
         clip-path="url(#SVGID_904_)"
         points="245.71,438.18 245.71,438.332 245.019,438.332 245.019,437.17 245.188,437.17 245.188,438.18 "
         id="polygon5401"
         style="fill:#ffffff" />
    </g>
  </g>
</svg>
