<?xml version="1.0" encoding="UTF-8" standalone="no"?>
<!-- Generator: Adobe Illustrator 23.1.0, SVG Export Plug-In . SVG Version: 6.00 Build 0)  -->

<svg
   xmlns:dc="http://purl.org/dc/elements/1.1/"
   xmlns:cc="http://creativecommons.org/ns#"
   xmlns:rdf="http://www.w3.org/1999/02/22-rdf-syntax-ns#"
   xmlns:svg="http://www.w3.org/2000/svg"
   xmlns="http://www.w3.org/2000/svg"
   xmlns:sodipodi="http://sodipodi.sourceforge.net/DTD/sodipodi-0.dtd"
   xmlns:inkscape="http://www.inkscape.org/namespaces/inkscape"
   version="1.1"
   id="Layer_2"
   x="0px"
   y="0px"
   width="500mm"
   height="500mm"
   viewBox="0 0 1889.7637 1889.7638"
   enable-background="new 0 0 1000 344.9241333"
   xml:space="preserve"
   sodipodi:docname="comedycentral.svg"
   inkscape:version="0.92.4 (5da689c313, 2019-01-14)"><metadata
   id="metadata37"><rdf:RDF><cc:Work
       rdf:about=""><dc:format>image/svg+xml</dc:format><dc:type
         rdf:resource="http://purl.org/dc/dcmitype/StillImage" /><dc:title></dc:title></cc:Work></rdf:RDF></metadata><defs
   id="defs35" /><sodipodi:namedview
   pagecolor="#ffffff"
   bordercolor="#666666"
   borderopacity="1"
   objecttolerance="10"
   gridtolerance="10"
   guidetolerance="10"
   inkscape:pageopacity="0"
   inkscape:pageshadow="2"
   inkscape:window-width="1920"
   inkscape:window-height="1017"
   id="namedview33"
   showgrid="false"
   units="mm"
   inkscape:zoom="0.284"
   inkscape:cx="500"
   inkscape:cy="710.34351"
   inkscape:window-x="-8"
   inkscape:window-y="-8"
   inkscape:window-maximized="1"
   inkscape:current-layer="Layer_2" />














<g
   id="g54"
   transform="matrix(1.8141774,0,0,1.8141774,37.793172,-2170.6081)"><path
     style="clip-rule:evenodd;fill-rule:evenodd"
     inkscape:connector-curvature="0"
     id="path2"
     d="m 864.96881,1731.5598 -38.32324,132.7968 h 27.62695 l 4.01172,-16.9287 h 35.65234 l 3.56836,16.9287 h 28.06934 L 886.8067,1731.5598 Z m 11.1416,36.0957 c 0,1.7841 0.37403,4.457 1.11328,8.0253 0.74903,3.5606 1.41114,6.833 2.01172,9.8008 l 8.91211,38.7666 h -24.50976 l 9.35644,-38.7666 c 0.5918,-2.9678 1.26074,-6.2402 2.00098,-9.8008 0.74805,-3.5683 1.11523,-6.2412 1.11523,-8.0253 z" /><path
     style="clip-rule:evenodd;fill-rule:evenodd"
     inkscape:connector-curvature="0"
     id="path4"
     d="m 737.07532,1731.1164 v 133.2402 h 26.73926 v -42.3359 h 11.58398 l 17.82519,42.3359 h 26.29584 l -18.72357,-47.6807 c 5.64844,-3.8642 10.25391,-9.1386 13.82221,-15.8232 3.55957,-6.6846 5.34472,-14.3369 5.34472,-22.9453 v -3.124 c 0,-12.4727 -3.78613,-22.874 -11.36712,-31.1943 -7.57227,-8.3213 -17.30274,-12.4727 -29.1836,-12.4727 z m 26.73926,24.9541 h 12.9248 c 4.75195,0 8.76465,1.5596 12.02832,4.6758 3.26465,3.124 4.89941,7.9453 4.89941,14.4814 v 0.8985 c 0,7.4238 -1.63476,12.7763 -4.89941,16.04 -3.26367,3.2646 -7.27637,4.9004 -12.02832,4.9004 h -12.9248 z" /><path
     style="clip-rule:evenodd;fill-rule:evenodd"
     inkscape:connector-curvature="0"
     id="path6"
     d="m 808.37708,1570.6907 v 133.2397 h 42.77923 c 6.83301,0 13.14356,-1.3316 18.93945,-4.0039 5.79688,-2.6807 10.62012,-6.3877 14.48438,-11.1397 3.86426,-4.7612 6.91113,-10.7758 9.13965,-18.0522 2.22754,-7.2764 3.34179,-15.0757 3.34179,-23.397 v -24.0664 c 0,-7.4243 -1.11425,-14.4038 -3.34179,-20.9404 -2.22852,-6.5366 -5.27539,-12.1865 -9.13965,-16.9384 -3.86426,-4.753 -8.6875,-8.3902 -14.48438,-10.9141 -5.79687,-2.5244 -12.10644,-3.7876 -18.93945,-3.7876 z m 26.73919,24.9541 h 12.92481 c 3.85547,0 7.12793,0.5923 9.7998,1.7852 2.67285,1.1835 4.90039,2.9682 6.68457,5.3447 2.08008,2.6718 3.56934,5.7968 4.45801,9.3564 0.88769,3.5689 1.33887,7.5811 1.33887,12.0376 v 21.3843 c 0,5.6494 -0.45118,10.6191 -1.33887,14.9277 -0.88867,4.3081 -2.37793,7.9473 -4.45801,10.9238 -1.78418,2.3765 -4.01269,4.3091 -6.68457,5.7886 -2.67187,1.4888 -5.94433,2.2271 -9.7998,2.2271 h -12.92481 z" /><path
     style="clip-rule:evenodd;fill-rule:evenodd"
     inkscape:connector-curvature="0"
     id="path8"
     d="m 506.67603,1568.9187 c -6.23145,0 -11.65381,0.8169 -16.25831,2.4449 -4.60449,1.6362 -8.84326,3.7963 -12.70751,6.4682 -5.64014,5.0484 -10.09617,11.7324 -13.36863,20.0527 -3.26416,8.3208 -4.90088,18.7139 -4.90088,31.1949 v 16.041 c 0,12.7773 1.63672,23.4755 4.90088,32.0834 3.27246,8.6172 7.72849,15.1529 13.36863,19.6099 3.86425,2.9766 8.10253,5.2739 12.70751,6.9101 4.6045,1.6363 10.02686,2.4463 16.25831,2.4463 5.64941,0 10.77539,-0.81 15.37988,-2.4463 4.60449,-1.6362 8.83594,-3.9335 12.70117,-6.9101 5.94434,-4.4566 10.40039,-10.9927 13.36816,-19.6099 2.96778,-8.6079 4.45606,-19.1582 4.45606,-31.6396 v -16.4848 c 0,-12.4815 -1.48731,-22.8741 -4.45606,-31.1949 -2.96777,-8.3203 -7.42382,-15.0043 -13.36816,-20.0527 -3.86523,-2.6719 -8.09668,-4.832 -12.70117,-6.4682 -4.60449,-1.628 -9.73145,-2.4449 -15.37988,-2.4449 z m 0,24.9546 c 2.68066,0 5.05859,0.4429 7.13867,1.3394 2.08008,0.8877 3.85644,2.228 5.34472,4.0034 2.08008,2.3764 3.71582,6.0239 4.89844,10.9243 1.19336,4.9004 1.78516,11.5058 1.78516,19.8271 v 15.1533 c 0,8.3213 -0.5918,14.8589 -1.78516,19.6109 -1.18359,4.7524 -2.81836,8.3203 -4.89844,10.6963 -1.48828,2.08 -3.34277,3.6391 -5.57129,4.6748 -2.22851,1.0444 -4.53613,1.5571 -6.9121,1.5571 -2.96778,0 -5.63965,-0.5127 -8.01563,-1.5571 -2.37598,-1.0357 -4.30859,-2.5948 -5.79687,-4.6748 -2.08057,-2.3765 -3.70899,-5.9439 -4.90088,-10.6963 -1.19287,-4.752 -1.78369,-11.2901 -1.78369,-19.6109 v -15.1533 c 0,-8.3208 0.59082,-14.9267 1.78369,-19.8271 1.19238,-4.9004 2.8208,-8.5479 4.90088,-10.9243 1.48828,-1.7754 3.42041,-3.1157 5.79687,-4.0034 2.37598,-0.8965 5.04785,-1.3394 8.01563,-1.3394 z" /><polygon
     transform="translate(0,1544.8396)"
     style="clip-rule:evenodd;fill-rule:evenodd"
     id="polygon10"
     points="1000,319.51694 1000,295.0062 961.22363,295.0062 961.22363,186.27774 934.48737,186.27676 934.48737,319.51694 " /><polygon
     transform="translate(0,1544.8396)"
     style="clip-rule:evenodd;fill-rule:evenodd"
     id="polygon12"
     points="671.5578,211.21327 671.5578,319.49936 697.85266,319.49936 697.85266,211.21327 722.80676,211.21327 722.80676,186.25919 646.60272,186.25919 646.60272,211.21327 " /><polygon
     transform="translate(0,1544.8396)"
     style="clip-rule:evenodd;fill-rule:evenodd"
     id="polygon14"
     points="608.72675,264.26209 572.63202,186.27676 549.46216,186.27676 549.46216,319.51694 573.52069,319.51694 573.52069,242.42615 609.62421,319.51694 633.23749,319.51694 633.23749,186.27676 608.72675,186.27676 " /><polygon
     transform="translate(0,1544.8396)"
     style="clip-rule:evenodd;fill-rule:evenodd"
     id="polygon16"
     points="488.85425,239.30115 488.85425,211.23183 529.85864,211.23183 529.85864,186.27676 462.11844,186.27676 462.11844,319.51694 529.85864,319.51694 529.85864,295.0062 488.85425,295.0062 488.85425,264.26404 523.61841,264.26404 523.61841,239.30115 " /><path
     style="clip-rule:evenodd;fill-rule:evenodd"
     inkscape:connector-curvature="0"
     id="path18"
     d="m 392.5799,1760.0842 c 1.48828,-2.0811 3.34228,-3.4903 5.57031,-4.2393 2.22802,-0.7392 4.68261,-1.1142 7.35498,-1.1142 3.56833,0 7.05856,0.8964 10.47067,2.6728 3.42041,1.7842 6.16211,5.3525 8.24268,10.6963 l 23.62207,-9.8008 c -3.86426,-10.1045 -9.58301,-17.5293 -17.15528,-22.2812 -7.58105,-4.753 -15.97168,-7.1289 -25.18014,-7.1289 -5.64942,0 -10.91504,0.8877 -15.82422,2.6718 -4.90039,1.7842 -9.13037,4.1612 -12.69873,7.129 -5.64014,4.7519 -10.02686,11.289 -13.14307,19.6093 -3.12451,8.3213 -4.68261,18.7139 -4.68261,31.1953 v 16.4854 c 0,12.7773 1.5581,23.3261 4.68261,31.6386 3.11621,8.3213 7.50293,14.8574 13.14307,19.6094 3.56836,2.9775 7.79834,5.2051 12.69873,6.6845 4.90918,1.4883 10.1748,2.2286 15.82422,2.2286 9.80026,0 18.34762,-2.2979 25.62399,-6.9024 7.27637,-4.6045 12.84717,-11.5146 16.71143,-20.7236 l -23.62207,-10.6973 c -2.08057,5.3447 -4.75244,8.9131 -8.01661,10.6973 -3.27246,1.7842 -6.83251,2.6728 -10.69674,2.6728 -2.67237,0 -5.12696,-0.375 -7.35498,-1.1142 -2.22803,-0.7403 -4.08203,-2.1504 -5.57031,-4.2305 -2.08057,-2.0801 -3.70801,-5.5703 -4.90088,-10.4795 -1.19239,-4.9003 -1.78418,-11.5068 -1.78418,-19.8271 v -14.71 c 0,-8.913 0.59179,-15.7451 1.78418,-20.497 1.19287,-4.7529 2.82031,-8.1651 4.90088,-10.2442 z" /><polygon
     transform="translate(0,1544.8396)"
     style="clip-rule:evenodd;fill-rule:evenodd"
     id="polygon20"
     points="607.83612,25.842272 582.42987,25.842272 566.83221,159.08147 591.79511,159.08147 599.81073,86.44722 619.86444,159.08147 641.70331,159.08147 661.31268,86.44722 669.78241,159.08147 694.29211,159.08147 679.13886,25.842272 654.18475,25.842272 631.00604,109.61616 " /><polygon
     transform="translate(0,1544.8396)"
     style="clip-rule:evenodd;fill-rule:evenodd"
     id="polygon22"
     points="741.5304,78.431114 741.5304,50.804661 785.65051,50.804661 785.65051,25.850573 715.2345,25.851061 715.2345,159.09074 785.65051,159.09074 785.65051,134.58002 741.5304,134.58002 741.5304,103.83784 780.297,103.83784 780.297,78.431114 " /><polygon
     transform="translate(0,1544.8396)"
     style="clip-rule:evenodd;fill-rule:evenodd"
     id="polygon24"
     points="897.05963,25.8286 934.48737,94.902298 934.48737,159.06828 961.22559,159.06828 961.22559,94.902298 998.66113,25.8286 969.69434,25.8286 947.41211,67.711883 926.02643,25.8286 " /><path
     style="clip-rule:evenodd;fill-rule:evenodd"
     inkscape:connector-curvature="0"
     id="path26"
     d="m 392.5799,1599.2146 c 1.48828,-1.7754 3.34228,-3.1157 5.57031,-4.0039 2.22802,-0.8965 4.68261,-1.3403 7.35498,-1.3403 3.56833,0 7.05856,0.9663 10.47067,2.8984 3.42041,1.9321 6.16211,5.7188 8.24268,11.3589 l 23.62207,-10.6885 c -3.86426,-10.1054 -9.58301,-17.3818 -17.15528,-21.8383 -7.58105,-4.4561 -15.97168,-6.6846 -25.18014,-6.6846 -5.64942,0 -10.91504,0.8184 -15.82422,2.4458 -4.90039,1.6362 -9.13037,3.7949 -12.69873,6.4673 -5.64014,5.0483 -10.02686,11.7329 -13.14307,20.0537 -3.12451,8.3208 -4.68261,18.7133 -4.68261,31.1948 v 16.0415 c 0,12.7773 1.5581,23.4741 4.68261,32.0825 3.11621,8.6167 7.50293,15.1533 13.14307,19.6098 3.56836,2.9766 7.79834,5.2749 12.69873,6.9107 4.90918,1.6367 10.1748,2.4458 15.82422,2.4458 9.80026,0 18.34762,-2.2979 25.62399,-6.9019 7.27637,-4.6045 12.84717,-11.6631 16.71143,-21.1679 l -23.62207,-10.2534 c -2.08057,5.0483 -4.75244,8.6171 -8.01661,10.6967 -3.27246,2.0806 -6.83251,3.1162 -10.69674,3.1162 -2.67237,0 -5.12696,-0.5136 -7.35498,-1.5581 -2.22803,-1.0356 -4.08203,-2.5937 -5.57031,-4.6738 -2.08057,-2.3765 -3.70801,-5.9448 -4.90088,-10.6973 -1.19239,-4.7519 -1.78418,-11.289 -1.78418,-19.6098 v -15.1538 c 0,-8.3203 0.59179,-14.9272 1.78418,-19.8271 1.19287,-4.8999 2.82031,-8.5474 4.90088,-10.9234 z" /><path
     style="clip-rule:evenodd;fill:#fdc600;fill-rule:evenodd"
     inkscape:connector-curvature="0"
     id="path28"
     d="m 190.74014,1740.4621 c -3.86426,7.1289 -9.43506,12.8477 -16.71142,17.1553 -7.28514,4.3086 -15.23192,6.458 -23.84862,6.458 -12.76854,0 -23.69188,-4.5254 -32.75243,-13.586 -9.06102,-9.0615 -13.5869,-19.9843 -13.5869,-32.7529 0,-12.7773 4.52636,-23.7705 13.5869,-32.9789 9.06055,-9.209 19.98389,-13.813 32.75243,-13.813 8.6167,0 16.56348,2.2978 23.84862,6.9018 7.27636,4.6045 12.84716,10.3228 16.71142,17.1553 l 36.0952,-20.4976 c -7.4331,-13.3691 -17.97363,-24.1357 -31.63865,-32.309 -13.67383,-8.1641 -28.67089,-12.2549 -45.01854,-12.2549 -11.88085,0 -23.16991,2.3066 -33.86717,6.9106 -10.69726,4.6045 -19.975576,10.8452 -27.853018,18.7139 -7.868156,7.8764 -14.108391,17.1548 -18.713364,27.8525 -4.604492,10.6968 -6.910644,22.1343 -6.910644,34.3193 0,12.1768 2.306152,23.6133 6.910644,34.3106 4.604973,10.6972 10.845208,19.9755 18.713364,27.8535 7.876953,7.8769 17.155268,14.1084 27.853018,18.7128 10.69677,4.6045 21.98632,6.9112 33.86717,6.9112 16.0498,0 30.97703,-4.1602 44.78807,-12.4815 13.81297,-8.3125 24.43211,-19.0097 31.86522,-32.083 z" /><path
     style="clip-rule:evenodd;fill:#fdc600;fill-rule:evenodd"
     inkscape:connector-curvature="0"
     id="path30"
     d="m 322.64243,1716.8547 c 0,23.7705 -4.53467,46.2011 -13.59571,67.2978 -9.06054,21.0899 -21.31592,39.4365 -36.7651,55.0322 -15.44922,15.5977 -33.71875,27.9229 -54.80712,36.9834 -21.09813,9.0606 -43.52781,13.5957 -67.29733,13.5957 -32.0825,0 -61.424286,-8.1728 -88.013138,-24.5107 C 35.573711,1848.9162 14.860344,1827.5216 0,1801.0783 l 36.095196,-19.6094 c 10.992672,19.6094 26.73827,35.5029 47.237285,47.6894 20.506819,12.1768 42.788549,18.2696 66.845669,18.2696 17.82568,0 34.76316,-3.4209 50.8032,-10.2539 16.04149,-6.8321 29.93261,-16.1104 41.6655,-27.8525 11.7417,-11.7325 21.09815,-25.5459 28.0791,-41.4395 6.98096,-15.8926 10.47071,-32.9004 10.47071,-51.0288 v 0.8965 c 0,-18.1299 -3.49024,-35.1377 -10.47071,-51.0288 -6.98047,-15.8935 -16.33691,-29.706 -28.0791,-41.4394 -11.73289,-11.7412 -25.62401,-21.02 -41.6655,-27.8525 -16.04101,-6.8325 -32.97898,-10.2529 -50.8032,-10.2529 -24.05761,0 -46.33836,6.0927 -66.845669,18.2695 -20.497551,12.1855 -36.24266,28.0791 -47.237285,47.6894 L 0,1633.5247 c 14.857414,-26.4424 35.572735,-47.8355 62.164032,-64.1748 26.590317,-16.3369 55.932098,-24.5103 88.013138,-24.5103 23.77,0 46.20116,4.5347 67.29733,13.5957 21.08983,9.0606 39.35887,21.3853 54.80712,36.9829 15.44967,15.5977 27.70504,33.9448 36.7651,55.0332 9.06104,21.0981 13.59571,43.5278 13.59571,67.2973 z" /></g>
</svg>