<?xml version="1.0" encoding="UTF-8" standalone="no"?>
<svg
   xmlns:dc="http://purl.org/dc/elements/1.1/"
   xmlns:cc="http://creativecommons.org/ns#"
   xmlns:rdf="http://www.w3.org/1999/02/22-rdf-syntax-ns#"
   xmlns:svg="http://www.w3.org/2000/svg"
   xmlns="http://www.w3.org/2000/svg"
   xmlns:sodipodi="http://sodipodi.sourceforge.net/DTD/sodipodi-0.dtd"
   xmlns:inkscape="http://www.inkscape.org/namespaces/inkscape"
   width="500mm"
   height="500mm"
   viewBox="0 0 1889.7637 1889.7637"
   version="1.1"
   id="svg48"
   sodipodi:docname="crimen_investigacion.svg"
   inkscape:version="0.92.4 (5da689c313, 2019-01-14)">
  <metadata
     id="metadata52">
    <rdf:RDF>
      <cc:Work
         rdf:about="">
        <dc:format>image/svg+xml</dc:format>
        <dc:type
           rdf:resource="http://purl.org/dc/dcmitype/StillImage" />
        <dc:title>Crimen + Investigación 2017</dc:title>
      </cc:Work>
    </rdf:RDF>
  </metadata>
  <sodipodi:namedview
     pagecolor="#ffffff"
     bordercolor="#666666"
     borderopacity="1"
     objecttolerance="10"
     gridtolerance="10"
     guidetolerance="10"
     inkscape:pageopacity="0"
     inkscape:pageshadow="2"
     inkscape:window-width="1920"
     inkscape:window-height="1017"
     id="namedview50"
     showgrid="false"
     units="mm"
     inkscape:zoom="0.20081833"
     inkscape:cx="-80.662362"
     inkscape:cy="21.886312"
     inkscape:window-x="-8"
     inkscape:window-y="-8"
     inkscape:window-maximized="1"
     inkscape:current-layer="svg48" />
  <defs
     id="defs4">
    <style
       id="style2">.a{fill:#e51b2e;}.b{fill:#102b34;}</style>
  </defs>
  <title
     id="title6">Crimen + Investigación 2017</title>
  <g
     id="g882"
     transform="matrix(1.8141754,0,0,1.8141754,37.794207,-1946.497)">
    <polygon
       transform="translate(0,1297.7769)"
       style="fill:#e51b2e"
       id="polygon8"
       points="1000,88.711 942.444,88.561 942.415,31.155 931.624,31.155 931.624,88.561 873.858,88.561 873.858,99.382 931.624,99.382 931.624,156.909 942.444,156.909 942.444,99.382 1000,99.503 "
       class="a" />
    <rect
       style="fill:#102b34"
       id="rect10"
       height="183.45996"
       width="45.474121"
       y="1501.981"
       x="3.5385699"
       class="b" />
    <polygon
       transform="translate(0,1297.7769)"
       style="fill:#102b34"
       id="polygon12"
       points="431.221,387.664 559.821,387.664 559.821,350.103 476.696,350.103 476.696,313.561 551.458,313.561 551.458,276.509 476.696,276.509 476.696,241.525 559.283,241.525 559.283,204.204 431.221,204.204 "
       class="b" />
    <path
       style="fill:#102b34"
       inkscape:connector-curvature="0"
       id="path14"
       d="m 571.72363,1655.3438 c 17.29688,24.4614 44.96582,33.2148 76.74121,33.2148 37.32129,0 72.9043,-20.0844 72.9043,-59.9843 0,-28.5684 -17.53711,-44.2456 -43.4375,-50.9312 l -28.47754,-7.7339 c -13.70019,-3.5971 -24.6123,-7.1943 -24.6123,-17.7461 0,-12.6211 11.42285,-17.2671 24.6123,-17.2671 14.23828,0 29.498,5.4258 38.37012,16.9971 l 28.71778,-25.2104 c -16.00683,-19.8155 -35.07226,-27.7891 -67.08789,-27.7891 -40.10937,0 -69.09668,24.7012 -69.09668,58.9351 0,29.5874 18.28613,43.9755 42.957,50.6914 l 31.23535,8.2133 c 11.18165,3.0879 20.32422,7.1944 20.32422,18.5264 0,12.8599 -14.749,17.2666 -28.44726,17.2666 -19.06543,0 -36.60254,-9.8027 -45.98535,-23.1728 l -28.71778,25.9902"
       class="b" />
    <polygon
       transform="translate(0,1297.7769)"
       style="fill:#102b34"
       id="polygon16"
       points="829.286,387.604 829.286,240.926 881.866,240.926 881.866,204.144 728.684,204.144 728.684,240.926 783.812,240.926 783.812,387.604 "
       class="b" />
    <rect
       style="fill:#102b34"
       id="rect18"
       height="183.46045"
       width="45.473629"
       y="1501.9209"
       x="897.24512"
       class="b" />
    <polygon
       transform="translate(0,1297.7769)"
       style="fill:#102b34"
       id="polygon20"
       points="225.878,204.324 225.878,204.204 180.402,204.204 180.402,303.428 115.771,204.324 71.825,204.324 71.825,387.784 117.301,387.784 117.301,284.603 183.699,387.784 225.878,387.784 "
       class="b" />
    <polygon
       transform="translate(0,1297.7769)"
       style="fill:#102b34"
       id="polygon22"
       points="707.37,40.41 707.37,3.088 581.886,3.088 581.886,186.548 707.908,186.548 707.908,148.986 627.361,148.986 627.361,112.444 699.545,112.444 699.545,75.393 627.361,75.393 627.361,40.41 "
       class="b" />
    <polygon
       transform="translate(0,1297.7769)"
       style="fill:#102b34"
       id="polygon24"
       points="874.162,3.268 874.162,3.148 828.688,3.148 828.688,104.98 764.057,3.268 720.11,3.268 720.11,186.728 765.585,186.728 765.585,84.416 830.426,186.728 874.162,186.728 "
       class="b" />
    <path
       style="fill:#102b34"
       inkscape:connector-curvature="0"
       id="path26"
       d="m 0.12061,1421.2833 c 0,45.8046 37.32128,66.1293 77.2207,66.1293 35.04346,0 72.394,-18.0166 72.394,-60.2241 v -8.9936 h -42.686 v 4.3774 c 0,19.0347 -15.46973,27.2784 -29.439,27.2784 -18.55469,0 -32.01514,-10.8213 -32.01514,-29.5874 v -55.5767 c 0,-20.8643 15.46778,-29.3477 31.47706,-29.3477 13.999,0 29.977,7.9736 29.977,27.2793 v 4.1065 h 42.686 v -8.4839 c 1.2e-4,-42.4473 -38.36951,-60.4639 -73.41296,-60.4639 -40.13916,0 -76.20166,22.3633 -76.20166,67.4194 v 56.087"
       class="b" />
    <path
       style="fill:#102b34"
       inkscape:connector-curvature="0"
       id="path28"
       d="m 274.32031,1412.7984 c 23.38282,-9.7725 34.05323,-31.6548 34.05323,-54.0479 0,-33.9643 -23.62061,-57.8852 -64.77881,-57.8852 H 164.334 v 183.46 h 45.47608 v -64.8414 h 20.56348 l 35.82324,64.8413 H 315.749 Z M 237.749,1385.5201 H 209.81 v -48.623 h 27.939 c 16.24756,0 26.43848,8.4838 26.43848,24.1914 2e-5,14.8989 -9.92234,24.4316 -26.43848,24.4316 z"
       class="b" />
    <rect
       style="fill:#102b34"
       id="rect30"
       height="183.45996"
       width="45.47607"
       y="1300.8652"
       x="326.09033"
       class="b" />
    <polygon
       transform="translate(0,1297.7769)"
       style="fill:#102b34"
       id="polygon32"
       points="569.445,186.548 569.445,3.088 513.837,3.088 477.745,97.786 477.236,97.786 440.395,3.088 384.006,3.088 384.006,186.548 425.914,186.548 425.914,69.997 426.425,69.997 461.229,161.847 492.494,161.847 527.026,69.728 527.537,69.728 527.537,186.548 "
       class="b" />
    <path
       style="fill:#102b34"
       inkscape:connector-curvature="0"
       id="path34"
       d="m 150.63574,1766.0196 v -6.7149 a 55.56964,55.56964 0 0 0 -6.686,-27.3696 53.72952,53.72952 0 0 0 -17.32666,-18.4658 c -13.15869,-8.8428 -31.02539,-13.729 -50.30078,-13.729 -20.74463,0 -39.65967,5.9951 -53.23926,16.8467 C 7.97363,1728.6973 0,1746.2344 0,1767.3086 v 56.087 c 0,21.2539 8.15479,38.6699 23.59131,50.331 13.58008,10.2822 32.67627,15.918 53.75,15.918 19.00488,0 36.69189,-5.0664 49.79248,-14.2988 15.37793,-10.792 23.50195,-26.7403 23.50195,-45.6553 v -42.5674 H 70.47656 v 33.9639 h 36.57276 v 4.6172 c 0,19.3046 -12.68116,27.0087 -29.439,27.0087 -18.55469,0 -32.01514,-11.5712 -32.01514,-30.3369 v -56.626 c 0,-20.835 16.24708,-29.3178 32.01514,-29.3178 13.96924,0 30.21875,6.9243 30.21875,25.9897 v 3.5977 z"
       class="b" />
    <rect
       style="fill:#102b34"
       id="rect36"
       height="183.48975"
       width="45.984379"
       y="1702.9771"
       x="530.89453"
       class="b" />
    <polygon
       transform="translate(0,1297.7769)"
       style="fill:#102b34"
       id="polygon38"
       points="942.989,588.72 942.989,405.141 942.719,405.141 897.245,405.141 897.245,504.365 828.566,405.23 784.381,405.23 784.381,588.72 830.097,588.72 830.097,485.54 900.571,588.72 "
       class="b" />
    <path
       style="fill:#102b34"
       inkscape:connector-curvature="0"
       id="path40"
       d="m 500.79688,1768.837 h 0.12109 v -8.4834 c 0,-19.4248 -8.18457,-35.4034 -23.62305,-46.2549 -13.15918,-9.2627 -30.90625,-14.3584 -49.91113,-14.3584 -20.77441,0 -39.66016,5.9951 -53.23926,16.8467 -15.10937,12.1103 -23.1123,29.6474 -23.1123,50.7216 v 56.087 c 0,21.2236 8.18359,38.6396 23.71191,50.331 13.58008,10.2822 32.64551,15.918 53.62891,15.918 18.94433,0 36.48242,-5.0664 49.43261,-14.2988 15.10743,-10.7617 23.11231,-26.6797 23.11231,-46.0449 v -8.9932 h -42.80664 v 4.3769 c 0,19.0352 -15.499,27.2784 -29.46875,27.2784 -18.55664,0 -32.01563,-10.8213 -32.01563,-29.6162 v -55.5479 c 0,-20.8643 15.499,-29.3472 31.50684,-29.3472 13.96973,0 29.97754,7.9732 29.97754,27.2788 v 4.1065 z"
       class="b" />
    <path
       style="fill:#102b34"
       inkscape:connector-curvature="0"
       id="path42"
       d="m 760.78906,1685.3804 -42.14843,0.1206 -9.02344,18.5547 a 100.12778,100.12778 0 0 0 -30.09571,-4.437 c -20.35546,0 -39.18066,6.1768 -52.9707,17.3272 -15.52832,12.5913 -23.74121,30.727 -23.74121,52.4008 v 53 c 0,21.3135 7.375,39.2696 23.59082,51.5596 13.66992,10.3721 32.376,15.8574 54.13965,15.8574 20.20508,0 38.91016,-5.9648 52.70019,-16.8164 15.88672,-12.5312 24.28125,-30.8164 24.28125,-52.9101 v -50.961 c 0,-21.043 -7.55468,-38.6406 -21.82421,-50.8701 z m -49.01269,136.2163 c 0,18.4961 -12.56055,30.0977 -31.23633,30.0977 -18.55566,0 -32.01465,-10.793 -32.01465,-30.3672 v -53.7783 c 0,-18.8857 12.25977,-30.0981 31.26465,-30.0981 16.99805,0 31.98633,10.5512 31.98633,29.8579 z"
       class="b" />
    <path
       style="fill:#102b34"
       inkscape:connector-curvature="0"
       id="path44"
       d="m 275.28076,1702.9761 h -47.99365 l -73.62354,183.4614 h 45.80372 l 12.62109,-34.1738 h 74.52344 l 12.61918,34.1738 h 48.3833 z m -49.88183,113.2544 23.53125,-63.7314 H 249.77 l 23.53125,63.7314 z"
       class="b" />
    <polygon
       transform="translate(0,1297.7769)"
       style="fill:#102b34"
       id="polygon46"
       points="330.648,333.585 329.869,333.585 288.83,204.144 241.465,204.144 304.718,387.664 351.541,387.664 415.663,204.144 371.688,204.144 "
       class="b" />
  </g>
</svg>
