<?xml version="1.0" encoding="UTF-8" standalone="no"?>
<svg
   xmlns:dc="http://purl.org/dc/elements/1.1/"
   xmlns:cc="http://creativecommons.org/ns#"
   xmlns:rdf="http://www.w3.org/1999/02/22-rdf-syntax-ns#"
   xmlns:svg="http://www.w3.org/2000/svg"
   xmlns="http://www.w3.org/2000/svg"
   xmlns:sodipodi="http://sodipodi.sourceforge.net/DTD/sodipodi-0.dtd"
   xmlns:inkscape="http://www.inkscape.org/namespaces/inkscape"
   width="500mm"
   height="500mm"
   viewBox="0 0 1889.7637 1889.7637"
   version="1.1"
   id="svg12"
   sodipodi:docname="dark.svg"
   inkscape:version="0.92.4 (5da689c313, 2019-01-14)">
  <metadata
     id="metadata18">
    <rdf:RDF>
      <cc:Work
         rdf:about="">
        <dc:format>image/svg+xml</dc:format>
        <dc:type
           rdf:resource="http://purl.org/dc/dcmitype/StillImage" />
        <dc:title>Serbia</dc:title>
      </cc:Work>
    </rdf:RDF>
  </metadata>
  <defs
     id="defs16" />
  <sodipodi:namedview
     pagecolor="#ffffff"
     bordercolor="#666666"
     borderopacity="1"
     objecttolerance="10"
     gridtolerance="10"
     guidetolerance="10"
     inkscape:pageopacity="0"
     inkscape:pageshadow="2"
     inkscape:window-width="1920"
     inkscape:window-height="1017"
     id="namedview14"
     showgrid="false"
     units="mm"
     inkscape:zoom="0.284"
     inkscape:cx="-100.35211"
     inkscape:cy="133.36201"
     inkscape:window-x="-8"
     inkscape:window-y="-8"
     inkscape:window-maximized="1"
     inkscape:current-layer="svg12" />
  <title
     id="title2">Serbia</title>
  <g
     id="g832"
     transform="matrix(1.81418,0,0,1.81418,37.791873,-2241.5472)">
    <path
       inkscape:connector-curvature="0"
       id="path4"
       d="m 68.02287,1679.2786 v 148.4937 H 94.102 c 25.59184,0 30.22884,-15.8991 30.22884,-24.3363 v -98.1825 c 0,-9.1346 -8.925,-25.9749 -30.22884,-25.9749 z M 0,1623.0398 h 102.40033 c 62.75915,0 94.417,46.3716 94.417,100.0302 v 58.4701 c 0,61.12 -28.10186,108.2237 -95.56718,108.2237 H 0 Z" />
    <polygon
       transform="translate(0,1623.0398)"
       id="polygon6"
       points="371.548,0 468.195,266.724 396.999,266.724 382.251,225.373 311.543,225.373 297.178,266.724 225.285,266.724 321.969,0 " />
    <path
       inkscape:connector-curvature="0"
       id="path8"
       d="m 510.15023,1623.0398 h 104.771 c 35.84262,0 53.76392,7.322 69.97641,23.5345 14.85267,14.8532 25.17261,34.4823 25.17261,61.6079 0,20.2222 -7.147,52.6126 -42.85025,68.5815 l 59.96925,113.0001 h -77.332 l -47.1042,-100.5878 h -20.81438 v 100.5878 h -71.78844 z" />
    <polygon
       transform="translate(0,1623.0398)"
       id="polygon10"
       points="839.548,182.802 839.548,266.724 770.967,266.724 770.967,0 839.548,0 839.548,93.964 915.416,0 995.468,0 906.072,106.237 1000,266.724 923.575,266.724 862.002,156.931 " />
  </g>
</svg>
