<?xml version="1.0" encoding="UTF-8" standalone="no"?>
<svg
   xmlns:dc="http://purl.org/dc/elements/1.1/"
   xmlns:cc="http://creativecommons.org/ns#"
   xmlns:rdf="http://www.w3.org/1999/02/22-rdf-syntax-ns#"
   xmlns:svg="http://www.w3.org/2000/svg"
   xmlns="http://www.w3.org/2000/svg"
   xmlns:sodipodi="http://sodipodi.sourceforge.net/DTD/sodipodi-0.dtd"
   xmlns:inkscape="http://www.inkscape.org/namespaces/inkscape"
   version="1.0"
   x="0px"
   y="0px"
   width="500mm"
   height="500mm"
   viewBox="0 0 1889.7637 1889.7638"
   xml:space="preserve"
   class="decasa-icon-svg"
   id="svg40"
   sodipodi:docname="decasa.svg"
   inkscape:version="0.92.4 (5da689c313, 2019-01-14)"><metadata
   id="metadata44"><rdf:RDF><cc:Work
       rdf:about=""><dc:format>image/svg+xml</dc:format><dc:type
         rdf:resource="http://purl.org/dc/dcmitype/StillImage" /><dc:title></dc:title></cc:Work></rdf:RDF></metadata><sodipodi:namedview
   pagecolor="#ffffff"
   bordercolor="#666666"
   borderopacity="1"
   objecttolerance="10"
   gridtolerance="10"
   guidetolerance="10"
   inkscape:pageopacity="0"
   inkscape:pageshadow="2"
   inkscape:window-width="1920"
   inkscape:window-height="1017"
   id="namedview42"
   showgrid="false"
   units="mm"
   inkscape:zoom="0.32"
   inkscape:cx="238.27652"
   inkscape:cy="864.95829"
   inkscape:window-x="-8"
   inkscape:window-y="-8"
   inkscape:window-maximized="1"
   inkscape:current-layer="svg40" />
<defs
   id="defs2" />



<defs
   id="defs14">
<filter
   filterUnits="userSpaceOnUse"
   x="150.39999"
   y="22.799999"
   width="18.1"
   height="18.5"
   id="filter12">
<feColorMatrix
   type="matrix"
   values="1 0 0 0 0  0 1 0 0 0  0 0 1 0 0  0 0 0 1 0"
   id="feColorMatrix10" />
</filter>
</defs>
<mask
   maskUnits="userSpaceOnUse"
   x="150.4"
   y="22.8"
   width="18.1"
   height="18.5"
   id="mask20">
<g
   id="g18">
<path
   d="M 168.6,22.8 V 41.3 H 150.5 V 22.8 Z"
   id="path16"
   inkscape:connector-curvature="0" />
</g>
</mask>

<defs
   id="defs28">
<filter
   filterUnits="userSpaceOnUse"
   x="0"
   y="0"
   width="59.099998"
   height="59.099998"
   id="filter26">
<feColorMatrix
   type="matrix"
   values="1 0 0 0 0  0 1 0 0 0  0 0 1 0 0  0 0 0 1 0"
   id="feColorMatrix24" />
</filter>
</defs>
<mask
   maskUnits="userSpaceOnUse"
   x="0"
   y="0"
   width="59.1"
   height="59.1"
   id="mask34">
<g
   id="g32">
<path
   d="M 0,59.1 H 168.6 V 0 H 0 Z"
   id="path30"
   inkscape:connector-curvature="0" />
</g>
</mask>


<g
   id="g897"
   transform="matrix(10.325273,0,0,10.325273,37.795565,639.77007)"><path
     id="path36"
     d="M 0,59.1 H 59.1 V 0 H 0 Z"
     style="fill:#56c0b4;fill-opacity:1"
     class="logo-icon-bg"
     inkscape:connector-curvature="0" /><path
     id="path6"
     d="m 141.1,23.7 c -1.1,0.8 -1.8,1.9 -2,3.2 -0.3,1.8 0,3.1 0.9,4 0.4,0.4 0.8,0.7 1.2,1 0.4,0.3 0.8,0.6 1.3,0.8 v 0 c 0.4,0.2 0.8,0.4 1.2,0.7 0.4,0.2 0.7,0.4 1,0.7 0.2,0.1 0.7,0.5 0.4,1.9 -0.1,0.6 -0.4,1.1 -0.9,1.4 -0.5,0.4 -1.1,0.5 -1.7,0.4 -0.6,-0.1 -1,-0.4 -1.4,-0.8 l -0.6,-0.8 -2.9,2.1 0.6,0.8 c 1,1.3 2.2,2 3.8,2.2 h 0.1 c 1.5,0.1 2.9,-0.2 4.1,-0.8 l 0.1,-0.1 c 1.4,-0.9 2.1,-2.2 2.4,-3.8 0.3,-1.9 0,-3.3 -0.8,-4.3 -0.7,-0.8 -1.5,-1.4 -2.5,-2.1 -0.8,-0.5 -1.6,-0.9 -2.3,-1.4 -0.2,-0.2 -0.5,-0.5 -0.4,-1.4 0.1,-0.4 0.2,-0.6 0.6,-0.9 0.3,-0.2 0.7,-0.3 1.1,-0.2 0.4,0.1 0.7,0.3 1,0.6 l 0.5,0.7 2.9,-2.1 -0.5,-0.8 c -0.8,-1.1 -1.9,-1.8 -3.3,-2.1 v 0 0 c -1.5,0 -2.8,0.3 -3.9,1.1"
     style="fill:#6d6d70;fill-opacity:1"
     class="logo-icon-letters"
     inkscape:connector-curvature="0" /><path
     id="path8"
     d="m 79.1,17.6 h 3.6 v 15.8 c 0,2.3 -0.8,4.2 -2.4,5.8 v 0 0 c -1.6,1.4 -3.6,2.2 -5.8,2.2 -2.2,0 -4.2,-0.7 -5.8,-2.2 v 0 0 C 67.1,37.6 66.3,35.7 66.3,33.4 V 31 c 0,-2.3 0.8,-4.2 2.4,-5.8 1.6,-1.6 3.6,-2.4 5.8,-2.4 1.3,0 2.5,0.3 3.5,0.9 0.4,0.2 0.7,0.4 1.1,0.7 z m -7.8,19 c 0.9,0.9 2,1.4 3.3,1.4 1.3,0 2.3,-0.4 3.2,-1.3 0.9,-0.9 1.4,-2 1.4,-3.3 V 31 c 0,-1.3 -0.4,-2.3 -1.4,-3.2 -0.9,-0.9 -2,-1.4 -3.2,-1.4 -1.3,0 -2.3,0.4 -3.3,1.4 -0.9,0.9 -1.4,2 -1.4,3.2 v 2.3 c 0,1.3 0.5,2.4 1.4,3.3 z M 87,25.3 c -1.6,1.6 -2.4,3.5 -2.4,5.8 v 2.3 c 0,2.3 0.8,4.2 2.4,5.8 v 0 0 c 1.6,1.4 3.5,2.2 5.8,2.2 2.3,0 4.3,-0.8 5.9,-2.3 l 0.7,-0.7 -2.6,-2.6 -0.7,0.7 C 95.2,37.5 94,38 92.7,38 91.5,38 90.4,37.6 89.4,36.7 88.6,35.9 88.2,35.1 88.1,34.1 H 101 v -3 c 0,-2.3 -0.8,-4.2 -2.4,-5.8 -1.6,-1.6 -3.5,-2.4 -5.8,-2.4 -2.2,-0.1 -4.2,0.7 -5.8,2.4 m 2.6,2.5 c 0.9,-0.9 2,-1.4 3.3,-1.4 1.3,0 2.3,0.4 3.2,1.4 0.8,0.8 1.2,1.6 1.3,2.6 h -9.1 c 0.1,-1 0.5,-1.9 1.3,-2.6 m 15.6,-2.5 c -1.6,1.6 -2.4,3.5 -2.4,5.8 v 2.3 c 0,2.3 0.8,4.2 2.4,5.8 v 0 0 c 1.6,1.4 3.5,2.2 5.8,2.2 2.3,0 4.3,-0.8 5.9,-2.3 l 0.7,-0.7 -2.6,-2.6 -0.7,0.7 c -1,1 -2.1,1.5 -3.4,1.5 -1.3,0 -2.3,-0.4 -3.3,-1.3 -0.9,-0.9 -1.4,-2 -1.4,-3.3 V 31 c 0,-1.3 0.4,-2.3 1.4,-3.2 0.9,-0.9 2,-1.4 3.3,-1.4 1.4,0 2.5,0.5 3.4,1.5 l 0.7,0.7 2.5,-2.5 -0.6,-0.7 c -1.6,-1.7 -3.6,-2.6 -5.9,-2.6 -2.2,0 -4.2,0.8 -5.8,2.5 m 15.8,0 c -1.6,1.6 -2.4,3.5 -2.4,5.8 v 2.3 c 0,2.3 0.8,4.2 2.4,5.8 v 0 0 c 1.6,1.4 3.5,2.2 5.8,2.2 1.2,0 2.4,-0.3 3.5,-0.7 0.6,-0.3 1.2,-0.7 1.8,-1.1 0.2,0.3 0.4,0.6 0.7,0.9 0.7,0.6 1.6,0.9 2.6,0.9 h 1.3 V 37.8 H 136 c -0.9,0 -1,-1 -1,-1.7 v -5 c 0,-2.3 -0.8,-4.2 -2.4,-5.8 -1.6,-1.6 -3.5,-2.4 -5.8,-2.4 -2.2,-0.1 -4.2,0.7 -5.8,2.4 m 1.2,8 V 31 c 0,-1.3 0.4,-2.3 1.4,-3.2 0.9,-0.9 2,-1.4 3.3,-1.4 1.3,0 2.3,0.4 3.2,1.4 0.9,0.9 1.4,2 1.4,3.2 v 2.3 c 0,1.3 -0.4,2.3 -1.4,3.3 -0.9,0.9 -2,1.4 -3.2,1.4 -1.2,0 -2.3,-0.4 -3.3,-1.3 -1,-1 -1.4,-2.1 -1.4,-3.4"
     style="fill:#6d6d70;fill-opacity:1"
     class="logo-icon-letters"
     inkscape:connector-curvature="0" /><path
     id="path22"
     d="m 152.8,25.3 c -1.6,1.6 -2.4,3.5 -2.4,5.8 v 2.3 c 0,2.3 0.8,4.2 2.4,5.8 v 0 0 c 1.6,1.4 3.5,2.2 5.8,2.2 1.2,0 2.4,-0.2 3.5,-0.7 0.6,-0.3 1.2,-0.7 1.8,-1.1 0.2,0.3 0.4,0.6 0.7,0.9 0.7,0.6 1.6,0.9 2.6,0.9 h 1.3 v -3.6 h -0.7 c -0.9,0 -1,-1 -1,-1.7 v -5 c 0,-2.3 -0.8,-4.2 -2.4,-5.8 -1.6,-1.6 -3.6,-2.4 -5.8,-2.4 -2.2,-0.1 -4.1,0.7 -5.8,2.4 m 1.2,8 V 31 c 0,-1.3 0.4,-2.3 1.4,-3.2 0.9,-0.9 2,-1.4 3.3,-1.4 1.3,0 2.3,0.4 3.2,1.4 0.9,0.9 1.4,2 1.4,3.2 v 2.3 c 0,1.3 -0.4,2.3 -1.4,3.3 -0.9,0.9 -2,1.4 -3.2,1.4 -1.3,0 -2.3,-0.4 -3.3,-1.3 -0.9,-1 -1.4,-2.1 -1.4,-3.4"
     style="fill:#6d6d70;fill-opacity:1"
     class="logo-icon-letters"
     inkscape:connector-curvature="0" /><path
     id="path38"
     d="m 29.5,22.5 7.4,6.7 V 36 H 33.5 V 29.5 H 25.8 V 36 h -3.7 v -6.8 z m -0.1,-3.2 -9.6,8.8 v 10.2 h 8.3 v -6.6 h 3 v 6.6 h 8 V 28.1 Z m 0.24,-8.14 c -10.2,0 -18.46,8.27 -18.46,18.46 0,10.2 8.26,18.47 18.46,18.47 10.19,0 18.46,-8.27 18.46,-18.47 0,-10.19 -8.27,-18.46 -18.46,-18.46 z m 0,34.4 c -8.8,0 -15.93,-7.14 -15.93,-15.939 0,-8.79 7.13,-15.93 15.93,-15.93 8.8,0 15.93,7.14 15.93,15.93 0,8.799 -7.13,15.939 -15.93,15.939 z"
     style="fill:#ffffff;fill-opacity:1"
     class="logo-icon-icon"
     inkscape:connector-curvature="0" /><rect
     y="16.298828"
     x="59.082031"
     height="17.199707"
     width="7.2021484"
     id="rect59"
     style="opacity:1;fill:none;fill-opacity:1;stroke:none;stroke-width:7.32126951;stroke-miterlimit:4;stroke-dasharray:none;stroke-opacity:1" /><rect
     y="24.200293"
     x="168.5"
     height="17.199707"
     width="7.2021484"
     id="rect59-8"
     style="opacity:1;fill:none;fill-opacity:1;stroke:none;stroke-width:7.32126951;stroke-miterlimit:4;stroke-dasharray:none;stroke-opacity:1" /></g></svg>