<?xml version="1.0" encoding="UTF-8" standalone="no"?>
<svg
   xmlns:dc="http://purl.org/dc/elements/1.1/"
   xmlns:cc="http://creativecommons.org/ns#"
   xmlns:rdf="http://www.w3.org/1999/02/22-rdf-syntax-ns#"
   xmlns:svg="http://www.w3.org/2000/svg"
   xmlns="http://www.w3.org/2000/svg"
   xmlns:sodipodi="http://sodipodi.sourceforge.net/DTD/sodipodi-0.dtd"
   xmlns:inkscape="http://www.inkscape.org/namespaces/inkscape"
   width="500mm"
   height="500mm"
   viewBox="0 0 1417.3229 1417.3228"
   version="1.1"
   id="svg17"
   sodipodi:docname="discovery_max.svg"
   inkscape:version="0.92.4 (5da689c313, 2019-01-14)">
  <metadata
     id="metadata23">
    <rdf:RDF>
      <cc:Work
         rdf:about="">
        <dc:format>image/svg+xml</dc:format>
        <dc:type
           rdf:resource="http://purl.org/dc/dcmitype/StillImage" />
        <dc:title></dc:title>
      </cc:Work>
    </rdf:RDF>
  </metadata>
  <defs
     id="defs21" />
  <sodipodi:namedview
     pagecolor="#ffffff"
     bordercolor="#666666"
     borderopacity="1"
     objecttolerance="10"
     gridtolerance="10"
     guidetolerance="10"
     inkscape:pageopacity="0"
     inkscape:pageshadow="2"
     inkscape:window-width="1920"
     inkscape:window-height="1017"
     id="namedview19"
     showgrid="false"
     inkscape:pagecheckerboard="true"
     units="mm"
     inkscape:zoom="0.28783784"
     inkscape:cx="85.683667"
     inkscape:cy="758.40756"
     inkscape:window-x="-8"
     inkscape:window-y="-8"
     inkscape:window-maximized="1"
     inkscape:current-layer="svg17" />
  <g
     id="g37"
     transform="matrix(7.4396942,0,0,7.4396942,20.981961,-9835.9043)">
    <path
       d="M 0.99,1383.3386 H 183.8 c 0.14,22.67 0.05,45.33 0.04,68 H 1 v -0.99 c 60.77,-0.04 121.54,0.02 182.31,-0.03 0.13,-21.98 0.04,-43.97 0.04,-65.96 -60.79,-0.06 -121.57,0.01 -182.36,-0.03 z"
       id="path2"
       inkscape:connector-curvature="0"
       style="opacity:0.73000004;fill:#0c1536" />
    <path
       d="m 0.99,1384.3286 c 60.79,0.04 121.57,-0.03 182.36,0.03 0,21.99 0.09,43.98 -0.04,65.96 -60.77,0.05 -121.54,-0.01 -182.31,0.03 0,-22.01 0.01,-44.01 -0.01,-66.02 m 15.81,14.56 c 0,9.5 0,19 0,28.5 0.05,2.78 -0.32,5.63 0.53,8.34 8.48,-0.8 17.72,1.59 25.54,-2.73 7.24,-4.28 8.7,-13.94 7,-21.53 -1.27,-6.64 -7.24,-11.79 -13.93,-12.39 -6.36,-0.49 -12.76,-0.15 -19.14,-0.19 m 35.95,-0.01 c 0.02,12.24 -0.02,24.48 0.02,36.71 13.54,0.04 27.08,0.01 40.61,0.02 0.08,-12.25 0.01,-24.5 0.04,-36.75 -4.67,0.07 -9.35,-0.2 -14.01,0.1 -2.41,6.36 -3.98,13.01 -6.42,19.36 -2.05,-6.45 -4.2,-12.87 -6,-19.4 -4.75,-0.13 -9.5,-0.08 -14.24,-0.04 m 41.59,36.72 c 12.25,0.02 24.5,0.02 36.75,0 -4.07,-12.42 -8.95,-24.56 -13.52,-36.8 -3.23,0.06 -6.46,0.05 -9.68,0.07 -4.39,12.29 -9.19,24.43 -13.55,36.73 m 38.62,-36.68 c 3.96,5.8 7.98,11.55 11.87,17.4 -4.23,6.44 -8.81,12.66 -12.79,19.26 12.26,0.05 24.52,0.04 36.78,0.01 -3.76,-5.87 -7.69,-11.62 -11.6,-17.39 -0.61,-0.83 -1.42,-2.07 -0.52,-3.02 3.73,-5.4 7.34,-10.9 11.13,-16.26 -11.62,-0.12 -23.25,-0.11 -34.87,0 z"
       id="path5"
       inkscape:connector-curvature="0"
       style="opacity:1;fill:#111d4b" />
    <path
       d="m 16.8,1398.8886 c 6.38,0.04 12.78,-0.3 19.14,0.19 6.69,0.6 12.66,5.75 13.93,12.39 1.7,7.59 0.24,17.25 -7,21.53 -7.82,4.32 -17.06,1.93 -25.54,2.73 -0.85,-2.71 -0.48,-5.56 -0.53,-8.34 0,-9.5 0,-19 0,-28.5 z"
       id="path8"
       inkscape:connector-curvature="0"
       style="opacity:1;fill:#ffffff" />
    <path
       d="m 52.75,1398.8786 c 4.74,-0.04 9.49,-0.09 14.24,0.04 1.8,6.53 3.95,12.95 6,19.4 2.44,-6.35 4.01,-13 6.42,-19.36 4.66,-0.3 9.34,-0.03 14.01,-0.1 -0.03,12.25 0.04,24.5 -0.04,36.75 -13.53,-0.01 -27.07,0.02 -40.61,-0.02 -0.04,-12.23 0,-24.47 -0.02,-36.71 z"
       id="path10"
       inkscape:connector-curvature="0"
       style="opacity:1;fill:#ffffff" />
    <path
       d="m 94.34,1435.5986 c 4.36,-12.3 9.16,-24.44 13.55,-36.73 3.22,-0.02 6.45,-0.01 9.68,-0.07 4.57,12.24 9.45,24.38 13.52,36.8 -12.25,0.02 -24.5,0.02 -36.75,0 z"
       id="path12"
       inkscape:connector-curvature="0"
       style="opacity:1;fill:#ffffff" />
    <path
       d="m 132.96,1398.9186 c 11.62,-0.11 23.25,-0.12 34.87,0 -3.79,5.36 -7.4,10.86 -11.13,16.26 -0.9,0.95 -0.09,2.19 0.52,3.02 3.91,5.77 7.84,11.52 11.6,17.39 -12.26,0.03 -24.52,0.04 -36.78,-0.01 3.98,-6.6 8.56,-12.82 12.79,-19.26 -3.89,-5.85 -7.91,-11.6 -11.87,-17.4 z"
       id="path14"
       inkscape:connector-curvature="0"
       style="opacity:1;fill:#ffffff" />
  </g>
</svg>
