<?xml version="1.0" encoding="UTF-8" standalone="no"?>
<svg
   xmlns:dc="http://purl.org/dc/elements/1.1/"
   xmlns:cc="http://creativecommons.org/ns#"
   xmlns:rdf="http://www.w3.org/1999/02/22-rdf-syntax-ns#"
   xmlns:svg="http://www.w3.org/2000/svg"
   xmlns="http://www.w3.org/2000/svg"
   xmlns:xlink="http://www.w3.org/1999/xlink"
   xmlns:sodipodi="http://sodipodi.sourceforge.net/DTD/sodipodi-0.dtd"
   xmlns:inkscape="http://www.inkscape.org/namespaces/inkscape"
   width="500mm"
   height="500mm"
   version="1.1"
   id="svg91"
   sodipodi:docname="disney_junior.svg"
   inkscape:version="0.92.4 (5da689c313, 2019-01-14)">
  <sodipodi:namedview
     pagecolor="#ffffff"
     bordercolor="#666666"
     borderopacity="1"
     objecttolerance="10"
     gridtolerance="10"
     guidetolerance="10"
     inkscape:pageopacity="0"
     inkscape:pageshadow="2"
     inkscape:window-width="1920"
     inkscape:window-height="1017"
     id="namedview93"
     showgrid="false"
     units="mm"
     inkscape:pagecheckerboard="true"
     inkscape:zoom="0.16339211"
     inkscape:cx="869.07501"
     inkscape:cy="308.125"
     inkscape:window-x="-8"
     inkscape:window-y="-8"
     inkscape:window-maximized="1"
     inkscape:current-layer="svg91" />
  <title
     id="title2">Disney Junior.svg</title>
  <metadata
     id="metadata3125">image/svg+xml<rdf:RDF>
  <cc:Work
     rdf:about="">
    <dc:format>image/svg+xml</dc:format>
    <dc:type
       rdf:resource="http://purl.org/dc/dcmitype/StillImage" />
    <dc:title>Disney Junior.svg</dc:title>
  </cc:Work>
</rdf:RDF>
</metadata>
  <defs
     id="defs30">
    <linearGradient
       id="linearGradient3664">
      <stop
         stop-color="#a12525"
         id="stop3666"
         offset="0" />
      <stop
         stop-color="#9c2424"
         id="stop3668"
         offset="1" />
    </linearGradient>
    <linearGradient
       id="linearGradient3653">
      <stop
         stop-color="#a12525"
         id="stop3655"
         offset="0" />
      <stop
         stop-color="#651618"
         id="stop3657"
         offset="1" />
    </linearGradient>
    <linearGradient
       id="linearGradient3519">
      <stop
         stop-color="#353535"
         id="stop3521"
         offset="0" />
      <stop
         stop-color="#2a2a2a"
         id="stop3523"
         offset="1" />
    </linearGradient>
    <linearGradient
       id="linearGradient3452">
      <stop
         stop-color="#6a1b14"
         id="stop3454"
         offset="0" />
      <stop
         stop-color="#741a1a"
         id="stop3456"
         offset="1" />
    </linearGradient>
    <linearGradient
       id="linearGradient3308">
      <stop
         stop-color="#96272e"
         id="stop3310"
         offset="0" />
      <stop
         stop-color="#9e231c"
         id="stop3312"
         offset="1" />
    </linearGradient>
    <linearGradient
       id="linearGradient3288">
      <stop
         stop-color="#b02726"
         id="stop3290"
         offset="0" />
      <stop
         stop-color="#460e0d"
         offset="0.45428"
         id="stop3296" />
      <stop
         stop-color="#7b1a21"
         id="stop3292"
         offset="1" />
    </linearGradient>
    <radialGradient
       r="60.491985"
       fy="242.69054"
       fx="1167.4923"
       cy="242.69054"
       cx="1167.4923"
       gradientTransform="matrix(-0.11580856,0.93530339,-0.88490442,-0.10956807,1498.3051,-807.20601)"
       gradientUnits="userSpaceOnUse"
       id="radialGradient3541"
       xlink:href="#linearGradient3519" />
    <linearGradient
       y2="143.76694"
       x2="283.75479"
       y1="59.934311"
       x1="283.75479"
       id="linearGradient3728"
       xlink:href="#linearGradient3288"
       gradientTransform="scale(0.52080714,1.9200966)"
       gradientUnits="userSpaceOnUse" />
    <linearGradient
       y2="321.65723"
       x2="32.425972"
       y1="315.99619"
       x1="43.421715"
       id="linearGradient3730"
       xlink:href="#linearGradient3308"
       gradientTransform="scale(1.4698171,0.68035677)"
       gradientUnits="userSpaceOnUse" />
    <linearGradient
       y2="203.43352"
       x2="680.32648"
       y1="174.05318"
       x1="680.32648"
       id="linearGradient3732"
       xlink:href="#linearGradient3452"
       gradientTransform="scale(0.8526867,1.1727637)"
       gradientUnits="userSpaceOnUse" />
    <linearGradient
       y2="264.83905"
       x2="470.7569"
       y1="239.24693"
       x1="470.7569"
       id="linearGradient3734"
       xlink:href="#linearGradient3664"
       gradientTransform="scale(1.5332748,0.65219882)"
       gradientUnits="userSpaceOnUse" />
    <linearGradient
       y2="128.37216"
       x2="1403.8977"
       y1="76.346809"
       x1="1403.8977"
       id="linearGradient3736"
       xlink:href="#linearGradient3653"
       gradientTransform="scale(0.45683552,2.1889716)"
       gradientUnits="userSpaceOnUse" />
  </defs>
  <g
     id="g89"
     transform="matrix(1.0438366,0,0,1.0438366,37.783709,623.68559)">
    <title
       id="title32">Layer 1</title>
    <g
       id="g3514"
       style="fill:#282828" />
    <g
       id="g3799">
      <g
         id="g3756">
        <path
           d="m 927.37726,328.16022 c -2.53583,0.003 -5.07672,0.12048 -7.625,0.3125 -10.63159,0.7958 -20.85547,3.04339 -30.8125,6.71875 -5.27759,1.94409 -10.09277,4.80072 -15.09375,7.28125 -0.20691,0.24829 -0.50598,0.46624 -0.59375,0.75 -3.35724,11.2145 -7.79816,22.1409 -9.75,33.75 -0.75556,4.48446 -1.57355,8.95059 -2.5,13.40625 -0.3935,1.89752 -1.0799,3.7337 -1.75,5.5625 -0.57117,1.56057 -1.85175,2.15646 -3.5,2.1875 -1.52008,0.031 -2.93384,-0.3093 -4.34375,-0.8125 -2.98621,-1.06183 -5.68341,-2.65253 -8.0625,-4.6875 -6.00611,-5.1362 -10.22846,-11.3992 -12.25,-19.0625 -0.59137,-2.23893 -0.76087,-4.50022 -0.8125,-6.78125 -0.20465,-8.82044 1.02691,-17.49985 2.53125,-26.15625 0.33508,-1.92856 0.7008,-3.82166 0.6875,-5.78125 -0.98938,-0.0333 -1.97937,-0.0937 -2.96875,-0.0937 -39.14667,-0.004 -78.31983,0 -117.46875,0 -0.82526,0 -1.6435,-0.0355 -2.46875,0 -1.97882,0.082 -2.34748,0.41894 -2.4375,2.25 -0.0585,1.1394 -0.0312,2.26681 -0.0312,3.40625 v 268.81244 h 135.1875 c 6.1e-4,-40.02082 0.0431,-82.98029 0,-117.71869 -0.007,-4.41355 0.33441,-8.78241 1,-13.125 0.59363,-3.87265 1.69543,-7.63343 3.65625,-11.09375 2.28015,-4.02118 5.61487,-6.80249 10.03125,-8.25 3.4989,-1.14386 7.13391,-1.4458 10.78125,-1.03125 8.11535,0.91995 13.78424,5.08825 16.71875,12.65625 1.23901,3.20096 1.97473,6.52148 2.375,9.9375 0.68133,5.83001 0.875,11.69919 0.875,17.5625 l 0.0312,111.40619 H 1023.971 l -0.031,-167.84369 c 0,-7.32193 -0.2238,-14.63776 -1.0311,-21.9375 -1.3132,-11.87512 -3.8656,-23.43466 -8.1875,-34.59375 -4.7649,-12.30738 -11.4924,-23.42639 -21.0313,-32.75 -14.86804,-14.52634 -33.37067,-21.25489 -53.71869,-23.5625 -4.1839,-0.47522 -8.36737,-0.72437 -12.59375,-0.71875 z"
           id="path3132"
           inkscape:connector-curvature="0"
           style="fill:#e73636;fill-rule:evenodd" />
        <g
           transform="matrix(2.21674,0,0,2.21674,60.9879,-16.2643)"
           id="g3318">
          <path
             id="path3284"
             d="m 108.12711,279.21963 c 17.95595,-12.23846 31.18339,-27.34785 32.7895,-49.51301 v -100.7805 c 5.07147,-5.5929 8.62221,-10.20181 11.95515,-14.66979 v 116.16332 c 0,0 -0.83767,18.28492 -14.76542,32.2127 -14.07665,14.07666 -29.97923,16.58728 -29.97923,16.58728 z"
             style="fill:url(#linearGradient3728)"
             inkscape:connector-curvature="0" />
          <path
             id="path3298"
             d="m 42.411366,211.15848 18.04575,-1.32762 c 2.952694,5.92884 6.605286,8.53312 10.377274,10.5702 -1.766396,1.03929 -2.842194,2.5864 -12.031361,2.5864 -10.582542,-0.24619 -13.641453,-6.40253 -16.391663,-11.82898 z"
             style="fill:url(#linearGradient3730)"
             inkscape:connector-curvature="0" />
          <path
             d="m 140.88126,129.05855 c 0.022,0.733 0.065,1.34938 0.066,2.08238 0.003,32.537 0.047,65.075 -0.023,97.61099 -0.023,10.76601 -2.10254,16.13191 -7.57354,25.4729 -6.50801,11.11203 -13.12223,17.94812 -23.91383,24.48248 -6.018,2.444 -14.13884,4.42646 -20.616844,5.02646 -17.971001,1.664 -41.162987,0.42435 -57.331982,-7.68664 -6.003002,-3.012 -11.518002,-6.771 -16.409001,-11.392 -2.025002,-1.91299 -1.860001,-1.37601 -0.635002,-3.59201 8.662004,-15.67603 18.119443,-32.27594 26.795426,-47.94495 0.319004,-0.57499 0.828938,-1.41409 1.156929,-1.9861 0.344543,0.60785 0.684074,1.28611 0.958069,1.8331 0.993004,1.98801 2.206001,3.80901 3.784004,5.38001 2.424,2.414 5.357002,3.78799 8.713013,4.35899 3.243,0.55101 6.434998,0.27501 9.603996,-0.476 1.146004,-0.27099 2.713463,-0.44676 3.769463,-0.96977 4.433998,-2.19699 6.184525,-4.10463 6.383537,-9.00664 0.03,-0.733 0.007,-3.41258 0.007,-4.14659 9.99e-4,-21.73999 9.99e-4,-43.47999 0.002,-65.222 1.980995,-0.05 11.718338,0.194 13.690338,0.32201 4.836998,0.313 9.675987,0.052 14.484994,-0.439 5.31799,-0.54501 10.57901,-1.484 15.73201,-2.96701 7.01599,-2.01799 8.68341,-2.05923 14.83042,-6.02323 2.281,-1.47001 4.352,-3.10338 6.526,-4.71738 z"
             id="path3138"
             inkscape:connector-curvature="0"
             style="clip-rule:evenodd;fill:#e73636;fill-rule:evenodd" />
        </g>
        <g
           transform="matrix(2.21674,0,0,2.21674,60.9879,-16.2643)"
           id="g3385">
          <path
             id="path3134"
             d="m 226.94395,157.70004 0.0141,59.44809 c 0,0.59207 0.0429,1.18721 0,1.77626 -0.16963,2.3532 -0.29377,4.71537 -1.19825,6.94994 -1.04348,2.57535 -2.88765,4.26262 -5.63891,4.96223 -2.2198,0.56293 -4.449,0.58423 -6.68209,0.11278 -3.1294,-0.65741 -5.1967,-2.51445 -6.23099,-5.48383 -0.43845,-1.26054 -0.76224,-2.54383 -0.83173,-3.87675 -0.13388,-2.57735 -0.30714,-5.16101 -0.31015,-7.73938 l -0.0141,-56.16344 h -60.99879 v 69.07651 c 0.002,3.98969 0.22604,7.96167 0.94452,11.89809 1.76602,9.69023 5.9136,18.22212 12.75801,25.44557 5.88473,6.21017 12.98811,10.68436 20.87802,13.98447 9.91656,4.15152 20.3466,6.13324 31.05624,6.68209 7.73253,0.39707 15.44133,0.0421 23.1054,-1.21237 8.8741,-1.45154 17.38641,-3.97455 25.34683,-8.13412 6.90164,-3.60669 12.96313,-8.26038 17.83304,-14.32279 7.29406,-9.0821 10.80435,-19.51033 10.95355,-30.99989 l 0.0141,-72.40346 h -60.99883 z"
             inkscape:connector-curvature="0"
             style="fill:#e73636;fill-rule:evenodd" />
          <path
             id="path3379"
             d="m 206.05183,157.70657 0.0141,56.14281 c 0.003,2.57837 0.17626,5.16203 0.31015,7.73938 0.0695,1.33292 0.39328,2.61623 0.83173,3.87675 1.03427,2.96938 3.10159,4.82642 6.23099,5.48383 1.92097,0.40553 8.42682,1.29457 10.41627,-1.54803 -1.30388,-0.17968 -4.12671,-0.44089 -5.89374,-2.32146 -1.29361,-1.26053 -2.39485,-2.62158 -2.46434,-3.9545 -0.13388,-2.57735 -0.30713,-5.16101 -0.31013,-7.73938 l -0.0141,-56.16342 z"
             inkscape:connector-curvature="0"
             style="fill:#800000;fill-rule:evenodd" />
          <path
             id="path3372"
             d="m 287.94275,157.68176 -0.0141,72.42174 c -0.1492,11.48955 -3.65949,21.91776 -10.95355,30.99986 -4.86991,6.06244 -10.9314,10.71613 -17.83304,14.32282 -7.96042,4.15954 -16.47272,6.68259 -25.34683,8.13412 -7.66407,1.25449 -15.37287,1.60941 -23.10539,1.21234 -9.89858,-0.50726 -19.56447,-2.24258 -28.80068,-5.77987 0.48686,0.21557 0.98709,0.42813 1.48021,0.6344 9.91657,4.15152 16.54044,4.59301 27.25006,5.14187 7.73256,0.39704 15.56951,0.0363 23.23354,-1.2182 8.87411,-1.45154 17.18042,-3.88788 25.14087,-8.04742 6.90161,-3.60669 13.97064,-7.65619 18.84051,-13.71863 7.29407,-9.08211 13.95386,-20.98744 14.10306,-32.47701 l 0.0217,-70.07115 z"
             inkscape:connector-curvature="0"
             style="fill:#800000;fill-rule:evenodd" />
        </g>
        <g
           transform="matrix(2.21674,0,0,2.21674,60.9879,-16.2643)"
           id="g3672">
          <g
             id="g3677">
            <path
               id="path3651"
               d="m 734.95245,155.71233 c -4.99701,-0.011 -9.83898,0.26568 -14.78802,1.11367 -2.46875,0.4225 -4.75964,1.0499 -6.99225,1.86084 v 0.0282 l 0.0564,15.04176 c 0.13598,0.021 0.27081,0.0465 0.40881,0.0705 0.97711,-1.27099 1.92627,-2.57034 2.93225,-3.82034 0.0632,-0.0785 0.13379,-0.1477 0.19739,-0.22557 5.9859,-7.32974 13.66241,-11.71793 23.03485,-13.3219 4.9491,-0.84799 9.90381,-0.72996 14.90082,-0.71895 0.35095,9e-4 0.70514,0.0173 1.05725,0.0423 -0.0433,-0.009 -0.0926,-0.0247 -0.14093,-0.0282 -0.36603,-0.027 -0.73462,-0.0413 -1.09961,-0.0423 h -19.56696 z"
               style="fill:url(#linearGradient3734);fill-rule:evenodd"
               inkscape:connector-curvature="0" />
            <path
               id="path3649"
               d="m 628.54633,167.28007 v 109.46187 l 25.84027,5.42273 V 158.34851 Z"
               style="fill:url(#linearGradient3736);fill-rule:evenodd"
               inkscape:connector-curvature="0" />
            <path
               id="path3140"
               d="m 754.7027,155.74052 c -4.99707,-0.011 -9.95178,-0.12904 -14.90082,0.71895 -9.47205,1.62102 -17.21924,6.07646 -23.23224,13.54747 -1.00604,1.25 -1.9552,2.54935 -2.93225,3.82035 -0.138,-0.024 -0.27283,-0.0495 -0.40881,-0.0705 l -0.0564,-15.4083 h -58.78552 v 123.81616 h 60.23755 V 234.7838 c -0.005,-2.66001 0.24353,-5.28209 0.95862,-7.83808 2.28894,-8.18001 7.43725,-13.67352 15.54925,-16.31051 4.638,-1.51001 9.39771,-1.51471 14.16773,-0.97272 3.37103,0.384 6.60687,1.36327 9.69891,2.79126 0.42297,0.19501 0.87543,0.60736 1.52252,0.19736 V 211.185 c 0,-17.92401 -0.0131,-35.85601 -0.014,-53.78101 0,-0.44099 0.0158,-0.49241 -0.0139,-0.93042 -0.0289,-0.41398 -0.26673,-0.65976 -0.69074,-0.69076 -0.36602,-0.027 -0.73462,-0.0413 -1.09961,-0.0423 l -2.4e-4,-3e-5 z"
               inkscape:connector-curvature="0"
               style="fill:#e73636;fill-rule:evenodd" />
          </g>
        </g>
        <g
           transform="matrix(2.21674,0,0,2.21674,60.9879,-16.2643)"
           id="g3447">
          <path
             id="path3445"
             d="m 570.09918,155.38809 c -4.83001,0.01 -9.65893,0.35419 -14.4638,1.04318 -7.09375,1.01802 -14.03003,2.53554 -20.7229,5.00454 -10.2555,3.785 -19.33673,9.26977 -26.79892,17.07176 -5.67878,5.938 -9.86408,12.71915 -12.60297,20.31413 -2.37256,6.571 -3.54681,13.34503 -3.74988,20.30004 -0.1643,5.53401 0.18048,11.0082 1.45203,16.40921 2.68866,11.43998 8.57721,21.13604 17.53692,29.13903 6.30155,5.63001 13.50425,9.91654 21.42789,13.12455 12.12567,4.90798 24.82056,7.1011 40.23358,7.1191 0.7096,0.009 1.52991,-0.0215 2.41059,-0.0564 -13.1836,-0.33811 -24.31269,-2.5459 -34.97529,-7.06271 -7.57098,-3.20801 -14.44818,-7.49454 -20.46917,-13.12455 -8.56101,-8.00302 -14.17856,-17.69905 -16.74759,-29.13904 -1.21497,-5.401 -1.56671,-10.87519 -1.40973,-16.40921 0.19403,-6.955 1.32782,-13.72903 3.59485,-20.30003 2.617,-7.595 6.62713,-14.37613 12.05319,-20.31415 7.12994,-7.80198 15.80158,-13.28676 25.60059,-17.07176 6.39495,-2.46899 13.02862,-3.98651 19.80664,-5.00452 3.71844,-0.55806 7.44366,-0.87805 11.17908,-0.9868 -1.11793,-0.0346 -2.23603,-0.0585 -3.35511,-0.0564 z"
             inkscape:connector-curvature="0"
             style="fill:#800000;fill-rule:evenodd" />
          <path
             id="path3437"
             d="m 576.11871,202.69844 c -1.44641,0.0317 -2.8139,0.21849 -4.10229,0.53569 2.12152,1.23445 3.92047,2.9612 5.35699,5.23009 4.03766,6.37399 4.52436,13.07527 0.45111,19.60927 -2.42956,3.89596 -5.92431,6.29771 -10.23468,7.30236 2.83277,1.71502 5.93348,2.48406 9.27607,2.32605 5.84698,-0.27699 10.50701,-2.81596 13.49102,-7.82397 3.89203,-6.534 3.42102,-13.23528 -0.43701,-19.60927 -3.03503,-5.017 -7.72522,-7.42923 -13.80121,-7.57022 z"
             style="fill:url(#linearGradient3732);fill-rule:evenodd"
             inkscape:connector-curvature="0" />
          <path
             d="m 578.28986,284.91019 c -14.72699,-0.018 -26.85199,-2.206 -38.43799,-7.11402 -7.57099,-3.20797 -14.45899,-7.49399 -20.47998,-13.12399 -8.56107,-8.00299 -14.17703,-17.70302 -16.74606,-29.14302 -1.21497,-5.401 -1.55597,-10.87401 -1.39899,-16.40801 0.19397,-6.955 1.32196,-13.72799 3.58899,-20.29899 2.617,-7.595 6.61999,-14.379 12.04605,-20.317 7.13,-7.802 15.80798,-13.28101 25.60699,-17.066 6.39496,-2.46901 13.02198,-3.994 19.79999,-5.01201 4.591,-0.68899 9.19898,-1.02299 13.81403,-1.03299 4.61694,-0.009 9.224,0.322 13.81598,1.008 5.46002,0.817 10.83697,1.914 16.083,3.62999 9.53699,3.11601 18.211,7.76501 25.65699,14.56801 9.70898,8.86999 15.664,19.83299 18.26702,32.685 1.29096,6.38099 1.66895,12.832 1.19397,19.291 -1.02996,14.06399 -6.32897,26.27999 -16.29797,36.38002 -6.979,7.07101 -15.25201,12.125 -24.44501,15.746 -5.82403,2.29501 -11.84002,3.884 -18.02099,4.89502 -5.37604,0.87597 -10.77405,1.35599 -14.04602,1.31299 z m -2.17499,-82.20603 c -6.47901,0.142 -11.40399,3.138 -14.49799,9.081 -1.70404,3.27299 -2.38104,6.80099 -2.05304,10.44099 0.48603,5.403 2.88001,9.78801 7.49799,12.815 2.97601,1.95201 6.255,2.823 9.80902,2.655 5.84698,-0.27699 10.50201,-2.81499 13.48602,-7.823 3.89197,-6.53399 3.42798,-13.224 -0.42999,-19.59799 -3.03503,-5.017 -7.73602,-7.43001 -13.81201,-7.571 z"
             id="path3136"
             inkscape:connector-curvature="0"
             style="clip-rule:evenodd;fill:#e73636;fill-rule:evenodd" />
        </g>
        <g
           id="g3428">
          <g
             id="g3530">
            <path
               id="path3508"
               d="m 1031.9791,253.09241 c 0.997,-29.70128 23.0343,-61.56818 68.1555,-57.47406 31.9761,2.90138 54.8681,31.05125 52.6452,63.88513 -1.7879,26.40869 -26.6598,54.25802 -58.4302,53.91928 -40.0402,-0.42691 -63.4264,-28.87152 -62.3705,-60.33035 z"
               style="fill:url(#radialGradient3541)"
               inkscape:connector-curvature="0" />
            <path
               d="m 1003.4883,175.78778 c 0.662,-19.48598 15.2981,-40.39273 45.2652,-37.70671 21.237,1.90349 36.4407,20.37163 34.9644,41.91275 -1.1875,17.32585 -17.7062,35.59682 -38.8064,35.37457 -26.5925,-0.28009 -42.1245,-18.94159 -41.4232,-39.58061 z"
               id="path3510"
               inkscape:connector-curvature="0"
               style="fill:#282828" />
            <path
               id="path3512"
               d="m 1125.8177,196.64743 c 0.662,-19.48598 15.2981,-40.39273 45.2653,-37.70671 21.2369,1.90349 36.4407,20.37163 34.9644,41.91275 -1.1875,17.32584 -17.7062,35.59682 -38.8064,35.37457 -26.5926,-0.28009 -42.1245,-18.94159 -41.4233,-39.58061 z"
               inkscape:connector-curvature="0"
               style="fill:#282828" />
            <path
               id="path3403"
               d="m 1022.9085,337.53522 v 69 h 8.9999 v -72.75 z"
               inkscape:connector-curvature="0"
               style="fill:#0f1110;fill-rule:evenodd" />
            <path
               id="path3407"
               d="m 1022.9085,406.53522 c 0,67.3576 1.0483,124.27539 1.0625,192.74994 l 7.9374,10.3125 V 406.53522 Z"
               inkscape:connector-curvature="0"
               style="fill:#56100c;fill-rule:evenodd" />
            <path
               id="rect3400"
               d="m 1031.9084,406.53522 v 203.06244 h 134 V 406.53522 Z"
               inkscape:connector-curvature="0"
               style="fill:#e73636;fill-rule:evenodd" />
            <path
               id="path3162"
               d="m 1116.3132,439.67175 c -0.6008,-6.2778 4.1519,-12.38052 12.4359,-12.78619 6.7478,-0.33249 12.815,5.87439 12.9681,12.67978 0.1484,6.84753 -6.2447,13.42905 -13.1055,13.03225 -7.9758,-0.46109 -12.9369,-6.42413 -12.2985,-12.92584 z"
               inkscape:connector-curvature="0"
               style="clip-rule:evenodd;fill:#fde84d;fill-rule:evenodd" />
            <path
               id="path3164"
               d="m 1083.4855,439.97989 c 0.5764,6.34653 -4.6773,12.46698 -12.6199,12.59998 -6.9296,0.11306 -12.7729,-6.04065 -12.7863,-12.82831 -0.011,-6.9628 6.4042,-13.37363 13.2518,-12.84604 8.2795,0.6362 12.7862,6.71451 12.1544,13.07437 z"
               inkscape:connector-curvature="0"
               style="clip-rule:evenodd;fill:#fde84d;fill-rule:evenodd" />
            <path
               id="path3409"
               d="m 1031.9028,333.78894 h 134.0111 v 72.74524 h -134.0111 z"
               inkscape:connector-curvature="0"
               style="fill:#2a2a2a;fill-rule:evenodd" />
          </g>
        </g>
      </g>
      <g
         id="g3592">
        <g
           transform="matrix(2.34327,0,0,2.34327,31.3395,-23.6895)"
           id="g3486"
           style="fill:#090909">
          <g
             id="g3488"
             style="fill:#090909">
            <g
               id="g3490"
               style="fill:#090909">
              <path
                 d="m 362.09793,158.98059 c -0.092,0.112 -0.23099,0.209 -0.26901,0.336 -1.492,5.05901 -3.45999,9.98199 -4.328,15.22 -0.336,2.022 -0.70099,4.043 -1.112,6.05299 -0.176,0.85502 -0.47898,1.68801 -0.77698,2.51401 -0.254,0.704 -0.827,0.972 -1.56101,0.985 -0.67599,0.014 -1.307,-0.141 -1.93399,-0.367 -1.328,-0.479 -2.526,-1.19901 -3.58301,-2.117 -2.67001,-2.316 -4.548,-5.14499 -5.44799,-8.60199 -0.263,-1.01001 -0.33701,-2.02001 -0.36002,-3.04902 -0.091,-3.97898 0.45599,-7.89799 1.125,-11.804 0.14801,-0.86999 0.30701,-1.73098 0.301,-2.61499 0.62301,-1.349 0.70401,-2.83 1.02999,-4.251 1.95102,-8.512 4.46702,-16.86499 7.08802,-25.189 0.022,-0.069 0.055,-0.136 0.076,-0.206 0.38202,-1.264 0.89102,-2.506 1.10901,-3.797 0.23001,-1.366 -0.76899,-2.472 -1.20002,-3.696 -1.96899,-5.589 -2.01199,-11.205 -0.48098,-16.882 1.44699,-5.364997 3.87301,-10.280997 6.82501,-14.956 2.63299,-4.170998 5.642,-8.053001 9.06198,-11.608002 0.659,-0.685997 1.366,-1.336998 2.11902,-1.919998 0.892,-0.692001 1.81799,-0.519997 2.46399,0.404999 0.24701,0.354004 0.431,0.769005 0.57,1.181 0.68799,2.042999 0.56198,4.058006 -0.38101,5.988007 -0.67599,1.381996 -1.42801,2.728996 -2.17801,4.073997 -2.46298,4.419998 -4.98898,8.808998 -7.09799,13.416 -0.76199,1.665001 -1.45599,3.360997 -1.91901,5.144997 -0.42898,1.65 -0.24197,3.188 0.58802,4.659 0.725,-0.055 0.948,-0.673 1.30099,-1.112 4.83802,-6.007 9.892,-11.822002 15.396,-17.229999 3.35202,-3.294998 6.83801,-6.445 10.79202,-9.026001 1.414,-0.921997 2.87998,-1.737999 4.482,-2.312996 2.04599,-0.734001 4.02398,-0.646004 5.98599,0.254997 2.26401,1.039001 4.02099,2.68 5.462,4.668999 1.844,2.545998 2.84101,5.446999 3.409,8.507004 0.94299,5.078995 0.737,10.075996 -1.11899,14.946996 -0.81201,2.132 -1.80502,4.17601 -3.03701,6.095 -5.87299,9.137 -13.80899,15.69699 -24.167,19.17 -3.152,1.05701 -6.423,1.495 -9.751,1.43201 -1.38501,-0.026 -1.387,-0.031 -1.74601,1.31999 -0.565,2.12601 -1.09799,4.26199 -1.699,6.377 -1.54099,5.433 -3.10498,10.858 -4.67899,16.28 -0.16299,0.567 -0.36999,1.114 -0.358,1.71201 z m 14.065,-41.084 c 1.18299,0.22 2.129,0.113 3.06299,-0.073 6.80301,-1.34899 12.44,-4.707 16.96402,-9.93599 1.84598,-2.13201 3.233,-4.53701 4.04398,-7.25801 0.77002,-2.585994 0.931,-5.18899 0.332,-7.831996 -0.18198,-0.799995 -0.45999,-1.550995 -0.97901,-2.188995 -1.01498,-1.25 -2.34497,-1.507004 -3.68798,-0.639999 -0.67301,0.433998 -1.29001,0.973 -1.86899,1.528999 -2.18302,2.098 -3.97602,4.521996 -5.716,6.981003 -4.20301,5.938998 -7.999,12.136988 -11.64002,18.431998 -0.142,0.245 -0.26199,0.502 -0.51099,0.986 z"
                 id="path3492"
                 inkscape:connector-curvature="0"
                 style="clip-rule:evenodd;fill:#090909;fill-rule:evenodd" />
              <path
                 d="m 227.45555,74.25708 c 4.07199,-0.041 6.78481,0.639908 10.58479,1.105911 1.67801,0.207001 3.70774,1.528641 5.33576,1.982635 1.06399,0.296005 2.06698,0.749001 2.99798,1.354004 2.16401,1.406998 2.32102,4.161995 0.092,5.645996 -0.86401,0.576004 -1.78601,1.002998 -2.76001,1.345001 -2.64999,0.931 -5.77774,1.21991 -8.54474,1.546913 -3.93398,0.465996 -7.51625,0.910088 -11.47226,1.161087 -5.05,0.320999 -8.05271,0.183273 -13.07371,0.88427 -1.893,0.264 -5.60763,0.514458 -7.40865,1.183464 -0.696,0.257996 -3.92509,0.787628 -4.4351,1.349625 -0.62599,0.690002 -0.41591,1.111824 0.3851,1.511818 0.58499,0.292007 4.37445,0.177277 5.01146,0.312271 1.435,0.304001 4.496,0.610001 5.952,0.758003 3.13574,0.06882 4.66046,0.582458 8.24446,0.866463 4.02499,0.32 9.29927,1.303909 13.27726,2.017906 3.25901,0.584999 5.11518,1.718178 8.08118,3.264183 2.81,2.21418 6.24402,6.87136 6.526,12.69736 0.30701,6.363 -1.17264,10.12737 -6.12863,13.81637 -3.24402,2.413 -8.81764,3.767 -12.75464,4.46199 -7.92201,1.39801 -12.47646,0.12491 -20.35155,-1.10791 -3.981,-1.20399 -7.74409,-2.08336 -10.81709,-4.93536 -1.136,-1.054 -3.41782,-2.98845 -4.28082,-4.27445 -2.76399,-4.125 -3.38318,-8.64664 0.24482,-11.52465 2.131,-1.68899 4.94272,-3.79171 7.57273,-4.26971 1.879,-0.343 5.10083,-0.71464 7.01982,-0.58364 5.5,0.376 -3.71367,-1.41323 15.99681,2.92827 1.57696,0.34735 3.39819,0.53027 4.81619,1.32927 0.51001,0.288 1.00116,0.34681 2.06136,1.02955 2.83719,1.82706 1.62718,2.46555 0.56218,3.74855 -0.523,0.63 -4.69719,1.72636 -5.41919,2.08736 -3.32018,0.41182 -4.68454,0.33436 -6.51407,-0.11464 -2.11801,-0.283 -4.14101,-0.969 -6.138,-1.709 -1.925,-0.714 -3.84401,-1.44601 -5.75601,-2.19701 -1.168,-0.459 -2.07181,-0.63736 -3.30782,-0.76136 -2.39999,-0.23999 -4.4069,0.68874 -5.8249,2.83674 -1.08301,1.64199 -0.7921,3.08171 0.85991,4.15171 0.744,0.48201 2.00427,1.27429 2.86926,1.45429 1.29201,0.268 2.59001,0.63009 3.91701,0.72009 3.539,0.241 6.16046,0.40582 9.65545,-0.0382 4.515,-0.573 7.15836,-1.65119 11.53637,-2.92619 2.184,-0.637 4.70272,-1.88582 6.68573,-3.04283 0.96099,-0.56099 2.22073,-1.48817 2.8807,-2.39817 1.04401,-1.44101 1.41584,-2.95227 0.45111,-4.26491 -1.05398,-0.818 -2.19244,-1.86682 -3.42846,-2.33882 -3.23499,-1.235 -6.88718,-1.27554 -10.27918,-1.92554 -5.72055,-0.42009 -8.93199,-0.30336 -14.664,-0.33936 -3.23299,-0.021 -6.37744,0.32036 -9.56444,-0.24964 -1.744,-0.312 -5.76947,-1.93318 -7.34047,-2.77718 -2.703,-1.450005 -4.43173,-2.68837 -4.56472,-5.725372 -0.213,-4.896996 1.26208,-8.626999 5.08009,-11.509003 2.61099,-1.970993 6.30345,-3.928909 9.38745,-4.924904 4.487,-1.450005 7.6411,-2.530182 12.3251,-3.015182 3.876,-0.401001 8.79064,-0.676086 12.43264,-0.598091 l 1.98573,2.3e-5 z"
                 id="path3494"
                 inkscape:connector-curvature="0"
                 style="clip-rule:evenodd;fill:#090909;fill-rule:evenodd" />
              <path
                 d="m 248.55688,119.75066 c 0.076,-4.121 0.14896,-8.41102 0.71497,-12.48002 0.70801,-5.089 1.51303,-12.671024 2.88403,-17.630023 0.60602,-2.194 1.318,-4.352997 2.267,-6.423996 0.551,-1.204002 1.177,-2.368004 2.06497,-3.367004 1.55701,-1.751999 3.09,-2.007996 5.073,-0.817001 1.07401,0.645004 4.74121,3.889015 5.63019,4.770012 2.14502,2.124001 4.017,4.479004 5.84302,6.874001 3.474,4.556 4.04388,9.269447 7.2709,13.999451 1.034,1.516 2.082,3.022 3.138,4.523 0.422,0.6 0.86499,1.187 1.33298,1.753 0.45599,0.551 1.24173,2.34055 1.99774,2.16855 0.983,-0.224 0.53119,-4.17628 0.64618,-5.03228 0.28601,-2.126 -0.70453,-5.27863 -1.09955,-7.38563 -0.95999,-5.128012 -1.75955,-10.032461 -3.23254,-15.026457 -1.22501,-4.149002 -3.28546,-8.344551 -4.20844,-12.575554 -0.23401,-1.073997 -0.41302,-2.163002 -0.54901,-3.252998 -0.13,-1.030998 0.021,-2.057999 0.331,-3.043999 0.34301,-1.091003 1.02801,-1.510002 2.181,-1.419006 1.138,0.09 3.52353,3.176872 4.42852,3.822876 1.57001,1.118996 2.22596,4.300156 3.40796,5.808159 2.09299,2.668999 3.95362,7.132622 5.43061,10.172615 3.22799,6.642006 3.1184,9.889641 4.1824,17.206644 0.871,5.998 0.45755,9.69188 -0.45145,15.0027 -0.94,2.088 -1.24817,4.60351 -2.71164,6.74979 -1.45098,1.609 -1.97604,4.06964 -4.11502,4.63364 -1.96402,0.518 -3.41873,1.87576 -5.08673,0.64976 -1.55102,-1.14 -2.74093,-1.46135 -3.99893,-2.90135 -2.46698,-2.828 -4.09418,-4.57618 -6.15616,-7.70218 -2.18301,-3.307 -3.13128,-4.8879 -4.63238,-8.28345 -0.64099,-0.984 -2.55228,-4.01528 -3.24326,-4.96328 -0.38702,-0.532 -1.26929,-2.79709 -1.73327,-3.26409 -0.53,-0.89138 -4.10007,-10.993541 -4.48514,-0.2619 0.028,0.77801 -0.075,2.78113 -0.18698,3.42813 -0.047,2.91201 -0.043,4.43389 -0.18698,7.28989 -0.19202,3.808 -0.012,7.52499 -0.572,11.30599 -0.22598,1.519 -0.47897,3.23002 -0.82797,4.72901 -0.13101,0.56401 -1.00305,1.31801 -1.25006,1.84902 -1.41699,2.52794 -3.34787,2.52788 -4.15472,1.84202 -0.98398,-0.83099 -3.17911,-1.58697 -3.59311,-2.77996 -0.50702,-1.459 -1.97211,-2.34494 -2.05811,-3.89195 -0.084,-1.54 -0.23001,-4.53613 -0.29101,-6.07613 z"
                 id="path3496"
                 inkscape:connector-curvature="0"
                 style="clip-rule:evenodd;fill:#090909;fill-rule:evenodd" />
              <path
                 d="m 330.54669,107.26552 c -2.49499,0.077 -4.99099,0.236 -7.48401,0.205 -2.341,-0.029 -3.65698,1.071 -4.35098,3.225 -0.56403,1.751 -1.06601,3.513 -1.323,5.333 -0.112,0.792 -0.092,1.611 -0.064,2.415 0.017,0.49499 0.36401,0.818 0.86599,0.815 0.88001,-0.004 1.76703,-0.007 2.63602,-0.124 2.03601,-0.274 4.06699,-0.594 6.09399,-0.936 2.822,-0.476 5.63501,-0.99901 8.457,-1.478 0.723,-0.124 1.45902,-0.16001 2.19001,-0.236 3.10998,-0.323 5.35998,1.13199 7.14599,3.498 0.30402,0.402 0.539,0.88199 0.69699,1.362 0.29203,0.893 0.168,1.726 -0.51498,2.448 -0.96301,1.01899 -2.021,1.92299 -3.15301,2.74399 -4.43,3.21701 -9.25898,5.65601 -14.456,7.366 -3.57001,1.17601 -7.225,1.912 -10.98599,2.138 -4.86801,0.293 -8.51401,-1.73 -11.163,-5.72499 -1.44101,-2.172 -2.34799,-4.569 -2.785,-7.125 -0.323,-1.89401 -0.23999,-3.78101 0.26099,-5.67401 0.73202,-2.76999 1.66201,-5.47299 2.53701,-8.19499 0.24698,-0.767 0.456,-1.549 0.73899,-2.30301 0.27801,-0.73799 0.238,-1.43 -0.10498,-2.123 -0.13001,-0.263 -0.26901,-0.52199 -0.39002,-0.78899 -0.78799,-1.729 -0.54699,-3.013 0.83899,-4.368005 0.85401,-0.833 1.90302,-1.372002 2.97101,-1.864998 3.01602,-1.393005 2.73801,-1.019005 3.69202,-4.395004 0.35897,-1.266998 0.599,-2.569 0.858,-3.862 0.11099,-0.556999 -0.10202,-1.002998 -0.642,-1.265999 -0.79202,-0.385002 -1.57501,-0.788002 -2.367,-1.169998 -1.32102,-0.639999 -2.66703,-1.236 -3.83301,-2.150002 -0.875,-0.686996 -1.65701,-1.446999 -2.04001,-2.537003 -0.42398,-1.206993 -0.17798,-2.167999 0.89502,-2.883995 0.603,-0.401001 1.28998,-0.694 1.96899,-0.958 1.79099,-0.693001 3.67801,-0.994003 5.56501,-1.280998 3.92199,-0.599007 7.87899,-0.858002 11.82699,-1.200005 4.31299,-0.373001 8.63199,-0.693001 12.94599,-1.061996 5.595,-0.478004 9.962,1.846001 13.583,5.898994 0.194,0.218002 0.361,0.463005 0.52402,0.708 1.25299,1.867004 1.112,3.170006 -0.59201,4.620003 -1.146,0.973999 -2.5,1.511002 -4.01901,1.604004 -2.19699,0.133995 -4.39099,0.327995 -6.58798,0.413994 -4.03501,0.159004 -8.06,0.436005 -12.068,0.920006 -3.10202,0.372993 -3.337,0.501999 -4.08401,3.862 -0.189,0.851997 -0.289,1.746994 -0.25699,2.615997 0.033,0.907997 0.31198,1.379997 1.26797,1.510002 0.94401,0.127998 1.88502,0.327995 2.83301,0.380997 3.00202,0.167 6.008,0.279999 9.012,0.414001 0.22,0.01 0.44,0.026 0.66,0.038 2.504,0.135994 3.857,1.450996 4.08701,3.970005 0.23401,2.57799 -0.97501,4.39899 -3.31299,4.973 -1.29602,0.319 -2.62702,0.23099 -3.944,0.27399 -1.54102,0.051 -3.08402,0.012 -4.62702,0.012 -10e-4,-0.019 -0.002,-0.039 -0.003,-0.058 z"
                 id="path3498"
                 inkscape:connector-curvature="0"
                 style="clip-rule:evenodd;fill:#090909;fill-rule:evenodd" />
              <g
                 id="g3500"
                 style="fill:#090909">
                <path
                   d="m 175.65112,67.720627 c -2.046,-0.021 -4.889,-0.325996 -7.67401,-1.042 -0.78898,-0.202995 -1.351,-0.170998 -1.84199,0.616005 -0.86499,1.383995 -2.21601,2.106995 -3.804,2.382996 -1.918,0.333 -3.24201,-0.385002 -4.114,-2.159996 -0.76399,-1.555 -0.818,-3.259003 -1.079,-4.920998 -0.034,-0.215996 -0.022,-0.439995 -0.015,-0.660999 0.029,-0.993999 -0.32099,-1.806999 -0.93299,-2.612 -1.43702,-1.891998 -2.35701,-4.038998 -2.85401,-6.375 -0.66,-3.106998 -0.455,-6.108997 0.79601,-9.054001 1.75399,-4.128998 4.35798,-7.642998 7.64898,-10.647999 6.265,-5.722002 13.625,-9.122002 22.05901,-10.051001 2.91099,-0.320999 5.85899,-0.418001 8.765,0.280998 3.438,0.828001 6.40701,2.528002 9.01001,4.865002 0.74699,0.671 1.54001,1.073 2.49499,1.23 1.45601,0.240999 2.85501,0.659 4.196,1.278999 2.84801,1.314001 4.39301,3.531004 4.737,6.647001 0.369,3.337002 -0.42299,6.403999 -1.99798,9.315002 -1.48101,2.736 -3.39,5.160999 -5.599,7.324997 -5.74901,5.632 -12.38401,9.855999 -20.07901,12.330994 -3.13201,1.009003 -5.72301,1.359001 -9.71601,1.252 z m -4.223,-11.569992 c 2.888,0.964001 5.583,1.192001 8.279,1.047001 4.76101,-0.252998 9.183,-1.826 13.454,-3.848 2.73199,-1.293999 5.30299,-2.841 7.541,-4.902 0.979,-0.901001 1.843,-1.894001 2.531,-3.030998 0.698,-1.153 1.083,-2.392002 1.062,-3.760002 -0.052,-3.391998 -2.588,-5.561001 -5.98401,-5.105 -3.14499,0.422001 -5.853,1.900002 -8.424,3.612 -4.345,2.893002 -8.43699,6.121002 -12.25799,9.683002 -2.08901,1.945 -4.203,3.865997 -6.20101,6.303997 z m -8.53749,-7.242588 c 0.47699,-0.449001 0.70098,-0.635002 0.89599,-0.847 4.342,-4.707001 5.52521,-7.336021 10.75534,-11.28384 0.319,-0.202999 1.04318,-1.153759 1.03519,-1.711761 -3.76059,1.201733 -4.05067,1.6441 -7.40367,3.986099 -1.82199,1.273003 -3.26344,3.251503 -4.39545,5.178501 -0.802,1.367001 -1.35541,2.799999 -0.8874,4.678001 z"
                   id="path3502"
                   inkscape:connector-curvature="0"
                   style="clip-rule:evenodd;fill:#090909;fill-rule:evenodd" />
                <path
                   d="m 179.87289,119.75463 c 0.004,2.864 -0.10399,5.718 -0.41899,8.566 -0.13,1.174 -0.373,2.314 -0.804,3.413 -0.59601,1.515 -1.718,2.352 -3.339,2.444 -1.024,0.059 -2.055,0.063 -3.08001,0.019 -2.15799,-0.094 -3.74099,-1.125 -4.76499,-3.03099 -0.98999,-1.843 -1.383,-3.856 -1.67,-5.893 -0.4,-2.835 -0.562,-5.689 -0.526,-8.555 0.058,-4.694 0.002,-9.393 0.193,-14.081 0.23299,-5.708003 0.497,-11.423 1.57799,-17.060001 0.31801,-1.659004 0.69,-3.303001 1.323,-4.871002 0.29901,-0.742996 0.649,-1.487 1.10401,-2.141998 1.235,-1.777 3.311,-2.002998 4.975,-0.598999 0.86499,0.730995 1.39099,1.700996 1.801,2.726997 0.68499,1.708 1.1,3.492004 1.42599,5.299004 0.60001,3.322998 0.92601,6.681999 1.17601,10.043999 0.373,5.044 0.62,10.096 0.724,15.154 0.058,2.858 0.19901,5.712 0.30299,8.566 z"
                   id="path3504"
                   inkscape:connector-curvature="0"
                   style="clip-rule:evenodd;fill:#090909;fill-rule:evenodd" />
              </g>
              <path
                 d="m 146.26399,127.94118 c -2.17399,1.61399 -2.92119,2.11271 -5.20218,3.58471 -6.147,3.96401 -12.70509,5.45746 -19.7211,7.47545 -5.00213,1.483 -11.15712,1.3619 -16.71271,1.75997 -4.810007,0.492 -8.290087,0.29936 -13.127092,-0.0136 -1.972,-0.12801 -4.382843,-0.45123 -6.217758,-0.69542 -1.482552,-0.11526 -3.429077,0.0308 -4.877075,-0.19714 -3.410004,-0.53501 -4.216232,0.23991 -7.565231,-0.60108 -0.824005,-0.207 -0.983559,1.0616 -1.166565,1.8846 -0.223999,1.006 -0.491997,1.991 -0.943001,2.922 -1.204994,2.48399 -2.642914,2.87071 -5.410919,2.91171 -0.660995,0.01 -3.288433,-0.41563 -3.943432,-0.48263 -2.412998,-0.249 -2.876644,0.0119 -4.123642,-2.12007 -0.865997,-1.48002 -1.335995,-3.097 -1.591,-4.77201 -0.219997,-1.449 -0.365002,-2.912 -0.486,-4.373 -0.048,-0.58301 -0.267002,-0.901 -0.801998,-1.158 -0.778965,-2.20301 -7.331963,-5.76654 -10.238144,-6.99497 -7.207996,-3.87799 -10.804039,-7.5498 -16.835041,-13.1008 -2.813999,-2.59 -5.02824,-4.59818 -7.339241,-7.65618 -1.021,-1.35101 -2.793159,-2.93243 -3.825821,-4.12676 -0.408997,-0.774 -1.384197,-2.246682 -1.6842,-3.071679 -0.550159,-2.05323 -0.607998,-3.835121 0.970001,-6.033119 0.993999,-1.384003 1.45718,-2.129242 2.782181,-3.18824 2.716,-2.168999 4.371048,-3.357254 7.516048,-4.799255 6.574001,-3.012993 13.476006,-4.989998 20.533009,-6.459999 1.866997,-0.389 3.753994,-0.682999 5.632996,-1.012001 0.571999,-0.1 3.731728,-0.359993 3.746735,-0.995995 0.018,-0.733002 0.05899,-1.467003 0.099,-2.200005 0.339996,-6.160995 1.521278,-10.871422 2.010727,-17.494781 0.03183,-2.02137 0.838341,-6.612137 1.402344,-7.970139 0.339996,-0.820999 0.82576,-1.507092 1.442757,-2.154091 1.112995,-1.167 5.342449,1.085751 6.696445,1.962749 0.82,0.531002 1.766731,1.655724 2.261734,2.482723 0.835999,1.397999 1.221909,3.658459 1.66291,5.213459 0.862999,3.043999 1.123817,5.490089 1.427818,8.635082 0.319,3.284996 0.535995,6.581001 0.792,9.872002 0.083,1.076996 0.089,1.098 1.138,1.129997 3.887985,0.118004 7.779991,0.133003 11.659988,0.370003 7.709,0.471001 15.302277,2.15696 22.675287,4.604958 3.07499,1.019997 5.81067,2.219559 8.54167,3.983559 2.177,1.404999 3.59792,2.537918 5.10593,4.668922 1.16099,1.640999 2.43063,4.260841 2.72363,6.26384 0.448,3.060997 -0.55376,4.66368 -2.43376,7.12668 -1.443,1.89 -3.06584,3.74976 -5.12784,4.94776 -0.65599,0.381 -0.79892,0.55828 -1.56091,0.50528 -2.13417,0.26413 -3.37273,0.27027 -5.26372,0.0403 -2.54701,-0.312 -9.44674,-2.23857 -8.6503,-3.87937 0.46712,-0.35084 3.01759,-1.5267 3.7836,-2.3177 0.66499,-0.687 2.30243,-1.62432 2.63243,-2.558319 0.82361,-0.664085 1.47192,-4.013725 1.05092,-4.492722 -0.541,-0.617004 -4.16608,-1.225929 -5.49168,-1.532158 -1.68966,-0.210526 -3.23078,-0.62899 -5.154118,-0.992401 -6.346268,-1.304909 -11.66156,-2.011841 -18.191559,-2.59584 -3.595001,-0.320999 -5.160843,-0.31942 -8.757843,-0.33242 -0.365997,-0.002 -0.734001,0.007 -1.098999,0.041 -0.323997,0.03 -0.550995,0.225998 -0.567001,0.556999 -0.034,0.732002 -0.06499,1.467003 -0.045,2.199997 0.103004,3.741005 0.229004,6.268501 0.334,10.008494 0.141998,4.98801 0.262001,9.97701 0.411003,14.96501 0.083,2.786 0.211998,5.571 0.306,8.356 0.02,0.591 1.256096,1.73706 1.900101,1.86206 1.284866,0.221 2.38372,0.38396 5.154716,0.69596 5.120003,0.576 11.613121,0.48197 16.750122,0.22198 9.354998,-0.47501 14.578648,-1.12492 23.394658,-4.42592 3.79499,-1.42 8.55509,-2.99198 11.8691,-5.34299 3.63901,-2.58099 7.99511,-4.94093 10.14111,-8.89593 3.147,-5.801 5.00804,-12.7164 3.71803,-19.124405 -0.93899,-4.660995 -3.38929,-10.573288 -5.8533,-14.607285 -2.69099,-4.407005 -7.45299,-8.480881 -11.03699,-12.191879 -7.763,-8.038063 -14.35595,-13.209095 -23.90694,-18.929096 C 92.203879,38.491036 78.705077,34.154637 66.100081,30.021634 c -9.224998,-3.025 -18.617004,-5.348 -28.208,-6.825998 -5.514996,-0.849001 -7.38472,-1.24036 -12.97472,-1.34836 -1.172001,-0.022 -5.06319,-0.23455 -6.235191,-0.240551 -5.215,-0.032 -7.329079,0.05791 -12.516079,0.61091 -1.608,0.171999 -3.200001,0.442999 -4.754,0.889999 -0.558,0.16 -1.11,0.394001 -1.610001,0.687 -1.17273,3.046089 5.24428,3.69191 5.99328,4.29591 0.449999,0.363001 0.994999,0.610001 1.497,0.91 1.177,0.704 1.661001,1.414001 1.433001,2.215 -0.292999,1.029001 -1.194,1.202002 -2.075001,1.360003 -2.344,0.422001 -7.77092,0.213909 -10.08292,-0.347092 -0.559,-0.135998 -4.337999,-1.507181 -4.843,-1.79418 -0.962,-0.548 -2.69728,-2.002371 -2.77528,-3.109371 -0.085,-1.198999 0.61182,-3.150999 1.145821,-4.230999 0.426,-0.859001 0.64382,-1.225719 1.068179,-2.227911 0.792001,-0.868999 1.739551,-2.327909 2.481551,-3.234909 1.50465,-1.50465 3.688999,-2.357809 6.505999,-3.096809 3.058001,-0.801999 4.32736,-1.592639 7.460361,-1.96664 7.219999,-0.862 14.468,-1.349 21.743998,-1.361 5.441998,-0.009 10.846004,0.465 16.238998,1.160001 10.230007,1.318999 20.177002,3.815998 29.921005,7.152 14.515999,4.969997 28.225998,11.624996 41.007008,20.103998 9.25799,6.142002 17.984,12.981003 25.689,21.041 5.453,5.702995 10.354,11.817993 14.039,18.83699 2.021,3.853004 3.60199,7.867004 4.371,12.174004 0.989,5.538002 0.543,10.972001 -1.167,16.306001 -1.87101,5.839 -3.59609,9.85536 -7.8431,14.25336 -0.96799,1 -3.30759,4.45478 -5.347,5.70719 z m -91.561373,-6.8782 c 0.322006,-0.373 0.111687,-0.97409 0.113682,-1.39909 0.02201,-7.041 -0.04299,-12.24337 0.177006,-19.28336 0.078,-2.492004 0.07,-4.987 0.098,-7.480003 0.007,-0.585999 0.016,-1.173996 0,-1.761002 -0.028,-1.063995 -0.129997,-1.144997 -1.120998,-1.085999 -4.390011,0.260002 -9.140034,1.650093 -13.512032,2.144089 -3.937004,0.445 -5.648632,1.04393 -9.510635,1.91993 -2.214996,0.503006 -3.148888,1.096535 -5.21489,2.069534 -1,0.472 -1.64444,1.114632 -2.42944,1.903625 -0.51825,0.897644 -1.002029,1.587212 -0.120029,3.028216 0.616001,1.00799 1.182781,1.68589 1.998779,2.53489 2.349003,2.448 4.867992,5.02744 7.652,6.94444 7.408993,5.099 9.392338,6.87956 17.656246,11.04919 0.464001,0.174 3.660316,-0.42147 4.212311,-0.58446 z"
                 id="path3506"
                 inkscape:connector-curvature="0"
                 style="clip-rule:evenodd;fill:#090909;fill-rule:evenodd" />
            </g>
          </g>
        </g>
        <g
           id="g3194"
           transform="matrix(2.34327,0,0,2.34327,25.9209,-26.1904)"
           style="fill:#282828">
          <g
             id="g3190"
             style="fill:#282828">
            <g
               id="g3243"
               style="fill:#282828">
              <path
                 id="path3148"
                 d="m 362.09793,158.98059 c -0.092,0.112 -0.23099,0.209 -0.26901,0.336 -1.492,5.05901 -3.45999,9.98199 -4.328,15.22 -0.336,2.022 -0.70099,4.043 -1.112,6.05299 -0.176,0.85502 -0.47898,1.68801 -0.77698,2.51401 -0.254,0.704 -0.827,0.972 -1.56101,0.985 -0.67599,0.014 -1.307,-0.141 -1.93399,-0.367 -1.328,-0.479 -2.526,-1.19901 -3.58301,-2.117 -2.67001,-2.316 -4.548,-5.14499 -5.44799,-8.60199 -0.263,-1.01001 -0.33701,-2.02001 -0.36002,-3.04902 -0.091,-3.97898 0.45599,-7.89799 1.125,-11.804 0.14801,-0.86999 0.30701,-1.73098 0.301,-2.61499 0.62301,-1.349 0.70401,-2.83 1.02999,-4.251 1.95102,-8.512 4.46702,-16.86499 7.08802,-25.189 0.022,-0.069 0.055,-0.136 0.076,-0.206 0.38202,-1.264 0.89102,-2.506 1.10901,-3.797 0.23001,-1.366 -0.76899,-2.472 -1.20002,-3.696 -1.96899,-5.589 -2.01199,-11.205 -0.48098,-16.882 1.44699,-5.364997 3.87301,-10.280997 6.82501,-14.956 2.63299,-4.170998 5.642,-8.053001 9.06198,-11.608002 0.659,-0.685997 1.366,-1.336998 2.11902,-1.919998 0.892,-0.692001 1.81799,-0.519997 2.46399,0.404999 0.24701,0.354004 0.431,0.769005 0.57,1.181 0.68799,2.042999 0.56198,4.058006 -0.38101,5.988007 -0.67599,1.381996 -1.42801,2.728996 -2.17801,4.073997 -2.46298,4.419998 -4.98898,8.808998 -7.09799,13.416 -0.76199,1.665001 -1.45599,3.360997 -1.91901,5.144997 -0.42898,1.65 -0.24197,3.188 0.58802,4.659 0.725,-0.055 0.948,-0.673 1.30099,-1.112 4.83802,-6.007 9.892,-11.822002 15.396,-17.229999 3.35202,-3.294998 6.83801,-6.445 10.79202,-9.026001 1.414,-0.921997 2.87998,-1.737999 4.482,-2.312996 2.04599,-0.734001 4.02398,-0.646004 5.98599,0.254997 2.26401,1.039001 4.02099,2.68 5.462,4.668999 1.844,2.545998 2.84101,5.446999 3.409,8.507004 0.94299,5.078995 0.737,10.075996 -1.11899,14.946996 -0.81201,2.132 -1.80502,4.17601 -3.03701,6.095 -5.87299,9.137 -13.80899,15.69699 -24.167,19.17 -3.152,1.05701 -6.423,1.495 -9.751,1.43201 -1.38501,-0.026 -1.387,-0.031 -1.74601,1.31999 -0.565,2.12601 -1.09799,4.26199 -1.699,6.377 -1.54099,5.433 -3.10498,10.858 -4.67899,16.28 -0.16299,0.567 -0.36999,1.114 -0.358,1.71201 z m 14.065,-41.084 c 1.18299,0.22 2.129,0.113 3.06299,-0.073 6.80301,-1.34899 12.44,-4.707 16.96402,-9.93599 1.84598,-2.13201 3.233,-4.53701 4.04398,-7.25801 0.77002,-2.585994 0.931,-5.18899 0.332,-7.831996 -0.18198,-0.799995 -0.45999,-1.550995 -0.97901,-2.188995 -1.01498,-1.25 -2.34497,-1.507004 -3.68798,-0.639999 -0.67301,0.433998 -1.29001,0.973 -1.86899,1.528999 -2.18302,2.098 -3.97602,4.521996 -5.716,6.981003 -4.20301,5.938998 -7.999,12.136988 -11.64002,18.431998 -0.142,0.245 -0.26199,0.502 -0.51099,0.986 z"
                 inkscape:connector-curvature="0"
                 style="clip-rule:evenodd;fill:#282828;fill-rule:evenodd" />
              <path
                 id="path3150"
                 d="m 227.45555,74.25708 c 4.07199,-0.041 6.78481,0.639908 10.58479,1.105911 1.67801,0.207001 3.70774,1.528641 5.33576,1.982635 1.06399,0.296005 2.06698,0.749001 2.99798,1.354004 2.16401,1.406998 2.32102,4.161995 0.092,5.645996 -0.86401,0.576004 -1.78601,1.002998 -2.76001,1.345001 -2.64999,0.931 -5.77774,1.21991 -8.54474,1.546913 -3.93398,0.465996 -7.51625,0.910088 -11.47226,1.161087 -5.05,0.320999 -8.05271,0.183273 -13.07371,0.88427 -1.893,0.264 -5.60763,0.514458 -7.40865,1.183464 -0.696,0.257996 -3.92509,0.787628 -4.4351,1.349625 -0.62599,0.690002 -0.41591,1.111824 0.3851,1.511818 0.58499,0.292007 4.37445,0.177277 5.01146,0.312271 1.435,0.304001 4.496,0.610001 5.952,0.758003 3.13574,0.06882 4.66046,0.582458 8.24446,0.866463 4.02499,0.32 9.29927,1.303909 13.27726,2.017906 3.25901,0.584999 5.11518,1.718178 8.08118,3.264183 2.81,2.21418 6.24402,6.87136 6.526,12.69736 0.30701,6.363 -1.17264,10.12737 -6.12863,13.81637 -3.24402,2.413 -8.81764,3.767 -12.75464,4.46199 -7.92201,1.39801 -12.47646,0.12491 -20.35155,-1.10791 -3.981,-1.20399 -7.74409,-2.08336 -10.81709,-4.93536 -1.136,-1.054 -3.41782,-2.98845 -4.28082,-4.27445 -2.76399,-4.125 -3.38318,-8.64664 0.24482,-11.52465 2.131,-1.68899 4.94272,-3.79171 7.57273,-4.26971 1.879,-0.343 5.10083,-0.71464 7.01982,-0.58364 5.5,0.376 -3.71367,-1.41323 15.99681,2.92827 1.57696,0.34735 3.39819,0.53027 4.81619,1.32927 0.51001,0.288 1.00116,0.34681 2.06136,1.02955 2.83719,1.82706 1.62718,2.46555 0.56218,3.74855 -0.523,0.63 -4.69719,1.72636 -5.41919,2.08736 -3.32018,0.41182 -4.68454,0.33436 -6.51407,-0.11464 -2.11801,-0.283 -4.14101,-0.969 -6.138,-1.709 -1.925,-0.714 -3.84401,-1.44601 -5.75601,-2.19701 -1.168,-0.459 -2.07181,-0.63736 -3.30782,-0.76136 -2.39999,-0.23999 -4.4069,0.68874 -5.8249,2.83674 -1.08301,1.64199 -0.7921,3.08171 0.85991,4.15171 0.744,0.48201 2.00427,1.27429 2.86926,1.45429 1.29201,0.268 2.59001,0.63009 3.91701,0.72009 3.539,0.241 6.16046,0.40582 9.65545,-0.0382 4.515,-0.573 7.15836,-1.65119 11.53637,-2.92619 2.184,-0.637 4.70272,-1.88582 6.68573,-3.04283 0.96099,-0.56099 2.22073,-1.48817 2.8807,-2.39817 1.04401,-1.44101 1.41584,-2.95227 0.45111,-4.26491 -1.05398,-0.818 -2.19244,-1.86682 -3.42846,-2.33882 -3.23499,-1.235 -6.88718,-1.27554 -10.27918,-1.92554 -5.72055,-0.42009 -8.93199,-0.30336 -14.664,-0.33936 -3.23299,-0.021 -6.37744,0.32036 -9.56444,-0.24964 -1.744,-0.312 -5.76947,-1.93318 -7.34047,-2.77718 -2.703,-1.450005 -4.43173,-2.68837 -4.56472,-5.725372 -0.213,-4.896996 1.26208,-8.626999 5.08009,-11.509003 2.61099,-1.970993 6.30345,-3.928909 9.38745,-4.924904 4.487,-1.450005 7.6411,-2.530182 12.3251,-3.015182 3.876,-0.401001 8.79064,-0.676086 12.43264,-0.598091 l 1.98573,2.3e-5 z"
                 inkscape:connector-curvature="0"
                 style="clip-rule:evenodd;fill:#282828;fill-rule:evenodd" />
              <path
                 id="path3154"
                 d="m 248.55688,119.75066 c 0.076,-4.121 0.14896,-8.41102 0.71497,-12.48002 0.70801,-5.089 1.51303,-12.671024 2.88403,-17.630023 0.60602,-2.194 1.318,-4.352997 2.267,-6.423996 0.551,-1.204002 1.177,-2.368004 2.06497,-3.367004 1.55701,-1.751999 3.09,-2.007996 5.073,-0.817001 1.07401,0.645004 4.74121,3.889015 5.63019,4.770012 2.14502,2.124001 4.017,4.479004 5.84302,6.874001 3.474,4.556 4.04388,9.269447 7.2709,13.999451 1.034,1.516 2.082,3.022 3.138,4.523 0.422,0.6 0.86499,1.187 1.33298,1.753 0.45599,0.551 1.24173,2.34055 1.99774,2.16855 0.983,-0.224 0.53119,-4.17628 0.64618,-5.03228 0.28601,-2.126 -0.70453,-5.27863 -1.09955,-7.38563 -0.95999,-5.128012 -1.75955,-10.032461 -3.23254,-15.026457 -1.22501,-4.149002 -3.28546,-8.344551 -4.20844,-12.575554 -0.23401,-1.073997 -0.41302,-2.163002 -0.54901,-3.252998 -0.13,-1.030998 0.021,-2.057999 0.331,-3.043999 0.34301,-1.091003 1.02801,-1.510002 2.181,-1.419006 1.138,0.09 3.52353,3.176872 4.42852,3.822876 1.57001,1.118996 2.22596,4.300156 3.40796,5.808159 2.09299,2.668999 3.95362,7.132622 5.43061,10.172615 3.22799,6.642006 3.1184,9.889641 4.1824,17.206644 0.871,5.998 0.45755,9.69188 -0.45145,15.0027 -0.94,2.088 -1.24817,4.60351 -2.71164,6.74979 -1.45098,1.609 -1.97604,4.06964 -4.11502,4.63364 -1.96402,0.518 -3.41873,1.87576 -5.08673,0.64976 -1.55102,-1.14 -2.74093,-1.46135 -3.99893,-2.90135 -2.46698,-2.828 -4.09418,-4.57618 -6.15616,-7.70218 -2.18301,-3.307 -3.13128,-4.8879 -4.63238,-8.28345 -0.64099,-0.984 -2.55228,-4.01528 -3.24326,-4.96328 -0.38702,-0.532 -1.26929,-2.79709 -1.73327,-3.26409 -0.53,-0.89138 -4.10007,-10.993541 -4.48514,-0.2619 0.028,0.77801 -0.075,2.78113 -0.18698,3.42813 -0.047,2.91201 -0.043,4.43389 -0.18698,7.28989 -0.19202,3.808 -0.012,7.52499 -0.572,11.30599 -0.22598,1.519 -0.47897,3.23002 -0.82797,4.72901 -0.13101,0.56401 -1.00305,1.31801 -1.25006,1.84902 -1.41699,2.52794 -3.34787,2.52788 -4.15472,1.84202 -0.98398,-0.83099 -3.17911,-1.58697 -3.59311,-2.77996 -0.50702,-1.459 -1.97211,-2.34494 -2.05811,-3.89195 -0.084,-1.54 -0.23001,-4.53613 -0.29101,-6.07613 z"
                 inkscape:connector-curvature="0"
                 style="clip-rule:evenodd;fill:#282828;fill-rule:evenodd" />
              <path
                 id="path3156"
                 d="m 330.54669,107.26552 c -2.49499,0.077 -4.99099,0.236 -7.48401,0.205 -2.341,-0.029 -3.65698,1.071 -4.35098,3.225 -0.56403,1.751 -1.06601,3.513 -1.323,5.333 -0.112,0.792 -0.092,1.611 -0.064,2.415 0.017,0.49499 0.36401,0.818 0.86599,0.815 0.88001,-0.004 1.76703,-0.007 2.63602,-0.124 2.03601,-0.274 4.06699,-0.594 6.09399,-0.936 2.822,-0.476 5.63501,-0.99901 8.457,-1.478 0.723,-0.124 1.45902,-0.16001 2.19001,-0.236 3.10998,-0.323 5.35998,1.13199 7.14599,3.498 0.30402,0.402 0.539,0.88199 0.69699,1.362 0.29203,0.893 0.168,1.726 -0.51498,2.448 -0.96301,1.01899 -2.021,1.92299 -3.15301,2.74399 -4.43,3.21701 -9.25898,5.65601 -14.456,7.366 -3.57001,1.17601 -7.225,1.912 -10.98599,2.138 -4.86801,0.293 -8.51401,-1.73 -11.163,-5.72499 -1.44101,-2.172 -2.34799,-4.569 -2.785,-7.125 -0.323,-1.89401 -0.23999,-3.78101 0.26099,-5.67401 0.73202,-2.76999 1.66201,-5.47299 2.53701,-8.19499 0.24698,-0.767 0.456,-1.549 0.73899,-2.30301 0.27801,-0.73799 0.238,-1.43 -0.10498,-2.123 -0.13001,-0.263 -0.26901,-0.52199 -0.39002,-0.78899 -0.78799,-1.729 -0.54699,-3.013 0.83899,-4.368005 0.85401,-0.833 1.90302,-1.372002 2.97101,-1.864998 3.01602,-1.393005 2.73801,-1.019005 3.69202,-4.395004 0.35897,-1.266998 0.599,-2.569 0.858,-3.862 0.11099,-0.556999 -0.10202,-1.002998 -0.642,-1.265999 -0.79202,-0.385002 -1.57501,-0.788002 -2.367,-1.169998 -1.32102,-0.639999 -2.66703,-1.236 -3.83301,-2.150002 -0.875,-0.686996 -1.65701,-1.446999 -2.04001,-2.537003 -0.42398,-1.206993 -0.17798,-2.167999 0.89502,-2.883995 0.603,-0.401001 1.28998,-0.694 1.96899,-0.958 1.79099,-0.693001 3.67801,-0.994003 5.56501,-1.280998 3.92199,-0.599007 7.87899,-0.858002 11.82699,-1.200005 4.31299,-0.373001 8.63199,-0.693001 12.94599,-1.061996 5.595,-0.478004 9.962,1.846001 13.583,5.898994 0.194,0.218002 0.361,0.463005 0.52402,0.708 1.25299,1.867004 1.112,3.170006 -0.59201,4.620003 -1.146,0.973999 -2.5,1.511002 -4.01901,1.604004 -2.19699,0.133995 -4.39099,0.327995 -6.58798,0.413994 -4.03501,0.159004 -8.06,0.436005 -12.068,0.920006 -3.10202,0.372993 -3.337,0.501999 -4.08401,3.862 -0.189,0.851997 -0.289,1.746994 -0.25699,2.615997 0.033,0.907997 0.31198,1.379997 1.26797,1.510002 0.94401,0.127998 1.88502,0.327995 2.83301,0.380997 3.00202,0.167 6.008,0.279999 9.012,0.414001 0.22,0.01 0.44,0.026 0.66,0.038 2.504,0.135994 3.857,1.450996 4.08701,3.970005 0.23401,2.57799 -0.97501,4.39899 -3.31299,4.973 -1.29602,0.319 -2.62702,0.23099 -3.944,0.27399 -1.54102,0.051 -3.08402,0.012 -4.62702,0.012 -10e-4,-0.019 -0.002,-0.039 -0.003,-0.058 z"
                 inkscape:connector-curvature="0"
                 style="clip-rule:evenodd;fill:#282828;fill-rule:evenodd" />
              <g
                 id="g3234"
                 style="fill:#282828">
                <path
                   id="path3158"
                   d="m 175.65112,67.720627 c -2.046,-0.021 -4.889,-0.325996 -7.67401,-1.042 -0.78898,-0.202995 -1.351,-0.170998 -1.84199,0.616005 -0.86499,1.383995 -2.21601,2.106995 -3.804,2.382996 -1.918,0.333 -3.24201,-0.385002 -4.114,-2.159996 -0.76399,-1.555 -0.818,-3.259003 -1.079,-4.920998 -0.034,-0.215996 -0.022,-0.439995 -0.015,-0.660999 0.029,-0.993999 -0.32099,-1.806999 -0.93299,-2.612 -1.43702,-1.891998 -2.35701,-4.038998 -2.85401,-6.375 -0.66,-3.106998 -0.455,-6.108997 0.79601,-9.054001 1.75399,-4.128998 4.35798,-7.642998 7.64898,-10.647999 6.265,-5.722002 13.625,-9.122002 22.05901,-10.051001 2.91099,-0.320999 5.85899,-0.418001 8.765,0.280998 3.438,0.828001 6.40701,2.528002 9.01001,4.865002 0.74699,0.671 1.54001,1.073 2.49499,1.23 1.45601,0.240999 2.85501,0.659 4.196,1.278999 2.84801,1.314001 4.39301,3.531004 4.737,6.647001 0.369,3.337002 -0.42299,6.403999 -1.99798,9.315002 -1.48101,2.736 -3.39,5.160999 -5.599,7.324997 -5.74901,5.632 -12.38401,9.855999 -20.07901,12.330994 -3.13201,1.009003 -5.72301,1.359001 -9.71601,1.252 z m -4.223,-11.569992 c 2.888,0.964001 5.583,1.192001 8.279,1.047001 4.76101,-0.252998 9.183,-1.826 13.454,-3.848 2.73199,-1.293999 5.30299,-2.841 7.541,-4.902 0.979,-0.901001 1.843,-1.894001 2.531,-3.030998 0.698,-1.153 1.083,-2.392002 1.062,-3.760002 -0.052,-3.391998 -2.588,-5.561001 -5.98401,-5.105 -3.14499,0.422001 -5.853,1.900002 -8.424,3.612 -4.345,2.893002 -8.43699,6.121002 -12.25799,9.683002 -2.08901,1.945 -4.203,3.865997 -6.20101,6.303997 z m -8.53749,-7.242588 c 0.47699,-0.449001 0.70098,-0.635002 0.89599,-0.847 4.342,-4.707001 5.52521,-7.336021 10.75534,-11.28384 0.319,-0.202999 1.04318,-1.153759 1.03519,-1.711761 -3.76059,1.201733 -4.05067,1.6441 -7.40367,3.986099 -1.82199,1.273003 -3.26344,3.251503 -4.39545,5.178501 -0.802,1.367001 -1.35541,2.799999 -0.8874,4.678001 z"
                   inkscape:connector-curvature="0"
                   style="clip-rule:evenodd;fill:#282828;fill-rule:evenodd" />
                <path
                   id="path3160"
                   d="m 179.87289,119.75463 c 0.004,2.864 -0.10399,5.718 -0.41899,8.566 -0.13,1.174 -0.373,2.314 -0.804,3.413 -0.59601,1.515 -1.718,2.352 -3.339,2.444 -1.024,0.059 -2.055,0.063 -3.08001,0.019 -2.15799,-0.094 -3.74099,-1.125 -4.76499,-3.03099 -0.98999,-1.843 -1.383,-3.856 -1.67,-5.893 -0.4,-2.835 -0.562,-5.689 -0.526,-8.555 0.058,-4.694 0.002,-9.393 0.193,-14.081 0.23299,-5.708003 0.497,-11.423 1.57799,-17.060001 0.31801,-1.659004 0.69,-3.303001 1.323,-4.871002 0.29901,-0.742996 0.649,-1.487 1.10401,-2.141998 1.235,-1.777 3.311,-2.002998 4.975,-0.598999 0.86499,0.730995 1.39099,1.700996 1.801,2.726997 0.68499,1.708 1.1,3.492004 1.42599,5.299004 0.60001,3.322998 0.92601,6.681999 1.17601,10.043999 0.373,5.044 0.62,10.096 0.724,15.154 0.058,2.858 0.19901,5.712 0.30299,8.566 z"
                   inkscape:connector-curvature="0"
                   style="clip-rule:evenodd;fill:#282828;fill-rule:evenodd" />
              </g>
              <path
                 id="path3142"
                 d="m 146.26399,127.94118 c -2.17399,1.61399 -2.92119,2.11271 -5.20218,3.58471 -6.147,3.96401 -12.70509,5.45746 -19.7211,7.47545 -5.00213,1.483 -11.15712,1.3619 -16.71271,1.75997 -4.810007,0.492 -8.290087,0.29936 -13.127092,-0.0136 -1.972,-0.12801 -4.382843,-0.45123 -6.217758,-0.69542 -1.482552,-0.11526 -3.429077,0.0308 -4.877075,-0.19714 -3.410004,-0.53501 -4.216232,0.23991 -7.565231,-0.60108 -0.824005,-0.207 -0.983559,1.0616 -1.166565,1.8846 -0.223999,1.006 -0.491997,1.991 -0.943001,2.922 -1.204994,2.48399 -2.642914,2.87071 -5.410919,2.91171 -0.660995,0.01 -3.288433,-0.41563 -3.943432,-0.48263 -2.412998,-0.249 -2.876644,0.0119 -4.123642,-2.12007 -0.865997,-1.48002 -1.335995,-3.097 -1.591,-4.77201 -0.219997,-1.449 -0.365002,-2.912 -0.486,-4.373 -0.048,-0.58301 -0.267002,-0.901 -0.801998,-1.158 -0.778965,-2.20301 -7.331963,-5.76654 -10.238144,-6.99497 -7.207996,-3.87799 -10.804039,-7.5498 -16.835041,-13.1008 -2.813999,-2.59 -5.02824,-4.59818 -7.339241,-7.65618 -1.021,-1.35101 -2.793159,-2.93243 -3.825821,-4.12676 -0.408997,-0.774 -1.384197,-2.246682 -1.6842,-3.071679 -0.550159,-2.05323 -0.607998,-3.835121 0.970001,-6.033119 0.993999,-1.384003 1.45718,-2.129242 2.782181,-3.18824 2.716,-2.168999 4.371048,-3.357254 7.516048,-4.799255 6.574001,-3.012993 13.476006,-4.989998 20.533009,-6.459999 1.866997,-0.389 3.753994,-0.682999 5.632996,-1.012001 0.571999,-0.1 3.731728,-0.359993 3.746735,-0.995995 0.018,-0.733002 0.05899,-1.467003 0.099,-2.200005 0.339996,-6.160995 1.521278,-10.871422 2.010727,-17.494781 0.03183,-2.02137 0.838341,-6.612137 1.402344,-7.970139 0.339996,-0.820999 0.82576,-1.507092 1.442757,-2.154091 1.112995,-1.167 5.342449,1.085751 6.696445,1.962749 0.82,0.531002 1.766731,1.655724 2.261734,2.482723 0.835999,1.397999 1.221909,3.658459 1.66291,5.213459 0.862999,3.043999 1.123817,5.490089 1.427818,8.635082 0.319,3.284996 0.535995,6.581001 0.792,9.872002 0.083,1.076996 0.089,1.098 1.138,1.129997 3.887985,0.118004 7.779991,0.133003 11.659988,0.370003 7.709,0.471001 15.302277,2.15696 22.675287,4.604958 3.07499,1.019997 5.81067,2.219559 8.54167,3.983559 2.177,1.404999 3.59792,2.537918 5.10593,4.668922 1.16099,1.640999 2.43063,4.260841 2.72363,6.26384 0.448,3.060997 -0.55376,4.66368 -2.43376,7.12668 -1.443,1.89 -3.06584,3.74976 -5.12784,4.94776 -0.65599,0.381 -0.79892,0.55828 -1.56091,0.50528 -2.13417,0.26413 -3.37273,0.27027 -5.26372,0.0403 -2.54701,-0.312 -9.44674,-2.23857 -8.6503,-3.87937 0.46712,-0.35084 3.01759,-1.5267 3.7836,-2.3177 0.66499,-0.687 2.30243,-1.62432 2.63243,-2.558319 0.82361,-0.664085 1.47192,-4.013725 1.05092,-4.492722 -0.541,-0.617004 -4.16608,-1.225929 -5.49168,-1.532158 -1.68966,-0.210526 -3.23078,-0.62899 -5.154118,-0.992401 -6.346268,-1.304909 -11.66156,-2.011841 -18.191559,-2.59584 -3.595001,-0.320999 -5.160843,-0.31942 -8.757843,-0.33242 -0.365997,-0.002 -0.734001,0.007 -1.098999,0.041 -0.323997,0.03 -0.550995,0.225998 -0.567001,0.556999 -0.034,0.732002 -0.06499,1.467003 -0.045,2.199997 0.103004,3.741005 0.229004,6.268501 0.334,10.008494 0.141998,4.98801 0.262001,9.97701 0.411003,14.96501 0.083,2.786 0.211998,5.571 0.306,8.356 0.02,0.591 1.256096,1.73706 1.900101,1.86206 1.284866,0.221 2.38372,0.38396 5.154716,0.69596 5.120003,0.576 11.613121,0.48197 16.750122,0.22198 9.354998,-0.47501 14.578648,-1.12492 23.394658,-4.42592 3.79499,-1.42 8.55509,-2.99198 11.8691,-5.34299 3.63901,-2.58099 7.99511,-4.94093 10.14111,-8.89593 3.147,-5.801 5.00804,-12.7164 3.71803,-19.124405 -0.93899,-4.660995 -3.38929,-10.573288 -5.8533,-14.607285 -2.69099,-4.407005 -7.45299,-8.480881 -11.03699,-12.191879 -7.763,-8.038063 -14.35595,-13.209095 -23.90694,-18.929096 C 92.203879,38.491036 78.705077,34.154637 66.100081,30.021634 c -9.224998,-3.025 -18.617004,-5.348 -28.208,-6.825998 -5.514996,-0.849001 -7.38472,-1.24036 -12.97472,-1.34836 -1.172001,-0.022 -5.06319,-0.23455 -6.235191,-0.240551 -5.215,-0.032 -7.329079,0.05791 -12.516079,0.61091 -1.608,0.171999 -3.200001,0.442999 -4.754,0.889999 -0.558,0.16 -1.11,0.394001 -1.610001,0.687 -1.17273,3.046089 5.24428,3.69191 5.99328,4.29591 0.449999,0.363001 0.994999,0.610001 1.497,0.91 1.177,0.704 1.661001,1.414001 1.433001,2.215 -0.292999,1.029001 -1.194,1.202002 -2.075001,1.360003 -2.344,0.422001 -7.77092,0.213909 -10.08292,-0.347092 -0.559,-0.135998 -4.337999,-1.507181 -4.843,-1.79418 -0.962,-0.548 -2.69728,-2.002371 -2.77528,-3.109371 -0.085,-1.198999 0.61182,-3.150999 1.145821,-4.230999 0.426,-0.859001 0.64382,-1.225719 1.068179,-2.227911 0.792001,-0.868999 1.739551,-2.327909 2.481551,-3.234909 1.50465,-1.50465 3.688999,-2.357809 6.505999,-3.096809 3.058001,-0.801999 4.32736,-1.592639 7.460361,-1.96664 7.219999,-0.862 14.468,-1.349 21.743998,-1.361 5.441998,-0.009 10.846004,0.465 16.238998,1.160001 10.230007,1.318999 20.177002,3.815998 29.921005,7.152 14.515999,4.969997 28.225998,11.624996 41.007008,20.103998 9.25799,6.142002 17.984,12.981003 25.689,21.041 5.453,5.702995 10.354,11.817993 14.039,18.83699 2.021,3.853004 3.60199,7.867004 4.371,12.174004 0.989,5.538002 0.543,10.972001 -1.167,16.306001 -1.87101,5.839 -3.59609,9.85536 -7.8431,14.25336 -0.96799,1 -3.30759,4.45478 -5.347,5.70719 z m -91.561373,-6.8782 c 0.322006,-0.373 0.111687,-0.97409 0.113682,-1.39909 0.02201,-7.041 -0.04299,-12.24337 0.177006,-19.28336 0.078,-2.492004 0.07,-4.987 0.098,-7.480003 0.007,-0.585999 0.016,-1.173996 0,-1.761002 -0.028,-1.063995 -0.129997,-1.144997 -1.120998,-1.085999 -4.390011,0.260002 -9.140034,1.650093 -13.512032,2.144089 -3.937004,0.445 -5.648632,1.04393 -9.510635,1.91993 -2.214996,0.503006 -3.148888,1.096535 -5.21489,2.069534 -1,0.472 -1.64444,1.114632 -2.42944,1.903625 -0.51825,0.897644 -1.002029,1.587212 -0.120029,3.028216 0.616001,1.00799 1.182781,1.68589 1.998779,2.53489 2.349003,2.448 4.867992,5.02744 7.652,6.94444 7.408993,5.099 9.392338,6.87956 17.656246,11.04919 0.464001,0.174 3.660316,-0.42147 4.212311,-0.58446 z"
                 inkscape:connector-curvature="0"
                 style="clip-rule:evenodd;fill:#282828;fill-rule:evenodd" />
            </g>
          </g>
        </g>
      </g>
    </g>
  </g>
</svg>
