<?xml version="1.0" encoding="UTF-8" standalone="no"?>
<!-- Generator: Adobe Illustrator 16.0.0, SVG Export Plug-In . SVG Version: 6.00 Build 0)  -->

<svg
   xmlns:dc="http://purl.org/dc/elements/1.1/"
   xmlns:cc="http://creativecommons.org/ns#"
   xmlns:rdf="http://www.w3.org/1999/02/22-rdf-syntax-ns#"
   xmlns:svg="http://www.w3.org/2000/svg"
   xmlns="http://www.w3.org/2000/svg"
   xmlns:sodipodi="http://sodipodi.sourceforge.net/DTD/sodipodi-0.dtd"
   xmlns:inkscape="http://www.inkscape.org/namespaces/inkscape"
   version="1.1"
   id="Capa_1"
   x="0px"
   y="0px"
   width="500mm"
   height="500mm"
   viewBox="-194 178.218 1889.7637 1889.7638"
   enable-background="new -194 178.218 1000 435.564"
   xml:space="preserve"
   sodipodi:docname="disney_channel.svg"
   inkscape:version="0.92.4 (5da689c313, 2019-01-14)"><metadata
   id="metadata47"><rdf:RDF><cc:Work
       rdf:about=""><dc:format>image/svg+xml</dc:format><dc:type
         rdf:resource="http://purl.org/dc/dcmitype/StillImage" /><dc:title></dc:title></cc:Work></rdf:RDF></metadata><defs
   id="defs45" /><sodipodi:namedview
   pagecolor="#ffffff"
   bordercolor="#666666"
   borderopacity="1"
   objecttolerance="10"
   gridtolerance="10"
   guidetolerance="10"
   inkscape:pageopacity="0"
   inkscape:pageshadow="2"
   inkscape:window-width="1920"
   inkscape:window-height="1017"
   id="namedview43"
   showgrid="false"
   units="mm"
   inkscape:pagecheckerboard="true"
   inkscape:zoom="0.284"
   inkscape:cx="500"
   inkscape:cy="217.782"
   inkscape:window-x="-8"
   inkscape:window-y="-8"
   inkscape:window-maximized="1"
   inkscape:current-layer="Capa_1" />
<g
   id="g40"
   transform="matrix(1.8141772,0,0,1.8141772,195.74299,404.68751)">
	<path
   d="m 803.928,378.972 c -6.927,-35.728 -41.133,-52.713 -56.649,-56.728 -17.178,-4.443 -35.745,-3.096 -52.058,3.901 -7.923,3.402 -18.473,9.384 -24.891,15.13 -6.814,-6.524 -21.996,-15.481 -39.314,-15.481 -15.149,0.718 -77.152,7.915 -93.098,16.364 -8.728,-15.437 -22.396,-32.649 -38.988,-33.909 -7.776,-0.595 -15.396,2.571 -20.047,8.903 -6.5,8.834 -6,20.878 -3.954,34.023 -23.686,-23.693 -76.818,-25.242 -110.675,-25.486 -32.144,-0.228 -74.125,8.072 -85.977,14.562 6.071,-3.621 29.266,-17.099 43.679,-36.848 14.589,2.301 31.269,-5.475 39.612,-17.545 9.078,-13.145 9.507,-30.839 2.258,-44.903 -5.984,-11.606 -16.942,-20.414 -29.493,-23.947 -13.497,-3.796 -28.487,-1.111 -39.411,7.819 -1.592,-14.947 -12.289,-27.682 -26.056,-33.209 -14.754,-5.921 -32.343,-3.752 -44.92,6.061 -6.787,5.3 -12,12.665 -14.335,20.991 -2.72,9.709 -1.329,20.326 3.647,29.082 -0.053,0.052 -0.105,0.104 -0.149,0.157 -12.621,11.212 -23.834,27.961 -22.705,45.551 C 160.474,263.793 125.218,240.134 92.472,223.245 59.219,206.085 -4.27,179.75 -69.745,178.28 c -19.276,-0.437 -62.151,1.348 -81.655,7.199 -41.588,12.481 -45.647,42.716 -41.168,55.836 5.003,14.702 22.215,20.466 44.282,16.653 8.169,-1.408 16.696,-8.23 18.612,-18.875 32.15,-1.872 69.173,0.77 104.64,10.356 -8.195,21.839 -13.46,50.309 -16.364,82.8 -17.947,3.875 -39.559,10.076 -56.09,18.166 -14.772,7.225 -31.014,17.668 -36.751,33.953 -6.157,17.475 4.023,34.556 14.851,47.72 11.423,13.888 39.358,39.892 77.282,58.17 1.556,9.42 5.834,28.917 25.818,35.38 13.75,4.443 31.338,1.312 41.344,-13.197 12.622,2.902 35.991,4.425 50.169,4.564 l 0.061,19.819 c 0,24.506 19.942,44.59 44.457,44.59 h 501.326 c 6.282,13.152 19.077,28.746 33.771,31.652 26.344,5.186 29.476,-19.286 30.875,-27.011 1.469,-8.106 2.685,-16.18 5.284,-24.033 l 19.283,-64.627 c 16.828,-2.562 35.939,-10.478 49.609,-20.466 13.339,-9.742 24.954,-22.024 33.402,-36.253 11.021,-18.558 15.777,-40.501 10.635,-61.704 z"
   id="path2"
   inkscape:connector-curvature="0"
   style="fill:#0072aa" />
	<path
   d="m 447.135,355.419 c 16.659,1.215 56.561,74.107 61.187,72.787 2.974,-0.815 3.271,-7.681 3.271,-11.486 -0.069,-18.452 -19.145,-66.557 -19.197,-80.385 0,-4.575 0.751,-8.948 4.854,-8.948 16.355,-0.044 44.431,51.743 44.599,94.083 0.016,18.419 -11.371,46.881 -30.851,46.915 -17.919,0.096 -50.149,-66.375 -56.027,-66.375 -7.915,0 2.301,72.725 -17.458,72.769 -13.312,0.035 -16.434,-11.981 -16.468,-29.895 -0.08,-17.921 8.979,-90.672 26.09,-89.465 z"
   id="path4"
   inkscape:connector-curvature="0"
   style="fill:#ffffff" />
	<path
   d="m 363.397,344.924 c 19.048,-0.079 52.748,-0.245 52.827,12.9 0.035,22.005 -108.332,10.084 -108.524,26.194 -0.079,4.89 23.483,5.992 45.359,7.784 29.185,2.493 62.675,6.481 62.797,41.852 0.035,14.555 -12.499,42.769 -62.167,42.893 -50.354,0.174 -68.327,-25.69 -68.354,-36.657 -0.096,-21.147 20.16,-26.921 34.232,-26.99 13.373,0 56.703,5.204 56.755,15.893 0.035,5.851 -10.846,11.641 -23.938,11.701 -13.032,0.062 -32.028,-11.667 -41.256,-11.667 -9.201,0.063 -13.268,6.192 -13.268,9.771 0,3.585 0.542,10.767 25.127,10.705 11.94,-0.07 69.883,-6.517 69.83,-22.522 -0.017,-7.163 -26.614,-14.257 -48.487,-16.487 -26.862,-2.709 -67.287,3.954 -67.356,-23.334 -0.113,-40.296 72.157,-42.002 86.423,-42.036 z"
   id="path6"
   inkscape:connector-curvature="0"
   style="fill:#ffffff" />
	<path
   d="m 240.87,251.46 c -6.682,-2.589 -12.375,-7.662 -14.982,-14.44 -2.86,-7.408 -1.434,-15.682 3.428,-21.901 8.904,-11.414 26.431,-13.504 38.361,-5.772 6.368,4.11 10.881,11.029 11.257,18.7 0.306,6.201 -2.188,12.184 -6.35,16.679 10.933,0.639 18.446,6.166 23.597,11.152 0.131,0.017 0.263,0.043 0.385,0.062 0.148,-3.674 1.049,-7.347 2.895,-10.539 4.102,-7.102 11.3,-11.826 19.434,-12.77 8.082,-0.945 17.493,1.898 25.575,10.084 4.582,4.644 7.128,11.143 7.556,17.676 0.497,7.714 -2.492,15.455 -8.327,20.597 -5.974,5.284 -14.353,7.207 -22.119,5.816 -3.314,-0.28 -6.516,-1.382 -9.42,-3 -8.841,19.792 -39.436,39.813 -59.841,39.463 -34.95,-0.612 -43.635,-20.764 -43.67,-32.406 -0.026,-11.439 12.008,-29.605 32.221,-39.401 z"
   id="path8"
   inkscape:connector-curvature="0"
   style="fill:#ffffff" />
	<path
   d="m 183.083,560.668 c -9.743,3.306 -45.735,5.082 -59.15,5.082 -8.817,0 -21.403,-4.539 -24.656,-14.282 -2.65,-7.95 1.198,-16.339 11.448,-24.921 23.205,-19.424 36.788,-22.775 46.033,-23.508 11.291,-0.901 15.83,6.252 16.644,10.153 0.77,3.621 -1.548,7.181 -5.169,7.95 -3.384,0.709 -6.717,-1.26 -7.766,-4.478 -0.263,-0.148 -1.075,-0.395 -2.65,-0.263 -7.251,0.585 -18.183,3.429 -38.484,20.423 -6.665,5.579 -7.749,9.158 -7.329,10.39 0.761,2.284 6.192,4.854 10.758,5.1 9.734,0.5 48.147,-1.688 56.011,-4.356 3.517,-1.179 7.321,0.691 8.51,4.199 1.197,3.516 -0.692,7.312 -4.2,8.511 z"
   id="path10"
   inkscape:connector-curvature="0"
   style="fill:#ffffff" />
	<path
   d="m 245.392,535.669 1.278,28.576 c 0.166,3.7 -2.703,6.831 -6.403,6.997 -0.104,0 -0.202,0 -0.306,0 -3.568,0 -6.533,-2.8 -6.699,-6.411 l -1.138,-25.487 c -5.86,1.687 -12.716,3.698 -19.504,5.721 v 16.451 c 0,3.708 -3,6.719 -6.708,6.719 -3.699,0 -6.708,-3.003 -6.708,-6.719 v -12.437 c -0.638,0.192 -1.285,0.385 -1.915,0.577 -0.648,0.192 -1.304,0.289 -1.951,0.289 -2.877,0 -5.537,-1.873 -6.42,-4.767 -1.076,-3.544 0.927,-7.287 4.469,-8.362 1.233,-0.367 3.253,-0.979 5.799,-1.758 v -24.691 c 0,-3.708 3.008,-6.698 6.708,-6.698 3.708,0 6.708,2.998 6.708,6.698 v 20.694 c 6.279,-1.872 13.049,-3.849 18.892,-5.502 l -0.944,-21.097 c -0.167,-3.699 2.703,-6.831 6.402,-6.996 3.673,-0.132 6.831,2.703 6.997,6.395 l 0.814,18.175 c 0.411,-0.089 0.778,-0.159 1.049,-0.192 3.646,-0.562 7.364,1.932 7.636,5.623 0.332,4.32 -2.099,7.275 -8.056,8.202 z"
   id="path12"
   inkscape:connector-curvature="0"
   style="fill:#ffffff" />
	<path
   d="m 236.462,422.047 c 0.455,-20.736 0.805,-77.543 14.913,-77.613 11.02,-0.018 16.119,14.475 17.886,89.562 0.972,39.63 -2.886,40.958 -14.186,40.995 -12.587,0.068 -19.637,-5.583 -18.613,-52.944 z"
   id="path14"
   inkscape:connector-curvature="0"
   style="fill:#ffffff" />
	<path
   d="m 323.828,568.758 c -3.314,1.662 -7.338,0.315 -9,-3 -4.075,-8.151 -8.528,-16.758 -12.787,-24.728 -7.347,2.396 -16.355,5.688 -23.518,8.372 -1.565,6.025 -3.097,12.175 -4.496,18.087 -0.735,3.088 -3.718,5.511 -7.294,5.073 -4.164,-0.508 -6.612,-4.558 -5.755,-8.168 0.822,-3.501 1.618,-6.771 2.388,-9.919 -2.501,-0.168 -4.819,-1.696 -5.799,-4.199 -1.356,-3.454 0.349,-7.338 3.795,-8.693 0.333,-0.131 2.519,-0.989 5.825,-2.249 10.89,-41.473 14.86,-41.648 19.356,-41.814 3.542,-0.097 6.961,-0.192 22.416,27.864 2.834,0.168 5.371,2.108 6.115,5.005 0.454,1.783 0.148,3.576 -0.709,5.045 3.594,6.813 7.713,14.824 12.454,24.308 1.654,3.331 0.316,7.362 -2.991,9.016 z"
   id="path16"
   inkscape:connector-curvature="0"
   style="fill:#ffffff" />
	<path
   d="m 390.021,542.913 c -0.097,11.501 -0.176,20.964 -5.615,24.298 -2.527,1.537 -5.598,1.616 -8.432,0.2 -3.192,-1.601 -7.109,-6.307 -23.256,-27.997 -1.993,-2.685 -4.242,-5.701 -6.411,-8.589 -0.122,14.038 0.227,33.156 0.428,36.549 0.342,3.07 -1.774,6.903 -5.598,7.277 -3.821,0.379 -6.48,-1.59 -7.416,-4.39 -0.184,-0.523 -0.717,-2.1 -0.849,-29.159 -0.131,-29.536 0.473,-31.523 5.308,-33.517 5.354,-2.239 8.669,2.03 13.715,8.458 3.218,4.103 7.286,9.569 11.58,15.351 3.92,5.264 9.07,12.069 13.102,17.221 0.167,-11.135 1.725,-44.265 2.109,-47.38 0.445,-3.672 3.77,-6.27 7.469,-5.842 3.674,0.446 6.297,3.788 5.842,7.461 -0.262,2.319 -1.803,28.766 -1.976,40.059 z"
   id="path18"
   inkscape:connector-curvature="0"
   style="fill:#ffffff" />
	<path
   d="m 458.756,566.509 c -6.54,2.966 -13.136,-2.938 -24.271,-13.582 l -0.979,-0.936 c -2.912,-2.791 -7.373,-7.504 -12.087,-12.508 -1.724,-1.818 -3.718,-3.944 -5.712,-6.025 0.412,8.598 1.154,19.934 1.961,30.438 0.288,3.7 -2.476,6.927 -6.177,7.205 -0.174,0.011 -0.349,0.019 -0.516,0.019 -3.473,0 -6.409,-2.668 -6.682,-6.192 0,0 -0.893,-11.503 -1.557,-23.071 -1.399,-23.984 -1.662,-28.313 4.461,-30.149 5.036,-1.513 6.829,0.4 23.973,18.577 4.391,4.651 8.94,9.473 11.598,12.019 l 0.979,0.943 c 1.445,1.381 3.569,3.411 5.688,5.335 -1.085,-11.816 -3.045,-30.569 -4.226,-41.457 -0.395,-3.684 2.265,-6.988 5.946,-7.392 3.684,-0.385 6.999,2.266 7.392,5.956 0.185,1.786 4.731,43.907 5.055,51.909 0.264,5.948 -3.297,8.221 -4.846,8.911 z"
   id="path20"
   inkscape:connector-curvature="0"
   style="fill:#ffffff" />
	<path
   d="m 528.613,561.673 c -6.698,4.496 -21.139,3.115 -35.579,4.496 -6.928,0.665 -12.228,-0.63 -14.415,-3.166 -1.916,-2.249 -3.507,-11.266 -4.688,-20.851 -0.148,-0.552 -0.262,-1.112 -0.271,-1.715 0,-0.097 0.026,-0.192 0.026,-0.297 -1.424,-12.158 -2.212,-24.551 -2.212,-24.762 0,-3.174 1.417,-5.229 2.614,-6.401 3.297,-3.237 8.029,-3.306 16.138,-3.166 8.222,0.165 27.323,-1.007 29.781,-1.252 3.183,-0.533 6.341,1.276 7.433,4.399 1.226,3.491 -0.61,7.321 -4.111,8.554 -2.552,0.892 -27.96,1.804 -33.365,1.724 -0.935,-0.017 -2.991,-0.069 -4.803,-0.017 0.288,3.479 0.403,4.992 0.999,10.486 10.924,-0.403 24.698,-1.4 30.829,-2.439 2.966,-0.499 6.358,2.455 6.473,6.164 0.087,2.861 -1.95,5.799 -5.58,6.518 -9.22,1.801 -20.354,2.343 -30.158,2.728 0.342,2.555 1.095,8.955 1.401,10.593 6.043,0.577 17.194,-0.839 33.025,-3.841 3.628,-0.692 6.734,-0.813 8.552,2.406 1.82,3.219 0.956,7.793 -2.089,9.839 z"
   id="path22"
   inkscape:connector-curvature="0"
   style="fill:#ffffff" />
	<path
   d="m 603.778,567.114 c -18.542,-1.936 -37.259,0.928 -44.729,2.271 -8.456,1.522 -16.39,-2.132 -16.39,-12.321 0,-2.474 -0.543,-33.246 -0.841,-49.172 -0.06,-3.699 2.974,-6.831 6.648,-6.831 3.646,0 6.7,2.921 6.77,6.586 0.036,1.792 0.761,41.798 0.831,48.629 0.219,-0.024 0.454,-0.062 0.734,-0.114 8.15,-1.39 28.391,-4.478 48.349,-2.389 3.682,0.379 6.36,3.676 5.974,7.357 -0.375,3.692 -3.662,6.402 -7.346,5.984 z"
   id="path24"
   inkscape:connector-curvature="0"
   style="fill:#ffffff" />
	<path
   d="m 576.622,484.408 c -22.645,0.718 -30.813,-23.868 -30.884,-34.976 0,-7.198 6.884,-24.42 9.184,-32.824 0.727,-2.817 -3.096,-6.402 -2.861,-8.703 0.965,-9.972 15.359,-11.055 16.584,-14.642 1.172,-3.252 4.304,-13.828 3.789,-16.669 -0.518,-2.791 -20.747,-6.866 -20.766,-17.09 -0.051,-10.872 43.198,-10.679 76.478,-14.3 19.417,-2.152 35.151,16.014 33.874,20.396 -1.276,4.399 -5.081,7.146 -10.231,8.458 -3.123,0.769 -44.687,1.924 -50.896,4.504 -3.096,1.277 -5.021,13.941 -3.561,16.434 1.565,2.528 28.943,2.59 33.299,2.975 8.701,0.699 11.353,19.679 -2.713,20.457 -4.949,0.306 -35.106,-0.184 -39.961,1.382 -4.889,1.583 -9.654,23.886 -7.127,26.204 2.579,2.273 41.246,-6.324 48.138,-6.324 6.892,0 16.68,7.68 15.909,14.291 -0.454,4.39 -32.5,29.219 -68.255,30.427 z"
   id="path26"
   inkscape:connector-curvature="0"
   style="fill:#ffffff" />
	<path
   d="m 696.384,479.781 c -4.013,16.881 -15.551,56.353 -22.767,77.975 -5.142,15.061 -6,37.215 -9.9,38.062 -10.259,2.266 -27.384,-14.378 -27.682,-31.267 -0.594,-32.745 17.623,-86.677 25.101,-110.938 -4.651,-9.228 -6.855,-19.374 -6.855,-27.665 -0.123,-36.166 33.226,-74.955 43.669,-83.51 5.423,-4.372 10.304,7.768 5.966,17.012 -4.136,8.834 -26.379,44.125 -26.344,55.924 0.053,2.561 0.884,5.31 2.238,8.143 21.866,-27.883 59.326,-69.228 78.759,-70.39 7.034,-0.402 29.206,8.615 29.31,46.024 0.097,37.415 -46.24,83.806 -91.495,80.63 z"
   id="path28"
   inkscape:connector-curvature="0"
   style="fill:#ffffff" />
	<path
   d="m 256.596,264.545 c -21.148,3.515 -34.505,15.901 -31.215,25.696 7.906,-9.436 19.687,-18.944 31.215,-25.696 z"
   id="path30"
   inkscape:connector-curvature="0"
   style="fill:#0072aa" />
	<path
   d="m 299.365,277.35 c 0,-2.52 -1.435,-9.062 -9.699,-9.044 -12.639,0.053 -38.336,22.705 -48.997,34.714 3.927,1.207 8.606,1.915 14.169,1.915 13.425,-0.026 44.544,-12.455 44.527,-27.585 z"
   id="path32"
   inkscape:connector-curvature="0"
   style="fill:#0072aa" />
	<path
   d="m 282.8,533.521 c 4.242,-1.541 8.624,-3.088 12.708,-4.453 -2.808,-5.038 -5.361,-9.438 -7.452,-12.778 -1.522,4.405 -3.332,10.416 -5.256,17.231 z"
   id="path34"
   inkscape:connector-curvature="0"
   style="fill:#0072aa" />
	<path
   d="m 760.687,379.795 c -8.79,-0.175 -32.657,37.486 -48.995,65.868 23.981,0.419 57.603,-22.627 57.497,-50.388 -0.037,-9.262 -2.363,-15.402 -8.502,-15.48 z"
   id="path36"
   inkscape:connector-curvature="0"
   style="fill:#0072aa" />
	<path
   d="m -85.383,197.46 c -31.347,0.875 -57.726,4.225 -70.119,9.473 v 0 c -10.478,4.6 -20.186,15.778 -20.186,24.875 -0.202,8.693 10.005,9.454 16.146,9.402 6.201,0 11.825,-0.516 11.79,-4.111 0,-5.107 -8.212,-4.076 -8.212,-9.183 0,-5.904 31.74,-7.268 47.597,-7.356 136.057,-0.375 292.756,93.857 292.992,173.798 0.202,62.114 -80.676,76.041 -125.256,76.179 -15.839,0.025 -31.207,-1.627 -45.821,-4.424 -0.639,-19.812 -1.819,-61.322 -2.335,-87.552 5.152,-0.061 9.944,-0.114 14.073,-0.114 33.051,-0.131 76.32,11.544 76.389,19.268 0,6.604 -11.492,11.126 -11.483,17.405 0.043,4.722 10.671,3.883 19.916,4.521 1.617,0.166 20.282,-10.242 20.229,-26.649 -0.07,-21.761 -27.516,-47.274 -119.666,-47.274 -0.857,-24.455 -4.54,-63.008 -18.402,-62.938 -11.545,0.017 -14.896,42.463 -15.857,65.911 -49.697,7.487 -93.927,27.726 -93.857,47.632 0,16.278 35.536,57.324 93.078,82.321 0.971,18.42 4.504,31.083 20.859,30.987 11.887,0 15.945,-8.745 17.178,-17.911 18.612,4.731 38.772,7.494 60.166,7.442 83.439,-0.264 150.436,-44.843 150.226,-105.961 C 223.798,311.276 58.484,193.456 -85.383,197.46 Z m 60.585,258.243 c -49.398,-17.423 -82.967,-45.131 -83.001,-54.331 -0.052,-14.283 43.338,-19.688 83.492,-21.691 -0.28,22.373 -0.551,54.498 -0.491,76.022 z"
   id="path38"
   inkscape:connector-curvature="0"
   style="fill:#ffffff" />
</g>
</svg>