<?xml version="1.0" encoding="UTF-8" standalone="no"?>
<svg
   xmlns:dc="http://purl.org/dc/elements/1.1/"
   xmlns:cc="http://creativecommons.org/ns#"
   xmlns:rdf="http://www.w3.org/1999/02/22-rdf-syntax-ns#"
   xmlns:svg="http://www.w3.org/2000/svg"
   xmlns="http://www.w3.org/2000/svg"
   xmlns:sodipodi="http://sodipodi.sourceforge.net/DTD/sodipodi-0.dtd"
   xmlns:inkscape="http://www.inkscape.org/namespaces/inkscape"
   viewBox="0 0 1889.7637 1889.7637"
   version="1.1"
   id="svg222"
   sodipodi:docname="divinity.svg"
   width="500mm"
   height="500mm"
   inkscape:version="0.92.4 (5da689c313, 2019-01-14)">
  <metadata
     id="metadata226">
    <rdf:RDF>
      <cc:Work
         rdf:about="">
        <dc:format>image/svg+xml</dc:format>
        <dc:type
           rdf:resource="http://purl.org/dc/dcmitype/StillImage" />
        <dc:title>Recurso 4</dc:title>
      </cc:Work>
    </rdf:RDF>
  </metadata>
  <sodipodi:namedview
     pagecolor="#ffffff"
     bordercolor="#666666"
     borderopacity="1"
     objecttolerance="10"
     gridtolerance="10"
     guidetolerance="10"
     inkscape:pageopacity="0"
     inkscape:pageshadow="2"
     inkscape:window-width="1920"
     inkscape:window-height="1017"
     id="namedview224"
     showgrid="false"
     inkscape:pagecheckerboard="true"
     units="mm"
     inkscape:zoom="0.28929998"
     inkscape:cx="279.89803"
     inkscape:cy="915.66693"
     inkscape:window-x="-8"
     inkscape:window-y="-8"
     inkscape:window-maximized="1"
     inkscape:current-layer="svg222" />
  <defs
     id="defs76">
    <style
       id="style2">.cls-1,.cls-2{fill:none}.cls-2{clip-path:url(#clip-path);clip-rule:evenodd}.cls-3{fill:#72b0e0}.cls-3,.cls-4{fill-rule:evenodd}.cls-4,.cls-5{fill:#fff}.cls-6{fill:#222227}.cls-7{fill:#62a343}.cls-8{fill:#0093c9}.cls-9{fill:#e84888}.cls-10{fill:#e52f31}.cls-11{fill:#2b57a2}.cls-12{fill:#f9d803}.cls-13,.cls-15{fill:#8e9090}.cls-13{opacity:.3}.cls-14{fill:#003a70}.cls-16{fill:#9564d5}.cls-17{fill:#2152a7}.cls-18{fill:#0098d5}.cls-19{fill:#42cdff}.cls-20{fill:#66ca18}.cls-21{fill:#ea3685}.cls-22{fill:#f8c91c}.cls-23{fill:#10b8a9}.cls-24{fill:red}.cls-25{fill:#ff9b00}.cls-26{clip-path:url(#clip-path-24)}.cls-27{fill:#00d6ea}.cls-28{clip-path:url(#clip-path-25)}.cls-29{clip-path:url(#clip-path-26)}.cls-30{clip-path:url(#clip-path-27)}.cls-31{clip-path:url(#clip-path-28)}.cls-32{clip-path:url(#clip-path-29)}.cls-33{clip-path:url(#clip-path-30)}.cls-34{clip-path:url(#clip-path-31)}.cls-35{clip-path:url(#clip-path-32)}.cls-36{clip-path:url(#clip-path-33)}.cls-37{clip-path:url(#clip-path-34)}.cls-38{clip-path:url(#clip-path-35)}.cls-39{clip-path:url(#clip-path-36)}.cls-40{clip-path:url(#clip-path-37)}.cls-41{clip-path:url(#clip-path-38)}.cls-42{clip-path:url(#clip-path-39)}.cls-43{clip-path:url(#clip-path-40)}.cls-44{clip-path:url(#clip-path-41)}.cls-45{clip-path:url(#clip-path-42)}.cls-46{clip-path:url(#clip-path-43)}.cls-47{clip-path:url(#clip-path-44)}.cls-48{clip-path:url(#clip-path-45)}.cls-49{clip-path:url(#clip-path-46)}</style>
    <clipPath
       id="clip-path">
      <path
         class="cls-1"
         d="m 392.55,81.69 h 43.66 v 42.13 h -43.66 z"
         id="path4"
         inkscape:connector-curvature="0"
         style="fill:none" />
    </clipPath>
    <clipPath
       id="clip-path-24">
      <path
         class="cls-2"
         d="m 412.32,106.57 c 0,0 0.72,-0.54 1.62,-1.09 0.9,-0.55 0.72,-0.54 2.53,-0.54 a 6.49,6.49 0 0 1 2.16,0.18 l 0.36,0.54 -0.18,0.91 -1.62,0.73 -1.26,-0.54 h -3.07 l -0.54,-0.18 z"
         clip-path="url(#clip-path)"
         id="path7"
         inkscape:connector-curvature="0"
         style="clip-rule:evenodd;fill:none" />
    </clipPath>
    <clipPath
       id="clip-path-25">
      <path
         class="cls-2"
         d="m 421.75,106.57 c 0,0 0.72,-0.54 1.62,-1.09 0.9,-0.55 0.72,-0.54 2.53,-0.54 a 6.49,6.49 0 0 1 2.16,0.18 l 0.36,0.54 -0.18,0.91 -1.62,0.73 -1.26,-0.54 h -3.07 l -0.54,-0.18 z"
         clip-path="url(#clip-path)"
         id="path10"
         inkscape:connector-curvature="0"
         style="clip-rule:evenodd;fill:none" />
    </clipPath>
    <clipPath
       id="clip-path-26">
      <path
         class="cls-2"
         d="m 404.53,93.67 a 6,6 0 0 1 2.89,-1.09 4.56,4.56 0 0 1 2.16,0.73 8.67,8.67 0 0 1 2.71,-0.73 c 1.08,0 3.43,0.54 3.43,3.08 a 10.82,10.82 0 0 0 -1.26,1.09 L 412.84,94.21 410.48,94 408.86,94.73 406.51,94 h -1.26 c 0,0 -2,0.91 -0.72,-0.36 z"
         clip-path="url(#clip-path)"
         id="path13"
         inkscape:connector-curvature="0"
         style="clip-rule:evenodd;fill:none" />
    </clipPath>
    <clipPath
       id="clip-path-27">
      <path
         class="cls-2"
         d="m 398.28,106 a 6,6 0 0 1 2.89,-1.09 4.56,4.56 0 0 1 2.16,0.73 8.67,8.67 0 0 1 2.71,-0.73 c 1.08,0 3.43,0.54 3.43,3.08 a 10.82,10.82 0 0 0 -1.26,1.09 l -1.62,-2.54 -2.35,-0.18 -1.62,0.73 -2.35,-0.73 H 399 c 0,0 -2,0.91 -0.72,-0.36 z"
         clip-path="url(#clip-path)"
         id="path16"
         inkscape:connector-curvature="0"
         style="clip-rule:evenodd;fill:none" />
    </clipPath>
    <clipPath
       id="clip-path-28">
      <path
         class="cls-2"
         d="m 417.88,91.68 1.26,-0.73 a 1.06,1.06 0 0 1 0.72,-0.18 c 0.54,0 0.81,0.18 0.9,0.36 a 14.39,14.39 0 0 1 -1.44,1.09 h -1.44 z"
         clip-path="url(#clip-path)"
         id="path19"
         inkscape:connector-curvature="0"
         style="clip-rule:evenodd;fill:none" />
    </clipPath>
    <clipPath
       id="clip-path-29">
      <path
         class="cls-2"
         d="m 419.14,94 1.44,-1.09 c 0,0 2,-0.18 2.16,0.18 a 22.09,22.09 0 0 1 -2.16,1.45 h -1.44 z"
         clip-path="url(#clip-path)"
         id="path22"
         inkscape:connector-curvature="0"
         style="clip-rule:evenodd;fill:none" />
    </clipPath>
    <clipPath
       id="clip-path-30">
      <path
         class="cls-2"
         d="m 419.14,100.92 1.44,-1.09 c 0,0 2,-0.18 2.16,0.18 a 22.09,22.09 0 0 1 -2.16,1.45 h -1.44 z"
         clip-path="url(#clip-path)"
         id="path25"
         inkscape:connector-curvature="0"
         style="clip-rule:evenodd;fill:none" />
    </clipPath>
    <clipPath
       id="clip-path-31">
      <path
         class="cls-2"
         d="m 425.68,102 1.62,-1.13 c 0,0 1.26,0 1.44,0.36 -0.36,0.36 -1.62,1.31 -1.62,1.31 h -1.44 z"
         clip-path="url(#clip-path)"
         id="path28"
         inkscape:connector-curvature="0"
         style="clip-rule:evenodd;fill:none" />
    </clipPath>
    <clipPath
       id="clip-path-32">
      <path
         class="cls-2"
         d="m 414.08,107.89 c 0,0 -0.53,0.54 -0.36,2.36 0.17,1.82 0.54,2.18 1.8,2.18 1.26,0 -0.72,1.45 -0.72,1.45 l -3.25,-1.09 0.18,-3.81 2,-1.63 0.36,0.54 z"
         clip-path="url(#clip-path)"
         id="path31"
         inkscape:connector-curvature="0"
         style="clip-rule:evenodd;fill:none" />
    </clipPath>
    <clipPath
       id="clip-path-33">
      <path
         class="cls-2"
         d="m 424,107.89 c 0,0 -0.53,0.54 -0.36,2.36 0.17,1.82 0.54,2.18 1.8,2.18 1.26,0 -0.72,1.45 -0.72,1.45 l -3.25,-1.09 0.18,-3.81 2,-1.63 0.36,0.54 z"
         clip-path="url(#clip-path)"
         id="path34"
         inkscape:connector-curvature="0"
         style="clip-rule:evenodd;fill:none" />
    </clipPath>
    <clipPath
       id="clip-path-34">
      <path
         class="cls-2"
         d="m 421.3,93.67 1.26,-0.54 a 2,2 0 0 1 0.36,0.73 3.7,3.7 0 0 1 -0.18,0.91 l -1.44,0.91 v -2 z"
         clip-path="url(#clip-path)"
         id="path37"
         inkscape:connector-curvature="0"
         style="clip-rule:evenodd;fill:none" />
    </clipPath>
    <clipPath
       id="clip-path-35">
      <path
         class="cls-2"
         d="m 421.3,100.56 1.26,-0.54 a 2,2 0 0 1 0.36,0.73 3.7,3.7 0 0 1 -0.18,0.91 l -1.44,0.91 v -2 z"
         clip-path="url(#clip-path)"
         id="path40"
         inkscape:connector-curvature="0"
         style="clip-rule:evenodd;fill:none" />
    </clipPath>
    <clipPath
       id="clip-path-36">
      <path
         class="cls-2"
         d="m 415.74,101.28 a 5.75,5.75 0 0 1 -1.44,1.09 c -0.54,0.18 -0.39,-5.26 -0.39,-5.26 l 1.83,-1.63 z"
         clip-path="url(#clip-path)"
         id="path43"
         inkscape:connector-curvature="0"
         style="clip-rule:evenodd;fill:none" />
    </clipPath>
    <clipPath
       id="clip-path-37">
      <path
         class="cls-2"
         d="m 409.63,113.62 a 5.75,5.75 0 0 1 -1.44,1.09 c -0.54,0.18 -0.39,-5.26 -0.39,-5.26 l 1.83,-1.63 z"
         clip-path="url(#clip-path)"
         id="path46"
         inkscape:connector-curvature="0"
         style="clip-rule:evenodd;fill:none" />
    </clipPath>
    <clipPath
       id="clip-path-38">
      <path
         class="cls-2"
         d="m 419,108 v 5.62 a 5.75,5.75 0 0 1 -1.44,1.09 c -0.54,0.18 -0.36,-5.08 -0.36,-5.08 l 0.51,-3.08 1.29,-0.91 z"
         clip-path="url(#clip-path)"
         id="path49"
         inkscape:connector-curvature="0"
         style="clip-rule:evenodd;fill:none" />
    </clipPath>
    <clipPath
       id="clip-path-39">
      <path
         class="cls-2"
         d="m 420.58,94.21 a 3.27,3.27 0 0 1 0.21,0.91 v 4.35 c 0.36,0.73 -1.44,1.09 -2,1.27 -0.56,0.18 0.21,-4.53 0.21,-4.53 l 0.9,-2.18 0.69,-0.18 v 0.36 z"
         clip-path="url(#clip-path)"
         id="path52"
         inkscape:connector-curvature="0"
         style="clip-rule:evenodd;fill:none" />
    </clipPath>
    <clipPath
       id="clip-path-40">
      <path
         class="cls-2"
         d="m 406.69,95.12 a 3,3 0 0 0 -0.54,1.09 v 5.08 a 5.75,5.75 0 0 1 -1.44,1.09 c -0.54,0.18 -0.36,-5.08 -0.36,-5.08 l 0.9,-2.18 1.08,-0.18 z"
         clip-path="url(#clip-path)"
         id="path55"
         inkscape:connector-curvature="0"
         style="clip-rule:evenodd;fill:none" />
    </clipPath>
    <clipPath
       id="clip-path-41">
      <path
         class="cls-2"
         d="m 400.41,107.53 a 3,3 0 0 0 -0.54,1.09 v 5.08 a 5.75,5.75 0 0 1 -1.44,1.09 c -0.54,0.18 -0.36,-5.08 -0.36,-5.08 l 0.9,-2.18 1.08,-0.18 z"
         clip-path="url(#clip-path)"
         id="path58"
         inkscape:connector-curvature="0"
         style="clip-rule:evenodd;fill:none" />
    </clipPath>
    <clipPath
       id="clip-path-42">
      <path
         class="cls-2"
         d="m 411.23,95.3 a 2.24,2.24 0 0 0 -0.36,0.91 v 5.08 a 5.75,5.75 0 0 1 -1.44,1.09 c -0.54,0.18 -0.36,-5.08 -0.36,-5.08 l 0.9,-2.18 1.08,-0.18 z"
         clip-path="url(#clip-path)"
         id="path61"
         inkscape:connector-curvature="0"
         style="clip-rule:evenodd;fill:none" />
    </clipPath>
    <clipPath
       id="clip-path-43">
      <path
         class="cls-2"
         d="m 405.26,107.71 a 2.24,2.24 0 0 0 -0.36,0.91 v 5.08 a 5.75,5.75 0 0 1 -1.44,1.09 c -0.54,0.18 -0.36,-5.08 -0.36,-5.08 l 0.9,-2.18 1.08,-0.18 z"
         clip-path="url(#clip-path)"
         id="path64"
         inkscape:connector-curvature="0"
         style="clip-rule:evenodd;fill:none" />
    </clipPath>
    <clipPath
       id="clip-path-44">
      <path
         class="cls-2"
         d="m 419.32,91.86 v 0.18 c 0.45,-0.23 1.44,-0.91 1.44,-0.91 v 1.81 l -1.26,0.91 -0.18,-2 z"
         clip-path="url(#clip-path)"
         id="path67"
         inkscape:connector-curvature="0"
         style="clip-rule:evenodd;fill:none" />
    </clipPath>
    <clipPath
       id="clip-path-45">
      <path
         class="cls-2"
         d="m 427.27,102.11 1.44,-0.9 v 12.69 l -1.26,0.91 z"
         clip-path="url(#clip-path)"
         id="path70"
         inkscape:connector-curvature="0"
         style="clip-rule:evenodd;fill:none" />
    </clipPath>
    <clipPath
       id="clip-path-46">
      <path
         class="cls-2"
         d="m 413.79,102.55 h -0.56 a 0.73,0.73 0 0 1 -0.54,-0.2 0.74,0.74 0 0 1 -0.2,-0.54 v -4.93 a 1.67,1.67 0 0 0 -0.08,-0.53 1.38,1.38 0 0 0 -0.25,-0.45 1.24,1.24 0 0 0 -0.42,-0.32 1.64,1.64 0 0 0 -1.25,0 1.24,1.24 0 0 0 -0.42,0.32 1.25,1.25 0 0 0 -0.24,0.45 1.86,1.86 0 0 0 -0.08,0.53 v 4.92 a 0.74,0.74 0 0 1 -0.2,0.54 0.73,0.73 0 0 1 -0.54,0.2 h -0.56 c -0.22,0 -0.32,0 -0.46,-0.12 a 0.74,0.74 0 0 1 -0.2,-0.54 V 97 a 1.67,1.67 0 0 0 -0.08,-0.53 2,2 0 0 0 -0.33,-0.53 1.24,1.24 0 0 0 -0.42,-0.32 1.37,1.37 0 0 0 -0.61,-0.12 1.43,1.43 0 0 0 -0.62,0.12 1.21,1.21 0 0 0 -0.43,0.32 1.44,1.44 0 0 0 -0.27,0.45 2.08,2.08 0 0 0 -0.13,0.58 v 4.89 a 0.65,0.65 0 0 1 -0.16,0.51 0.68,0.68 0 0 1 -0.52,0.2 h -0.56 a 0.73,0.73 0 0 1 -0.54,-0.2 0.74,0.74 0 0 1 -0.2,-0.54 v -4.95 a 3.63,3.63 0 0 1 0.25,-1.34 3.16,3.16 0 0 1 0.7,-1.08 3.23,3.23 0 0 1 1.08,-0.71 3.67,3.67 0 0 1 1.4,-0.26 3.08,3.08 0 0 1 1.35,0.28 4.4,4.4 0 0 1 1,0.62 c 0.06,0.05 0.07,0.05 0.11,0 a 3.13,3.13 0 0 1 1,-0.64 3.37,3.37 0 0 1 1.38,-0.26 3.67,3.67 0 0 1 1.4,0.26 3.23,3.23 0 0 1 1.08,0.71 3.37,3.37 0 0 1 0.63,1.16 3.63,3.63 0 0 1 0.25,1.34 v 4.92 a 0.74,0.74 0 0 1 -0.2,0.54 c -0.14,0.14 -0.25,0.12 -0.47,0.12 z m 6.68,0 a 2.76,2.76 0 0 1 -2.21,-0.84 3.38,3.38 0 0 1 -0.71,-2.28 V 95.65 H 417 a 0.73,0.73 0 0 1 -0.54,-0.2 0.74,0.74 0 0 1 -0.2,-0.54 v -0.47 a 0.74,0.74 0 0 1 0.2,-0.54 0.73,0.73 0 0 1 0.54,-0.2 h 0.56 v -1.36 a 0.74,0.74 0 0 1 0.2,-0.54 0.73,0.73 0 0 1 0.54,-0.2 h 0.56 a 0.73,0.73 0 0 1 0.54,0.2 0.74,0.74 0 0 1 0.2,0.54 v 1.32 h 1.4 a 0.73,0.73 0 0 1 0.54,0.2 0.74,0.74 0 0 1 0.2,0.54 v 0.47 a 0.74,0.74 0 0 1 -0.2,0.54 0.73,0.73 0 0 1 -0.54,0.2 h -1.4 v 3.69 a 1.68,1.68 0 0 0 0.22,0.94 0.92,0.92 0 0 0 0.82,0.3 H 421 a 0.73,0.73 0 0 1 0.54,0.2 0.74,0.74 0 0 1 0.2,0.54 v 0.47 a 0.74,0.74 0 0 1 -0.2,0.54 0.73,0.73 0 0 1 -0.54,0.2 z M 407.1,115 a 0.73,0.73 0 0 1 -0.54,-0.2 0.74,0.74 0 0 1 -0.2,-0.54 v -4.92 a 1.67,1.67 0 0 0 -0.08,-0.53 1.38,1.38 0 0 0 -0.25,-0.45 1.24,1.24 0 0 0 -0.42,-0.32 1.64,1.64 0 0 0 -1.25,0 1.24,1.24 0 0 0 -0.42,0.32 1.25,1.25 0 0 0 -0.24,0.45 1.86,1.86 0 0 0 -0.08,0.53 v 4.92 a 0.74,0.74 0 0 1 -0.2,0.54 0.73,0.73 0 0 1 -0.54,0.2 h -0.56 a 0.73,0.73 0 0 1 -0.54,-0.2 0.74,0.74 0 0 1 -0.2,-0.54 v -4.92 a 1.67,1.67 0 0 0 -0.08,-0.53 1.38,1.38 0 0 0 -0.25,-0.45 1.24,1.24 0 0 0 -0.42,-0.32 1.37,1.37 0 0 0 -0.61,-0.12 1.43,1.43 0 0 0 -0.62,0.12 1.21,1.21 0 0 0 -0.43,0.32 1.38,1.38 0 0 0 -0.25,0.45 1.67,1.67 0 0 0 -0.08,0.53 v 4.92 a 0.74,0.74 0 0 1 -0.2,0.54 0.73,0.73 0 0 1 -0.54,0.2 h -0.56 a 0.73,0.73 0 0 1 -0.54,-0.2 0.74,0.74 0 0 1 -0.2,-0.54 v -4.92 a 3.63,3.63 0 0 1 0.2,-1.34 3.16,3.16 0 0 1 0.7,-1.08 3.23,3.23 0 0 1 1.08,-0.71 3.67,3.67 0 0 1 1.4,-0.26 3.08,3.08 0 0 1 1.35,0.28 4.4,4.4 0 0 1 1,0.62 c 0.06,0.05 0.07,0.05 0.11,0 a 3.13,3.13 0 0 1 1,-0.64 3.37,3.37 0 0 1 1.38,-0.26 3.67,3.67 0 0 1 1.4,0.26 3.23,3.23 0 0 1 1.08,0.71 3.16,3.16 0 0 1 0.7,1.08 3.63,3.63 0 0 1 0.25,1.34 v 4.92 a 0.74,0.74 0 0 1 -0.2,0.54 0.73,0.73 0 0 1 -0.54,0.2 z m 10.08,0 h -0.56 a 0.7,0.7 0 0 1 -0.55,-0.23 0.74,0.74 0 0 1 -0.2,-0.5 2,2 0 0 1 -0.85,0.65 3.27,3.27 0 0 1 -1.32,0.24 3.07,3.07 0 0 1 -1.28,-0.26 2.89,2.89 0 0 1 -1,-0.75 3.53,3.53 0 0 1 -0.65,-1.15 4.3,4.3 0 0 1 -0.24,-1.45 v -1.68 a 3.94,3.94 0 0 1 0.28,-1.47 3.55,3.55 0 0 1 0.78,-1.21 3.76,3.76 0 0 1 2.71,-1.1 h 2.8 a 0.73,0.73 0 0 1 0.54,0.2 0.74,0.74 0 0 1 0.2,0.54 v 7.38 a 0.74,0.74 0 0 1 -0.2,0.54 0.73,0.73 0 0 1 -0.54,0.2 z m -1.32,-3.78 v -3.2 h -1.41 a 1.66,1.66 0 0 0 -1.32,0.53 1.86,1.86 0 0 0 -0.47,1.28 v 1.87 a 1.47,1.47 0 0 0 0.37,1 1.35,1.35 0 0 0 1,0.4 1.79,1.79 0 0 0 0.79,-0.16 1.6,1.6 0 0 0 0.55,-0.43 1.94,1.94 0 0 0 0.34,-0.61 2.24,2.24 0 0 0 0.11,-0.71 z m 11.06,3.72 h -3.1 a 3.74,3.74 0 0 1 -1.41,-0.26 3.31,3.31 0 0 1 -1.1,-0.71 3.09,3.09 0 0 1 -0.71,-1.08 3.63,3.63 0 0 1 -0.25,-1.34 v -2.08 a 3.52,3.52 0 0 1 0.26,-1.35 3.19,3.19 0 0 1 1.78,-1.79 3.5,3.5 0 0 1 1.36,-0.26 h 1.87 v -3.59 a 0.74,0.74 0 0 1 0.2,-0.54 0.73,0.73 0 0 1 0.54,-0.2 h 0.56 a 0.73,0.73 0 0 1 0.54,0.2 0.74,0.74 0 0 1 0.2,0.54 v 11.73 a 0.74,0.74 0 0 1 -0.2,0.54 0.73,0.73 0 0 1 -0.54,0.2 z M 425.6,108 h -1.78 a 1.38,1.38 0 0 0 -1,0.39 1.4,1.4 0 0 0 -0.39,1 v 2.08 a 1.35,1.35 0 0 0 0.41,1 1.4,1.4 0 0 0 1,0.4 h 1.78 V 108 Z"
         clip-path="url(#clip-path)"
         id="path73"
         inkscape:connector-curvature="0"
         style="clip-rule:evenodd;fill:none" />
    </clipPath>
  </defs>
  <title
     id="title78">Recurso 4</title>
  <g
     id="g381"
     transform="matrix(41.23121,0,0,41.23121,-11429.429,-3360.0687)">
    <path
       style="fill:#e84888"
       inkscape:connector-curvature="0"
       id="path100"
       d="m 300.12,126.41 a 22,22 0 1 0 -22,-22 22.08,22.08 0 0 0 22,22"
       class="cls-9" />
    <path
       style="fill:#ffffff"
       inkscape:connector-curvature="0"
       id="path102"
       d="m 309.62,94.72 -5.75,17.89 c -0.45,1.39 0.13,2.08 1.72,2.08 l -0.1,0.3 h -6 c -0.2,0 -0.37,-0.16 -0.52,-0.48 a 2.09,2.09 0 0 0 -0.25,-0.48 7.34,7.34 0 0 1 -3.44,1.07 c -2.34,0 -4,-0.7 -5,-2.1 -1,-1.4 -1,-3.34 -0.25,-5.8 a 11.37,11.37 0 0 1 4,-5.78 10.26,10.26 0 0 1 6.32,-2.09 4,4 0 0 1 2.66,1 l 1.8,-5.6 q 0.67,-2.08 -1.72,-2.08 l 0.1,-0.3 h 6 q 1.19,0 0.43,2.38 m -14.75,12.49 q -1.62,5.07 -1.54,5.91 0.17,1.7 2.08,1.7 a 6.74,6.74 0 0 0 3.4,-1.1 10.09,10.09 0 0 1 0.3,-1.14 l 3.81,-11.86 a 3.68,3.68 0 0 0 -2.63,-1.08 3.77,3.77 0 0 0 -3.17,1.7 32.46,32.46 0 0 0 -2.24,5.87 m 16.39,5.38 a 2.35,2.35 0 1 1 -2.35,-2.36 2.35,2.35 0 0 1 2.35,2.36"
       class="cls-5" />
  </g>
</svg>
