<?xml version="1.0" encoding="UTF-8" standalone="no"?>
<svg
   xmlns:dc="http://purl.org/dc/elements/1.1/"
   xmlns:cc="http://creativecommons.org/ns#"
   xmlns:rdf="http://www.w3.org/1999/02/22-rdf-syntax-ns#"
   xmlns:svg="http://www.w3.org/2000/svg"
   xmlns="http://www.w3.org/2000/svg"
   xmlns:sodipodi="http://sodipodi.sourceforge.net/DTD/sodipodi-0.dtd"
   xmlns:inkscape="http://www.inkscape.org/namespaces/inkscape"
   width="500mm"
   height="500mm"
   viewBox="0 0 1417.3229 1417.3228"
   version="1.1"
   id="svg29"
   sodipodi:docname="energy.svg"
   inkscape:version="0.92.4 (5da689c313, 2019-01-14)">
  <metadata
     id="metadata35">
    <rdf:RDF>
      <cc:Work
         rdf:about="">
        <dc:format>image/svg+xml</dc:format>
        <dc:type
           rdf:resource="http://purl.org/dc/dcmitype/StillImage" />
        <dc:title />
      </cc:Work>
    </rdf:RDF>
  </metadata>
  <defs
     id="defs33" />
  <sodipodi:namedview
     pagecolor="#ffffff"
     bordercolor="#666666"
     borderopacity="1"
     objecttolerance="10"
     gridtolerance="10"
     guidetolerance="10"
     inkscape:pageopacity="0"
     inkscape:pageshadow="2"
     inkscape:window-width="1920"
     inkscape:window-height="1017"
     id="namedview31"
     showgrid="false"
     units="mm"
     inkscape:zoom="0.34911243"
     inkscape:cx="361.0691"
     inkscape:cy="905.13559"
     inkscape:window-x="-8"
     inkscape:window-y="-8"
     inkscape:window-maximized="1"
     inkscape:current-layer="svg29" />
  <g
     id="g859"
     transform="matrix(0.90424598,0,0,0.90424598,-195.71192,44.008922)">
    <path
       style="fill:#ffffff;fill-opacity:1;fill-rule:nonzero;stroke:none"
       d="m 811.74219,387.30078 c 27.5,-25.97266 66.16015,-37.30859 103.4375,-36.82031 116.87501,0.13672 233.75001,-0.40235 350.62501,0.26953 -11.875,47.79687 -38.8399,92.51953 -79.1094,121.57422 -23.125,16.15234 -50.9805,26.32812 -79.375,26.32812 -116.47264,0.26953 -232.9453,-0.17578 -349.41796,0.22657 12.72266,-39.05469 21.74219,-83.0586 53.83985,-111.57813 z m 0,0"
       id="path2"
       inkscape:connector-curvature="0" />
    <path
       style="fill:#ffffff;fill-opacity:1;fill-rule:nonzero;stroke:none"
       d="m 740.89453,554.80078 c 59.01563,0.35547 118.03516,-0.80469 177.05078,0.57813 -14.19531,42.89062 -29.6875,85.46875 -41.96484,128.98046 66.47656,0.22266 132.99223,-0.75781 199.46483,0.49219 -14.8633,42.48828 -27.8555,85.60156 -42.9453,128 -66.65234,0.75781 -133.48047,-1.02734 -200.08984,0.89063 -13.92969,42.98047 -29.91016,85.51172 -41.29297,129.20703 94.95312,-0.22266 189.86328,-0.0469 284.82031,-0.0898 12.9023,-0.17968 25.8945,-0.49218 38.75,1.11719 -13.9727,30.66016 -19.418,66.27349 -43.0352,91.75789 -26.4296,30.4844 -67.8593,44.3203 -107.41011,43.4258 -132.23438,-0.668 -264.51172,1.1601 -396.65235,-0.8907 C 626.29297,904.07422 682.63281,729.125 740.89453,554.80078 Z m 0,0"
       id="path4"
       inkscape:connector-curvature="0" />
    <path
       style="fill:#ffffff;fill-opacity:1;fill-rule:nonzero;stroke:none"
       d="m 1332.6328,904.96875 c 42.9024,-6.29297 88.082,21.82422 99.375,64.08984 9.8242,32.22261 -1.5625,69.53121 -27.7656,90.73051 -31.9219,26.1992 -81.6992,27.7617 -115.0899,3.3945 -37.3671,-25.9297 -45.0468,-82.78907 -19.7773,-119.56641 13.6172,-21.86719 38.2148,-34.98828 63.2578,-38.64844 z m 0,0"
       id="path6"
       inkscape:connector-curvature="0" />
    <path
       style="fill:#1e1e23;fill-opacity:1;fill-rule:nonzero;stroke:none"
       d="m 946.02734,4.417969 c 63.34766,0.089843 127.54296,-3.480469 190.08986,9.417969 142.2773,25.082031 276.918,91.984372 382.5898,190.527342 131.5157,120.76953 217.0977,291.34375 231.1133,469.6875 11.0742,125.09766 -12.4101,252.96484 -66.7851,366.14842 -58.5704,123.5352 -152.9024,229.4414 -267.7227,303.4414 -163.082,106.2617 -367.7695,145.9844 -558.75,108.7188 C 632.5,1411.2969 430.35547,1263.1719 327.00781,1059.8359 270.17969,949.64453 242.8125,824.41016 248.52734,700.60547 253.48047,604.20312 277.1875,508.47266 320.04297,421.84375 393.125,270.14844 520.84766,146.47656 672.85547,74.753906 758.48047,34.8125 851.51953,9.460938 946.02734,4.417969 M 811.74219,387.30078 c -32.09766,28.51953 -41.11719,72.52344 -53.83985,111.57813 116.47266,-0.40235 232.94532,0.043 349.41796,-0.22657 28.3945,0 56.25,-10.17578 79.375,-26.32812 40.2695,-29.05469 67.2344,-73.77735 79.1094,-121.57422 -116.875,-0.67188 -233.75,-0.13281 -350.62501,-0.26953 -37.27735,-0.48828 -75.9375,10.84765 -103.4375,36.82031 m -70.84766,167.5 C 682.63281,729.125 626.29297,904.07422 567.58984,1078.2695 c 132.14063,2.0508 264.41797,0.2227 396.65235,0.8907 39.55081,0.8945 80.98051,-12.9414 107.41011,-43.4258 23.6172,-25.4844 29.0625,-61.09768 43.0352,-91.75784 -12.8555,-1.60937 -25.8477,-1.29687 -38.75,-1.11719 -94.95703,0.043 -189.86719,-0.13281 -284.82031,0.0898 11.38281,-43.69531 27.36328,-86.22656 41.29297,-129.20703 66.60937,-1.91797 133.4375,-0.13282 200.08984,-0.89063 15.0898,-42.39844 28.082,-85.51172 42.9453,-128 -66.4726,-1.25 -132.98827,-0.26953 -199.46483,-0.49219 12.27734,-43.51171 27.76953,-86.08984 41.96484,-128.98046 -59.01562,-1.38282 -118.03515,-0.22266 -177.05078,-0.57813 M 1332.6328,904.9687 c -25.043,3.66016 -49.6406,16.78125 -63.2578,38.64844 -25.2695,36.77734 -17.5898,93.63676 19.7773,119.56646 33.3907,24.3671 83.168,22.8046 115.0899,-3.3946 26.2031,-21.1993 37.5898,-58.5079 27.7656,-90.73046 -11.293,-42.26562 -56.4726,-70.38281 -99.375,-64.08984 z m 0,0"
       id="path12"
       inkscape:connector-curvature="0" />
  </g>
</svg>
