<?xml version="1.0" encoding="UTF-8" standalone="no"?>
<svg
   xmlns:dc="http://purl.org/dc/elements/1.1/"
   xmlns:cc="http://creativecommons.org/ns#"
   xmlns:rdf="http://www.w3.org/1999/02/22-rdf-syntax-ns#"
   xmlns:svg="http://www.w3.org/2000/svg"
   xmlns="http://www.w3.org/2000/svg"
   xmlns:sodipodi="http://sodipodi.sourceforge.net/DTD/sodipodi-0.dtd"
   xmlns:inkscape="http://www.inkscape.org/namespaces/inkscape"
   height="500mm"
   width="500mm"
   version="1.1"
   id="svg8"
   sodipodi:docname="estrellas.svg"
   inkscape:version="0.92.4 (5da689c313, 2019-01-14)">
  <metadata
     id="metadata14">
    <rdf:RDF>
      <cc:Work
         rdf:about="">
        <dc:format>image/svg+xml</dc:format>
        <dc:type
           rdf:resource="http://purl.org/dc/dcmitype/StillImage" />
        <dc:title></dc:title>
      </cc:Work>
    </rdf:RDF>
  </metadata>
  <defs
     id="defs12" />
  <sodipodi:namedview
     pagecolor="#ffffff"
     bordercolor="#666666"
     borderopacity="1"
     objecttolerance="10"
     gridtolerance="10"
     guidetolerance="10"
     inkscape:pageopacity="0"
     inkscape:pageshadow="2"
     inkscape:window-width="1920"
     inkscape:window-height="1017"
     id="namedview10"
     showgrid="false"
     inkscape:pagecheckerboard="true"
     units="mm"
     inkscape:zoom="0.26074563"
     inkscape:cx="316.9027"
     inkscape:cy="926.31236"
     inkscape:window-x="-8"
     inkscape:window-y="-8"
     inkscape:window-maximized="1"
     inkscape:current-layer="svg8" />
  <path
     style="opacity:1;fill:#ffffff;fill-opacity:1;stroke:none;stroke-width:21.74261475;stroke-miterlimit:4;stroke-dasharray:none;stroke-opacity:1"
     d="m 944.42048,262.19062 c -12.16811,7.435 -5.3877,24.10714 -7.62376,35.73978 -2.13447,320.80706 -0.98392,641.62876 -1.1569,962.4418 0.63618,118.3788 -0.81187,236.8158 2.01296,355.1564 1.05404,12.5188 20.0685,11.1761 20.68886,-0.8127 36.79222,-156.3251 66.35146,-314.275 102.91996,-470.6455 160.7394,51.9721 321.4387,103.9879 481.9487,156.6721 13.5118,3.1589 16.7928,-15.3126 5.94,-21.0522 -123.758,-112.5836 -249.1396,-223.3541 -372.4145,-336.4712 123.894,-114.2668 250.7022,-225.35513 374.6205,-339.57981 7.6406,-10.09265 -5.9012,-20.99122 -15.4343,-14.76759 -158.7101,49.76212 -316.4873,102.44371 -474.9825,152.8819 -36.1108,-156.56599 -66.07119,-315.13957 -103.00984,-471.76907 -1.21458,-5.86847 -7.93349,-9.43205 -13.50918,-7.79391 z"
     id="path872"
     inkscape:connector-curvature="0" />
  <path
     style="opacity:1;fill:#ffffff;fill-opacity:1;stroke:none;stroke-width:21.74261475;stroke-miterlimit:4;stroke-dasharray:none;stroke-opacity:1"
     d="M 960.58203 129.22266 C 956.59447 129.2121 952.60677 129.21907 948.61914 129.24023 L 948.61914 129.24219 C 883.51619 128.91747 818.34436 135.16173 755.07812 150.89258 C 624.91621 182.22938 502.35584 246.05158 402.52734 335.30859 C 344.25574 388.61949 291.53832 448.38077 250.44922 516.03906 C 134.68804 701.27935 99.009324 934.02652 153.45508 1145.5195 C 205.04127 1351.7799 341.25454 1534.9615 523.77148 1643.9668 C 705.38304 1754.1502 930.96251 1789.9659 1137.293 1738.2383 C 1326.582 1692.6927 1497.9853 1577.0247 1610.1309 1417.7637 C 1694.5231 1298.9658 1747.2977 1157.2627 1758.5332 1011.8359 C 1760.9853 938.8474 1762.4559 864.94496 1747.0762 793.10938 C 1707.1182 578.45529 1576.5161 382.84004 1393.9512 263.16797 C 1269.4336 181.00163 1121.7893 133.3097 972.54492 129.31641 C 968.55756 129.26249 964.56959 129.23322 960.58203 129.22266 z M 953.32227 233.4082 C 957.5819 233.4092 961.84193 233.41011 966.10156 233.41211 C 1051.9067 234.45871 1136.3817 254.18743 1215.6914 285.98047 C 1409.1512 365.01077 1564.2406 533.64727 1624.6113 734.2832 C 1644.2351 799.95276 1656.7204 869.06415 1655.459 937.8418 C 1656.5333 994.24349 1650.9401 1050.947 1637.9902 1105.2949 C 1599.4913 1276.476 1493.5538 1431.4899 1348.4668 1530.8105 C 1238.7989 1606.9674 1106.9926 1650.5412 973.99609 1655.7285 C 967.46789 1654.2106 952.96981 1661.3009 953.32617 1652.0859 C 951.8915 1638.0731 948.47996 1624.1476 947.99414 1610.2852 C 936.6198 1569.8954 929.40335 1527.8549 919.91211 1486.7852 C 894.23501 1368.5941 870.43503 1249.9715 843.51172 1132.0664 C 835.95071 1118.5404 820.43345 1130.3639 809.58984 1131.9746 C 664.18017 1177.1305 518.81062 1225.9651 374.34961 1271.8633 C 492.67012 1163.8139 613.25682 1058.2085 730.375 948.87109 C 737.93816 935.45468 719.57433 927.89469 712.52539 919.35938 C 600.43549 817.34212 487.07674 716.72634 375.28125 614.38477 C 527.74643 662.69761 679.56499 713.91844 832.35156 761.48438 C 848.45486 760.70796 845.12229 740.26421 849.45508 729.25781 C 884.85755 564.14173 920.0763 398.97209 953.32227 233.4082 z "
     id="path876" />
  <g
     id="g19"
     transform="matrix(11.376552,0,0,11.376195,33.881742,32.462535)">
    <path
       id="path2"
       transform="translate(131.20338,23.254237)"
       d="M -51.186,118.57 -60.766,73.372 -104.7,87.674 -70.346,56.78 -104.7,25.885 l 43.934,14.302 9.58,-45.1969 z"
       inkscape:connector-curvature="0"
       style="fill:#bb2c28" />
    <path
       id="path4"
       d="M 80.031,16.781 V 18.25 L 89.594,63.438 133.53,49.156 99.188,80.031 133.53,110.94 89.594,96.625 80.031,141.81 v 1.75 c 35.009,0 63.379,-28.36 63.379,-63.372 0,-35.01 -28.37,-63.407 -63.379,-63.407 z"
       inkscape:connector-curvature="0"
       style="fill:#bb2c28" />
    <path
       id="path6"
       d="m 80.094,0.46875 c -44.032,0 -79.75,35.718 -79.75,79.75 0,44.031 35.718,79.721 79.75,79.721 44.036,0 79.716,-35.69 79.716,-79.721 0,-44.032 -35.68,-79.75 -79.716,-79.75 z m 0,8.75 c 39.196,0 70.966,31.801 70.966,71 0,39.201 -31.77,70.971 -70.966,70.971 -39.199,0 -71,-31.77 -71,-70.971 0,-39.199 31.801,-71 71,-71 z"
       inkscape:connector-curvature="0"
       style="fill:#bb2c28" />
  </g>
</svg>
