<?xml version="1.0" encoding="UTF-8" standalone="no"?>
<!-- Generator: Adobe Illustrator 22.1.0, SVG Export Plug-In . SVG Version: 6.00 Build 0)  -->

<svg
   xmlns:dc="http://purl.org/dc/elements/1.1/"
   xmlns:cc="http://creativecommons.org/ns#"
   xmlns:rdf="http://www.w3.org/1999/02/22-rdf-syntax-ns#"
   xmlns:svg="http://www.w3.org/2000/svg"
   xmlns="http://www.w3.org/2000/svg"
   xmlns:sodipodi="http://sodipodi.sourceforge.net/DTD/sodipodi-0.dtd"
   xmlns:inkscape="http://www.inkscape.org/namespaces/inkscape"
   version="1.1"
   id="svg2985"
   inkscape:version="0.92.4 (5da689c313, 2019-01-14)"
   sodipodi:docname="eurosport_2.svg"
   x="0px"
   y="0px"
   viewBox="0 0 1889.7637 1889.7638"
   xml:space="preserve"
   width="500mm"
   height="500mm"><metadata
   id="metadata25"><rdf:RDF><cc:Work
       rdf:about=""><dc:format>image/svg+xml</dc:format><dc:type
         rdf:resource="http://purl.org/dc/dcmitype/StillImage" /><dc:title /></cc:Work></rdf:RDF></metadata><defs
   id="defs23">
	
	
	
	
	
	
	
	
	
	
	
	
	
<pattern
   y="0"
   x="0"
   height="6"
   width="6"
   patternUnits="userSpaceOnUse"
   id="EMFhbasepattern" /></defs><sodipodi:namedview
   pagecolor="#ffffff"
   bordercolor="#666666"
   borderopacity="1"
   objecttolerance="10"
   gridtolerance="10"
   guidetolerance="10"
   inkscape:pageopacity="0"
   inkscape:pageshadow="2"
   inkscape:window-width="1920"
   inkscape:window-height="1017"
   id="namedview21"
   showgrid="false"
   units="mm"
   inkscape:zoom="0.30739069"
   inkscape:cx="1506.7849"
   inkscape:cy="627.19734"
   inkscape:window-x="-8"
   inkscape:window-y="-8"
   inkscape:window-maximized="1"
   inkscape:current-layer="svg2985" />
<style
   type="text/css"
   id="style2">
	.st0{fill:#171F50;}
	.st1{fill:#D30132;}
	.st2{fill:#FFFFFF;}
</style>

<g
   id="g75"
   transform="matrix(0.44977865,0,0,0.44977865,1363.9817,-399.86259)"><path
     id="XMLID_193_"
     inkscape:connector-curvature="0"
     class="st0"
     d="m -1336.5037,3885.9596 -609.8783,-397.9957 -942.0187,397.9957 558.3394,-641.3744 -618.4682,-395.1324 h 959.1983 l 652.8275,-753.0423 v 753.0423 h 927.70223 l -927.70223,389.4058 z"
     style="fill:#171f50;stroke-width:28.6327858" /><path
     id="XMLID_192_"
     inkscape:connector-curvature="0"
     class="st0"
     d="m -179.73919,2465.7734 c 34.35934,0 60.12885,-25.7695 60.12885,-60.1288 v -249.1052 c 0,-34.3594 -25.76951,-60.1289 -60.12885,-60.1289 H -1181.8867 v 369.3629 c 0,0 1002.14751,0 1002.14751,0 z"
     style="fill:#171f50;stroke-width:28.6327858" /><path
     id="XMLID_191_"
     inkscape:connector-curvature="0"
     class="st0"
     d="m -179.73919,3885.9596 c 34.35934,0 60.12885,-25.7695 60.12885,-60.1289 v -251.9685 c 0,-34.3593 -25.76951,-60.1288 -60.12885,-60.1288 H -1181.8867 v 369.3629 c 0,2.8633 1002.14751,2.8633 1002.14751,2.8633 z"
     style="fill:#171f50;stroke-width:28.6327858" /></g><path
   id="path911"
   d="m 1392.4451,1298.7594 v 23.1912 c 0,13.9135 8.6971,25.973 21.3474,25.973 h 416.6676 0.7906 c 11.8596,0 20.5566,-12.0595 20.5566,-25.973 v -113.173 c 0,-12.9871 -8.697,-25.9742 -22.1379,-25.9742 h -195.2882 l 121.7586,-191.09304 c 72.739,-109.46244 88.5518,-231.91077 49.0198,-326.52964 -33.207,-77.9224 -102.7833,-123.376 -192.1257,-123.376 -137.5715,0.92767 -215.8449,89.98068 -219.0075,249.53491 l -0.7906,37.10589 c 0,15.77004 9.4877,25.04651 22.9286,25.04651 h 94.0863 c 11.8596,0 21.3472,-11.1318 22.1379,-25.04651 l 0.7906,-35.25061 c 2.3719,-42.67179 17.3941,-93.69125 76.6921,-93.69125 48.2291,0 72.739,36.17712 73.5296,73.28302 1.5813,40.81651 -7.1158,71.42888 -37.1601,117.81009 l -242.7266,374.76733 c -7.1158,10.2041 -11.0691,18.5529 -11.0691,33.3953 z"
   style="fill:#e40138;fill-opacity:1;fill-rule:nonzero;stroke:none;stroke-width:10.7051487"
   inkscape:connector-curvature="0" /></svg>