<?xml version="1.0" encoding="UTF-8" standalone="no"?>
<!-- Generator: Adobe Illustrator 22.1.0, SVG Export Plug-In . SVG Version: 6.00 Build 0)  -->

<svg
   xmlns:dc="http://purl.org/dc/elements/1.1/"
   xmlns:cc="http://creativecommons.org/ns#"
   xmlns:rdf="http://www.w3.org/1999/02/22-rdf-syntax-ns#"
   xmlns:svg="http://www.w3.org/2000/svg"
   xmlns="http://www.w3.org/2000/svg"
   xmlns:sodipodi="http://sodipodi.sourceforge.net/DTD/sodipodi-0.dtd"
   xmlns:inkscape="http://www.inkscape.org/namespaces/inkscape"
   version="1.1"
   id="svg2985"
   inkscape:version="0.92.4 (5da689c313, 2019-01-14)"
   sodipodi:docname="eurosport_1.svg"
   x="0px"
   y="0px"
   viewBox="0 0 1889.7637 1889.7638"
   xml:space="preserve"
   width="500mm"
   height="500mm"><metadata
   id="metadata25"><rdf:RDF><cc:Work
       rdf:about=""><dc:format>image/svg+xml</dc:format><dc:type
         rdf:resource="http://purl.org/dc/dcmitype/StillImage" /><dc:title></dc:title></cc:Work></rdf:RDF></metadata><defs
   id="defs23">
	
	
	
	
	
	
	
	
	
	
	
	
	
<pattern
   y="0"
   x="0"
   height="6"
   width="6"
   patternUnits="userSpaceOnUse"
   id="EMFhbasepattern" /></defs><sodipodi:namedview
   pagecolor="#ffffff"
   bordercolor="#666666"
   borderopacity="1"
   objecttolerance="10"
   gridtolerance="10"
   guidetolerance="10"
   inkscape:pageopacity="0"
   inkscape:pageshadow="2"
   inkscape:window-width="1920"
   inkscape:window-height="1017"
   id="namedview21"
   showgrid="false"
   units="mm"
   inkscape:zoom="0.10867902"
   inkscape:cx="1211.0381"
   inkscape:cy="-813.71543"
   inkscape:window-x="-8"
   inkscape:window-y="-8"
   inkscape:window-maximized="1"
   inkscape:current-layer="svg2985" />
<style
   type="text/css"
   id="style2">
	.st0{fill:#171F50;}
	.st1{fill:#D30132;}
	.st2{fill:#FFFFFF;}
</style>

<g
   id="g75"
   transform="matrix(0.44977865,0,0,0.44977865,1363.9817,-399.86259)"><path
     id="XMLID_193_"
     inkscape:connector-curvature="0"
     class="st0"
     d="m -1336.5037,3885.9596 -609.8783,-397.9957 -942.0187,397.9957 558.3394,-641.3744 -618.4682,-395.1324 h 959.1983 l 652.8275,-753.0423 v 753.0423 h 927.70223 l -927.70223,389.4058 z"
     style="fill:#171f50;stroke-width:28.6327858" /><path
     id="XMLID_192_"
     inkscape:connector-curvature="0"
     class="st0"
     d="m -179.73919,2465.7734 c 34.35934,0 60.12885,-25.7695 60.12885,-60.1288 v -249.1052 c 0,-34.3594 -25.76951,-60.1289 -60.12885,-60.1289 H -1181.8867 v 369.3629 c 0,0 1002.14751,0 1002.14751,0 z"
     style="fill:#171f50;stroke-width:28.6327858" /><path
     id="XMLID_191_"
     inkscape:connector-curvature="0"
     class="st0"
     d="m -179.73919,3885.9596 c 34.35934,0 60.12885,-25.7695 60.12885,-60.1289 v -251.9685 c 0,-34.3593 -25.76951,-60.1288 -60.12885,-60.1288 H -1181.8867 v 369.3629 c 0,2.8633 1002.14751,2.8633 1002.14751,2.8633 z"
     style="fill:#171f50;stroke-width:28.6327858" /></g><path
   style="fill:#e40138;fill-opacity:1;stroke-width:21.40114975"
   inkscape:connector-curvature="0"
   id="path17"
   d="m 1392.6054,541.84026 v 167.50679 h 199.4944 V 1347.959 h 259.8678 V 709.34705 541.84026 h -259.8678 z"
   class="st2" /></svg>