<?xml version="1.0" encoding="UTF-8" standalone="no"?>
<svg
   xmlns:dc="http://purl.org/dc/elements/1.1/"
   xmlns:cc="http://creativecommons.org/ns#"
   xmlns:rdf="http://www.w3.org/1999/02/22-rdf-syntax-ns#"
   xmlns:svg="http://www.w3.org/2000/svg"
   xmlns="http://www.w3.org/2000/svg"
   xmlns:sodipodi="http://sodipodi.sourceforge.net/DTD/sodipodi-0.dtd"
   xmlns:inkscape="http://www.inkscape.org/namespaces/inkscape"
   viewBox="0 0 1889.7638 1889.7638"
   height="500mm"
   width="500mm"
   xml:space="preserve"
   id="svg2"
   version="1.1"
   sodipodi:docname="EWTN.svg"
   inkscape:version="0.92.4 (5da689c313, 2019-01-14)"><sodipodi:namedview
     pagecolor="#ffffff"
     bordercolor="#666666"
     borderopacity="1"
     objecttolerance="10"
     gridtolerance="10"
     guidetolerance="10"
     inkscape:pageopacity="0"
     inkscape:pageshadow="2"
     inkscape:window-width="1920"
     inkscape:window-height="1017"
     id="namedview61"
     showgrid="false"
     inkscape:pagecheckerboard="true"
     units="mm"
     inkscape:zoom="0.19418998"
     inkscape:cx="289.84894"
     inkscape:cy="368.12565"
     inkscape:window-x="-8"
     inkscape:window-y="-8"
     inkscape:window-maximized="1"
     inkscape:current-layer="svg2" /><metadata
     id="metadata8"><rdf:RDF><cc:Work
         rdf:about=""><dc:format>image/svg+xml</dc:format><dc:type
           rdf:resource="http://purl.org/dc/dcmitype/StillImage" /><dc:title></dc:title></cc:Work></rdf:RDF></metadata><defs
     id="defs6"><clipPath
       id="clipPath18"
       clipPathUnits="userSpaceOnUse"><path
         id="path16"
         d="M 0,54.2 H 193.9 V 0 H 0 Z"
         inkscape:connector-curvature="0" /></clipPath></defs><g
     id="g1226"
     transform="matrix(0.76883259,0,0,0.76883259,843.01792,1641.7609)"><g
       transform="matrix(18.731196,0,0,18.731196,-2406.4531,-670.9656)"
       id="g247"><g
         id="g20"
         transform="matrix(1.3333333,0,0,-1.3333333,105.5228,25.274135)"><path
           inkscape:connector-curvature="0"
           d="M 0,0 -0.127,-3.27 H -9.05 c -0.097,-1.287 -0.109,-2.649 -0.16,-3.954 h 7.709 c 0.027,-1.255 -0.055,-2.516 -0.09,-3.788 h -7.671 c -0.046,0.017 -0.085,0.043 -0.093,0 l -0.146,-4.31 h 8.798 c -0.026,-1.153 -0.108,-2.197 -0.167,-3.367 h -12.803 l 0.713,18.69 H 0 Z"
           style="fill:#000000;fill-opacity:1;fill-rule:nonzero;stroke:none"
           id="path22" /></g><g
         id="g24"
         transform="matrix(1.3333333,0,0,-1.3333333,111.96813,25.297468)"><path
           inkscape:connector-curvature="0"
           d="m 0,0 4.309,-14.778 c -0.008,-0.025 0.024,-0.043 0.031,-0.059 l 0.133,0.203 2.43,5.808 L 4.333,0 C 5.515,0.017 6.698,0.017 7.88,0 8.289,-1.171 8.619,-2.413 9.027,-3.585 l 0.095,0.128 1.41,3.458 c 1.23,0.046 2.467,0.013 3.718,0 l -3.613,-8.798 1.385,-4.543 c 0.147,-0.467 0.278,-0.933 0.44,-1.384 l 0.281,0.61 L 18.452,0 h 3.827 l -0.133,-0.378 -4.383,-10.669 -2.186,-5.242 c -0.284,-0.82 -0.636,-1.596 -0.957,-2.4 -1.533,-0.046 -3.19,-0.058 -4.761,0 l -1.332,4.591 -0.054,0.059 -0.305,-0.652 -1.693,-3.998 H 1.753 L 0.945,-16.13 -3.858,0 Z"
           style="fill:#000000;fill-opacity:1;fill-rule:nonzero;stroke:none"
           id="path26" /></g><g
         id="g28"
         transform="matrix(1.3333333,0,0,-1.3333333,143.14973,25.276002)"><path
           inkscape:connector-curvature="0"
           d="M 0,0 H 12.882 C 12.91,-1.018 12.806,-2.041 12.763,-3.092 L 8.127,-3.134 7.33,-18.69 c -1.159,-0.072 -2.372,0.012 -3.562,0 l 0.226,7.448 0.29,8.063 -0.055,0.034 H -0.143 C -0.092,-2.085 -0.073,-1.042 0,0"
           style="fill:#000000;fill-opacity:1;fill-rule:nonzero;stroke:none"
           id="path30" /></g><g
         id="g32"
         transform="matrix(1.3333333,0,0,-1.3333333,170.12373,25.497335)"><path
           inkscape:connector-curvature="0"
           d="m 0,0 6.269,-14.525 c 0.015,-0.008 0.023,-0.041 0.054,-0.035 l 0.039,0.06 0.677,14.499 h 3.477 L 9.632,-18.69 H 3.806 l -1.985,4.572 -4.333,9.845 -0.039,0.042 -0.038,-0.059 -0.808,-14.4 h -3.494 l 0.823,18.689 H 0 Z"
           style="fill:#000000;fill-opacity:1;fill-rule:nonzero;stroke:none"
           id="path34" /></g></g><g
       transform="matrix(24.50113,0,0,24.50113,-777.82069,-2084.7)"
       id="g1188"><path
         inkscape:connector-curvature="0"
         style="fill:#ffffff;fill-opacity:1;fill-rule:nonzero;stroke:none;stroke-width:1.33333325"
         d="M 37.005337,-0.06266077 C 16.567997,-0.06266077 0,16.128005 0,36.101338 0,56.074671 16.567997,72.26667 37.005337,72.26667 c 20.43866,0 37.00666,-16.191999 37.00666,-36.165332 0,-19.973333 -16.568,-36.16399877 -37.00666,-36.16399877"
         id="path38-9" /><path
         id="path38"
         style="fill:#000000;fill-opacity:1;fill-rule:nonzero;stroke:none;stroke-width:1.33333325"
         d="m 70.645865,24.423868 c 1.984,5.152 1.986667,11.532 1.986667,11.532 l -6.990667,0.193333 c 0,0 -0.769333,-6.298666 -1.541333,-10.66 -0.770667,-4.36 -4.236,-11.823999 -4.236,-11.823999 l 3.370667,-1.065334 c 0,0 4.427999,4.072 7.410666,11.824 m -1.248,26.069333 c -3.196,7.024 -8.086666,10.851999 -8.086666,10.851999 l -2.504,-0.966666 c 0,0 3.561333,-3.585333 5.583999,-11.728 1.196,-4.816 1.250667,-10.757333 1.250667,-10.757333 l 6.834667,-0.484 c 0,0 0.578666,5.04 -3.078667,13.084 M 56.303199,65.222534 c -1.157334,0.676 -5.297334,2.812 -5.297334,2.812 0,0 3.274667,-2.618667 4.430667,-3.588 1.153333,-0.966667 2.405333,-2.808 2.405333,-2.808 l 2.214667,0.872 c 0,0 -2.6,2.033333 -3.753333,2.712 m -14.350667,4.653333 c 0,0 2.409334,-2.712 3.854667,-5.230667 1.444,-2.522666 2.021333,-4.944 2.021333,-4.944 0,0 2.406667,0.288 4.333333,0.677334 1.926667,0.386666 3.850667,0.966666 3.850667,0.966666 0,0 -2.792,3.198667 -6.164,5.432 -3.369333,2.225334 -7.896,3.098667 -7.896,3.098667 M 37.143199,70.4572 c -6.26,0 -9.724,-10.952 -9.724,-10.952 0,0 6.16,-0.578666 9.529334,-0.578666 3.370666,0 9.338666,0.578666 9.338666,0.578666 0,0 -3.561333,10.952 -9.144,10.952 m -12.904,-3.781333 C 19.6192,63.706534 18.365866,61.2492 18.365866,61.2492 c 0,0 1.925334,-0.58 3.468,-0.870666 1.54,-0.289334 4.044,-0.678667 4.044,-0.678667 0,0 0.674667,2.42 2.021333,4.748 1.346667,2.328 3.850667,5.426667 3.850667,5.426667 0,0 -4.044,-0.965334 -7.510667,-3.198667 M 18.6552,65.706534 C 16.153866,64.1572 13.937866,62.511867 13.937866,62.511867 l 2.504,-0.873333 c 0,0 1.634667,2.130666 2.598667,3.1 0.962667,0.968 4.622667,3.490666 4.622667,3.490666 -1.734667,-0.701333 -3.409334,-1.545333 -5.008,-2.522666 M 4.8872,50.975867 C 0.74720008,41.769201 1.5178667,37.117201 1.5178667,37.117201 l 6.3546665,0.484 c 0,0 0.164,4.152 1.2506667,8.530666 C 11.5312,55.822534 15.4792,60.2812 15.4792,60.2812 l -2.986667,0.966667 c 0,0 -4.8693331,-4.185333 -7.605333,-10.272 m 0.096,-30.039999 c 3.3786666,-6.633333 5.390667,-7.948 5.390667,-7.948 l 3.273333,1.065334 c 0,0 -2.694667,4.263999 -4.4280001,10.079999 -1.7333333,5.816 -1.4453333,11.822667 -1.4453333,11.822667 l -6.3533332,-0.484 c 0,0 -0.2893333,-6.978667 3.5626666,-14.536 M 15.4792,8.3358684 c 2.886666,-2.5199999 7.894666,-4.5559999 7.894666,-4.5559999 0,0 -3.082666,1.9386666 -5.582666,4.7506666 -2.505334,2.8093329 -3.178667,3.9733329 -3.178667,3.9733329 L 11.5312,11.630535 c 0,0 2.14,-1.7173333 3.948,-3.2946666 m 12.419999,-0.872 c -1.925333,3.7799996 -2.697333,6.2026666 -2.697333,6.2026666 l -2.472,-0.04 -3.08,-2.52 -1.765333,2.076 -1.730667,-0.290667 c 0,0 3.486667,-4.2359996 6.448,-6.4933329 6.354667,-4.8479999 10.302667,-4.7493332 10.302667,-4.7493332 0,0 -3.081334,2.0346666 -5.005334,5.8146665 m 9.532,-6.1053332 c 1.444,0 4.524,2.4213333 5.872,4.3613333 1.349333,1.9386666 3.370667,7.5586665 3.370667,7.5586665 l -2.376,0.830667 -17.361333,-0.348 c 0,0 0.74,-3.724 3.656,-7.4613335 3.178666,-4.0693333 5.393333,-4.9413333 6.838666,-4.9413333 m 13.573333,4.7479999 c 3.66,2.908 5.2,5.1373329 5.2,5.1373329 0,0 -2.021333,-0.09733 -3.561333,0.386667 -1.541334,0.485333 -4.429333,1.162667 -4.429333,1.162667 0,0 -0.962667,-2.518667 -1.829334,-4.4573336 -0.866666,-1.9373333 -4.333333,-6.2013332 -4.333333,-6.2013332 0,0 5.796,1.464 8.953333,3.9719999 m 2.216,30.6253329 c 0,0 2.504,-3.974667 4.14,-7.56 1.64,-3.585333 2.6,-6.688 2.793333,-7.464 0.190667,-0.774667 0.382667,-2.422667 0.382667,-2.422667 0,0 2.12,6.108 2.601333,8.82 0.481334,2.713334 0.866667,8.237333 0.866667,8.237333 z m -2.6,12.211999 c 0.674667,-4.555999 0.868,-9.402666 0.868,-9.402666 l 0.674667,-1.064 11.938666,-0.485333 c 0,0 0.07733,6.133333 -1.829333,11.629333 -2.793333,8.042666 -5.102667,10.274666 -5.102667,10.274666 0,0 -2.216,-0.68 -4.237333,-1.069333 -2.021333,-0.386667 -4.522666,-0.677334 -4.522666,-0.677334 0,0 1.537333,-4.650666 2.210666,-9.205333 m -23.918666,2.076 c 0,0 0.234667,-4.209333 3.604,-7.989333 3.369333,-3.78 6.416,-4.208 6.416,-4.208 v -3.886666 c 0,0 0.709333,-1.209334 0.997333,-1.790667 0.289333,-0.581333 0.414667,-2.422666 0.414667,-2.422666 v -5.273334 h -2.309333 v -1.944 h 2.395999 v -2.513333 h 2.009334 v 2.490667 h 2.141333 v 1.990666 h -2.342667 v 5.153334 c 0,0 0.09733,1.355999 0.481334,2.325333 0.386666,0.969333 1.092,1.985333 1.092,1.985333 v 3.886667 c 0,0 1.989333,0.234666 3.916,1.396 1.928,1.162666 3.208,3.448 3.208,3.448 l 1.029333,-1.512 c 0,0 -0.58,5.719999 -1.249333,8.917333 -0.674667,3.197333 -1.637334,6.783999 -1.637334,6.783999 0,0 -4.910666,-0.579999 -9.821333,-0.579999 -4.909333,0 -10.109333,0.579999 -10.109333,0.579999 L 25.300533,51.019867 Z M 24.047199,30.335868 c 0,0 0.192,-4.070667 0.578667,-6.784 0.384,-2.714667 1.156,-6.105333 1.156,-6.105333 l 13.316,0.05733 c 0,0 -5.998667,3.916 -9.081333,6.629333 -3.08,2.714667 -5.969334,6.202667 -5.969334,6.202667 m -2.665333,-13.028 2.762667,0.137334 c 0,0 -0.481333,2.325333 -0.770667,3.973333 -0.290666,1.648 -0.772,6.106666 -0.772,6.106666 z m 0.450667,39.290666 c 1.541333,-1.744 2.118667,-3.682667 2.118667,-3.682667 l 1.346666,5.233333 c 0,0 -1.829333,0.289334 -3.370666,0.582667 -1.538667,0.290667 -3.669334,0.648 -3.669334,0.648 0,0 2.033334,-1.037333 3.574667,-2.781333 M 18.1072,19.053201 20.0032,36.535868 9.4111999,36.053201 c 0,0 -0.3933334,-2.134667 0.4826666,-6.977333 1.7333335,-9.594667 5.4879995,-14.632 5.4879995,-14.632 l 1.156,0.192 -1.317333,1.510667 z M 15.8632,58.0532 c 0,0 -4.429334,-6.493333 -5.681333,-14.149332 -0.3253338,-1.988 -0.5173338,-3.994667 -0.5773338,-6.009334 l 9.9173328,0.290667 c 0,0 -1.925333,4.166667 -2.693333,7.657333 -0.772,3.488 -1.061333,8.138667 -1.156,9.304 C 15.5752,56.309201 15.8632,58.0532 15.8632,58.0532 M 58.325865,8.1412017 c 2.694667,2.0360003 3.657334,3.1026663 3.657334,3.1026663 l -3.081334,0.969334 c 0,0 -1.346666,-1.745334 -3.081333,-3.9760003 -1.732,-2.2293332 -6.256,-4.9413332 -6.256,-4.9413332 0,0 6.064,2.8106666 8.761333,4.8453332 M 37.037866,-0.03079806 c -20.437333,0 -37.00533257,16.19066606 -37.00533257,36.16399906 0,19.973333 16.56799957,36.165332 37.00533257,36.165332 20.438666,0 37.006666,-16.191999 37.006666,-36.165332 0,-19.973333 -16.568,-36.16399906 -37.006666,-36.16399906"
         inkscape:connector-curvature="0" /><g
         id="g40"
         transform="matrix(1.3333333,0,0,-1.3333333,61.263065,65.9076)"><path
           inkscape:connector-curvature="0"
           d="m 0,0 c -0.056,0.031 -0.146,0.047 -0.271,0.047 h -0.19 v -0.459 h 0.202 c 0.094,0 0.165,0.01 0.213,0.028 0.087,0.035 0.13,0.101 0.13,0.198 C 0.084,-0.094 0.056,-0.031 0,0 m -0.241,0.199 c 0.157,0 0.272,-0.014 0.345,-0.045 C 0.236,0.1 0.301,-0.008 0.301,-0.167 0.301,-0.28 0.26,-0.363 0.177,-0.417 0.134,-0.445 0.073,-0.466 -0.005,-0.479 0.093,-0.494 0.166,-0.535 0.212,-0.603 0.258,-0.67 0.281,-0.734 0.281,-0.799 v -0.093 c 0,-0.029 10e-4,-0.06 0.003,-0.093 0.002,-0.034 0.006,-0.056 0.011,-0.067 L 0.303,-1.067 H 0.094 C 0.093,-1.062 0.092,-1.059 0.09,-1.055 0.089,-1.05 0.088,-1.046 0.087,-1.04 L 0.083,-1 v 0.101 c 0,0.146 -0.04,0.243 -0.12,0.29 -0.047,0.026 -0.13,0.04 -0.248,0.04 H -0.461 V -1.067 H -0.684 V 0.199 Z M -0.92,0.264 c -0.192,-0.194 -0.289,-0.428 -0.289,-0.702 0,-0.277 0.096,-0.513 0.288,-0.708 0.192,-0.195 0.426,-0.291 0.702,-0.291 0.276,0 0.51,0.096 0.702,0.291 0.193,0.195 0.289,0.431 0.289,0.708 0,0.274 -0.096,0.508 -0.289,0.702 -0.193,0.195 -0.427,0.292 -0.702,0.292 -0.273,0 -0.507,-0.097 -0.701,-0.292 m 1.518,-1.52 c -0.225,-0.225 -0.497,-0.339 -0.817,-0.339 -0.32,0 -0.592,0.114 -0.816,0.339 -0.223,0.226 -0.334,0.498 -0.334,0.819 0,0.318 0.113,0.588 0.338,0.814 0.224,0.225 0.494,0.336 0.812,0.336 0.32,0 0.592,-0.111 0.817,-0.336 0.225,-0.225 0.338,-0.495 0.338,-0.814 0,-0.32 -0.113,-0.592 -0.338,-0.819"
           style="fill:#000000;fill-opacity:1;fill-rule:nonzero;stroke:none"
           id="path42" /></g><path
         inkscape:connector-curvature="0"
         style="fill:#ffffff;fill-opacity:1;fill-rule:nonzero;stroke:none;stroke-width:1.33333325"
         d="m 70.613337,24.392005 c 1.984,5.152 1.98666,11.532 1.98666,11.532 l -6.99066,0.193333 c 0,0 -0.76934,-6.298666 -1.54134,-10.66 -0.77066,-4.36 -4.236,-11.823999 -4.236,-11.823999 l 3.37067,-1.065334 c 0,0 4.428,4.072 7.41067,11.824"
         id="path355" /><path
         inkscape:connector-curvature="0"
         style="fill:#ffffff;fill-opacity:1;fill-rule:nonzero;stroke:none;stroke-width:1.33333325"
         d="m 69.365337,50.461338 c -3.196,7.024 -8.08667,10.851999 -8.08667,10.851999 l -2.504,-0.966666 c 0,0 3.56133,-3.585333 5.584,-11.728 1.196,-4.816 1.25067,-10.757333 1.25067,-10.757333 l 6.83466,-0.484 c 0,0 0.57867,5.04 -3.07866,13.084"
         id="path353" /><path
         inkscape:connector-curvature="0"
         style="fill:#ffffff;fill-opacity:1;fill-rule:nonzero;stroke:none;stroke-width:1.33333325"
         d="m 56.270667,65.190671 c -1.15733,0.676 -5.29733,2.812 -5.29733,2.812 0,0 3.27466,-2.618667 4.43066,-3.588 1.15334,-0.966667 2.40534,-2.808 2.40534,-2.808 l 2.21466,0.872 c 0,0 -2.6,2.033333 -3.75333,2.712"
         id="path351" /><path
         inkscape:connector-curvature="0"
         style="fill:#ffffff;fill-opacity:1;fill-rule:nonzero;stroke:none;stroke-width:1.33333325"
         d="m 41.919997,69.844004 c 0,0 2.40934,-2.712 3.85467,-5.230667 1.444,-2.522666 2.02133,-4.944 2.02133,-4.944 0,0 2.40667,0.288 4.33334,0.677334 1.92666,0.386666 3.85066,0.966666 3.85066,0.966666 0,0 -2.792,3.198667 -6.164,5.432 -3.36933,2.225334 -7.896,3.098667 -7.896,3.098667"
         id="path349" /><path
         inkscape:connector-curvature="0"
         style="fill:#ffffff;fill-opacity:1;fill-rule:nonzero;stroke:none;stroke-width:1.33333325"
         d="m 37.110667,70.425337 c -6.26,0 -9.724,-10.952 -9.724,-10.952 0,0 6.16,-0.578666 9.52933,-0.578666 3.37067,0 9.33867,0.578666 9.33867,0.578666 0,0 -3.56133,10.952 -9.144,10.952"
         id="path347" /><path
         inkscape:connector-curvature="0"
         style="fill:#ffffff;fill-opacity:1;fill-rule:nonzero;stroke:none;stroke-width:1.33333325"
         d="m 24.206667,66.644004 c -4.62,-2.969333 -5.87333,-5.426667 -5.87333,-5.426667 0,0 1.92533,-0.58 3.468,-0.870666 1.54,-0.289334 4.044,-0.678667 4.044,-0.678667 0,0 0.67466,2.42 2.02133,4.748 1.34667,2.328 3.85067,5.426667 3.85067,5.426667 0,0 -4.044,-0.965334 -7.51067,-3.198667"
         id="path345" /><path
         inkscape:connector-curvature="0"
         style="fill:#ffffff;fill-opacity:1;fill-rule:nonzero;stroke:none;stroke-width:1.33333325"
         d="m 18.622667,65.674671 c -2.50133,-1.549334 -4.71733,-3.194667 -4.71733,-3.194667 l 2.504,-0.873333 c 0,0 1.63466,2.130666 2.59866,3.1 0.96267,0.968 4.62267,3.490666 4.62267,3.490666 -1.73467,-0.701333 -3.40933,-1.545333 -5.008,-2.522666"
         id="path343" /><path
         inkscape:connector-curvature="0"
         style="fill:#ffffff;fill-opacity:1;fill-rule:nonzero;stroke:none;stroke-width:1.33333325"
         d="M 4.854667,50.944004 C 0.714667,41.737338 1.485333,37.085338 1.485333,37.085338 l 6.354664,0.484 c 0,0 0.164,4.152 1.25067,8.530666 2.408,9.690667 6.356,14.149333 6.356,14.149333 l -2.98667,0.966667 c 0,0 -4.869331,-4.185333 -7.60533,-10.272"
         id="path341" /><path
         inkscape:connector-curvature="0"
         style="fill:#ffffff;fill-opacity:1;fill-rule:nonzero;stroke:none;stroke-width:1.33333325"
         d="m 4.950667,20.904005 c 3.37867,-6.633333 5.39067,-7.948 5.39067,-7.948 l 3.27333,1.065334 c 0,0 -2.69467,4.263999 -4.428,10.079999 -1.733334,5.816 -1.44533,11.822667 -1.44533,11.822667 L 1.388,35.440005 c 0,0 -0.289333,-6.978667 3.562667,-14.536"
         id="path339" /><path
         inkscape:connector-curvature="0"
         style="fill:#ffffff;fill-opacity:1;fill-rule:nonzero;stroke:none;stroke-width:1.33333325"
         d="m 15.446667,8.3040057 c 2.88667,-2.5199999 7.89467,-4.5559999 7.89467,-4.5559999 0,0 -3.08267,1.9386666 -5.58267,4.7506666 -2.50533,2.8093326 -3.17867,3.9733326 -3.17867,3.9733326 l -3.08133,-0.873333 c 0,0 2.14,-1.717333 3.948,-3.2946663"
         id="path337" /><path
         inkscape:connector-curvature="0"
         style="fill:#ffffff;fill-opacity:1;fill-rule:nonzero;stroke:none;stroke-width:1.33333325"
         d="m 27.866667,7.4320057 c -1.92533,3.7799993 -2.69733,6.2026663 -2.69733,6.2026663 l -2.472,-0.04 -3.08,-2.52 -1.76534,2.076 -1.73066,-0.290667 c 0,0 3.48666,-4.2359993 6.448,-6.4933326 6.35466,-4.8479999 10.30266,-4.7493332 10.30266,-4.7493332 0,0 -3.08133,2.0346666 -5.00533,5.8146665"
         id="path335" /><path
         inkscape:connector-curvature="0"
         style="fill:#ffffff;fill-opacity:1;fill-rule:nonzero;stroke:none;stroke-width:1.33333325"
         d="m 37.398667,1.3266725 c 1.444,0 4.524,2.4213333 5.872,4.3613333 1.34933,1.9386666 3.37067,7.5586662 3.37067,7.5586662 l -2.376,0.830667 -17.36134,-0.348 c 0,0 0.74,-3.724 3.656,-7.4613332 3.17867,-4.0693333 5.39334,-4.9413333 6.83867,-4.9413333"
         id="path333" /><path
         inkscape:connector-curvature="0"
         style="fill:#ffffff;fill-opacity:1;fill-rule:nonzero;stroke:none;stroke-width:1.33333325"
         d="m 50.971997,6.0746724 c 3.66,2.908 5.2,5.1373326 5.2,5.1373326 0,0 -2.02133,-0.09733 -3.56133,0.386667 -1.54133,0.485333 -4.42933,1.162667 -4.42933,1.162667 0,0 -0.96267,-2.518667 -1.82934,-4.4573333 -0.86666,-1.9373333 -4.33333,-6.2013332 -4.33333,-6.2013332 0,0 5.796,1.464 8.95333,3.9719999"
         id="path331" /><path
         inkscape:connector-curvature="0"
         style="fill:#ffffff;fill-opacity:1;fill-rule:nonzero;stroke:none;stroke-width:1.33333325"
         d="m 53.187997,36.700005 c 0,0 2.504,-3.974667 4.14,-7.56 1.64,-3.585333 2.6,-6.688 2.79334,-7.464 0.19066,-0.774667 0.38266,-2.422667 0.38266,-2.422667 0,0 2.12,6.108 2.60134,8.82 0.48133,2.713334 0.86666,8.237333 0.86666,8.237333 z"
         id="path329" /><path
         inkscape:connector-curvature="0"
         style="fill:#ffffff;fill-opacity:1;fill-rule:nonzero;stroke:none;stroke-width:1.33333325"
         d="m 50.587997,48.912004 c 0.67467,-4.555999 0.868,-9.402666 0.868,-9.402666 l 0.67467,-1.064 11.93867,-0.485333 c 0,0 0.0773,6.133333 -1.82934,11.629333 -2.79333,8.042666 -5.10266,10.274666 -5.10266,10.274666 0,0 -2.216,-0.68 -4.23734,-1.069333 -2.02133,-0.386667 -4.52266,-0.677334 -4.52266,-0.677334 0,0 1.53733,-4.650666 2.21066,-9.205333"
         id="path327" /><path
         inkscape:connector-curvature="0"
         style="fill:#ffffff;fill-opacity:1;fill-rule:nonzero;stroke:none;stroke-width:1.33333325"
         d="m 26.669337,50.988004 c 0,0 0.23466,-4.209333 3.604,-7.989333 3.36933,-3.78 6.416,-4.208 6.416,-4.208 v -3.886666 c 0,0 0.70933,-1.209334 0.99733,-1.790667 0.28933,-0.581333 0.41467,-2.422666 0.41467,-2.422666 v -5.273334 h -2.30934 v -1.944 h 2.396 v -2.513333 h 2.00934 v 2.490667 h 2.14133 v 1.990666 h -2.34267 v 5.153334 c 0,0 0.0973,1.355999 0.48134,2.325333 0.38666,0.969333 1.092,1.985333 1.092,1.985333 v 3.886667 c 0,0 1.98933,0.234666 3.916,1.396 1.928,1.162666 3.208,3.448 3.208,3.448 l 1.02933,-1.512 c 0,0 -0.58,5.719999 -1.24933,8.917333 -0.67467,3.197333 -1.63734,6.783999 -1.63734,6.783999 0,0 -4.91066,-0.579999 -9.82133,-0.579999 -4.90933,0 -10.10933,0.579999 -10.10933,0.579999 l -1.63734,-6.837333 z"
         id="path325" /><path
         inkscape:connector-curvature="0"
         style="fill:#ffffff;fill-opacity:1;fill-rule:nonzero;stroke:none;stroke-width:1.33333325"
         d="m 24.014667,30.304005 c 0,0 0.192,-4.070667 0.57867,-6.784 0.384,-2.714667 1.156,-6.105333 1.156,-6.105333 l 13.316,0.05733 c 0,0 -5.99867,3.916 -9.08134,6.629333 -3.08,2.714667 -5.96933,6.202667 -5.96933,6.202667"
         id="path323" /><path
         inkscape:connector-curvature="0"
         style="fill:#ffffff;fill-opacity:1;fill-rule:nonzero;stroke:none;stroke-width:1.33333325"
         d="m 21.349337,17.276002 2.76266,0.137334 c 0,0 -0.48133,2.325333 -0.77066,3.973333 -0.29067,1.648 -0.772,6.106666 -0.772,6.106666 z"
         id="path321" /><path
         inkscape:connector-curvature="0"
         style="fill:#ffffff;fill-opacity:1;fill-rule:nonzero;stroke:none;stroke-width:1.33333325"
         d="m 21.799997,56.566668 c 1.54134,-1.744 2.11867,-3.682667 2.11867,-3.682667 l 1.34667,5.233333 c 0,0 -1.82934,0.289334 -3.37067,0.582667 -1.53867,0.290667 -3.66933,0.648 -3.66933,0.648 0,0 2.03333,-1.037333 3.57466,-2.781333"
         id="path319" /><path
         inkscape:connector-curvature="0"
         style="fill:#ffffff;fill-opacity:1;fill-rule:nonzero;stroke:none;stroke-width:1.33333325"
         d="m 18.074667,19.021338 1.896,17.482667 -10.592,-0.482667 c 0,0 -0.39333,-2.134667 0.48267,-6.977333 1.73333,-9.594667 5.488,-14.632 5.488,-14.632 l 1.156,0.192 -1.31734,1.510667 z"
         id="path317" /><path
         inkscape:connector-curvature="0"
         style="fill:#ffffff;fill-opacity:1;fill-rule:nonzero;stroke:none;stroke-width:1.33333325"
         d="m 15.830667,58.021337 c 0,0 -4.42933,-6.493333 -5.68133,-14.149332 -0.32534,-1.988 -0.51734,-3.994667 -0.57734,-6.009334 l 9.91734,0.290667 c 0,0 -1.92534,4.166667 -2.69334,7.657333 -0.772,3.488 -1.06133,8.138667 -1.156,9.304 -0.0973,1.162667 0.19067,2.906666 0.19067,2.906666"
         id="path315" /><path
         inkscape:connector-curvature="0"
         style="fill:#ffffff;fill-opacity:1;fill-rule:nonzero;stroke:none;stroke-width:1.33333325"
         d="m 58.293337,8.109339 c 2.69466,2.036 3.65733,3.102666 3.65733,3.102666 l -3.08133,0.969334 c 0,0 -1.34667,-1.745334 -3.08134,-3.976 -1.732,-2.2293332 -6.256,-4.9413332 -6.256,-4.9413332 0,0 6.064,2.8106666 8.76134,4.8453332"
         id="path313" /></g></g></svg>