<?xml version="1.0" encoding="UTF-8" standalone="no"?>
<!-- Generator: Adobe Illustrator 22.1.0, SVG Export Plug-In . SVG Version: 6.00 Build 0)  -->

<svg
   xmlns:dc="http://purl.org/dc/elements/1.1/"
   xmlns:cc="http://creativecommons.org/ns#"
   xmlns:rdf="http://www.w3.org/1999/02/22-rdf-syntax-ns#"
   xmlns:svg="http://www.w3.org/2000/svg"
   xmlns="http://www.w3.org/2000/svg"
   xmlns:sodipodi="http://sodipodi.sourceforge.net/DTD/sodipodi-0.dtd"
   xmlns:inkscape="http://www.inkscape.org/namespaces/inkscape"
   version="1.1"
   id="fox-news-channel"
   x="0px"
   y="0px"
   viewBox="0 0 1889.7638 1889.7638"
   xml:space="preserve"
   sodipodi:docname="fox_news.svg"
   width="500mm"
   height="500mm"
   inkscape:version="0.92.4 (5da689c313, 2019-01-14)"><metadata
   id="metadata18"><rdf:RDF><cc:Work
       rdf:about=""><dc:format>image/svg+xml</dc:format><dc:type
         rdf:resource="http://purl.org/dc/dcmitype/StillImage" /><dc:title>fnc-primary</dc:title></cc:Work></rdf:RDF></metadata><defs
   id="defs16" /><sodipodi:namedview
   pagecolor="#ffffff"
   bordercolor="#666666"
   borderopacity="1"
   objecttolerance="10"
   gridtolerance="10"
   guidetolerance="10"
   inkscape:pageopacity="0"
   inkscape:pageshadow="2"
   inkscape:window-width="1920"
   inkscape:window-height="1017"
   id="namedview14"
   showgrid="false"
   inkscape:pagecheckerboard="true"
   units="mm"
   inkscape:zoom="0.19109312"
   inkscape:cx="617.5"
   inkscape:cy="617.5"
   inkscape:window-x="-8"
   inkscape:window-y="-8"
   inkscape:window-maximized="1"
   inkscape:current-layer="fox-news-channel" />
<style
   type="text/css"
   id="style2">
	.st0{fill:#003366;}
	.st1{fill:#C20017;}
	.st2{fill:#FFFFFF;}
</style>
<title
   id="title4">fnc-primary</title>
<g
   id="g11"
   transform="matrix(1.4689662,0,0,1.4689662,37.795276,37.795269)">
	<path
   id="bg-top"
   class="st0"
   d="M 0,0 H 1235 V 1001.7 H 0 Z"
   inkscape:connector-curvature="0"
   style="fill:#003366" />
	<path
   id="bg-bottom"
   class="st1"
   d="M 0,1015.4 H 1235 V 1235 H 0 Z"
   inkscape:connector-curvature="0"
   style="fill:#c20017" />
	<path
   id="kliegs"
   class="st2"
   d="m 1235,717 h -2.3 c -13.7,-33.6 -29.2,-66.4 -46.5,-98.3 h 15.2 c 12,23 23.2,46.3 33.6,70 z M 0,137.2 C 60.8,116.8 123.3,102.4 186.9,94.1 L 205,0 h 146.7 l -32.9,85.4 c 39.5,-0.1 78.9,2.2 118.1,6.9 L 482.6,0 H 643.8 L 567,116.6 c 101.9,26.4 198.9,68.8 287.3,125.7 17.6,11.3 34.7,23.2 51.3,35.5 H 882.3 C 784.6,209 675.1,158.4 559.2,128.7 l -93.9,145.7 h -67.4 v 99.2 L 231.6,644.9 h -53.2 v 90.7 L 8,1001.7 H 2.6 L 430.7,105.1 C 392,100.6 353,98.5 314.1,98.8 L 1.2,1001.7 H 0 M 0,985 183.9,108.3 C 121.6,117 60.3,131.8 0.8,152.3 H 0 m 8,849.4 z m -5.5,0 z M 637.4,0 Z"
   inkscape:connector-curvature="0"
   style="fill:#ffffff" />
	<path
   id="fox-news"
   class="st2"
   d="m 507.7,503.3 h 90.2 V 419 h -90.2 v -40.2 h 109.8 l -6,-84.5 H 415.9 v 309.4 h 91.8 z m 381.6,99.5 H 988 l 45,-75.9 46.1,76 h 101 l -97.4,-160.3 87.7,-147.8 h -100 L 1032.7,359 993.6,294.6 H 891.9 l 90.3,148.7 z m -114.8,3.4 c 87.3,1.2 159.1,-68.4 160.6,-155.7 -3.7,-88.8 -78.6,-157.8 -167.5,-154.2 -83.7,3.5 -150.7,70.5 -154.2,154.2 1.4,87.4 73.4,157.1 160.8,155.7 z M 746.1,382.6 c 0.1,-15.3 12.2,-27.7 27.4,-28.4 15.7,0.3 28.4,12.8 29,28.4 v 131.3 c -1.1,15.6 -14.6,27.3 -30.2,26.2 -14.1,-1 -25.2,-12.2 -26.2,-26.2 V 382.6 Z M 528.6,834.7 H 622 v -61.9 h -93.4 v -42.1 h 113.8 v -67 H 456.5 V 953 H 643.8 V 883.4 H 528.6 Z m 402,-171 -35.8,165.6 -35,-165.6 H 798 L 764.7,831 730,663.7 H 656.3 L 723.2,953 h 67.2 L 823.3,787.2 857.2,953 H 923 l 67.2,-289.3 z m 244,130.7 c -19.2,-17.7 -41.2,-22.4 -65.9,-29.4 -29.2,-8.2 -45.3,-9.1 -45.3,-26.1 1.2,-12.6 12.4,-21.8 25,-20.6 0.1,0 0.2,0 0.2,0 18.6,-1.5 35.6,10.8 39.9,29 l 63.1,-21 c -11.7,-44 -52.5,-73.9 -98,-71.9 -65.9,0 -106.2,40.5 -106.2,95 0,47.1 27.4,70.3 82.3,86.7 32.8,9.9 50.2,9.1 50.2,30.2 0,11.1 -10.3,19.8 -27.4,19.8 -22.6,2.6 -43.2,-12.9 -47.1,-35.3 L 976.2,866 c 11.8,54.9 52.7,87.5 115.4,87.5 31,0.8 60.9,-11.5 82.3,-33.9 15.8,-17.4 24.5,-40.1 24.3,-63.7 1.3,-23 -7.4,-45.4 -23.7,-61.6 h 0.1 z M 366.7,808.9 280.5,665 h -83.6 v 288.2 h 73.4 V 784.8 l 98.4,168 h 69.6 V 664.6 h -71.4 z"
   inkscape:connector-curvature="0"
   style="fill:#ffffff" />
	<path
   id="channel"
   class="st2"
   d="m 118.7,1114.7 c 7.9,-1.4 15.7,3.1 18.5,10.6 h 41.2 c -2.6,-19.5 -24.7,-31.1 -59.1,-31.1 -39.4,0.5 -64.4,17.4 -64.4,44.9 0,25 24.6,41.2 61.9,41.2 34.4,0 56.9,-11.9 61.1,-32.2 h -40.6 c -2.3,7.8 -8.8,11.7 -19.3,11.7 -13.7,0 -21.1,-7.3 -21.1,-21.8 0,-14.5 7.7,-23.3 21.8,-23.3 z m 400.7,47.2 v -30.3 c 1.6,-9.4 -1.5,-19 -8.2,-25.7 -13.8,-8.3 -29.9,-12 -46,-10.4 -35.5,0 -54.9,8.6 -58.9,27.4 H 444 c 1.6,-5.9 8.5,-9.1 20.3,-9.1 11.8,0 16.2,2.5 16.2,7.1 v 1.9 c 0,6.2 -15.5,4.9 -44.5,9.3 -22.1,3.3 -33.2,11.5 -33.2,24.8 0,13.3 14.5,23.1 39.1,23.1 14,0.4 27.9,-3.4 39.8,-10.8 0.4,2.8 1.1,5.6 2.1,8.2 H 525 v -3 c -3.6,-1.4 -5.5,-5.6 -5.5,-12.8 z M 480.3,1149 c 0,8.5 -9.9,13.7 -23.7,13.7 -9.2,0 -15.1,-4 -15.1,-9.5 0,-5.5 4.3,-7.3 13.7,-8.9 8.5,-0.8 16.9,-2.3 25.1,-4.5 z M 665,1095.6 c -13.9,-1.2 -27.6,3.5 -37.9,12.9 v -10.7 h -39.8 v 80 h 41.2 v -43 c 0,-13.7 5.9,-19.3 20.7,-19.3 14.8,0 17.2,7.1 17.2,21.8 v 40.2 h 41.2 v -52.3 c -0.5,-20.2 -11.8,-29.6 -42.1,-29.6 z m -356,1.1 c -13.9,-1 -27.7,3.5 -38.4,12.5 v -38.8 h -41.2 v 108.4 h 41.2 v -42.7 c 0,-13.7 5.9,-19.3 20.7,-19.3 14.8,0 17.2,7.1 17.2,21.8 v 40.2 h 41.2 v -54.9 c 0,-17.8 -14.1,-27.2 -40.3,-27.2 z m 548.9,-1.1 c -13.9,-1.2 -27.6,3.5 -37.9,12.9 v -10.7 h -39.1 v 80 h 41.2 v -43 c 0,-13.7 5.9,-19.3 20.7,-19.3 14.8,0 17.2,7.1 17.2,21.8 v 40.2 h 41.2 v -52.3 c -0.5,-20.2 -11.9,-29.6 -42.3,-29.6 z m 160,-0.8 c -38.1,0 -62.8,16.3 -62.8,43.1 0,26.8 25.2,42.3 63.8,42.3 32,0 54.9,-10.2 61.8,-27.4 h -39.4 c -2.9,5.8 -9.9,8.8 -21,8.8 -14.5,0 -22.4,-6 -22.4,-17.3 h 84.5 c 0.1,-1.6 0.1,-3.1 0,-4.7 0.3,-28 -24.2,-44.7 -63.5,-44.7 z m -22.1,34.1 c 1.6,-10.7 10.2,-16.5 23.3,-16.5 13.1,0 23.1,6 23.3,16.5 z m 143.1,-58.6 v 108.4 h 41.2 v -108.4 z"
   inkscape:connector-curvature="0"
   style="fill:#ffffff" />
</g>
</svg>