<?xml version="1.0" encoding="UTF-8" standalone="no"?>
<!-- Created with Inkscape (http://www.inkscape.org/) -->

<svg
   xmlns:dc="http://purl.org/dc/elements/1.1/"
   xmlns:cc="http://creativecommons.org/ns#"
   xmlns:rdf="http://www.w3.org/1999/02/22-rdf-syntax-ns#"
   xmlns:svg="http://www.w3.org/2000/svg"
   xmlns="http://www.w3.org/2000/svg"
   xmlns:xlink="http://www.w3.org/1999/xlink"
   xmlns:sodipodi="http://sodipodi.sourceforge.net/DTD/sodipodi-0.dtd"
   xmlns:inkscape="http://www.inkscape.org/namespaces/inkscape"
   width="500mm"
   height="500mm"
   id="svg2"
   sodipodi:version="0.32"
   inkscape:version="0.92.4 (5da689c313, 2019-01-14)"
   version="1.0"
   inkscape:output_extension="org.inkscape.output.svg.inkscape"
   sodipodi:docname="france24.svg">
  <metadata
     id="metadata25">
    <rdf:RDF>
      <cc:Work
         rdf:about="">
        <dc:format>image/svg+xml</dc:format>
        <dc:type
           rdf:resource="http://purl.org/dc/dcmitype/StillImage" />
        <dc:title></dc:title>
      </cc:Work>
    </rdf:RDF>
  </metadata>
  <defs
     id="defs23" />
  <sodipodi:namedview
     pagecolor="#ffffff"
     bordercolor="#666666"
     borderopacity="1"
     objecttolerance="10"
     gridtolerance="10"
     guidetolerance="10"
     inkscape:pageopacity="0"
     inkscape:pageshadow="2"
     inkscape:window-width="1920"
     inkscape:window-height="1017"
     id="namedview21"
     showgrid="false"
     units="mm"
     inkscape:pagecheckerboard="true"
     inkscape:zoom="0.21070354"
     inkscape:cx="1010.4802"
     inkscape:cy="149.95714"
     inkscape:window-x="-8"
     inkscape:window-y="-8"
     inkscape:window-maximized="1"
     inkscape:current-layer="layer1" />
  <g
     inkscape:label="Layer 1"
     inkscape:groupmode="layer"
     id="layer1"
     transform="translate(-391.11415,1316.2034)">
    <g
       id="g8315"
       clip-path="url(#id273)"
       transform="matrix(1,0,0,-1,3.335611,855.3713)">
      <g
         id="g8317"
         transform="matrix(7.6449432,0,0,7.9367218,266.3172,448.89307)">
        <use
           id="use8319"
           xlink:href="#id274"
           x="0"
           y="0"
           width="744.09448"
           height="1052.3622" />
      </g>
    </g>
    <g
       id="g15821"
       clip-path="url(#id401)"
       transform="matrix(1,0,0,-1,3.335611,855.3713)">
      <g
         id="g15823"
         transform="matrix(9.3100739,0,0,9.3100739,373.32361,306.15338)">
        <use
           id="use15825"
           xlink:href="#id402"
           x="0"
           y="0"
           width="744.09448"
           height="1052.3622" />
      </g>
    </g>
    <g
       id="g19059"
       clip-path="url(#id624)"
       transform="matrix(92.220546,0,0,-92.220546,-56356.186,38767.959)">
      <g
         id="g19061"
         transform="translate(623.3562,415.1355)">
        <path
           id="path19063"
           d="m 0,0 c 1.82,0.009 3.955,0.254 6.197,0.756 2.144,0.479 4.174,1.148 5.872,1.931 V 18.548 H -7.603 V 0 H 0"
           style="fill:#ffffff;fill-rule:nonzero;stroke:none"
           inkscape:connector-curvature="0" />
      </g>
      <g
         id="g19065"
         transform="translate(625.1545,422.3031)">
        <path
           id="path19067"
           d="M 0,0 C 0.444,-0.282 1.662,-0.276 2.96,0.014 4.578,0.376 5.81,1.051 5.706,1.518 5.689,1.596 5.633,1.665 5.541,1.723 5.096,2.005 3.879,2 2.581,1.709 1.283,1.419 0.179,0.905 -0.103,0.461 -0.162,0.368 -0.183,0.282 -0.165,0.205 -0.148,0.127 -0.092,0.058 0,0"
           style="fill:#54b7ea;fill-rule:nonzero;stroke:none"
           inkscape:connector-curvature="0" />
      </g>
      <g
         id="g19069"
         transform="translate(622.9053,422.2846)">
        <path
           id="path19071"
           d="m 0,0 c 0.01,0.007 0.023,0.005 0.03,-0.005 0.007,-0.01 0.006,-0.023 -0.004,-0.031 -0.506,-0.407 -0.736,-0.795 -0.663,-1.121 0.039,-0.173 0.161,-0.326 0.364,-0.454 0.906,-0.575 3.314,-0.58 5.853,-0.011 3.209,0.718 5.642,2.095 5.424,3.07 C 10.93,1.774 10.559,2.027 9.927,2.18 9.915,2.183 9.907,2.194 9.91,2.206 9.913,2.217 9.923,2.225 9.935,2.223 10.972,2.067 11.577,1.728 11.686,1.245 11.734,1.029 11.678,0.794 11.522,0.546 10.861,-0.495 8.529,-1.617 5.72,-2.246 2.909,-2.875 0.321,-2.854 -0.721,-2.193 -0.969,-2.036 -1.119,-1.847 -1.167,-1.631 -1.275,-1.148 -0.872,-0.584 0,0 M 4.798,1.869 C 6.768,2.31 8.485,2.16 8.625,1.533 8.652,1.413 8.621,1.283 8.535,1.146 8.169,0.571 6.872,-0.052 5.307,-0.402 3.337,-0.842 1.62,-0.692 1.479,-0.066 1.339,0.56 2.828,1.428 4.798,1.869 m -7.83,-4.884 c 0.061,-0.272 0.253,-0.513 0.57,-0.714 1.374,-0.871 4.801,-0.897 8.527,-0.063 2.625,0.588 4.975,1.507 6.455,2.524 V 11.399 H -7.152 V -7.149 h 2.791 c -0.617,0.339 -0.988,0.76 -1.099,1.255 -0.023,0.104 -0.035,0.21 -0.035,0.318 0,0.454 0.205,0.939 0.614,1.448 0.007,0.01 0.02,0.012 0.03,0.005 0.009,-0.006 0.013,-0.019 0.007,-0.029 -0.23,-0.399 -0.307,-0.776 -0.229,-1.123 0.27,-1.206 2.359,-1.861 5.328,-1.874 h 0.196 c 1.82,0.009 3.955,0.254 6.197,0.756 2.144,0.479 4.173,1.148 5.872,1.931 v 2.284 c -1.593,-0.961 -3.824,-1.794 -6.291,-2.348 -3.937,-0.88 -7.588,-0.835 -9.084,0.114 -0.366,0.233 -0.587,0.512 -0.659,0.831 -0.114,0.508 0.169,1.097 0.816,1.704 0.009,0.008 0.022,0.008 0.031,0 0.008,-0.008 0.009,-0.021 0.002,-0.031 -0.319,-0.398 -0.442,-0.771 -0.367,-1.107"
           style="fill:#54b7ea;fill-rule:nonzero;stroke:none"
           inkscape:connector-curvature="0" />
      </g>
      <g
         id="g19073"
         transform="translate(623.7293,430.1113)">
        <path
           id="path19075"
           d="M 0,0 0.274,0.966 0.559,0 Z M -0.168,1.779 -1.135,-0.92 h 0.866 l 0.101,0.359 H 0.711 L 0.816,-0.92 H 1.697 L 0.732,1.779 Z m -6,-2.699 h 0.885 v 0.915 h 0.969 v 0.63 h -0.969 v 0.526 h 1.217 v 0.63 H -6.168 Z M 9.948,1.151 v 0.63 H 7.719 V -0.92 h 2.229 v 0.631 H 8.605 V 0.116 H 9.719 V 0.745 H 8.605 V 1.151 Z M -2.394,0.618 h -0.509 v 0.54 h 0.509 c 0.178,0 0.265,-0.089 0.265,-0.269 0,-0.181 -0.087,-0.271 -0.265,-0.271 m 1.053,0.25 c 0,0.588 -0.355,0.911 -1,0.911 H -3.719 V -0.92 h 0.816 v 0.917 h 0.287 c 0.037,-0.071 0.471,-0.917 0.471,-0.917 h 0.884 c 0,0 -0.5,0.932 -0.573,1.062 0.301,0.123 0.493,0.399 0.493,0.726 m 7.435,-1.179 c -0.388,0 -0.513,0.377 -0.513,0.741 0,0.363 0.125,0.741 0.513,0.741 0.344,0 0.42,-0.299 0.435,-0.397 h 0.81 C 7.266,1.451 6.859,1.84 6.117,1.844 5.286,1.844 4.748,1.28 4.748,0.43 c 0,-0.798 0.496,-1.413 1.369,-1.413 0.791,0 1.233,0.578 1.233,1.121 H 6.534 C 6.484,-0.115 6.374,-0.311 6.094,-0.311 M 3.564,0.336 H 3.556 L 2.77,1.779 H 1.918 V -0.92 H 2.706 V 0.555 H 2.713 L 3.54,-0.92 H 4.35 V 1.779 H 3.564 V 0.336"
           style="fill:#ffffff;fill-rule:nonzero;stroke:none"
           inkscape:connector-curvature="0" />
      </g>
      <g
         id="g19077"
         transform="translate(623.249,426.1831)">
        <path
           id="path19079"
           d="M 0,0 H -1.082 L 0,1.241 Z M 1.323,0 V 2.469 H 0.057 L -1.967,0.114 v -0.992 h -1.925 v 0.006 c 0.834,0.51 1.94,0.865 1.94,2 0,0.94 -0.731,1.391 -1.806,1.391 -1.191,0 -1.947,-0.699 -1.877,-1.915 h 1.195 c -0.013,0.542 0.16,0.911 0.669,0.911 0.298,0 0.534,-0.141 0.534,-0.542 0,-0.324 -0.37,-0.501 -0.598,-0.642 -0.566,-0.343 -1.202,-0.682 -1.572,-1.197 -0.216,-0.298 -0.344,-0.667 -0.318,-1.094 h 3.837 v 0.878 H 0 V -1.96 h 1.323 v 0.878 H 1.922 V 0 H 1.323"
           style="fill:#ffffff;fill-rule:nonzero;stroke:none"
           inkscape:connector-curvature="0" />
      </g>
    </g>
  </g>
</svg>
