<?xml version="1.0" encoding="UTF-8" standalone="no"?>
<svg
   xmlns:dc="http://purl.org/dc/elements/1.1/"
   xmlns:cc="http://creativecommons.org/ns#"
   xmlns:rdf="http://www.w3.org/1999/02/22-rdf-syntax-ns#"
   xmlns:svg="http://www.w3.org/2000/svg"
   xmlns="http://www.w3.org/2000/svg"
   xmlns:sodipodi="http://sodipodi.sourceforge.net/DTD/sodipodi-0.dtd"
   xmlns:inkscape="http://www.inkscape.org/namespaces/inkscape"
   width="500mm"
   height="500mm"
   viewBox="0 0 1417.3229 1417.3228"
   version="1.1"
   id="svg8"
   sodipodi:docname="gol.svg"
   inkscape:version="0.92.4 (5da689c313, 2019-01-14)">
  <metadata
     id="metadata14">
    <rdf:RDF>
      <cc:Work
         rdf:about="">
        <dc:format>image/svg+xml</dc:format>
        <dc:type
           rdf:resource="http://purl.org/dc/dcmitype/StillImage" />
        <dc:title />
      </cc:Work>
    </rdf:RDF>
  </metadata>
  <defs
     id="defs12" />
  <sodipodi:namedview
     pagecolor="#ffffff"
     bordercolor="#666666"
     borderopacity="1"
     objecttolerance="10"
     gridtolerance="10"
     guidetolerance="10"
     inkscape:pageopacity="0"
     inkscape:pageshadow="2"
     inkscape:window-width="1920"
     inkscape:window-height="1017"
     id="namedview10"
     showgrid="false"
     units="mm"
     inkscape:zoom="0.21273128"
     inkscape:cx="-1079.5031"
     inkscape:cy="-104.63838"
     inkscape:window-x="-8"
     inkscape:window-y="-8"
     inkscape:window-maximized="1"
     inkscape:current-layer="svg8" />
  <g
     id="#a52b31ff"
     transform="matrix(7.7738528,0,0,7.7738528,22.724266,569.10836)">
    <path
       d="M 2.49,25.38 C -2.68,15.87 4.12,2.71 14.77,1.17 30.65,1.11 46.59,0.83 62.45,1.32 61.01,3.73 59.62,6.16 58.26,8.62 51.13,8.75 43.99,8.64 36.86,8.66 33.14,14.93 29.58,21.29 26,27.63 c 2.41,-0.02 4.95,0.41 7.3,-0.17 2.62,-4.69 5.19,-9.49 8.09,-13.98 7.13,-0.24 14.42,0.33 21.46,-0.28 1.94,-7.5 9.54,-12.76 17.16,-12.56 8.66,0.02 17.32,0.01 25.98,0 8.03,0.1 16.52,5.07 18.32,13.33 3.04,-3.98 5.24,-8.66 7.66,-13.07 9.24,-0.59 18.62,-0.09 27.91,-0.25 -3.8,6.03 -7.09,12.36 -10.7,18.5 -0.81,1.48 -1.92,2.84 -2.2,4.55 9.59,-0.03 19.18,0.06 28.77,-0.05 -1.88,4.01 -4.17,7.88 -6.57,11.61 -11.09,-0.05 -22.18,0.01 -33.27,-0.03 -5.55,-0.97 -9.98,-5.35 -12.04,-10.46 -1.34,1.13 -1.91,2.83 -3.02,4.13 -3.57,4.32 -9.28,6.64 -14.84,6.35 -8.67,-0.16 -17.4,0.29 -26.04,-0.23 -8.01,-0.72 -16.36,-5.6 -17.78,-14.1 -2.7,4.44 -5.22,9 -7.76,13.53 -0.3,0.21 -0.9,0.63 -1.2,0.85 -10.77,-0.14 -21.54,0 -32.31,-0.07 -6.96,-0.88 -15,-3.07 -18.43,-9.85 m 82.94,-1.01 c -0.52,1.06 -1.56,2.09 -1.32,3.36 2.18,-0.05 4.37,0.07 6.56,-0.09 3.87,-6.52 7.73,-13.18 11.32,-19.89 -2.34,-0.19 -4.7,-0.09 -7.05,-0.04 -3.16,5.55 -6.31,11.12 -9.51,16.66 z"
       id="path5"
       inkscape:connector-curvature="0"
       style="opacity:1;fill:#a52b31" />
  </g>
</svg>
