<?xml version="1.0" encoding="UTF-8" standalone="no"?>
<!-- Generator: Adobe Illustrator 21.1.0, SVG Export Plug-In . SVG Version: 6.00 Build 0)  -->

<svg
   xmlns:dc="http://purl.org/dc/elements/1.1/"
   xmlns:cc="http://creativecommons.org/ns#"
   xmlns:rdf="http://www.w3.org/1999/02/22-rdf-syntax-ns#"
   xmlns:svg="http://www.w3.org/2000/svg"
   xmlns="http://www.w3.org/2000/svg"
   xmlns:xlink="http://www.w3.org/1999/xlink"
   xmlns:sodipodi="http://sodipodi.sourceforge.net/DTD/sodipodi-0.dtd"
   xmlns:inkscape="http://www.inkscape.org/namespaces/inkscape"
   version="1.1"
   id="Capa_1"
   x="0px"
   y="0px"
   viewBox="0 0 1889.7637 1889.7637"
   xml:space="preserve"
   sodipodi:docname="hd_antena3.svg"
   width="500mm"
   height="500mm"
   inkscape:version="0.92.4 (5da689c313, 2019-01-14)"><metadata
   id="metadata17"><rdf:RDF><cc:Work
       rdf:about=""><dc:format>image/svg+xml</dc:format><dc:type
         rdf:resource="http://purl.org/dc/dcmitype/StillImage" /><dc:title /></cc:Work></rdf:RDF></metadata><defs
   id="defs15">
<linearGradient
   inkscape:collect="always"
   xlink:href="#linearGradient2367"
   id="linearGradient2355"
   x1="1687.0757"
   y1="1680.0857"
   x2="1378.3104"
   y2="1369.6112"
   gradientUnits="userSpaceOnUse"
   gradientTransform="matrix(1.0959189,0,0,1.1013931,-198.01018,-203.48459)" /><linearGradient
   id="linearGradient2367"
   inkscape:collect="always"><stop
     id="stop2363"
     offset="0"
     style="stop-color:#b5cbdb;stop-opacity:1" /><stop
     id="stop2365"
     offset="1"
     style="stop-color:#fafafa;stop-opacity:0.50196081" /></linearGradient><filter
   inkscape:collect="always"
   style="color-interpolation-filters:sRGB"
   id="filter3369"
   x="-0.012000175"
   width="1.0240003"
   y="-0.011999825"
   height="1.0239997"><feGaussianBlur
     inkscape:collect="always"
     stdDeviation="5.1926353"
     id="feGaussianBlur3371" /></filter></defs><sodipodi:namedview
   pagecolor="#ffffff"
   bordercolor="#666666"
   borderopacity="1"
   objecttolerance="10"
   gridtolerance="10"
   guidetolerance="10"
   inkscape:pageopacity="0"
   inkscape:pageshadow="2"
   inkscape:window-width="1920"
   inkscape:window-height="1017"
   id="namedview13"
   showgrid="false"
   units="mm"
   inkscape:zoom="0.31968812"
   inkscape:cx="1882.0422"
   inkscape:cy="1155.448"
   inkscape:window-x="-8"
   inkscape:window-y="-8"
   inkscape:window-maximized="1"
   inkscape:current-layer="Capa_1" />
<style
   type="text/css"
   id="style2">
	.st0{fill:#FF7328;}
</style>
<path
   style="opacity:1;fill:url(#linearGradient2355);fill-opacity:1;stroke:none;stroke-width:7.55905533;stroke-miterlimit:4;stroke-dasharray:none;stroke-opacity:1;filter:url(#filter3369)"
   inkscape:transform-center-x="169.4141"
   inkscape:transform-center-y="-0.69622776"
   d="m 1876.9659,838.75924 0.3356,1038.33096 -1038.51194,0.2112 C 1304.6053,1632.379 1667.2142,1298.7208 1876.9659,838.75924 Z"
   id="path2346"
   inkscape:connector-curvature="0"
   sodipodi:nodetypes="cccc"
   transform="matrix(0.71081394,0,0,-0.71079368,527.59568,1362.1297)" /><g
   id="g10"
   transform="matrix(5.981446,0,0,5.981446,37.795598,164.77238)">
	<path
   class="st0"
   d="m 65.1,142.6 c 22,-36.5 42.6,-73.8 67,-108.8 4.9,-7 9.9,-13.9 13.8,-21.5 2.3,-4.5 1.7,-8 -1.4,-10.3 -3.1,-2.3 -7.1,-2.2 -9.8,-1.9 C 67.5,5.5 0.6,50.4 0,115.1 c 0.2,23.6 13.4,52.2 24.1,59.7 8.1,5.7 15.2,4.9 23.3,-4.9 6.9,-8.4 12.1,-18 17.7,-27.3 z"
   id="path4"
   inkscape:connector-curvature="0"
   style="fill:#ff7328" />
	<path
   class="st0"
   d="m 255.9,169.9 c 8,9.8 15.2,10.5 23.3,4.9 10.8,-7.5 23.9,-36.1 24.1,-59.7 C 302.7,50.4 235.9,5.5 168.8,0.1 166.1,-0.2 162.1,-0.2 159,2 c -3.1,2.3 -3.7,5.8 -1.4,10.3 3.9,7.6 8.9,14.5 13.8,21.5 24.4,35 45,72.3 67,108.8 5.5,9.3 10.6,18.9 17.5,27.3 z"
   id="path6"
   inkscape:connector-curvature="0"
   style="fill:#ff7328" />
	<path
   class="st0"
   d="m 164.3,114.8 c -6.3,-1 -11.2,-1 -12.6,-1.1 v 0 c -1.4,0 -6.3,0.1 -12.6,1.1 -36.9,5.5 -62.5,26.3 -78.4,59.3 -8.1,16.9 -4.5,28.5 10.1,40 0.9,0.7 1.7,1.3 2.6,2 2.7,1.8 5.3,3.5 7.9,5.2 38.2,25 52.2,33.8 57.9,36.4 2.3,1.1 6.5,3.1 12.2,3.2 v 0 c 0.1,0 0.2,0 0.3,0 0.1,0 0.2,0 0.3,0 v 0 c 5.7,-0.1 9.8,-2.1 12.2,-3.2 5.6,-2.6 19.6,-11.5 57.9,-36.4 2.6,-1.7 5.2,-3.4 7.9,-5.2 0.9,-0.7 1.7,-1.3 2.6,-2 14.6,-11.5 18.2,-23.1 10.1,-40 -15.9,-33 -41.5,-53.8 -78.4,-59.3 z"
   id="path8"
   inkscape:connector-curvature="0"
   style="fill:#ff7328" />
</g>
<text
   xml:space="preserve"
   style="font-style:normal;font-weight:normal;font-size:333.33334351px;line-height:1.25;font-family:sans-serif;letter-spacing:0px;word-spacing:0px;fill:#000000;fill-opacity:1;stroke:#d5e2eb;stroke-width:13.22834682;stroke-miterlimit:4;stroke-dasharray:none;stroke-opacity:1"
   x="1300.8665"
   y="327.51651"
   id="text854"><tspan
     sodipodi:role="line"
     id="tspan852"
     x="1300.8665"
     y="327.51651"
     style="font-style:normal;font-variant:normal;font-weight:bold;font-stretch:normal;font-family:sans-serif;-inkscape-font-specification:'sans-serif Bold';letter-spacing:-25.87000084px;stroke:#d5e2eb;stroke-width:13.22834682;stroke-miterlimit:4;stroke-dasharray:none;stroke-opacity:1"
     dx="0">HD</tspan></text>
</svg>