<?xml version="1.0" encoding="UTF-8" standalone="no"?>
<!-- Created with Inkscape (http://www.inkscape.org/) -->

<svg
   xmlns:dc="http://purl.org/dc/elements/1.1/"
   xmlns:cc="http://creativecommons.org/ns#"
   xmlns:rdf="http://www.w3.org/1999/02/22-rdf-syntax-ns#"
   xmlns:svg="http://www.w3.org/2000/svg"
   xmlns="http://www.w3.org/2000/svg"
   xmlns:xlink="http://www.w3.org/1999/xlink"
   xmlns:sodipodi="http://sodipodi.sourceforge.net/DTD/sodipodi-0.dtd"
   xmlns:inkscape="http://www.inkscape.org/namespaces/inkscape"
   version="1.0"
   width="500mm"
   height="500mm"
   id="svg2"
   inkscape:version="0.92.4 (5da689c313, 2019-01-14)"
   sodipodi:docname="hd_barca_tv.svg">
  <metadata
     id="metadata44">
    <rdf:RDF>
      <cc:Work
         rdf:about="">
        <dc:format>image/svg+xml</dc:format>
        <dc:type
           rdf:resource="http://purl.org/dc/dcmitype/StillImage" />
        <dc:title />
      </cc:Work>
    </rdf:RDF>
  </metadata>
  <sodipodi:namedview
     pagecolor="#ffffff"
     bordercolor="#666666"
     borderopacity="1"
     objecttolerance="10"
     gridtolerance="10"
     guidetolerance="10"
     inkscape:pageopacity="0"
     inkscape:pageshadow="2"
     inkscape:window-width="1920"
     inkscape:window-height="1017"
     id="namedview42"
     showgrid="false"
     inkscape:zoom="0.44873333"
     inkscape:cx="865.6325"
     inkscape:cy="1115.9544"
     inkscape:window-x="-8"
     inkscape:window-y="-8"
     inkscape:window-maximized="1"
     inkscape:current-layer="svg2"
     units="mm" />
  <defs
     id="defs4">
    <linearGradient
       inkscape:collect="always"
       xlink:href="#linearGradient2367"
       id="linearGradient2355"
       x1="1687.0757"
       y1="1680.0857"
       x2="1378.3104"
       y2="1369.6112"
       gradientUnits="userSpaceOnUse"
       gradientTransform="matrix(1.0959189,0,0,1.1013931,-198.01018,-203.48459)" />
    <linearGradient
       id="linearGradient2367"
       inkscape:collect="always">
      <stop
         id="stop2363"
         offset="0"
         style="stop-color:#b5cbdb;stop-opacity:1" />
      <stop
         id="stop2365"
         offset="1"
         style="stop-color:#fafafa;stop-opacity:0.50196081" />
    </linearGradient>
    <filter
       inkscape:collect="always"
       style="color-interpolation-filters:sRGB"
       id="filter3369"
       x="-0.012000175"
       width="1.0240003"
       y="-0.011999825"
       height="1.0239997">
      <feGaussianBlur
         inkscape:collect="always"
         stdDeviation="5.1926353"
         id="feGaussianBlur3371" />
    </filter>
  </defs>
  <path
     style="opacity:1;fill:url(#linearGradient2355);fill-opacity:1;stroke:none;stroke-width:7.55905533;stroke-miterlimit:4;stroke-dasharray:none;stroke-opacity:1;filter:url(#filter3369)"
     inkscape:transform-center-x="169.4141"
     inkscape:transform-center-y="-0.69622776"
     d="m 1876.9659,838.75924 0.3356,1038.33096 -1038.51194,0.2112 C 1304.6053,1632.379 1667.2142,1298.7208 1876.9659,838.75924 Z"
     id="path2346"
     inkscape:connector-curvature="0"
     sodipodi:nodetypes="cccc"
     transform="matrix(0.71081394,0,0,-0.71079368,527.59568,1362.1297)" />
  <g
     transform="matrix(13.052141,0,0,13.052141,-1439.4268,-1187.413)"
     id="layer1">
    <g
       transform="matrix(0.1892724,0,0,0.1892724,111.6987,62.603897)"
       id="g2427">
      <g
         transform="translate(2.485175,13.595533)"
         id="g2263">
        <g
           id="g2279">
          <path
             d="m 74.6435,174.44821 c 50.0818,21.98307 132.2789,19.3802 187.4109,-22.22809 77.08987,56.48399 151.28431,50.68553 222.02669,0 47.16461,34.09185 119.77954,48.64791 187.91574,22.94356 l 30.54517,42.43955 c -79.64887,106.44425 -50.16569,208.1908 31.98765,297.73192 l -34.49754,34.97923 c 7.81483,229.58055 -169.99805,284.39319 -272.10249,290.08406 l -54.89653,44.91474 -54.48678,-44.24552 C 136.2595,825.32542 40.0155,729.15858 45.9697,550.90381 L 10.5,515.06777 C 79.804395,440.10464 131.8824,337.67107 42.855,217.5801 Z"
             id="path2239"
             style="fill:#000000;fill-opacity:1;fill-rule:evenodd;stroke:#000000;stroke-width:1px;stroke-linecap:butt;stroke-linejoin:miter;stroke-opacity:1"
             inkscape:connector-curvature="0" />
          <path
             d="M 78.793674,546.28135 H 665.34314 c 15.41589,162.31066 -87.70535,249.97878 -244.51339,258.59808 l -99.64274,0.2519 C 171.16375,794.34673 59.391894,715.13788 78.793674,546.28135 Z"
             id="path5105"
             style="fill:#004d98;fill-opacity:1;fill-rule:evenodd;stroke:none"
             inkscape:connector-curvature="0" />
          <rect
             width="83.085953"
             height="259.36292"
             x="331.65045"
             y="548.23254"
             id="rect6076"
             style="fill:#a50044;fill-opacity:1;fill-rule:nonzero;stroke:none" />
          <g
             transform="translate(-0.132)"
             id="g6100">
            <rect
               width="83.085953"
               height="231.79605"
               x="166.4175"
               y="548.23254"
               id="rect6088"
               style="fill:#a50044;fill-opacity:1;fill-rule:nonzero;stroke:none" />
            <rect
               width="54.117386"
               height="23.876505"
               x="195.38606"
               y="768.1521"
               id="rect6092"
               style="fill:#a50044;fill-opacity:1;fill-rule:nonzero;stroke:none" />
          </g>
          <g
             transform="translate(-0.132)"
             id="g6096">
            <rect
               width="83.085953"
               height="231.79605"
               x="496.20349"
               y="548.23254"
               id="rect6090"
               style="fill:#a50044;fill-opacity:1;fill-rule:nonzero;stroke:none" />
            <rect
               width="54.117386"
               height="23.876505"
               x="496.20349"
               y="768.1521"
               id="rect6094"
               style="fill:#a50044;fill-opacity:1;fill-rule:nonzero;stroke:none" />
          </g>
          <path
             d="M 370.49148,228.07936 V 458.45324 L 90.4986,460.47851 119.35863,349.59525 83.41017,216.9404 260.62086,194.15617 Z"
             id="path4130"
             style="fill:#ffffff;fill-opacity:1;fill-rule:evenodd;stroke:none;stroke-width:1px;stroke-linecap:butt;stroke-linejoin:miter;stroke-opacity:1"
             inkscape:connector-curvature="0" />
          <path
             d="M 374.54201,228.07936 V 458.45324 L 654.53489,460.47851 625.67486,349.59525 661.62332,216.9404 484.41263,194.15617 Z"
             id="path2187"
             style="fill:#ffed02;fill-opacity:1;fill-rule:evenodd;stroke:none"
             inkscape:connector-curvature="0" />
          <rect
             width="80.278473"
             height="256.30661"
             x="208.7043"
             y="200.71866"
             id="rect2169"
             style="fill:#db0030;fill-opacity:1;fill-rule:nonzero;stroke:none" />
          <rect
             width="80.278473"
             height="249.80124"
             x="296.32172"
             y="-370.49149"
             transform="rotate(90)"
             id="rect3143"
             style="fill:#db0030;fill-opacity:1;fill-rule:nonzero;stroke:none" />
          <g
             transform="translate(-0.132)"
             id="g2174">
            <rect
               width="29.691183"
               height="236.46906"
               x="399.80099"
               y="218.88828"
               id="rect4118"
               style="fill:#db0030;fill-opacity:1;fill-rule:nonzero;stroke:none" />
            <rect
               width="29.691183"
               height="253.96564"
               x="456.16339"
               y="201.94867"
               id="rect4120"
               style="fill:#db0030;fill-opacity:1;fill-rule:nonzero;stroke:none" />
            <rect
               width="29.691183"
               height="240.18045"
               x="512.89478"
               y="216.26405"
               id="rect4122"
               style="fill:#db0030;fill-opacity:1;fill-rule:nonzero;stroke:none" />
            <rect
               width="29.691183"
               height="231.16705"
               x="569.09595"
               y="225.06264"
               id="rect4124"
               style="fill:#db0030;fill-opacity:1;fill-rule:nonzero;stroke:none" />
          </g>
          <path
             d="m 261.58675,170.46875 c -51.70721,37.89943 -133.52929,41.88686 -180.500001,22.9375 l -18.8125,24.21875 c 80.707401,113.56087 34.33735,227.81001 -29.65625,297.78125 l 29.46875,31.1875 C 50.128749,717.75899 150.01692,816.75142 325.618,826.9375 l 47.59375,39.75 47.5,-40.375 c 102.26071,-1.76362 281.57006,-59.11544 262.25,-279.96875 l 29.625,-30.6875 C 637.43364,432.30967 611.53067,318.15118 684.14925,217.625 L 666.493,193.5625 c -64.25547,21.11651 -137.76523,9.41158 -182,-22.5625 -66.34791,47.53697 -150.60519,52.44398 -222.90625,-0.53125 z M 485.08675,203 c 39.8925,24.76946 83.97471,31.81752 159.96875,25.15625 -38.05401,65.84035 -42.16417,144.27357 -8.46875,220 l -527.375,-0.3125 c 28.36423,-67.66597 34.8722,-145.53027 -9.593751,-221.1875 54.812881,7.95793 108.356271,6.05118 161.750001,-23 C 333.79105,246.1714 408.29682,246.94911 485.08675,203 Z M 90.492999,548.84375 H 656.02425 c 14.86323,156.49185 -84.56346,241.0022 -235.75,249.3125 l -96.09375,0.25 C 179.53551,788.00832 71.786769,711.64688 90.492999,548.84375 Z"
             id="path4181"
             style="fill:#edbb00;fill-opacity:1;fill-rule:evenodd;stroke:#deb405;stroke-width:0.93788052px;stroke-linecap:butt;stroke-linejoin:miter;stroke-opacity:1"
             inkscape:connector-curvature="0" />
          <path
             d="m 99.008139,227.48004 c 44.465961,75.65723 37.953231,153.52012 9.589001,221.18609 l 527.363,0.31174 c -33.69544,-75.72643 -29.57101,-154.16084 8.48303,-220.00119 -75.99406,6.66127 -120.06502,-0.38002 -159.95753,-25.14948 -76.78994,43.94911 -151.3201,43.15441 -223.74316,0.63926 -53.39374,29.05118 -106.92146,30.97151 -161.734341,23.01358 z"
             id="path7096"
             style="fill:none;fill-rule:evenodd;stroke:#000000;stroke-width:4;stroke-linecap:butt;stroke-linejoin:miter;stroke-miterlimit:4;stroke-dasharray:none;stroke-opacity:1"
             inkscape:connector-curvature="0" />
          <path
             d="M 90.487781,548.84325 H 656.00972 c 14.86323,156.4919 -84.56116,241.0172 -235.7477,249.3275 l -96.07059,0.2428 C 179.54644,788.01565 71.781547,711.64635 90.487781,548.84325 Z"
             id="path4112"
             style="fill:none;fill-rule:evenodd;stroke:#000000;stroke-width:4;stroke-linecap:butt;stroke-linejoin:miter;stroke-miterlimit:4;stroke-dasharray:none;stroke-opacity:1"
             inkscape:connector-curvature="0" />
          <path
             d="M 372.69724,235.39281 V 449.07702"
             id="path4134"
             style="fill:none;fill-rule:evenodd;stroke:#000000;stroke-width:4;stroke-linecap:butt;stroke-linejoin:miter;stroke-miterlimit:4;stroke-dasharray:none;stroke-opacity:1"
             inkscape:connector-curvature="0" />
          <g
             id="g6097">
            <path
               d="m 391.55417,656.70959 a 57.377506,57.377506 0 1 1 -114.75501,0 57.377506,57.377506 0 1 1 114.75501,0 z"
               transform="matrix(1.3400123,0,0,1.3400123,-73.998605,-209.21101)"
               id="path2185"
               style="fill:#edbb00;fill-opacity:1;fill-rule:nonzero;stroke:#000000;stroke-width:3;stroke-linecap:butt;stroke-linejoin:miter;stroke-miterlimit:4;stroke-dasharray:none;stroke-dashoffset:0;stroke-opacity:1"
               inkscape:connector-curvature="0" />
            <g
               id="g4131"
               style="stroke-width:3.5;stroke-miterlimit:4;stroke-dasharray:none">
              <path
                 d="m 329.44777,608.15941 c -8.9744,32.70921 -14.53963,64.91603 11.34939,80.39156 18.09026,10.81371 30.32278,-11.23988 33.71187,-19.78421"
                 id="path3158"
                 style="fill:none;fill-rule:evenodd;stroke:#000000;stroke-width:3.5;stroke-linecap:butt;stroke-linejoin:miter;stroke-miterlimit:4;stroke-dasharray:none;stroke-opacity:1"
                 inkscape:connector-curvature="0" />
              <path
                 d="m 302.65058,701.79193 c 15.15641,-0.69168 23.06527,-1.9384 32.78715,-16.70884"
                 id="path3160"
                 style="fill:none;fill-rule:evenodd;stroke:#000000;stroke-width:3.5;stroke-linecap:butt;stroke-linejoin:miter;stroke-miterlimit:4;stroke-dasharray:none;stroke-opacity:1"
                 inkscape:connector-curvature="0" />
            </g>
            <path
               d="m 373.87149,669.34111 c 15.20994,-9.34921 28.73768,-4.82532 35.02205,18.57933 14.80341,-5.94837 29.07013,5.47637 32.78715,17.0241"
               id="path4141"
               style="fill:none;fill-rule:evenodd;stroke:#000000;stroke-width:3.5;stroke-linecap:butt;stroke-linejoin:miter;stroke-miterlimit:4;stroke-dasharray:none;stroke-opacity:1"
               inkscape:connector-curvature="0" />
            <path
               d="m 409.2088,687.92044 c -11.23643,27.12821 -40.79196,39.68648 -82.28312,43.82129"
               id="path4143"
               style="fill:none;fill-rule:evenodd;stroke:#000000;stroke-width:3.5;stroke-linecap:butt;stroke-linejoin:miter;stroke-miterlimit:4;stroke-dasharray:none;stroke-opacity:1"
               inkscape:connector-curvature="0" />
            <path
               d="m 373.8945,670.45345 c -9.33525,-8.54828 -23.69747,-18.3306 -2.77415,-43.46177 -8.87815,-11.25036 -11.29714,-22.24236 0.30824,-32.67338"
               id="path2191"
               style="fill:none;fill-rule:evenodd;stroke:#000000;stroke-width:3.5;stroke-linecap:butt;stroke-linejoin:miter;stroke-miterlimit:4;stroke-dasharray:none;stroke-opacity:1"
               inkscape:connector-curvature="0" />
            <path
               d="M 450.3379,675.38529 C 436.68337,651.24725 404.90173,617.80042 371.12035,626.68344"
               id="path2193"
               style="fill:none;fill-rule:evenodd;stroke:#000000;stroke-width:3.5;stroke-linecap:butt;stroke-linejoin:miter;stroke-miterlimit:4;stroke-dasharray:none;stroke-opacity:1"
               inkscape:connector-curvature="0" />
          </g>
        </g>
        <path
           d="m 266.30019,461.87951 v 0.28125 h -13.96875 v 27.125 15.375 30.15625 h 15.09375 v -30.15625 h 21.53125 v -15.375 h -21.53125 v -11.78125 h 37.15625 v -15.625 z"
           id="rect2194"
           style="fill:#000000;fill-opacity:1;fill-rule:nonzero;stroke:none;stroke-width:3.5;stroke-linecap:butt;stroke-linejoin:miter;stroke-miterlimit:4;stroke-dasharray:none;stroke-dashoffset:0;stroke-opacity:1"
           inkscape:connector-curvature="0" />
        <path
           d="m 380.56931,484.63927 13.54748,-7.0748 c -8.64732,-19.12046 -43.70955,-24.55792 -55.24361,0 -11.9007,29.29224 0.74911,56.50601 23.78335,59.15733 14.63611,2.13134 26.23492,-5.03358 31.1592,-17.76225 l -13.39695,-7.6769 c -3.56817,8.89019 -17.17218,15.009 -27.54654,0.15052 -3.19506,-6.63925 -4.01439,-16.85944 -0.45158,-26.7939 8.50828,-11.69014 20.94543,-10.42479 28.14865,0 z"
           id="path3176"
           style="fill:#000000;fill-rule:evenodd;stroke:#000000;stroke-width:0.2;stroke-linecap:butt;stroke-linejoin:miter;stroke-miterlimit:4;stroke-dasharray:none;stroke-opacity:1"
           inkscape:connector-curvature="0" />
        <path
           d="m 432.36269,462.06701 0.28125,73.3125 39.90625,-0.15625 c 12.98507,-1.81828 30.008,-23.07403 10.0625,-39.59375 10.54484,-9.2932 9.22329,-29.17212 -11.875,-33.40625 z m 15.34375,14.4375 h 19.875 c 8.74018,2.51526 6.14668,10.91787 0.28125,12.34375 h -20.15625 z m 0.15625,26.65625 20.90625,0.28125 c 10.34127,3.07836 8.00595,14.8629 0.3125,16.875 l -21.0625,-0.15625 z"
           id="path5116"
           style="fill:#000000;fill-rule:evenodd;stroke:#000000;stroke-width:1px;stroke-linecap:butt;stroke-linejoin:miter;stroke-opacity:1"
           inkscape:connector-curvature="0" />
      </g>
    </g>
  </g>
  <text
     xml:space="preserve"
     style="font-style:normal;font-weight:normal;font-size:333.33334351px;line-height:1.25;font-family:sans-serif;letter-spacing:0px;word-spacing:0px;fill:#000000;fill-opacity:1;stroke:#d5e2eb;stroke-width:13.22834682;stroke-miterlimit:4;stroke-dasharray:none;stroke-opacity:1"
     x="1300.8665"
     y="327.51651"
     id="text854"><tspan
       sodipodi:role="line"
       id="tspan852"
       x="1300.8665"
       y="327.51651"
       style="font-style:normal;font-variant:normal;font-weight:bold;font-stretch:normal;font-family:sans-serif;-inkscape-font-specification:'sans-serif Bold';letter-spacing:-25.87000084px;stroke:#d5e2eb;stroke-width:13.22834682;stroke-miterlimit:4;stroke-dasharray:none;stroke-opacity:1"
       dx="0">HD</tspan></text>
</svg>
