<?xml version="1.0" encoding="UTF-8" standalone="no"?>
<!-- Generator: Adobe Illustrator 16.0.0, SVG Export Plug-In . SVG Version: 6.00 Build 0)  -->

<svg
   xmlns:dc="http://purl.org/dc/elements/1.1/"
   xmlns:cc="http://creativecommons.org/ns#"
   xmlns:rdf="http://www.w3.org/1999/02/22-rdf-syntax-ns#"
   xmlns:svg="http://www.w3.org/2000/svg"
   xmlns="http://www.w3.org/2000/svg"
   xmlns:sodipodi="http://sodipodi.sourceforge.net/DTD/sodipodi-0.dtd"
   xmlns:inkscape="http://www.inkscape.org/namespaces/inkscape"
   version="1.1"
   id="Capa_1"
   x="0px"
   y="0px"
   width="500mm"
   height="500mm"
   viewBox="-194 188.147 1889.7637 1889.7638"
   enable-background="new -194 188.147 1000 415.704"
   xml:space="preserve"
   sodipodi:docname="hd_disney_channel.svg"
   inkscape:version="0.92.4 (5da689c313, 2019-01-14)"><metadata
   id="metadata55"><rdf:RDF><cc:Work
       rdf:about=""><dc:format>image/svg+xml</dc:format><dc:type
         rdf:resource="http://purl.org/dc/dcmitype/StillImage" /><dc:title></dc:title></cc:Work></rdf:RDF></metadata><defs
   id="defs53" /><sodipodi:namedview
   pagecolor="#ffffff"
   bordercolor="#666666"
   borderopacity="1"
   objecttolerance="10"
   gridtolerance="10"
   guidetolerance="10"
   inkscape:pageopacity="0"
   inkscape:pageshadow="2"
   inkscape:window-width="1920"
   inkscape:window-height="1017"
   id="namedview51"
   showgrid="false"
   inkscape:pagecheckerboard="true"
   units="mm"
   inkscape:zoom="0.284"
   inkscape:cx="500"
   inkscape:cy="834.94203"
   inkscape:window-x="-8"
   inkscape:window-y="-8"
   inkscape:window-maximized="1"
   inkscape:current-layer="Capa_1" />
<g
   id="g48"
   transform="matrix(1.8141693,0,0,1.8141693,195.74585,414.61676)">
	<path
   d="m 785.515,476.095 h -94.729 l -24.482,8.54 -17.612,40.979 -9.893,52.932 h 146.708 c 11.319,0 20.494,-9.576 20.494,-21.379 v -59.693 c 0.005,-11.804 -9.169,-21.379 -20.486,-21.379 z"
   id="path2"
   inkscape:connector-curvature="0"
   style="fill:#cecccc" />
	<g
   id="g8">
		<polygon
   points="723.617,517.082 714.762,517.082 714.762,489.977 697.473,489.977 697.473,564.678 714.762,564.678 714.762,532.023 723.617,532.023 723.617,564.678 740.905,564.678 740.905,489.977 723.617,489.977 "
   id="polygon4"
   style="fill:#0072aa" />
		<path
   d="m 778.795,489.977 c -4.1,0 -9.477,0 -14.517,0 h -14.835 -1.602 v 74.701 h 1.602 14.835 c 5.04,0 10.417,0 14.517,0 10.458,0 12.053,-15.576 12.053,-15.576 v -8.748 -26.043 -8.75 c 0,-0.006 -1.595,-15.584 -12.053,-15.584 z m -4.484,24.326 c 0,8.422 0,26.043 0,26.043 0,1.604 0,2.879 0,3.631 0,4.699 -4.164,5.125 -4.164,5.125 h -5.868 v -43.541 h 5.868 c 0,0 4.164,0.427 4.164,5.126 0,0.743 0,2.012 0,3.616 z"
   id="path6"
   inkscape:connector-curvature="0"
   style="fill:#0072aa" />
	</g>
	<path
   d="m 758.426,379.749 c -6.611,-34.099 -39.258,-50.31 -54.066,-54.141 -16.395,-4.241 -34.115,-2.955 -49.685,3.723 -7.562,3.247 -17.63,8.957 -23.755,14.44 -6.504,-6.227 -20.994,-14.775 -37.522,-14.775 -14.459,0.685 -73.635,7.554 -88.853,15.618 -8.33,-14.733 -21.376,-31.161 -37.211,-32.363 -7.422,-0.567 -14.693,2.454 -19.133,8.498 -6.203,8.431 -5.727,19.926 -3.773,32.472 -22.605,-22.613 -73.316,-24.091 -105.629,-24.324 -30.678,-0.217 -70.745,7.705 -82.056,13.898 5.794,-3.456 27.931,-16.319 41.687,-35.168 13.924,2.196 29.843,-5.225 37.807,-16.745 8.664,-12.546 9.073,-29.433 2.154,-42.855 -5.711,-11.077 -16.17,-19.483 -28.148,-22.855 -12.881,-3.623 -27.188,-1.061 -37.614,7.462 -1.52,-14.266 -11.729,-26.42 -24.868,-31.695 -14.082,-5.651 -30.868,-3.581 -42.873,5.785 -6.477,5.059 -11.453,12.087 -13.681,20.034 -2.596,9.266 -1.269,19.399 3.481,27.755 -0.05,0.05 -0.1,0.1 -0.142,0.15 -12.045,10.701 -22.747,26.687 -21.67,43.474 -28.565,-28.314 -62.214,-50.895 -93.466,-67.014 -31.738,-16.377 -92.332,-41.512 -154.821,-42.915 -18.397,-0.417 -59.317,1.286 -77.932,6.87 -39.692,11.912 -43.566,40.769 -39.292,53.29 4.775,14.032 21.203,19.533 42.263,15.894 7.796,-1.344 15.935,-7.854 17.764,-18.014 30.685,-1.786 66.02,0.735 99.869,9.884 -7.821,20.843 -12.847,48.015 -15.618,79.025 -17.129,3.698 -37.755,9.617 -53.532,17.338 -14.099,6.895 -29.6,16.862 -35.076,32.405 -5.876,16.678 3.84,32.981 14.174,45.544 10.902,13.255 37.563,38.072 73.758,55.518 1.485,8.99 5.568,27.599 24.641,33.767 13.123,4.241 29.909,1.252 39.459,-12.596 12.046,2.771 34.35,4.224 47.881,4.356 l 0.058,18.916 c 0,23.389 19.033,42.557 42.43,42.557 h 478.468 c 5.995,12.553 18.207,27.436 32.23,30.209 25.143,4.949 28.132,-18.406 29.467,-25.779 1.402,-7.736 2.563,-15.441 5.043,-22.938 l 18.404,-61.68 c 16.061,-2.445 34.301,-10 47.348,-19.533 12.73,-9.298 23.816,-21.02 31.879,-34.6 10.52,-17.713 15.059,-38.657 10.151,-58.892 z"
   id="path10"
   inkscape:connector-curvature="0"
   style="fill:#0072aa" />
	<path
   d="m 417.9,357.269 c 15.9,1.16 53.982,70.729 58.397,69.468 2.838,-0.778 3.122,-7.33 3.122,-10.962 -0.066,-17.611 -18.271,-63.523 -18.322,-76.72 0,-4.366 0.717,-8.54 4.633,-8.54 15.609,-0.042 42.404,49.383 42.564,89.794 0.016,17.579 -10.853,44.743 -29.443,44.775 -17.103,0.092 -47.863,-63.349 -53.473,-63.349 -7.555,0 2.195,69.409 -16.662,69.451 -12.705,0.033 -15.685,-11.436 -15.717,-28.531 -0.075,-17.104 8.571,-86.538 24.901,-85.386 z"
   id="path12"
   inkscape:connector-curvature="0"
   style="fill:#ffffff" />
	<path
   d="m 337.981,347.252 c 18.18,-0.075 50.343,-0.234 50.419,12.313 0.033,21.001 -103.393,9.624 -103.577,25 -0.075,4.667 22.413,5.719 43.292,7.429 27.854,2.379 59.817,6.186 59.934,39.943 0.033,13.891 -11.93,40.818 -59.333,40.937 -48.057,0.166 -65.211,-24.519 -65.236,-34.985 -0.092,-20.184 19.24,-25.693 32.672,-25.76 12.763,0 54.117,4.967 54.167,15.168 0.033,5.584 -10.352,11.109 -22.848,11.168 -12.438,0.059 -30.568,-11.136 -39.375,-11.136 -8.781,0.06 -12.662,5.91 -12.662,9.325 0,3.422 0.517,10.275 23.981,10.217 11.396,-0.066 66.696,-6.219 66.646,-21.495 -0.016,-6.837 -25.4,-13.606 -46.276,-15.735 -25.637,-2.586 -64.218,3.773 -64.285,-22.271 -0.109,-38.457 68.865,-40.085 82.481,-40.118 z"
   id="path14"
   inkscape:connector-curvature="0"
   style="fill:#ffffff" />
	<path
   d="m 221.041,258.051 c -6.377,-2.471 -11.811,-7.313 -14.299,-13.782 -2.73,-7.07 -1.369,-14.967 3.272,-20.902 8.498,-10.894 25.226,-12.889 36.612,-5.509 6.077,3.923 10.385,10.526 10.744,17.847 0.292,5.918 -2.087,11.628 -6.061,15.918 10.435,0.61 17.605,5.885 22.521,10.644 0.125,0.016 0.251,0.042 0.368,0.059 0.141,-3.506 1.001,-7.012 2.763,-10.059 3.915,-6.778 10.785,-11.287 18.548,-12.188 7.713,-0.901 16.695,1.812 24.409,9.625 4.373,4.432 6.803,10.635 7.211,16.87 0.475,7.363 -2.379,14.75 -7.947,19.658 -5.701,5.042 -13.698,6.878 -21.11,5.551 -3.164,-0.268 -6.219,-1.319 -8.99,-2.863 -8.439,18.89 -37.639,37.998 -57.113,37.664 C 198.613,326 190.323,306.767 190.29,295.656 190.264,284.737 201.75,267.4 221.041,258.051 Z"
   id="path16"
   inkscape:connector-curvature="0"
   style="fill:#ffffff" />
	<path
   d="m 165.889,553.16 c -9.299,3.154 -43.649,4.85 -56.454,4.85 -8.415,0 -20.427,-4.332 -23.532,-13.631 -2.53,-7.588 1.143,-15.594 10.926,-23.784 22.146,-18.538 35.11,-21.737 43.934,-22.437 10.776,-0.86 15.108,5.967 15.885,9.69 0.735,3.456 -1.477,6.854 -4.934,7.588 -3.23,0.677 -6.411,-1.202 -7.412,-4.273 -0.251,-0.142 -1.026,-0.376 -2.53,-0.251 -6.92,0.559 -17.354,3.272 -36.729,19.492 -6.361,5.324 -7.396,8.74 -6.995,9.916 0.727,2.18 5.91,4.633 10.268,4.867 9.29,0.477 45.952,-1.611 53.457,-4.158 3.356,-1.125 6.987,0.66 8.122,4.008 1.145,3.356 -0.659,6.979 -4.006,8.123 z"
   id="path18"
   inkscape:connector-curvature="0"
   style="fill:#ffffff" />
	<path
   d="m 225.356,529.301 1.219,27.273 c 0.158,3.531 -2.58,6.52 -6.111,6.678 -0.1,0 -0.192,0 -0.292,0 -3.406,0 -6.235,-2.672 -6.394,-6.119 l -1.085,-24.325 c -5.593,1.61 -12.137,3.53 -18.615,5.46 v 15.701 c 0,3.539 -2.863,6.412 -6.403,6.412 -3.53,0 -6.402,-2.865 -6.402,-6.412 V 542.1 c -0.609,0.184 -1.227,0.367 -1.828,0.551 -0.618,0.184 -1.244,0.275 -1.861,0.275 -2.747,0 -5.284,-1.787 -6.127,-4.549 -1.027,-3.383 0.885,-6.955 4.266,-7.981 1.177,-0.351 3.105,-0.935 5.534,-1.678 v -23.565 c 0,-3.539 2.871,-6.393 6.403,-6.393 3.54,0 6.402,2.861 6.402,6.393 v 19.751 c 5.993,-1.787 12.455,-3.673 18.03,-5.251 l -0.901,-20.135 c -0.16,-3.53 2.579,-6.52 6.11,-6.677 3.505,-0.126 6.519,2.579 6.678,6.103 l 0.777,17.346 c 0.392,-0.084 0.743,-0.151 1.001,-0.184 3.48,-0.535 7.029,1.844 7.288,5.367 0.317,4.123 -2.003,6.943 -7.689,7.828 z"
   id="path20"
   inkscape:connector-curvature="0"
   style="fill:#ffffff" />
	<path
   d="m 216.833,420.859 c 0.435,-19.791 0.768,-74.008 14.233,-74.075 10.518,-0.017 15.384,13.815 17.07,85.478 0.927,37.823 -2.754,39.091 -13.54,39.126 -12.011,0.066 -18.739,-5.326 -17.763,-50.529 z"
   id="path22"
   inkscape:connector-curvature="0"
   style="fill:#ffffff" />
	<path
   d="m 300.217,560.881 c -3.164,1.586 -7.003,0.301 -8.589,-2.863 -3.89,-7.779 -8.14,-15.994 -12.205,-23.6 -7.012,2.287 -15.609,5.428 -22.446,7.99 -1.494,5.75 -2.956,11.619 -4.291,17.262 -0.702,2.947 -3.548,5.26 -6.962,4.842 -3.974,-0.484 -6.311,-4.35 -5.493,-7.795 0.784,-3.342 1.544,-6.463 2.279,-9.467 -2.387,-0.16 -4.599,-1.619 -5.534,-4.008 -1.294,-3.297 0.333,-7.004 3.622,-8.297 0.318,-0.125 2.404,-0.944 5.56,-2.146 10.393,-39.582 14.183,-39.75 18.474,-39.908 3.38,-0.092 6.644,-0.184 21.394,26.594 2.705,0.16 5.126,2.013 5.836,4.776 0.434,1.702 0.142,3.413 -0.676,4.815 3.43,6.502 7.362,14.148 11.886,23.199 1.577,3.18 0.3,7.028 -2.855,8.606 z"
   id="path24"
   inkscape:connector-curvature="0"
   style="fill:#ffffff" />
	<path
   d="m 363.391,536.215 c -0.092,10.977 -0.168,20.008 -5.359,23.189 -2.412,1.467 -5.342,1.543 -8.047,0.191 -3.047,-1.527 -6.785,-6.02 -22.195,-26.721 -1.902,-2.563 -4.049,-5.441 -6.119,-8.197 -0.116,13.398 0.217,31.645 0.408,34.883 0.326,2.93 -1.693,6.588 -5.342,6.945 -3.647,0.361 -6.186,-1.518 -7.078,-4.189 -0.176,-0.5 -0.685,-2.004 -0.811,-27.83 -0.125,-28.189 0.451,-30.086 5.066,-31.988 5.109,-2.137 8.273,1.938 13.089,8.072 3.071,3.916 6.954,9.133 11.053,14.65 3.74,5.024 8.656,11.52 12.504,16.436 0.159,-10.627 1.646,-42.246 2.013,-45.219 0.426,-3.505 3.598,-5.984 7.129,-5.576 3.506,0.426 6.01,3.615 5.575,7.121 -0.25,2.213 -1.72,27.455 -1.886,38.233 z"
   id="path26"
   inkscape:connector-curvature="0"
   style="fill:#ffffff" />
	<path
   d="m 428.992,558.734 c -6.242,2.83 -12.537,-2.805 -23.164,-12.963 l -0.935,-0.893 c -2.779,-2.664 -7.037,-7.162 -11.536,-11.938 -1.645,-1.735 -3.548,-3.765 -5.451,-5.751 0.394,8.206 1.102,19.024 1.871,29.05 0.275,3.531 -2.362,6.611 -5.895,6.877 -0.166,0.01 -0.333,0.018 -0.492,0.018 -3.314,0 -6.117,-2.547 -6.377,-5.91 0,0 -0.853,-10.979 -1.486,-22.02 -1.335,-22.891 -1.586,-27.022 4.258,-28.774 4.807,-1.444 6.518,0.382 22.88,17.729 4.19,4.439 8.532,9.041 11.068,11.471 l 0.935,0.9 c 1.379,1.318 3.406,3.256 5.428,5.092 -1.035,-11.277 -2.906,-29.176 -4.033,-39.566 -0.376,-3.516 2.162,-6.67 5.676,-7.055 3.516,-0.367 6.68,2.162 7.055,5.685 0.176,1.704 4.516,41.905 4.824,49.542 0.251,5.678 -3.147,7.848 -4.626,8.506 z"
   id="path28"
   inkscape:connector-curvature="0"
   style="fill:#ffffff" />
	<path
   d="m 495.664,554.119 c -6.393,4.291 -20.175,2.973 -33.957,4.291 -6.611,0.635 -11.67,-0.602 -13.758,-3.021 -1.828,-2.146 -3.347,-10.752 -4.474,-19.9 -0.142,-0.526 -0.249,-1.062 -0.259,-1.637 0,-0.092 0.025,-0.184 0.025,-0.283 -1.359,-11.604 -2.111,-23.432 -2.111,-23.633 0,-3.029 1.353,-4.99 2.495,-6.109 3.146,-3.09 7.663,-3.155 15.401,-3.021 7.848,0.157 26.078,-0.961 28.424,-1.195 3.037,-0.509 6.052,1.219 7.094,4.199 1.17,3.332 -0.583,6.987 -3.924,8.164 -2.436,0.851 -26.686,1.721 -31.844,1.645 -0.893,-0.016 -2.855,-0.066 -4.584,-0.016 0.275,3.32 0.385,4.765 0.953,10.008 10.426,-0.385 23.572,-1.336 29.424,-2.328 2.83,-0.477 6.068,2.344 6.178,5.883 0.083,2.731 -1.861,5.535 -5.326,6.221 -8.799,1.719 -19.426,2.236 -28.783,2.604 0.326,2.438 1.045,8.547 1.338,10.109 5.768,0.551 16.41,-0.801 31.52,-3.666 3.463,-0.66 6.428,-0.775 8.162,2.297 1.738,3.07 0.912,7.435 -1.994,9.388 z"
   id="path30"
   inkscape:connector-curvature="0"
   style="fill:#ffffff" />
	<path
   d="m 567.402,559.313 c -17.697,-1.848 -35.561,0.885 -42.689,2.168 -8.07,1.453 -15.643,-2.035 -15.643,-11.76 0,-2.361 -0.518,-31.73 -0.802,-46.93 -0.058,-3.531 2.838,-6.52 6.345,-6.52 3.48,0 6.395,2.787 6.461,6.285 0.034,1.711 0.727,39.893 0.793,46.412 0.209,-0.023 0.434,-0.059 0.701,-0.109 7.779,-1.326 27.096,-4.273 46.145,-2.279 3.514,0.361 6.07,3.508 5.701,7.021 -0.359,3.524 -3.496,6.11 -7.012,5.712 z"
   id="path32"
   inkscape:connector-curvature="0"
   style="fill:#ffffff" />
	<path
   d="m 541.484,480.377 c -21.612,0.686 -29.408,-22.779 -29.476,-33.381 0,-6.87 6.569,-23.307 8.765,-31.327 0.693,-2.689 -2.955,-6.11 -2.73,-8.307 0.92,-9.517 14.658,-10.551 15.827,-13.974 1.118,-3.104 4.107,-13.197 3.616,-15.91 -0.494,-2.664 -19.801,-6.553 -19.818,-16.311 -0.049,-10.376 41.229,-10.192 72.99,-13.648 18.531,-2.054 33.549,15.284 32.33,19.467 -1.219,4.198 -4.85,6.82 -9.766,8.072 -2.98,0.734 -42.648,1.836 -48.575,4.299 -2.954,1.219 -4.792,13.306 -3.397,15.685 1.494,2.413 27.623,2.472 31.78,2.839 8.305,0.667 10.835,18.781 -2.589,19.524 -4.724,0.292 -33.506,-0.176 -38.139,1.318 -4.666,1.511 -9.215,22.797 -6.803,25.01 2.462,2.17 39.365,-6.036 45.943,-6.036 6.577,0 15.919,7.33 15.184,13.64 -0.433,4.19 -31.018,27.888 -65.142,29.04 z"
   id="path34"
   inkscape:connector-curvature="0"
   style="fill:#ffffff" />
	<path
   d="m 655.785,475.961 c -3.83,16.111 -14.842,53.783 -21.729,74.42 -4.907,14.373 -5.727,35.518 -9.449,36.326 -9.791,2.162 -26.135,-13.723 -26.419,-29.842 -0.567,-31.252 16.819,-82.725 23.956,-105.879 -4.439,-8.807 -6.543,-18.49 -6.543,-26.403 -0.117,-34.517 31.711,-71.538 41.678,-79.702 5.176,-4.173 9.834,7.413 5.693,16.236 -3.947,8.431 -25.176,42.113 -25.143,53.374 0.051,2.444 0.844,5.067 2.137,7.771 20.869,-26.611 56.621,-66.071 75.168,-67.181 6.713,-0.384 27.874,8.222 27.973,43.926 0.094,35.71 -44.13,79.985 -87.322,76.954 z"
   id="path36"
   inkscape:connector-curvature="0"
   style="fill:#ffffff" />
	<path
   d="m 236.05,270.539 c -20.184,3.355 -32.932,15.176 -29.792,24.525 7.545,-9.007 18.789,-18.081 29.792,-24.525 z"
   id="path38"
   inkscape:connector-curvature="0"
   style="fill:#0072aa" />
	<path
   d="m 276.869,282.76 c 0,-2.404 -1.369,-8.648 -9.257,-8.632 -12.063,0.05 -36.588,21.67 -46.763,33.131 3.748,1.152 8.214,1.828 13.523,1.828 12.813,-0.025 42.513,-11.886 42.497,-26.327 z"
   id="path40"
   inkscape:connector-curvature="0"
   style="fill:#0072aa" />
	<path
   d="m 261.059,527.25 c 4.048,-1.471 8.23,-2.947 12.129,-4.25 -2.68,-4.809 -5.117,-9.008 -7.112,-12.195 -1.453,4.205 -3.181,9.941 -5.017,16.445 z"
   id="path42"
   inkscape:connector-curvature="0"
   style="fill:#0072aa" />
	<path
   d="m 717.156,380.534 c -8.39,-0.167 -31.169,35.777 -46.762,62.865 22.889,0.4 54.977,-21.595 54.876,-48.09 -0.034,-8.84 -2.254,-14.701 -8.114,-14.775 z"
   id="path44"
   inkscape:connector-curvature="0"
   style="fill:#0072aa" />
	<path
   d="m -90.336,206.513 c -29.917,0.835 -55.093,4.032 -66.922,9.041 v 0 c -10,4.39 -19.266,15.059 -19.266,23.74 -0.192,8.297 9.549,9.023 15.409,8.974 5.918,0 11.286,-0.493 11.252,-3.924 0,-4.874 -7.838,-3.89 -7.838,-8.764 0,-5.635 30.292,-6.937 45.427,-7.021 129.854,-0.358 279.407,89.577 279.632,165.874 0.192,59.282 -76.997,72.573 -119.544,72.706 -15.117,0.024 -29.784,-1.553 -43.732,-4.223 -0.609,-18.908 -1.736,-58.525 -2.229,-83.56 4.917,-0.058 9.491,-0.108 13.431,-0.108 31.544,-0.125 72.84,11.018 72.906,18.39 0,6.303 -10.968,10.618 -10.96,16.611 0.042,4.507 10.185,3.706 19.008,4.315 1.543,0.158 19.357,-9.775 19.307,-25.434 -0.067,-20.769 -26.261,-45.119 -114.21,-45.119 -0.818,-23.339 -4.333,-60.135 -17.563,-60.068 -11.019,0.017 -14.216,40.527 -15.134,62.906 -47.431,7.146 -89.644,26.461 -89.578,45.46 0,15.536 33.916,54.71 88.834,78.567 0.926,17.58 4.299,29.666 19.908,29.574 11.345,0 15.218,-8.346 16.395,-17.094 17.764,4.516 37.004,7.152 57.423,7.103 79.634,-0.251 143.576,-42.798 143.376,-101.13 C 204.747,315.139 46.971,202.691 -90.336,206.513 Z m 57.822,246.467 c -47.146,-16.628 -79.184,-43.072 -79.217,-51.854 -0.05,-13.631 41.362,-18.791 79.685,-20.702 -0.267,21.353 -0.526,52.014 -0.468,72.556 z"
   id="path46"
   inkscape:connector-curvature="0"
   style="fill:#ffffff" />
</g>
</svg>