<?xml version="1.0" encoding="UTF-8" standalone="no"?>
<!-- Generator: Adobe Illustrator 16.0.0, SVG Export Plug-In . SVG Version: 6.00 Build 0)  -->

<svg
   xmlns:dc="http://purl.org/dc/elements/1.1/"
   xmlns:cc="http://creativecommons.org/ns#"
   xmlns:rdf="http://www.w3.org/1999/02/22-rdf-syntax-ns#"
   xmlns:svg="http://www.w3.org/2000/svg"
   xmlns="http://www.w3.org/2000/svg"
   xmlns:xlink="http://www.w3.org/1999/xlink"
   xmlns:sodipodi="http://sodipodi.sourceforge.net/DTD/sodipodi-0.dtd"
   xmlns:inkscape="http://www.inkscape.org/namespaces/inkscape"
   version="1.1"
   id="Layer_1"
   x="0px"
   y="0px"
   width="500mm"
   height="500mm"
   viewBox="0 0 1889.7637 1889.7638"
   enable-background="new 0 0 566.929 243.378"
   xml:space="preserve"
   inkscape:version="0.92.4 (5da689c313, 2019-01-14)"
   sodipodi:docname="hd_fox.svg"><metadata
   id="metadata17"><rdf:RDF><cc:Work
       rdf:about=""><dc:format>image/svg+xml</dc:format><dc:type
         rdf:resource="http://purl.org/dc/dcmitype/StillImage" /><dc:title /></cc:Work></rdf:RDF></metadata><defs
   id="defs15"><linearGradient
     inkscape:collect="always"
     xlink:href="#linearGradient2367"
     id="linearGradient2355"
     x1="1687.0757"
     y1="1680.0857"
     x2="1378.3104"
     y2="1369.6112"
     gradientUnits="userSpaceOnUse"
     gradientTransform="matrix(1.0959189,0,0,1.1013931,-198.01018,-203.48459)" /><linearGradient
     id="linearGradient2367"
     inkscape:collect="always"><stop
       id="stop2363"
       offset="0"
       style="stop-color:#b5cbdb;stop-opacity:1" /><stop
       id="stop2365"
       offset="1"
       style="stop-color:#fafafa;stop-opacity:0.50196081" /></linearGradient><filter
     inkscape:collect="always"
     style="color-interpolation-filters:sRGB"
     id="filter3369"
     x="-0.012000175"
     width="1.0240003"
     y="-0.011999825"
     height="1.0239997"><feGaussianBlur
       inkscape:collect="always"
       stdDeviation="5.1926353"
       id="feGaussianBlur3371" /></filter></defs><sodipodi:namedview
   pagecolor="#ffffff"
   bordercolor="#666666"
   borderopacity="1"
   objecttolerance="10"
   gridtolerance="10"
   guidetolerance="10"
   inkscape:pageopacity="0"
   inkscape:pageshadow="2"
   inkscape:window-width="1920"
   inkscape:window-height="1017"
   id="namedview13"
   showgrid="false"
   inkscape:zoom="0.25"
   inkscape:cx="-216.47244"
   inkscape:cy="1507.467"
   inkscape:window-x="-8"
   inkscape:window-y="-8"
   inkscape:window-maximized="1"
   inkscape:current-layer="Layer_1"
   inkscape:pagecheckerboard="false"
   units="mm" />
<g
   transform="translate(-3.7483296e-5,2.1625722e-5)"
   id="g843"><path
     transform="matrix(0.71081394,0,0,-0.71079368,527.59572,1362.1297)"
     sodipodi:nodetypes="cccc"
     inkscape:connector-curvature="0"
     id="path2346"
     d="m 1876.9659,838.75924 0.3356,1038.33096 -1038.51194,0.2112 C 1304.6053,1632.379 1667.2142,1298.7208 1876.9659,838.75924 Z"
     inkscape:transform-center-y="-0.69622776"
     inkscape:transform-center-x="169.4141"
     style="opacity:1;fill:url(#linearGradient2355);fill-opacity:1;stroke:none;stroke-width:7.55905533;stroke-miterlimit:4;stroke-dasharray:none;stroke-opacity:1;filter:url(#filter3369)" /><text
     id="text854"
     y="327.51648"
     x="1300.8665"
     style="font-style:normal;font-weight:normal;font-size:333.33334351px;line-height:1.25;font-family:sans-serif;letter-spacing:0px;word-spacing:0px;fill:#000000;fill-opacity:1;stroke:#d5e2eb;stroke-width:13.22834682;stroke-miterlimit:4;stroke-dasharray:none;stroke-opacity:1"
     xml:space="preserve"><tspan
       dx="0"
       style="font-style:normal;font-variant:normal;font-weight:bold;font-stretch:normal;font-family:sans-serif;-inkscape-font-specification:'sans-serif Bold';letter-spacing:-25.87000084px;stroke:#d5e2eb;stroke-width:13.22834682;stroke-miterlimit:4;stroke-dasharray:none;stroke-opacity:1"
       y="327.51648"
       x="1300.8665"
       id="tspan852"
       sodipodi:role="line">HD</tspan></text>
</g><g
   id="g3"
   transform="matrix(3.1999996,0,0,3.1999996,37.795606,554.31873)"
   style="fill:#f99500;fill-opacity:1">
	<g
   id="g5"
   style="fill:#f99500;fill-opacity:1">
		<path
   d="m 68.868,66.704 v 31.729 h 67.064 v 66.345 H 68.868 v 78.6 H 0 V 0 h 146.388 l 4.688,66.704 z"
   id="path7"
   inkscape:connector-curvature="0"
   style="fill:#f99500;fill-opacity:1"
   sodipodi:nodetypes="ccccccccccc" />
		<path
   d="m 347.686,37.411 c 22.847,23.321 34.277,51.473 34.277,84.45 0,33.216 -11.431,61.483 -34.277,84.807 -22.851,23.32 -50.411,34.98 -82.682,34.98 -32.508,0 -60.191,-11.66 -83.037,-34.98 -22.852,-23.323 -34.275,-51.591 -34.275,-84.807 0,-32.978 11.423,-61.129 34.275,-84.45 22.846,-23.321 50.529,-34.982 83.037,-34.982 32.27,0 59.831,11.661 82.682,34.982 z m -102.47,133.212 c 0,5.423 1.999,10.132 6.007,14.135 4.002,4.008 8.834,6.008 14.487,6.008 5.654,0 10.424,-2 14.311,-6.008 3.888,-4.003 5.831,-8.712 5.831,-14.135 V 72.039 c 0,-5.653 -1.943,-10.479 -5.831,-14.487 -3.886,-4.002 -8.656,-6.007 -14.311,-6.007 -5.653,0 -10.484,2.005 -14.487,6.007 -4.009,4.008 -6.007,8.834 -6.007,14.487 z"
   id="path9"
   inkscape:connector-curvature="0"
   style="fill:#f99500;fill-opacity:1" />
		<path
   d="m 489.407,244.102 -34.612,-61.658 -33.532,61.658 H 345.545 L 417.658,117.904 349.511,0 h 77.882 L 455.878,52.642 484.722,0 h 75.356 l -66.704,117.182 73.555,126.919 h -77.522 z"
   id="path11"
   inkscape:connector-curvature="0"
   style="fill:#f99500;fill-opacity:1" />
	</g>
</g>
</svg>