<?xml version="1.0" encoding="UTF-8" standalone="no"?>
<svg
   xmlns:dc="http://purl.org/dc/elements/1.1/"
   xmlns:cc="http://creativecommons.org/ns#"
   xmlns:rdf="http://www.w3.org/1999/02/22-rdf-syntax-ns#"
   xmlns:svg="http://www.w3.org/2000/svg"
   xmlns="http://www.w3.org/2000/svg"
   xmlns:xlink="http://www.w3.org/1999/xlink"
   xmlns:sodipodi="http://sodipodi.sourceforge.net/DTD/sodipodi-0.dtd"
   xmlns:inkscape="http://www.inkscape.org/namespaces/inkscape"
   width="500mm"
   height="500mm"
   viewBox="0 0 1417.3229 1417.3228"
   version="1.1"
   id="svg35"
   sodipodi:docname="hd_movistar.svg"
   inkscape:version="0.92.4 (5da689c313, 2019-01-14)">
  <metadata
     id="metadata41">
    <rdf:RDF>
      <cc:Work
         rdf:about="">
        <dc:format>image/svg+xml</dc:format>
        <dc:type
           rdf:resource="http://purl.org/dc/dcmitype/StillImage" />
        <dc:title />
      </cc:Work>
    </rdf:RDF>
  </metadata>
  <defs
     id="defs39">
    <linearGradient
       inkscape:collect="always"
       xlink:href="#linearGradient2367"
       id="linearGradient2355"
       x1="1687.0757"
       y1="1680.0857"
       x2="1378.3104"
       y2="1369.6112"
       gradientUnits="userSpaceOnUse"
       gradientTransform="matrix(1.0959189,0,0,1.1013931,-198.01018,-203.48459)" />
    <linearGradient
       id="linearGradient2367"
       inkscape:collect="always">
      <stop
         id="stop2363"
         offset="0"
         style="stop-color:#b5cbdb;stop-opacity:1" />
      <stop
         id="stop2365"
         offset="1"
         style="stop-color:#fafafa;stop-opacity:0.50196081" />
    </linearGradient>
    <filter
       inkscape:collect="always"
       style="color-interpolation-filters:sRGB"
       id="filter3369"
       x="-0.012000175"
       width="1.0240003"
       y="-0.011999825"
       height="1.0239997">
      <feGaussianBlur
         inkscape:collect="always"
         stdDeviation="5.1926353"
         id="feGaussianBlur3371" />
    </filter>
  </defs>
  <sodipodi:namedview
     pagecolor="#ffffff"
     bordercolor="#666666"
     borderopacity="1"
     objecttolerance="10"
     gridtolerance="10"
     guidetolerance="10"
     inkscape:pageopacity="0"
     inkscape:pageshadow="2"
     inkscape:window-width="1920"
     inkscape:window-height="1017"
     id="namedview37"
     showgrid="false"
     units="mm"
     inkscape:zoom="0.13858165"
     inkscape:cx="-205.65492"
     inkscape:cy="282"
     inkscape:window-x="-8"
     inkscape:window-y="-8"
     inkscape:window-maximized="1"
     inkscape:current-layer="svg35" />
  <g
     id="g62"
     transform="matrix(0.88540124,0,0,0.88540124,28.348102,-358.9756)">
    <g
       transform="translate(0,994.32282)"
       id="#ffffffff">
      <path
         style="opacity:1;fill:#ffffff"
         inkscape:connector-curvature="0"
         id="path2"
         d="m 1147.74,178.6 c 9.48,-0.12 18.98,-0.16 28.47,0 -0.14,53.85 0.03,107.7 -0.09,161.55 -9.44,0.02 -18.88,-0.06 -28.31,0.05 0.03,-53.87 0.16,-107.74 -0.07,-161.6 z" />
      <path
         style="opacity:1;fill:#ffffff"
         inkscape:connector-curvature="0"
         id="path4"
         d="m 525.01,180.08 c 33.83,0.2 67.66,0.03 101.49,0.09 -0.03,9.27 -0.02,18.55 0.01,27.83 -23.84,0 -47.68,0 -71.51,0 0.03,12.08 -0.05,24.16 0.03,36.24 19.14,-0.18 38.29,0 57.43,-0.1 0.12,9.26 0.05,18.52 0.01,27.78 -19.16,-0.14 -38.32,-0.07 -57.48,-0.04 -0.03,22.78 0.09,45.57 -0.06,68.35 -9.95,-0.14 -19.91,-0.14 -29.86,0 -0.16,-53.38 -0.03,-106.76 -0.06,-160.15 z" />
      <path
         style="opacity:1;fill:#ffffff"
         inkscape:connector-curvature="0"
         id="path6"
         d="m 1423.51,180.19 c 4.21,-0.03 8.44,-0.04 12.67,-0.07 -0.04,53.36 -0.08,106.72 0.01,160.08 -9.69,-0.1 -19.37,-0.03 -29.06,-0.05 0.12,-39.82 -0.1,-79.65 0.11,-119.47 -10.15,6.39 -20.57,12.36 -30.87,18.52 0.42,-10.46 -0.2,-20.96 0.32,-31.4 15.36,-9.48 31.26,-18.34 46.82,-27.61 z" />
      <path
         style="opacity:1;fill:#ffffff"
         inkscape:connector-curvature="0"
         id="path8"
         d="m 677.44,223.65 c 15.21,-1.85 31.45,1.08 44.07,10.1 14.26,10.29 22.39,27.79 22.63,45.2 0.33,8.46 -0.2,17.05 -3.03,25.1 -4.42,14.49 -15.15,27.01 -29.13,33.01 -11.92,5.2 -25.39,6.16 -38.15,4.18 -14.53,-2.2 -28.27,-10.33 -36.43,-22.67 -10.04,-14.95 -12.35,-34.18 -8.56,-51.56 2.91,-13.72 10.91,-26.53 22.7,-34.3 7.71,-5.11 16.73,-8.12 25.9,-9.06 m 1.87,24.68 c -6.01,1.43 -11.3,5.19 -14.93,10.14 -5.55,7.62 -7.63,17.28 -7.3,26.59 0.72,9.22 3.48,18.92 10.5,25.36 9.21,9.54 25.87,9.72 35.59,0.86 8.59,-7.74 11.81,-19.95 11.15,-31.18 -0.41,-10.79 -4.87,-22.13 -14.12,-28.28 -6.01,-4.28 -13.86,-4.65 -20.89,-3.49 z" />
      <path
         style="opacity:1;fill:#ffffff"
         inkscape:connector-curvature="0"
         id="path10"
         d="m 801.52,229.65 c 8.56,-5.81 19.58,-8.03 29.67,-5.53 -0.01,9.35 -0.15,18.71 0.07,28.06 -5.19,-3.62 -11.88,-3.92 -17.91,-2.8 -9.52,2.03 -16.63,10.13 -19.93,18.97 -5.14,12.88 -4.96,26.98 -4.9,40.62 -0.13,10.42 0.25,20.86 -0.2,31.28 -9.44,-0.23 -18.88,-0.05 -28.31,-0.09 -0.02,-38.39 -0.01,-76.77 0,-115.15 9.5,-0.02 19,0.03 28.51,-0.03 -0.23,6.09 0.4,12.22 -0.37,18.29 4.06,-4.88 7.9,-10.18 13.37,-13.62 z" />
      <path
         style="opacity:1;fill:#ffffff"
         inkscape:connector-curvature="0"
         id="path12"
         d="m 894.92,224.21 c 11.76,-2.86 25.53,-0.19 33.86,9.03 3.66,3.71 5.68,8.6 7.72,13.31 4.86,-9.36 12.86,-17.38 22.83,-21.17 9.54,-3.65 20.51,-2.73 29.7,1.52 8.87,4.31 14.57,13.49 16.01,23.08 1.13,5.28 0.76,10.68 0.81,16.04 0.02,24.71 -0.04,49.42 0.03,74.13 -9.58,0.04 -19.15,-0.1 -28.72,0.07 -0.04,-24.09 -0.02,-48.18 -0.01,-72.27 -0.04,-4.69 0.45,-9.72 -1.91,-13.98 -1.99,-4.16 -6.77,-6.49 -11.27,-6.15 -7.45,-0.7 -14.13,4.42 -17.69,10.61 -5.76,9.78 -7.34,21.36 -7.8,32.53 0.02,16.4 -0.04,32.8 0.04,49.2 -9.58,-0.02 -19.15,-0.04 -28.71,0.02 0.12,-25.74 -0.01,-51.47 0.06,-77.2 -0.03,-5.07 -1.56,-10.88 -6.3,-13.51 -3.49,-2.15 -7.77,-1.77 -11.65,-1.39 -8.39,2.14 -13.58,10.04 -16.24,17.78 -5.95,16.35 -4.54,34.01 -4.69,51.08 -0.03,7.76 0.07,15.52 -0.07,23.28 -9.48,-0.16 -18.97,-0.04 -28.45,-0.05 0.09,-38.38 0.09,-76.76 -0.01,-115.14 9.49,-0.03 18.98,-0.05 28.48,0.03 0.07,6.08 0.02,12.17 0.08,18.25 5.53,-8.72 13.53,-16.72 23.9,-19.1 z" />
      <path
         style="opacity:1;fill:#ffffff"
         inkscape:connector-curvature="0"
         id="path14"
         d="m 1215,231.84 c 8.77,-5.98 19.48,-8.38 29.96,-8.72 11.6,-0.33 23.23,4.1 31.59,12.16 -0.03,-3.42 -0.08,-6.85 -0.1,-10.27 9.5,0.02 19.01,-0.05 28.51,0.03 0.04,38.4 0.12,76.79 -0.04,115.18 -9.5,-0.27 -19.02,0.17 -28.51,-0.22 0.12,-3.69 0,-7.38 0.27,-11.06 -6.78,8.17 -17.14,12.91 -27.7,13.18 -11.68,0.51 -23.74,-1.91 -33.65,-8.34 -14.66,-9.41 -22.45,-26.81 -23.4,-43.82 -0.99,-10.63 0,-21.52 3.34,-31.69 3.53,-10.59 10.24,-20.36 19.73,-26.43 m 29.19,16.5 c -6.89,1.69 -12.68,6.32 -16.67,12.07 -5.62,8.67 -6.86,19.55 -5.47,29.62 1.34,8.79 5.46,17.72 13.04,22.78 5.97,4.27 13.86,6.1 21.04,4.29 7.23,-1.53 13.35,-6.55 17.31,-12.66 6.05,-10.11 7.01,-22.78 4.04,-34.04 -2.36,-9.22 -8.8,-17.89 -17.99,-21.11 -4.83,-1.96 -10.26,-1.72 -15.3,-0.95 z" />
      <path
         style="opacity:1;fill:#ffffff"
         inkscape:connector-curvature="0"
         id="path16"
         d="m 1026.07,225.05 c 9.61,-0.12 19.22,0.06 28.84,-0.1 -0.13,25 0,50.01 -0.07,75.01 -0.08,4.84 1.2,9.93 4.59,13.54 4.53,4.23 11.56,5.48 17.33,3.23 6.95,-2.51 11.72,-8.8 14.76,-15.28 4.41,-9.82 5.79,-20.76 5.62,-31.44 -0.03,-15 0.06,-30.01 -0.04,-45.01 9.61,0.05 19.22,-0.05 28.83,0.05 -0.17,38.36 -0.07,76.73 -0.05,115.1 -9.57,0.05 -19.14,-0.12 -28.71,0.08 -0.06,-5.93 -0.07,-11.85 0.06,-17.78 -5.96,7.78 -13.57,14.75 -23.09,17.75 -11.52,3.59 -25.01,2.55 -35.1,-4.4 -6.2,-4.05 -10.06,-10.95 -11.72,-18.04 -1.9,-7.44 -0.95,-15.15 -1.17,-22.72 -0.06,-23.33 0.11,-46.67 -0.08,-69.99 z" />
    </g>
    <g
       transform="translate(0,994.32282)"
       id="#004e7eff">
      <path
         style="opacity:1;fill:#004e7e"
         inkscape:connector-curvature="0"
         id="path19"
         d="m 279.64,0 h 8.76 c 11,1.2 21.12,7.02 28.35,15.29 8.65,9.71 13.6,21.95 17.76,34.09 6.72,19.94 10.05,40.9 11.34,61.86 -0.53,1.55 -1.13,3.12 -1.01,4.79 0.1,6.97 0.57,13.94 0.31,20.92 -0.11,3.9 -0.85,7.96 0.72,11.69 -0.78,10.14 -1.98,20.27 -3.7,30.3 -1.39,7.8 -3.78,15.92 -9.68,21.55 -4.65,4.84 -11.86,7.26 -18.41,5.42 -5.64,-1.29 -9.79,-6.14 -11.53,-11.47 -2.07,-5.59 -1.66,-11.64 -1.43,-17.47 1.71,-17.62 4.05,-35.26 3.69,-53 -0.52,-7.36 -1.06,-15.24 -5.47,-21.47 -4.04,-5.8 -11.99,-8.22 -18.63,-5.87 -4.79,1.83 -8.87,5.15 -12.38,8.83 -6.51,7.14 -11.36,15.63 -15.27,24.42 -10.12,22.49 -16.68,46.34 -24.29,69.74 -4.29,12.9 -11.28,25.38 -22.18,33.83 -9.96,7.78 -22.57,11.34 -35.01,12.39 -5.6,-1.41 -11.55,-1.08 -17.19,-0.09 -19.06,-2.04 -35.58,-14.67 -45.54,-30.61 -9.95,-16.23 -19.16,-32.88 -28.66,-49.37 -4.49,-7.69 -8.5,-15.78 -14.44,-22.49 -3.16,-3.5 -7.77,-6.7 -12.72,-5.59 -5.22,0.72 -9.36,5.1 -10.48,10.14 -1.97,8.19 -0.93,16.75 0.7,24.91 2.92,14.02 7.65,27.57 11.73,41.27 2.02,6.85 4.05,13.77 4.81,20.89 0.62,6.13 -0.87,13.01 -5.71,17.18 -6.18,5.34 -15.85,4.63 -22.28,0.11 C 26.14,247.52 22.76,240.7 20.01,234.04 9.24,206.73 1.91,177.88 0,148.54 V 130.62 C 1.76,107.82 5.83,84.7 16.1,64.08 22.85,50.61 33.41,38.25 47.79,32.78 c 11.23,-4.3 24.19,-4.56 35.42,-0.16 9.73,3.88 16.96,11.78 24.02,19.21 9.81,12.13 18.21,25.33 26.52,38.51 4.55,7.31 8.8,14.97 15,21.05 5.01,5.27 11.15,9.78 18.29,11.57 11.21,3.24 24.03,-1.63 30.7,-11.1 4,-5.16 6.33,-11.32 8.82,-17.28 7.88,-19.57 15.46,-39.3 24.63,-58.32 C 240.56,17.65 258.42,2.29 279.64,0 Z" />
    </g>
    <g
       transform="translate(0,994.32282)"
       id="#01da95ff">
      <path
         style="opacity:1;fill:#01da95"
         inkscape:connector-curvature="0"
         id="path22"
         d="m 443.22,95.15 c 29.6,0.03 59.2,-0.37 88.8,0.01 313.33,0 626.65,0 939.97,0 10.51,0.22 21.06,-0.48 31.55,0.38 17.8,1.48 32.94,17.62 33.01,35.54 0.37,25.62 0.05,51.26 0.16,76.89 -0.01,58.67 0.01,117.34 -0.01,176.02 0.1,8.44 -1.74,17.11 -6.88,23.97 -5.36,7.79 -13.87,13.04 -23.04,15.04 H 473.39 c -16.93,-2.96 -30.18,-18.83 -30.24,-35.98 0,-70.01 0,-140.01 0,-210.01 -0.39,-27.29 0,-54.58 0.07,-81.86 m 704.52,83.45 c 0.23,53.86 0.1,107.73 0.07,161.6 9.43,-0.11 18.87,-0.03 28.31,-0.05 0.12,-53.85 -0.05,-107.7 0.09,-161.55 -9.49,-0.16 -18.99,-0.12 -28.47,0 m -622.73,1.48 c 0.03,53.39 -0.1,106.77 0.06,160.15 9.95,-0.14 19.91,-0.14 29.86,0 0.15,-22.78 0.03,-45.57 0.06,-68.35 19.16,-0.03 38.32,-0.1 57.48,0.04 0.04,-9.26 0.11,-18.52 -0.01,-27.78 -19.14,0.1 -38.29,-0.08 -57.43,0.1 -0.08,-12.08 0,-24.16 -0.03,-36.24 23.83,0 47.67,0 71.51,0 -0.03,-9.28 -0.04,-18.56 -0.01,-27.83 -33.83,-0.06 -67.66,0.11 -101.49,-0.09 m 898.5,0.11 c -15.56,9.27 -31.46,18.13 -46.82,27.61 -0.52,10.44 0.1,20.94 -0.32,31.4 10.3,-6.16 20.72,-12.13 30.87,-18.52 -0.21,39.82 0.01,79.65 -0.11,119.47 9.69,0.02 19.37,-0.05 29.06,0.05 -0.09,-53.36 -0.05,-106.72 -0.01,-160.08 -4.23,0.03 -8.46,0.04 -12.67,0.07 m -746.07,43.46 c -9.17,0.94 -18.19,3.95 -25.9,9.06 -11.79,7.77 -19.79,20.58 -22.7,34.3 -3.79,17.38 -1.48,36.61 8.56,51.56 8.16,12.34 21.9,20.47 36.43,22.67 12.76,1.98 26.23,1.02 38.15,-4.18 13.98,-6 24.71,-18.52 29.13,-33.01 2.83,-8.05 3.36,-16.64 3.03,-25.1 -0.24,-17.41 -8.37,-34.91 -22.63,-45.2 -12.62,-9.02 -28.86,-11.95 -44.07,-10.1 m 124.08,6 c -5.47,3.44 -9.31,8.74 -13.37,13.62 0.77,-6.07 0.14,-12.2 0.37,-18.29 -9.51,0.06 -19.01,0.01 -28.51,0.03 -0.01,38.38 -0.02,76.76 0,115.15 9.43,0.04 18.87,-0.14 28.31,0.09 0.45,-10.42 0.07,-20.86 0.2,-31.28 -0.06,-13.64 -0.24,-27.74 4.9,-40.62 3.3,-8.84 10.41,-16.94 19.93,-18.97 6.03,-1.12 12.72,-0.82 17.91,2.8 -0.22,-9.35 -0.08,-18.71 -0.07,-28.06 -10.09,-2.5 -21.11,-0.28 -29.67,5.53 m 93.4,-5.44 c -10.37,2.38 -18.37,10.38 -23.9,19.1 -0.06,-6.08 -0.01,-12.17 -0.08,-18.25 -9.5,-0.08 -18.99,-0.06 -28.48,-0.03 0.1,38.38 0.1,76.76 0.01,115.14 9.48,0.01 18.97,-0.11 28.45,0.05 0.14,-7.76 0.04,-15.52 0.07,-23.28 0.15,-17.07 -1.26,-34.73 4.69,-51.08 2.66,-7.74 7.85,-15.64 16.24,-17.78 3.88,-0.38 8.16,-0.76 11.65,1.39 4.74,2.63 6.27,8.44 6.3,13.51 -0.07,25.73 0.06,51.46 -0.06,77.2 9.56,-0.06 19.13,-0.04 28.71,-0.02 -0.08,-16.4 -0.02,-32.8 -0.04,-49.2 0.46,-11.17 2.04,-22.75 7.8,-32.53 3.56,-6.19 10.24,-11.31 17.69,-10.61 4.5,-0.34 9.28,1.99 11.27,6.15 2.36,4.26 1.87,9.29 1.91,13.98 -0.01,24.09 -0.03,48.18 0.01,72.27 9.57,-0.17 19.14,-0.03 28.72,-0.07 -0.07,-24.71 -0.01,-49.42 -0.03,-74.13 -0.05,-5.36 0.32,-10.76 -0.81,-16.04 -1.44,-9.59 -7.14,-18.77 -16.01,-23.08 -9.19,-4.25 -20.16,-5.17 -29.7,-1.52 -9.97,3.79 -17.97,11.81 -22.83,21.17 -2.04,-4.71 -4.06,-9.6 -7.72,-13.31 -8.33,-9.22 -22.1,-11.89 -33.86,-9.03 m 320.08,7.63 c -9.49,6.07 -16.2,15.84 -19.73,26.43 -3.34,10.17 -4.33,21.06 -3.34,31.69 0.95,17.01 8.74,34.41 23.4,43.82 9.91,6.43 21.97,8.85 33.65,8.34 10.56,-0.27 20.92,-5.01 27.7,-13.18 -0.27,3.68 -0.15,7.37 -0.27,11.06 9.49,0.39 19.01,-0.05 28.51,0.22 0.16,-38.39 0.08,-76.78 0.04,-115.18 -9.5,-0.08 -19.01,-0.01 -28.51,-0.03 0.02,3.42 0.07,6.85 0.1,10.27 -8.36,-8.06 -19.99,-12.49 -31.59,-12.16 -10.48,0.34 -21.19,2.74 -29.96,8.72 m -188.93,-6.79 c 0.19,23.32 0.02,46.66 0.08,69.99 0.22,7.57 -0.73,15.28 1.17,22.72 1.66,7.09 5.52,13.99 11.72,18.04 10.09,6.95 23.58,7.99 35.1,4.4 9.52,-3 17.13,-9.97 23.09,-17.75 -0.13,5.93 -0.12,11.85 -0.06,17.78 9.57,-0.2 19.14,-0.03 28.71,-0.08 -0.02,-38.37 -0.12,-76.74 0.05,-115.1 -9.61,-0.1 -19.22,0 -28.83,-0.05 0.1,15 0.01,30.01 0.04,45.01 0.17,10.68 -1.21,21.62 -5.62,31.44 -3.04,6.48 -7.81,12.77 -14.76,15.28 -5.77,2.25 -12.8,1 -17.33,-3.23 -3.39,-3.61 -4.67,-8.7 -4.59,-13.54 0.07,-25 -0.06,-50.01 0.07,-75.01 -9.62,0.16 -19.23,-0.02 -28.84,0.1 z" />
      <path
         style="opacity:1;fill:#01da95"
         inkscape:connector-curvature="0"
         id="path24"
         d="m 679.31,248.33 c 7.03,-1.16 14.88,-0.79 20.89,3.49 9.25,6.15 13.71,17.49 14.12,28.28 0.66,11.23 -2.56,23.44 -11.15,31.18 -9.72,8.86 -26.38,8.68 -35.59,-0.86 -7.02,-6.44 -9.78,-16.14 -10.5,-25.36 -0.33,-9.31 1.75,-18.97 7.3,-26.59 3.63,-4.95 8.92,-8.71 14.93,-10.14 z" />
      <path
         style="opacity:1;fill:#01da95"
         inkscape:connector-curvature="0"
         id="path26"
         d="m 1244.19,248.34 c 5.04,-0.77 10.47,-1.01 15.3,0.95 9.19,3.22 15.63,11.89 17.99,21.11 2.97,11.26 2.01,23.93 -4.04,34.04 -3.96,6.11 -10.08,11.13 -17.31,12.66 -7.18,1.81 -15.07,-0.02 -21.04,-4.29 -7.58,-5.06 -11.7,-13.99 -13.04,-22.78 -1.39,-10.07 -0.15,-20.95 5.47,-29.62 3.99,-5.75 9.78,-10.38 16.67,-12.07 z" />
    </g>
    <g
       transform="translate(0,994.32282)"
       id="#02386dff">
      <path
         style="opacity:1;fill:#02386d"
         inkscape:connector-curvature="0"
         id="path29"
         d="m 344.84,116.03 c -0.12,-1.67 0.48,-3.24 1.01,-4.79 0.68,12.46 0.9,24.94 0.02,37.4 -1.57,-3.73 -0.83,-7.79 -0.72,-11.69 0.26,-6.98 -0.21,-13.95 -0.31,-20.92 z" />
    </g>
    <g
       transform="translate(0,994.32282)"
       id="#00336bff">
      <path
         style="opacity:1;fill:#00336b"
         inkscape:connector-curvature="0"
         id="path32"
         d="m 154.39,245.75 c 5.64,-0.99 11.59,-1.32 17.19,0.09 -5.72,0.39 -11.49,0.55 -17.19,-0.09 z" />
    </g>
  </g>
  <g
     transform="matrix(0.75,0,0,0.75,-2.5433274e-5,1.6264702e-5)"
     id="g843">
    <path
       transform="matrix(0.71081394,0,0,-0.71079368,527.59572,1362.1297)"
       sodipodi:nodetypes="cccc"
       inkscape:connector-curvature="0"
       id="path2346"
       d="m 1876.9659,838.75924 0.3356,1038.33096 -1038.51194,0.2112 C 1304.6053,1632.379 1667.2142,1298.7208 1876.9659,838.75924 Z"
       inkscape:transform-center-y="-0.69622776"
       inkscape:transform-center-x="169.4141"
       style="opacity:1;fill:url(#linearGradient2355);fill-opacity:1;stroke:none;stroke-width:7.55905533;stroke-miterlimit:4;stroke-dasharray:none;stroke-opacity:1;filter:url(#filter3369)" />
    <text
       id="text854"
       y="327.51648"
       x="1300.8665"
       style="font-style:normal;font-weight:normal;font-size:333.33334351px;line-height:1.25;font-family:sans-serif;letter-spacing:0px;word-spacing:0px;fill:#000000;fill-opacity:1;stroke:#d5e2eb;stroke-width:13.22834682;stroke-miterlimit:4;stroke-dasharray:none;stroke-opacity:1"
       xml:space="preserve"><tspan
         dx="0"
         style="font-style:normal;font-variant:normal;font-weight:bold;font-stretch:normal;font-family:sans-serif;-inkscape-font-specification:'sans-serif Bold';letter-spacing:-25.87000084px;stroke:#d5e2eb;stroke-width:13.22834682;stroke-miterlimit:4;stroke-dasharray:none;stroke-opacity:1"
         y="327.51648"
         x="1300.8665"
         id="tspan852"
         sodipodi:role="line">HD</tspan></text>
  </g>
</svg>
