<?xml version="1.0" encoding="UTF-8" standalone="no"?>
<svg
   xmlns:dc="http://purl.org/dc/elements/1.1/"
   xmlns:cc="http://creativecommons.org/ns#"
   xmlns:rdf="http://www.w3.org/1999/02/22-rdf-syntax-ns#"
   xmlns:svg="http://www.w3.org/2000/svg"
   xmlns="http://www.w3.org/2000/svg"
   xmlns:sodipodi="http://sodipodi.sourceforge.net/DTD/sodipodi-0.dtd"
   xmlns:inkscape="http://www.inkscape.org/namespaces/inkscape"
   id="svg125759"
   version="1.1"
   viewBox="0 0 499.99997 500.00005"
   height="500mm"
   width="500mm"
   sodipodi:docname="hd_mezzo.svg"
   inkscape:version="0.92.4 (5da689c313, 2019-01-14)">
  <sodipodi:namedview
     pagecolor="#ffffff"
     bordercolor="#666666"
     borderopacity="1"
     objecttolerance="10"
     gridtolerance="10"
     guidetolerance="10"
     inkscape:pageopacity="0"
     inkscape:pageshadow="2"
     inkscape:window-width="1920"
     inkscape:window-height="1017"
     id="namedview26"
     showgrid="false"
     units="mm"
     inkscape:zoom="0.20081833"
     inkscape:cx="760.83926"
     inkscape:cy="933.96482"
     inkscape:window-x="-8"
     inkscape:window-y="-8"
     inkscape:window-maximized="1"
     inkscape:current-layer="svg125759" />
  <defs
     id="defs125753">
    <clipPath
       id="clipPath125224"
       clipPathUnits="userSpaceOnUse">
      <path
         id="path125222"
         d="m 229.09,331.9141 h 238.619 v 139.085 H 229.09 Z"
         inkscape:connector-curvature="0" />
    </clipPath>
    <clipPath
       id="clipPath125232"
       clipPathUnits="userSpaceOnUse">
      <path
         id="path125230"
         d="m 231.982,406.4271 h 152.056 v 62.0487 H 231.982 Z"
         inkscape:connector-curvature="0" />
    </clipPath>
  </defs>
  <metadata
     id="metadata125756">
    <rdf:RDF>
      <cc:Work
         rdf:about="">
        <dc:format>image/svg+xml</dc:format>
        <dc:type
           rdf:resource="http://purl.org/dc/dcmitype/StillImage" />
        <dc:title />
      </cc:Work>
    </rdf:RDF>
  </metadata>
  <g
     id="g832"
     transform="matrix(0.97958809,0,0,0.97958809,5.1029767,5.0813)">
    <path
       d="m 226.48122,186.20014 c 0.27359,-1.8755 0.41474,-3.61823 0.41474,-5.22303 0,-1.60674 0,-3.28534 0,-5.02904 0,-4.55081 -0.4418,-8.30535 -1.31285,-11.25458 -0.86943,-2.94601 -2.08238,-5.28684 -3.61951,-7.03375 -1.5439,-1.73854 -3.41585,-2.97663 -5.61843,-3.712 -2.2203,-0.73925 -4.59464,-1.11144 -7.13494,-1.11144 -4.55629,0 -8.31083,0.90326 -11.26264,2.7127 -2.94569,1.80975 -5.2907,4.25692 -7.03182,7.33828 -1.73693,3.08296 -3.04978,6.63287 -3.91663,10.65262 -0.87072,4.01652 -1.44078,8.23768 -1.70986,12.66024 z m -41.38851,2.81228 c 0,1.34056 -0.0451,2.71463 -0.10409,4.11803 -0.0693,1.40888 -0.096,3.18641 -0.096,5.32486 0,4.42675 0.26135,9.04202 0.80112,13.86932 0.53235,4.81893 1.70921,9.18059 3.51542,13.06273 1.80621,3.88892 4.48701,7.10368 8.03982,9.64914 3.54378,2.54159 8.26475,3.81028 14.16386,3.81028 5.89943,0 10.75542,-0.86782 14.56764,-2.60442 3.83091,-1.74466 6.83557,-3.85089 9.0462,-6.33028 2.20967,-2.48101 3.85057,-4.98715 4.93204,-7.53679 1.0631,-2.54932 1.87098,-4.62106 2.41333,-6.23006 l 3.00369,0.601 c -0.39669,1.47816 -1.17009,3.58535 -2.30956,6.3335 -1.13593,2.74654 -2.94215,5.49114 -5.42637,8.24122 -2.4781,2.74139 -5.82306,5.15987 -10.04615,7.2313 -4.22019,2.07271 -9.67685,3.11197 -16.38513,3.11197 -6.68894,0 -12.88871,-1.07374 -18.58287,-3.21509 -5.69545,-2.13427 -10.62072,-5.22239 -14.77195,-9.24214 -4.15767,-4.02071 -7.36696,-8.81031 -9.6501,-14.3701 -2.27218,-5.56139 -3.41263,-11.76051 -3.41263,-18.58609 0,-5.89782 1.1717,-11.62679 3.51736,-17.18399 2.34405,-5.56075 5.55882,-10.48118 9.64237,-14.77162 4.08549,-4.28303 8.87541,-7.73819 14.37364,-10.34745 5.49501,-2.61635 11.3909,-3.92372 17.6867,-3.92372 3.74777,0 7.76365,0.67125 12.0557,2.01245 4.2914,1.33959 8.26862,3.51253 11.96482,6.52976 3.67752,3.01368 6.7592,7.00475 9.23924,11.95483 2.47971,4.96362 3.71554,11.12891 3.71554,18.49136"
       style="fill:#ef3120;stroke-width:3.22250104"
       id="path125236"
       inkscape:connector-curvature="0" />
    <path
       d="m 257.15073,152.63521 h 63.70241 l -50.04384,83.40252 h 28.33513 c 3.8915,0 7.06921,-0.76631 9.54828,-2.31021 2.48068,-1.53713 4.49055,-3.48546 6.03413,-5.82274 1.53359,-2.34824 2.74331,-4.85631 3.61951,-7.54291 0.86685,-2.67628 1.69987,-5.2256 2.50679,-7.63217 h 1.60641 l -2.60829,26.11708 h -69.94278 l 50.04029,-83.39671 h -17.28195 c -3.34335,0 -6.26551,0.0989 -8.73846,0.30356 -2.47907,0.19786 -4.72869,0.90326 -6.72987,2.10816 -2.01503,1.20843 -3.88956,3.1516 -5.62648,5.82853 -1.74724,2.68241 -3.62016,6.49592 -5.63713,11.45793 h -1.60255"
       style="fill:#ef3120;stroke-width:3.22250104"
       id="path125238"
       inkscape:connector-curvature="0" />
    <path
       d="m 333.21562,152.63521 h 63.71335 l -50.04802,83.40252 h 28.33771 c 3.88183,0 7.06663,-0.76631 9.54537,-2.31021 2.48004,-1.53713 4.48379,-3.48546 6.03446,-5.82274 1.53713,-2.34824 2.74138,-4.85631 3.61274,-7.54291 0.8675,-2.67628 1.70567,-5.2256 2.51774,-7.63217 h 1.60127 l -2.61442,26.11708 h -69.93311 l 50.0361,-83.39671 H 358.7375 c -3.35011,0 -6.26486,0.0989 -8.73684,0.30356 -2.48068,0.19786 -4.7287,0.90326 -6.74019,2.10816 -2.006,1.20843 -3.88762,3.1516 -5.61778,5.82853 -1.74821,2.68241 -3.62016,6.49592 -5.6368,11.45793 h -1.60191"
       style="fill:#ef3120;stroke-width:3.22250104"
       id="path125240"
       inkscape:connector-curvature="0" />
    <path
       d="m 421.44576,195.84734 c 0,9.51218 0.73602,17.07861 2.21483,22.7051 1.47397,5.62906 3.4152,9.94915 5.82241,12.96476 2.41752,3.0153 5.2298,4.99069 8.44296,5.93102 3.21605,0.93162 6.63287,1.39856 10.25142,1.39856 3.61339,0 7.03085,-0.46694 10.25464,-1.39856 3.21154,-0.94033 6.02318,-2.91572 8.43715,-5.93102 2.41333,-3.01561 4.3449,-7.3357 5.83015,-12.96476 1.46785,-5.62649 2.20355,-13.19292 2.20355,-22.7051 0,-8.03982 -0.53172,-14.77162 -1.60352,-20.19509 -1.07374,-5.42702 -2.71463,-9.85022 -4.9243,-13.26575 -2.21064,-3.41972 -4.99005,-5.86334 -8.34016,-7.33796 -3.35011,-1.473 -7.30895,-2.21224 -11.85751,-2.21224 -4.55469,0 -8.50644,0.73924 -11.85236,2.21224 -3.36043,1.47462 -6.13049,3.91824 -8.34112,7.33796 -2.21999,3.41553 -3.85379,7.83873 -4.92399,13.26575 -1.07824,5.42347 -1.61415,12.15527 -1.61415,20.19509 z m -20.09648,0 c 0,-6.56423 1.43659,-12.66443 4.32427,-18.29092 2.87641,-5.62648 6.57229,-10.47925 11.05222,-14.56763 4.48958,-4.08775 9.51089,-7.26546 15.07067,-9.54699 5.56074,-2.27637 11.02546,-3.41778 16.38094,-3.41778 5.36063,0 10.81407,1.14141 16.38513,3.41778 5.54946,2.28153 10.57173,5.45924 15.06906,9.54699 4.48185,4.08838 8.16775,8.94115 11.05382,14.56763 2.87737,5.62649 4.31493,11.72669 4.31493,18.29092 0,6.30321 -1.34056,12.23004 -4.01363,17.78982 -2.68337,5.55462 -6.1988,10.41351 -10.55498,14.5686 -4.35037,4.15091 -9.34557,7.4327 -14.97206,9.84603 -5.62907,2.40624 -11.38993,3.61243 -17.28227,3.61243 -5.89492,0 -11.65321,-1.20619 -17.28582,-3.61243 -5.62198,-2.41333 -10.61299,-5.69512 -14.96755,-9.84603 -4.3623,-4.15509 -7.86838,-9.01398 -10.55079,-14.5686 -2.68338,-5.55978 -4.02394,-11.48661 -4.02394,-17.78982"
       style="fill:#ef3120;stroke-width:3.22250104"
       id="path125242"
       inkscape:connector-curvature="0" />
    <path
       d="m 37.760281,191.4251 c 0,-6.96608 0.968361,-12.86132 2.915719,-17.68573 1.941235,-4.82569 4.355532,-8.74007 7.232259,-11.75536 2.884461,-3.01723 5.996108,-5.22915 9.352987,-6.6361 3.342701,-1.40017 6.429857,-2.10558 9.238266,-2.10558 4.016526,0 7.23226,1.40211 9.646557,4.21793 2.413976,2.81582 3.619836,7.16878 3.619836,13.0608 v 66.63262 c -17.348979,4.98424 -31.582122,2.44878 -42.005624,-1.87549 z m 59.28822,-6.63029 c 0,-5.35935 0.838172,-10.05421 2.510006,-14.06912 1.678283,-4.02072 3.849923,-7.30412 6.534263,-9.84764 2.67371,-2.54352 5.69481,-4.45221 9.04492,-5.72897 3.35011,-1.27417 6.68991,-1.90675 10.04002,-1.90675 4.29656,0 7.67342,1.27192 10.14734,3.81705 2.48229,2.54675 3.72585,6.09859 3.72585,10.65101 v 52.3099 c -12.7408,-0.22139 -27.00101,2.57252 -42.002399,10.04647 z m -76.570494,39.95063 c 8.245414,8.12199 35.387252,29.67311 75.218977,9.11742 22.048676,-11.37671 43.661346,-10.09996 60.634256,-5.35354 V 180.3716 c 0,-19.9621 -9.77836,-29.9467 -29.337,-29.9467 -4.16154,0 -7.87773,0.54041 -11.15179,1.61157 -3.28437,1.07309 -6.13049,2.51323 -8.5435,4.31847 -2.40463,1.80976 -4.42127,3.84993 -6.03445,6.13242 -1.602873,2.28025 -2.876406,4.61849 -3.813509,7.03279 h -0.40249 c -1.607062,-6.83073 -4.99101,-11.72346 -10.148301,-14.67462 -5.163091,-2.9444 -11.083148,-4.42063 -17.783694,-4.42063 -7.507783,0 -13.899937,1.87711 -19.190639,5.62745 -5.298436,3.75357 -9.34622,9.64914 -12.165586,17.68702 H 37.356824 V 152.63521 H 4.9996902 v 2.81486 H 20.478007"
       style="fill:#ef3120;stroke-width:3.22250104"
       id="path125244"
       inkscape:connector-curvature="0" />
    <path
       d="m 369.81549,277.10142 v 33.53044 h 28.57779 v -33.53044 h 14.39266 v 1.38793 67.78434 1.38374 h -14.39266 v -34.91451 h -28.57779 v 34.91451 h -14.31306 v -70.55601"
       style="fill:#ef3120;stroke-width:3.22250104"
       id="path125246"
       inkscape:connector-curvature="0" />
    <path
       d="m 448.46643,346.56275 c 4.28271,0 7.94218,-0.50561 10.97778,-1.53165 3.02721,-1.0254 5.59104,-2.41237 7.66665,-4.16412 2.07722,-1.74627 3.72586,-3.74745 4.93719,-5.99804 1.22455,-2.239 2.15425,-4.60206 2.77522,-7.08016 0.62356,-2.48165 1.04699,-4.94944 1.23809,-7.43463 0.20108,-2.47392 0.2955,-4.80475 0.2955,-6.98252 0,-5.3545 -0.32837,-10.19051 -0.99253,-14.51221 -0.65352,-4.3304 -1.96089,-8.03466 -3.90245,-11.09894 -1.94478,-3.07749 -4.68519,-5.43346 -8.20674,-7.08628 -3.53476,-1.65475 -8.16099,-2.47488 -13.90445,-2.47488 -1.318,0 -2.50421,0.0161 -3.55732,0.0461 -1.0544,0.0335 -1.9161,0.11344 -2.5751,0.24395 v 67.78434 c 1.91191,0.19303 3.66205,0.28906 5.24816,0.28906 z m -19.58797,-69.46133 v 0 c 3.363,0 6.72472,-0.0477 10.09191,-0.14373 3.36397,-0.098 6.7289,-0.14533 10.0832,-0.14533 2.9718,0 6.10536,0.19045 9.40294,0.59487 3.2934,0.3896 6.5623,1.09952 9.78513,2.12911 3.23603,1.0167 6.30353,2.38981 9.20346,4.11288 2.90347,1.71018 5.47245,3.8931 7.71595,6.53136 2.2419,2.64535 4.02201,5.78922 5.33904,9.41841 1.32059,3.62982 1.9812,7.89609 1.9812,12.78398 0,4.81925 -0.66061,9.05458 -1.9812,12.6799 -1.31703,3.63143 -3.08071,6.77659 -5.28973,9.4097 -2.21225,2.64696 -4.72838,4.83246 -7.56611,6.54329 -2.83838,1.72307 -5.78504,3.08715 -8.85286,4.11127 -3.06685,1.03377 -6.10084,1.73628 -9.10388,2.1291 -2.99339,0.4012 -5.77956,0.59584 -8.35563,0.59584 -3.75711,0 -7.49876,-0.029 -11.22977,-0.096 -3.72682,-0.0632 -7.46202,-0.0986 -11.22365,-0.0986"
       style="fill:#ef3120;stroke-width:3.22250104"
       id="path125248"
       inkscape:connector-curvature="0" />
  </g>
</svg>
