<?xml version="1.0" encoding="UTF-8" standalone="no"?>
<svg
   xmlns:dc="http://purl.org/dc/elements/1.1/"
   xmlns:cc="http://creativecommons.org/ns#"
   xmlns:rdf="http://www.w3.org/1999/02/22-rdf-syntax-ns#"
   xmlns:svg="http://www.w3.org/2000/svg"
   xmlns="http://www.w3.org/2000/svg"
   xmlns:xlink="http://www.w3.org/1999/xlink"
   xmlns:sodipodi="http://sodipodi.sourceforge.net/DTD/sodipodi-0.dtd"
   xmlns:inkscape="http://www.inkscape.org/namespaces/inkscape"
   version="1.1"
   id="Capa_1"
   x="0px"
   y="0px"
   width="500mm"
   height="500mm"
   viewBox="9.46 0 1889.7638 1889.7637"
   enable-background="new 9.46 0 180.49 55"
   xml:space="preserve"
   sodipodi:docname="hd_mega.svg"
   inkscape:version="0.92.4 (5da689c313, 2019-01-14)"><sodipodi:namedview
   pagecolor="#ffffff"
   bordercolor="#666666"
   borderopacity="1"
   objecttolerance="10"
   gridtolerance="10"
   guidetolerance="10"
   inkscape:pageopacity="0"
   inkscape:pageshadow="2"
   inkscape:window-width="1920"
   inkscape:window-height="1017"
   id="namedview6"
   showgrid="false"
   units="mm"
   inkscape:zoom="0.37368421"
   inkscape:cx="576.02973"
   inkscape:cy="1054.4944"
   inkscape:window-x="-8"
   inkscape:window-y="-8"
   inkscape:window-maximized="1"
   inkscape:current-layer="Capa_1" /><metadata
   id="metadata9"><rdf:RDF><cc:Work
       rdf:about=""><dc:format>image/svg+xml</dc:format><dc:type
         rdf:resource="http://purl.org/dc/dcmitype/StillImage" /><dc:title /></cc:Work></rdf:RDF></metadata><defs
   id="defs7"><linearGradient
     inkscape:collect="always"
     xlink:href="#linearGradient2367"
     id="linearGradient2355"
     x1="1687.0757"
     y1="1680.0857"
     x2="1378.3104"
     y2="1369.6112"
     gradientUnits="userSpaceOnUse"
     gradientTransform="matrix(1.0959189,0,0,1.1013931,-198.01018,-203.48459)" /><linearGradient
     id="linearGradient2367"
     inkscape:collect="always"><stop
       id="stop2363"
       offset="0"
       style="stop-color:#b5cbdb;stop-opacity:1" /><stop
       id="stop2365"
       offset="1"
       style="stop-color:#fafafa;stop-opacity:0.50196081" /></linearGradient><filter
     inkscape:collect="always"
     style="color-interpolation-filters:sRGB"
     id="filter3369"
     x="-0.012000175"
     width="1.0240003"
     y="-0.011999825"
     height="1.0239997"><feGaussianBlur
       inkscape:collect="always"
       stdDeviation="5.1926353"
       id="feGaussianBlur3371" /></filter></defs>
<g
   id="g817"
   transform="matrix(9.6498576,0,0,9.6498576,-53.682232,-17020.135)"><path
     inkscape:connector-curvature="0"
     style="fill:#bc0014;stroke-width:1.55091202"
     id="path2"
     d="m 175.40569,1834.6106 h -14.4669 l -9.66529,22.7038 h -26.05377 v 10.557 h 10.26084 v 6.3216 c -2.15577,1.4113 -4.83265,2.1542 -8.3253,2.1542 -8.2524,0 -14.12415,-6.0207 -14.12415,-14.4235 v -0.1489 c 0,-7.9546 5.7973,-14.273 13.30682,-14.273 5.12887,0 8.84795,1.7835 12.56239,4.9086 l 8.47418,-10.1848 c -5.49953,-4.7582 -11.96994,-7.615 -21.11412,-7.615 -0.0171,0 -0.0326,0 -0.0496,0 v 0 H 58.963221 l -16.262863,21.6399 -16.030226,-21.6399 H 10.46 v 54.1532 h 14.705747 v -27.9537 l 17.605953,23.9135 17.441557,-23.9135 v 27.9537 h 0.06514 v 0 h 43.999373 v -9.7072 c 5.09164,6.0641 13.01835,9.7072 22.2804,9.7072 0.24349,0 27.10839,0 27.10839,0 l 3.86642,-9.6017 h 20.88924 l 3.94552,9.6017 H 198.46 Z m -98.816354,41.3892 v -8.589 h 18.446547 v -11.835 H 76.589336 v -8.2012 h 25.129424 0.53972 c -2.572963,4.1363 -4.021514,9.0325 -4.021514,14.3273 v 0.1489 c 0,5.3274 1.384964,10.1259 3.844714,14.149 z m 85.354444,-8.437 6.11059,-15.2842 6.03615,15.2842 z" /></g>
<g
   transform="translate(9.4599625,2.1625722e-5)"
   id="g843"><path
     transform="matrix(0.71081394,0,0,-0.71079368,527.59572,1362.1297)"
     sodipodi:nodetypes="cccc"
     inkscape:connector-curvature="0"
     id="path2346"
     d="m 1876.9659,838.75924 0.3356,1038.33096 -1038.51194,0.2112 C 1304.6053,1632.379 1667.2142,1298.7208 1876.9659,838.75924 Z"
     inkscape:transform-center-y="-0.69622776"
     inkscape:transform-center-x="169.4141"
     style="opacity:1;fill:url(#linearGradient2355);fill-opacity:1;stroke:none;stroke-width:7.55905533;stroke-miterlimit:4;stroke-dasharray:none;stroke-opacity:1;filter:url(#filter3369)" /><text
     id="text854"
     y="327.51648"
     x="1300.8665"
     style="font-style:normal;font-weight:normal;font-size:333.33334351px;line-height:1.25;font-family:sans-serif;letter-spacing:0px;word-spacing:0px;fill:#000000;fill-opacity:1;stroke:#d5e2eb;stroke-width:13.22834682;stroke-miterlimit:4;stroke-dasharray:none;stroke-opacity:1"
     xml:space="preserve"><tspan
       dx="0"
       style="font-style:normal;font-variant:normal;font-weight:bold;font-stretch:normal;font-family:sans-serif;-inkscape-font-specification:'sans-serif Bold';letter-spacing:-25.87000084px;stroke:#d5e2eb;stroke-width:13.22834682;stroke-miterlimit:4;stroke-dasharray:none;stroke-opacity:1"
       y="327.51648"
       x="1300.8665"
       id="tspan852"
       sodipodi:role="line">HD</tspan></text>
</g></svg>