<?xml version="1.0" encoding="UTF-8" standalone="no"?>
<!-- Generator: Adobe Illustrator 23.0.4, SVG Export Plug-In . SVG Version: 6.00 Build 0)  -->

<svg
   xmlns:ns="http://ns.adobe.com/SaveForWeb/1.0/"
   xmlns:dc="http://purl.org/dc/elements/1.1/"
   xmlns:cc="http://creativecommons.org/ns#"
   xmlns:rdf="http://www.w3.org/1999/02/22-rdf-syntax-ns#"
   xmlns:svg="http://www.w3.org/2000/svg"
   xmlns="http://www.w3.org/2000/svg"
   xmlns:xlink="http://www.w3.org/1999/xlink"
   xmlns:sodipodi="http://sodipodi.sourceforge.net/DTD/sodipodi-0.dtd"
   xmlns:inkscape="http://www.inkscape.org/namespaces/inkscape"
   version="1.1"
   id="Layer_1"
   x="0px"
   y="0px"
   viewBox="0 0 1889.7638 1889.7637"
   xml:space="preserve"
   sodipodi:docname="hd_movistar_liga.svg"
   width="500mm"
   height="500mm"
   inkscape:version="0.92.4 (5da689c313, 2019-01-14)"><defs
   id="defs48"><linearGradient
     inkscape:collect="always"
     xlink:href="#linearGradient2367"
     id="linearGradient2355"
     x1="1687.0757"
     y1="1680.0857"
     x2="1378.3104"
     y2="1369.6112"
     gradientUnits="userSpaceOnUse"
     gradientTransform="matrix(1.0959189,0,0,1.1013931,-198.01018,-203.48459)" /><linearGradient
     id="linearGradient2367"
     inkscape:collect="always"><stop
       id="stop2363"
       offset="0"
       style="stop-color:#b5cbdb;stop-opacity:1" /><stop
       id="stop2365"
       offset="1"
       style="stop-color:#fafafa;stop-opacity:0.50196081" /></linearGradient><filter
     inkscape:collect="always"
     style="color-interpolation-filters:sRGB"
     id="filter3369"
     x="-0.012000175"
     width="1.0240003"
     y="-0.011999825"
     height="1.0239997"><feGaussianBlur
       inkscape:collect="always"
       stdDeviation="5.1926353"
       id="feGaussianBlur3371" /></filter></defs><sodipodi:namedview
   pagecolor="#ffffff"
   bordercolor="#666666"
   borderopacity="1"
   objecttolerance="10"
   gridtolerance="10"
   guidetolerance="10"
   inkscape:pageopacity="0"
   inkscape:pageshadow="2"
   inkscape:window-width="1920"
   inkscape:window-height="1017"
   id="namedview46"
   showgrid="false"
   units="mm"
   inkscape:zoom="0.29583333"
   inkscape:cx="337.30402"
   inkscape:cy="937.58262"
   inkscape:window-x="-8"
   inkscape:window-y="-8"
   inkscape:window-maximized="1"
   inkscape:current-layer="Layer_1" />
<style
   type="text/css"
   id="style2">
	.st0{fill:#00DC94;}
	.st1{fill:#FFFFFF;}
	.st2{fill:#035786;}
</style>
<metadata
   id="metadata4">
	<ns:sfw>
		<ns:slices />
		<ns:sliceSourceBounds
   bottomLeftOrigin="true"
   height="336"
   width="960"
   x="-230"
   y="82" />
	</ns:sfw>
<rdf:RDF><cc:Work
     rdf:about=""><dc:format>image/svg+xml</dc:format><dc:type
       rdf:resource="http://purl.org/dc/dcmitype/StillImage" /><dc:title /></cc:Work></rdf:RDF></metadata>


<g
   id="g878"
   transform="matrix(1.8897658,0,0,1.8897658,37.792426,-2308.8469)"><path
     style="fill:#00dc94"
     inkscape:connector-curvature="0"
     id="path6"
     d="M 930.2,1889.7638 H 379.8 c -16.4,0 -29.8,-13.3 -29.8,-29.8 v -231.8 h 580.2 c 16.4,0 29.8,13.3 29.8,29.8 v 202.1 c 0,16.4 -13.3,29.7 -29.8,29.7 z"
     class="st0" /><g
     transform="translate(0,1553.7638)"
     id="g42">
	<g
   id="g24">
		<path
   style="fill:#ffffff"
   inkscape:connector-curvature="0"
   id="path8"
   d="m 455.2,117.3 c 0.7,-0.1 1.6,-0.3 2.3,0.1 0.3,0.6 0.4,1.3 0.5,2 2.1,11.2 4.2,22.3 6.2,33.5 0.2,0.8 -0.6,1.3 -1.2,1.3 -10.7,1.9 -20.4,8.4 -26.3,17.5 -0.6,0.9 -1,1.8 -1.7,2.7 -0.4,0.5 -1,0.2 -1.5,-0.1 -10,-5.8 -20.1,-11.7 -30.1,-17.5 -0.4,-0.3 -0.9,-0.5 -0.9,-1 0.2,-1 0.9,-1.8 1.4,-2.7 11.1,-18.5 30.2,-31.7 51.3,-35.8 z"
   class="st1" />
		<path
   style="fill:#ffffff"
   inkscape:connector-curvature="0"
   id="path10"
   d="m 472.9,125.9 c 20.4,-1.4 41.4,5.6 56.7,19.3 0.5,0.5 0.1,1.3 -0.3,1.7 -7.7,8.8 -15.3,17.7 -23,26.5 -0.4,0.6 -1.3,0.5 -1.8,-0.1 -8.7,-7.7 -21,-11.3 -32.5,-9.5 -0.6,0.2 -1.5,0 -1.6,-0.8 -1.7,-11.6 -3.4,-23.2 -5.2,-34.9 -0.2,-0.6 0,-1.3 0.6,-1.5 2.4,-0.4 4.8,-0.5 7.1,-0.7 z"
   class="st1" />
		<path
   style="fill:#ffffff"
   inkscape:connector-curvature="0"
   id="path12"
   d="m 389.5,156.3 c 0.6,-0.4 1.2,0.1 1.8,0.3 10.2,5.5 20.4,10.9 30.5,16.4 0.9,0.4 0.7,1.4 0.2,2.1 -5.5,10.1 -6.2,22.7 -1.9,33.4 0.4,0.7 0.2,1.7 -0.6,1.9 -10.8,4.2 -21.6,8.3 -32.5,12.5 -0.6,0.3 -1.6,0.5 -1.9,-0.3 -4.6,-11.3 -6.2,-23.8 -5.1,-35.9 1,-10.3 4,-20.5 8.9,-29.6 0.1,-0.3 0.3,-0.5 0.6,-0.8 z"
   class="st1" />
		<path
   style="fill:#ffffff"
   inkscape:connector-curvature="0"
   id="path14"
   d="m 527,158.3 c 0.4,-0.2 0.9,-0.2 1.2,0.1 16.8,15.5 26.1,38.7 24.6,61.5 -0.2,0.7 -0.9,0.8 -1.5,0.7 -11.7,-0.6 -23.4,-1.1 -35.1,-1.7 -0.8,0.1 -1.1,-0.9 -0.9,-1.5 0.7,-11.7 -4.1,-23.5 -12.7,-31.4 -0.6,-0.4 -0.7,-1.3 -0.1,-1.8 5.2,-5.5 10.4,-10.9 15.5,-16.4 3,-3.2 5.9,-6.4 9,-9.5 z"
   class="st1" />
		<path
   style="fill:#ffffff"
   inkscape:connector-curvature="0"
   id="path16"
   d="m 411.4,218.4 c 0.9,-0.3 1.3,0.7 1.6,1.3 4.6,10.6 14,18.9 25.1,22.2 0.8,0.1 1.3,0.8 0.9,1.6 -3.5,11.2 -7,22.4 -10.5,33.6 -0.1,0.7 -0.9,1.2 -1.5,0.8 -16,-4.8 -30.3,-15.1 -40.2,-28.6 -3.5,-4.8 -6.5,-10 -8.7,-15.4 -0.4,-0.7 0.3,-1.3 1,-1.5 10.8,-4.6 21.5,-9.3 32.3,-14 z"
   class="st1" />
		<path
   style="fill:#ffffff"
   inkscape:connector-curvature="0"
   id="path18"
   d="m 504.4,223.1 c 0.4,-0.3 1,-0.2 1.5,-0.2 11.4,0.9 22.8,1.8 34.2,2.7 0.7,0 1.7,0.2 1.5,1.1 -1.4,22.7 -13.5,44.4 -32,57.7 -0.6,0.5 -1.4,0.1 -1.7,-0.5 -6.6,-9 -13.2,-17.9 -19.7,-26.9 -0.4,-0.6 -0.9,-1.2 -1.3,-1.8 -0.3,-0.8 0.5,-1.2 1,-1.6 9.2,-6.8 15.2,-17.6 16.1,-29 0,-0.5 0,-1.1 0.4,-1.5 z"
   class="st1" />
		<path
   style="fill:#ffffff"
   inkscape:connector-curvature="0"
   id="path20"
   d="m 475.3,248.5 c 0.6,-0.5 1.4,-0.2 1.8,0.5 6.4,9.5 12.8,19.1 19.2,28.6 0.3,0.6 1,1.3 0.3,1.9 -18.7,13.1 -43.3,17 -65.3,10.8 -0.7,-0.1 -0.9,-1 -0.7,-1.6 3,-10.7 5.9,-21.5 8.9,-32.2 0.2,-0.7 0.4,-1.4 0.7,-2.1 0.4,-0.7 1.4,-0.3 2,-0.2 11.3,3.1 23.6,0.9 33.1,-5.7 z"
   class="st1" />
		<path
   style="fill:#ffffff"
   inkscape:connector-curvature="0"
   id="path22"
   d="m 460.8,177 c 5,-0.5 10,0.2 14.6,2.2 5.9,2.5 10.9,7 14.1,12.6 3,5.3 4.3,11.5 3.7,17.5 -0.5,5.1 -2.4,10 -5.4,14.2 -3.6,5.1 -8.9,8.9 -14.8,10.8 -5.2,1.7 -10.9,1.9 -16.3,0.6 -5.4,-1.3 -10.4,-4.3 -14.2,-8.3 -4.4,-4.6 -7.2,-10.6 -7.9,-17 -0.8,-6.7 0.9,-13.7 4.6,-19.4 4.8,-7.3 12.9,-12.3 21.6,-13.2 m -19.1,14 c 1,-0.7 2,-1.3 3.2,-1.7 -1.3,2.9 -2.1,6 -1.7,9.2 2.5,1.2 5.2,2.2 7.6,3.5 -2.8,-0.4 -5.5,-1.1 -8.2,-1.6 -2.2,2.4 -3.4,5.4 -4.2,8.5 -0.6,-1 -1,-2.1 -1.6,-3.2 0,5.9 1.8,11.9 5.4,16.6 -0.2,-1.1 -0.4,-2.1 -0.5,-3.2 0.8,0.4 1.4,1.1 2.1,1.6 1.8,1.3 3.9,2.3 6.2,2.8 1.9,-2.1 3.8,-4.2 5.8,-6.3 -1.1,2.6 -2.7,5 -4.1,7.4 1.5,2.8 4.1,4.9 6.8,6.6 -1.1,0.2 -2.2,0.3 -3.2,0.6 5.5,1.7 11.6,1.8 17.1,-0.1 -1.1,-0.2 -2.2,-0.3 -3.3,-0.5 2.8,-1.6 5.2,-3.7 6.9,-6.5 -1.3,-2.5 -3,-4.9 -4.1,-7.5 2,2 3.9,4.2 5.8,6.3 2,-0.5 4,-1.3 5.7,-2.5 0.9,-0.5 1.6,-1.3 2.5,-1.9 -0.1,1.1 -0.4,2.1 -0.4,3.2 3.3,-4.7 5.5,-10.5 5.1,-16.3 -0.4,1 -0.8,2 -1.4,2.9 -0.8,-3.1 -2,-6.2 -4.2,-8.5 -2.7,0.6 -5.5,1.2 -8.2,1.6 2.4,-1.5 5.3,-2.3 7.7,-3.7 0.3,-3.1 -0.4,-6.2 -1.7,-9 1.1,0.4 2,1 3,1.5 -3.4,-4.9 -8.5,-8.5 -14.2,-10.3 0.9,0.8 1.8,1.6 2.6,2.5 -3.2,-0.4 -6.4,-0.1 -9.3,1.2 -0.3,2.5 -0.6,5 -0.9,7.5 0,0.3 -0.1,0.5 -0.3,0.6 -0.3,-2.7 -0.6,-5.4 -0.9,-8.1 -2.9,-1.3 -6.2,-1.6 -9.3,-1.3 0.7,-0.9 1.7,-1.7 2.5,-2.5 -5.7,1.8 -10.9,5.6 -14.3,10.6 z m 10.3,11.4 c 4,-2.9 8,-5.8 11.9,-8.7 4,2.9 8,5.8 11.9,8.7 -1.5,4.7 -3.1,9.3 -4.5,14 -4.9,0.1 -9.9,0.1 -14.8,0 -1.5,-4.7 -3,-9.3 -4.5,-14 z"
   class="st1" />
	</g>
	<g
   id="g40">
		<path
   style="fill:#ffffff"
   inkscape:connector-curvature="0"
   id="path26"
   d="m 770.1,150.1 c 2.5,-0.8 5.2,-0.7 7.6,0.1 4.7,1.6 8.1,6.5 7.7,11.6 -0.1,6.1 -5.7,11.4 -11.8,11.1 -5.4,0.3 -10.3,-4 -11.2,-9.2 -1.2,-5.7 2.2,-11.9 7.7,-13.6 z"
   class="st1" />
		<path
   style="fill:#ffffff"
   inkscape:connector-curvature="0"
   id="path28"
   d="m 582.3,240.7 c 0.2,-26.4 -0.1,-52.8 0.1,-79.3 6.9,0.1 13.7,0.1 20.6,0 0.2,20.4 0,40.8 0.1,61.3 8.3,0 16.5,0 24.8,0 0.1,6 0,12.1 0,18.1 -15.2,-0.1 -30.4,0.1 -45.6,-0.1 z"
   class="st1" />
		<path
   style="fill:#ffffff"
   inkscape:connector-curvature="0"
   id="path30"
   d="m 710.2,161.5 c 6.9,0 13.7,-0.1 20.6,0 -0.1,20.4 0,40.8 0,61.2 8.3,0 16.6,0.1 24.9,-0.1 0.2,6 0,12.1 0.1,18.1 h -45.5 z"
   class="st1" />
		<path
   style="fill:#ffffff"
   inkscape:connector-curvature="0"
   id="path32"
   d="m 656.1,176.6 c 5.7,-1.1 11.8,-0.8 17,2 2.5,1.3 4.7,3.1 6.9,5 0,-2.1 0,-4.2 0,-6.3 6.4,0 12.8,0 19.1,0 0,21.2 0,42.4 0,63.6 -6.5,0 -13,0 -19.5,0 0,-1.9 0,-3.8 0,-5.7 -4,3.3 -8.7,6 -13.9,6.8 -8.5,1.4 -17.8,-0.7 -24.3,-6.5 -5.7,-5 -8.9,-12.4 -9.8,-19.8 -1.2,-8.5 0.2,-17.5 4.8,-24.8 4.3,-7.2 11.4,-12.7 19.7,-14.3 m 4.7,18 c -4.3,1.3 -7.7,4.8 -9.1,8.9 -1.7,5 -1,10.9 2,15.3 1.9,3 5.1,5.1 8.5,5.8 5.3,1.1 11,-0.8 14.6,-4.8 5.7,-6.3 4.9,-17.2 -1.6,-22.5 -4,-3.3 -9.6,-4.1 -14.4,-2.7 z"
   class="st1" />
		<path
   style="fill:#ffffff"
   inkscape:connector-curvature="0"
   id="path34"
   d="m 803.6,181 c 6.6,-5 15.6,-6.1 23.4,-3.9 4.3,1.2 7.8,4 10.9,7.1 0,-2.3 0,-4.6 0,-6.9 6.1,-0.2 12.2,0 18.3,-0.1 0.2,15.6 0,31.1 0.1,46.7 -0.1,7.3 0.7,14.9 -2.3,21.8 -3.3,8.2 -11,14 -19.4,16.1 -9.9,2.5 -21,1.7 -29.9,-3.5 -6.4,-3.6 -11.1,-10.1 -12,-17.5 7.2,0.1 14.4,-0.1 21.6,0.1 1.5,2.6 4,4.7 7.1,5 4.9,0.6 10.7,-0.3 13.9,-4.4 2.3,-2.8 1.5,-6.6 1.7,-9.9 -5.9,5 -13.9,8.2 -21.7,7 -6.8,-0.8 -13.1,-4.6 -17.3,-10 -5.5,-7.1 -7.3,-16.6 -6.3,-25.4 0.9,-8.7 4.9,-17.1 11.9,-22.2 m 16.8,11.9 c -3.8,0.7 -7,3.5 -8.6,7 -3.2,6.8 -2,16.3 4.6,20.7 5.6,3.4 13.5,2.1 17.7,-2.8 4.7,-5.3 4.9,-13.7 1.1,-19.5 -3.1,-4.8 -9.4,-6.5 -14.8,-5.4 z"
   class="st1" />
		<path
   style="fill:#ffffff"
   inkscape:connector-curvature="0"
   id="path36"
   d="m 878.9,180.9 c 6.3,-4.3 14.3,-5.8 21.8,-4.3 4.8,1 8.9,3.8 12.4,7.1 0,-2.2 0,-4.3 0,-6.5 6.3,0 12.7,0 19,0 0,21.2 0,42.4 0,63.6 h -19.3 c 0,-2 -0.1,-4.1 0.1,-6.1 -10.7,10.8 -30.2,10 -40.3,-1.1 -6.4,-7 -8.6,-16.9 -8.2,-26.1 0.4,-10.5 5.7,-20.8 14.5,-26.6 m 14.9,13.8 c -4.3,1.3 -7.7,4.8 -9.1,9.1 -2.4,7.1 0.3,16.3 7.2,19.8 6.3,3.1 14.6,0.9 18.7,-4.7 4.7,-6.3 3.8,-16.1 -2.1,-21.3 -3.9,-3.6 -9.8,-4.5 -14.7,-2.9 z"
   class="st1" />
		<path
   style="fill:#ffffff"
   inkscape:connector-curvature="0"
   id="path38"
   d="m 764.1,177.2 c 6.4,-0.1 12.8,0 19.2,-0.1 0.2,21.2 -0.1,42.4 0.1,63.5 -6.5,0.2 -12.9,0 -19.4,0.1 0.1,-21.1 0,-42.3 0.1,-63.5 z"
   class="st1" />
	</g>
</g><path
     style="fill:#035786"
     inkscape:connector-curvature="0"
     d="m 275.1,1656.8638 c -0.2,14.4 -1.2,29.4 -4.5,44.2 -1,4.5 -3.1,8.4 -6.2,11.7 -3.9,4.2 -8.9,6.2 -14.7,4.8 -5.7,-1.4 -8.6,-5.7 -9.8,-11.1 -1.7,-7.4 -0.3,-14.9 0.5,-22.3 1.2,-11.2 2.1,-22.5 1.6,-33.8 -0.2,-5.9 -1,-12 -5.4,-16.4 -5.9,-5.9 -14.1,-5.2 -21.2,1.5 -6.5,6 -10.9,13.6 -14.5,21.6 -7.3,16.3 -12.3,33.4 -17.6,50.4 -2.9,9.2 -6.1,18.2 -12.5,25.5 -22.5,25.4 -64.2,22.6 -82.9,-6 -10.4,-16 -19.3,-32.9 -28.9,-49.4 -2.1,-3.6 -4.3,-7 -7.2,-10.1 -3.1,-3.2 -6.6,-4.8 -11.1,-3.6 -4.8,1.2 -6.5,4.9 -7.3,9.1 -1.2,6.4 -0.3,12.6 0.9,18.9 2.7,13.8 8,26.8 11.4,40.3 1,4.2 1.7,8.4 1.4,12.7 -0.3,5 -2.4,9 -7.1,11 -5.3,2.3 -10.7,1.7 -15.3,-2 -4.5,-3.6 -6.9,-8.8 -8.9,-13.9 -9.9,-26.5 -17.1,-53.4 -15.6,-82 1,-18.7 4.3,-37 13,-53.8 7.1,-13.7 17.2,-24 33.4,-26.4 11,-1.6 20.8,1 29.3,8.3 10,8.5 16.9,19.3 24,30 5.4,8 9.7,16.8 16,24.2 6.1,7.1 13.3,12.5 23.2,12.1 11,-0.4 17.7,-7 22,-16.5 7.3,-16.6 13.3,-33.7 21,-50.1 5.9,-12.7 14.5,-23 27.5,-28.5 19.6,-8.3 37.4,-1.6 48,17.5 8.6,15.7 12.8,32.8 15.2,50.4 1.5,10.3 2,20.6 2.3,31.7 z"
     class="st2"
     id="path10044" /></g>
<g
   transform="translate(-3.7483296e-5,2.1625722e-5)"
   id="g843"><path
     transform="matrix(0.71081394,0,0,-0.71079368,527.59572,1362.1297)"
     sodipodi:nodetypes="cccc"
     inkscape:connector-curvature="0"
     id="path2346"
     d="m 1876.9659,838.75924 0.3356,1038.33096 -1038.51194,0.2112 C 1304.6053,1632.379 1667.2142,1298.7208 1876.9659,838.75924 Z"
     inkscape:transform-center-y="-0.69622776"
     inkscape:transform-center-x="169.4141"
     style="opacity:1;fill:url(#linearGradient2355);fill-opacity:1;stroke:none;stroke-width:7.55905533;stroke-miterlimit:4;stroke-dasharray:none;stroke-opacity:1;filter:url(#filter3369)" /><text
     id="text854"
     y="327.51648"
     x="1300.8665"
     style="font-style:normal;font-weight:normal;font-size:333.33334351px;line-height:1.25;font-family:sans-serif;letter-spacing:0px;word-spacing:0px;fill:#000000;fill-opacity:1;stroke:#d5e2eb;stroke-width:13.22834682;stroke-miterlimit:4;stroke-dasharray:none;stroke-opacity:1"
     xml:space="preserve"><tspan
       dx="0"
       style="font-style:normal;font-variant:normal;font-weight:bold;font-stretch:normal;font-family:sans-serif;-inkscape-font-specification:'sans-serif Bold';letter-spacing:-25.87000084px;stroke:#d5e2eb;stroke-width:13.22834682;stroke-miterlimit:4;stroke-dasharray:none;stroke-opacity:1"
       y="327.51648"
       x="1300.8665"
       id="tspan852"
       sodipodi:role="line">HD</tspan></text>
</g></svg>