<?xml version="1.0" encoding="UTF-8" standalone="no"?>
<svg
   xmlns:dc="http://purl.org/dc/elements/1.1/"
   xmlns:cc="http://creativecommons.org/ns#"
   xmlns:rdf="http://www.w3.org/1999/02/22-rdf-syntax-ns#"
   xmlns:svg="http://www.w3.org/2000/svg"
   xmlns="http://www.w3.org/2000/svg"
   xmlns:sodipodi="http://sodipodi.sourceforge.net/DTD/sodipodi-0.dtd"
   xmlns:inkscape="http://www.inkscape.org/namespaces/inkscape"
   id="svg125759"
   version="1.1"
   viewBox="0 0 499.99997 500.00005"
   height="500mm"
   width="500mm"
   sodipodi:docname="hd_mezzo_live.svg"
   inkscape:version="0.92.4 (5da689c313, 2019-01-14)">
  <sodipodi:namedview
     pagecolor="#ffffff"
     bordercolor="#666666"
     borderopacity="1"
     objecttolerance="10"
     gridtolerance="10"
     guidetolerance="10"
     inkscape:pageopacity="0"
     inkscape:pageshadow="2"
     inkscape:window-width="1920"
     inkscape:window-height="1017"
     id="namedview26"
     showgrid="false"
     units="mm"
     inkscape:zoom="0.284"
     inkscape:cx="-100.35211"
     inkscape:cy="908.23527"
     inkscape:window-x="-8"
     inkscape:window-y="-8"
     inkscape:window-maximized="1"
     inkscape:current-layer="svg125759" />
  <defs
     id="defs125753">
    <clipPath
       id="clipPath125224"
       clipPathUnits="userSpaceOnUse">
      <path
         id="path125222"
         d="m 229.09,331.9141 h 238.619 v 139.085 H 229.09 Z"
         inkscape:connector-curvature="0" />
    </clipPath>
    <clipPath
       id="clipPath125232"
       clipPathUnits="userSpaceOnUse">
      <path
         id="path125230"
         d="m 231.982,406.4271 h 152.056 v 62.0487 H 231.982 Z"
         inkscape:connector-curvature="0" />
    </clipPath>
  </defs>
  <metadata
     id="metadata125756">
    <rdf:RDF>
      <cc:Work
         rdf:about="">
        <dc:format>image/svg+xml</dc:format>
        <dc:type
           rdf:resource="http://purl.org/dc/dcmitype/StillImage" />
        <dc:title />
      </cc:Work>
    </rdf:RDF>
  </metadata>
  <g
     transform="matrix(1.8141723,0,0,1.8141723,-245.79899,136.24203)"
     id="layer1">
    <g
       id="g125218"
       transform="matrix(1.7400388,0,0,-1.7400388,-262.65723,823.88766)">
      <g
         id="g125220"
         clip-path="url(#clipPath125224)">
        <g
           id="g125226">
          <g
             id="g125228"
             clip-path="url(#clipPath125232)">
            <path
               d="m 286.5762,434.5309 c 0,0.7511 0.2644,1.3919 0.7945,1.9218 0.5288,0.5291 1.1696,0.7937 1.9212,0.7937 0.7516,0 1.3919,-0.2646 1.9218,-0.7937 0.529,-0.5299 0.7948,-1.1707 0.7948,-1.9218 0,-0.7521 -0.2658,-1.3929 -0.7948,-1.9217 -0.5299,-0.5299 -1.1702,-0.794 -1.9218,-0.794 -0.7516,0 -1.3924,0.2641 -1.9212,0.794 -0.5301,0.5288 -0.7945,1.1696 -0.7945,1.9217"
               style="fill:#4a3a3e"
               id="path125234"
               inkscape:connector-curvature="0" />
            <path
               d="m 300.7117,457.2497 c 0.0849,0.582 0.1287,1.1228 0.1287,1.6208 0,0.4986 0,1.0195 0,1.5606 0,1.4122 -0.1371,2.5773 -0.4074,3.4925 -0.2698,0.9142 -0.6462,1.6406 -1.1232,2.1827 -0.4791,0.5395 -1.06,0.9237 -1.7435,1.1519 -0.689,0.2294 -1.4258,0.3449 -2.2141,0.3449 -1.4139,0 -2.579,-0.2803 -3.495,-0.8418 -0.9141,-0.5616 -1.6418,-1.321 -2.1821,-2.2772 -0.539,-0.9567 -0.9464,-2.0583 -1.2154,-3.3057 -0.2702,-1.2464 -0.4471,-2.5563 -0.5306,-3.9287 z m -12.8436,-0.8727 c 0,-0.416 -0.014,-0.8424 -0.0323,-1.2779 -0.0215,-0.4372 -0.0298,-0.9888 -0.0298,-1.6524 0,-1.3737 0.0811,-2.8059 0.2486,-4.3039 0.1652,-1.4954 0.5304,-2.8489 1.0909,-4.0536 0.5605,-1.2068 1.3924,-2.2044 2.4949,-2.9943 1.0997,-0.7887 2.5647,-1.1824 4.3953,-1.1824 1.8307,0 3.3376,0.2693 4.5206,0.8082 1.1888,0.5414 2.1212,1.195 2.8072,1.9644 0.6857,0.7699 1.1949,1.5476 1.5305,2.3388 0.3299,0.7911 0.5806,1.434 0.7489,1.9333 l 0.9321,-0.1865 c -0.1231,-0.4587 -0.3631,-1.1126 -0.7167,-1.9654 -0.3525,-0.8523 -0.913,-1.704 -1.6839,-2.5574 -0.769,-0.8507 -1.807,-1.6012 -3.1175,-2.244 -1.3096,-0.6432 -3.0029,-0.9657 -5.0846,-0.9657 -2.0757,0 -3.9996,0.3332 -5.7666,0.9977 -1.7674,0.6623 -3.2958,1.6206 -4.584,2.868 -1.2902,1.2477 -2.2861,2.734 -2.9946,4.4593 -0.7051,1.7258 -1.059,3.6495 -1.059,5.7676 0,1.8302 0.3636,3.608 1.0915,5.3325 0.7274,1.7256 1.725,3.2525 2.9922,4.5839 1.2678,1.3291 2.7542,2.4013 4.4604,3.211 1.7052,0.8119 3.5348,1.2176 5.4885,1.2176 1.163,0 2.4092,-0.2083 3.7411,-0.6245 1.3317,-0.4157 2.5659,-1.09 3.7129,-2.0263 1.1412,-0.9352 2.0975,-2.1737 2.8671,-3.7098 0.7695,-1.5403 1.153,-3.4535 1.153,-5.7382"
               style="fill:#ef3120"
               id="path125236"
               inkscape:connector-curvature="0" />
            <path
               d="m 310.229,467.6655 h 19.768 l -15.5295,-25.8813 h 8.7929 c 1.2076,0 2.1937,0.2378 2.963,0.7169 0.7698,0.477 1.3935,1.0816 1.8725,1.8069 0.4759,0.7287 0.8513,1.507 1.1232,2.3407 0.269,0.8305 0.5275,1.6216 0.7779,2.3684 h 0.4985 l -0.8094,-8.1046 H 307.9816 L 323.51,466.792 h -5.3629 c -1.0375,0 -1.9443,-0.0307 -2.7117,-0.0942 -0.7693,-0.0614 -1.4674,-0.2803 -2.0884,-0.6542 -0.6253,-0.375 -1.207,-0.978 -1.746,-1.8087 -0.5422,-0.8324 -1.1234,-2.0158 -1.7493,-3.5556 h -0.4973"
               style="fill:#ef3120"
               id="path125238"
               inkscape:connector-curvature="0" />
            <path
               d="m 333.8333,467.6655 h 19.7714 l -15.5308,-25.8813 h 8.7937 c 1.2046,0 2.1929,0.2378 2.9621,0.7169 0.7696,0.477 1.3914,1.0816 1.8726,1.8069 0.477,0.7287 0.8507,1.507 1.1211,2.3407 0.2692,0.8305 0.5293,1.6216 0.7813,2.3684 h 0.4969 l -0.8113,-8.1046 h -21.7015 l 15.5271,25.8795 h -5.3627 c -1.0396,0 -1.9441,-0.0307 -2.7112,-0.0942 -0.7698,-0.0614 -1.4674,-0.2803 -2.0916,-0.6542 -0.6225,-0.375 -1.2064,-0.978 -1.7433,-1.8087 -0.5425,-0.8324 -1.1234,-2.0158 -1.7492,-3.5556 h -0.4971"
               style="fill:#ef3120"
               id="path125240"
               inkscape:connector-curvature="0" />
            <path
               d="m 361.2127,454.256 c 0,-2.9518 0.2284,-5.2998 0.6873,-7.0458 0.4574,-1.7468 1.0598,-3.0874 1.8068,-4.0232 0.7502,-0.9357 1.6229,-1.5487 2.62,-1.8405 0.998,-0.2891 2.0583,-0.434 3.1812,-0.434 1.1213,0 2.1818,0.1449 3.1822,0.434 0.9966,0.2918 1.8691,0.9048 2.6182,1.8405 0.7489,0.9358 1.3483,2.2764 1.8092,4.0232 0.4555,1.746 0.6838,4.094 0.6838,7.0458 0,2.4949 -0.165,4.5839 -0.4976,6.2669 -0.3332,1.6841 -0.8424,3.0567 -1.5281,4.1166 -0.686,1.0612 -1.5485,1.8195 -2.5881,2.2771 -1.0396,0.4571 -2.2681,0.6865 -3.6796,0.6865 -1.4134,0 -2.6397,-0.2294 -3.678,-0.6865 -1.0428,-0.4576 -1.9024,-1.2159 -2.5884,-2.2771 -0.6889,-1.0599 -1.1959,-2.4325 -1.528,-4.1166 -0.3346,-1.683 -0.5009,-3.772 -0.5009,-6.2669 z m -6.2363,0 c 0,2.037 0.4458,3.93 1.3419,5.676 0.8926,1.746 2.0395,3.2519 3.4297,4.5206 1.3932,1.2685 2.9514,2.2546 4.6767,2.9626 1.7256,0.7064 3.4214,1.0606 5.0833,1.0606 1.6635,0 3.3558,-0.3542 5.0846,-1.0606 1.7221,-0.708 3.2806,-1.6941 4.6762,-2.9626 1.3908,-1.2687 2.5346,-2.7746 3.4302,-4.5206 0.8929,-1.746 1.339,-3.639 1.339,-5.676 0,-1.956 -0.416,-3.7952 -1.2455,-5.5205 -0.8327,-1.7237 -1.9236,-3.2315 -3.2754,-4.5209 -1.35,-1.2881 -2.9001,-2.3065 -4.6461,-3.0554 -1.7468,-0.7467 -3.5345,-1.121 -5.363,-1.121 -1.8293,0 -3.6162,0.3743 -5.3641,1.121 -1.7446,0.7489 -3.2934,1.7673 -4.6447,3.0554 -1.3537,1.2894 -2.4417,2.7972 -3.2741,4.5209 -0.8327,1.7253 -1.2487,3.5645 -1.2487,5.5205"
               style="fill:#ef3120"
               id="path125242"
               inkscape:connector-curvature="0" />
            <path
               d="m 242.1482,455.6283 c 0,2.1617 0.3005,3.9911 0.9048,5.4882 0.6024,1.4975 1.3516,2.7122 2.2443,3.6479 0.8951,0.9363 1.8607,1.6227 2.9024,2.0593 1.0373,0.4345 1.9953,0.6534 2.8668,0.6534 1.2464,0 2.2443,-0.4351 2.9935,-1.3089 0.7491,-0.8738 1.1233,-2.2246 1.1233,-4.053 v -20.6773 c -5.3837,-1.5467 -9.8005,-0.7599 -13.0351,0.582 z m 18.3982,2.0575 c 0,1.6631 0.2601,3.12 0.7789,4.3659 0.5208,1.2477 1.1947,2.2666 2.0277,3.0559 0.8297,0.7893 1.7672,1.3816 2.8068,1.7778 1.0396,0.3954 2.076,0.5917 3.1156,0.5917 1.3333,0 2.3812,-0.3947 3.1489,-1.1845 0.7703,-0.7903 1.1562,-1.8925 1.1562,-3.3052 v -16.2327 c -3.9537,0.0687 -8.3789,-0.7983 -13.0341,-3.1176 z m -23.7612,-12.3974 c 2.5587,-2.5204 10.9813,-9.2081 23.3418,-2.8293 6.8421,3.5304 13.5489,3.1342 18.8159,1.6613 v 14.938 c 0,6.1946 -3.0344,9.293 -9.1038,9.293 -1.2914,0 -2.4446,-0.1677 -3.4606,-0.5001 -1.0192,-0.333 -1.9024,-0.7799 -2.6512,-1.3401 -0.7462,-0.5616 -1.372,-1.1947 -1.8726,-1.903 -0.4974,-0.7076 -0.8926,-1.4332 -1.1834,-2.1824 h -0.1249 c -0.4987,2.1197 -1.5488,3.638 -3.1492,4.5538 -1.6022,0.9137 -3.4393,1.3718 -5.5186,1.3718 -2.3298,0 -4.3134,-0.5825 -5.9552,-1.7463 -1.6442,-1.1648 -2.9003,-2.9943 -3.7752,-5.4886 h -0.1252 v 6.549 h -10.041 v -0.8735 h 4.8032"
               style="fill:#ef3120"
               id="path125244"
               inkscape:connector-curvature="0" />
            <path
               d="m 345.1909,429.0414 v -10.4051 h 8.8682 v 10.4051 h 4.4663 v -0.4307 -21.0347 -0.4294 h -4.4663 v 10.8346 h -8.8682 v -10.8346 h -4.4416 v 21.8948"
               style="fill:#ef3120"
               id="path125246"
               inkscape:connector-curvature="0" />
            <path
               d="m 369.5977,407.4863 c 1.329,0 2.4646,0.1569 3.4066,0.4753 0.9394,0.3182 1.735,0.7486 2.3791,1.2922 0.6446,0.5419 1.1562,1.1629 1.5321,1.8613 0.38,0.6948 0.6685,1.4281 0.8612,2.1971 0.1935,0.7701 0.3249,1.5359 0.3842,2.3071 0.0624,0.7677 0.0917,1.491 0.0917,2.1668 0,1.6616 -0.1019,3.1623 -0.308,4.5034 -0.2028,1.3438 -0.6085,2.4933 -1.211,3.4442 -0.6035,0.955 -1.4539,1.6861 -2.5467,2.199 -1.0969,0.5135 -2.5325,0.768 -4.3148,0.768 -0.409,0 -0.7771,-0.005 -1.1039,-0.0143 -0.3272,-0.0104 -0.5946,-0.0352 -0.7991,-0.0757 V 407.576 c 0.5933,-0.0599 1.1364,-0.0897 1.6286,-0.0897 z m -6.0785,21.5551 v 0 c 1.0436,0 2.0868,0.0148 3.1317,0.0446 1.0439,0.0304 2.0881,0.0451 3.129,0.0451 0.9222,0 1.8946,-0.0591 2.9179,-0.1846 1.022,-0.1209 2.0364,-0.3412 3.0365,-0.6607 1.0042,-0.3155 1.9561,-0.7416 2.856,-1.2763 0.901,-0.5307 1.6982,-1.2081 2.3944,-2.0268 0.6957,-0.8209 1.2481,-1.7965 1.6568,-2.9227 0.4098,-1.1264 0.6148,-2.4503 0.6148,-3.9671 0,-1.4955 -0.205,-2.8098 -0.6148,-3.9348 -0.4087,-1.1269 -0.956,-2.1029 -1.6415,-2.92 -0.6865,-0.8214 -1.4673,-1.4996 -2.3479,-2.0305 -0.8808,-0.5347 -1.7952,-0.958 -2.7472,-1.2758 -0.9517,-0.3208 -1.8932,-0.5388 -2.8251,-0.6607 -0.9289,-0.1245 -1.7935,-0.1849 -2.5929,-0.1849 -1.1659,0 -2.327,0.009 -3.4848,0.0298 -1.1565,0.0196 -2.3156,0.0306 -3.4829,0.0306"
               style="fill:#ef3120"
               id="path125248"
               inkscape:connector-curvature="0" />
            <path
               d="m 283.2343,407.8549 h 3.9196 v 20.4468 h -3.4337 v 0.7142 h 7.8111 v -21.161 h 3.4337 v -0.7136 h -11.7307"
               style="fill:#4a3a3e"
               id="path125250"
               inkscape:connector-curvature="0" />
            <path
               d="m 331.4042,420.5008 c 0.0672,0.4755 0.1018,0.9173 0.1018,1.3257 0,0.4076 0,0.8322 0,1.2747 0,1.1552 -0.1107,2.1077 -0.3307,2.8555 -0.2214,0.7473 -0.5267,1.3424 -0.9166,1.7847 -0.3904,0.4409 -0.8655,0.7564 -1.4254,0.9432 -0.5597,0.1862 -1.1624,0.2807 -1.8065,0.2807 -1.1538,0 -2.1045,-0.2292 -2.8504,-0.6886 -0.747,-0.459 -1.341,-1.0799 -1.7817,-1.8613 -0.441,-0.7822 -0.7723,-1.6826 -0.9926,-2.7029 -0.2209,-1.0194 -0.3646,-2.0902 -0.4326,-3.2117 z m -10.4855,-0.7137 c 0,-0.3407 -0.008,-0.6892 -0.0253,-1.0452 -0.0174,-0.3572 -0.0257,-0.808 -0.0257,-1.3522 0,-1.1207 0.0682,-2.2944 0.2039,-3.5178 0.1352,-1.2239 0.4323,-2.3291 0.8907,-3.3141 0.4579,-0.9861 1.1364,-1.8027 2.0354,-2.4476 0.8994,-0.6462 2.0951,-0.9689 3.5891,-0.9689 1.4926,0 2.723,0.2206 3.6903,0.6628 0.967,0.4418 1.7302,0.9768 2.2899,1.6066 0.5599,0.6282 0.9751,1.2653 1.2478,1.9113 0.2703,0.6451 0.474,1.1734 0.6105,1.5807 l 0.7631,-0.1523 c -0.1019,-0.3746 -0.2975,-0.9101 -0.5849,-1.6063 -0.2895,-0.697 -0.7473,-1.394 -1.3747,-2.0902 -0.628,-0.6973 -1.476,-1.3097 -2.5444,-1.8361 -1.0694,-0.5266 -2.4524,-0.7907 -4.1489,-0.7907 -1.6972,0 -3.2658,0.2729 -4.708,0.816 -1.4426,0.5428 -2.6894,1.3257 -3.741,2.346 -1.0517,1.02 -1.8664,2.2345 -2.4431,3.6457 -0.5774,1.4096 -0.8652,2.9832 -0.8652,4.7165 0,1.4951 0.2964,2.9485 0.8905,4.3597 0.5935,1.4099 1.408,2.6596 2.4433,3.7476 1.0347,1.0868 2.2474,1.9631 3.6393,2.626 1.3907,0.6628 2.8836,0.9939 4.4789,0.9939 0.9493,0 1.9677,-0.1698 3.0543,-0.5095 1.0853,-0.3401 2.0945,-0.8923 3.0283,-1.657 0.9329,-0.7656 1.7129,-1.777 2.3412,-3.0337 0.6274,-1.2586 0.9417,-2.8221 0.9417,-4.6912"
               style="fill:#4a3a3e"
               id="path125252"
               inkscape:connector-curvature="0" />
            <path
               d="m 311.5771,429.0159 v -0.7142 h 2.96 l -6.8207,-16.0105 -6.5657,16.0105 h 3.4458 v 0.7142 h -10.3761 v -0.7142 h 2.4903 l 8.6014,-21.2104 h 1.3502 l 8.9318,21.2104 h 1.778 v 0.7142"
               style="fill:#4a3a3e"
               id="path125254"
               inkscape:connector-curvature="0" />
            <path
               d="m 278.9316,438.7982 c -1.37,0.4377 -2.8957,0.6537 -4.3765,0.7397 v -31.683 h -3.4338 v -0.7136 h 12.2154 v 0.7136 h -4.4051"
               style="fill:#4a3a3e"
               id="path125256"
               inkscape:connector-curvature="0" />
          </g>
        </g>
      </g>
    </g>
  </g>
</svg>
