<?xml version="1.0" encoding="UTF-8" standalone="no"?>
<svg
   xmlns:dc="http://purl.org/dc/elements/1.1/"
   xmlns:cc="http://creativecommons.org/ns#"
   xmlns:rdf="http://www.w3.org/1999/02/22-rdf-syntax-ns#"
   xmlns:svg="http://www.w3.org/2000/svg"
   xmlns="http://www.w3.org/2000/svg"
   xmlns:sodipodi="http://sodipodi.sourceforge.net/DTD/sodipodi-0.dtd"
   xmlns:inkscape="http://www.inkscape.org/namespaces/inkscape"
   width="500mm"
   height="500mm"
   version="1.1"
   viewBox="0 0 1417.3229 1417.3229"
   id="svg62"
   sodipodi:docname="laliga_tv.svg"
   inkscape:version="0.92.4 (5da689c313, 2019-01-14)">
  <metadata
     id="metadata68">
    <rdf:RDF>
      <cc:Work
         rdf:about="">
        <dc:format>image/svg+xml</dc:format>
        <dc:type
           rdf:resource="http://purl.org/dc/dcmitype/StillImage" />
        <dc:title></dc:title>
      </cc:Work>
    </rdf:RDF>
  </metadata>
  <defs
     id="defs66" />
  <sodipodi:namedview
     pagecolor="#ffffff"
     bordercolor="#666666"
     borderopacity="1"
     objecttolerance="10"
     gridtolerance="10"
     guidetolerance="10"
     inkscape:pageopacity="0"
     inkscape:pageshadow="2"
     inkscape:window-width="1920"
     inkscape:window-height="1017"
     id="namedview64"
     showgrid="false"
     units="mm"
     inkscape:pagecheckerboard="true"
     inkscape:zoom="0.2614822"
     inkscape:cx="-4.7142335"
     inkscape:cy="705.20319"
     inkscape:window-x="-8"
     inkscape:window-y="-8"
     inkscape:window-maximized="1"
     inkscape:current-layer="svg62" />
  <g
     id="g117"
     transform="matrix(2.2048326,0,0,2.2048326,28.34419,528.07077)">
    <g
       id="g89">
      <g
         id="g6"
         style="fill:#ffffff">
        <path
           d="m 58.88,67.73 c 3.21,-3.92 7.41,-6.96 12.17,-8.72 -0.58,0.56 -1.73,1.68 -2.31,2.23 3.01,-0.63 5.99,0.11 8.86,0.96 0.42,2.75 0.6,5.53 0.84,8.3 0.86,-2.68 1.18,-5.49 1.44,-8.28 2.77,-0.92 5.65,-1.52 8.57,-1.05 -0.38,-0.53 -1.13,-1.6 -1.51,-2.13 4.36,2.1 8.58,4.77 11.49,8.73 l -2.56,-1.26 c 1.11,2.65 1.66,5.47 1.93,8.32 -2.44,1.29 -4.99,2.36 -7.44,3.6 2.64,0.23 5.19,-0.71 7.75,-1.18 2.06,2.18 3.04,5.03 3.8,7.87 0.42,-0.52 1.27,-1.56 1.69,-2.08 -0.67,4.54 -1.99,8.96 -4.25,12.97 -0.13,-0.51 -0.38,-1.54 -0.51,-2.06 -2.08,1.98 -4.59,3.44 -7.37,4.19 -1.15,-1.61 -3.22,-2.83 -3.38,-4.94 -0.46,0.01 -1.36,0.05 -1.82,0.07 0.91,2.05 2.28,3.86 3.19,5.92 -0.69,2.42 -3.03,4.09 -5.15,5.3 l 0.25,0.94 -1.09,0.12 0.23,1.08 c -3.34,0.48 -6.72,0.44 -10.06,-0.05 -0.51,-3.2 -4.52,-4.17 -5.93,-7.02 1.48,-2.52 2.92,-5.06 4.11,-7.72 4.61,-0.01 9.22,-0.01 13.83,0 1.38,-4.36 2.87,-8.69 4.24,-13.06 -3.7,-2.74 -7.43,-5.43 -11.17,-8.12 -3.31,2.44 -6.72,4.75 -9.92,7.35 -0.63,0.11 -1.88,0.33 -2.5,0.44 -1.93,-1.59 -4.31,-2.41 -6.55,-3.44 -0.05,-2.91 0.74,-5.73 1.81,-8.41 z"
           id="path2"
           inkscape:connector-curvature="0" />
        <path
           d="m 55.51,85.2 c 0.62,-2.89 1.88,-5.58 3.65,-7.94 3.01,0.5 6.07,1 8.79,2.46 1.21,4.02 2.47,8.03 3.84,12 -2.03,2.11 -4.03,4.24 -5.95,6.45 -2.24,-0.78 -4.35,-1.87 -6.27,-3.25 -0.66,0.69 -1.67,0.94 -2.18,-0.06 -2.03,-3.77 -2.98,-7.98 -3.33,-12.22 0.36,0.64 1.09,1.92 1.45,2.56 z"
           id="path4"
           inkscape:connector-curvature="0" />
      </g>
      <path
         d="M 58.35,4.37 C 63.08,2.62 67.94,0.73 73.07,0.97 74.93,12.16 77.62,23.24 79,34.5 67.64,36.26 57.64,43.59 52,53.52 41.79,48.21 31.91,42.21 22.07,36.24 29.82,21.74 43.1,10.39 58.35,4.37 Z"
         id="path8"
         inkscape:connector-curvature="0"
         style="fill:#8e2f89" />
      <path
         d="m 79.71,9.7 c 17.02,-3.45 35.24,0.52 49.92,9.62 3.48,2.33 7.17,4.53 9.84,7.81 -7.54,8.58 -14.81,17.42 -22.56,25.82 C 108.25,45.33 96.33,41.66 84.89,43.71 82.88,32.42 81.51,21.02 79.71,9.7 Z"
         id="path10"
         inkscape:connector-curvature="0"
         style="fill:#e61e29" />
      <g
         id="g50"
         style="fill:#030406">
        <path
           d="m 358.47,30.68 c 6.02,-2.48 13.65,1.74 14.44,8.28 1.26,6.42 -4.37,13.02 -10.94,12.59 -6.39,0.31 -11.54,-6.34 -10.28,-12.45 0.53,-3.75 3.2,-7.13 6.78,-8.42 z"
           id="path34"
           inkscape:connector-curvature="0" />
        <path
           d="m 186.75,41 c 6.34,0 12.67,-0.01 19.01,0.01 -0.02,18.66 0,37.32 -0.01,55.99 h 22.75 c 0,5.59 0.02,11.18 -0.02,16.77 -13.91,-0.03 -27.82,-0.01 -41.73,-0.02 z"
           id="path36"
           inkscape:connector-curvature="0" />
        <path
           d="M 303.75,41 H 323 v 56 c 7.59,0.01 15.17,-0.01 22.76,0.01 -0.01,5.58 0,11.16 -0.01,16.74 -14,0.01 -28,0 -42,0.01 -0.01,-24.25 0,-48.5 0,-72.76 z"
           id="path38"
           inkscape:connector-curvature="0" />
        <path
           d="m 399.5,54.68 c 7.71,-1.45 15.95,1.05 21.29,6.87 -0.04,-2.02 -0.05,-4.03 -0.05,-6.04 5.73,-0.04 11.47,0.02 17.21,-0.05 0.1,16.85 0.05,33.7 0.03,50.54 0.08,7.83 -2.53,16.07 -8.67,21.22 -9.59,7.97 -23.65,8.85 -35.02,4.55 -7.76,-2.82 -13.77,-9.76 -14.99,-17.99 6.64,-0.05 13.28,-0.04 19.92,-0.02 3.58,6.25 12.53,5.83 17.83,2.17 3.29,-2.37 3.21,-6.79 3,-10.42 -5.34,4.24 -12.14,7.2 -19.08,6.35 -6.76,-0.63 -13.17,-4.31 -17.07,-9.86 -6.28,-8.71 -7.08,-20.59 -3.52,-30.54 2.93,-8.34 10.18,-15.46 19.12,-16.78 m 4.63,15.47 c -10.1,3.21 -11.43,18.97 -3.07,24.83 5.28,3.62 13.13,2.04 16.96,-2.98 4.63,-5.76 3.77,-15.29 -2.12,-19.87 -3.32,-2.52 -7.83,-2.9 -11.77,-1.98 z"
           id="path40"
           inkscape:connector-curvature="0" />
        <path
           d="m 73.56,55.77 c 9.38,-1.91 19.61,1.64 25.76,8.97 7.47,8.49 8.66,21.73 2.82,31.41 -5.66,9.89 -17.99,15.4 -29.12,12.78 C 60.73,106.55 51.07,94.58 51.66,82.01 51.44,69.49 61.28,57.9 73.56,55.77 M 58.88,67.73 61.56,66.6 c -1.07,2.68 -1.86,5.5 -1.81,8.41 2.24,1.03 4.62,1.85 6.55,3.44 0.62,-0.11 1.87,-0.33 2.5,-0.44 3.2,-2.6 6.61,-4.91 9.92,-7.35 3.74,2.69 7.47,5.38 11.17,8.12 -1.37,4.37 -2.86,8.7 -4.24,13.06 -4.61,-0.01 -9.22,-0.01 -13.83,0 -1.19,2.66 -2.63,5.2 -4.11,7.72 1.41,2.85 5.42,3.82 5.93,7.02 3.34,0.49 6.72,0.53 10.06,0.05 l -0.23,-1.08 1.09,-0.12 -0.25,-0.94 c 2.12,-1.21 4.46,-2.88 5.15,-5.3 -0.91,-2.06 -2.28,-3.87 -3.19,-5.92 0.46,-0.02 1.36,-0.06 1.82,-0.07 0.16,2.11 2.23,3.33 3.38,4.94 2.78,-0.75 5.29,-2.21 7.37,-4.19 0.13,0.52 0.38,1.55 0.51,2.06 2.26,-4.01 3.58,-8.43 4.25,-12.97 -0.42,0.52 -1.27,1.56 -1.69,2.08 -0.76,-2.84 -1.74,-5.69 -3.8,-7.87 -2.56,0.47 -5.11,1.41 -7.75,1.18 2.45,-1.24 5,-2.31 7.44,-3.6 -0.27,-2.85 -0.82,-5.67 -1.93,-8.32 l 2.56,1.26 c -2.91,-3.96 -7.13,-6.63 -11.49,-8.73 0.38,0.53 1.13,1.6 1.51,2.13 -2.92,-0.47 -5.8,0.13 -8.57,1.05 -0.26,2.79 -0.58,5.6 -1.44,8.28 -0.24,-2.77 -0.42,-5.55 -0.84,-8.3 -2.87,-0.85 -5.85,-1.59 -8.86,-0.96 0.58,-0.55 1.73,-1.67 2.31,-2.23 -4.76,1.76 -8.96,4.8 -12.17,8.72 M 55.51,85.2 c -0.36,-0.64 -1.09,-1.92 -1.45,-2.56 0.35,4.24 1.3,8.45 3.33,12.22 0.51,1 1.52,0.75 2.18,0.06 1.92,1.38 4.03,2.47 6.27,3.25 1.92,-2.21 3.92,-4.34 5.95,-6.45 -1.37,-3.97 -2.63,-7.98 -3.84,-12 -2.72,-1.46 -5.78,-1.96 -8.79,-2.46 -1.77,2.36 -3.03,5.05 -3.65,7.94 z"
           id="path42"
           inkscape:connector-curvature="0" />
        <path
           d="m 240.97,61.9 c 6.68,-6.49 16.94,-9.35 25.9,-6.49 3.55,1.09 6.49,3.44 9.36,5.7 0.01,-1.86 0.01,-3.73 0.01,-5.6 5.8,-0.06 11.61,0.08 17.41,-0.1 0.24,19.44 0.03,38.9 0.1,58.34 -5.91,0.01 -11.83,0 -17.74,0.01 C 276,112 276,110.23 276,108.47 c -10.74,10.35 -30.32,8.71 -38.89,-3.6 -8.69,-12.85 -7.55,-32.07 3.86,-42.97 m 17.47,9.73 c -9.51,2.99 -11.66,16.28 -5.35,23.29 4.68,5.75 14.12,5.47 19.26,0.49 6.04,-5.45 5.74,-16.09 -0.43,-21.33 -3.66,-3.15 -8.95,-3.89 -13.48,-2.45 z"
           id="path44"
           inkscape:connector-curvature="0" />
        <path
           d="m 456.48,60.36 c 9.35,-8.04 24.79,-8.3 33.5,0.89 0,-1.94 0.03,-3.88 0.1,-5.81 5.8,0.12 11.61,0.03 17.42,0.06 0.01,19.42 0,38.83 0,58.25 -6,0.01 -11.99,-0.01 -17.99,0.01 -0.01,-1.65 -0.01,-3.3 -0.01,-4.94 -10.91,9.8 -30.05,8.35 -38.58,-3.83 -9.31,-13.43 -7.46,-34.19 5.56,-44.63 m 15.92,11.21 c -10.03,2.86 -12.07,17.17 -4.98,24.01 5.11,5.39 14.5,4.48 19.28,-0.87 5.97,-6.02 4.63,-17.45 -2.69,-21.79 -3.41,-2.21 -7.79,-2.47 -11.61,-1.35 z"
           id="path46"
           inkscape:connector-curvature="0" />
        <path
           d="m 353.25,113.75 c 0.03,-19.43 -0.08,-38.87 0.05,-58.3 5.9,0.09 11.8,0.02 17.7,0.05 -0.01,19.42 0.01,38.84 -0.01,58.26 -5.91,-0.01 -11.83,0 -17.74,-0.01 z"
           id="path48"
           inkscape:connector-curvature="0" />
      </g>
      <path
         d="m 1.74,64.12 c 1.15,-9.76 3.66,-19.68 9.07,-27.97 9.75,5.23 19.58,10.35 29.23,15.76 1.63,0.81 -0.12,2.56 -0.4,3.68 C 34.96,64.95 35.22,76.1 38.95,85.74 28.45,90.27 17.63,94.02 7.02,98.28 1.87,87.78 0.88,75.65 1.74,64.12 Z"
         id="path52"
         inkscape:connector-curvature="0"
         style="fill:#1a5ca8" />
      <path
         d="m 113.26,63.07 c 7.62,-8.63 15.64,-16.95 23.74,-25.14 16.11,14.14 24.93,36.26 23.12,57.59 -11.43,-0.29 -22.85,-0.89 -34.26,-1.62 0.51,-11.51 -3.97,-23.1 -12.6,-30.83 z"
         id="path54"
         inkscape:connector-curvature="0"
         style="fill:#f38a21" />
      <path
         d="m 8.84,103.11 c 7.23,-3.77 14.94,-6.6 22.39,-9.93 2.67,5.22 5.73,10.38 10.27,14.2 4.13,3.86 9.33,6.26 14.64,8.03 -1.64,6.41 -3.48,12.82 -5.98,18.95 h 0.61 c -2.03,4.54 -3.04,9.43 -4.75,14.08 -8,-2.04 -15.56,-5.81 -22.16,-10.77 l -0.89,0.67 0.64,-1.11 C 17.19,133.3 12.05,127.48 7.64,121.43 4.54,117.29 2.05,112.7 0,107.95 v -1.49 c 2.5,-0.73 4.88,-1.79 7.12,-3.09 l 0.51,0.8 0.1,-1.52 z"
         id="path56"
         inkscape:connector-curvature="0"
         style="fill:#229ad7" />
      <path
         d="m 112.51,110.64 c 1.99,-4.14 2.33,-8.75 3.33,-13.16 11.36,1 22.74,1.76 34.1,2.71 -0.73,21.52 -12.45,42.17 -30.02,54.47 -7.16,-9 -13.71,-18.48 -20.55,-27.73 5.48,-4.41 10.45,-9.69 13.14,-16.29 z"
         id="path58"
         inkscape:connector-curvature="0"
         style="fill:#fddd18" />
      <path
         d="m 57.14,126.01 c 11.09,3.09 23.41,1.29 32.81,-5.49 6.86,9.22 12.95,19 19.39,28.53 -8.92,7.02 -20.07,10.73 -31.17,12.53 -5.48,1.9 -11.32,1.15 -17,1.08 -3.77,-2.52 -9.39,-0.95 -12.98,-3.89 2.59,-11 5.84,-21.88 8.95,-32.76 z"
         id="path60"
         inkscape:connector-curvature="0"
         style="fill:#23a751" />
    </g>
    <text
       id="text93"
       y="112.80537"
       x="508.51849"
       style="font-style:normal;font-weight:normal;font-size:32.68738174px;line-height:1.25;font-family:sans-serif;letter-spacing:0px;word-spacing:0px;fill:#000000;fill-opacity:1;stroke:none;stroke-width:0.81718457"
       xml:space="preserve"><tspan
         style="font-style:italic;font-variant:normal;font-weight:normal;font-stretch:normal;font-size:78.44971466px;font-family:sans-serif;-inkscape-font-specification:'sans-serif Italic';stroke-width:0.81718457"
         y="112.80537"
         x="508.51849"
         id="tspan91"
         sodipodi:role="line">TV</tspan></text>
  </g>
</svg>
