<?xml version="1.0" encoding="UTF-8" standalone="no"?>
<!-- Generator: Adobe Illustrator 21.1.0, SVG Export Plug-In . SVG Version: 6.00 Build 0)  -->

<svg
   xmlns:dc="http://purl.org/dc/elements/1.1/"
   xmlns:cc="http://creativecommons.org/ns#"
   xmlns:rdf="http://www.w3.org/1999/02/22-rdf-syntax-ns#"
   xmlns:svg="http://www.w3.org/2000/svg"
   xmlns="http://www.w3.org/2000/svg"
   xmlns:sodipodi="http://sodipodi.sourceforge.net/DTD/sodipodi-0.dtd"
   xmlns:inkscape="http://www.inkscape.org/namespaces/inkscape"
   version="1.1"
   id="Livello_1"
   x="0px"
   y="0px"
   viewBox="0 0 1889.7638 1889.7638"
   xml:space="preserve"
   sodipodi:docname="madrid_telemadrid.svg"
   width="500mm"
   height="500mm"
   inkscape:version="0.92.4 (5da689c313, 2019-01-14)"><metadata
   id="metadata43"><rdf:RDF><cc:Work
       rdf:about=""><dc:format>image/svg+xml</dc:format><dc:type
         rdf:resource="http://purl.org/dc/dcmitype/StillImage" /><dc:title /></cc:Work></rdf:RDF></metadata><defs
   id="defs41" /><sodipodi:namedview
   pagecolor="#ffffff"
   bordercolor="#666666"
   borderopacity="1"
   objecttolerance="10"
   gridtolerance="10"
   guidetolerance="10"
   inkscape:pageopacity="0"
   inkscape:pageshadow="2"
   inkscape:window-width="1920"
   inkscape:window-height="1017"
   id="namedview39"
   showgrid="false"
   units="mm"
   inkscape:zoom="0.35714285"
   inkscape:cx="405.9609"
   inkscape:cy="705.43812"
   inkscape:window-x="-8"
   inkscape:window-y="-8"
   inkscape:window-maximized="1"
   inkscape:current-layer="Livello_1" />
<style
   type="text/css"
   id="style2">
	.st0{fill:#FF0027;}
</style>
<g
   id="g14"
   transform="matrix(16.689736,0,0,16.689736,37.794695,81.18778)">
	<polygon
   class="st0"
   points="9.3,81.8 24.2,92.6 35.7,57.3 5.7,35.4 0,52.9 15.1,64 "
   id="polygon4"
   style="fill:#ff0027" />
	<polygon
   class="st0"
   points="72.7,0 54.3,0 65.8,35.4 103,35.4 97.3,17.9 78.5,17.9 "
   id="polygon6"
   style="fill:#ff0027" />
	<polygon
   class="st0"
   points="11.3,17.9 5.7,35.4 42.8,35.4 54.3,0 35.8,0 30,17.9 "
   id="polygon8"
   style="fill:#ff0027" />
	<polygon
   class="st0"
   points="84.3,92.6 99.3,81.8 93.6,64 108.7,52.9 103,35.4 73,57.3 "
   id="polygon10"
   style="fill:#ff0027" />
	<polygon
   class="st0"
   points="69.4,103.5 84.3,92.6 54.3,70.9 24.2,92.6 39.2,103.5 54.3,92.6 "
   id="polygon12"
   style="fill:#ff0027" />
</g>

</svg>