<?xml version="1.0" encoding="UTF-8" standalone="no"?>
<svg
   xmlns:dc="http://purl.org/dc/elements/1.1/"
   xmlns:cc="http://creativecommons.org/ns#"
   xmlns:rdf="http://www.w3.org/1999/02/22-rdf-syntax-ns#"
   xmlns:svg="http://www.w3.org/2000/svg"
   xmlns="http://www.w3.org/2000/svg"
   xmlns:sodipodi="http://sodipodi.sourceforge.net/DTD/sodipodi-0.dtd"
   xmlns:inkscape="http://www.inkscape.org/namespaces/inkscape"
   id="svg125759"
   version="1.1"
   viewBox="0 0 499.99997 500.00005"
   height="500mm"
   width="500mm"
   sodipodi:docname="mezzo_live.svg"
   inkscape:version="0.92.4 (5da689c313, 2019-01-14)">
  <sodipodi:namedview
     pagecolor="#ffffff"
     bordercolor="#666666"
     borderopacity="1"
     objecttolerance="10"
     gridtolerance="10"
     guidetolerance="10"
     inkscape:pageopacity="0"
     inkscape:pageshadow="2"
     inkscape:window-width="1920"
     inkscape:window-height="1017"
     id="namedview26"
     showgrid="false"
     units="mm"
     inkscape:zoom="0.284"
     inkscape:cx="261.92193"
     inkscape:cy="908.23527"
     inkscape:window-x="-8"
     inkscape:window-y="-8"
     inkscape:window-maximized="1"
     inkscape:current-layer="svg125759" />
  <defs
     id="defs125753">
    <clipPath
       id="clipPath125224"
       clipPathUnits="userSpaceOnUse">
      <path
         id="path125222"
         d="m 229.09,331.9141 h 238.619 v 139.085 H 229.09 Z"
         inkscape:connector-curvature="0" />
    </clipPath>
    <clipPath
       id="clipPath125232"
       clipPathUnits="userSpaceOnUse">
      <path
         id="path125230"
         d="m 231.982,406.4271 h 152.056 v 62.0487 H 231.982 Z"
         inkscape:connector-curvature="0" />
    </clipPath>
  </defs>
  <metadata
     id="metadata125756">
    <rdf:RDF>
      <cc:Work
         rdf:about="">
        <dc:format>image/svg+xml</dc:format>
        <dc:type
           rdf:resource="http://purl.org/dc/dcmitype/StillImage" />
        <dc:title />
      </cc:Work>
    </rdf:RDF>
  </metadata>
  <g
     id="g837"
     transform="matrix(0.97959263,0,0,0.97959263,5.1018424,5.1010057)">
    <g
       transform="translate(148.70908,-0.08217)"
       id="g931">
      <path
         inkscape:connector-curvature="0"
         id="path125234"
         style="fill:#4a3a3e;stroke-width:3.22250104"
         d="m 180.92954,259.41154 c 0,-2.42042 0.85203,-4.4854 2.56028,-6.193 1.70406,-1.70503 3.76904,-2.5577 6.19107,-2.5577 2.42203,0 4.4854,0.85267 6.193,2.5577 1.7047,1.7076 2.56124,3.77258 2.56124,6.193 0,2.42364 -0.85654,4.48862 -2.56124,6.19268 -1.7076,1.7076 -3.77097,2.55867 -6.193,2.55867 -2.42203,0 -4.48701,-0.85107 -6.19107,-2.55867 -1.70825,-1.70406 -2.56028,-3.76904 -2.56028,-6.19268" />
      <path
         inkscape:connector-curvature="0"
         id="path125250"
         style="fill:#4a3a3e;stroke-width:3.22250104"
         d="m 170.16026,345.37498 h 12.63092 v -65.88984 h -11.0651 v -2.30151 h 25.17128 v 68.19135 h 11.0651 v 2.29957 h -37.8022" />
      <path
         inkscape:connector-curvature="0"
         id="path125252"
         style="fill:#4a3a3e;stroke-width:3.22250104"
         d="m 325.38782,304.62355 c 0.21655,-1.5323 0.32805,-2.956 0.32805,-4.27207 0,-1.31349 0,-2.68176 0,-4.10772 0,-3.72263 -0.35673,-6.79207 -1.06568,-9.20185 -0.71347,-2.40818 -1.6973,-4.32589 -2.95375,-5.7512 -1.25806,-1.4208 -2.78907,-2.4375 -4.59335,-3.03946 -1.80364,-0.60003 -3.74584,-0.90456 -5.82145,-0.90456 -3.71812,0 -6.78175,0.7386 -9.18542,2.21902 -2.40721,1.47912 -4.32137,3.47997 -5.74153,5.99804 -1.42112,2.52064 -2.48873,5.42218 -3.19865,8.7101 -0.71185,3.28501 -1.17493,6.73567 -1.39406,10.3497 z m -33.78954,2.2999 c 0,1.09791 -0.0258,2.22095 -0.0815,3.36816 -0.0561,1.15108 -0.0828,2.60378 -0.0828,4.35746 0,3.61146 0.21978,7.39371 0.65707,11.33612 0.43568,3.94402 1.39309,7.50553 2.87028,10.67969 1.47559,3.17771 3.66205,5.8092 6.55908,7.88739 2.89832,2.08238 6.75146,3.12228 11.56588,3.12228 4.80991,0 8.77487,-0.71088 11.892,-2.13587 3.11615,-1.4237 5.57557,-3.14774 7.3792,-5.17727 1.80428,-2.02438 3.14226,-4.07743 4.02104,-6.15917 0.87104,-2.07883 1.52746,-3.78128 1.96733,-5.0938 l 2.4591,0.49078 c -0.32838,1.20715 -0.9587,2.9328 -1.88485,5.17631 -0.93291,2.24608 -2.40817,4.49216 -4.42997,6.73567 -2.02373,2.24705 -4.75641,4.22051 -8.19933,5.91683 -3.44614,1.69697 -7.90286,2.54803 -13.36983,2.54803 -5.46923,0 -10.52405,-0.87942 -15.17154,-2.62956 -4.64878,-1.74917 -8.66659,-4.27207 -12.05537,-7.55998 -3.38911,-3.28696 -6.01448,-7.20068 -7.8729,-11.74828 -1.86067,-4.54243 -2.7881,-9.61336 -2.7881,-15.19892 0,-4.81796 0.95514,-9.50155 2.86963,-14.04914 1.91256,-4.5434 4.53728,-8.57056 7.87354,-12.07664 3.33432,-3.50222 7.24225,-6.3261 11.72765,-8.46229 4.48153,-2.13588 9.2924,-3.20285 14.43326,-3.20285 3.05912,0 6.34091,0.54718 9.84248,1.64187 3.49738,1.09597 6.74953,2.87544 9.7587,5.33968 3.00627,2.46715 5.51982,5.72639 7.54452,9.7761 2.0218,4.05584 3.03463,9.09422 3.03463,15.1174" />
      <path
         inkscape:connector-curvature="0"
         id="path125254"
         style="fill:#4a3a3e;stroke-width:3.22250104"
         d="m 261.49497,277.18363 v 2.30151 h 9.5386 L 249.05386,331.079 227.89588,279.48514 h 11.1041 v -2.30151 h -33.437 v 2.30151 h 8.025 l 27.71802,68.35054 h 4.35102 l 28.78273,-68.35054 h 5.72961 v -2.30151" />
      <path
         inkscape:connector-curvature="0"
         id="path125256"
         style="fill:#4a3a3e;stroke-width:3.22250104"
         d="m 156.29481,245.66016 c -4.41483,-1.41049 -9.3314,-2.10655 -14.10328,-2.38368 v 102.0985 h -11.06542 v 2.29957 h 39.36414 v -2.29957 h -14.19544" />
    </g>
    <path
       d="m 226.4812,186.20018 c 0.27359,-1.87549 0.41474,-3.61822 0.41474,-5.22303 0,-1.60673 0,-3.28533 0,-5.02903 0,-4.55082 -0.44181,-8.30535 -1.31285,-11.25458 -0.86943,-2.94602 -2.08238,-5.28684 -3.61951,-7.03376 -1.5439,-1.73854 -3.41585,-2.97662 -5.61843,-3.712 -2.2203,-0.73924 -4.59464,-1.11144 -7.13494,-1.11144 -4.55629,0 -8.31083,0.90327 -11.26264,2.7127 -2.94569,1.80976 -5.2907,4.25693 -7.03182,7.33828 -1.73693,3.08297 -3.04978,6.63288 -3.91663,10.65262 -0.87072,4.01653 -1.44078,8.23768 -1.70986,12.66024 z m -41.38851,2.81228 c 0,1.34056 -0.0451,2.71464 -0.10409,4.11804 -0.0693,1.40887 -0.096,3.1864 -0.096,5.32486 0,4.42675 0.26135,9.04201 0.80112,13.86932 0.53235,4.81893 1.70921,9.18058 3.51542,13.06273 1.80621,3.88891 4.48701,7.10368 8.03982,9.64913 3.54378,2.54159 8.26475,3.81029 14.16386,3.81029 5.89943,0 10.75542,-0.86782 14.56764,-2.60443 3.83091,-1.74466 6.83557,-3.85089 9.0462,-6.33028 2.20967,-2.481 3.85057,-4.98714 4.93204,-7.53678 1.0631,-2.54932 1.87098,-4.62107 2.41333,-6.23006 l 3.00369,0.60099 c -0.39669,1.47816 -1.17009,3.58536 -2.30956,6.3335 -1.13593,2.74654 -2.94215,5.49115 -5.42637,8.24123 -2.47811,2.74138 -5.82306,5.15987 -10.04615,7.23129 -4.22019,2.07271 -9.67685,3.11197 -16.38513,3.11197 -6.68894,0 -12.88871,-1.07374 -18.58287,-3.21509 -5.69545,-2.13426 -10.62072,-5.22238 -14.77195,-9.24213 -4.15767,-4.02072 -7.36696,-8.81032 -9.6501,-14.3701 -2.27218,-5.56139 -3.41263,-11.76052 -3.41263,-18.5861 0,-5.89782 1.17171,-11.62678 3.51736,-17.18398 2.34405,-5.56075 5.55882,-10.48119 9.64237,-14.77163 4.08549,-4.28302 8.87541,-7.73819 14.37364,-10.34745 5.49501,-2.61635 11.3909,-3.92371 17.6867,-3.92371 3.74777,0 7.76365,0.67124 12.0557,2.01245 4.2914,1.33959 8.26862,3.51252 11.96482,6.52975 3.67752,3.01368 6.7592,7.00475 9.23924,11.95484 2.47971,4.96361 3.71554,11.1289 3.71554,18.49135"
       style="fill:#ef3120;stroke-width:3.22250104"
       id="path125236"
       inkscape:connector-curvature="0" />
    <path
       d="m 257.15071,152.63526 h 63.7024 l -50.04383,83.40251 h 28.33513 c 3.89149,0 7.0692,-0.76631 9.54827,-2.31021 2.48068,-1.53713 4.49056,-3.48545 6.03414,-5.82273 1.53358,-2.34824 2.74331,-4.85631 3.61951,-7.54291 0.86685,-2.67629 1.69987,-5.22561 2.50678,-7.63217 h 1.60642 l -2.60829,26.11708 h -69.94278 l 50.04029,-83.39672 H 282.6668 c -3.34335,0 -6.26551,0.0989 -8.73846,0.30356 -2.47907,0.19786 -4.7287,0.90327 -6.72987,2.10816 -2.01503,1.20844 -3.88956,3.15161 -5.62649,5.82854 -1.74724,2.68241 -3.62015,6.49592 -5.63712,11.45793 h -1.60255"
       style="fill:#ef3120;stroke-width:3.22250104"
       id="path125238"
       inkscape:connector-curvature="0" />
    <path
       d="m 333.21559,152.63526 h 63.71336 l -50.04802,83.40251 h 28.33771 c 3.88182,0 7.06662,-0.76631 9.54537,-2.31021 2.48003,-1.53713 4.48379,-3.48545 6.03445,-5.82273 1.53714,-2.34824 2.74139,-4.85631 3.61275,-7.54291 0.8675,-2.67629 1.70567,-5.22561 2.51774,-7.63217 h 1.60126 l -2.61441,26.11708 h -69.93311 l 50.03609,-83.39672 h -17.2813 c -3.35011,0 -6.26487,0.0989 -8.73685,0.30356 -2.48068,0.19786 -4.72869,0.90327 -6.74018,2.10816 -2.00601,1.20844 -3.88762,3.15161 -5.61779,5.82854 -1.7482,2.68241 -3.62015,6.49592 -5.63679,11.45793 h -1.60191"
       style="fill:#ef3120;stroke-width:3.22250104"
       id="path125240"
       inkscape:connector-curvature="0" />
    <path
       d="m 421.44574,195.84739 c 0,9.51217 0.73602,17.07861 2.21482,22.70509 1.47397,5.62907 3.41521,9.94915 5.82242,12.96477 2.41752,3.01529 5.22979,4.99069 8.44295,5.93101 3.21606,0.93163 6.63287,1.39857 10.25142,1.39857 3.61339,0 7.03085,-0.46694 10.25464,-1.39857 3.21155,-0.94032 6.02318,-2.91572 8.43715,-5.93101 2.41334,-3.01562 4.3449,-7.3357 5.83015,-12.96477 1.46785,-5.62648 2.20355,-13.19292 2.20355,-22.70509 0,-8.03982 -0.53171,-14.77163 -1.60352,-20.1951 -1.07373,-5.42701 -2.71463,-9.85021 -4.9243,-13.26574 -2.21064,-3.41972 -4.99004,-5.86334 -8.34016,-7.33796 -3.35011,-1.47301 -7.30895,-2.21225 -11.85751,-2.21225 -4.55468,0 -8.50644,0.73924 -11.85236,2.21225 -3.36042,1.47462 -6.13049,3.91824 -8.34112,7.33796 -2.21998,3.41553 -3.85379,7.83873 -4.92398,13.26574 -1.07825,5.42347 -1.61415,12.15528 -1.61415,20.1951 z m -20.09649,0 c 0,-6.56424 1.43659,-12.66443 4.32428,-18.29092 2.8764,-5.62649 6.57229,-10.47925 11.05221,-14.56764 4.48959,-4.08774 9.51089,-7.26545 15.07067,-9.54698 5.56075,-2.27637 11.02547,-3.41778 16.38094,-3.41778 5.36063,0 10.81407,1.14141 16.38513,3.41778 5.54947,2.28153 10.57173,5.45924 15.06906,9.54698 4.48185,4.08839 8.16775,8.94115 11.05382,14.56764 2.87737,5.62649 4.31493,11.72668 4.31493,18.29092 0,6.30321 -1.34056,12.23003 -4.01363,17.78981 -2.68337,5.55463 -6.1988,10.41351 -10.55498,14.56861 -4.35037,4.1509 -9.34557,7.4327 -14.97206,9.84603 -5.62906,2.40624 -11.38993,3.61242 -17.28227,3.61242 -5.89492,0 -11.65321,-1.20618 -17.28582,-3.61242 -5.62197,-2.41333 -10.61298,-5.69513 -14.96755,-9.84603 -4.3623,-4.1551 -7.86838,-9.01398 -10.55079,-14.56861 -2.68338,-5.55978 -4.02394,-11.4866 -4.02394,-17.78981"
       style="fill:#ef3120;stroke-width:3.22250104"
       id="path125242"
       inkscape:connector-curvature="0" />
    <path
       d="m 37.760267,191.42515 c 0,-6.96608 0.968361,-12.86133 2.915719,-17.68573 1.941234,-4.8257 4.355532,-8.74007 7.232259,-11.75536 2.88446,-3.01723 5.996107,-5.22916 9.352986,-6.6361 3.342701,-1.40018 6.429857,-2.10558 9.238266,-2.10558 4.016526,0 7.232259,1.40211 9.646557,4.21793 2.413976,2.81582 3.619835,7.16878 3.619835,13.0608 v 66.63262 c -17.348978,4.98424 -31.582121,2.44877 -42.005622,-1.8755 z m 59.288218,-6.6303 c 0,-5.35934 0.838172,-10.0542 2.510006,-14.06912 1.678279,-4.02071 3.849919,-7.30412 6.534269,-9.84764 2.6737,-2.54352 5.6948,-4.4522 9.04491,-5.72896 3.35011,-1.27418 6.68991,-1.90675 10.04003,-1.90675 4.29656,0 7.67342,1.27192 10.14733,3.81705 2.48229,2.54674 3.72585,6.09858 3.72585,10.65101 v 52.30989 c -12.7408,-0.22138 -27.00101,2.57253 -42.002395,10.04647 z m -76.570491,39.95064 c 8.245413,8.12199 35.38725,29.67311 75.218974,9.11742 22.048672,-11.37672 43.661342,-10.09996 60.634252,-5.35354 v -48.13772 c 0,-19.96211 -9.77835,-29.9467 -29.337,-29.9467 -4.16154,0 -7.87773,0.54041 -11.15179,1.61157 -3.28437,1.07309 -6.13048,2.51323 -8.54349,4.31847 -2.40463,1.80976 -4.42127,3.84992 -6.03446,6.13242 -1.602869,2.28024 -2.876402,4.61849 -3.813505,7.03279 h -0.40249 c -1.607062,-6.83074 -4.99101,-11.72346 -10.148301,-14.67463 -5.163091,-2.9444 -11.083147,-4.42062 -17.783694,-4.42062 -7.507782,0 -13.899935,1.8771 -19.190638,5.62745 -5.298436,3.75357 -9.346219,9.64913 -12.165585,17.68702 H 37.35681 V 152.63526 H 4.999677 v 2.81485 h 15.478317"
       style="fill:#ef3120;stroke-width:3.22250104"
       id="path125244"
       inkscape:connector-curvature="0" />
  </g>
</svg>
