<?xml version="1.0" encoding="UTF-8" standalone="no"?>
<!-- Generator: Adobe Illustrator 16.0.0, SVG Export Plug-In . SVG Version: 6.00 Build 0)  -->

<svg
   xmlns:dc="http://purl.org/dc/elements/1.1/"
   xmlns:cc="http://creativecommons.org/ns#"
   xmlns:rdf="http://www.w3.org/1999/02/22-rdf-syntax-ns#"
   xmlns:svg="http://www.w3.org/2000/svg"
   xmlns="http://www.w3.org/2000/svg"
   xmlns:sodipodi="http://sodipodi.sourceforge.net/DTD/sodipodi-0.dtd"
   xmlns:inkscape="http://www.inkscape.org/namespaces/inkscape"
   version="1.1"
   id="Layer_1"
   x="0px"
   y="0px"
   width="500mm"
   height="500mm"
   viewBox="0 0 1889.7637 1889.7637"
   enable-background="new 0 0 1000 302.975"
   xml:space="preserve"
   sodipodi:docname="movistar_oscars.svg"
   inkscape:version="0.92.4 (5da689c313, 2019-01-14)"><metadata
   id="metadata29"><rdf:RDF><cc:Work
       rdf:about=""><dc:format>image/svg+xml</dc:format><dc:type
         rdf:resource="http://purl.org/dc/dcmitype/StillImage" /><dc:title></dc:title></cc:Work></rdf:RDF></metadata><defs
   id="defs27">
	
	
	
	
	
	
	
	
	
	
</defs><sodipodi:namedview
   pagecolor="#ffffff"
   bordercolor="#666666"
   borderopacity="1"
   objecttolerance="10"
   gridtolerance="10"
   guidetolerance="10"
   inkscape:pageopacity="0"
   inkscape:pageshadow="2"
   inkscape:window-width="1920"
   inkscape:window-height="1017"
   id="namedview25"
   showgrid="false"
   units="mm"
   inkscape:zoom="0.284"
   inkscape:cx="500"
   inkscape:cy="798.2954"
   inkscape:window-x="-8"
   inkscape:window-y="-8"
   inkscape:window-maximized="1"
   inkscape:current-layer="Layer_1" />
<path
   style="clip-rule:evenodd;fill:#b99c35;fill-rule:evenodd;stroke-width:18.8976378;stroke:#b99c35;stroke-opacity:1;fill-opacity:1;stroke-miterlimit:4;stroke-dasharray:none"
   inkscape:connector-curvature="0"
   id="path2"
   d="m 217.92526,865.59856 c 8.08576,-1.7162 32.03462,1.54023 39.14254,2.9698 21.25844,4.27418 42.30463,12.73728 59.55739,24.41691 13.88203,9.39559 22.64084,16.87904 33.99754,29.25894 17.4632,19.03064 30.38554,42.59853 37.55514,67.76288 2.8428,9.96524 5.80897,24.23551 5.7491,36.21991 -0.0363,6.5582 0.59142,13.8893 -0.078,20.0194 -0.67668,6.1137 -1.40416,12.2746 -2.68497,18.5952 -2.38563,11.7232 -5.43162,22.3179 -9.84368,32.1671 -6.46934,14.4607 -17.44869,34.139 -28.33916,45.5737 -16.71032,17.543 -29.56553,29.6272 -53.07173,41.5572 -43.89566,22.2798 -92.82201,23.4337 -137.90958,4.8475 -20.10645,-8.289 -47.30086,-26.6012 -61.52214,-43.7959 -1.834123,-2.2224 -3.19475,-3.5848 -4.871044,-5.7509 -15.614562,-20.0865 -25.343956,-36.5755 -32.562539,-62.0827 -1.64908,-5.8036 -2.810149,-10.9286 -3.891395,-17.4016 -1.333415,-8.0113 -1.099387,-12.6103 -1.926648,-18.7821 -2.76661,-20.6271 4.88556,-52.30611 12.735474,-70.99025 C 75.997292,955.83357 87.769442,936.09177 98.373266,924.6498 126.531,894.2697 157.43357,874.58596 199.27559,867.64132 Z m 18.09635,354.02264 c 9.17788,0 29.70703,-4.1708 37.97421,-6.3787 11.56533,-3.0786 22.59186,-7.3074 32.21059,-12.1458 10.10311,-5.0833 18.49909,-9.8818 27.87835,-16.5054 12.48512,-8.7987 19.16671,-15.7288 29.24805,-25.7358 1.91758,-1.9012 3.48321,-3.9131 5.31733,-5.9287 21.86801,-24.1012 36.46845,-57.2243 42.41348,-89.4658 l 2.38564,-19.4878 c 0,-14.8363 0.54788,-16.8627 -1.12842,-31.3978 -3.04054,-26.35811 -12.47786,-52.04858 -25.9898,-73.97464 -9.07448,-14.72743 -17.57386,-24.79063 -29.50385,-36.72424 -14.04167,-14.04168 -32.93262,-27.43932 -52.30796,-36.44305 -10.56029,-4.9037 -20.88291,-8.93297 -32.4682,-11.85197 -23.31028,-5.86521 -42.11596,-7.36735 -66.25712,-4.86561 -20.02481,2.0736 -42.4407,8.25811 -59.86762,17.03506 -39.12439,19.70189 -69.194259,48.10272 -89.035838,87.17269 -8.764255,17.26001 -17.34528,44.23309 -18.417455,64.43026 -0.121549,2.2695 -0.584162,2.8936 -0.576906,4.7368 0.0073,14.3809 -0.602304,19.1359 1.093945,33.2156 3.642853,30.3003 16.400098,62.5635 34.76857,86.4597 9.952537,12.9478 19.337239,23.8056 32.199704,34.052 22.07664,17.5739 43.62354,30.1533 71.7976,37.606 23.41368,6.1881 34.61618,6.1972 58.2657,6.1972 z" /><path
   style="clip-rule:evenodd;fill:#b99c35;fill-rule:evenodd;stroke-width:18.8976378;stroke:#b99c35;stroke-opacity:1;fill-opacity:1;stroke-miterlimit:4;stroke-dasharray:none"
   inkscape:connector-curvature="0"
   id="path4"
   d="m 1432.474,870.0977 h 57.3587 c 7.6739,0 26.2691,3.20564 33.5059,6.1192 10.4931,4.23064 16.6994,8.31434 24.0051,15.61456 21.9369,21.92425 26.6302,62.95714 13.6643,90.84275 -8.8786,19.09049 -22.1383,30.02999 -42.3464,36.28339 -6.355,1.9648 -18.0691,4.1762 -25.2568,4.3232 -2.9499,0.062 -7.0064,0.5733 -8.8985,0.5787 h -52.0341 V 870.0977 Z m 67.4164,170.327 c 7.2912,-0.027 17.9422,-2.968 23.7802,-4.6261 20.2062,-5.7292 37.214,-18.1544 48.148,-35.233 15.2336,-23.82009 19.4008,-59.80416 8.2727,-91.22558 -4.9509,-13.98907 -13.0984,-24.54028 -22.6844,-33.49321 -9.6823,-9.05634 -23.3811,-15.58191 -36.4431,-19.14857 -23.0944,-6.31512 -79.6511,-4.35038 -106.8383,-4.35038 v 362.54374 h 18.3467 l -0.083,-173.2823 h 46.2069 c 1.8142,0.43 53.4799,83.3104 55.7077,86.8172 11.0411,17.3888 23.1615,37.4444 34.3568,54.3634 l 13.784,21.7011 c 8.6028,13.345 2.6451,10.3988 27.0856,10.3988 -0.6023,-2.5961 -11.2061,-18.3612 -13.5319,-22.171 -12.5287,-20.4148 -94.5582,-148.3374 -96.1075,-152.2941 z" /><path
   style="clip-rule:evenodd;fill:#b99c35;fill-rule:evenodd;stroke-width:18.8976378;stroke:#b99c35;stroke-opacity:1;fill-opacity:1;stroke-miterlimit:4;stroke-dasharray:none"
   inkscape:connector-curvature="0"
   id="path6"
   d="m 697.91657,1025.0496 1.97745,35.897 c 0.92522,6.7541 2.29311,13.004 3.76621,18.6932 3.05688,11.8193 6.71969,21.9841 11.62158,32.7004 9.08355,19.8434 22.02039,37.5497 36.60632,52.1338 32.18157,32.1834 66.89571,48.0828 112.04678,54.1475 1.57288,0.2123 2.48541,0.3574 4.91458,0.4155 2.57068,0.051 3.3544,0.5823 5.31734,0.5823 h 20.69968 c 2.06634,0 5.01799,-0.4862 7.70841,-0.5823 12.86609,-0.4517 39.27496,-6.4675 50.83848,-10.0904 8.44315,-2.6505 16.83006,-6.0249 24.71263,-9.5807 3.43967,-1.5529 3.739,-4.3413 6.13008,-11.0102 1.05766,-2.9462 4.41206,-10.1611 4.65335,-13.0928 -9.78019,5.1395 -33.11768,13.8711 -43.07022,16.6541 -13.04569,3.6591 -22.63358,5.9577 -36.45212,7.8989 -13.80583,1.9411 -32.2505,2.264 -45.45584,0.4698 -41.4429,-5.6402 -80.74327,-24.9829 -107.19206,-57.2352 -5.85251,-7.1388 -7.49978,-9.0455 -13.21623,-17.4995 -37.72022,-55.7549 -35.88791,-135.05227 3.29817,-188.81339 28.73282,-39.42191 67.1388,-62.97528 115.87285,-69.82196 2.21873,-0.31385 6.62172,-0.85629 9.09807,-0.96514 1.73616,-0.0762 3.59568,0.0925 5.33729,-0.002 3.35802,-0.18685 2.59789,-0.58416 8.27805,-0.58416 4.40299,0 14.40996,0.92704 18.56985,1.5493 31.28718,4.67331 68.13841,18.24874 93.72728,36.95102 1.96293,1.42957 3.87505,2.88816 5.98855,4.08188 l -4.68416,-11.89732 c -1.67992,-4.28145 -3.29453,-7.83178 -5.02888,-12.1114 -0.86717,-2.12077 -1.34793,-4.11998 -2.93533,-5.35725 -2.51444,-1.96293 -13.4049,-7.37279 -16.53071,-8.8858 -34.91189,-16.91351 -72.19127,-25.67232 -112.81417,-20.95185 -37.34832,4.34675 -67.30934,18.32856 -95.38725,40.63922 -12.18034,9.68223 -24.2609,22.62814 -33.04874,34.98627 -9.97793,14.01991 -17.24368,27.24339 -23.76018,44.24217 -3.15122,8.21819 -5.75637,17.20196 -7.55602,26.13312 -0.97603,4.86197 -1.70169,9.47179 -2.43099,14.73469 z" /><path
   style="clip-rule:evenodd;fill:#b99c35;fill-rule:evenodd;stroke-width:18.8976378;stroke:#b99c35;stroke-opacity:1;fill-opacity:1;stroke-miterlimit:4;stroke-dasharray:none"
   inkscape:connector-curvature="0"
   id="path8"
   d="m 1037.3986,1214.6884 c 2.2459,0 2.8464,-2.9734 3.5068,-4.5953 l 52.8068,-119.8858 c 1.6999,-4.0837 3.2547,-7.0553 4.9092,-11.0192 l 84.9866,-193.02048 c 1.3715,-3.30179 13.4575,-31.87497 15.2427,-33.2229 l 29.5746,68.00961 c 3.309,6.9646 6.9573,15.40593 10.016,22.51567 12.8969,30.0608 26.739,60.459 39.6995,90.4182 l 74.4771,169.1732 c 1.3316,2.8029 4.0256,8.1783 4.7368,11.2479 h 18.3394 c -0.8,-3.4687 -34.3785,-78.3831 -38.6654,-88.4844 -12.3799,-29.1827 -26.349,-58.7827 -38.6672,-87.9146 l -22.2417,-50.4757 c -6.9573,-15.56558 -14.9814,-35.13322 -22.0585,-50.12008 -2.1226,-4.50459 -3.5993,-8.24903 -5.5514,-12.77539 l -44.3201,-100.5794 c -0.8781,-2.04276 -1.8269,-4.071 -2.7431,-6.15911 -0.9234,-2.14253 -2.1751,-4.47737 -2.587,-6.25707 h -1.1901 c -0.1814,2.19696 -20.4221,47.31174 -21.9224,50.82216 -3.5594,8.27987 -7.6558,16.78289 -11.2515,25.38931 l -22.2363,50.51738 c -8.7642,20.53822 -19.3136,42.58039 -27.6915,62.7939 l -83.0055,188.4814 c -1.0758,2.4019 -10.7961,22.8639 -10.368,25.0137 z" /><path
   style="clip-rule:evenodd;fill:#b99c35;fill-rule:evenodd;stroke-width:18.8976378;stroke:#b99c35;stroke-opacity:1;fill-opacity:1;stroke-miterlimit:4;stroke-dasharray:none"
   inkscape:connector-curvature="0"
   id="path10"
   d="m 1674.3573,929.82744 c 0,-9.18514 3.0823,-19.5241 6.2825,-26.26556 15.3914,-32.42647 50.5228,-43.17906 83.9634,-36.17455 16.9643,3.55033 35.2367,13.17632 48.5236,23.6205 2.5925,2.03731 13.8803,11.59799 16.1897,12.20755 -1.6146,-3.37073 -3.1621,-8.28169 -4.5336,-12.05698 l -6.7759,-17.44869 -4.0783,-3.59205 c -9.4573,-7.17686 -19.8779,-12.80623 -31.699,-16.81736 -16.5652,-5.61848 -24.6328,-5.68379 -41.0401,-5.68379 -22.0331,0 -43.0648,9.61328 -58.6794,22.94018 -6.1446,5.23932 -13.5881,15.25172 -17.6011,23.21049 -2.2513,4.45742 -4.2016,9.32483 -5.6529,14.43898 -4.4538,15.73248 -5.0289,34.66335 0.869,50.04932 4.2597,11.12994 8.8695,18.14352 16.4327,26.76446 10.007,11.41838 23.2722,20.36226 36.4721,27.97086 4.8348,2.7848 9.3357,5.0107 13.96,7.3238 22.2799,11.139 49.5505,23.5189 69.5118,38.1411 15.6454,11.4656 31.4142,27.4158 35.3037,50.4539 4.2851,25.422 -8.1528,51.029 -20.6851,63.5468 -15.8795,15.8703 -33.7527,25.3004 -57.4548,28.3083 -43.8576,5.5695 -79.0198,-14.5315 -100.7771,-47.2102 -1.9104,-2.87 -6.8975,-11.3004 -8.6972,-12.5976 -7.2004,20.3024 -9.4518,17.1276 -4.8021,24.3607 1.4858,2.3004 3.0696,4.481 4.6008,6.6308 7.4689,10.5222 19.0324,21.3764 29.658,28.2611 7.0807,4.5899 14.6912,8.4922 22.7969,11.5345 10.2192,3.8352 17.182,5.4371 28.0597,6.8467 14.2921,1.8486 14.1233,0.9506 26.7282,0.4318 l 16.3747,-2.5417 c 30.859,-6.7977 58.4199,-24.7652 73.3542,-52.6472 10.8287,-20.228 14.6911,-46.5044 6.9174,-69.2396 -26.6919,-78.091 -142.9802,-80.0974 -169.0571,-139.05251 -4.354,-9.82918 -4.4647,-15.60187 -4.4647,-25.71405 z" /><path
   style="clip-rule:evenodd;fill:#b99c35;fill-rule:evenodd;stroke-width:18.8976378;stroke:#b99c35;stroke-opacity:1;fill-opacity:1;stroke-miterlimit:4;stroke-dasharray:none"
   inkscape:connector-curvature="0"
   id="path12"
   d="m 652.97958,1116.716 c 0,-3.5213 -1.34067,-10.6619 -2.01917,-13.9546 -5.47698,-26.3944 -24.56387,-47.1104 -45.88581,-61.7471 -16.00823,-10.9866 -23.5189,-13.8838 -39.70674,-22.4123 -39.76298,-20.93549 -94.86658,-38.53656 -89.73974,-94.02114 2.24232,-24.23006 18.78392,-44.53788 39.20241,-53.05359 13.24525,-5.52234 21.01353,-6.15911 34.64339,-6.15911 40.76621,-0.004 76.06271,36.24349 80.43849,37.85085 l -8.70076,-23.83457 c -2.52351,-6.42761 -1.28444,-5.31915 -6.58544,-9.37745 -9.82736,-7.5161 -19.77083,-12.69737 -31.8024,-16.70125 -4.19436,-1.38965 -7.84085,-2.54709 -12.49601,-3.47413 -17.90041,-3.55396 -31.82235,-3.29998 -49.67016,0.92704 -29.89027,7.07889 -53.21687,30.15151 -61.30444,60.51346 -3.78617,14.19588 -3.76258,30.05898 0.73111,44.068 10.07591,31.38333 39.42555,51.49159 67.99147,65.11599 30.02633,14.3193 74.75832,34.7015 93.34994,61.5965 16.30213,23.5842 15.44221,49.7627 2.19696,74.4844 -13.74778,25.6742 -43.8104,42.5532 -72.40534,44.7211 -15.24448,1.1502 -28.985,-0.024 -43.5546,-4.8529 -12.48693,-4.149 -27.25428,-12.9169 -36.40132,-22.1764 -6.75597,-6.834 -23.43727,-26.3617 -25.28046,-33.2682 h -1.18829 c -0.23947,2.8319 -4.93635,13.5591 -6.26251,16.8264 -1.48218,3.6592 0.41363,5.272 2.12984,8.0023 18.85648,29.9138 48.70683,47.5276 83.89811,52.7343 9.56067,1.406 11.65967,1.0957 20.78131,1.0957 2.02462,0 3.37799,-0.5351 5.90513,-0.5823 10.3317,-0.1996 27.31051,-4.6661 36.15641,-8.2236 23.20323,-9.3339 42.43344,-24.9666 54.36342,-46.773 3.10223,-5.6693 5.51326,-11.0483 7.49978,-17.8768 3.12944,-10.7326 3.71542,-18.6805 3.71542,-29.4476 z" /><path
   style="clip-rule:evenodd;fill:#b99c35;fill-rule:evenodd;stroke-width:7.55905512;stroke:#b99c35;stroke-opacity:1;fill-opacity:1;stroke-miterlimit:4;stroke-dasharray:none"
   inkscape:connector-curvature="0"
   id="path14"
   d="m 1204.7776,1025.6374 c 0,-0.4499 8.7443,-23.0708 -6.5129,-23.0708 -15.259,0.01 -6.5111,23.0309 -6.5111,23.0708 -0.01,10.0197 -17.7462,5.3935 -17.7462,18.3358 0,11.7032 -0.01,10.3498 3.2383,23.3992 1.3479,5.4298 2.1843,9.8273 8.0005,10.3153 0,3.9894 -1.7743,8.2835 -1.7743,12.4162 0,8.1221 -0.341,12.2257 1.5457,20.3441 0.5479,2.402 2.5925,9.0201 2.5925,10.9975 0,4.5119 -0.5878,5.6784 -0.5878,6.5111 v 11.2351 c 0,6.0031 3.5467,14.1361 3.5467,30.1624 0,13.0929 -16.6795,1.845 -21.2893,14.1197 l -15.9647,0.071 -1.074,1.8613 c -0.381,0.7946 -0.5225,1.23 -0.8926,2.0827 -1.8504,4.285 -11.07,24.5765 -10.8342,27.1182 36.0113,0.8363 78.4846,-0.1234 115.5028,0.08 0.1506,-2.4945 -4.7205,-12.7917 -6.1047,-15.9629 -1.2391,-2.8137 -5.6693,-14.7782 -7.2948,-15.1809 h -14.7818 c -4.3976,-4.3976 -2.2424,-6.141 -11.2261,-6.5256 -5.6058,-0.2359 -10.6565,-1.2264 -10.6565,-7.0771 0,-12.1676 -0.3338,-7.0807 1.7416,-19.5295 2.2877,-13.7079 1.8051,-7.3438 1.8051,-21.2766 0,-1.6418 -0.5877,-2.1426 -0.5877,-3.5485 0,-10.4515 4.1363,-17.4451 4.1363,-24.2482 0,-5.9668 0.1306,-17.866 -2.1335,-22.8332 1.8795,-1.611 4.4774,-1.7253 6.0085,-4.0601 1.1538,-1.747 1.8269,-5.3518 2.402,-7.6431 2.9807,-11.939 3.1929,-11.6923 3.1929,-22.8295 -0.01,-12.8752 -17.7553,-8.1982 -17.7407,-18.334 z" /><path
   style="clip-rule:evenodd;fill:#b99c35;fill-rule:evenodd;stroke-width:7.55905512;stroke:#b99c35;stroke-opacity:1;fill-opacity:1;stroke-miterlimit:4;stroke-dasharray:none"
   inkscape:connector-curvature="0"
   id="path16"
   d="m 956.95829,739.98542 h 7.10429 v -34.30051 h 35.49061 l -0.0109,34.30051 c 5.42801,0 7.69751,0.74744 7.69751,-1.77788 v -68.01506 h -7.68663 l -0.0109,28.38632 h -35.5142 l 0.0363,-28.38632 h -7.10429 v 69.79294 z" /><path
   style="clip-rule:evenodd;fill:#b99c35;fill-rule:evenodd;stroke-width:7.55905512;stroke:#b99c35;stroke-opacity:1;fill-opacity:1;stroke-miterlimit:4;stroke-dasharray:none"
   inkscape:connector-curvature="0"
   id="path18"
   d="m 1030.2979,739.98542 h 31.3489 c 2.1843,0 3.3834,-5.08512 3.5521,-7.1061 h -27.8003 v -27.19441 h 26.0225 l -0.127,-6.75234 -25.8937,-0.17779 0.034,-21.8154 32.499,-0.24491 c -0.6585,-7.8354 -3.2873,-6.53827 -4.6606,-6.57274 l -34.9717,0.0708 v 69.79294 z" /><path
   style="clip-rule:evenodd;fill:#b99c35;fill-rule:evenodd;stroke-width:7.55905512;stroke:#b99c35;stroke-opacity:1;fill-opacity:1;stroke-miterlimit:4;stroke-dasharray:none"
   inkscape:connector-curvature="0"
   id="path20"
   d="m 895.45248,676.70536 h 16.56338 l -0.002,63.28006 7.49252,-0.15239 c 0.61682,-5.61848 0.20501,-53.49262 0.20138,-63.12767 h 16.55611 v -6.51288 h -38.4477 c -0.37916,1.61643 -1.74523,5.22119 -2.36387,6.51288 z" />
</svg>