<?xml version="1.0" encoding="UTF-8" standalone="no"?>
<svg
   xmlns:dc="http://purl.org/dc/elements/1.1/"
   xmlns:cc="http://creativecommons.org/ns#"
   xmlns:rdf="http://www.w3.org/1999/02/22-rdf-syntax-ns#"
   xmlns:svg="http://www.w3.org/2000/svg"
   xmlns="http://www.w3.org/2000/svg"
   xmlns:sodipodi="http://sodipodi.sourceforge.net/DTD/sodipodi-0.dtd"
   xmlns:inkscape="http://www.inkscape.org/namespaces/inkscape"
   width="500mm"
   height="500mm"
   viewBox="0 0 1417.3229 1417.3228"
   version="1.1"
   id="svg48"
   sodipodi:docname="movistar_deportes.svg"
   inkscape:version="0.92.4 (5da689c313, 2019-01-14)">
  <metadata
     id="metadata54">
    <rdf:RDF>
      <cc:Work
         rdf:about="">
        <dc:format>image/svg+xml</dc:format>
        <dc:type
           rdf:resource="http://purl.org/dc/dcmitype/StillImage" />
        <dc:title />
      </cc:Work>
    </rdf:RDF>
  </metadata>
  <defs
     id="defs52" />
  <sodipodi:namedview
     pagecolor="#ffffff"
     bordercolor="#666666"
     borderopacity="1"
     objecttolerance="10"
     gridtolerance="10"
     guidetolerance="10"
     inkscape:pageopacity="0"
     inkscape:pageshadow="2"
     inkscape:window-width="1920"
     inkscape:window-height="1017"
     id="namedview50"
     showgrid="false"
     units="mm"
     inkscape:zoom="0.28099579"
     inkscape:cx="980.06234"
     inkscape:cy="697.15916"
     inkscape:window-x="-8"
     inkscape:window-y="-8"
     inkscape:window-maximized="1"
     inkscape:current-layer="svg48" />
  <g
     id="g83"
     transform="matrix(2.5384892,0,0,2.5384892,28.34631,-2692.4643)">
    <g
       transform="translate(0,1262.3228)"
       id="#396885d5">
      <path
         style="opacity:0.83999999;fill:#396885"
         inkscape:connector-curvature="0"
         id="path2"
         d="m 100.43,0 h 1.91 c -0.38,0.26 -1.15,0.77 -1.53,1.03 l -0.85,-0.4 z" />
    </g>
    <g
       transform="translate(0,1262.3228)"
       id="#004e7eff">
      <path
         style="opacity:1;fill:#004e7e"
         inkscape:connector-curvature="0"
         id="path5"
         d="m 102.34,0 h 4.1 c 0.09,0.01 0.26,0.04 0.35,0.05 7.7,1.92 12.52,8.98 14.87,16.13 5.22,14.95 6.11,31.24 3.83,46.86 -0.56,3.89 -1.34,8.24 -4.56,10.88 -2.39,2.13 -6.52,2.3 -8.75,-0.16 -2.3,-2.29 -2.13,-5.8 -2.02,-8.8 0.51,-7.65 1.9,-15.35 0.97,-23.03 -0.31,-3.59 -3.16,-7.46 -7.14,-6.88 -4.45,0.84 -7.32,4.91 -9.5,8.55 -5.07,9.45 -7.7,19.93 -11.06,30.05 -2.15,6.41 -6.68,12.45 -13.27,14.7 -5.74,1.92 -12.15,2.48 -17.97,0.58 C 46.61,87.07 42.21,82.75 39.22,77.8 34.91,70.67 30.91,63.35 26.72,56.14 c -1.5,-2.29 -3.07,-5.03 -5.88,-5.82 -3.22,-0.52 -5.71,2.71 -5.6,5.7 -0.47,10.43 5.25,19.77 6.57,29.92 0.77,3.64 -1.95,7.89 -5.91,7.66 C 11.93,93.88 9.43,90.26 7.96,87.07 3.82,77.74 1.73,67.68 0,57.67 V 44.86 C 1.94,33.75 4.04,20.85 13.92,13.85 c 6.03,-4.15 14.9,-4.32 20.57,0.56 7.83,6.5 12.28,15.9 17.98,24.12 3.19,4.36 8.75,8.29 14.36,6.37 4.15,-1.25 6.58,-5.14 8.12,-8.94 3.14,-7.55 5.94,-15.25 9.52,-22.6 C 87.59,7.3 93.02,1.84 99.96,0.63 l 0.85,0.4 c 0.38,-0.26 1.15,-0.77 1.53,-1.03 z" />
    </g>
    <g
       transform="translate(0,1262.3228)"
       id="#4e7b96de">
      <path
         style="opacity:0.87000002;fill:#4e7b96"
         inkscape:connector-curvature="0"
         id="path8"
         d="m 106.44,0 h 0.23 l 0.12,0.05 C 106.7,0.04 106.53,0.01 106.44,0 Z" />
    </g>
    <g
       transform="translate(0,1262.3228)"
       id="#01da95ff">
      <path
         style="opacity:1;fill:#01da95"
         inkscape:connector-curvature="0"
         id="path11"
         d="m 162.14,34.81 c 119.95,0.02 239.9,-0.03 359.85,0.03 6.31,-0.24 12.59,4.47 13.44,10.86 l -0.45,0.86 c 0.26,0.38 0.77,1.12 1.02,1.5 v 95.04 c -0.98,5.02 -4.4,9.35 -9.2,11.22 -17.57,-0.65 -35.18,-0.12 -52.77,-0.29 C 378.34,154 282.65,153.99 186.97,154 c -4.66,0.04 -9.32,0.04 -13.96,-0.22 -0.29,0.31 -0.86,0.92 -1.15,1.22 h -0.52 c -4.43,-3.08 -9.47,-6.91 -9.19,-12.97 -0.03,-35.74 -0.05,-71.48 -0.01,-107.22 m 29.96,31.32 c 0.03,10.29 0.13,20.58 -0.19,30.87 -0.1,9.14 0.5,18.29 -0.04,27.43 8.99,-0.35 18.23,1.11 27.04,-1.21 8.21,-2.24 14.87,-8.99 17.11,-17.19 2.47,-8.81 2.1,-18.75 -2.19,-26.94 -4.17,-7.92 -12.97,-12.84 -21.82,-12.94 -6.64,-0.06 -13.27,0 -19.91,-0.02 m 217.46,5.76 c 0.03,3.51 0.03,7.02 0.05,10.53 -2.19,0.01 -4.38,0.02 -6.56,0.06 0.08,2.94 0.11,5.89 0.16,8.84 2.14,-0.03 4.28,-0.06 6.42,-0.06 -0.05,6.26 -0.07,12.52 -0.04,18.78 0.05,4.5 1.44,9.41 5.23,12.2 4.44,3.46 10.48,3.26 15.71,2.12 0.06,-3.09 0.06,-6.17 0.1,-9.26 -3.41,1.52 -8.99,2.34 -10.31,-2.26 -0.99,-7.12 -0.31,-14.41 -0.36,-21.59 3.65,0.01 7.3,0.02 10.95,0.01 -0.04,-2.96 -0.05,-5.92 -0.06,-8.88 -3.66,0.06 -7.33,0.06 -10.99,0.03 0.04,-5.7 -0.11,-11.4 0.13,-17.1 -3.49,2.17 -6.96,4.37 -10.43,6.58 m -164.4,17.14 c -6.69,9.18 -6.03,23.43 2.37,31.34 6.15,5.5 15.56,5.97 22.94,2.85 4.24,-1.88 7,-5.78 9.39,-9.58 -2.71,-1.22 -5.48,-2.3 -8.25,-3.36 -2.45,3.44 -6.05,6.53 -10.57,6.07 -5.34,0.07 -9.25,-4.67 -9.83,-9.67 9.76,-0.01 19.52,-0.01 29.28,-0.02 0.31,-6.39 -0.61,-13.26 -4.85,-18.32 -7.36,-9.26 -23.52,-8.8 -30.48,0.69 m 40.15,-6.61 c 0.16,19.71 -0.05,39.42 0.11,59.12 3.39,-0.08 6.79,-0.09 10.2,-0.06 -0.1,-6.86 0.03,-13.71 -0.11,-20.57 7.95,7.43 22.42,4.54 26.97,-5.3 3.32,-7.27 3.31,-16.11 0.42,-23.52 -4.07,-10.48 -19.46,-14.06 -27.45,-5.92 0.06,-0.94 0.17,-2.81 0.22,-3.75 -3.45,0 -6.9,0 -10.36,0 m 57.08,0.19 c -3.92,1.17 -7.54,3.49 -10.04,6.75 -7.25,9.64 -5.75,25.67 4.74,32.43 8.67,5.37 21.37,4.39 28.33,-3.37 7.23,-8.59 7.04,-22.89 -0.91,-30.96 -5.69,-5.63 -14.61,-6.91 -22.12,-4.85 m 33.28,-0.1 c 0.16,13.98 0.03,27.97 0.09,41.95 3.38,0.01 6.77,0.01 10.16,0.02 0.71,-9.28 -1.47,-19.23 2.65,-27.94 2.19,-4.88 8.25,-6.96 13.08,-4.75 -0.12,-3.35 -0.12,-6.71 -0.12,-10.07 -6.27,-0.98 -12,2.38 -15.66,7.25 0,-2.19 0.03,-4.37 0.04,-6.56 -3.42,-0.01 -6.83,-0.01 -10.24,0.1 m 63.06,4.23 c -8.99,8.87 -8.8,25.43 0.65,33.9 9.66,8.24 27.13,5.01 31.82,-7.3 -2.74,-1 -5.48,-1.99 -8.2,-3.01 -2.66,4.62 -8.35,7.38 -13.54,5.45 -4.02,-1.21 -6.01,-5.24 -6.79,-9.05 9.74,-0.11 19.49,-0.04 29.24,-0.04 0.41,-6.97 -0.73,-14.58 -5.94,-19.68 -7.12,-7.11 -19.94,-7.1 -27.24,-0.27 m 43.25,-2.72 c -5.56,3.46 -7.28,11.87 -3.08,17.02 3.48,4.21 9.2,4.99 13.88,7.24 1.76,0.75 3.51,2.56 2.81,4.64 -0.73,3.27 -4.81,4.07 -7.57,3.05 -3.06,-0.94 -4.76,-3.85 -6.14,-6.51 -2.78,1.45 -5.54,2.92 -8.28,4.44 3.68,7.87 12.88,13.29 21.52,10.57 7.68,-1.76 12.84,-11.28 8.98,-18.42 -3.48,-5.7 -10.76,-6.07 -16.12,-9.01 -2.46,-1.29 -2.33,-4.95 0.11,-6.2 3.4,-1.27 6.7,0.92 9.01,3.24 2.07,-1.86 4.14,-3.72 6.23,-5.57 -4.58,-6.66 -14.5,-9.01 -21.35,-4.49 z" />
      <path
         style="opacity:1;fill:#01da95"
         inkscape:connector-curvature="0"
         id="path13"
         d="m 202.8,75.77 c 6.15,0.12 13.01,0.19 17.96,4.41 5.06,4.29 6.24,11.44 5.7,17.73 -0.4,5.4 -2.84,11.05 -7.76,13.77 -4.76,2.9 -10.52,2.85 -15.91,2.82 0.01,-12.91 -0.01,-25.82 0.01,-38.73 z" />
      <path
         style="opacity:1;fill:#01da95"
         inkscape:connector-curvature="0"
         id="path15"
         d="m 300.37,91.47 c 4.07,-2.26 9.56,-0.48 11.8,3.53 3.12,5.7 3.01,13.64 -1.44,18.63 -3.7,4.22 -11.14,3.27 -13.86,-1.59 -3.64,-6.33 -3.25,-16.46 3.5,-20.57 z" />
      <path
         style="opacity:1;fill:#01da95"
         inkscape:connector-curvature="0"
         id="path17"
         d="m 345.23,91.34 c 5.44,-2.69 12.24,0.95 13.73,6.67 2.83,7.26 -0.86,18.51 -9.9,18.32 -12.18,-0.6 -13.96,-20.06 -3.83,-24.99 z" />
    </g>
    <g
       transform="translate(0,1262.3228)"
       id="#4dcba1e3">
      <path
         style="opacity:0.88999999;fill:#4dcba1"
         inkscape:connector-curvature="0"
         id="path20"
         d="m 535.43,45.7 0.57,0.49 v 1.87 c -0.25,-0.38 -0.76,-1.12 -1.02,-1.5 z" />
    </g>
    <g
       transform="translate(0,1262.3228)"
       id="#ffffffff">
      <path
         style="opacity:1;fill:#ffffff"
         inkscape:connector-curvature="0"
         id="path23"
         d="m 192.1,66.13 c 6.64,0.02 13.27,-0.04 19.91,0.02 8.85,0.1 17.65,5.02 21.82,12.94 4.29,8.19 4.66,18.13 2.19,26.94 -2.24,8.2 -8.9,14.95 -17.11,17.19 -8.81,2.32 -18.05,0.86 -27.04,1.21 0.54,-9.14 -0.06,-18.29 0.04,-27.43 0.32,-10.29 0.22,-20.58 0.19,-30.87 m 10.7,9.64 c -0.02,12.91 0,25.82 -0.01,38.73 5.39,0.03 11.15,0.08 15.91,-2.82 4.92,-2.72 7.36,-8.37 7.76,-13.77 0.54,-6.29 -0.64,-13.44 -5.7,-17.73 -4.95,-4.22 -11.81,-4.29 -17.96,-4.41 z" />
      <path
         style="opacity:1;fill:#ffffff"
         inkscape:connector-curvature="0"
         id="path25"
         d="m 409.56,71.89 c 3.47,-2.21 6.94,-4.41 10.43,-6.58 -0.24,5.7 -0.09,11.4 -0.13,17.1 3.66,0.03 7.33,0.03 10.99,-0.03 0.01,2.96 0.02,5.92 0.06,8.88 -3.65,0.01 -7.3,0 -10.95,-0.01 0.05,7.18 -0.63,14.47 0.36,21.59 1.32,4.6 6.9,3.78 10.31,2.26 -0.04,3.09 -0.04,6.17 -0.1,9.26 -5.23,1.14 -11.27,1.34 -15.71,-2.12 -3.79,-2.79 -5.18,-7.7 -5.23,-12.2 -0.03,-6.26 -0.01,-12.52 0.04,-18.78 -2.14,0 -4.28,0.03 -6.42,0.06 -0.05,-2.95 -0.08,-5.9 -0.16,-8.84 2.18,-0.04 4.37,-0.05 6.56,-0.06 -0.02,-3.51 -0.02,-7.02 -0.05,-10.53 z" />
      <path
         style="opacity:1;fill:#ffffff"
         inkscape:connector-curvature="0"
         id="path27"
         d="m 245.16,89.03 c 6.96,-9.49 23.12,-9.95 30.48,-0.69 4.24,5.06 5.16,11.93 4.85,18.32 -9.76,0.01 -19.52,0.01 -29.28,0.02 0.58,5 4.49,9.74 9.83,9.67 4.52,0.46 8.12,-2.63 10.57,-6.07 2.77,1.06 5.54,2.14 8.25,3.36 -2.39,3.8 -5.15,7.7 -9.39,9.58 -7.38,3.12 -16.79,2.65 -22.94,-2.85 -8.4,-7.91 -9.06,-22.16 -2.37,-31.34 m 6.2,9.43 c 6.23,0.24 12.46,0.07 18.69,0.07 -1.09,-4.17 -4.36,-8.3 -9.08,-8.04 -4.83,-0.33 -8.11,3.89 -9.61,7.97 z" />
      <path
         style="opacity:1;fill:#ffffff"
         inkscape:connector-curvature="0"
         id="path29"
         d="m 285.31,82.42 c 3.46,0 6.91,0 10.36,0 -0.05,0.94 -0.16,2.81 -0.22,3.75 7.99,-8.14 23.38,-4.56 27.45,5.92 2.89,7.41 2.9,16.25 -0.42,23.52 -4.55,9.84 -19.02,12.73 -26.97,5.3 0.14,6.86 0.01,13.71 0.11,20.57 -3.41,-0.03 -6.81,-0.02 -10.2,0.06 -0.16,-19.7 0.05,-39.41 -0.11,-59.12 m 15.06,9.05 c -6.75,4.11 -7.14,14.24 -3.5,20.57 2.72,4.86 10.16,5.81 13.86,1.59 4.45,-4.99 4.56,-12.93 1.44,-18.63 -2.24,-4.01 -7.73,-5.79 -11.8,-3.53 z" />
      <path
         style="opacity:1;fill:#ffffff"
         inkscape:connector-curvature="0"
         id="path31"
         d="m 342.39,82.61 c 7.51,-2.06 16.43,-0.78 22.12,4.85 7.95,8.07 8.14,22.37 0.91,30.96 -6.96,7.76 -19.66,8.74 -28.33,3.37 C 326.6,115.03 325.1,99 332.35,89.36 c 2.5,-3.26 6.12,-5.58 10.04,-6.75 m 2.84,8.73 c -10.13,4.93 -8.35,24.39 3.83,24.99 9.04,0.19 12.73,-11.06 9.9,-18.32 -1.49,-5.72 -8.29,-9.36 -13.73,-6.67 z" />
      <path
         style="opacity:1;fill:#ffffff"
         inkscape:connector-curvature="0"
         id="path33"
         d="m 375.67,82.51 c 3.41,-0.11 6.82,-0.11 10.24,-0.1 -0.01,2.19 -0.04,4.37 -0.04,6.56 3.66,-4.87 9.39,-8.23 15.66,-7.25 0,3.36 0,6.72 0.12,10.07 -4.83,-2.21 -10.89,-0.13 -13.08,4.75 -4.12,8.71 -1.94,18.66 -2.65,27.94 -3.39,-0.01 -6.78,-0.01 -10.16,-0.02 -0.06,-13.98 0.07,-27.97 -0.09,-41.95 z" />
      <path
         style="opacity:1;fill:#ffffff"
         inkscape:connector-curvature="0"
         id="path35"
         d="m 438.73,86.74 c 7.3,-6.83 20.12,-6.84 27.24,0.27 5.21,5.1 6.35,12.71 5.94,19.68 -9.75,0 -19.5,-0.07 -29.24,0.04 0.78,3.81 2.77,7.84 6.79,9.05 5.19,1.93 10.88,-0.83 13.54,-5.45 2.72,1.02 5.46,2.01 8.2,3.01 -4.69,12.31 -22.16,15.54 -31.82,7.3 -9.45,-8.47 -9.64,-25.03 -0.65,-33.9 m 4.28,11.82 c 6.22,-0.03 12.45,0.13 18.68,-0.07 -1.35,-3.9 -4.15,-8.05 -8.77,-7.98 -4.96,-0.54 -8.74,3.61 -9.91,8.05 z" />
      <path
         style="opacity:1;fill:#ffffff"
         inkscape:connector-curvature="0"
         id="path37"
         d="m 481.98,84.02 c 6.85,-4.52 16.77,-2.17 21.35,4.49 -2.09,1.85 -4.16,3.71 -6.23,5.57 -2.31,-2.32 -5.61,-4.51 -9.01,-3.24 -2.44,1.25 -2.57,4.91 -0.11,6.2 5.36,2.94 12.64,3.31 16.12,9.01 3.86,7.14 -1.3,16.66 -8.98,18.42 -8.64,2.72 -17.84,-2.7 -21.52,-10.57 2.74,-1.52 5.5,-2.99 8.28,-4.44 1.38,2.66 3.08,5.57 6.14,6.51 2.76,1.02 6.84,0.22 7.57,-3.05 0.7,-2.08 -1.05,-3.89 -2.81,-4.64 -4.68,-2.25 -10.4,-3.03 -13.88,-7.24 -4.2,-5.15 -2.48,-13.56 3.08,-17.02 z" />
    </g>
    <g
       transform="translate(0,1262.3228)"
       id="#00da95ff">
      <path
         style="opacity:1;fill:#00da95"
         inkscape:connector-curvature="0"
         id="path40"
         d="m 251.36,98.46 c 1.5,-4.08 4.78,-8.3 9.61,-7.97 4.72,-0.26 7.99,3.87 9.08,8.04 -6.23,0 -12.46,0.17 -18.69,-0.07 z" />
      <path
         style="opacity:1;fill:#00da95"
         inkscape:connector-curvature="0"
         id="path42"
         d="m 443.01,98.56 c 1.17,-4.44 4.95,-8.59 9.91,-8.05 4.62,-0.07 7.42,4.08 8.77,7.98 -6.23,0.2 -12.46,0.04 -18.68,0.07 z" />
    </g>
    <g
       transform="translate(0,1262.3228)"
       id="#009566b1">
      <path
         style="opacity:0.68999999;fill:#009566"
         inkscape:connector-curvature="0"
         id="path45"
         d="m 171.86,155 c 0.29,-0.3 0.86,-0.91 1.15,-1.22 4.64,0.26 9.3,0.26 13.96,0.22 95.68,-0.01 191.37,0 287.06,0.03 17.59,0.17 35.2,-0.36 52.77,0.29 l -1.42,0.68 z" />
    </g>
  </g>
</svg>
