<?xml version="1.0" encoding="UTF-8" standalone="no"?>
<svg
   xmlns:dc="http://purl.org/dc/elements/1.1/"
   xmlns:cc="http://creativecommons.org/ns#"
   xmlns:rdf="http://www.w3.org/1999/02/22-rdf-syntax-ns#"
   xmlns:svg="http://www.w3.org/2000/svg"
   xmlns="http://www.w3.org/2000/svg"
   xmlns:sodipodi="http://sodipodi.sourceforge.net/DTD/sodipodi-0.dtd"
   xmlns:inkscape="http://www.inkscape.org/namespaces/inkscape"
   width="500mm"
   height="500mm"
   viewBox="0 0 1417.3228 1417.3228"
   version="1.1"
   id="svg4591"
   sodipodi:docname="movistar_cero.svg"
   inkscape:version="0.92.4 (5da689c313, 2019-01-14)">
  <metadata
     id="metadata4597">
    <rdf:RDF>
      <cc:Work
         rdf:about="">
        <dc:format>image/svg+xml</dc:format>
        <dc:type
           rdf:resource="http://purl.org/dc/dcmitype/StillImage" />
        <dc:title />
      </cc:Work>
    </rdf:RDF>
  </metadata>
  <defs
     id="defs4595" />
  <sodipodi:namedview
     pagecolor="#ffffff"
     bordercolor="#666666"
     borderopacity="1"
     objecttolerance="10"
     gridtolerance="10"
     guidetolerance="10"
     inkscape:pageopacity="0"
     inkscape:pageshadow="2"
     inkscape:window-width="1920"
     inkscape:window-height="1017"
     id="namedview4593"
     showgrid="false"
     units="mm"
     inkscape:zoom="0.24313187"
     inkscape:cx="-773.9872"
     inkscape:cy="412.58897"
     inkscape:window-x="-8"
     inkscape:window-y="-8"
     inkscape:window-maximized="1"
     inkscape:current-layer="svg4591" />
  <g
     id="g4650"
     transform="matrix(13.606691,0,0,13.606691,28.346508,-17946.301)">
    <rect
       y="1326.3107"
       x="0"
       height="89.40638"
       width="99.992638"
       id="rect4638"
       style="opacity:1;fill:#f6f6f6;fill-opacity:1;stroke:none;stroke-width:1.18086302;stroke-opacity:1" />
    <path
       d="m 0,1326.3107 h 99.992643 c 0.01003,2.9681 0,5.9261 0,8.8942 -33.330881,-0.04 -66.661762,0.05 -99.992643,-0.05 z"
       id="path4572"
       inkscape:connector-curvature="0"
       style="opacity:1;fill:#000000;stroke-width:1.00273407" />
    <path
       d="m 73.21,1344.5528 c 7.05,-1.76 15.55,0.71 19.23,7.3 3.67,5.82 2.68,12.92 2.77,19.44 -0.07,6.27 0.82,13.05 -2.6,18.67 -4.38,8.05 -15.55,10.01 -23.34,6.11 -5.8,-2.85 -8.94,-9.4 -8.99,-15.66 0.01,-6.72 -0.13,-13.44 0.08,-20.14 0.36,-7.26 5.5,-14.35 12.85,-15.72 m 1.21,9.47 c -4.05,2.18 -4.18,7.3 -4.06,11.32 0.24,6.02 -0.5,12.13 0.49,18.1 0.91,5.23 8.18,7.24 11.77,3.48 3.13,-3.35 2.47,-8.34 2.58,-12.55 -0.27,-5.39 0.64,-10.92 -0.81,-16.18 -0.99,-4.23 -6.27,-6.19 -9.97,-4.17 z"
       id="path4574"
       inkscape:connector-curvature="0"
       style="opacity:1;fill:#000000" />
    <path
       d="m 19.48,1346.7428 c 1.24,-3.42 6.93,-3.54 8.19,-0.12 0.5,3.32 -0.24,6.67 -0.54,9.97 3.35,0.07 6.71,0.06 10.06,-0.04 1.15,-4.46 -0.04,-13.23 6.9,-12.39 5.6,1.63 2.79,8.3 2.41,12.38 2.69,0.28 6.4,-0.75 7.98,2.18 0.74,2.1 0.55,5.15 -1.77,6.18 -2.41,0.96 -5.08,0.58 -7.62,0.67 -0.58,3.67 -1.13,7.34 -1.68,11.01 2.52,0.35 5.85,-0.64 7.6,1.78 1.59,2.24 0.89,6.21 -2.03,7.03 -2.26,0.53 -4.6,0.31 -6.9,0.32 -0.69,3.26 -0.84,6.65 -1.84,9.85 -1.66,3.67 -7.87,2.91 -8.5,-1.12 -0.06,-2.93 0.58,-5.82 0.94,-8.71 -3.34,-0.03 -6.69,-0.03 -10.04,-0.03 -0.66,3.18 -0.81,6.48 -1.73,9.6 -1.33,3.48 -6.93,3.54 -8.37,0.09 -0.52,-3.17 0.27,-6.36 0.81,-9.47 -2.6,-0.38 -6.03,0.4 -7.77,-2.06 -1.73,-2.28 -0.77,-5.8 1.86,-6.89 2.27,-0.5 4.64,-0.24 6.95,-0.23 1.06,-3.65 1.52,-7.43 1.89,-11.2 -2.7,-0.12 -6.6,0.56 -7.92,-2.52 -1.37,-2.13 -0.16,-5.13 2.02,-6.16 2.31,-0.45 4.69,-0.2 7.03,-0.15 1.23,-3.21 1.09,-6.71 2.07,-9.97 m -0.97,10.06 c -2.19,2.12 -1.35,5.74 -1.71,8.52 2.71,0.13 5.45,0.46 8.15,-0.01 1.85,-2.36 1.5,-5.73 1.73,-8.58 -2.72,-0.09 -5.47,-0.4 -8.17,0.07 m 19.16,0.05 c -1.54,2.46 -1.18,5.65 -1.58,8.45 2.85,0.13 5.83,0.64 8.6,-0.28 1.46,-2.55 1.39,-5.6 1.4,-8.45 -2.81,0.03 -5.65,-0.21 -8.42,0.28 m -12.08,8.78 c -0.57,3.66 -1.12,7.32 -1.53,11.01 3.35,0.07 6.7,0.07 10.05,-0.03 0.58,-3.7 1.22,-7.39 1.6,-11.12 -3.37,-0.01 -6.74,0.02 -10.12,0.14 m -10.64,11.55 c -1.38,2.56 -1.11,5.64 -1.28,8.46 3.01,0.17 6.03,0.14 9,-0.33 0.47,-2.82 0.86,-5.66 1.02,-8.52 -2.89,0.04 -6,-0.72 -8.74,0.39 m 19.68,-0.31 c -1.58,2.52 -1.22,5.75 -1.64,8.6 2.89,0.13 6.01,0.84 8.75,-0.42 1.14,-2.64 1.18,-5.56 1.37,-8.39 -2.83,-0.01 -5.68,-0.23 -8.48,0.21 z"
       id="path4579"
       style="opacity:1;fill:#5690a8;fill-opacity:1;stroke:none;stroke-opacity:1"
       inkscape:connector-curvature="0" />
    <g
       transform="translate(0,1326.3228)"
       style="opacity:1;fill:#1f5373;fill-opacity:1"
       id="#000000e0">
      <path
         inkscape:connector-curvature="0"
         style="opacity:0.87999998;fill:#1f5373;fill-opacity:1"
         id="path4582"
         d="m 18.51,30.48 c 2.7,-0.47 5.45,-0.16 8.17,-0.07 -0.23,2.85 0.12,6.22 -1.73,8.58 -2.7,0.47 -5.44,0.14 -8.15,0.01 0.36,-2.78 -0.48,-6.4 1.71,-8.52 z" />
      <path
         inkscape:connector-curvature="0"
         style="opacity:0.87999998;fill:#1f5373;fill-opacity:1"
         id="path4584"
         d="m 37.67,30.53 c 2.77,-0.49 5.61,-0.25 8.42,-0.28 -0.01,2.85 0.06,5.9 -1.4,8.45 -2.77,0.92 -5.75,0.41 -8.6,0.28 0.4,-2.8 0.04,-5.99 1.58,-8.45 z" />
      <path
         inkscape:connector-curvature="0"
         style="opacity:0.87999998;fill:#1f5373;fill-opacity:1"
         id="path4586"
         d="m 14.95,50.86 c 2.74,-1.11 5.85,-0.35 8.74,-0.39 -0.16,2.86 -0.55,5.7 -1.02,8.52 -2.97,0.47 -5.99,0.5 -9,0.33 0.17,-2.82 -0.1,-5.9 1.28,-8.46 z" />
      <path
         inkscape:connector-curvature="0"
         style="opacity:0.87999998;fill:#1f5373;fill-opacity:1"
         id="path4588"
         d="m 34.63,50.55 c 2.8,-0.44 5.65,-0.22 8.48,-0.21 -0.19,2.83 -0.23,5.75 -1.37,8.39 -2.74,1.26 -5.86,0.55 -8.75,0.42 0.42,-2.85 0.06,-6.08 1.64,-8.6 z" />
    </g>
    <path
       d="m 0,1406.8228 h 99.992641 c 0.01005,2.9681 0,5.9261 0,8.8942 -33.33088,-0.04 -66.66176,0.05 -99.992641,-0.05 z"
       id="path4572-5"
       inkscape:connector-curvature="0"
       style="opacity:1;fill:#000000;stroke-width:1.00273407" />
  </g>
</svg>
