<?xml version="1.0" encoding="UTF-8" standalone="no"?>
<svg
   xmlns:dc="http://purl.org/dc/elements/1.1/"
   xmlns:cc="http://creativecommons.org/ns#"
   xmlns:rdf="http://www.w3.org/1999/02/22-rdf-syntax-ns#"
   xmlns:svg="http://www.w3.org/2000/svg"
   xmlns="http://www.w3.org/2000/svg"
   xmlns:sodipodi="http://sodipodi.sourceforge.net/DTD/sodipodi-0.dtd"
   xmlns:inkscape="http://www.inkscape.org/namespaces/inkscape"
   width="500mm"
   height="500mm"
   version="1.1"
   viewBox="0 0 1417.3228 1417.3228"
   id="svg42"
   sodipodi:docname="movistar_vamos.svg"
   inkscape:version="0.92.4 (5da689c313, 2019-01-14)">
  <metadata
     id="metadata48">
    <rdf:RDF>
      <cc:Work
         rdf:about="">
        <dc:format>image/svg+xml</dc:format>
        <dc:type
           rdf:resource="http://purl.org/dc/dcmitype/StillImage" />
        <dc:title />
      </cc:Work>
    </rdf:RDF>
  </metadata>
  <defs
     id="defs46" />
  <sodipodi:namedview
     pagecolor="#ffffff"
     bordercolor="#666666"
     borderopacity="1"
     objecttolerance="10"
     gridtolerance="10"
     guidetolerance="10"
     inkscape:pageopacity="0"
     inkscape:pageshadow="2"
     inkscape:window-width="1920"
     inkscape:window-height="1017"
     id="namedview44"
     showgrid="false"
     units="mm"
     inkscape:zoom="0.10692771"
     inkscape:cx="-266.53522"
     inkscape:cy="511.33333"
     inkscape:window-x="-8"
     inkscape:window-y="-8"
     inkscape:window-maximized="1"
     inkscape:current-layer="svg42" />
  <g
     id="g40"
     transform="matrix(0.68308635,0,0,0.68308635,28.350833,446.68201)">
    <path
       d="m 456.66,0.19922 h 15.043 c 18.824,6.0781 32.367,26.098 26.391,46.02 -11.551,45.621 -24.301,90.945 -36.152,136.46 h 55.078 c -12.25,24.406 1.5938,50.008 8.7656,73.516 -27.887,0.29688 -55.777,0 -83.664,0.19922 -7.9688,30.281 -16.137,60.562 -24.105,90.844 45.816,0.0977 91.832,0 137.65,0 8.0664,24.602 16.035,49.109 24.105,73.613 -60.461,0.0977 -120.92,0.0977 -181.38,0 -8.8633,31.277 -16.234,62.953 -25.496,94.129 -5.7773,21.02 -32.469,31.078 -51.195,20.82 -14.441,-7.2734 -22.41,-24.902 -18.426,-40.441 5.4805,-25.004 13.148,-49.406 19.523,-74.211 -31.277,-0.49609 -62.551,-0.19922 -93.824,-0.29688 -14.441,52.395 -27.488,105.09 -42.328,157.29 -3.1875,13.246 -15.242,21.414 -27.59,25.301 h -12.652 c -20.617,-3.6875 -35.258,-25.102 -29.379,-45.625 11.551,-45.719 24.301,-91.242 36.254,-136.86 -21.316,-1.5938 -44.723,4.3828 -64.543,-5.6758 -25.496,-14.246 -21.113,-57.379 7.0742,-65.746 25.297,-5.0781 51.391,-0.89453 77.09,-2.4883 7.9688,-30.281 16.133,-60.465 24.102,-90.746 -53.98,-0.39844 -108.07,0.5 -162.15,-0.39844 -17.23,0 -30.977,-13.746 -34.859,-29.883 v -12.551 c 3.7852,-17.332 19.125,-31.18 37.352,-30.281 59.66,-0.69922 119.42,0 179.18,-0.30078 8.9648,-31.477 16.332,-63.352 25.695,-94.629 5.5781,-18.527 27.688,-28.785 45.719,-22.512 17.527,5.3789 28.285,25.5 23.602,43.133 -5.5742,24.801 -13.047,49.105 -19.422,73.809 31.277,0.5 62.449,0.10156 93.727,0.30078 13.844,-51.398 27.289,-103 41.133,-154.39 3.0898,-14.344 15.141,-24.406 28.887,-28.09 m -207.17,347.14 c 31.172,0.0977 62.449,0 93.621,0 8.168,-30.281 16.234,-60.562 24.203,-90.844 -31.176,-0.10156 -62.348,0 -93.625,-0.10156 -8.1641,30.281 -16.234,60.562 -24.199,90.945 z"
       id="path2"
       inkscape:connector-curvature="0"
       style="fill:#01c6d6" />
    <path
       d="m 1501.7,467.57 c 49.602,-1.1953 99.402,-0.29687 149,-0.49609 23.305,-1.793 42.727,22.512 36.652,44.922 -3.2891,16.734 -19.621,28.988 -36.555,28.191 -47.211,0.29688 -94.422,0.0977 -141.63,0 -18.727,1.293 -36.555,-13.648 -38.047,-32.375 -2.7891,-18.824 11.551,-38.25 30.574,-40.242 z"
       id="path4"
       inkscape:connector-curvature="0"
       style="fill:#01c6d6" />
    <path
       d="m 1545,49.605 c 40.438,-6.2734 84.957,-3.5859 120.02,19.426 32.371,21.316 47.91,60.66 49.203,98.312 0.7969,38.652 0.1016,77.398 0.3008,116.05 0,34.566 -9.5625,71.121 -34.859,95.926 -25.102,24.703 -61.453,33.469 -95.617,33.969 -36.055,0.59766 -74.699,-6.875 -102.19,-31.879 -25.996,-23.508 -36.75,-59.566 -37.25,-93.73 -0.1992,-37.355 0,-74.809 0,-112.16 0.1992,-31.773 8.7656,-65.043 30.18,-89.25 18.027,-20.32 43.922,-31.973 70.219,-36.656 m 20.617,74.309 c -20.816,2.6914 -33.766,23.012 -34.762,42.734 -2.0898,33.27 -0.3985,66.738 -0.9961,100.11 0.1992,19.723 -0.5977,42.133 13.348,57.871 14.84,15.34 39.441,15.641 58.762,9.7617 18.027,-5.875 25.699,-25.797 26.793,-43.328 1.4961,-33.07 0.3008,-66.141 0.6992,-99.312 -0.1992,-18.328 0.4961,-38.848 -11.156,-54.289 -12.352,-15.438 -34.66,-16.535 -52.688,-13.547 z"
       id="path6"
       inkscape:connector-curvature="0" />
    <path
       d="m 517.22,183.08 c 13.148,-23.207 45.816,-30.281 67.43,-14.543 16.234,10.66 17.828,31.281 22.707,48.414 16.832,62.953 31.875,126.4 50.102,188.96 19.918,-71.422 37.648,-143.54 57.168,-215.16 8.2695,-29.984 49.602,-40.344 72.512,-20.52 16.93,14.043 18.523,38.949 10.754,58.273 -30.477,91.738 -60.258,183.58 -90.438,275.42 -3.8828,11.555 -9.6602,23.508 -20.617,29.98 -13.645,8.2695 -30.676,7.2734 -45.812,5.2812 -16.336,-2.7891 -28.09,-16.836 -32.871,-32.074 -9.7578,-28.488 -18.723,-57.277 -28.285,-85.965 -8.0664,-24.602 -16.137,-49.109 -24.102,-73.613 -9.9609,-30.281 -19.922,-60.66 -29.883,-91.043 -7.0703,-23.406 -21.016,-49.008 -8.6641,-73.414 z"
       id="path8"
       inkscape:connector-curvature="0" />
    <path
       d="m 1809.6,181.19 c 58.164,-17.832 122.91,-3.7852 172.41,30.184 -11.75,20.52 -23.504,41.039 -35.258,61.656 -29.98,-17.23 -65.637,-31.676 -100.59,-22.809 -12.551,2.7891 -21.914,15.738 -19.227,28.688 2.6914,13.547 16.734,19.82 28.188,24.602 36.055,13.848 76.195,21.418 105.78,48.113 18.723,16.137 28.387,40.344 30.977,64.547 v 23.508 c -2.0938,21.219 -8.0703,42.535 -21.414,59.469 -21.914,27.691 -58.367,38.051 -92.133,40.34 -51.094,5.1797 -101.59,-11.652 -145.02,-37.551 8.7656,-21.914 19.223,-43.031 28.586,-64.648 35.656,15.34 73.504,32.074 113.24,26.895 15.836,-1.8906 32.273,-13.348 32.969,-30.578 1.9922,-16.934 -11.852,-29.785 -25.996,-35.859 -37.148,-16.738 -81.074,-21.418 -111.65,-50.605 -28.98,-27.59 -31.77,-72.812 -20.418,-109.17 8.4688,-27.59 32.172,-48.512 59.562,-56.777 z"
       id="path10"
       inkscape:connector-curvature="0" />
    <path
       d="m 753.77,536.1 c 37.746,-119.53 75.496,-238.96 113.25,-358.5 26.891,0.19922 53.781,0 80.676,0.0977 37.648,119.54 75.297,238.97 113.04,358.4 h -88.84 c -6.7734,-23.309 -13.746,-46.516 -20.219,-69.926 -29.582,0.79688 -59.762,-1.8906 -88.945,1.2969 -6.8711,22.809 -13.145,45.719 -20.02,68.531 -29.68,0.0977 -59.359,0.0977 -88.941,0.0977 m 126.19,-143.54 h 54.582 c -9.0625,-35.066 -17.43,-70.328 -27.09,-105.19 -10.461,34.664 -18.227,70.125 -27.492,105.19 z"
       id="path12"
       inkscape:connector-curvature="0" />
    <path
       d="m 1083.6,177.7 h 67.926 c 31.574,62.059 63.047,124.02 94.52,186.07 6.9727,-8.4688 11.059,-18.828 16.039,-28.391 26.691,-52.594 53.484,-105.09 80.375,-157.68 h 67.031 v 358.5 c -27.191,-0.19922 -54.281,0.29688 -81.473,-0.30078 0.098,-56.977 0.5977,-113.95 -0.2969,-170.93 -20.719,36.16 -37.254,74.707 -56.277,111.76 -16.332,0.19922 -32.566,0 -48.902,0.10156 -19.52,-37.254 -36.254,-75.805 -56.773,-112.56 -0.6953,57.277 0,114.55 -0.2969,171.73 -27.391,-0.30078 -54.68,0.39844 -82.07,-0.39844 0.4961,-119.13 0.098,-238.57 0.1993,-357.9 z"
       id="path14"
       inkscape:connector-curvature="0" />
    <path
       d="m 753.67,651.65 c 4.582,-0.10156 9.0664,-0.19922 13.648,-0.30078 0.0977,37.953 0,75.902 0,113.86 -4.4844,-0.10156 -8.9648,0.29688 -13.449,-0.39844 -0.29688,-2.7891 -0.39844,-5.6797 -0.59766,-8.4688 -6.8711,9.3633 -19.422,11.656 -30.375,9.9609 -1.6953,-0.59766 -3.2891,-1.0938 -4.9805,-1.5938 -9.2656,-3.6836 -16.434,-11.355 -19.422,-20.918 -3.4883,-9.3633 -3.1875,-19.523 -2.4922,-29.285 2.3906,-12.051 8.668,-24.402 20.719,-29.285 2.5898,-0.69531 5.0781,-1.4922 7.668,-2.2891 4.1836,-0.19922 8.2656,-0.19922 12.449,0 1.6953,0.59766 3.2891,1.1953 4.9805,1.6914 4.2852,2.0938 8.168,4.6836 11.852,7.6719 -0.0977,-13.449 0,-27.094 0,-40.641 m -38.246,52.195 c -7.3711,10.258 -7.1719,24.105 -3.6836,35.859 2.7891,4.9805 6.0742,9.9609 11.355,12.449 4.2812,2.5898 9.3594,1.9922 14.141,1.9922 9.4648,-2.9883 15.438,-11.453 17.531,-20.816 0.89453,-8.9648 0.89453,-18.629 -3.6875,-26.695 -2.6875,-5.6797 -8.1641,-9.2656 -13.844,-11.457 h -9.6602 c -4.582,1.9922 -9.2617,4.3828 -12.152,8.668 z"
       id="path16"
       inkscape:connector-curvature="0"
       style="fill:#014d7f" />
    <path
       d="m 805.07,684.62 c 7.0703,-1.8906 14.543,-2.2891 21.812,-1.1953 12.949,3.4883 23.109,14.742 25.797,27.891 1.1953,5.3789 1.1953,10.957 1.1953,16.535 -19.523,0.19922 -39.145,0 -58.664,0.19922 1.0938,9.4648 4.3828,19.227 12.848,24.605 5.1797,1.793 10.656,1.9922 16.137,1.5938 7.7656,-2.3906 12.848,-8.7656 16.434,-15.738 1.1953,0.79688 2.3906,1.6914 3.5859,2.4883 l 7.4688,2.9883 c -3.9844,8.8672 -10.258,17.133 -19.621,20.719 -1.6953,0.5 -3.3867,1.0977 -5.0781,1.6953 -5.6797,0.39844 -11.355,0.39844 -17.035,0.0977 -1.6914,-0.59766 -3.2852,-1.0938 -4.9766,-1.5938 -11.953,-4.3828 -19.523,-16.234 -21.812,-28.387 -1.793,-12.949 -1.3945,-27.094 6.0742,-38.25 3.3867,-6.375 9.3633,-10.758 15.836,-13.648 m -2.1914,16.836 c -3.5859,3.7852 -4.9805,8.9648 -6.4727,13.945 14.34,0.0977 28.684,0.0977 43.125,0 -0.89453,-7.1719 -4.9805,-13.648 -11.055,-17.531 -4.6797,-2.9883 -10.258,-2.6914 -15.539,-2.5898 -3.5859,1.793 -7.3672,3.2852 -10.059,6.1758 z"
       id="path18"
       inkscape:connector-curvature="0"
       style="fill:#014d7f" />
    <path
       d="m 1374.4,652.95 c 0,-0.89453 0.6992,-1.6914 1.5938,-1.6914 h 16.934 c 0.8945,-0.10156 1.6914,0.49609 1.8906,1.3945 v 0.19922 c 0.1016,5.7773 0,11.555 0.1016,17.23 5.6758,-0.0977 11.254,0 16.832,0 0.7968,-0.0977 1.5938,0 2.2891,0.30078 0.6992,0.39844 0.6992,1.293 0.6992,1.9922 v 12.75 c 0,0.89453 -0.6992,1.6914 -1.5938,1.793 h -18.328 v 43.629 c 0.1992,3.5859 0.5,7.2695 2.293,10.559 1.5938,2.6875 4.1836,4.582 7.1719,5.3789 3.1875,0.89453 6.4727,0.89453 9.7578,0.89453 0.9961,0 1.793,0.79688 1.8945,1.793 v 12.551 c 0.098,0.89844 0,1.793 -0.5,2.4922 -0.4961,0.49609 -1.1953,0.69531 -1.793,0.69531 -7.8672,0.10156 -15.934,-0.19922 -23.305,-3.3867 -5.4766,-2.3906 -9.8594,-6.6719 -12.352,-12.152 -2.6875,-5.9766 -3.3867,-12.648 -3.4844,-19.125 -0.1016,-25.797 -0.1016,-51.598 -0.1016,-77.297 z"
       id="path20"
       inkscape:connector-curvature="0"
       style="fill:#004e7d" />
    <path
       d="m 924.39,668.59 c 4.3828,-0.5 8.8672,-0.19922 13.246,-0.30078 6.375,0 12.75,1.1953 18.625,3.4883 3.1875,1.293 5.9766,3.1875 8.2695,5.7773 3.8828,-4.582 9.7617,-6.875 15.438,-8.0703 5.1797,-0.99609 10.457,-1.3945 15.738,-1.1953 7.7656,-0.19922 15.836,0.79688 22.906,4.1836 6.1758,2.8906 11.355,7.8711 13.746,14.344 2.0898,5.8789 2.3906,12.152 2.2891,18.328 v 57.773 c 0,1.0977 -0.8945,2.0938 -2.0898,2.0938 h -15.641 c -0.8945,0.0977 -1.6914,-0.30078 -2.1875,-0.99609 -0.1992,-0.99609 -0.3008,-1.8945 -0.1992,-2.8906 v -50.602 c -0.1992,-4.3828 0,-8.7656 -0.6992,-13.148 -0.4961,-3.3867 -2.3906,-6.375 -5.2773,-8.168 -4.2852,-2.6875 -9.66414,-2.9883 -14.64104,-2.9883 -4.9805,0 -10.66,0.59766 -14.742,3.9844 -2.6914,2.293 -4.1836,5.5781 -4.2812,9.1641 -0.69922,8.668 -0.30078,17.234 -0.39844,25.898 -0.10156,8.668 0,17.234 0,25.898 -0.19922,3.9844 0,7.9688 -0.10156,12.055 0,1.0938 -0.99609,1.9922 -2.0898,1.9922 h -16.137 c -1.0977,0 -1.9922,-0.79688 -1.9922,-1.793 v -36.957 c 0,-8.6641 0.10156,-17.332 -0.39844,-25.898 -0.0977,-3.2852 -0.99609,-6.7734 -3.2852,-9.2617 -3.2891,-3.3867 -8.168,-4.4844 -12.652,-4.8828 -5.1758,-0.19922 -10.555,-0.29687 -15.438,1.6953 -2.7891,1.0938 -5.0781,3.1875 -6.4727,5.875 -1.3945,2.6914 -1.3945,5.8789 -1.5938,8.8672 -0.39844,7.8672 -0.19922,15.738 -0.19922,23.707 v 36.059 c 0.0977,0.69531 -0.10156,1.4922 -0.5,2.0898 -0.69531,0.59766 -1.5898,0.89844 -2.3867,0.69922 h -15.242 c -1.0938,0.0977 -1.9922,-0.79688 -2.0898,-1.8945 v -56.875 c -0.10156,-6.6758 0,-13.547 2.3906,-19.824 2.3906,-5.875 6.8711,-10.559 12.551,-13.348 4.7773,-2.7891 10.156,-4.2812 15.535,-4.8789 z"
       id="path22"
       inkscape:connector-curvature="0"
       style="fill:#004e7d" />
    <path
       d="m 1086.1,668.68 c 4.582,-0.29688 9.0664,-0.39844 13.645,-0.29688 7.9688,0.29688 16.238,1.4922 23.207,5.6758 5.4805,3.2891 9.6641,8.4688 11.855,14.445 3.1875,8.3672 3.8828,17.531 3.9844,26.395 0.098,9.6641 -0.1992,19.625 -3.0898,28.887 -1.8906,6.375 -5.5781,12.352 -11.156,16.137 -7.0703,4.8828 -15.934,6.375 -24.402,6.6758 -8.4648,0.29688 -17.129,0.0977 -25.195,-2.4922 -5.4805,-1.5938 -10.461,-4.7812 -14.145,-9.1641 -3.1875,-4.082 -5.4766,-8.7656 -6.5742,-13.844 -2.0898,-8.0703 -2.2891,-16.438 -2.3906,-24.703 0.1016,-8.4688 0.5977,-17.035 3.0898,-25.203 1.5938,-5.5781 4.7773,-10.656 9.1602,-14.543 6.0781,-5.1797 14.145,-7.2695 22.012,-7.9688 m 2.5898,17.531 c -2.8867,0.19922 -5.7773,1.0977 -8.2656,2.5898 -2.3906,1.5938 -4.1836,3.7852 -5.1797,6.4766 -1.793,4.1836 -1.9922,8.7656 -2.3906,13.148 -0.5977,7.1719 -0.4961,14.344 0.3008,21.414 0.4961,4.582 1.1953,9.5625 4.082,13.348 2.2891,2.9883 5.9766,4.6836 9.6602,5.1797 4.582,0.59766 9.2656,0.79688 13.945,0.30078 3.9844,-0.30078 8.0664,-1.2969 11.055,-4.0859 2.9883,-2.7891 4.3828,-7.0703 5.082,-11.055 1.293,-8.8672 1.4922,-17.93 0.5976,-26.895 -0.5,-5.082 -0.996,-10.559 -4.0859,-14.742 -2.3906,-3.2891 -6.4727,-4.9805 -10.359,-5.5781 -4.7773,-0.5 -9.6602,-0.5 -14.441,-0.10156 z"
       id="path24"
       inkscape:connector-curvature="0"
       style="fill:#004e7d" />
    <path
       d="m 1319.5,668.59 c 10.16,-0.79688 20.32,0.29687 30.277,2.1914 0.9961,0.29688 2.1914,0.19922 2.7891,1.0938 0.3008,0.79688 0.3984,1.6953 0.3008,2.4922 v 11.652 c 0,0.79688 -0.3985,1.793 -1.2969,1.793 -1.8906,0.10156 -3.7812,-0.59766 -5.7734,-0.79688 -5.8789,-0.99609 -11.953,-1.6914 -17.93,-1.793 -4.582,0 -9.3633,0.10156 -13.746,1.793 -2.1914,0.79688 -3.9844,2.4922 -4.9805,4.6836 -1.0938,2.6875 -0.5977,5.7773 1.2969,7.9688 1.793,1.9922 4.2812,3.0859 6.7734,4.1836 7.668,2.9883 15.535,5.4766 23.105,8.8633 5.082,2.293 10.16,5.082 13.645,9.5625 4.2852,5.6797 5.2812,13.25 4.2852,20.121 -0.7969,6.2773 -3.9844,11.953 -8.7656,16.039 -6.2734,5.1797 -14.344,7.2695 -22.309,8.0664 -9.0664,0.80078 -18.129,0.19922 -26.992,-1.793 -2.6914,-0.49609 -5.3789,-1.293 -7.9688,-2.2891 -0.8985,-0.39844 -1.4961,-1.3945 -1.3945,-2.3906 v -13.148 c 0.098,-0.89844 0.7969,-1.4961 1.6914,-1.3945 0.1992,0 0.3008,0.0977 0.3984,0.0977 10.262,3.1875 21.117,4.9805 31.875,3.9844 3.7812,-0.49609 7.7656,-1.1953 10.855,-3.6836 2.8867,-2.5898 3.9844,-6.6758 2.6875,-10.262 -0.8945,-1.9922 -2.3906,-3.6836 -4.2812,-4.7812 -3.2891,-1.9922 -6.8711,-3.1875 -10.457,-4.4805 -6.6758,-2.4922 -13.348,-4.6836 -19.82,-7.6719 -5.1797,-2.4883 -10.062,-6.2734 -12.453,-11.652 -2.8867,-6.6758 -3.0859,-14.246 -0.4961,-21.117 2.1914,-5.6797 6.375,-10.262 11.754,-13.051 5.2773,-2.7891 11.055,-3.8828 16.93,-4.2812 z"
       id="path26"
       inkscape:connector-curvature="0"
       style="fill:#004e7d" />
    <path
       d="m 1440.1,670.68 c 8.7656,-1.6914 17.727,-2.4883 26.691,-2.3906 6.7734,-0.0977 13.547,0.89844 20.02,2.7891 5.9766,1.9922 11.754,5.3789 15.539,10.559 4.2812,5.8789 5.7773,13.25 5.9766,20.422 0.1992,7.1719 0,14.043 0.098,21.016 -0.098,7.8711 0.3984,15.938 -1.793,23.707 -1.293,4.6836 -3.9844,8.9648 -7.7695,12.055 -4.8789,3.8828 -10.855,5.9766 -16.832,7.0703 -5.1797,0.99609 -10.555,0.89844 -15.836,0.79688 -7.5703,-0.19922 -15.137,-1.293 -22.012,-4.582 -4.9805,-2.2891 -9.1641,-6.1758 -11.953,-10.957 -5.2773,-10.758 -4.5781,-23.406 1.8945,-33.566 3.8828,-5.4805 10.059,-8.9648 16.434,-10.758 7.1719,-1.9922 14.641,-2.293 22.113,-1.8945 5.2773,0.30078 10.457,0.99609 15.637,1.9922 0,-4.2812 0.098,-8.7656 -1.5938,-12.75 -1.0977,-2.5898 -3.0898,-4.6797 -5.6797,-5.9766 -3.2852,-1.4922 -6.7734,-2.2891 -10.355,-2.4883 -9.6641,-0.79688 -19.223,0.0977 -28.785,1.4922 -0.7969,0.19922 -1.6953,0.19922 -2.5898,0 -0.8985,-0.39844 -0.7969,-1.4922 -0.7969,-2.2891 v -12.055 c -0.3008,-1.0938 0.4961,-1.9922 1.5938,-2.1914 m 19.023,51.598 c -3.4883,0.69922 -6.4766,2.7891 -8.3672,5.7773 -2.8867,4.9805 -2.7891,11.953 1.1953,16.336 2.6875,2.8906 6.5742,4.2852 10.359,4.8828 3.3867,0.39844 6.7734,0.49609 10.258,0.39844 4.1836,-0.19922 8.6641,-0.89844 11.953,-3.7852 2.1914,-1.793 3.0859,-4.6836 3.3867,-7.3711 0.4961,-5.082 0.1992,-10.16 0.2969,-15.141 -5.0781,-1.1953 -10.359,-1.8945 -15.535,-1.9922 -4.6836,0.0977 -9.1641,-0.10156 -13.547,0.89453 z"
       id="path28"
       inkscape:connector-curvature="0"
       style="fill:#004e7d" />
    <path
       d="m 1556,668.59 c 5.5742,-0.39844 11.152,-0.10156 16.73,-0.19922 0.9961,-0.19922 1.8945,0.49609 2.0938,1.4922 v 12.453 c -0.1016,0.99609 0.1992,2.1914 -0.3984,2.9883 -0.7969,0.89453 -2.0938,0.59766 -3.1875,0.59766 -4.4844,0.0977 -9.0664,-0.30078 -13.547,0.49609 -3.1875,0.59766 -6.5742,1.793 -8.5664,4.4844 -1.8906,2.3906 -2.5898,5.5781 -2.7891,8.5664 -0.4961,6.7734 -0.2969,13.547 -0.3985,20.32 v 43.527 c 0,0.89844 -0.6953,1.6953 -1.5938,1.6953 h -16.633 c -0.9961,0.0977 -2.1914,-0.5 -1.9922,-1.6953 v -59.266 c -0.1992,-5.5781 0.5,-11.156 1.9922,-16.535 1.8945,-5.4805 5.4805,-10.16 10.359,-13.25 5.3789,-3.4844 11.652,-5.1797 17.93,-5.6758 z"
       id="path30"
       inkscape:connector-curvature="0"
       style="fill:#004e7d" />
    <path
       d="m 1149.6,672.07 c -0.1992,-0.89453 0.3984,-1.793 1.3945,-1.9922 h 0.3008 c 5.7773,-0.0977 11.551,0 17.328,0 0.9961,-0.0977 2.3906,0.39844 2.4922,1.5938 1.1953,16.238 4.4805,32.375 9.8594,47.715 2.6875,8.168 5.9766,16.234 9.7617,24.004 0.1992,0.69922 0.5976,1.2969 1.0938,1.8945 6.5742,-13.449 11.754,-27.492 15.438,-41.938 2.5898,-10.16 4.1836,-20.52 4.9805,-30.977 0.1015,-0.69922 0.1015,-1.4961 0.6992,-1.8945 0.6953,-0.39844 1.4922,-0.49609 2.2891,-0.39844 h 16.434 c 0.8984,-0.0977 1.6953,0.5 1.793,1.3945 v 0.59766 c -0.6953,17.531 -5.4766,34.664 -11.551,51.102 -5.2812,13.844 -11.457,27.293 -18.527,40.34 -0.4961,1.0977 -1.6914,1.6953 -2.7891,1.5938 h -17.531 c -1.293,0.10156 -2.4883,-0.49609 -3.0859,-1.5938 -7.5703,-14.145 -14.742,-28.586 -20.117,-43.727 -5.8789,-15.441 -9.2656,-31.379 -10.262,-47.715 z"
       id="path32"
       inkscape:connector-curvature="0"
       style="fill:#004e7d" />
    <path
       d="m 1250.8,670.28 c 2.0898,-0.39844 4.1836,-0.0977 6.2734,-0.19922 h 11.254 c 0.8984,-0.0977 1.9922,0.5 1.8945,1.4961 v 28.188 c 0.1992,20.621 0,41.34 0.098,61.957 0,0.69922 0,1.4961 -0.1993,2.1914 -0.2968,0.79688 -1.3945,0.89844 -2.1914,0.99609 h -16.133 c -0.8984,0.10156 -1.6953,-0.49609 -1.8945,-1.3945 v -91.441 c -0.098,-0.69531 0.1993,-1.3945 0.8985,-1.793 z"
       id="path34"
       inkscape:connector-curvature="0"
       style="fill:#004e7d" />
    <path
       d="m 1616.9,672.07 c 0,-1.0938 0.8984,-1.9922 1.9922,-1.9922 h 16.035 c 1.0977,-0.0977 2.0938,0.59766 2.1914,1.6953 v 35.66 c 0,6.7734 0.1016,13.547 -0.098,20.219 -6.7734,0.30078 -13.449,0.10156 -20.219,0.10156 h -34.863 c -1.0938,0.19922 -2.0898,-0.5 -2.2891,-1.5938 v -16.137 c -0.3007,-1.1953 0.4961,-2.3906 1.6914,-2.6914 0.3008,-0.0977 0.6993,-0.0977 0.9961,0 h 34.562 z"
       id="path36"
       inkscape:connector-curvature="0"
       style="fill:#004e7d" />
    <path
       d="m 1637.2,707.33 h 34.461 c 1.293,-0.19922 2.7891,0.5 2.7891,1.8945 0.1992,3.7852 -0.1016,7.5703 0.098,11.254 -0.098,1.9922 0.3007,3.9844 -0.2969,5.9766 -0.3985,0.89844 -1.2969,1.3945 -2.1914,1.2969 h -34.859 c -0.1016,11.652 0,23.207 0,34.863 0.2969,1.793 -1.4961,2.7891 -2.9883,2.3906 h -15.34 c -1.0938,0 -1.8906,-0.89844 -1.8906,-1.8945 v -35.262 c 6.7695,-0.0977 13.445,0.19922 20.219,-0.0977 0.098,-6.7734 0,-13.547 0.098,-20.223 z"
       id="path38"
       inkscape:connector-curvature="0"
       style="fill:#27a3d5" />
  </g>
</svg>
