<?xml version="1.0" encoding="UTF-8" standalone="no"?>
<svg
   xmlns:dc="http://purl.org/dc/elements/1.1/"
   xmlns:cc="http://creativecommons.org/ns#"
   xmlns:rdf="http://www.w3.org/1999/02/22-rdf-syntax-ns#"
   xmlns:svg="http://www.w3.org/2000/svg"
   xmlns="http://www.w3.org/2000/svg"
   xmlns:sodipodi="http://sodipodi.sourceforge.net/DTD/sodipodi-0.dtd"
   xmlns:inkscape="http://www.inkscape.org/namespaces/inkscape"
   width="500mm"
   height="500mm"
   viewBox="0 0 1417.3228 1417.3228"
   version="1.1"
   id="svg67"
   sodipodi:docname="movistar_cine_espanol.svg"
   inkscape:version="0.92.4 (5da689c313, 2019-01-14)">
  <metadata
     id="metadata73">
    <rdf:RDF>
      <cc:Work
         rdf:about="">
        <dc:format>image/svg+xml</dc:format>
        <dc:type
           rdf:resource="http://purl.org/dc/dcmitype/StillImage" />
        <dc:title />
      </cc:Work>
    </rdf:RDF>
  </metadata>
  <defs
     id="defs71" />
  <sodipodi:namedview
     pagecolor="#ffffff"
     bordercolor="#666666"
     borderopacity="1"
     objecttolerance="10"
     gridtolerance="10"
     guidetolerance="10"
     inkscape:pageopacity="0"
     inkscape:pageshadow="2"
     inkscape:window-width="1920"
     inkscape:window-height="1017"
     id="namedview69"
     showgrid="false"
     units="mm"
     inkscape:zoom="0.1741619"
     inkscape:cx="-163.64083"
     inkscape:cy="282"
     inkscape:window-x="-8"
     inkscape:window-y="-8"
     inkscape:window-maximized="1"
     inkscape:current-layer="svg67" />
  <g
     id="g116"
     transform="matrix(1.1125347,0,0,1.1125347,28.346409,-632.85832)">
    <g
       transform="translate(0,994.32278)"
       id="#ffffffff">
      <path
         style="opacity:1;fill:#ffffff"
         inkscape:connector-curvature="0"
         id="path2"
         d="m 1081.44,152.29 c 5.66,-0.57 9.4,-5.33 12.91,-9.29 4.58,4.25 9.45,8.16 14.26,12.14 -4.33,9.08 -12.46,16.71 -22.54,18.65 -5.33,0.54 -10.93,0.4 -15.87,-1.89 -5.64,-2.48 -10.87,-6.67 -17.29,-6.69 -6.06,0.25 -10.42,5.07 -13.98,9.45 -4.76,-4.12 -9.67,-8.06 -14.35,-12.27 4.21,-8.62 11.78,-16.07 21.36,-18.19 6.72,-1.56 13.9,-0.31 19.93,2.99 4.83,2.51 9.85,5.8 15.57,5.1 z" />
      <path
         style="opacity:1;fill:#ffffff"
         inkscape:connector-curvature="0"
         id="path4"
         d="m 680.26,174.29 c 6.49,-1.69 14,-0.21 18.67,4.81 7.26,7.35 6.61,20.77 -1.53,27.2 -8.64,7.39 -23.96,4.51 -28.53,-6.16 -4.92,-9.75 0.53,-23.27 11.39,-25.85 z" />
      <path
         style="opacity:1;fill:#ffffff"
         inkscape:connector-curvature="0"
         id="path6"
         d="m 560.89,184.9 c 14.74,-6.62 31.47,-7.75 47.29,-5.21 13.87,2.33 27.28,8.81 36.64,19.48 7.13,7.8 11.61,17.67 14.26,27.82 -8.94,2.46 -17.99,4.52 -26.91,7.05 -3.64,-9.19 -9.3,-18.05 -18.14,-22.97 -11.78,-6.34 -26.34,-6.57 -38.7,-1.79 -11.42,4.48 -20.1,14.54 -24.08,26.01 -3.95,11.39 -4.92,23.74 -3.33,35.66 1.48,13.49 7.31,27.28 18.56,35.43 9.19,6.93 21.21,9.11 32.47,7.78 10.07,-0.93 19.92,-5.95 25.9,-14.22 3.17,-3.97 5.23,-8.65 7.31,-13.25 9.01,2.23 17.96,4.69 26.99,6.83 -3.47,13.42 -10.47,26.29 -21.63,34.82 -15.77,12.39 -36.96,15.47 -56.41,13.11 -16.16,-2.24 -31.73,-9.69 -42.89,-21.69 -14.96,-15.5 -21.54,-37.6 -21.23,-58.81 -0.36,-14.97 2.54,-30.24 9.51,-43.56 7.19,-14.42 19.6,-26.11 34.39,-32.49 z" />
      <path
         style="opacity:1;fill:#ffffff"
         inkscape:connector-curvature="0"
         id="path8"
         d="m 1010.76,188.55 c 10,-0.12 20.01,0.03 30.01,-0.09 17.27,30.9 34.4,61.89 51.67,92.79 1.29,2.28 2.55,4.59 3.8,6.91 -0.38,-33.24 0.26,-66.49 -0.33,-99.72 9.69,0.14 19.39,0.01 29.09,0.08 v 0.2 c -0.3,25.09 -0.05,50.18 -0.13,75.27 0.07,25.23 -0.15,50.45 0.11,75.68 l 0.02,0.51 c -10.1,0 -20.19,-0.13 -30.27,0.06 -18.67,-33.21 -36.97,-66.64 -55.71,-99.81 0.39,33.23 -0.07,66.47 0.23,99.71 -9.49,0.04 -18.97,-0.04 -28.45,0.06 0.04,-50.55 0.12,-101.1 -0.04,-151.65 z" />
      <path
         style="opacity:1;fill:#ffffff"
         inkscape:connector-curvature="0"
         id="path10"
         d="m 775.25,224.38 c 10.63,-2.6 22.53,-1.23 31.82,4.74 8.24,5.46 12.77,15.17 13.43,24.85 0.1,28.5 0.02,56.99 0.04,85.49 0,0.19 0,0.57 0,0.76 -9.56,-0.09 -19.12,-0.15 -28.67,0.03 0.21,-25.65 0.23,-51.3 -0.01,-76.94 -0.27,-6.61 -4.14,-13.77 -11.12,-15.06 -3.11,-0.5 -6.29,-0.51 -9.38,-0.02 -6.27,1.61 -11.07,6.62 -14.23,12.06 -5.88,10.15 -7.45,22.13 -7.61,33.69 -0.06,15.41 0.03,30.82 -0.03,46.23 -9.48,-0.09 -18.95,-0.12 -28.43,0.02 l -0.01,-1.06 c -0.16,-37.96 0.09,-75.91 -0.12,-113.86 l -0.02,-0.46 1.51,0.06 c 8.82,0.19 17.65,0.12 26.47,0.01 l 0.63,-0.02 c -0.08,6.17 0.13,12.34 -0.2,18.5 6.27,-8.92 15.22,-16.31 25.93,-19.02 z" />
      <path
         style="opacity:1;fill:#ffffff"
         inkscape:connector-curvature="0"
         id="path12"
         d="m 853.1,237.08 c 12.16,-11.91 30.43,-15.78 46.89,-13.22 11.55,1.54 22.47,7.35 30.15,16.13 9.29,11.06 14.35,25.58 14.03,40.02 0,4.05 -0.12,8.12 0.14,12.18 -26.43,-0.42 -52.88,-0.1 -79.32,-0.17 l 0.17,1.08 c 0.88,7.66 4.52,15.27 10.96,19.76 8.09,5.87 19.23,6.3 28.32,2.62 6.53,-2.72 11.23,-8.34 14.83,-14.24 7.7,2.76 15.28,5.83 23.04,8.4 -5.53,13 -15.99,24.45 -29.58,29.06 -8.2,3.01 -17.03,3.72 -25.7,3.37 -13.96,-0.35 -27.97,-6.28 -37.12,-16.97 -10.59,-12.37 -15.31,-29.03 -14.76,-45.13 0.71,-15.75 6.29,-31.89 17.95,-42.89 m 12.96,30.96 c -0.19,1.73 2.73,1.73 3.62,0.74 l 0.28,0.18 c 15.04,0.41 30.1,-0.02 45.15,0.23 -0.34,-1.06 -0.66,-2.12 -0.97,-3.17 -2.28,-8.35 -8.66,-15.71 -17.26,-17.78 -3.94,-0.5 -7.91,-0.47 -11.85,-0.12 -9.55,2.25 -16.79,10.52 -18.97,19.92 z" />
      <path
         style="opacity:1;fill:#ffffff"
         inkscape:connector-curvature="0"
         id="path14"
         d="m 671.14,224.91 h 0.2 c 9.52,0.21 19.05,0.05 28.58,0.09 -0.02,38.22 -0.19,76.45 0.09,114.67 l 0.01,0.56 c -9.67,-0.16 -19.34,-0.05 -29.01,-0.08 l 0.01,-0.44 c 0.23,-36.44 0.09,-72.89 0.07,-109.33 0.01,-1.83 0.04,-3.65 0.05,-5.47 z" />
    </g>
    <g
       transform="translate(0,994.32278)"
       id="#004e7eff">
      <path
         style="opacity:1;fill:#004e7e"
         inkscape:connector-curvature="0"
         id="path17"
         d="m 279.83,0 h 8.34 c 12.51,1.21 23.75,8.56 31.21,18.47 7.11,9.16 11.39,20.07 15.13,30.93 6.68,19.92 10.06,40.82 11.34,61.75 -1.92,7.17 -0.3,14.57 -0.61,21.87 -0.2,5.25 -0.79,10.59 0.61,15.75 -0.7,9.77 -1.92,19.52 -3.5,29.19 -1.36,7.93 -3.59,16.24 -9.43,22.11 -4.48,4.81 -11.38,7.53 -17.91,6.08 -5.48,-0.92 -9.87,-5.22 -11.9,-10.25 -2.62,-5.96 -2.31,-12.61 -1.98,-18.96 1.03,-11.34 2.57,-22.65 3.12,-34.04 0.8,-10.13 1.15,-20.41 -0.78,-30.44 -1.18,-5.52 -3.72,-11.29 -8.8,-14.26 -6.04,-4.04 -14.33,-2.74 -19.86,1.6 -11.06,8.09 -17.65,20.67 -23.01,32.97 -9.67,22.13 -15.99,45.49 -23.56,68.38 -4.46,12.79 -11.72,25.1 -22.83,33.18 -9.92,7.35 -22.26,10.53 -34.39,11.6 -8.71,0.5 -17.64,0.57 -26.04,-2.12 C 129.33,239.26 116.53,227.69 108.11,214 96.25,194.34 85.16,174.23 73.65,154.38 c -3.03,-4.87 -6.12,-9.86 -10.54,-13.61 -2.74,-2.26 -6.39,-3.93 -10,-3.06 -4.92,0.67 -9.05,4.57 -10.32,9.32 -1.93,6.72 -1.43,13.85 -0.45,20.68 3.29,19.9 11.11,38.65 15.88,58.18 1.72,7.28 3.05,15.58 -0.98,22.36 -6.19,10.97 -23.55,9.34 -29.89,-0.67 -5.58,-7.44 -8.51,-16.37 -11.68,-25 C 7.43,198.66 1.54,173.78 0,148.47 V 130.86 C 1.54,109.17 5.47,87.31 14.49,67.39 21.07,53.1 31.47,39.55 46.39,33.38 57.04,28.81 69.35,28.25 80.42,31.6 c 11.26,3.52 19.53,12.42 27.3,20.83 11.05,13.9 20.51,28.97 29.81,44.07 5.02,8.32 11.14,16.22 19.23,21.76 7.49,5.13 17.3,7.35 26.06,4.33 10.05,-2.84 16.92,-11.71 20.78,-20.99 7.95,-18.82 14.99,-38.02 23.51,-56.59 4.27,-9.98 9.59,-19.79 17.57,-27.31 C 253.9,8 266.48,1.44 279.83,0 Z" />
    </g>
    <g
       transform="translate(0,994.32278)"
       id="#ff544dff">
      <path
         style="opacity:1;fill:#ff544d"
         inkscape:connector-curvature="0"
         id="path20"
         d="m 443.16,95.18 c 20.27,0.06 40.55,-0.28 60.82,-0.19 50.34,0.34 100.68,0.1 151.02,0.17 176.34,-0.01 352.68,0.01 529.02,-0.01 6.65,0.05 13.41,1.24 19.31,4.44 10.84,5.59 18.22,16.87 19.67,28.92 V 389.4 c -1.07,16.32 -14.06,30.79 -30.17,33.6 H 472.98 c -16.71,-3.2 -29.75,-18.87 -29.82,-35.89 -0.06,-39.69 -0.01,-79.38 -0.03,-119.07 0.14,-57.62 -0.29,-115.24 0.03,-172.86 m 638.28,57.11 c -5.72,0.7 -10.74,-2.59 -15.57,-5.1 -6.03,-3.3 -13.21,-4.55 -19.93,-2.99 -9.58,2.12 -17.15,9.57 -21.36,18.19 4.68,4.21 9.59,8.15 14.35,12.27 3.56,-4.38 7.92,-9.2 13.98,-9.45 6.42,0.02 11.65,4.21 17.29,6.69 4.94,2.29 10.54,2.43 15.87,1.89 10.08,-1.94 18.21,-9.57 22.54,-18.65 -4.81,-3.98 -9.68,-7.89 -14.26,-12.14 -3.51,3.96 -7.25,8.72 -12.91,9.29 m -401.18,22 c -10.86,2.58 -16.31,16.1 -11.39,25.85 4.57,10.67 19.89,13.55 28.53,6.16 8.14,-6.43 8.79,-19.85 1.53,-27.2 -4.67,-5.02 -12.18,-6.5 -18.67,-4.81 M 560.89,184.9 c -14.79,6.38 -27.2,18.07 -34.39,32.49 -6.97,13.32 -9.87,28.59 -9.51,43.56 -0.31,21.21 6.27,43.31 21.23,58.81 11.16,12 26.73,19.45 42.89,21.69 19.45,2.36 40.64,-0.72 56.41,-13.11 11.16,-8.53 18.16,-21.4 21.63,-34.82 -9.03,-2.14 -17.98,-4.6 -26.99,-6.83 -2.08,4.6 -4.14,9.28 -7.31,13.25 -5.98,8.27 -15.83,13.29 -25.9,14.22 -11.26,1.33 -23.28,-0.85 -32.47,-7.78 -11.25,-8.15 -17.08,-21.94 -18.56,-35.43 -1.59,-11.92 -0.62,-24.27 3.33,-35.66 3.98,-11.47 12.66,-21.53 24.08,-26.01 12.36,-4.78 26.92,-4.55 38.7,1.79 8.84,4.92 14.5,13.78 18.14,22.97 8.92,-2.53 17.97,-4.59 26.91,-7.05 -2.65,-10.15 -7.13,-20.02 -14.26,-27.82 -9.36,-10.67 -22.77,-17.15 -36.64,-19.48 -15.82,-2.54 -32.55,-1.41 -47.29,5.21 m 449.87,3.65 c 0.16,50.55 0.08,101.1 0.04,151.65 9.48,-0.1 18.96,-0.02 28.45,-0.06 -0.3,-33.24 0.16,-66.48 -0.23,-99.71 18.74,33.17 37.04,66.6 55.71,99.81 10.08,-0.19 20.17,-0.06 30.27,-0.06 l -0.02,-0.51 c 0.71,-1.12 1.06,-2.34 1.03,-3.66 -0.04,-45.34 -0.03,-90.68 -0.01,-136.01 -0.1,-3.76 0.59,-7.74 -1,-11.28 v -0.2 c -9.7,-0.07 -19.4,0.06 -29.09,-0.08 -0.6,1.43 -1.16,2.91 -1.08,4.48 0.22,29.61 -0.07,59.22 0.2,88.83 -0.65,-0.13 -1.94,-0.38 -2.59,-0.5 -17.27,-30.9 -34.4,-61.89 -51.67,-92.79 -10,0.12 -20.01,-0.03 -30.01,0.09 m -339.42,36.36 h -0.2 c -0.01,1.82 -0.04,3.64 -0.05,5.47 -0.88,1.38 -1.22,3.01 -1.18,4.63 0.04,33.64 0.06,67.28 0.01,100.91 -0.07,1.38 0.3,2.65 1.1,3.79 l -0.01,0.44 c 9.67,0.03 19.34,-0.08 29.01,0.08 l -0.01,-0.56 c 0.92,-1.4 1.12,-3.07 1.1,-4.7 -0.03,-13.66 -0.05,-27.32 -0.03,-40.98 -0.24,-23.25 0.45,-46.52 -0.39,-69.76 -7.55,-0.61 -15.12,-0.21 -22.68,-0.37 -2.26,0.04 -4.68,-0.22 -6.67,1.05 m 49.88,-0.65 1.2,0.65 -1.51,-0.06 0.02,0.46 c -0.63,1.14 -0.95,2.36 -0.97,3.65 0.09,36.71 0.03,73.42 0.03,110.13 l 1.06,0.08 0.01,1.06 c 9.48,-0.14 18.95,-0.11 28.43,-0.02 0.06,-15.41 -0.03,-30.82 0.03,-46.23 0.16,-11.56 1.73,-23.54 7.61,-33.69 3.16,-5.44 7.96,-10.45 14.23,-12.06 2.98,1.23 6.38,1.24 9.38,0.02 6.98,1.29 10.85,8.45 11.12,15.06 -0.5,1.52 -0.98,3.07 -0.94,4.69 0.03,22.35 0.1,44.71 -0.03,67.07 -0.06,1.77 0.42,3.5 0.98,5.18 9.55,-0.18 19.11,-0.12 28.67,-0.03 0,-0.19 0,-0.57 0,-0.76 1.12,-1.22 1.54,-2.81 1.47,-4.43 -0.04,-23.36 -0.04,-46.72 -0.03,-70.08 0.04,-4.07 0.12,-8.16 -0.39,-12.22 l -1.09,1.24 c -0.66,-9.68 -5.19,-19.39 -13.43,-24.85 -9.29,-5.97 -21.19,-7.34 -31.82,-4.74 -10.71,2.71 -19.66,10.1 -25.93,19.02 0.33,-6.16 0.12,-12.33 0.2,-18.5 l -0.63,0.02 c -2.75,-1.44 -5.92,-0.88 -8.88,-0.93 -6.27,0.2 -12.55,-0.31 -18.79,0.27 m 131.88,12.82 c -11.66,11 -17.24,27.14 -17.95,42.89 -0.55,16.1 4.17,32.76 14.76,45.13 9.15,10.69 23.16,16.62 37.12,16.97 8.67,0.35 17.5,-0.36 25.7,-3.37 13.59,-4.61 24.05,-16.06 29.58,-29.06 -7.76,-2.57 -15.34,-5.64 -23.04,-8.4 -3.6,5.9 -8.3,11.52 -14.83,14.24 -9.09,3.68 -20.23,3.25 -28.32,-2.62 -6.44,-4.49 -10.08,-12.1 -10.96,-19.76 24.95,-0.06 49.91,-0.06 74.87,-0.01 1.47,0.04 2.91,-0.35 4.28,-0.9 -0.26,-4.06 -0.14,-8.13 -0.14,-12.18 0.32,-14.44 -4.74,-28.96 -14.03,-40.02 -7.68,-8.78 -18.6,-14.59 -30.15,-16.13 -16.46,-2.56 -34.73,1.31 -46.89,13.22 z" />
      <path
         style="opacity:1;fill:#ff544d"
         inkscape:connector-curvature="0"
         id="path22"
         d="m 866.06,268.04 c 2.18,-9.4 9.42,-17.67 18.97,-19.92 3.86,1.22 7.95,1.2 11.85,0.12 8.6,2.07 14.98,9.43 17.26,17.78 -0.75,0.64 -1.49,1.29 -2.22,1.94 -10.96,-0.01 -21.93,0.05 -32.89,-0.12 -3.07,-0.07 -6.1,0.4 -9.07,1.12 l -0.28,-0.18 c -1.02,-0.77 -2.39,-1.2 -3.62,-0.74 z" />
    </g>
    <g
       transform="translate(0,994.32278)"
       id="#02386dff">
      <path
         style="opacity:1;fill:#02386d"
         inkscape:connector-curvature="0"
         id="path25"
         d="m 345.24,133.02 c 0.31,-7.3 -1.31,-14.7 0.61,-21.87 0.68,12.53 0.91,25.09 0,37.62 -1.4,-5.16 -0.81,-10.5 -0.61,-15.75 z" />
    </g>
    <g
       transform="translate(0,994.32278)"
       id="#fe3c36ff">
      <path
         style="opacity:1;fill:#fe3c36"
         inkscape:connector-curvature="0"
         id="path28"
         d="m 1094.83,192.92 c -0.08,-1.57 0.48,-3.05 1.08,-4.48 0.59,33.23 -0.05,66.48 0.33,99.72 -1.25,-2.32 -2.51,-4.63 -3.8,-6.91 0.65,0.12 1.94,0.37 2.59,0.5 -0.27,-29.61 0.02,-59.22 -0.2,-88.83 z" />
    </g>
    <g
       transform="translate(0,994.32278)"
       id="#ff3b32ff">
      <path
         style="opacity:1;fill:#ff3b32"
         inkscape:connector-curvature="0"
         id="path31"
         d="m 1125,188.72 c 1.59,3.54 0.9,7.52 1,11.28 -0.02,45.33 -0.03,90.67 0.01,136.01 0.03,1.32 -0.32,2.54 -1.03,3.66 -0.26,-25.23 -0.04,-50.45 -0.11,-75.68 0.08,-25.09 -0.17,-50.18 0.13,-75.27 z" />
    </g>
    <g
       transform="translate(0,994.32278)"
       id="#ff3937ff">
      <path
         style="opacity:1;fill:#ff3937"
         inkscape:connector-curvature="0"
         id="path34"
         d="m 671.34,224.91 c 1.99,-1.27 4.41,-1.01 6.67,-1.05 7.56,0.16 15.13,-0.24 22.68,0.37 0.84,23.24 0.15,46.51 0.39,69.76 -0.02,13.66 0,27.32 0.03,40.98 0.02,1.63 -0.18,3.3 -1.1,4.7 -0.28,-38.22 -0.11,-76.45 -0.09,-114.67 -9.53,-0.04 -19.06,0.12 -28.58,-0.09 z" />
    </g>
    <g
       transform="translate(0,994.32278)"
       id="#fd342dff">
      <path
         style="opacity:1;fill:#fd342d"
         inkscape:connector-curvature="0"
         id="path37"
         d="m 721.22,224.26 c 6.24,-0.58 12.52,-0.07 18.79,-0.27 2.96,0.05 6.13,-0.51 8.88,0.93 -8.82,0.11 -17.65,0.18 -26.47,-0.01 z" />
    </g>
    <g
       transform="translate(0,994.32278)"
       id="#fe352dff">
      <path
         style="opacity:1;fill:#fe352d"
         inkscape:connector-curvature="0"
         id="path40"
         d="m 719.96,228.96 c 0.02,-1.29 0.34,-2.51 0.97,-3.65 0.21,37.95 -0.04,75.9 0.12,113.86 l -1.06,-0.08 c 0,-36.71 0.06,-73.42 -0.03,-110.13 z" />
    </g>
    <g
       transform="translate(0,994.32278)"
       id="#fe3c33ff">
      <path
         style="opacity:1;fill:#fe3c33"
         inkscape:connector-curvature="0"
         id="path43"
         d="m 669.91,235.01 c -0.04,-1.62 0.3,-3.25 1.18,-4.63 0.02,36.44 0.16,72.89 -0.07,109.33 -0.8,-1.14 -1.17,-2.41 -1.1,-3.79 0.05,-33.63 0.03,-67.27 -0.01,-100.91 z" />
    </g>
    <g
       transform="translate(0,994.32278)"
       id="#fa3a2fff">
      <path
         style="opacity:1;fill:#fa3a2f"
         inkscape:connector-curvature="0"
         id="path46"
         d="m 771.36,248.23 c 3.09,-0.49 6.27,-0.48 9.38,0.02 -3,1.22 -6.4,1.21 -9.38,-0.02 z" />
    </g>
    <g
       transform="translate(0,994.32278)"
       id="#fe3a33ff">
      <path
         style="opacity:1;fill:#fe3a33"
         inkscape:connector-curvature="0"
         id="path49"
         d="m 885.03,248.12 c 3.94,-0.35 7.91,-0.38 11.85,0.12 -3.9,1.08 -7.99,1.1 -11.85,-0.12 z" />
    </g>
    <g
       transform="translate(0,994.32278)"
       id="#ff433aff">
      <path
         style="opacity:1;fill:#ff433a"
         inkscape:connector-curvature="0"
         id="path52"
         d="m 820.5,253.97 1.09,-1.24 c 0.51,4.06 0.43,8.15 0.39,12.22 -0.01,23.36 -0.01,46.72 0.03,70.08 0.07,1.62 -0.35,3.21 -1.47,4.43 -0.02,-28.5 0.06,-56.99 -0.04,-85.49 z" />
    </g>
    <g
       transform="translate(0,994.32278)"
       id="#ff332eff">
      <path
         style="opacity:1;fill:#ff332e"
         inkscape:connector-curvature="0"
         id="path55"
         d="m 790.92,268 c -0.04,-1.62 0.44,-3.17 0.94,-4.69 0.24,25.64 0.22,51.29 0.01,76.94 -0.56,-1.68 -1.04,-3.41 -0.98,-5.18 0.13,-22.36 0.06,-44.72 0.03,-67.07 z" />
    </g>
    <g
       transform="translate(0,994.32278)"
       id="#fc3c31ff">
      <path
         style="opacity:1;fill:#fc3c31"
         inkscape:connector-curvature="0"
         id="path58"
         d="m 911.92,267.96 c 0.73,-0.65 1.47,-1.3 2.22,-1.94 0.31,1.05 0.63,2.11 0.97,3.17 -15.05,-0.25 -30.11,0.18 -45.15,-0.23 2.97,-0.72 6,-1.19 9.07,-1.12 10.96,0.17 21.93,0.11 32.89,0.12 z" />
    </g>
    <g
       transform="translate(0,994.32278)"
       id="#fa3331ff">
      <path
         style="opacity:1;fill:#fa3331"
         inkscape:connector-curvature="0"
         id="path61"
         d="m 866.06,268.04 c 1.23,-0.46 2.6,-0.03 3.62,0.74 -0.89,0.99 -3.81,0.99 -3.62,-0.74 z" />
    </g>
    <g
       transform="translate(0,994.32278)"
       id="#ff352bff">
      <path
         style="opacity:1;fill:#ff352b"
         inkscape:connector-curvature="0"
         id="path64"
         d="m 864.99,292.02 c 26.44,0.07 52.89,-0.25 79.32,0.17 -1.37,0.55 -2.81,0.94 -4.28,0.9 -24.96,-0.05 -49.92,-0.05 -74.87,0.01 z" />
    </g>
  </g>
</svg>
