<?xml version="1.0" encoding="UTF-8" standalone="no"?>
<svg
   xmlns:dc="http://purl.org/dc/elements/1.1/"
   xmlns:cc="http://creativecommons.org/ns#"
   xmlns:rdf="http://www.w3.org/1999/02/22-rdf-syntax-ns#"
   xmlns:svg="http://www.w3.org/2000/svg"
   xmlns="http://www.w3.org/2000/svg"
   xmlns:sodipodi="http://sodipodi.sourceforge.net/DTD/sodipodi-0.dtd"
   xmlns:inkscape="http://www.inkscape.org/namespaces/inkscape"
   width="500mm"
   height="500mm"
   viewBox="0 0 1417.3229 1417.3228"
   version="1.1"
   id="svg25"
   sodipodi:docname="movistar_golf.svg"
   inkscape:version="0.92.4 (5da689c313, 2019-01-14)">
  <metadata
     id="metadata31">
    <rdf:RDF>
      <cc:Work
         rdf:about="">
        <dc:format>image/svg+xml</dc:format>
        <dc:type
           rdf:resource="http://purl.org/dc/dcmitype/StillImage" />
        <dc:title />
      </cc:Work>
    </rdf:RDF>
  </metadata>
  <defs
     id="defs29" />
  <sodipodi:namedview
     pagecolor="#ffffff"
     bordercolor="#666666"
     borderopacity="1"
     objecttolerance="10"
     gridtolerance="10"
     guidetolerance="10"
     inkscape:pageopacity="0"
     inkscape:pageshadow="2"
     inkscape:window-width="1920"
     inkscape:window-height="1017"
     id="namedview27"
     showgrid="false"
     units="mm"
     inkscape:zoom="0.21068249"
     inkscape:cx="-135.27466"
     inkscape:cy="282"
     inkscape:window-x="-8"
     inkscape:window-y="-8"
     inkscape:window-maximized="1"
     inkscape:current-layer="svg25" />
  <g
     id="g856"
     transform="matrix(1.3458268,0,0,1.3458268,28.345963,-914.16726)">
    <path
       d="m 541.48,1191.8228 c 11.86,-10.95 27.58,-17.35 43.59,-18.7 15.92,-1.46 32.63,1.21 46.24,9.96 14.37,9.05 23.93,24.22 28.44,40.37 -9.2,2.2 -18.27,4.93 -27.49,7.03 -4.31,-10.25 -10.84,-20.23 -20.84,-25.66 -11.95,-6.38 -26.79,-5.62 -38.88,-0.03 -10.94,5.16 -18.77,15.51 -22.11,27 -4.38,14.96 -4.29,31.19 0,46.17 3.59,12.68 12.96,24.01 25.67,28.25 11.09,3.65 23.88,3.85 34.49,-1.44 9.85,-4.99 15.9,-15.32 17.6,-25.98 -9.91,0.09 -19.81,0 -29.72,0.06 0.08,-8.36 0.08,-16.71 0,-25.06 19.6,0.1 39.2,-0.1 58.8,0.1 -0.23,26.85 -0.18,53.71 -0.03,80.57 -8.38,0.03 -16.76,-0.02 -25.14,0.03 -1.08,-5.51 -1.82,-11.1 -2.4,-16.68 -6.78,9.86 -17.83,16.36 -29.62,18.06 -18.85,2.48 -38.78,-2.22 -53.99,-13.77 -14.88,-11.17 -24.09,-28.61 -27.39,-46.7 -2.49,-13.86 -2.49,-28.23 0.19,-42.06 3.1,-15.67 10.66,-30.74 22.59,-41.52 z"
       id="path2"
       inkscape:connector-curvature="0"
       style="opacity:1;fill:#ffffff" />
    <path
       d="m 805.02,1172.7828 c 9.49,0.11 18.99,0.07 28.49,0.03 -0.05,53.89 -0.08,107.78 0.02,161.67 -9.49,0.02 -18.98,-0.11 -28.47,0.07 -0.13,-53.92 -0.04,-107.85 -0.04,-161.77 z"
       id="path4"
       inkscape:connector-curvature="0"
       style="opacity:1;fill:#ffffff" />
    <path
       d="m 868.27,1186.6628 c 6.11,-8.54 16.52,-13 26.8,-13.64 7.02,-0.38 14.25,-0.51 21.08,1.49 0.05,8.68 -0.12,17.36 0.08,26.04 -5.35,-2.52 -11.38,-3.91 -17.29,-3.11 -3.81,0.76 -7.35,3.45 -8.52,7.24 -1.52,4.72 -0.76,9.72 -1,14.58 8.15,0.15 16.31,0.07 24.47,0.02 -0.07,8.17 -0.07,16.33 0,24.5 -8.14,0.03 -16.28,-0.02 -24.42,0.03 0.04,30.22 -0.07,60.45 0.06,90.67 -9.58,-0.01 -19.16,-0.05 -28.73,0.02 0.09,-30.23 0.06,-60.47 0.01,-90.7 -4.9,0 -9.81,0 -14.71,-0.03 0.09,-8.16 0.07,-16.33 0.01,-24.49 4.93,0.09 9.86,0.01 14.79,0.08 -0.33,-11.21 0.4,-23.38 7.37,-32.7 z"
       id="path6"
       inkscape:connector-curvature="0"
       style="opacity:1;fill:#ffffff" />
    <path
       d="m 722.55,1217.9428 c 15.57,-1.81 32.29,1.31 44.93,10.97 11.79,8.79 18.99,22.8 20.98,37.23 1.97,14.43 0.25,29.73 -6.89,42.61 -7.46,13.69 -21.3,23.48 -36.59,26.38 -16.15,3.08 -33.93,1.35 -47.94,-7.78 -11.96,-7.57 -20.06,-20.32 -23.18,-34 -3.98,-17.49 -1.71,-36.87 8.27,-52.01 8.82,-13.62 24.42,-21.96 40.42,-23.4 m 1.69,24.71 c -4.04,1.12 -8.01,2.92 -11.02,5.91 -8.6,7.59 -11.62,19.69 -11.23,30.78 0.57,7.93 2.63,16.09 7.69,22.4 5.76,7.88 16.29,11.89 25.83,9.89 7.27,-1.2 13.91,-5.75 17.71,-12.06 5.85,-9.21 7.01,-20.67 5.32,-31.26 -1.73,-9.32 -6.68,-18.65 -15.3,-23.24 -5.72,-3.33 -12.65,-3.42 -19,-2.42 z"
       id="path8"
       inkscape:connector-curvature="0"
       style="opacity:1;fill:#ffffff" />
    <path
       d="m 279.7,994.32282 h 8.61 c 11.04,1.16 21.2,7.00998 28.45,15.29998 4.34,4.87 7.75,10.49 10.69,16.29 11.51,24.93 16.72,52.34 18.41,79.62 -2.05,6.05 -0.37,12.52 -0.67,18.76 0.51,6.24 -1.35,12.67 0.66,18.75 -0.68,9.51 -1.87,18.99 -3.35,28.41 -1.39,8.18 -3.51,16.84 -9.56,22.91 -4.45,4.84 -11.37,7.56 -17.91,6.11 -5.47,-0.93 -9.93,-5.18 -11.92,-10.25 -2.75,-6.28 -2.3,-13.31 -1.9,-19.98 0.91,-8.63 1.79,-17.25 2.61,-25.88 0.68,-11.69 1.96,-23.49 0.08,-35.13 -0.94,-6.35 -3.4,-13.26 -9.21,-16.69 -4.92,-3.29 -11.68,-3.19 -16.77,-0.34 -7.41,4.01 -12.79,10.77 -17.3,17.71 -6.45,10.25 -10.82,21.6 -15.13,32.86 -5.94,16.41 -10.96,33.13 -16.25,49.75 -4.22,13.24 -11.15,26.14 -22.2,34.9 -10,8.01 -22.79,11.67 -35.38,12.73 -5.68,-1.41 -11.65,-1.1 -17.36,-0.1 -19.25,-2.08 -35.83,-14.97 -45.8,-31.1 -10.14,-16.71 -19.64,-33.8 -29.39,-50.74 -4.21,-7.28 -8.09,-14.92 -13.86,-21.13 -3.06,-3.25 -7.5,-6.14 -12.15,-5.04 -5.23,0.68 -9.43,5.04 -10.55,10.1 -2.02,8.43 -0.87,17.23 0.84,25.61 3.33,15.59 8.81,30.6 13.15,45.92 1.55,5.77 3.12,11.62 3.35,17.62 0.2,5.5 -1.53,11.41 -5.8,15.1 -6.9,5.9 -18.19,4.55 -24.39,-1.74 -5.25,-5.63 -8.45,-12.78 -11.12,-19.92 -9.94,-26.24 -16.79,-53.84 -18.58,-81.9 v -17.78 c 1.7,-22.86 5.87,-45.99 16.11,-66.68 6.89,-13.68 17.7,-26.27 32.47,-31.55 11.27,-4.09 24.21,-4.21 35.34,0.42 9.41,3.98 16.42,11.68 23.32,18.93 12.04,14.94 22.04,31.37 32.17,47.62 4.28,6.84 9.65,13.06 16.11,17.93 7.67,5.7 18,8.38 27.25,5.2 10.06,-2.82 16.96,-11.69 20.81,-20.98 7.87,-18.58 14.81,-37.55 23.22,-55.91 4.28,-9.98 9.43,-19.92 17.39,-27.5 9.24,-9.94 21.97,-16.68998 35.51,-18.20998 z"
       id="path11"
       inkscape:connector-curvature="0"
       style="opacity:1;fill:#004e7e" />
    <path
       d="m 443.22,1089.4628 c 11.57,-0.02 23.15,0.14 34.72,-0.13 165.03,0.32 330.08,0.05 495.11,0.16 10.6,0.05 21.27,4.31 28.27,12.4 6.41,6.63 9.4,15.83 9.68,24.92 v 254.06 c -0.27,9.33 -3.63,18.67 -10.23,25.39 -5.32,5.83 -12.61,9.62 -20.34,11.06 H 472.89 c -6,-1.59 -11.93,-3.99 -16.57,-8.23 -8.15,-6.78 -12.96,-17.21 -13.17,-27.76 0,-44.99 0,-89.98 0,-134.97 0.16,-52.3 -0.4,-104.6 0.07,-156.9 m 98.26,102.36 c -11.93,10.78 -19.49,25.85 -22.59,41.52 -2.68,13.83 -2.68,28.2 -0.19,42.06 3.3,18.09 12.51,35.53 27.39,46.7 15.21,11.55 35.14,16.25 53.99,13.77 11.79,-1.7 22.84,-8.2 29.62,-18.06 0.58,5.58 1.32,11.17 2.4,16.68 8.38,-0.05 16.76,0 25.14,-0.03 -0.15,-26.86 -0.2,-53.72 0.03,-80.57 -19.6,-0.2 -39.2,0 -58.8,-0.1 0.08,8.35 0.08,16.7 0,25.06 9.91,-0.06 19.81,0.03 29.72,-0.06 -1.7,10.66 -7.75,20.99 -17.6,25.98 -10.61,5.29 -23.4,5.09 -34.49,1.44 -12.71,-4.24 -22.08,-15.57 -25.67,-28.25 -4.29,-14.98 -4.38,-31.21 0,-46.17 3.34,-11.49 11.17,-21.84 22.11,-27 12.09,-5.59 26.93,-6.35 38.88,0.03 10,5.43 16.53,15.41 20.84,25.66 9.22,-2.1 18.29,-4.83 27.49,-7.03 -4.51,-16.15 -14.07,-31.32 -28.44,-40.37 -13.61,-8.75 -30.32,-11.42 -46.24,-9.96 -16.01,1.35 -31.73,7.75 -43.59,18.7 m 263.54,-19.04 c 0,53.92 -0.09,107.85 0.04,161.77 9.49,-0.18 18.98,-0.05 28.47,-0.07 -0.1,-53.89 -0.07,-107.78 -0.02,-161.67 -9.5,0.04 -19,0.08 -28.49,-0.03 m 63.25,13.88 c -6.97,9.32 -7.7,21.49 -7.37,32.7 -4.93,-0.07 -9.86,0.01 -14.79,-0.08 0.06,8.16 0.08,16.33 -0.01,24.49 4.9,0.03 9.81,0.03 14.71,0.03 0.05,30.23 0.08,60.47 -0.01,90.7 9.57,-0.07 19.15,-0.03 28.73,-0.02 -0.13,-30.22 -0.02,-60.45 -0.06,-90.67 8.14,-0.05 16.28,0 24.42,-0.03 -0.07,-8.17 -0.07,-16.33 0,-24.5 -8.16,0.05 -16.32,0.13 -24.47,-0.02 0.24,-4.86 -0.52,-9.86 1,-14.58 1.17,-3.79 4.71,-6.48 8.52,-7.24 5.91,-0.8 11.94,0.59 17.29,3.11 -0.2,-8.68 -0.03,-17.36 -0.08,-26.04 -6.83,-2 -14.06,-1.87 -21.08,-1.49 -10.28,0.64 -20.69,5.1 -26.8,13.64 m -145.72,31.28 c -16,1.44 -31.6,9.78 -40.42,23.4 -9.98,15.14 -12.25,34.52 -8.27,52.01 3.12,13.68 11.22,26.43 23.18,34 14.01,9.13 31.79,10.86 47.94,7.78 15.29,-2.9 29.13,-12.69 36.59,-26.38 7.14,-12.88 8.86,-28.18 6.89,-42.61 -1.99,-14.43 -9.19,-28.44 -20.98,-37.23 -12.64,-9.66 -29.36,-12.78 -44.93,-10.97 z"
       id="path14"
       inkscape:connector-curvature="0"
       style="opacity:1;fill:#01da95" />
    <path
       d="m 724.24,1242.6528 c 6.35,-1 13.28,-0.91 19,2.42 8.62,4.59 13.57,13.92 15.3,23.24 1.69,10.59 0.53,22.05 -5.32,31.26 -3.8,6.31 -10.44,10.86 -17.71,12.06 -9.54,2 -20.07,-2.01 -25.83,-9.89 -5.06,-6.31 -7.12,-14.47 -7.69,-22.4 -0.39,-11.09 2.63,-23.19 11.23,-30.78 3.01,-2.99 6.98,-4.79 11.02,-5.91 z"
       id="path16"
       inkscape:connector-curvature="0"
       style="opacity:1;fill:#01da95" />
    <path
       d="m 345.19,1124.2928 c 0.3,-6.24 -1.38,-12.71 0.67,-18.76 0.65,12.5 0.91,25.01 -0.01,37.51 -2.01,-6.08 -0.15,-12.51 -0.66,-18.75 z"
       id="path19"
       inkscape:connector-curvature="0"
       style="opacity:1;fill:#02386d" />
    <path
       d="m 154.3,1240.0528 c 5.71,-1 11.68,-1.31 17.36,0.1 -5.78,0.41 -11.6,0.56 -17.36,-0.1 z"
       id="path22"
       inkscape:connector-curvature="0"
       style="opacity:1;fill:#00336b" />
  </g>
</svg>
