<?xml version="1.0" encoding="UTF-8" standalone="no"?>
<svg
   xmlns:dc="http://purl.org/dc/elements/1.1/"
   xmlns:cc="http://creativecommons.org/ns#"
   xmlns:rdf="http://www.w3.org/1999/02/22-rdf-syntax-ns#"
   xmlns:svg="http://www.w3.org/2000/svg"
   xmlns="http://www.w3.org/2000/svg"
   xmlns:sodipodi="http://sodipodi.sourceforge.net/DTD/sodipodi-0.dtd"
   xmlns:inkscape="http://www.inkscape.org/namespaces/inkscape"
   width="500mm"
   height="500mm"
   viewBox="0 0 1417.3228 1417.3229"
   version="1.1"
   id="svg16"
   sodipodi:docname="neox.svg"
   inkscape:version="0.92.4 (5da689c313, 2019-01-14)">
  <metadata
     id="metadata22">
    <rdf:RDF>
      <cc:Work
         rdf:about="">
        <dc:format>image/svg+xml</dc:format>
        <dc:type
           rdf:resource="http://purl.org/dc/dcmitype/StillImage" />
        <dc:title />
      </cc:Work>
    </rdf:RDF>
  </metadata>
  <defs
     id="defs20" />
  <sodipodi:namedview
     pagecolor="#ffffff"
     bordercolor="#666666"
     borderopacity="1"
     objecttolerance="10"
     gridtolerance="10"
     guidetolerance="10"
     inkscape:pageopacity="0"
     inkscape:pageshadow="2"
     inkscape:window-width="1920"
     inkscape:window-height="1017"
     id="namedview18"
     showgrid="false"
     units="mm"
     inkscape:zoom="0.35323383"
     inkscape:cx="466.99781"
     inkscape:cy="869.06209"
     inkscape:window-x="-8"
     inkscape:window-y="-8"
     inkscape:window-maximized="1"
     inkscape:current-layer="svg16" />
  <g
     id="#e4c723ff"
     transform="matrix(2.2564368,0,0,2.2564368,28.34573,544.28315)">
    <path
       d="m 72.38,0 h 2.3 c 23.52,0.74 46.39,13.36 59.05,33.27 4.84,7.12 7.62,15.31 10.08,23.49 l -1.19,-0.26 c 0.29,0.15 0.88,0.46 1.18,0.62 0.89,4.92 1.51,9.91 1.46,14.92 -0.01,23.04 0.03,46.09 0,69.12 0.34,1.9 -2.18,1.16 -3.21,1.4 -11.06,-0.06 -22.12,-0.04 -33.19,-0.04 -0.24,-23.84 0.01,-47.7 -0.1,-71.54 C 108.35,52.86 92.13,36.88 74.02,36.69 58.39,35.71 43.2,46.53 38.43,61.34 36.55,66.68 36.47,72.42 36.48,78.02 36.55,99.51 36.42,121 36.55,142.5 24.37,142.56 12.18,142.5 0,142.53 V 69.39 C 1.14,51.55 8.36,33.87 21.37,21.41 34.55,7.68 53.48,0.32 72.38,0 Z"
       id="path7"
       inkscape:connector-curvature="0"
       style="opacity:1;fill:#e4c723" />
    <path
       d="m 229.37,0 h 5.26 c 6.65,0.58 13.35,1.46 19.67,3.67 16.29,5.48 30.1,17.62 38.11,32.77 7.42,13.17 10.66,28.53 10.05,43.58 -0.32,2.9 -0.41,6.02 -1.87,8.62 -4.16,0.74 -8.4,0.24 -12.59,0.35 -30.23,0.06 -60.46,-0.11 -90.69,0.09 2.89,4.56 6.01,9.01 9.71,12.95 4.25,4.29 9.66,7.2 15.22,9.45 0.29,-0.23 0.87,-0.7 1.17,-0.93 0.02,0.35 0.05,1.07 0.07,1.42 9.5,0.83 19.26,0.93 28.48,-1.83 7.33,-2.04 13.75,-6.27 20.38,-9.85 6.12,9.46 12.36,18.83 18.47,28.29 -15.7,12.37 -36.23,16.42 -55.79,17.06 -24.64,0.98 -49.44,-10.69 -64.19,-30.48 C 150.36,87.59 153.56,45.21 178.16,21.19 191.53,7.64 210.55,0.68 229.37,0 m -27.45,49.97 c -2.02,2.61 -4.52,5.21 -4.89,8.65 21.93,-0.24 43.87,-0.05 65.81,-0.1 -1.85,-5.57 -5.89,-10.23 -10.31,-13.98 -7.26,-6.2 -17.13,-8.57 -26.52,-7.92 -9.36,1.15 -18.09,6.09 -24.09,13.35 z"
       id="path9"
       inkscape:connector-curvature="0"
       style="opacity:1;fill:#e4c723" />
    <path
       d="m 382.39,0 h 3.25 c 14.47,0.62 28.94,5.02 40.64,13.7 13.25,9.16 22.69,23.16 27.46,38.43 4.29,14.8 3.87,30.96 -1.43,45.44 -6.53,17.94 -20.39,33.22 -37.87,41 -18.03,8.55 -39.78,8.98 -58.14,1.19 -15.23,-6.09 -28.11,-17.69 -35.97,-32.07 -7.85,-13.9 -10.36,-30.47 -8.11,-46.19 2.52,-15.42 9.91,-30.17 21.3,-40.94 C 346.44,7.8 364.31,0.61 382.39,0 m -6.09,37.44 c -14.71,3.23 -27.02,16.28 -28.16,31.49 -1.23,9.11 1.88,18.31 7.17,25.66 6.5,8.57 16.95,13.73 27.64,14.26 11.38,0.18 22.78,-5.13 29.71,-14.22 5.27,-7.37 8.49,-16.58 7.2,-25.7 -0.85,-10.74 -7.23,-20.66 -16.26,-26.41 -7.89,-5.39 -18,-7.01 -27.3,-5.08 z"
       id="path11"
       inkscape:connector-curvature="0"
       style="opacity:1;fill:#e4c723" />
    <path
       d="m 462.74,0 h 4.87 c 17.41,1.19 34.84,6.86 48.66,17.72 6.37,5.09 11.96,11.13 16.69,17.78 C 548.36,12.76 575.81,-0.08 603,0.12 v 36.44 c -9.99,0.25 -20.07,3.24 -27.73,9.83 -8.29,6.64 -13.52,17.32 -12.91,28 0.66,11.95 8.29,22.84 18.63,28.58 6.67,3.83 14.33,5.73 22.01,5.72 v 36.5 c -27.13,0.3 -55.03,-12.46 -70.06,-35.52 -15.53,22.58 -42.99,36.15 -70.31,35.09 0.19,-12.04 0.15,-24.08 0.01,-36.12 11,-0.14 22.28,-3.91 30.13,-11.84 6.23,-5.9 10.28,-14.19 10.49,-22.83 0.61,-10.52 -4.54,-21 -12.6,-27.63 -7.72,-6.69 -17.93,-9.64 -27.99,-10.03 0.14,-12.1 0.02,-24.21 0.07,-36.31 z"
       id="path13"
       inkscape:connector-curvature="0"
       style="opacity:1;fill:#e4c723" />
  </g>
</svg>
