<?xml version="1.0" encoding="UTF-8" standalone="no"?>
<!-- Generator: Adobe Illustrator 16.0.0, SVG Export Plug-In . SVG Version: 6.00 Build 0)  -->

<svg
   xmlns:dc="http://purl.org/dc/elements/1.1/"
   xmlns:cc="http://creativecommons.org/ns#"
   xmlns:rdf="http://www.w3.org/1999/02/22-rdf-syntax-ns#"
   xmlns:svg="http://www.w3.org/2000/svg"
   xmlns="http://www.w3.org/2000/svg"
   xmlns:sodipodi="http://sodipodi.sourceforge.net/DTD/sodipodi-0.dtd"
   xmlns:inkscape="http://www.inkscape.org/namespaces/inkscape"
   version="1.1"
   id="Layer_1"
   x="0px"
   y="0px"
   width="500mm"
   height="500mm"
   viewBox="0 0 1889.7637 1889.7639"
   enable-background="new 0 0 1000 995.836"
   xml:space="preserve"
   sodipodi:docname="paramount_network.svg"
   inkscape:version="0.92.4 (5da689c313, 2019-01-14)"><metadata
   id="metadata62"><rdf:RDF><cc:Work
       rdf:about=""><dc:format>image/svg+xml</dc:format><dc:type
         rdf:resource="http://purl.org/dc/dcmitype/StillImage" /><dc:title></dc:title></cc:Work></rdf:RDF></metadata><defs
   id="defs60" /><sodipodi:namedview
   pagecolor="#ffffff"
   bordercolor="#666666"
   borderopacity="1"
   objecttolerance="10"
   gridtolerance="10"
   guidetolerance="10"
   inkscape:pageopacity="0"
   inkscape:pageshadow="2"
   inkscape:window-width="1920"
   inkscape:window-height="1017"
   id="namedview58"
   showgrid="false"
   inkscape:pagecheckerboard="true"
   inkscape:zoom="0.33514997"
   inkscape:cx="844.15278"
   inkscape:cy="944.88189"
   inkscape:window-x="-8"
   inkscape:window-y="-8"
   inkscape:window-maximized="1"
   inkscape:current-layer="Layer_1"
   units="mm" />
<g
   id="g102"
   transform="matrix(1.8141741,0,0,1.8141741,37.79566,-1580.1689)"><path
     inkscape:connector-curvature="0"
     id="path64"
     d="m 139.464,1555.3689 346.28,71.227 h 57.631 l 77.21,6.914 h 98.816 l 78.772,-21.834 28.064,-4.546 -126.436,-244.846 -148.338,-208.875 -43.34,-31.102 -23.256,17.672 z"
     style="fill:#ffffff;fill-opacity:1;stroke:none;stroke-width:1px;stroke-linecap:butt;stroke-linejoin:miter;stroke-opacity:1" /><g
     transform="translate(0,893.92786)"
     style="fill:#0067a5;fill-opacity:1"
     id="g55">
	<g
   style="fill:#0067a5;fill-opacity:1"
   id="g3495">
		<g
   style="fill:#0067a5;fill-opacity:1"
   transform="matrix(0.60120052,0,0,0.58150801,29.425545,-3.1295255)"
   id="g3217">
			<polygon
   style="fill:#0067a5;fill-opacity:1"
   points="481.378,169.235 452.607,140.811 470.366,103.937 434.65,122.505 406.927,94.345 413.388,133.494 377.96,152.242 417.948,158.758 424.31,199.069 441.965,162.904 "
   id="polygon3232" />
			<polygon
   style="fill:#0067a5;fill-opacity:1"
   points="583.87,86.581 608.096,54.284 569.716,65.364 547.782,32.452 546.74,72.149 508.376,83.498 546.36,97.749 544.939,138.672 569.255,106.547 606.761,120.374 "
   id="polygon3234" />
			<polygon
   style="fill:#0067a5;fill-opacity:1"
   points="364.197,232.767 330.667,210.226 341.027,170.799 309.679,195.882 277.101,173.619 290.68,210.936 259.437,235.84 300.094,234.778 313.956,273.061 324.402,234.167 "
   id="polygon3236" />
			<polygon
   style="fill:#0067a5;fill-opacity:1"
   points="727.12,65.756 756.838,38.381 717.044,42.078 701.947,5.382 693.113,44.286 653.515,48.153 688.077,69.362 678.971,109.14 708.872,82.289 743.065,103.153 "
   id="polygon3238" />
			<polygon
   style="fill:#0067a5;fill-opacity:1"
   points="136.659,452.171 173.133,435.719 133.536,427.617 128.491,387.135 108.647,422.244 70.474,413.887 96.962,443.281 77.118,478.309 114.343,461.769 141.133,492.127 "
   id="polygon3240" />
			<polygon
   style="fill:#0067a5;fill-opacity:1"
   points="78.517,586.323 111.377,563.175 70.834,562.733 58.295,524.107 45.477,562.48 6.246,561.514 37.869,585.274 25.049,623.459 58.295,600.23 90.676,624.783 "
   id="polygon3242" />
			<polygon
   style="fill:#0067a5;fill-opacity:1"
   points="262.673,327.347 225.441,311.689 228.104,271.02 201.98,301.738 165.996,286.064 186.414,320.037 160.49,350.486 199.994,341.608 220.79,376.455 223.735,336.489 "
   id="polygon3244" />
			<polygon
   style="fill:#0067a5;fill-opacity:1"
   points="38.505,726.659 66.138,697.616 26.531,705.007 6.792,669.541 1.568,709.407 -37.184,716.189 -1.757,733.52 -7.078,773.488 21.316,744.085 57.596,762.033 "
   id="polygon3252" />
			<polygon
   style="fill:#0067a5;fill-opacity:1"
   points="27.218,872.544 48.969,838.663 11.355,853.628 -14.562,822.483 -12.47,862.874 -48.945,876.947 -10.862,886.97 -8.579,927.123 13.728,892.871 52.771,903.636 "
   id="polygon3272" />
			<polygon
   style="fill:#0067a5;fill-opacity:1"
   points="33.554,1123.551 50.636,1160.084 21.871,1187.102 60.807,1182.077 77.899,1218.345 85.875,1178.218 125.953,1173.365 90.914,1154.082 98.405,1114.56 69.253,1142.572 "
   id="polygon3280" />
			<polygon
   style="fill:#0067a5;fill-opacity:1"
   points="26.432,997.965 -5.005,972.348 4.778,1011.676 -28.565,1032.543 10.858,1035.113 20.448,1074.071 35.925,1036.151 76.386,1038.969 45.516,1013.533 60.525,976.137 "
   id="polygon3286" />
		</g>
		<g
   style="fill:#0067a5;fill-opacity:1"
   transform="matrix(-0.60120052,0,0,0.58150801,185.93354,-3.1295255)"
   id="g3287">
			<polygon
   style="fill:#0067a5;fill-opacity:1"
   points="-834.758,103.937 -870.473,122.505 -898.196,94.345 -891.737,133.494 -927.164,152.242 -887.174,158.758 -880.813,199.069 -863.158,162.904 -823.745,169.235 -852.514,140.811 "
   id="polygon3289" />
			<polygon
   style="fill:#0067a5;fill-opacity:1"
   points="-735.405,65.364 -757.342,32.452 -758.388,72.149 -796.748,83.498 -758.765,97.749 -760.179,138.672 -735.872,106.547 -698.358,120.374 -721.252,86.581 -697.029,54.284 "
   id="polygon3291" />
			<polygon
   style="fill:#0067a5;fill-opacity:1"
   points="-964.099,170.799 -995.446,195.882 -1028.021,173.619 -1014.444,210.936 -1045.69,235.84 -1005.029,234.778 -991.169,273.061 -980.724,234.167 -940.926,232.767 -974.456,210.226 "
   id="polygon3293" />
			<polygon
   style="fill:#0067a5;fill-opacity:1"
   points="-588.081,42.078 -603.177,5.382 -612.011,44.286 -651.611,48.153 -617.046,69.362 -626.156,109.14 -596.251,82.289 -562.06,103.153 -578.005,65.756 -548.291,38.381 "
   id="polygon3295" />
			<polygon
   style="fill:#0067a5;fill-opacity:1"
   points="-1171.589,427.617 -1176.631,387.135 -1196.477,422.244 -1234.643,413.887 -1208.163,443.281 -1228.004,478.309 -1190.781,461.769 -1163.99,492.127 -1168.459,452.171 -1131.985,435.719 "
   id="polygon3297" />
			<polygon
   style="fill:#0067a5;fill-opacity:1"
   points="-1234.289,562.733 -1246.826,524.107 -1259.647,562.48 -1298.875,561.514 -1267.258,585.274 -1280.07,623.459 -1246.826,600.23 -1214.451,624.783 -1226.604,586.323 -1193.745,563.175 "
   id="polygon3299" />
			<polygon
   style="fill:#0067a5;fill-opacity:1"
   points="-1077.017,271.02 -1103.142,301.738 -1139.125,286.064 -1118.706,320.037 -1144.633,350.486 -1105.129,341.608 -1084.332,376.455 -1081.385,336.489 -1042.45,327.347 -1079.681,311.689 "
   id="polygon3301" />
			<polygon
   style="fill:#0067a5;fill-opacity:1"
   points="-1278.588,705.007 -1298.326,669.541 -1303.553,709.407 -1342.308,716.189 -1306.883,733.52 -1312.203,773.488 -1283.811,744.085 -1247.521,762.033 -1266.618,726.659 -1238.983,697.616 "
   id="polygon3303" />
			<polygon
   style="fill:#0067a5;fill-opacity:1"
   points="-1293.766,853.628 -1319.684,822.483 -1317.591,862.874 -1354.067,876.947 -1315.989,886.97 -1313.699,927.123 -1291.395,892.871 -1252.355,903.636 -1277.903,872.544 -1256.156,838.663 "
   id="polygon3305" />
			<polygon
   style="fill:#0067a5;fill-opacity:1"
   points="-1283.253,1187.102 -1244.314,1182.077 -1227.221,1218.345 -1219.247,1178.218 -1179.173,1173.365 -1214.21,1154.082 -1206.715,1114.56 -1235.871,1142.572 -1271.569,1123.551 -1254.486,1160.084 "
   id="polygon3307" />
			<polygon
   style="fill:#0067a5;fill-opacity:1"
   points="-1300.348,1011.676 -1333.685,1032.543 -1294.262,1035.113 -1284.673,1074.071 -1269.193,1036.151 -1228.737,1038.969 -1259.603,1013.533 -1244.599,976.137 -1278.694,997.965 -1310.127,972.348 "
   id="polygon3309" />
		</g>
	</g>
	<path
   inkscape:connector-curvature="0"
   style="fill:#0067a5;fill-opacity:1"
   id="path27"
   d="m 211.718,642.24 -1.414,-2.184 41.309,-68.145 23.607,-36.756 26.778,-28.155 -29.245,58.902 -15.854,12.371 z m 127.363,-58.566 9.869,-14.139 9.161,-2.355 27.952,-53.252 3.289,-34.636 15.271,-34.165 -1.173,-4.479 -23.729,29.924 -5.874,2.122 -42.985,65.268 6.104,6.361 -44.398,98.967 29.835,-30.867 z m 58.495,10.133 -4.464,-7.541 -38.059,68.803 -8.925,38.643 h 7.398 l 24.313,-28.982 9.866,-45.238 z M 546.982,294.244 516.441,264.242 v 98.805 l -25.371,69.275 34.455,21.992 -58.729,158.184 11.274,9.738 -30.539,68.961 38.213,41.471 h 57.631 l -9.866,-25.131 87.076,32.045 h 98.816 l -20.829,-35.975 -10.807,-28.271 -4.229,-21.367 51.367,63.779 h 63.27 l -18.636,-38.488 -28.503,-28.902 -71.723,-157.243 -31.947,-9.737 -9.24,10.366 h -5.621 L 616.471,451.488 600.44,423.056 578.302,387.396 Z M 497.42,96.771 c -218.272,0 -395.216,177.481 -395.216,396.419 0,60.155 13.357,117.179 37.26,168.251 l 150.906,-173.649 13.037,-4.238 58.136,-81.997 25.371,-21.911 38.053,-59.729 22.904,-21.913 36.996,-51.953 23.256,-17.672 43.34,31.102 21.492,39.937 27.486,81.996 32.063,56.9 67.297,30.042 60.957,124.757 14.799,49.834 14.447,10.6 12.684,14.846 23.549,44.809 C 868.176,650.255 892.638,574.585 892.638,493.19 892.638,274.252 715.695,96.771 497.42,96.771 Z" />
	<g
   style="fill:#0067a5;fill-opacity:1"
   id="g53">
		<g
   style="fill:#0067a5;fill-opacity:1"
   id="g42">
			<path
   inkscape:connector-curvature="0"
   style="fill:#0067a5;fill-opacity:1"
   d="m 906.595,771.492 h -22.443 l -5.172,11.707 -8.74,19.799 H 859.7 l -3.127,6.719 h 10.803 l -13.017,28.932 c -9.294,20.344 -24.042,40.396 -32.465,40.396 -1.787,0 -2.899,-0.828 -2.899,-2.686 0,-1.744 0.485,-3.637 2.675,-8.713 2.67,-6.232 6.965,-15.074 10.172,-21.617 4.643,-9.439 12.134,-24.26 12.134,-31.639 0,-7.418 -4.702,-13.066 -13.882,-13.066 -10.366,0 -19.668,6.266 -28.258,15.201 l 5.576,-13.527 h -21.224 l -17.273,39.119 c -6.856,13.904 -20.997,36.898 -29.742,36.898 -1.817,0 -2.583,-1.111 -2.583,-2.916 0,-0.973 0.483,-3.006 1.259,-4.779 0.778,-1.777 11.101,-25.678 11.101,-25.678 l 18.69,-42.756 h -22.741 l -18.164,41.584 c -5.701,12.881 -19.902,34.641 -29.007,34.641 -1.855,0 -3.063,-0.936 -3.063,-3.229 0,-2.289 1.688,-6.365 2.998,-9.416 l 9.518,-20.832 0.032,0.008 19.664,-42.756 h -22.736 l -4.438,9.633 -0.014,-0.004 c -3.265,6.477 -9.03,14.197 -17.916,14.197 -4.322,0 -6.284,-1.707 -7.348,-3.379 -1.325,-14.4 -10.4,-22.084 -23.971,-22.084 -18.76,0 -32.132,11.105 -40.911,24.471 -5.852,8.936 -9.84,18.635 -13.379,29.799 -8.041,13.18 -16.545,23.496 -23.135,23.496 -1.688,0 -2.731,-1.006 -2.731,-3.221 0,-2.473 2.182,-7.328 3.03,-9.146 l 14.717,-31.336 c 4.102,-9.703 6.961,-16.111 6.961,-22.391 0,-6.766 -4.728,-11.598 -12.412,-11.598 -10.659,0 -22.309,6.084 -31.448,16.277 0.307,-1.426 0.456,-3.074 0.456,-4.916 0,-7.426 -3.656,-11.361 -11.529,-11.361 -9.763,0 -19.789,5.75 -28.968,16.326 l 6.09,-14.652 h -20.739 l -17.384,39.119 c -8.3,18.432 -21.537,36.898 -29.087,36.898 -1.764,0 -2.769,-0.902 -2.769,-3.148 0,-3.617 3.88,-12.277 5.438,-15.842 l 23.003,-52.189 c 1.714,-3.898 -9.342,-6.313 -23.394,-6.313 -14.431,0 -29.167,7.178 -40.085,16.168 -7.618,6.283 -13.268,9.479 -16.184,9.479 -1.417,0 -2.051,-0.773 -2.051,-1.682 0,-3.219 7.662,-12.186 7.662,-18.988 0,-3.096 -1.681,-5.176 -5.95,-5.176 -8.266,0 -17.95,7.918 -25.16,16.096 l 6.082,-14.43 h -20.126 l -17.347,39.127 c -8.303,18.432 -21.91,37.695 -29.453,37.695 -1.759,0 -2.772,-0.91 -2.772,-3.154 0,-3.48 3.719,-12.086 5.822,-16.633 l 23,-52.189 c 1.712,-3.898 -9.333,-6.313 -23.381,-6.313 -20.735,0 -40.947,13.977 -51.79,28.285 -11.821,15.57 -19.831,32.035 -20.012,45.463 -0.153,10.76 5.442,17.555 16.718,17.555 12.554,0 22.582,-9.961 28.572,-17.402 -0.14,0.779 -0.706,3.52 -0.706,4.457 0,7.508 3,12.939 12.104,12.939 8.05,0 18.81,-6.734 27.461,-17.461 l -6.993,15.893 h 21.962 l 21.513,-48.727 c 7.022,-15.859 15.175,-24.084 17.365,-24.084 0.706,0 1.017,0.311 1.017,0.92 0,1.689 -3.294,6.135 -3.294,10.305 0,4.262 2.323,7.178 8.208,7.178 4.701,0 9.987,-2.291 14.639,-5.166 -11.049,15.021 -18.452,30.711 -18.625,43.594 -0.143,10.76 5.462,17.555 16.736,17.555 11.899,0 22.811,-11.143 28.807,-18.584 -0.215,1.17 -0.434,3.709 -0.434,5.156 0,7.314 4.138,13.422 12.593,13.422 9.276,0 16.937,-5.826 26.262,-17.197 l -6.888,15.629 h 22.49 l 20.52,-46.572 c 8.971,-20.27 21.146,-30.949 27.157,-30.949 1.779,0 2.973,0.951 2.973,3.031 0,1.25 -0.54,3.549 -1.845,6.598 l -30.09,67.893 23.029,-0.059 21.018,-47.383 c 9.035,-20.293 19.033,-30.332 26.461,-30.332 2.245,0 3.205,1.16 3.205,3.613 0,1.359 -0.43,3.627 -2.166,7.434 l -20.138,42.928 c -1.675,3.668 -3.313,8.947 -3.313,13.023 0,6.502 3.611,12.344 13.648,12.344 13.058,0 23.098,-9.852 34.301,-24.711 l 0.051,3.182 c 0.833,11.795 7.493,21.984 24.865,21.984 20.584,0 37.257,-14.26 47.382,-36.793 4.545,-10.115 6.737,-18.74 7.344,-25.273 1.919,0.961 4.324,1.563 7.348,1.563 2.845,0 6.206,-0.564 9.695,-2.357 l -3.579,7.766 c -4.123,8.611 -8.713,18.186 -12.119,26.166 -2.513,5.891 -4.02,11.41 -4.02,15.096 0,8.072 4.407,13.758 13.577,13.758 9.195,0 21.815,-8.623 30.695,-20.709 h 0.278 c -0.512,2.408 -1.014,5.824 -1.014,7.635 0,6.648 2.036,13.021 11.421,13.021 10.872,0 19.255,-7.867 27.513,-17.682 l -6.966,15.787 h 22.74 l 18.124,-41.053 c 10.261,-23.168 20.616,-37.098 30.205,-37.098 2.047,0 3.102,1.357 3.102,3.387 0,3.859 -5.52,14.498 -10.741,25.27 -4.714,9.713 -8.219,17.139 -10.673,22.98 -2.167,5.176 -3.945,11.418 -3.945,15.49 0,7.135 3.973,12.592 12.708,12.592 13.081,0 26.486,-12.611 33.502,-22.334 -1.612,4.494 -2.625,9.938 -2.625,14.232 0,13.076 7.956,19.648 18.944,19.648 7.749,0 14.459,-2.695 20.384,-6.805 8.593,-5.961 15.512,-14.926 21.381,-23.244 l -3.868,-3.723 c -5.427,7.658 -11.389,15.002 -17.513,19.525 -3.837,2.842 -7.739,4.582 -11.604,4.582 -4.669,0 -7.667,-2.402 -7.667,-8.5 0,-6.006 2.766,-14.088 7.071,-24.826 0.227,-0.52 6.338,-14.23 12.199,-27.441 4.967,-11.18 9.755,-22.014 10.677,-24.219 h 14.748 l 2.987,-6.719 h -14.68 z M 267.782,879.105 c -3.25,0 -5.424,-1.084 -5.505,-5.297 0.159,-11.109 9.305,-30.654 20.854,-46.297 7.999,-10.838 18.533,-18.84 29.756,-18.84 l -14.29,31.791 c -10.593,24.032 -22.253,38.643 -30.815,38.643 z m 139.956,0 c -3.248,0 -5.439,-1.084 -5.51,-5.297 0.158,-11.109 9.303,-30.654 20.849,-46.297 7.996,-10.838 18.531,-18.84 29.751,-18.84 l -14.29,31.791 h 0.034 c -10.758,24.38 -21.884,38.643 -30.834,38.643 z m 225.102,-2.757 c -5.069,7.113 -9.417,9.164 -13.18,9.164 -5.176,0 -6.711,-4.322 -6.077,-10.646 1.132,-11.102 10.249,-36.732 23.046,-54.475 5.824,-8.08 9.843,-11.438 14.189,-11.438 4.287,0 5.806,3.689 5.65,8.311 -0.402,12.033 -11.099,41.484 -23.628,59.084 z"
   id="Fill-1" />
			<g
   style="fill:#0067a5;fill-opacity:1"
   transform="translate(0,0.666256)"
   id="Group-5">
				<g
   style="fill:#0067a5;fill-opacity:1"
   id="Clip-4">
				</g>
				<defs
   id="defs34">
					<filter
   height="234.64999"
   width="261.15601"
   y="696.76898"
   x="37.18"
   filterUnits="userSpaceOnUse"
   id="Adobe_OpacityMaskFilter">
						<feColorMatrix
   id="feColorMatrix31"
   values="1 0 0 0 0  0 1 0 0 0  0 0 1 0 0  0 0 0 1 0"
   type="matrix" />
					</filter>
				</defs>
				<mask
   id="mask-2_1_"
   height="234.65"
   width="261.156"
   y="696.769"
   x="37.18"
   maskUnits="userSpaceOnUse">
					<g
   style="filter:url(#Adobe_OpacityMaskFilter)"
   id="g37">
						<polygon
   style="fill:#ffffff"
   points="37.18,696.769 298.336,696.769 298.336,931.42 37.18,931.42 "
   id="path-1_1_" />
					</g>
				</mask>
				<path
   inkscape:connector-curvature="0"
   style="fill:#0067a5;fill-opacity:1"
   d="m 210.331,824.793 c 7.679,-0.9 20.235,-3.41 25.015,-5.143 29.536,-8.234 62.991,-27.994 62.991,-63.084 0,-40.414 -42.837,-59.797 -93.888,-59.797 -54.482,0 -104.451,24.145 -122.988,61.455 -4.901,9.875 -7.634,20.652 -7.634,32.17 0,10.406 2.535,19.76 7.634,27.307 7.861,11.641 21.874,18.955 42.576,18.955 25.23,0 45.341,-13.854 45.341,-37.945 0,0 0.374,-6.77 -7.487,-6.77 -6.451,0 -8.108,4.432 -7.957,6.77 0.919,18.936 -10.249,33.969 -30.305,33.969 -22.398,0 -31.807,-19.035 -31.807,-39.449 0,-41.719 31.478,-69.361 64.231,-81.205 16.791,-6.125 30.3,-8.33 47.912,-8.33 37.048,0 67.348,14.246 67.348,52.252 0,31.844 -26.724,58.93 -58.861,61.193 l 1.269,-4.379 c 6.588,-23.33 14.532,-48.842 27.642,-67.828 0.772,-1.189 2.14,-2.965 3.636,-4.863 l -1.795,-2.234 c -2.338,1.35 -6.519,4.4 -8.189,5.701 -61.491,47.879 -63.346,182.26 -145.216,182.26 -2.97,0 -5.74,-0.234 -8.339,-0.648 -17.085,-2.75 -26.023,-14.221 -25.966,-30.162 0.012,-3.133 1.083,-7.453 1.083,-9.906 0,-4.135 -2.807,-8.424 -8.948,-8.424 -7.307,0 -10.305,5.684 -10.442,14.059 -0.388,23.947 17.198,37.795 44.273,40.289 2.957,0.277 6.028,0.416 9.208,0.416 63.867,-0.002 103.124,-48.145 119.663,-106.629"
   mask="url(#mask-2_1_)"
   id="Fill-3" />
			</g>
		</g>
		<g
   style="fill:#0067a5;fill-opacity:1"
   id="g51">
			<polygon
   style="fill:#0067a5;fill-opacity:1"
   points="242.903,940.109 231.56,940.109 231.56,974.166 207.33,940.109 197.682,940.109 197.682,995.035 209.099,995.035 209.099,961.031 233.258,995.035 242.903,995.035 "
   id="Fill-6" />
			<polygon
   style="fill:#0067a5;fill-opacity:1"
   points="289.943,995.023 325.367,995.023 325.367,984.967 301.359,984.967 301.359,971.752 322.122,971.752 322.122,961.986 301.359,961.986 301.359,950.09 325.292,950.09 325.292,940.109 289.943,940.109 "
   id="Fill-8" />
			<polygon
   style="fill:#0067a5;fill-opacity:1"
   points="397.042,950.09 415.454,950.09 415.454,940.109 367.222,940.109 367.222,950.09 385.713,950.09 385.713,995.023 397.042,995.023 "
   id="Fill-10" />
			<polygon
   style="fill:#0067a5;fill-opacity:1"
   points="470.835,995.035 480.494,995.035 492.197,960.221 503.896,995.035 513.47,995.035 532.699,940.109 520.324,940.109 508.616,975.799 496.832,940.109 487.478,940.109 475.78,975.799 463.988,940.109 451.614,940.109 "
   id="Fill-12" />
			<path
   inkscape:connector-curvature="0"
   style="fill:#0067a5;fill-opacity:1"
   d="m 614.178,947.082 c -5.376,-5.215 -12.227,-7.781 -20.55,-7.781 -8.396,0 -15.251,2.566 -20.626,7.781 -5.373,5.145 -8.02,11.967 -8.02,20.482 0,8.518 2.646,15.359 8.02,20.561 5.375,5.139 12.23,7.711 20.626,7.711 8.323,0 15.174,-2.572 20.55,-7.711 5.369,-5.201 8.024,-12.043 8.024,-20.561 0,-8.515 -2.655,-15.337 -8.024,-20.482 m -8.326,33.777 c -3.094,3.301 -7.154,4.916 -12.224,4.916 -5.082,0 -9.195,-1.615 -12.376,-4.916 -3.159,-3.301 -4.705,-7.709 -4.705,-13.295 0,-5.654 1.546,-10.053 4.705,-13.289 3.181,-3.307 7.294,-4.918 12.376,-4.918 5.069,0 9.13,1.611 12.224,4.918 3.163,3.236 4.711,7.635 4.711,13.289 0,5.586 -1.548,9.995 -4.711,13.295"
   id="Fill-14" />
			<path
   inkscape:connector-curvature="0"
   style="fill:#0067a5;fill-opacity:1"
   d="m 705.476,957.734 c 0,-5.508 -1.62,-9.838 -4.854,-12.92 -3.244,-3.168 -7.526,-4.705 -12.896,-4.705 H 664.16 v 54.926 h 11.421 v -19.76 h 9.204 l 10.754,19.76 h 12.809 l -11.709,-21.602 c 5.598,-2.708 8.837,-8.14 8.837,-15.699 m -19.153,7.485 h -10.819 v -15.125 h 10.819 c 4.502,0 7.596,2.713 7.596,7.641 0,4.689 -3.094,7.484 -7.596,7.484"
   id="Fill-16" />
			<polygon
   style="fill:#0067a5;fill-opacity:1"
   points="784.594,995.035 797.997,995.035 776.86,962.568 795.781,940.109 781.201,940.109 762.495,962.791 762.495,940.109 751.091,940.109 751.091,995.035 762.495,995.035 762.495,979.828 769.27,971.674 "
   id="Fill-18" />
		</g>
	</g>
</g></g>
</svg>