<?xml version="1.0" encoding="UTF-8" standalone="no"?>
<!-- Generator: Adobe Illustrator 13.0.0, SVG Export Plug-In . SVG Version: 6.00 Build 14948)  -->

<svg
   xmlns:dc="http://purl.org/dc/elements/1.1/"
   xmlns:cc="http://creativecommons.org/ns#"
   xmlns:rdf="http://www.w3.org/1999/02/22-rdf-syntax-ns#"
   xmlns:svg="http://www.w3.org/2000/svg"
   xmlns="http://www.w3.org/2000/svg"
   xmlns:xlink="http://www.w3.org/1999/xlink"
   xmlns:sodipodi="http://sodipodi.sourceforge.net/DTD/sodipodi-0.dtd"
   xmlns:inkscape="http://www.inkscape.org/namespaces/inkscape"
   version="1.0"
   x="0px"
   y="0px"
   width="500mm"
   height="500mm"
   viewBox="0 0 1889.7637 1889.7638"
   enable-background="new 0 0 160 200"
   xml:space="preserve"
   id="svg2"
   inkscape:version="0.92.4 (5da689c313, 2019-01-14)"
   sodipodi:docname="playboy.svg"><metadata
   id="metadata44"><rdf:RDF><cc:Work
       rdf:about=""><dc:format>image/svg+xml</dc:format><dc:type
         rdf:resource="http://purl.org/dc/dcmitype/StillImage" /><dc:title></dc:title></cc:Work></rdf:RDF></metadata><defs
   id="defs42" /><sodipodi:namedview
   pagecolor="#ffffff"
   bordercolor="#666666"
   borderopacity="1"
   objecttolerance="10"
   gridtolerance="10"
   guidetolerance="10"
   inkscape:pageopacity="0"
   inkscape:pageshadow="2"
   inkscape:window-width="1920"
   inkscape:window-height="1017"
   id="namedview40"
   showgrid="false"
   fit-margin-top="0"
   fit-margin-left="0"
   fit-margin-right="0"
   fit-margin-bottom="0"
   inkscape:zoom="0.163125"
   inkscape:cx="-61.617621"
   inkscape:cy="306.30575"
   inkscape:window-x="-8"
   inkscape:window-y="-8"
   inkscape:window-maximized="1"
   inkscape:current-layer="Layer_1"
   inkscape:pagecheckerboard="true"
   units="mm" />
<g
   id="Layer_2"
   transform="translate(-7.569,1700.3078)">
</g>
<g
   id="Layer_1"
   transform="translate(-7.569,1700.3078)">
	
	<g
   id="g855"
   transform="translate(-94.464302,-37.795342)"><rect
     style="fill:#b91616;fill-opacity:1;stroke-width:11.96179199"
     id="rect6"
     height="1814.1611"
     width="1700.8352"
     y="-1624.7172"
     x="196.49759" /><g
     transform="matrix(11.961792,0,0,11.961792,97.812808,-1773.5099)"
     id="g8">
		<defs
   id="defs10">
			<rect
   height="151.657"
   width="142.189"
   y="12.446"
   x="8.25"
   id="SVGID_1_" />
		</defs>
		<clipPath
   id="SVGID_2_">
			<use
   height="200"
   width="160"
   y="0"
   x="0"
   style="overflow:visible"
   id="use14"
   overflow="visible"
   xlink:href="#SVGID_1_" />
		</clipPath>
		<path
   style="fill:#ffffff"
   inkscape:connector-curvature="0"
   id="path16"
   d="m 150.928,90.224 c 6.761,10.321 14.509,20.644 15.151,33.86 1.282,15.167 0,31.94 -7.754,44.836 -12.57,7.089 -26.102,12.259 -39.97,16.448 -1.613,-3.226 0.643,-7.416 0.312,-11.605 -9.341,1.279 -17.731,8.055 -26.44,12.244 -4.188,-3.224 -3.874,-9.032 -3.224,-14.176 l 2.581,-7.101 C 76.74,160.541 56.828,150.68 52.556,137.632 49.344,126.491 54.817,112.153 64.499,103.126 78.364,88.619 96.419,84.427 115.774,82.816 98.675,75.076 80.294,69.904 65.461,56.365 44.819,35.735 28.375,12.838 29.024,-16.521 72.229,1.539 108.99,42.827 133.5,82.488 c 0.962,-17.096 0.342,-34.831 6.464,-49.982 6.442,-21.616 24.51,-40.64 43.528,-54.505 -0.638,40.953 -0.33,83.851 -32.564,112.223 m -67.735,10.965 c -3.866,1.291 -6.124,5.168 -6.124,9.357 0.319,3.545 2.258,7.094 5.813,8.702 3.536,1.618 7.726,0.646 10.634,-1.939 2.585,-2.578 3.547,-6.763 2.585,-10.313 -1.943,-5.48 -8.062,-7.413 -12.908,-5.807"
   clip-path="url(#SVGID_2_)" />
	</g></g>
	
	
	
	
	
	
	
	
	
	
	
</g>
</svg>