<?xml version="1.0" encoding="UTF-8" standalone="no"?>
<svg
   xmlns:dc="http://purl.org/dc/elements/1.1/"
   xmlns:cc="http://creativecommons.org/ns#"
   xmlns:rdf="http://www.w3.org/1999/02/22-rdf-syntax-ns#"
   xmlns:svg="http://www.w3.org/2000/svg"
   xmlns="http://www.w3.org/2000/svg"
   xmlns:sodipodi="http://sodipodi.sourceforge.net/DTD/sodipodi-0.dtd"
   xmlns:inkscape="http://www.inkscape.org/namespaces/inkscape"
   width="500mm"
   height="500mm"
   version="1.1"
   id="svg34"
   sodipodi:docname="stingray_classica.svg"
   inkscape:version="0.92.4 (5da689c313, 2019-01-14)">
  <metadata
     id="metadata40">
    <rdf:RDF>
      <cc:Work
         rdf:about="">
        <dc:format>image/svg+xml</dc:format>
        <dc:type
           rdf:resource="http://purl.org/dc/dcmitype/StillImage" />
        <dc:title />
      </cc:Work>
    </rdf:RDF>
  </metadata>
  <defs
     id="defs38" />
  <sodipodi:namedview
     pagecolor="#ffffff"
     bordercolor="#666666"
     borderopacity="1"
     objecttolerance="10"
     gridtolerance="10"
     guidetolerance="10"
     inkscape:pageopacity="0"
     inkscape:pageshadow="2"
     inkscape:window-width="1920"
     inkscape:window-height="1017"
     id="namedview36"
     showgrid="false"
     units="mm"
     inkscape:zoom="0.284"
     inkscape:cx="-100.35211"
     inkscape:cy="829.24488"
     inkscape:window-x="-8"
     inkscape:window-y="-8"
     inkscape:window-maximized="1"
     inkscape:current-layer="svg34" />
  <g
     id="g863"
     transform="matrix(1.8141785,0,0,1.8141785,37.792718,-2256.6809)">
    <polygon
       transform="translate(0,1639.7247)"
       style="fill:#494949"
       id="polygon2"
       points="608.01,13.107 608.01,65.525 620.502,65.525 620.502,13.107 639.037,13.107 639.037,1.359 589.337,1.359 589.337,13.107 " />
    <rect
       style="fill:#494949"
       id="rect4"
       height="64.166222"
       width="12.75909"
       y="1641.0834"
       x="652.01392" />
    <polygon
       transform="translate(0,1639.7247)"
       style="fill:#494949"
       id="polygon6"
       points="725.832,1.359 725.832,43.267 694.457,1.359 682.296,1.359 682.296,65.525 694.796,65.525 694.796,23.721 726.171,65.525 738.323,65.525 738.323,1.359 " />
    <path
       style="fill:#494949"
       inkscape:connector-curvature="0"
       id="path8"
       d="m 789.47887,1683.6152 h 11.95795 c -2.071,7.1685 -8.0585,11.2537 -16.56166,11.2537 -14.33594,0 -20.865,-11.1645 -20.865,-21.5201 0,-10.6149 7.04688,-21.8846 20.09694,-21.8846 7.36991,0 13.46231,3.7621 14.8137,9.1419 l 0.4687,1.8044 h 12.427 l -0.41259,-2.7512 c -1.75526,-11.553 -13.30898,-19.9346 -27.46685,-19.9346 -21.16467,0 -32.58073,17.3621 -32.58073,33.7046 0,16.4888 11.41606,33.1707 33.25193,33.1707 15.39632,0 26.82807,-8.7858 29.96713,-22.9848 h 6.7803 v -11.7394 h -31.87682 z" />
    <polygon
       transform="translate(0,1639.7247)"
       style="fill:#494949"
       id="polygon10"
       points="973.423,26.634 957.574,1.359 942.938,1.359 966.91,39.675 953.884,65.517 967.736,65.517 1000,1.359 986.157,1.359 " />
    <path
       style="fill:#494949"
       inkscape:connector-curvature="0"
       id="path12"
       d="m 867.47853,1680.9051 a 21.41963,21.41963 0 0 0 -10.77591,-39.8133 h -24.7808 v 64.0683 h 12.47473 v -21.2128 h 10.38 l 9.74095,21.3097 h 14.0697 z m -10.79229,-8.7213 h -12.28969 v -19.3526 H 856.581 a 9.67716,9.67716 0 0 1 0.10524,19.3526" />
    <path
       style="fill:#494949"
       inkscape:connector-curvature="0"
       id="path14"
       d="m 921.16679,1641.6344 -0.18539,-0.5426 h -11.07665 l -22.17525,64.1652 h 13.5916 l 4.74867,-14.3199 h 18.77065 l 4.74868,14.3199 h 13.58427 z m -12.46742,38.7937 6.74789,-20.396 6.76359,20.396 z" />
    <path
       style="fill:#494949"
       inkscape:connector-curvature="0"
       id="path16"
       d="m 565.68886,1668.3649 -11.56105,-2.6861 c -4.76541,-1.1325 -7.13539,-3.3004 -7.13539,-6.9249 0,-4.5476 4.02873,-7.4274 10.01591,-7.4274 6.60952,0 10.234,3.3008 11.67394,7.54 h 13.13124 c -2.07134,-10.7602 -10.4372,-18.4058 -24.91044,-18.4058 -13.33307,0 -22.82307,8.0665 -22.82307,19.5383 0,10.4285 7.02179,15.2835 16.1076,17.3628 l 11.36727,2.5725 c 5.49372,1.2461 7.74278,3.3004 7.74278,7.1354 0,5.0654 -4.23154,7.9532 -10.63058,7.9532 -6.198,0 -10.85782,-2.5804 -12.5894,-8.1637 h -13.65641 c 2.15985,12.0956 12.19247,19.1104 26.34267,19.1104 13.43757,0 23.55905,-7.4274 23.55905,-19.7408 0,-9.5953 -6.30219,-15.4939 -16.63412,-17.8639" />
    <path
       style="fill:#bb9c66"
       inkscape:connector-curvature="0"
       id="path18"
       d="m 218.939,1877.3255 v -203.6303 h -5.05528 l -0.51727,0.7589 a 65.0449,65.0449 0 0 1 -19.08445,18.358 56.05691,56.05691 0 0 1 -25.09944,8.5111 l -1.58243,0.1463 v 5.6066 h 3.5375 c 1.54671,0 2.44342,0.4594 2.44342,2.8075 v 167.4419 c 0,1.8547 -0.616,2.4808 -2.44342,2.4808 h -3.5375 v 5.7615 h 57.02206 v -5.7615 h -3.53581 c -1.39186,0 -2.14738,-0.3947 -2.14738,-2.4808 z" />
    <path
       style="fill:#bb9c66"
       inkscape:connector-curvature="0"
       id="path20"
       d="m 381.7204,1763.2269 a 69.25764,69.25764 0 0 1 -20.92215,-18.5468 l -0.52408,-0.6976 h -4.89023 v 20.558 a 68.62616,68.62616 0 0 0 -21.94648,-14.8953 71.99832,71.99832 0 0 0 -28.3,-5.6627 68.8449,68.8449 0 0 0 -27.66707,5.6695 71.90969,71.90969 0 0 0 -22.64071,15.4857 76.35169,76.35169 0 0 0 -15.29515,22.4434 64.93923,64.93923 0 0 0 -5.67635,26.7091 67.92327,67.92327 0 0 0 5.838,28.0073 73.92375,73.92375 0 0 0 15.64057,22.6237 72.62244,72.62244 0 0 0 22.80236,15.1437 69.82839,69.82839 0 0 0 55.50428,-0.5036 78.836,78.836 0 0 0 21.74059,-14.6333 v 12.3975 c 0,1.8546 -0.62616,2.4808 -2.48084,2.4808 h -3.69235 v 5.7614 H 410.861 v -5.7614 h -3.69234 c -2.34813,0 -2.80755,-0.9086 -2.80755,-2.4808 v -97.1563 c 0,-1.5722 0.45942,-2.4826 2.80755,-2.4826 h 3.69234 v -5.5878 l -1.562,-0.1634 a 69.02745,69.02745 0 0 1 -27.5786,-8.7085 z m -95.80359,92.193 c -0.75208,-9.624 -1.02432,-20.7214 -0.80823,-33.01 v -15.3002 c -0.21609,-12.0401 0.0562,-23.0814 0.80823,-32.8193 0.71976,-9.3789 3.11723,-16.1698 7.12946,-20.1837 2.93856,-2.9369 6.68025,-4.3645 11.44117,-4.3645 h 0.65 a 65.21,65.21 0 0 1 47.182,19.9591 10.58276,10.58276 0 0 1 3.06447,7.8697 v 74.4117 a 9.561,9.561 0 0 1 -3.40988,7.885 66.63564,66.63564 0 0 1 -20.90514,14.5686 62.99859,62.99859 0 0 1 -25.93149,5.37 h -0.65 a 16.66936,16.66936 0 0 1 -11.41224,-4.0088 c -4.02916,-4.2266 -6.43859,-11.0804 -7.15835,-20.3776 z" />
    <path
       style="fill:#bb9c66"
       inkscape:connector-curvature="0"
       id="path22"
       d="m 683.66233,1877.3255 v -133.343 h -4.80175 l -0.52067,0.764 a 62.62033,62.62033 0 0 1 -45.13849,27.1906 l -1.545,0.1753 v 5.5742 h 3.57324 c 1.44291,0 2.22562,0.3965 2.22562,2.4826 v 97.1563 c 0,2.0861 -0.78271,2.4808 -2.22562,2.4808 h -3.57324 v 5.7615 h 58.10764 v -5.7615 h -3.57324 c -1.89211,0 -2.52849,-0.6261 -2.52849,-2.4808 z" />
    <path
       style="fill:#bb9c66"
       inkscape:connector-curvature="0"
       id="path24"
       d="m 988.57856,1777.6866 h 3.69234 v -5.5878 l -1.562,-0.1634 a 68.30705,68.30705 0 0 1 -48.50074,-27.2553 l -0.52407,-0.6976 h -4.88683 v 20.5614 a 68.62293,68.62293 0 0 0 -21.94988,-14.8987 72.01058,72.01058 0 0 0 -28.3,-5.6627 68.83525,68.83525 0 0 0 -27.66706,5.6712 71.93474,71.93474 0 0 0 -22.64071,15.484 76.341,76.341 0 0 0 -15.29346,22.445 64.91009,64.91009 0 0 0 -5.67634,26.7074 67.9493,67.9493 0 0 0 5.83629,28.0074 73.89407,73.89407 0 0 0 15.64056,22.6237 72.72126,72.72126 0 0 0 22.80066,15.1471 68.9633,68.9633 0 0 0 27.00006,5.4994 68.23608,68.23608 0 0 0 28.50422,-6.0064 78.78762,78.78762 0 0 0 21.7457,-14.6333 v 12.3974 c 0,1.8547 -0.62617,2.4809 -2.48425,2.4809 h -3.69234 v 5.7614 h 61.65019 v -5.7614 h -3.69234 c -2.34813,0 -2.80754,-0.9086 -2.80754,-2.4809 v -97.1562 c -2e-5,-1.5722 0.45941,-2.4826 2.80754,-2.4826 z m -114.09176,98.1109 c -4.02925,-4.2266 -6.43863,-11.0804 -7.16008,-20.3776 -0.75208,-9.624 -1.02433,-20.7214 -0.80653,-33.01 v -15.3002 c -0.2178,-12.0401 0.0545,-23.0814 0.80653,-32.8193 0.72145,-9.3806 3.12062,-16.1715 7.12946,-20.1837 2.93686,-2.9369 6.68025,-4.3645 11.44116,-4.3645 h 0.65 a 65.21,65.21 0 0 1 47.18374,19.9591 10.58538,10.58538 0 0 1 3.06618,7.8697 v 74.4117 a 9.5752,9.5752 0 0 1 -3.40989,7.885 66.76642,66.76642 0 0 1 -20.90514,14.5686 63.0087,63.0087 0 0 1 -25.93489,5.37 h -0.65 a 16.665,16.665 0 0 1 -11.41054,-4.0088 z" />
    <path
       style="fill:#bb9c66"
       inkscape:connector-curvature="0"
       id="path26"
       d="m 153.22891,1716.2134 a 103.53186,103.53186 0 0 0 -26.46577,-13.8523 92.46665,92.46665 0 0 0 -30.91361,-5.0876 92.68412,92.68412 0 0 0 -37.37266,7.6978 98.85307,98.85307 0 0 0 -30.46269,20.587 96.89354,96.89354 0 0 0 -20.45763,30.4762 96.7469,96.7469 0 0 0 0,74.9682 96.86659,96.86659 0 0 0 20.45763,30.4746 98.78771,98.78771 0 0 0 30.4644,20.5887 93.01321,93.01321 0 0 0 37.63979,7.6978 92.08989,92.08989 0 0 0 30.64647,-5.0876 103.65511,103.65511 0 0 0 26.48959,-13.871 2.06252,2.06252 0 0 1 0.60916,-0.2689 l 1.22681,-0.3811 v -7.5379 l -2.81435,2.1916 a 96.40392,96.40392 0 0 1 -25.35637,14.167 86.53174,86.53174 0 0 1 -30.53076,5.4143 h -1.61817 c -10.13948,0 -18.52468,-1.402 -24.92418,-4.1722 -6.3995,-2.7701 -10.55466,-5.1658 -12.3651,-7.143 a 26.97414,26.97414 0 0 1 -5.81076,-10.5223 80.3005,80.3005 0 0 1 -3.03045,-15.5657 c -0.62106,-5.9384 -0.98179,-12.4621 -1.06856,-19.3908 q -0.14039,-10.5053 -0.13443,-22.0894 v -23.9781 q 0,-11.5773 0.13443,-22.0894 c 0.08677,-6.927 0.4475,-13.4507 1.06856,-19.3908 a 80.38955,80.38955 0 0 1 3.03045,-15.5691 27.035,27.035 0 0 1 5.82438,-10.5325 c 1.79682,-1.9619 5.952,-4.3611 12.34978,-7.1295 6.4046,-2.7667 14.7915,-4.1704 24.92588,-4.1704 h 1.61817 a 86.52628,86.52628 0 0 1 30.52906,5.4143 96.436,96.436 0 0 1 25.35977,14.1653 l 2.81265,2.1916 v -7.5395 l -1.22681,-0.3795 a 2.01,2.01 0 0 1 -0.63468,-0.2858 z" />
    <path
       style="fill:#bb9c66"
       inkscape:connector-curvature="0"
       id="path28"
       d="M 513.26317,1830.2404 A 79.2181,79.2181 0 0 0 502.24058,1814.77 c -4.36275,-4.829 -9.09306,-9.5592 -14.06494,-14.0683 -4.89363,-4.4308 -9.55926,-8.8991 -13.871,-13.2823 a 78.69563,78.69563 0 0 1 -10.54956,-13.0593 23.97392,23.97392 0 0 1 -3.98161,-12.9113 8.78937,8.78937 0 0 1 3.774,-7.2264 14.33416,14.33416 0 0 1 9.12026,-3.0951 49.70894,49.70894 0 0 1 13.85055,1.9091 45.2653,45.2653 0 0 1 11.904,5.3309 21.07767,21.07767 0 0 1 3.92376,3.0866 q 1.169,1.2456 1.562,1.659 c 0.41518,0.6892 1.106,1.8258 2.08269,3.4014 a 10.65516,10.65516 0 0 1 1.3238,5.6151 v 9.8502 h 5.06719 v -28.2064 h -5.06719 l -0.0102,5.6355 -1.56542,-1.5671 a 28.21176,28.21176 0 0 0 -4.60437,-3.5716 44.76715,44.76715 0 0 0 -13.16993,-5.9707 57.66892,57.66892 0 0 0 -15.49764,-2.0418 60.5102,60.5102 0 0 0 -17.10389,2.3464 47.22387,47.22387 0 0 0 -13.95945,6.5781 33.59026,33.59026 0 0 0 -9.59329,10.2195 25.886,25.886 0 0 0 -3.60727,13.4524 29.28662,29.28662 0 0 0 4.82557,15.9707 82.67378,82.67378 0 0 0 11.71341,14.2419 c 4.59417,4.5329 9.61031,9.1508 14.91912,13.728 5.1931,4.4818 10.14459,9.1679 14.71153,13.9254 a 77.208,77.208 0 0 1 11.22,14.7932 32.00506,32.00506 0 0 1 4.31851,16.1408 15.573,15.573 0 0 1 -1.90572,8.2695 12.99891,12.99891 0 0 1 -4.80175,4.6418 19.88146,19.88146 0 0 1 -6.459,2.178 43.1998,43.1998 0 0 1 -6.64963,0.5751 52.93337,52.93337 0 0 1 -13.6872,-1.7186 47.72893,47.72893 0 0 1 -11.64194,-4.7711 37.62718,37.62718 0 0 1 -8.98414,-7.1839 28.07051,28.07051 0 0 1 -2.5353,-3.2806 l -0.51727,-0.7725 h -5.58105 l 1.71855,2.6817 a 37.32378,37.32378 0 0 0 9.03179,9.675 50.60342,50.60342 0 0 0 14.538,7.48 55.81089,55.81089 0 0 0 17.65859,2.7565 63.72806,63.72806 0 0 0 18.60806,-2.6442 45.8428,45.8428 0 0 0 15.205,-7.8203 36.19629,36.19629 0 0 0 10.17522,-12.6663 38.5037,38.5037 0 0 0 3.6379,-16.978 37.30352,37.30352 0 0 0 -4.458,-17.8321 z" />
    <path
       style="fill:#bb9c66"
       inkscape:connector-curvature="0"
       id="path30"
       d="m 603.86344,1814.77 c -4.38657,-4.8494 -9.12026,-9.5831 -14.06834,-14.0683 -4.86981,-4.4138 -9.53544,-8.882 -13.86756,-13.2823 a 78.80027,78.80027 0 0 1 -10.54954,-13.0593 23.93934,23.93934 0 0 1 -3.98161,-12.9113 8.7827,8.7827 0 0 1 3.774,-7.2264 14.33416,14.33416 0 0 1 9.12026,-3.0951 49.72655,49.72655 0 0 1 13.85055,1.9091 45.155,45.155 0 0 1 11.904,5.3309 20.76946,20.76946 0 0 1 3.92036,3.0866 c 0.7759,0.827 1.29657,1.38 1.56882,1.6607 q 0.62275,1.0363 2.07928,3.398 a 10.68671,10.68671 0 0 1 1.3238,5.6168 v 9.8503 h 5.06379 v -28.2065 h -5.06379 l -0.0102,5.6372 -1.56882,-1.5705 a 28.21749,28.21749 0 0 0 -4.60443,-3.5682 44.58688,44.58688 0 0 0 -13.16653,-5.9724 57.66892,57.66892 0 0 0 -15.49764,-2.0418 60.58615,60.58615 0 0 0 -17.1073,2.3464 47.24134,47.24134 0 0 0 -13.956,6.5764 33.52865,33.52865 0 0 0 -9.58989,10.2212 25.82169,25.82169 0 0 0 -3.61067,13.4524 29.32361,29.32361 0 0 0 4.82217,15.9707 82.85925,82.85925 0 0 0 11.71686,14.2453 c 4.635,4.5669 9.65794,9.1849 14.91911,13.7212 5.23735,4.5227 10.18543,9.2087 14.71153,13.9288 a 77.208,77.208 0 0 1 11.22,14.7932 32.00852,32.00852 0 0 1 4.31511,16.1408 15.52829,15.52829 0 0 1 -1.90913,8.2729 13.11026,13.11026 0 0 1 -4.79494,4.6384 19.90037,19.90037 0 0 1 -6.46246,2.178 43.15817,43.15817 0 0 1 -6.64622,0.5751 52.97868,52.97868 0 0 1 -13.6906,-1.7185 47.75007,47.75007 0 0 1 -11.63854,-4.7711 37.58307,37.58307 0 0 1 -8.98414,-7.1805 28.33168,28.33168 0 0 1 -2.5353,-3.284 l -0.51727,-0.7725 h -5.58786 l 1.722,2.6816 a 37.44029,37.44029 0 0 0 9.03178,9.675 50.69232,50.69232 0 0 0 14.538,7.48 55.84757,55.84757 0 0 0 17.662,2.7565 63.72806,63.72806 0 0 0 18.60806,-2.6442 45.84251,45.84251 0 0 0 15.205,-7.8203 36.24366,36.24366 0 0 0 10.17865,-12.6663 38.55539,38.55539 0 0 0 3.63449,-16.978 37.24836,37.24836 0 0 0 -4.46144,-17.8321 79.0339,79.0339 0 0 0 -11.01939,-15.4739 z" />
    <path
       style="fill:#bb9c66"
       inkscape:connector-curvature="0"
       id="path32"
       d="m 771.13518,1745.3369 a 69.14185,69.14185 0 0 0 -27.41524,5.6236 74.80141,74.80141 0 0 0 -23.11374,15.4653 73.75983,73.75983 0 0 0 -15.81072,22.9521 69.07817,69.07817 0 0 0 -5.71037,25.1913 H 699 l 0.0102,2.2223 -0.0102,1.0175 0.034,1.7424 h 0.0511 a 69.09309,69.09309 0 0 0 5.71037,25.1896 73.79,73.79 0 0 0 15.81072,22.9504 74.9151,74.9151 0 0 0 23.11374,15.467 69.16979,69.16979 0 0 0 27.41524,5.6219 70.42477,70.42477 0 0 0 39.20351,-11.5195 l 0.78952,-0.5172 v -7.0342 l -2.71907,1.8445 a 65.28215,65.28215 0 0 1 -37.274,11.4173 c -4.87662,0 -8.70849,-1.4633 -11.71682,-4.4717 -4.10752,-4.1075 -6.56114,-10.9443 -7.29961,-20.3198 -0.76569,-9.7056 -1.04475,-20.8779 -0.82355,-33.2379 v -15.7971 c -0.2212,-12.3293 0.0579,-23.5017 0.82355,-33.2056 0.73847,-9.3755 3.19209,-16.2122 7.29961,-20.3198 3.01173,-3.01 6.8436,-4.4733 11.71682,-4.4733 a 65.28054,65.28054 0 0 1 37.274,11.4156 l 2.71907,1.8428 v -7.0308 l -0.78952,-0.5155 a 70.41266,70.41266 0 0 0 -39.20345,-11.5212 z" />
  </g>
</svg>
