<?xml version="1.0" encoding="UTF-8" standalone="no"?>
<!-- Generator: Adobe Illustrator 16.0.0, SVG Export Plug-In . SVG Version: 6.00 Build 0)  -->

<svg
   xmlns:dc="http://purl.org/dc/elements/1.1/"
   xmlns:cc="http://creativecommons.org/ns#"
   xmlns:rdf="http://www.w3.org/1999/02/22-rdf-syntax-ns#"
   xmlns:svg="http://www.w3.org/2000/svg"
   xmlns="http://www.w3.org/2000/svg"
   xmlns:sodipodi="http://sodipodi.sourceforge.net/DTD/sodipodi-0.dtd"
   xmlns:inkscape="http://www.inkscape.org/namespaces/inkscape"
   version="1.1"
   id="Layer_1"
   x="0px"
   y="0px"
   width="500mm"
   height="500mm"
   viewBox="-299.711 -237 1889.7637 1889.7637"
   enable-background="new -299.711 -237 946.422 1000"
   xml:space="preserve"
   inkscape:version="0.92.4 (5da689c313, 2019-01-14)"
   sodipodi:docname="syfy.svg"><metadata
   id="metadata5907"><rdf:RDF><cc:Work
       rdf:about=""><dc:format>image/svg+xml</dc:format><dc:type
         rdf:resource="http://purl.org/dc/dcmitype/StillImage" /><dc:title /></cc:Work></rdf:RDF></metadata><defs
   id="defs5905">
	<defs
   id="defs5871">
		<filter
   height="476.60699"
   width="469.944"
   y="-237"
   x="176.767"
   filterUnits="userSpaceOnUse"
   id="Adobe_OpacityMaskFilter">
			<feColorMatrix
   id="feColorMatrix5874"
   values="1 0 0 0 0  0 1 0 0 0  0 0 1 0 0  0 0 0 1 0"
   type="matrix" />
		</filter>
	</defs>
	<mask
   id="mask-2"
   height="476.607"
   width="469.944"
   y="-237"
   x="176.767"
   maskUnits="userSpaceOnUse">
		<g
   style="filter:url(#Adobe_OpacityMaskFilter)"
   id="g5877">
			<polygon
   style="fill:#ffffff"
   points="176.767,239.607 176.767,-236.998 646.711,-236.998 646.711,239.607 "
   id="path-1" />
		</g>
	</mask>
	
	<defs
   id="defs5881">
		<filter
   height="476.604"
   width="469.944"
   y="286.396"
   x="176.767"
   filterUnits="userSpaceOnUse"
   id="Adobe_OpacityMaskFilter_1_">
			<feColorMatrix
   id="feColorMatrix5884"
   values="1 0 0 0 0  0 1 0 0 0  0 0 1 0 0  0 0 0 1 0"
   type="matrix" />
		</filter>
	</defs>
	<mask
   id="mask-4"
   height="476.604"
   width="469.944"
   y="286.396"
   x="176.767"
   maskUnits="userSpaceOnUse">
		<g
   style="filter:url(#Adobe_OpacityMaskFilter_1_)"
   id="g5887">
			<polygon
   style="fill:#ffffff"
   points="176.767,286.396 646.711,286.396 646.711,763 176.767,763 "
   id="path-3" />
		</g>
	</mask>
	
	<defs
   id="defs5891">
		<filter
   height="237.2"
   width="428.58301"
   y="-237"
   x="-299.711"
   filterUnits="userSpaceOnUse"
   id="Adobe_OpacityMaskFilter_2_">
			<feColorMatrix
   id="feColorMatrix5894"
   values="1 0 0 0 0  0 1 0 0 0  0 0 1 0 0  0 0 0 1 0"
   type="matrix" />
		</filter>
	</defs>
	<mask
   id="mask-6"
   height="237.2"
   width="428.583"
   y="-237"
   x="-299.711"
   maskUnits="userSpaceOnUse">
		<g
   style="filter:url(#Adobe_OpacityMaskFilter_2_)"
   id="g5897">
			<polygon
   style="fill:#ffffff"
   points="-299.711,0.2 -299.711,-236.998 128.871,-236.998 128.871,0.2 "
   id="path-5" />
		</g>
	</mask>
	
	
	
</defs><sodipodi:namedview
   pagecolor="#ffffff"
   bordercolor="#666666"
   borderopacity="1"
   objecttolerance="10"
   gridtolerance="10"
   guidetolerance="10"
   inkscape:pageopacity="0"
   inkscape:pageshadow="2"
   inkscape:window-width="1920"
   inkscape:window-height="1017"
   id="namedview5903"
   showgrid="false"
   inkscape:zoom="0.17926262"
   inkscape:cx="-802.34042"
   inkscape:cy="674.0669"
   inkscape:window-x="-8"
   inkscape:window-y="-8"
   inkscape:window-maximized="1"
   inkscape:current-layer="Layer_1"
   units="mm" />
<g
   id="Clip-2"
   transform="matrix(1.05661,0,0,1.05661,16.966638,846.57023)">
</g>
<g
   id="Clip-5"
   transform="matrix(1.05661,0,0,1.05661,16.966638,846.57023)">
</g>
<g
   id="Clip-8"
   transform="matrix(1.05661,0,0,1.05661,16.966638,846.57023)">
</g>
<g
   id="g866"
   transform="matrix(1.7169752,0,0,1.7169752,301.27964,-1222.7858)"><path
     transform="matrix(1.05661,0,0,1.05661,16.966638,846.57023)"
     id="Fill-1"
     mask="url(#mask-2)"
     d="M 635.833,-237 H 445.472 c -4.249,4.251 -6.628,6.634 -10.876,10.879 V 0.2 H 386.703 V -226.121 L 375.826,-237 H 187.644 c -4.249,4.251 -6.628,6.634 -10.877,10.879 V 2.375 L 305.68,132.448 v 96.282 c 4.25,4.248 6.628,6.626 10.877,10.877 h 188.187 c 4.25,-4.251 6.629,-6.63 10.877,-10.877 V 131.332 L 646.711,0.2 v -226.321 c -4.249,-4.245 -6.629,-6.628 -10.878,-10.879"
     inkscape:connector-curvature="0" /><path
     transform="matrix(1.05661,0,0,1.05661,16.966638,846.57023)"
     id="Fill-4"
     mask="url(#mask-4)"
     d="M 635.833,286.396 H 445.472 c -4.249,4.249 -6.628,6.636 -10.876,10.882 v 226.32 h -47.893 v -226.32 c -4.25,-4.246 -6.627,-6.633 -10.877,-10.882 H 187.644 c -4.249,4.249 -6.628,6.636 -10.877,10.882 V 525.77 L 305.68,655.84 v 96.28 c 4.25,4.253 6.628,6.634 10.877,10.88 h 188.187 c 4.25,-4.246 6.629,-6.627 10.877,-10.88 v -97.393 l 131.091,-131.13 v -226.32 c -4.25,-4.246 -6.63,-6.632 -10.879,-10.881"
     inkscape:connector-curvature="0" /><path
     transform="matrix(1.05661,0,0,1.05661,16.966638,846.57023)"
     id="Fill-7"
     mask="url(#mask-6)"
     d="M 117.996,-237 H -204.53 l -95.181,95.208 v 131.143 c 4.25,4.251 6.631,6.629 10.877,10.85 h 203.413 v -46.785 h 203.417 c 4.249,-4.25 6.626,-6.633 10.875,-10.885 V -226.12 c -4.249,-4.246 -6.626,-6.629 -10.875,-10.88"
     inkscape:connector-curvature="0" /><path
     style="stroke-width:1.05660999"
     id="Fill-10"
     d="m -288.2172,896.21822 c -4.48953,4.49059 -7.00638,7.00849 -11.49169,11.50014 v 180.52814 c 4.48637,4.4864 7.00321,7.0053 11.49169,11.4949 H 52.565942 L 153.13197,999.14471 V 858.28064 c -4.48637,-4.49165 -7.00321,-7.01061 -11.48958,-11.49592 H -73.288988 v 49.43455 H -288.2172 Z"
     inkscape:connector-curvature="0" /><path
     style="stroke-width:1.05660999"
     id="Fill-12"
     d="m 141.64239,1149.1791 h -340.7842 L -299.711,1249.78 v 391.4877 c 4.49059,4.4938 7.00638,7.0096 11.49275,11.496 h 198.841318 c 4.486366,-4.4864 7.002154,-7.0022 11.492747,-11.496 v -62.6506 H 141.64239 c 4.48954,-4.4948 7.0011,-7.0106 11.49064,-11.5012 V 1411.305 c -4.48954,-4.4937 -7.0011,-7.0064 -11.49064,-11.4959 H -77.884185 v -49.4377 H 141.64239 c 4.48954,-4.4896 7.0011,-7.0075 11.49064,-11.497 v -178.1973 c -4.48954,-4.4874 -7.0011,-7.0085 -11.49064,-11.498"
     inkscape:connector-curvature="0" /></g>
</svg>