<?xml version="1.0" encoding="UTF-8" standalone="no"?>
<!-- Generator: Adobe Illustrator 16.0.0, SVG Export Plug-In . SVG Version: 6.00 Build 0)  -->

<svg
   xmlns:dc="http://purl.org/dc/elements/1.1/"
   xmlns:cc="http://creativecommons.org/ns#"
   xmlns:rdf="http://www.w3.org/1999/02/22-rdf-syntax-ns#"
   xmlns:svg="http://www.w3.org/2000/svg"
   xmlns="http://www.w3.org/2000/svg"
   xmlns:sodipodi="http://sodipodi.sourceforge.net/DTD/sodipodi-0.dtd"
   xmlns:inkscape="http://www.inkscape.org/namespaces/inkscape"
   version="1.1"
   id="Layer_1"
   x="0px"
   y="0px"
   width="500mm"
   height="500mm"
   viewBox="0 0 1889.7636 1889.7637"
   enable-background="new 0 0 1000.728 416.07"
   xml:space="preserve"
   inkscape:version="0.92.4 (5da689c313, 2019-01-14)"
   sodipodi:docname="tcm.svg"><metadata
     id="metadata59"><rdf:RDF><cc:Work
         rdf:about=""><dc:format>image/svg+xml</dc:format><dc:type
           rdf:resource="http://purl.org/dc/dcmitype/StillImage" /><dc:title></dc:title></cc:Work></rdf:RDF></metadata><defs
     id="defs57" /><sodipodi:namedview
     pagecolor="#ffffff"
     bordercolor="#666666"
     borderopacity="1"
     objecttolerance="10"
     gridtolerance="10"
     guidetolerance="10"
     inkscape:pageopacity="0"
     inkscape:pageshadow="2"
     inkscape:window-width="1920"
     inkscape:window-height="1017"
     id="namedview55"
     showgrid="false"
     inkscape:zoom="0.30977448"
     inkscape:cx="228.50089"
     inkscape:cy="621.20046"
     inkscape:window-x="-8"
     inkscape:window-y="-8"
     inkscape:window-maximized="1"
     inkscape:current-layer="g3"
     inkscape:pagecheckerboard="true"
     units="mm" /><g
     id="g3"
     transform="translate(0,1473.6937)"><g
       id="g30"
       transform="matrix(1.8483637,0,0,1.8483637,37.793664,-811.62442)"><rect
         x="0"
         style="fill:#000000"
         id="rect5"
         height="306.01401"
         width="981.50403"
         y="0" /><path
         style="fill:#ffffff"
         inkscape:connector-curvature="0"
         id="path7"
         d="m 839.216,179.751 c 0,1.609 -1.215,3.305 -2.644,3.807 l -8.684,3.519 c -1.394,0.625 -2.537,-0.214 -2.537,-1.839 v -60.371 c 0,-1.607 1.144,-3.181 2.537,-3.84 l 8.684,-3.396 c 1.429,-0.661 2.644,0.107 2.644,1.68 z m -101.981,-26.531 -4.253,5.021 c -1.25,1.321 -3.072,1.321 -4.287,0 L 691.64,118.952 c -0.322,-0.553 -0.715,-1.071 -0.715,-1.768 0,-1.34 1.179,-2.448 2.466,-2.448 h 10.255 l 0.214,-0.144 c 0.786,-0.07 1.645,0.322 2.323,0.982 l 31.052,32.928 c 1.251,1.325 1.251,3.451 0,4.718 m 139.464,-38 c 3.573,-1.395 8.255,-3.342 12.007,-4.325 4.181,-1.126 4.859,-2.59 4.502,-4.359 V 93.994 H 790.441 l -30.444,35.447 c -0.286,0.446 -0.75,0.59 -1.072,0.59 -0.571,0 -1.036,-0.144 -1.321,-0.52 L 724.658,93.993 H 622.104 v 12.542 c -0.179,1.77 0.393,3.233 4.682,4.359 3.68,0.983 8.325,2.931 12.006,4.325 3.287,1.303 4.037,3.18 3.931,5.627 v 68.427 c 0.106,2.521 -0.644,4.36 -3.931,5.7 -3.681,1.465 -8.326,3.377 -12.006,4.359 -4.289,1.126 -4.86,2.662 -4.682,4.324 v 12.614 h 64.068 v -12.614 c 0.287,-1.662 -0.465,-3.198 -4.573,-4.324 -3.609,-0.982 -8.434,-2.895 -11.898,-4.359 -3.324,-1.34 -4.146,-3.18 -4.002,-5.7 l -0.144,-54.116 c 0,-1.25 0.93,-2.27 2.036,-2.27 0.537,0 0.895,0.144 1.18,0.502 l 59.209,68.605 59.638,-70.215 c 0.501,-0.5 1.072,-0.84 1.858,-0.84 1.107,0 1.822,1.037 1.822,2.197 l 0.143,56.136 c 0.143,2.521 -0.75,4.36 -4.038,5.7 -3.608,1.465 -8.325,3.377 -11.935,4.359 -4.181,1.126 -4.931,2.662 -4.573,4.324 v 12.614 h 122.313 v -12.614 c 0.357,-1.662 -0.321,-3.198 -4.502,-4.324 -3.752,-0.982 -8.434,-2.895 -12.007,-4.359 -3.358,-1.34 -4.108,-3.18 -3.966,-5.7 v -68.427 c -0.142,-2.445 0.608,-4.322 3.966,-5.625 m -448.264,66.766 c 1.75,1.714 0.25,5.02 -2.466,4.467 -4.967,-0.43 -26.157,-13.758 -26.157,-34.983 0,-20.528 21.334,-32.517 26.157,-33.069 2.716,-0.519 4.216,2.733 2.466,4.572 -10.256,9.326 -10.828,19.385 -10.828,29.535 0.072,8.556 0.572,20.008 10.828,29.478 m 136.283,-3.574 c -28.943,15.795 -65.318,23.584 -98.514,16.098 -6.182,-1.947 -8.862,-7.914 -9.935,-13.148 -1.93,-8.309 -1.93,-51.85 1.251,-57.995 5.932,-13.167 22.369,-11.56 35.482,-13.023 29.658,0.625 56.922,13.613 65.463,33.48 0.249,1.036 1.321,1.911 3.858,1.108 12.078,-3.628 12.899,-4.109 12.899,-4.109 L 565.86,87.885 552.854,87.009 c 0,0 -2.287,9.291 -9.934,7.969 -53.421,-8.826 -111.915,-12.363 -157.367,14.972 -15.829,10.345 -28.586,24.657 -28.586,43.542 0,19.419 10.685,31.568 26.657,42.218 52.813,33.91 134.282,25.798 191.884,7.217 l -6.36,-22.476 c -0.678,-1.967 -2.251,-2.737 -4.43,-2.039 m -351.18,4.377 c 0,1.607 -1.215,3.377 -2.716,3.877 l -9.326,3.521 c -1.501,0.445 -2.751,-0.216 -2.751,-1.752 v -60.406 c 0,-1.66 1.25,-3.377 2.751,-3.822 l 9.326,-3.609 c 1.501,-0.483 2.716,0.25 2.716,1.751 z M 100.98,93.994 c 0,0 -7.825,31.641 -12.328,46.398 l 12.114,4.646 c 3.501,1.431 3.858,-0.696 5.752,-2.751 10.256,-19.688 32.589,-34.144 54.635,-27.229 v 74.216 c 0,2.521 -0.785,4.36 -4.18,5.7 -3.896,1.465 -8.897,3.377 -12.828,4.359 -4.431,1.126 -5.109,2.662 -4.896,4.324 v 12.614 h 132.675 v -12.614 c 0.357,-1.662 -0.285,-3.198 -4.823,-4.324 -3.824,-0.982 -8.897,-2.895 -12.685,-4.359 -3.503,-1.34 -4.359,-3.18 -4.217,-5.7 l -0.072,-74.216 c 21.976,-6.915 44.344,7.541 54.636,27.229 1.858,2.055 2.251,4.182 5.824,2.751 l 12.077,-4.646 C 318.162,125.634 310.266,93.994 310.266,93.994 Z" /></g></g></svg>