<?xml version="1.0" encoding="UTF-8" standalone="no"?>
<svg
   xmlns:dc="http://purl.org/dc/elements/1.1/"
   xmlns:cc="http://creativecommons.org/ns#"
   xmlns:rdf="http://www.w3.org/1999/02/22-rdf-syntax-ns#"
   xmlns:svg="http://www.w3.org/2000/svg"
   xmlns="http://www.w3.org/2000/svg"
   xmlns:sodipodi="http://sodipodi.sourceforge.net/DTD/sodipodi-0.dtd"
   xmlns:inkscape="http://www.inkscape.org/namespaces/inkscape"
   width="500mm"
   height="500mm"
   viewBox="0 0 1417.3228 1417.3228"
   version="1.1"
   id="svg17"
   sodipodi:docname="trece.svg"
   inkscape:version="0.92.4 (5da689c313, 2019-01-14)">
  <metadata
     id="metadata23">
    <rdf:RDF>
      <cc:Work
         rdf:about="">
        <dc:format>image/svg+xml</dc:format>
        <dc:type
           rdf:resource="http://purl.org/dc/dcmitype/StillImage" />
        <dc:title />
      </cc:Work>
    </rdf:RDF>
  </metadata>
  <defs
     id="defs21" />
  <sodipodi:namedview
     pagecolor="#ffffff"
     bordercolor="#666666"
     borderopacity="1"
     objecttolerance="10"
     gridtolerance="10"
     guidetolerance="10"
     inkscape:pageopacity="0"
     inkscape:pageshadow="2"
     inkscape:window-width="1920"
     inkscape:window-height="1017"
     id="namedview19"
     showgrid="false"
     units="mm"
     inkscape:zoom="0.38447653"
     inkscape:cx="-528.9198"
     inkscape:cy="869.41497"
     inkscape:window-x="-8"
     inkscape:window-y="-8"
     inkscape:window-maximized="1"
     inkscape:current-layer="svg17" />
  <g
     id="g840"
     transform="matrix(4.9120334,0,0,4.9120334,28.344769,-6096.0953)">
    <g
       transform="translate(0,1353.3228)"
       id="#0000c5ff">
      <path
         style="opacity:1;fill:#0000c5"
         inkscape:connector-curvature="0"
         id="path2"
         d="M 0,1.31 C 11.57,1.26 23.14,1.3 34.71,1.29 c -0.05,20.5 -0.03,41 -0.01,61.5 -5.47,0 -10.95,0 -16.42,0.01 C 18.31,47.15 18.3,31.49 18.29,15.84 12.19,15.82 6.1,15.87 0,15.82 Z" />
    </g>
    <g
       transform="translate(0,1353.3228)"
       id="#0201beff">
      <path
         style="opacity:1;fill:#0201be"
         inkscape:connector-curvature="0"
         id="path5"
         d="m 51.62,1.31 c 8.81,-0.04 17.61,-0.04 26.42,0 5.89,0.05 12.15,2.04 15.91,6.8 4.9,6.05 5.7,14.55 3.92,21.91 -1.22,5.14 -5.1,9.18 -9.67,11.61 4.78,6.93 9.28,14.07 13.89,21.12 C 95.7,62.84 89.3,62.77 82.91,62.79 79.27,56.85 75.6,50.93 71.97,44.98 71.07,43.5 68.98,44.47 67.6,44.18 67.65,50.39 67.61,56.6 67.63,62.81 62.3,62.79 56.97,62.8 51.64,62.8 c 0,-20.5 0.04,-41 -0.02,-61.49 m 16,14.42 c 0,4.65 0.03,9.3 -0.02,13.94 3.82,-0.05 8.12,0.75 11.42,-1.71 3.4,-2.23 3.39,-7.72 0.24,-10.17 C 76,15.15 71.53,15.77 67.62,15.73 Z" />
    </g>
    <g
       transform="translate(0,1353.3228)"
       id="#0401b6ff">
      <path
         style="opacity:1;fill:#0401b6"
         inkscape:connector-curvature="0"
         id="path8"
         d="m 112.74,1.55 c 13.67,-0.61 27.39,-0.09 41.08,-0.25 -0.08,20.5 -0.06,40.99 -0.01,61.49 -14.22,0 -28.44,0.02 -42.66,-0.01 0.05,-4.85 0.03,-9.7 0.02,-14.55 8.86,-0.02 17.73,-0.01 26.59,0 0,-2.89 0.01,-5.78 0.03,-8.67 -6.46,-0.04 -12.91,-0.01 -19.37,-0.01 0.04,-4.77 0.04,-9.54 0,-14.31 6.4,0.01 12.81,-0.05 19.21,0.04 0.22,-3.14 0.15,-6.3 0.1,-9.45 -8.3,-0.03 -16.6,0.1 -24.89,-0.07 -0.04,-4.74 0.1,-9.48 -0.1,-14.21 z" />
    </g>
    <g
       transform="translate(0,1353.3228)"
       id="#0602b0ff">
      <path
         style="opacity:1;fill:#0602b0"
         inkscape:connector-curvature="0"
         id="path11"
         d="m 171.84,10.82 c 8.72,-10.79 24.96,-13.11 37.35,-7.97 4.94,1.93 9.03,5.45 12.61,9.28 -4,3.52 -8.12,6.9 -12.04,10.52 -3.33,-3.5 -7.69,-6.55 -12.73,-6.37 -5.2,-0.37 -10.21,2.54 -12.93,6.89 -4.28,7.53 -2.39,18.65 5.5,23.04 6.77,3.39 15.27,0.99 20.09,-4.62 4.05,3.46 8,7.04 12.09,10.46 -10.82,13.47 -32.36,15.56 -45.88,5.06 -14.11,-10.52 -14.97,-33.18 -4.06,-46.29 z" />
    </g>
    <g
       transform="translate(0,1353.3228)"
       id="#0702a8ff">
      <path
         style="opacity:1;fill:#0702a8"
         inkscape:connector-curvature="0"
         id="path14"
         d="m 234.3,1.29 c 13.66,-0.01 27.32,0.02 40.99,-0.01 -0.02,4.86 -0.01,9.71 -0.02,14.56 -8.29,-0.02 -16.58,-0.01 -24.87,0 -0.05,3.14 -0.03,6.28 0.02,9.42 6.46,-0.03 12.92,-0.02 19.38,-0.01 -0.05,4.76 -0.05,9.52 0,14.29 -6.48,0.01 -12.95,0 -19.43,0 0,2.88 0,5.76 -0.01,8.64 8.88,0.11 17.76,-0.01 26.64,0.07 v 14.5 c -14.23,0.08 -28.46,0.03 -42.69,0.04 0.03,-20.5 0.05,-41 -0.01,-61.5 z" />
    </g>
  </g>
</svg>
