<?xml version="1.0" encoding="UTF-8" standalone="no"?>
<svg
   xmlns:dc="http://purl.org/dc/elements/1.1/"
   xmlns:cc="http://creativecommons.org/ns#"
   xmlns:rdf="http://www.w3.org/1999/02/22-rdf-syntax-ns#"
   xmlns:svg="http://www.w3.org/2000/svg"
   xmlns="http://www.w3.org/2000/svg"
   xmlns:sodipodi="http://sodipodi.sourceforge.net/DTD/sodipodi-0.dtd"
   xmlns:inkscape="http://www.inkscape.org/namespaces/inkscape"
   width="500mm"
   height="500mm"
   viewBox="0 0 1417.3229 1417.3228"
   version="1.1"
   id="svg17"
   sodipodi:docname="tvchile.svg"
   inkscape:version="0.92.4 (5da689c313, 2019-01-14)">
  <metadata
     id="metadata23">
    <rdf:RDF>
      <cc:Work
         rdf:about="">
        <dc:format>image/svg+xml</dc:format>
        <dc:type
           rdf:resource="http://purl.org/dc/dcmitype/StillImage" />
        <dc:title />
      </cc:Work>
    </rdf:RDF>
  </metadata>
  <defs
     id="defs21" />
  <sodipodi:namedview
     pagecolor="#ffffff"
     bordercolor="#666666"
     borderopacity="1"
     objecttolerance="10"
     gridtolerance="10"
     guidetolerance="10"
     inkscape:pageopacity="0"
     inkscape:pageshadow="2"
     inkscape:window-width="1920"
     inkscape:window-height="1017"
     id="namedview19"
     showgrid="false"
     inkscape:pagecheckerboard="true"
     units="mm"
     inkscape:zoom="0.20353209"
     inkscape:cx="-10.464159"
     inkscape:cy="469.48193"
     inkscape:window-x="-8"
     inkscape:window-y="-8"
     inkscape:window-maximized="1"
     inkscape:current-layer="svg17" />
  <g
     id="g829"
     transform="translate(1438.3306,-41.54393)">
    <rect
       y="221.33693"
       x="-1300.2112"
       height="1037.0422"
       width="1063.0985"
       id="rect20"
       style="opacity:1;fill:#ffffff;fill-opacity:1;stroke:none;stroke-width:8.50393677;stroke-miterlimit:4;stroke-dasharray:none;stroke-opacity:1" />
    <path
       inkscape:connector-curvature="0"
       id="path18"
       d="m -1195.1271,1426.5213 c -5.1057,-1.9318 -11.4102,-3.5797 -14.0101,-3.662 -8.7512,-0.2772 -48.1569,-16.8545 -68.2112,-28.6953 -54.2327,-32.0211 -90.8885,-75.5416 -118.9291,-141.2016 -14.2768,-33.4304 -13.6859,-6.7369 -13.6859,-618.26957 V 70.036617 l 562.9507,4.55e-4 c 482.13895,3.89e-4 565.85115,0.555475 583.15605,3.866843 56.0574,10.72687 118.8024,48.954045 152.5518,92.941655 7.8346,10.21135 15.290697,19.85321 16.569097,21.42634 11.0933,13.65121 34.1656,61.90817 35.8846,75.05451 0.5005,3.82737 2.8293,12.32975 5.1752,18.8942 3.8556,10.78884 4.269,55.82455 4.3039,468.83001 0.024,289.54757 -0.9015,458.58147 -2.5279,461.50017 -1.4116,2.533 -4.4102,12.2191 -6.6636,21.5247 -3.6508,15.0763 -19.3221,51.0072 -28.4816,65.3021 -27.082197,42.2662 -57.549897,72.2465 -96.797597,95.2489 -20.7716,12.1739 -58.3335,27.2441 -73.6178,29.5361 -6.6435,0.9962 -12.7316,2.8672 -13.5291,4.1576 -0.8328,1.3474 -195.87266,2.2116 -458.15224,2.0298 -371.98361,-0.2577 -458.42411,-0.968 -465.98521,-3.8287 z m 121.0091,-249.8398 c 6.0163,-3.1393 14.2572,-9.6391 18.3131,-14.4441 7.48,-8.8612 16.9989,-27.3115 17.1053,-33.1546 0.048,-2.6523 -37.6639,-16.6923 -44.8363,-16.6923 -1.2011,0 -2.8666,3.4139 -3.7011,7.5866 -2.1311,10.6554 -13.7478,23.5314 -23.079,25.5809 -10.9104,2.3963 -25.1102,-2.8754 -30.7607,-11.42 -3.4214,-5.1738 -4.9961,-13.7814 -5.6768,-31.0306 -1.1416,-28.9287 3.1642,-39.7573 18.8561,-47.4205 14.0676,-6.87 28.9392,-2.6304 36.657,10.4502 2.9598,5.0167 6.1588,9.1218 7.1088,9.1225 0.95,7e-4 10.9772,-2.0771 22.2826,-4.6174 23.6161,-5.3065 24.4105,-6.8324 12.9586,-24.8903 -14.2735,-22.507 -33.6799,-31.4965 -67.9938,-31.4965 -28.6991,0 -45.1477,5.9382 -61.4018,22.167 -17.8088,17.7811 -23.2715,34.9296 -21.5823,67.7505 2.0051,38.9588 18.2187,64.4596 47.6362,74.9222 19.9738,7.1038 62.3858,5.7934 78.1141,-2.4136 z m 149.52553,-28.485 v -33.1537 h 26.523 26.523 v 33.1537 33.1538 h 26.523 26.523 v -82.2213 -82.2213 h -26.523 -26.523 v 29.1753 29.1753 h -26.523 -26.523 v -29.1753 -29.1753 h -26.523 -26.523 v 82.2213 82.2213 h 26.523 26.523 z m 230.7501,-49.0675 v -82.2213 h -26.523 -26.523 v 82.2213 82.2213 h 26.523 26.523 z m 201.5748,62.329 v -19.8922 h -39.7845 -39.7845 v -62.3291 -62.329 h -26.523 -26.523 v 82.2213 82.2213 h 66.3075 66.3075 z m 196.27022,1.3262 v -18.5661 h -43.763 -43.7629 v -15.9138 -15.9138 h 39.7845 39.7845 v -18.5661 -18.5661 h -39.7845 -39.7845 v -10.6092 -10.6092 h 42.4368 42.4368 v -18.5661 -18.5661 h -68.9598 -68.9598 v 82.2213 82.2213 h 70.2859 70.286 z M -918.26366,928.27925 c 16.14545,-4.85906 29.04494,-14.84441 37.23818,-28.8257 l 6.55309,-11.18238 0.79989,-216.16245 0.79988,-216.16245 73.20589,-0.70435 73.20587,-0.70432 8.29159,21.92272 c 4.56037,12.05752 14.3534,38.63224 21.76228,59.05495 7.40891,20.42271 19.90212,54.43845 27.76271,75.59055 7.8606,21.15209 20.19955,55.16784 27.41988,75.59055 12.6995,35.92063 17.33084,48.77428 34.88148,96.80895 4.53045,12.3995 15.63966,43.43141 24.68713,68.9598 15.38411,43.40783 17.30923,47.27571 29.71147,59.69518 12.94619,12.96418 28.29826,19.87382 44.15636,19.87382 12.10383,0 27.23676,-6.81586 39.38679,-17.73978 13.70011,-12.3176 15.28939,-15.76408 45.02222,-97.63527 7.4169,-20.42271 21.1582,-58.01907 30.5362,-83.54745 9.3781,-25.52839 23.0805,-63.12474 30.4497,-83.54745 7.3693,-20.42271 17.5291,-48.47079 22.5775,-62.32905 5.0483,-13.85827 18.9109,-52.05139 30.8057,-84.8736 42.136,-116.26851 39.9136,-107.469 32.632,-129.20693 -5.8989,-17.6105 -14.0719,-27.51218 -29.7539,-36.04741 -23.5323,-12.80787 -51.043,-9.07289 -71.6758,9.73102 -10.1145,9.21789 -12.1406,14.01133 -49.4821,117.06497 -6.3431,17.50518 -24.2457,66.44011 -39.78375,108.7443 -15.53805,42.30418 -30.58611,84.0573 -33.44015,92.78469 -2.85403,8.72739 -6.04523,16.72397 -7.09156,17.77017 -1.56016,1.55993 -31.08694,-75.46281 -56.61605,-147.68706 -3.09377,-8.75259 -10.25024,-28.74431 -15.90327,-44.42603 -5.65303,-15.68172 -14.89147,-41.34273 -20.52986,-57.02445 -27.09653,-75.36203 -33.53868,-87.10973 -53.03659,-96.71567 l -12.30234,-6.06095 -246.33698,-0.70362 -246.337,-0.70361 -13.7195,6.28101 c -13.9773,6.39902 -28.1164,21.1465 -33.2701,34.70161 -3.8798,10.20464 -3.3823,34.62867 0.9149,44.91322 5.1844,12.40818 19.3703,27.72092 30.5547,32.98204 8.139,3.82849 21.9921,4.69779 93.109,5.84257 l 83.54748,1.34488 1.32615,216.16245 1.32615,216.16245 7.03461,11.93535 c 8.23892,13.97868 19.50754,22.94937 34.93692,27.81257 14.77949,4.65834 19.90132,4.69683 34.64323,0.26019 z"
       style="fill:#fb0b0c;fill-opacity:1;stroke-width:2.65229988" />
  </g>
</svg>
