<?xml version="1.0" encoding="UTF-8" standalone="no"?>
<svg
   xmlns:dc="http://purl.org/dc/elements/1.1/"
   xmlns:cc="http://creativecommons.org/ns#"
   xmlns:rdf="http://www.w3.org/1999/02/22-rdf-syntax-ns#"
   xmlns:svg="http://www.w3.org/2000/svg"
   xmlns="http://www.w3.org/2000/svg"
   xmlns:sodipodi="http://sodipodi.sourceforge.net/DTD/sodipodi-0.dtd"
   xmlns:inkscape="http://www.inkscape.org/namespaces/inkscape"
   width="500mm"
   height="500mm"
   viewBox="0 0 1417.3229 1417.3228"
   version="1.1"
   id="svg17"
   sodipodi:docname="tvcolombia.svg"
   inkscape:version="0.92.4 (5da689c313, 2019-01-14)">
  <metadata
     id="metadata23">
    <rdf:RDF>
      <cc:Work
         rdf:about="">
        <dc:format>image/svg+xml</dc:format>
        <dc:type
           rdf:resource="http://purl.org/dc/dcmitype/StillImage" />
        <dc:title />
      </cc:Work>
    </rdf:RDF>
  </metadata>
  <defs
     id="defs21" />
  <sodipodi:namedview
     pagecolor="#ffffff"
     bordercolor="#666666"
     borderopacity="1"
     objecttolerance="10"
     gridtolerance="10"
     guidetolerance="10"
     inkscape:pageopacity="0"
     inkscape:pageshadow="2"
     inkscape:window-width="1920"
     inkscape:window-height="1017"
     id="namedview19"
     showgrid="false"
     inkscape:pagecheckerboard="true"
     units="mm"
     inkscape:zoom="0.40706418"
     inkscape:cx="1679.5528"
     inkscape:cy="1009.3105"
     inkscape:window-x="-8"
     inkscape:window-y="-8"
     inkscape:window-maximized="1"
     inkscape:current-layer="svg17" />
  <rect
     style="opacity:1;fill:#446fb4;fill-opacity:1;stroke:none;stroke-width:11.36452007;stroke-miterlimit:4;stroke-dasharray:none;stroke-opacity:1"
     id="rect1186"
     width="1360.6302"
     height="850.39368"
     x="28.346294"
     y="283.46457" />
  <path
     id="path46"
     d="m 1103.6403,1028.4635 88.2105,-0.035 88.2106,-0.035 0.073,-319.67224 0.073,-319.67219 h -124.0782 -124.0781 v 38.58194 c 0,32.12855 -0.067,38.67296 -0.3978,39.12601 -0.372,0.50866 -0.7277,0.28732 -5.4676,-3.40197 -57.44659,-44.71313 -126.93473,-71.96861 -203.50713,-79.822 -9.89942,-1.0153 -25.11473,-2.03809 -31.1612,-2.09479 -2.00408,-0.0188 -2.84431,-0.11172 -2.3734,-0.26254 0.40096,-0.12841 -5.76649,-0.23347 -13.70544,-0.23347 -7.93895,0 -14.1064,0.0938 -13.70545,0.20849 0.40096,0.11467 -2.02665,0.29733 -5.39469,0.40592 -11.70579,0.37742 -36.47628,2.31774 -37.06165,2.90311 -0.0699,0.0699 2.66337,0.21761 6.07402,0.3282 71.56571,2.32032 138.80727,20.02888 196.91777,51.85975 33.92967,18.58547 63.53716,40.93651 90.53657,68.34715 28.2182,28.64784 51.7887,61.70113 69.0012,96.76104 1.5237,3.10367 2.7802,5.33827 2.8692,5.10309 0.087,-0.23011 0.1903,-37.42309 0.2303,-82.65105 l 0.072,-82.23266 70.5685,-0.0797 c 38.8126,-0.0438 70.8637,-0.008 71.2246,0.0785 l 0.6561,0.15812 v 266.5115 c 0,263.19348 -0.01,266.51507 -0.5641,266.81318 -0.7418,0.39697 -112.1081,0.40435 -121.4727,0.008 -38.8216,-1.64314 -76.7376,-12.33913 -120.43295,-33.97387 -34.35785,-17.01149 -60.07973,-34.2334 -77.14537,-51.6522 -6.25362,-6.38301 -9.90242,-10.87629 -12.82655,-15.795 -0.69699,-1.17243 -1.35045,-2.18317 -1.45216,-2.24597 -0.10169,-0.0628 -2.01188,1.10468 -4.2449,2.59452 -10.67969,7.12541 -24.15789,14.65258 -36.42817,20.34402 -3.36804,1.56221 -6.16051,3.01499 -6.20541,3.22836 -0.20506,0.97361 6.47153,10.29938 12.0623,16.84848 3.65793,4.2849 14.88563,15.51823 19.80437,19.81422 18.34555,16.02295 40.21376,31.17367 65.78566,45.57766 42.77921,24.09639 80.10658,38.17729 116.90498,44.09979 9.553,1.5374 17.344,2.3588 33.0972,3.489 z"
     style="fill:#ffffff;stroke-width:0.29160517;fill-opacity:1"
     inkscape:connector-curvature="0" />
  <path
     id="path1038"
     d="m 628.90785,1036.2156 c 17.83215,0.5234 39.39825,-0.2118 59.19585,-2.0178 10.88711,-0.9932 11.3915,-1.1392 4.81149,-1.3926 -35.7445,-1.3762 -65.42518,-5.341 -96.50149,-12.8906 -96.61008,-23.47033 -178.56805,-78.60576 -232.86657,-156.65581 -9.96505,-14.32402 -20.05876,-31.38759 -27.49872,-46.48709 -1.71592,-3.48243 -3.21824,-6.33641 -3.33853,-6.34241 -0.1203,-0.006 -0.2187,37.11116 -0.2187,82.48234 0,74.95387 -0.0422,82.50925 -0.46126,82.67007 -0.84945,0.32598 -140.95815,0.2024 -141.56964,-0.12487 -0.55704,-0.2981 -0.56404,-3.61969 -0.56404,-266.81318 V 442.13232 l 0.65611,-0.16459 c 0.36087,-0.0905 28.67208,-0.1134 62.91382,-0.0509 64.45617,0.11771 63.53477,0.1008 75.23414,1.38119 38.03068,4.16213 79.8203,18.75587 123.7864,43.22862 32.45306,18.06427 56.65595,37.38149 68.29732,54.51062 1.20832,1.77795 2.04908,2.75484 2.25869,2.62445 0.18365,-0.11424 2.62357,-1.73191 5.42207,-3.59482 10.35939,-6.89609 20.44564,-12.63662 32.73178,-18.62908 4.43917,-2.16517 8.07161,-4.10663 8.07461,-4.31435 0.004,-0.45878 -2.28648,-3.88428 -4.88599,-7.30671 -7.3987,-9.74088 -19.33483,-21.83765 -31.70705,-32.13379 -22.11365,-18.40293 -50.56192,-36.52494 -82.08686,-52.2907 -11.09441,-5.54836 -18.38822,-8.90927 -27.37595,-12.61457 -31.08264,-12.81417 -57.38738,-19.41724 -88.0997,-22.11495 -17.36749,-1.526 -10.79867,-1.4322 -107.82115,-1.531 l -90.17904,-0.0918 0.073,319.67674 0.073,319.67672 124.0051,0.073 124.00511,0.073 0.004,-38.71089 c 0.003,-24.05973 0.10979,-38.87648 0.28271,-39.14834 0.36314,-0.57088 0.48071,-0.49608 5.98234,3.80614 10.087,7.88792 25.1913,18.24402 36.51028,25.03288 59.3043,35.56941 126.40887,54.51111 200.85634,56.69591 z"
     style="fill:#ffffff;stroke-width:0.29160517;fill-opacity:1"
     inkscape:connector-curvature="0" />
  <path
     id="path48"
     d="m 693.20626,925.11762 c -11.76793,-0.62736 -18.48779,-1.20412 -28.5773,-2.45281 -63.32805,-7.83738 -121.63818,-32.86343 -164.75693,-70.7118 -7.76898,-6.81937 -18.47372,-17.75791 -24.9512,-25.49615 -24.66458,-29.46516 -39.78224,-63.03152 -44.12806,-97.97935 -0.96956,-7.79688 -1.26271,-12.77286 -1.26271,-21.43298 0,-8.64504 0.29163,-13.60787 1.2595,-21.43298 4.29295,-34.70745 19.35107,-68.25367 43.82739,-97.63786 9.03874,-10.85116 20.58531,-22.24611 32.06423,-31.64318 15.1011,-12.36233 33.17864,-23.96259 51.80349,-33.24205 10.85996,-5.41076 14.55602,-7.07547 24.34903,-10.96688 30.11144,-11.96527 62.85792,-19.5122 96.81292,-22.312 18.85945,-1.55509 39.9293,-1.55481 59.05005,8.7e-4 56.53362,4.59935 109.97426,22.69584 153.3079,51.91431 14.81287,9.98784 25.42124,18.72831 38.00123,31.31007 7.6151,7.61616 12.00682,12.4863 17.67673,19.60233 3.42642,4.30034 9.12727,12.21264 9.13167,12.67402 0.004,0.38154 -54.25349,32.18551 -54.9082,32.18551 -0.24102,0 -0.76547,-0.55769 -1.16543,-1.23932 -1.17126,-1.99612 -5.63174,-8.25636 -8.46667,-11.88291 -3.86718,-4.94703 -7.36475,-8.91605 -12.43629,-14.11258 -35.07588,-35.94034 -87.33908,-59.05516 -145.07761,-64.16452 -17.20377,-1.52239 -37.13653,-1.31244 -54.41822,0.57317 -40.15882,4.38175 -78.78055,18.10907 -109.31809,38.8549 -10.67666,7.25325 -19.23991,14.32013 -28.15381,23.23417 -8.53499,8.53511 -14.64642,15.94422 -20.69729,25.09203 -12.65429,19.13092 -19.84286,38.45739 -22.50629,60.50807 -0.72015,5.96222 -0.71729,21.39785 0.005,27.46904 1.17753,9.89623 2.93346,17.78675 6.02205,27.06114 19.04818,57.19748 77.62096,102.3906 151.73148,117.07178 17.35818,3.43864 30.48776,4.77964 49.19517,5.02462 12.2561,0.1605 19.23194,-0.0689 28.86891,-0.94955 65.35196,-5.97187 122.86933,-34.80448 157.03292,-78.7183 2.51976,-3.23889 8.11103,-11.34898 9.6156,-13.94736 0.60942,-1.05246 0.95089,-1.37291 1.35138,-1.26819 0.73747,0.19287 53.05637,30.20295 53.69988,30.8022 0.4911,0.45735 0.41569,0.62949 -1.49162,3.40525 -22.01499,32.03956 -54.75531,59.83767 -93.94311,79.76221 -40.61588,20.65063 -85.85636,32.38287 -134.7216,34.93742 -4.99421,0.26111 -29.48613,0.33905 -33.8262,0.10766 z"
     style="fill:#81c24b;stroke-width:0.29160517"
     inkscape:connector-curvature="0" />
</svg>
