<?xml version="1.0" encoding="UTF-8" standalone="no"?>
<!-- Created with Inkscape (http://www.inkscape.org/) -->

<svg
   xmlns:dc="http://purl.org/dc/elements/1.1/"
   xmlns:cc="http://creativecommons.org/ns#"
   xmlns:rdf="http://www.w3.org/1999/02/22-rdf-syntax-ns#"
   xmlns:svg="http://www.w3.org/2000/svg"
   xmlns="http://www.w3.org/2000/svg"
   xmlns:sodipodi="http://sodipodi.sourceforge.net/DTD/sodipodi-0.dtd"
   xmlns:inkscape="http://www.inkscape.org/namespaces/inkscape"
   width="500mm"
   height="500mm"
   viewBox="0 0 500.00001 500"
   version="1.1"
   id="svg8"
   inkscape:version="0.92.4 (5da689c313, 2019-01-14)"
   sodipodi:docname="vasco_etb2.svg">
  <defs
     id="defs2">
    <inkscape:perspective
       id="perspective10"
       inkscape:persp3d-origin="372.04726 : 350.78738 : 1"
       inkscape:vp_z="744.0945 : 526.18107 : 1"
       inkscape:vp_y="0 : 999.99996 : 0"
       inkscape:vp_x="0 : 526.18107 : 1"
       sodipodi:type="inkscape:persp3d" />
    <inkscape:perspective
       sodipodi:type="inkscape:persp3d"
       inkscape:vp_x="0 : 0.49999998 : 1"
       inkscape:vp_y="0 : 999.99996 : 0"
       inkscape:vp_z="1 : 0.49999998 : 1"
       inkscape:persp3d-origin="0.50000002 : 0.33333332 : 1"
       id="perspective2824" />
    <inkscape:perspective
       sodipodi:type="inkscape:persp3d"
       inkscape:vp_x="0 : 0.49999998 : 1"
       inkscape:vp_y="0 : 999.99996 : 0"
       inkscape:vp_z="1 : 0.49999998 : 1"
       inkscape:persp3d-origin="0.50000002 : 0.33333332 : 1"
       id="perspective3659" />
  </defs>
  <sodipodi:namedview
     id="base"
     pagecolor="#ffffff"
     bordercolor="#666666"
     borderopacity="1.0"
     inkscape:pageopacity="0.0"
     inkscape:pageshadow="2"
     inkscape:zoom="0.28845015"
     inkscape:cx="-20.105123"
     inkscape:cy="748.98779"
     inkscape:document-units="mm"
     inkscape:current-layer="layer1"
     showgrid="false"
     showguides="true"
     inkscape:guide-bbox="true"
     inkscape:window-width="1920"
     inkscape:window-height="1017"
     inkscape:window-x="-8"
     inkscape:window-y="-8"
     inkscape:window-maximized="1"
     fit-margin-top="0"
     fit-margin-left="0"
     fit-margin-right="0"
     fit-margin-bottom="0"
     inkscape:measure-start="0,0"
     inkscape:measure-end="0,0" />
  <metadata
     id="metadata5">
    <rdf:RDF>
      <cc:Work
         rdf:about="">
        <dc:format>image/svg+xml</dc:format>
        <dc:type
           rdf:resource="http://purl.org/dc/dcmitype/StillImage" />
        <dc:title />
      </cc:Work>
    </rdf:RDF>
  </metadata>
  <g
     inkscape:label="Capa 1"
     inkscape:groupmode="layer"
     id="layer1"
     transform="translate(-49.130501,420.44906)">
    <g
       id="g832"
       transform="matrix(6.503244,0,0,6.503244,-260.37687,-569.79625)">
      <circle
         style="fill:#81c7ce;fill-opacity:1;stroke:none;stroke-width:0.5;stroke-linecap:round;stroke-miterlimit:4;stroke-dasharray:none"
         id="circle3803"
         cx="106.52245"
         cy="61.48349"
         r="16.41728" />
      <g
         style="fill:#0093d0;fill-opacity:1;stroke:#0093d0"
         id="g3815"
         transform="matrix(0.77554618,0,0,0.77554618,223.20349,-63.98643)">
        <path
           style="fill:#0093d0;fill-opacity:1;fill-rule:nonzero;stroke:#0093d0;stroke-width:0.238125;stroke-linejoin:miter;stroke-miterlimit:4;stroke-dasharray:none;stroke-opacity:1"
           d="m -192.26359,184.65336 c -2.31748,-0.97197 -3.19838,-3.11919 -2.1724,-5.29529 0.56156,-1.19109 1.10977,-1.79425 3.86156,-4.2487 3.02762,-2.70047 4.19935,-4.0186 5.37667,-6.04848 2.34763,-4.04766 2.03957,-8.38218 -0.90685,-12.75992 -2.55549,-3.79691 -6.77777,-7.50469 -13.21092,-11.60112 -2.41923,-1.54049 -3.27792,-2.25285 -3.27792,-2.71933 0,-0.38804 0.4644,-0.89899 1.04858,-1.15368 0.74079,-0.32298 9.2287,-2.41782 9.79656,-2.41782 0.48236,0 0.90072,0.28474 0.90072,0.61303 0,0.10107 -0.31693,0.83563 -0.70429,1.63235 -0.61579,1.26653 -0.68345,1.4868 -0.53842,1.75273 0.0912,0.16729 0.72614,0.70365 1.4109,1.19192 7.40655,5.28125 11.81149,11.34815 12.87917,17.73839 0.28728,1.7195 0.21256,5.63709 -0.13709,7.18741 -1.18688,5.26244 -4.06787,10.2875 -8.12937,14.17939 -1.90418,1.82466 -2.60174,2.19493 -4.23458,2.2477 -0.97924,0.0316 -1.28635,-0.0151 -1.96232,-0.29858 z"
           id="path3807"
           inkscape:connector-curvature="0" />
        <path
           style="fill:#0093d0;fill-opacity:1;fill-rule:nonzero;stroke:#0093d0;stroke-width:0.238125;stroke-linejoin:miter;stroke-miterlimit:4;stroke-dasharray:none;stroke-opacity:1"
           d="m -204.14728,151.14919 c -1.09702,-0.47517 -1.81879,-1.58117 -1.81879,-2.787 0,-1.69526 1.25275,-2.92502 2.97972,-2.92502 3.09494,0 4.05213,4.19006 1.27349,5.5747 -0.81755,0.40741 -1.69642,0.45699 -2.43442,0.13732 z"
           id="path3809"
           inkscape:connector-curvature="0" />
        <path
           style="fill:#0093d0;fill-opacity:1;fill-rule:nonzero;stroke:#0093d0;stroke-width:0.238125;stroke-linejoin:miter;stroke-miterlimit:4;stroke-dasharray:none;stroke-opacity:1"
           d="m -221.14841,171.5729 c -1.24502,-0.22488 -2.34507,-1.07269 -2.88397,-2.22269 -0.21922,-0.46779 -0.29995,-0.82913 -0.30068,-1.34578 -5.2e-4,-0.52477 0.057,-0.77521 0.28538,-1.23893 0.31715,-0.64388 0.89685,-1.18298 1.64211,-1.52715 0.23592,-0.10895 12.98791,-4.52418 13.50075,-4.67448 0.50467,-0.1479 1.00607,-0.22999 1.54867,-0.25354 0.57676,-0.025 0.97934,0.0305 1.30518,0.18016 0.20533,0.0943 2.0716,1.51862 2.38774,1.82233 0.35192,0.33808 0.47856,0.73697 0.35351,1.11345 -0.0858,0.25825 -0.33234,0.57996 -0.56881,0.74219 -0.10895,0.0747 -3.13327,1.5234 -6.72071,3.21924 -8.63767,4.08317 -8.31565,3.93286 -8.65485,4.04001 -0.61552,0.19445 -1.32186,0.24858 -1.89432,0.14519 z"
           id="path3811"
           inkscape:connector-curvature="0" />
        <path
           style="fill:#0093d0;fill-opacity:1;fill-rule:nonzero;stroke:#0093d0;stroke-width:0.238125;stroke-linejoin:miter;stroke-miterlimit:4;stroke-dasharray:none;stroke-opacity:1"
           d="m -215.62786,181.42814 c -0.2496,-0.0345 -0.69187,-0.16129 -0.93869,-0.26911 -1.41176,-0.61672 -2.32244,-2.17919 -2.143,-3.67674 0.13068,-1.09056 0.73723,-2.07362 1.697,-2.75038 0.12024,-0.0848 4.48203,-2.27347 9.69284,-4.86372 5.21081,-2.59026 9.78642,-4.87096 10.16801,-5.06823 0.90233,-0.46646 1.16003,-0.55447 1.63831,-0.5595 0.3398,-0.004 0.37762,0.003 0.56041,0.10472 0.34242,0.18965 0.54484,0.54218 0.61942,1.07875 0.0207,0.14864 0.0303,0.36044 0.0215,0.47067 -0.009,0.11023 -0.0341,0.58576 -0.0562,1.05674 -0.0581,1.24118 -0.21713,1.98412 -0.5733,2.67829 -0.21635,0.42167 -0.65579,0.87316 -1.2277,1.26139 -0.65093,0.44187 -16.83046,10.01501 -17.18377,10.16732 -0.37234,0.16053 -0.85118,0.29978 -1.22503,0.35625 -0.25119,0.0379 -0.82014,0.0453 -1.04976,0.0135 v 0 z"
           id="path3813"
           inkscape:connector-curvature="0" />
      </g>
      <path
         sodipodi:nodetypes="cccssccscccccsscccccccccccccc"
         inkscape:connector-curvature="0"
         id="path3836"
         d="m 99.737858,67.434564 v -1.923936 l 0.159303,-0.135287 c 0.642479,-0.545625 1.722799,-1.381754 3.084669,-2.387427 0.87617,-0.647 1.90584,-1.42486 2.28817,-1.728577 0.90082,-0.715607 2.03399,-1.853793 2.25998,-2.269979 0.24462,-0.463269 0.41376,-1.045718 -0.004,-1.65989 -0.48666,-0.613415 -1.43825,-0.673649 -2.55904,-0.161984 -0.53796,0.245591 -1.17423,0.686612 -1.65724,1.148697 l -0.38187,0.36533 -1.37789,-1.212735 c -0.75783,-0.667005 -1.45561,-1.288571 -1.550631,-1.381258 l -0.172754,-0.168522 0.665145,-0.670599 c 2.11998,-2.137369 3.34604,-2.758147 5.62249,-2.84679 2.97351,-0.115784 5.18104,1.07394 6.25836,3.372861 0.34961,0.746061 0.42848,1.107268 0.4237,1.94047 -0.005,0.849792 -0.1346,1.428889 -0.49062,2.19031 -0.72394,1.548241 -1.74921,2.535847 -4.68979,4.517509 -0.62129,0.41868 -1.20781,0.826296 -1.30339,0.905812 l -0.17378,0.144576 3.34535,0.0021 3.34535,0.0021 v 1.940593 1.940594 h -6.54588 -6.545885 v -1.923936 z"
         style="fill:#ffffff;fill-opacity:1;stroke:none;stroke-width:0.05473527;stroke-linecap:round;stroke-miterlimit:4;stroke-dasharray:none" />
    </g>
  </g>
</svg>
