<svg xmlns="http://www.w3.org/2000/svg" width="16" height="16"><style type="text/css">.icon-canvas-transparent{opacity:0;fill:#F6F6F6;} .icon-vs-out{fill:#F6F6F6;} .icon-vs-bg{fill:#424242;} .icon-vs-fg{fill:#F0EFF1;} .icon-vs-red{fill:#E51400;} .icon-white{fill:#FFFFFF;}</style><path class="icon-canvas-transparent" d="M16 16h-16v-16h16v16z" id="canvas"/><path class="icon-vs-out" d="M16 1v13h-.762c-.809 1.205-2.182 2-3.738 2-1.557 0-2.93-.795-3.738-2h-1.48l.5 2h-3.003l-.279-.838-.279.838h-3.001l.78-3.125v-1.24c-.317-.483-.5-1.047-.5-1.635 0-.438.099-.85.268-1.225.067-.149.143-.293.232-.427v-7.348h15z" id="outline"/><path class="icon-vs-bg" d="M5.5 10c0-1.104-.896-2-2-2s-2 .896-2 2c0 .672.335 1.264.843 1.627l-.843 3.373h1l1-3 1 3h1l-.843-3.373c.508-.363.843-.955.843-1.627zm-2 1c-.552 0-1-.447-1-1 0-.553.448-1 1-1s1 .447 1 1c0 .553-.448 1-1 1zm2.5-8h-1v1h-1v-1h-1v1h1v1h-1v1h1v1.051c-.164-.028-.329-.051-.5-.051-.549 0-1.057.159-1.5.417v-5.417h13v6.707c-.288-.36-.616-.687-1-.945v-.762h-1v-1h1v-1h-1v-1h1v-1h-1v1h-1v-1h-1v1h-1v-1h-1v1h-1v-1h-1v1h-1v-1zm1.276 10h-1.245l-.261-1.045c.122-.141.228-.293.32-.452l.002-.006c.092-.158.167-.324.229-.496v-.001h.679v1h.051c.038.347.112.682.225 1zm4.8-7h-7v-1h7v1zm-3.369 2h-2.707v-1h5v.051c-.863.096-1.647.432-2.293.949z" id="iconBg"/><path class="icon-vs-fg" d="M4.5 10c0 .553-.448 1-1 1s-1-.447-1-1c0-.553.448-1 1-1s1 .447 1 1zm9.5-7h-1v1h1v-1zm-7 8.5v-.5h-1c.002-.318.339-.655.339-1 0-1.483-.923-2.71-2.339-2.949v-1.051h-1v-1h1v-1h1v-1h1v1h1v-1h1v1h1v-1h1v1h1v-1h1v1h1v1h1v1h-1v1h1v.762c-.716-.48-1.575-.762-2.5-.762-.171 0-.334.032-.5.051v-.051h-5v1h2.707c-1.032.825-1.707 2.079-1.707 3.5zm5-5.5v-1h-7v1h7zm-8-3h-1v1h1v-1z" id="iconFg"/><path class="icon-vs-red" d="M11.5 8c-1.933 0-3.5 1.567-3.5 3.5s1.567 3.5 3.5 3.5 3.5-1.567 3.5-3.5-1.567-3.5-3.5-3.5zm1.854 4.646l-.707.707-1.147-1.146-1.146 1.147-.707-.707 1.147-1.146-1.147-1.146.707-.707 1.146 1.147 1.146-1.147.707.707-1.146 1.145 1.147 1.146z" id="notificationBg"/><path class="icon-white" d="M12.207 11.5l1.147 1.146-.707.707-1.147-1.146-1.146 1.147-.707-.707 1.147-1.146-1.147-1.146.707-.707 1.146 1.147 1.146-1.147.707.707-1.146 1.145z" id="notificationFg"/></svg>