<svg xmlns="http://www.w3.org/2000/svg" width="16" height="16"><style type="text/css">.icon-canvas-transparent{opacity:0;fill:#F6F6F6;} .icon-vs-out{fill:#F6F6F6;} .icon-vs-bg{fill:#424242;} .icon-vs-fg{fill:#F0EFF1;} .icon-vs-yellow{fill:#FFCC00;}</style><path class="icon-canvas-transparent" d="M16 16h-16v-16h16v16z" id="canvas"/><path class="icon-vs-out" d="M16 14h-.029l-.969 2h-6.998l-1.034-1.975.012-.025h-.701l.5 2h-3.002l-.279-.838-.279.838h-3.001l.78-3.125v-1.24c-.317-.483-.5-1.047-.5-1.635 0-.438.099-.85.268-1.225.067-.149.143-.293.232-.427v-7.348h15v13z" id="outline"/><path class="icon-vs-bg" d="M5.5 10c0-1.104-.896-2-2-2s-2 .896-2 2c0 .672.335 1.264.843 1.627l-.843 3.373h1l1-3 1 3h1l-.843-3.373c.508-.363.843-.955.843-1.627zm-2 1c-.552 0-1-.447-1-1 0-.553.448-1 1-1s1 .447 1 1c0 .553-.448 1-1 1zm2.5-8h-1v1h-1v-1h-1v1h1v1h-1v1h1v1.051c-.164-.028-.329-.051-.5-.051-.549 0-1.057.159-1.5.417v-5.417h13v10.034l-1.009-2.034h.009v-1h-.505l-.495-.998v-.002h1v-1h-1v-1h1v-1h-1v-1h1v-1h-1v1h-1v-1h-1v1h-1v-1h-1v1h-1v-1h-1v1h-1v-1zm2 8h.49l-.49.976v-.976zm-.515 2h-1.454l-.261-1.045c.122-.141.228-.293.32-.452l.002-.006c.092-.158.167-.324.229-.496v-.001h.679v1h.988l-.503 1zm4.515-7h-7v-1h7v1zm-2.002 2h-3.998v-1h5v.016h-.507l-.495.984z" id="iconBg"/><path class="icon-vs-fg" d="M14 4h-1v-1h1v1zm-10-1h-1v1h1v-1zm-.5 6c-.552 0-1 .447-1 1 0 .553.448 1 1 1s1-.447 1-1c0-.553-.448-1-1-1zm10.5 0h-.505l.496 1h.009v-1zm-7 2h-1c.002-.318.339-.655.339-1 0-1.483-.923-2.71-2.339-2.949v-1.051h-1v-1h1v-1h1v-1h1v1h1v-1h1v1h1v-1h1v1h1v-1h1v1h1v1h1v1h-1v1h1v1h-1v.002l-.489-.986h-1.511v-.016h-5v1h3.998l-1.508 3h-.49v.976l-.012.024h-.988v-1zm5-5v-1h-7v1h7z" id="iconFg"/><path class="icon-vs-yellow" d="M11.891 8.016h-.781l-3.016 6 .515.984h5.766l.484-1-2.968-5.984zm.109 5.984h-1v-1h1v1zm0-2h-1v-2h1v2z" id="notificationBg"/><path class="icon-black" d="M12 12h-1v-2h1v2zm0 1h-1v1h1v-1z" id="notificationFg"/></svg>