<?xml version="1.0" encoding="UTF-8" standalone="no"?>
<svg
   xmlns:dc="http://purl.org/dc/elements/1.1/"
   xmlns:cc="http://creativecommons.org/ns#"
   xmlns:rdf="http://www.w3.org/1999/02/22-rdf-syntax-ns#"
   xmlns:svg="http://www.w3.org/2000/svg"
   xmlns="http://www.w3.org/2000/svg"
   xmlns:sodipodi="http://sodipodi.sourceforge.net/DTD/sodipodi-0.dtd"
   xmlns:inkscape="http://www.inkscape.org/namespaces/inkscape"
   viewBox="0 0 16 16"
   version="1.1"
   id="svg19"
   sodipodi:docname="MaintenanceTool_Gui_Blue.svg"
   inkscape:version="0.92.4 (5da689c313, 2019-01-14)">
  <metadata
     id="metadata25">
    <rdf:RDF>
      <cc:Work
         rdf:about="">
        <dc:format>image/svg+xml</dc:format>
        <dc:type
           rdf:resource="http://purl.org/dc/dcmitype/StillImage" />
        <dc:title></dc:title>
      </cc:Work>
    </rdf:RDF>
  </metadata>
  <defs
     id="defs23" />
  <sodipodi:namedview
     pagecolor="#ffffff"
     bordercolor="#666666"
     borderopacity="1"
     objecttolerance="10"
     gridtolerance="10"
     guidetolerance="10"
     inkscape:pageopacity="0"
     inkscape:pageshadow="2"
     inkscape:window-width="1920"
     inkscape:window-height="1017"
     id="namedview21"
     showgrid="false"
     inkscape:zoom="14.75"
     inkscape:cx="7.1525424"
     inkscape:cy="8"
     inkscape:window-x="-8"
     inkscape:window-y="-8"
     inkscape:window-maximized="1"
     inkscape:current-layer="svg19" />
  <style
     id="style2">.st0{opacity:0}.st0,.st1{fill:#f6f6f6}.st2{fill:#424242}.st3,.st4{fill:#f0eff1}.st4{stroke:#424242;stroke-width:.15;stroke-miterlimit:10}</style>
  <path
     style="opacity:0;fill:#f6f6f6"
     inkscape:connector-curvature="0"
     id="path4"
     d="M 0,0 H 16 V 16 H 0 Z"
     class="st0" />
  <path
     style="fill:#f6f6f6"
     inkscape:connector-curvature="0"
     id="path6"
     d="M 16,1 H 0 v 14 h 2.666 l 1.588,1 H 6.183 L 7.546,15 H 16 Z"
     class="st1" />
  <path
     style="fill:#424242"
     inkscape:connector-curvature="0"
     id="path9"
     d="M 1,2 V 7.435 L 2,6.93 V 5 h 12 v 8 H 9.755 v 0.381 L 8.911,14 H 15 V 2 Z"
     class="st2" />
  <path
     style="fill:#00569c;fill-opacity:0.99494952"
     inkscape:connector-curvature="0"
     id="path11"
     d="M 8.755,12.874 V 8.471 L 5.041,6.512 1.167,8.471 v 4.403 l 4.081,2.57 z M 4.995,7.188 8.065,8.702 5.201,10.42 2.106,8.654 Z m -0.024,7.373 v 0.016 L 4.961,14.569 4.953,14.577 V 14.561 L 1.786,12.497 V 9.178 l 3.209,1.793 v 3.573 z M 8.19,12.599 5.614,14.455 V 10.992 L 8.19,9.426 Z"
     class="st2" />
  <path
     style="fill:#f0eff1"
     inkscape:connector-curvature="0"
     id="path14"
     d="M 2,5 V 6.93 L 5.051,5.387 9.755,7.868 V 13 H 14 V 5 Z"
     class="st3" />
  <path
     style="fill:#00569c;stroke:#00569c;stroke-width:0.15000001;stroke-miterlimit:10;stroke-opacity:1;fill-opacity:0.1254902"
     inkscape:connector-curvature="0"
     id="path16"
     d="M 4.995,7.188 8.065,8.701 5.201,10.42 2.106,8.654 Z m -0.024,7.373 v 0.016 L 4.961,14.569 4.953,14.577 V 14.561 L 1.786,12.497 V 9.178 l 3.209,1.793 v 3.573 z M 8.19,12.599 5.614,14.455 V 10.992 L 8.19,9.426 Z"
     class="st4" />
</svg>
