<svg xmlns="http://www.w3.org/2000/svg" width="16" height="16"><style type="text/css">.icon-canvas-transparent{opacity:0;fill:#F6F6F6;} .icon-vs-out{fill:#F6F6F6;} .icon-vs-bg{fill:#424242;} .icon-vs-fg{fill:#F0EFF1;} .icon-vs-green{fill:#339933;} .icon-white{fill:#FFFFFF;}</style><path class="icon-canvas-transparent" d="M16 16h-16v-16h16v16z" id="canvas"/><path class="icon-vs-out" d="M16 1v14h-1.706c-.77.616-1.733 1-2.794 1s-2.024-.384-2.794-1h-8.706v-14h16z" id="outline"/><path class="icon-vs-bg" d="M7.276 13h-5.276v-8h12v2.762c.384.258.712.584 1 .945v-6.707h-14v12h6.762c-.206-.307-.36-.647-.486-1z" id="iconBg"/><path class="icon-vs-fg" d="M7 11.5c0-2.481 2.019-4.5 4.5-4.5.925 0 1.784.282 2.5.762v-2.762h-12v8h5.276c-.168-.471-.276-.971-.276-1.5z" id="iconFg"/><path class="icon-vs-green" d="M8 11.5c0 1.934 1.566 3.5 3.5 3.5s3.5-1.566 3.5-3.5-1.566-3.5-3.5-3.5-3.5 1.566-3.5 3.5zm4 1l1.5-1.5v1.5l-1.5 1.5h-1l-1.5-1.5v-1.5l1.5 1.5v-3.5h1v3.5z" id="notificationBg"/><path class="icon-white" d="M12 9v3.5l1.5-1.5v1.5l-1.5 1.5h-1l-1.5-1.5v-1.5l1.5 1.5v-3.5h1z" id="notificationFg"/></svg>