<svg xmlns="http://www.w3.org/2000/svg" viewBox="0 0 16 16" enable-background="new 0 0 16 16"><style type="text/css">.icon-canvas-transparent{opacity:0;fill:#F6F6F6;} .icon-vs-out{fill:#F6F6F6;} .icon-vs-bg{fill:#424242;} .icon-vs-fg{fill:#F0EFF1;}</style><path class="icon-canvas-transparent" d="M16 16h-16v-16h16v16z" id="canvas"/><path class="icon-vs-out" d="M0 15v-14h16v14h-16z" id="outline"/><path class="icon-vs-fg" d="M2 13h12v-8h-12v8zm8.933-7l2.086 5h-.924l-2.087-5h.925zm-2.933 1h1v1h-1v-1zm0 2h1v1h-1v-1zm-2.283-3.021c.688 0 1.063.169 1.161.221l.073.038-.203.686-.106-.051c-.245-.12-.566-.185-.904-.185-1.084 0-1.732.687-1.732 1.836 0 1.119.637 1.788 1.705 1.788.349 0 .711-.071.945-.186l.11-.054.177.679-.073.037c-.226.112-.682.232-1.285.232-1.47 0-2.42-.972-2.42-2.476 0-1.51 1.049-2.565 2.552-2.565zm8.283-2.979v1h-12v-1h12z" id="iconFg"/><path class="icon-vs-bg" d="M1 2v12h14v-12h-14zm13 11h-12v-8h12v8zm0-9h-12v-1h12v1zm-1.905 7l-2.087-5h.925l2.086 5h-.924zm-8.93-2.455c0-1.511 1.05-2.566 2.552-2.566.688 0 1.063.169 1.161.221l.073.038-.203.686-.106-.051c-.245-.12-.566-.185-.904-.185-1.084 0-1.732.687-1.732 1.836 0 1.119.637 1.788 1.705 1.788.349 0 .711-.071.945-.186l.11-.054.177.679-.073.037c-.226.112-.682.232-1.285.232-1.47.001-2.42-.971-2.42-2.475zm5.835-.545h-1v-1h1v1zm0 2h-1v-1h1v1z" id="iconBg"/></svg>