<svg xmlns="http://www.w3.org/2000/svg" viewBox="0 0 16 16"><style>.st0{opacity:0}.st0,.st1{fill:#f6f6f6}.st2{fill:#424242}.st3,.st4{fill:#f0eff1}.st4{stroke:#424242;stroke-width:.15;stroke-miterlimit:10}</style><g id="outline"><path class="st0" d="M0 0h16v16H0z"/><path class="st1" d="M16 1H0v14h2.666l1.588 1h1.929l1.363-1H16z"/></g><g id="icon_x5F_bg"><path class="st2" d="M1 2v5.435l1-.505V5h12v8H9.755v.381L8.911 14H15V2z"/><path class="st2" d="M8.755 12.874V8.471L5.041 6.512 1.167 8.471v4.403l4.081 2.57 3.507-2.57zm-3.76-5.686l3.07 1.514-2.864 1.718-3.095-1.766 2.889-1.466zm-.024 7.373v.016l-.01-.008-.008.008v-.016l-3.167-2.064V9.178l3.209 1.793v3.573l-.024.017zm3.219-1.962l-2.576 1.856v-3.463L8.19 9.426v3.173z"/></g><g id="icon_x5F_fg"><path class="st3" d="M2 5v1.93l3.051-1.543 4.704 2.481V13H14V5z"/><path class="st4" d="M4.995 7.188l3.07 1.513-2.864 1.719-3.095-1.766zM4.971 14.561v.016l-.01-.008-.008.008v-.016l-3.167-2.064V9.178l3.209 1.793v3.573zM8.19 12.599l-2.576 1.856v-3.463L8.19 9.426z"/></g></svg>