<svg xmlns="http://www.w3.org/2000/svg" viewBox="0 0 16 16" enable-background="new 0 0 16 16"><style type="text/css">.icon-canvas-transparent{opacity:0;fill:#F6F6F6;} .icon-vs-out{fill:#F6F6F6;} .icon-vs-bg{fill:#424242;} .icon-vs-fg{fill:#F0EFF1;}</style><path class="icon-canvas-transparent" d="M16 16h-16v-16h16v16z" id="canvas"/><path class="icon-vs-out" d="M1 1v3.556c-.616.77-1 1.733-1 2.794 0 1.035.353 2.021 1 2.82v5.83h.803l2.697-1.349 2.697 1.349h.803v-2h8v-13h-15z" id="outline"/><path class="icon-vs-bg" d="M8.945 8c.031-.214.055-.43.055-.65l-.035-.35h2.035v1h-2.055zm3.055-3h-3.68c.191.31.338.646.45 1h3.23v-1zm-10-3v1.611c.307-.206.647-.359 1-.485v-.126h.405c.352-.089.715-.15 1.095-.15s.743.061 1.095.15h.405v.126c.353.126.693.28 1 .485v-.611h1v1h1v-1h1v1h1v-1h1v1h1v-1h1v1h-1v1h1v1h-1v1h1v1h-1v1h1v1h-1v1h1v1h-1v-1h-1v1h-1v-1h-1v1h-1v-1h-1v2h7v-11h-13zm2.5 1.85c-1.93 0-3.5 1.57-3.5 3.5 0 .95.383 1.81 1 2.441v4.992l2.5-1.25 2.5 1.25v-4.992c.617-.631 1-1.491 1-2.441 0-1.93-1.57-3.5-3.5-3.5zm1.5 9.316l-1.5-.75-1.5.75v-2.667c.456.219.961.351 1.5.351s1.044-.133 1.5-.351v2.667zm-1.5-3.316c-1.379 0-2.5-1.121-2.5-2.5s1.121-2.5 2.5-2.5 2.5 1.121 2.5 2.5-1.121 2.5-2.5 2.5z" id="iconBg"/><path class="icon-vs-fg" d="M6.439 3.307c.195.088.384.186.561.304-.177-.118-.368-.212-.561-.304zm-.439-.181v-.126h-.405l.405.126zm-2.595-.126h-.405v.126l.405-.126zm10.595 9v-1h-1v1h1zm0-9h-1v1h1v-1zm-2 1v-1h-1v1h-1v-1h-1v1h-1v-1h-1v.611c.536.36.98.839 1.32 1.389h3.68v1h-3.23c.102.32.167.653.194 1h2.036v1h-2.055c.031-.214.055-.43.055-.65 0 1.035-.353 2.021-1 2.82v.83h1v1h1v-1h1v1h1v-1h1v-1h1v-1h-1v-1h1v-1h-1v-1h1v-1h-1v-1h-1zm-6 9.166l-1.5-.75-1.5.75v-2.667c.456.219.961.351 1.5.351s1.044-.133 1.5-.351v2.667zm-1.5-3.316c-1.379 0-2.5-1.121-2.5-2.5s1.121-2.5 2.5-2.5 2.5 1.121 2.5 2.5-1.121 2.5-2.5 2.5z" id="iconFg"/></svg>