<svg xmlns="http://www.w3.org/2000/svg" width="16" height="16"><style type="text/css">.icon-canvas-transparent{opacity:0;fill:#F6F6F6;} .icon-vs-out{fill:#F6F6F6;} .icon-vs-bg{fill:#424242;} .icon-vs-fg{fill:#F0EFF1;}</style><path class="icon-canvas-transparent" d="M16 16h-16v-16h16v16z" id="canvas"/><path class="icon-vs-out" d="M16 0h-12v2h-2v2h-2v12h12v-1h2v-2h2v-13z" id="outline"/><path class="icon-vs-bg" d="M11 5v10h-10v-10h10zm-1 8l-1.5-1.549-2 1.549-2.5-3.126-2 2.21v1.916h8v-1zm0-7h-8v4.084l2-2.21 2.5 3.126 2-1 1.5 1v-5zm-2 1h-2v2h2v-2zm5 7v-11h-10v1h9v10h1zm-8-13v1h9v10h1v-11h-10z" id="iconBg"/><path class="icon-vs-fg" d="M10 13v1h-8v-1.916l2-2.21 2.5 3.126 2-1.549 1.5 1.549zm-8-7h8v5l-1.5-1-2 1-2.5-3.126-2 2.21v-4.084zm4 3h2v-2h-2v2z" id="iconFg"/></svg>