<svg xmlns="http://www.w3.org/2000/svg" viewBox="0 0 16 16"><style>.st0{opacity:0}.st0,.st1{fill:#f6f6f6}.st2{fill:#424242}.st3{fill:#f0eff1}</style><g id="outline"><path class="st0" d="M0 0h16v16H0z"/><path class="st1" d="M11.023 0H4.964C4.012 0 3 .701 3 2v1.557C1.81 4.25 1 5.526 1 7c0 1.339.662 2.563 1.737 3.299L1.941 15H4l1.032-1.375L6.149 15h2.069l-.198-1h5.017c.951 0 1.963-.701 1.963-2V3.552L11.023 0z"/></g><g id="icon_x5F_bg"><path class="st2" d="M8 7a3 3 0 1 0-4.158 2.767L3.125 14H3.5L5 12l1.625 2H7l-.842-4.233A3.002 3.002 0 0 0 8 7zM5 8.499a1.5 1.5 0 1 1 0-3 1.5 1.5 0 0 1 0 3z"/><path class="st2" d="M10.641 1H4.964S4 1 4 2v1.142A3.971 3.971 0 0 1 5 3V2h5v3h3v7H7.622l.198 1H13.036S14 13 14 12V4l-3.359-3z"/></g><g id="icon_x5F_fg"><circle class="st3" cx="5" cy="6.999" r="1.5"/><path class="st3" d="M10 5V2H5v1c2.205 0 4 1.794 4 4a3.989 3.989 0 0 1-1.719 3.286L7.622 12H13V5h-3zm-.024 5L10 9.951V10h-.024z"/></g></svg>