<svg xmlns="http://www.w3.org/2000/svg" viewBox="0 0 16 16"><style>.st0{fill:#f6f6f6}.st1{fill:#424242}.st2{fill:#f0eff1}.st3{fill:#1ba1e2}.st4{fill:#fff}</style><path class="st0" d="M16 2v14H0V2h.76C1.567.794 2.94 0 4.5 0s2.933.794 3.74 2H16z" id="outline"/><path class="st1" d="M15 3v12H1V7.297a4.5 4.5 0 0 0 1 .943V14h12V6H8.725C8.892 5.529 9 5.029 9 4.5S8.892 3.471 8.725 3H15z" id="icon_x5F_bg"/><path class="st2" d="M14 6v8H2V8.24c.715.479 1.574.76 2.5.76 1.956 0 3.604-1.256 4.225-3H14z" id="icon_x5F_fg"/><path class="st3" d="M4.5 1a3.5 3.5 0 1 0 0 7 3.5 3.5 0 0 0 0-7zM5 7H4V6h1v1zm1-3c0 .551-.448 1-1 1v.5H4V5c0-.551.448-1 1-1V3c-.079-.044-.253-.102-.5-.102S4.079 2.956 4 3v1H3V3c0-.58.631-1 1.5-1S6 2.42 6 3v1z" id="not_x5F_bg"/><g id="not_x5F_fg"><path class="st4" d="M4 6h1v1H4zM4.5 2C3.631 2 3 2.42 3 3v1h1V3c.079-.044.253-.102.5-.102s.421.058.5.102v1c-.552 0-1 .449-1 1v.5h1V5c.552 0 1-.449 1-1V3c0-.58-.631-1-1.5-1z"/></g></svg>