<svg xmlns="http://www.w3.org/2000/svg" viewBox="0 0 16 16"><style>.icon-canvas-transparent{opacity:0;fill:#f6f6f6}.icon-vs-out{fill:#f6f6f6}.icon-vs-bg{fill:#424242}</style><path class="icon-canvas-transparent" d="M16 0v16H0V0h16z" id="canvas"/><path class="icon-vs-out" d="M16 10c0 2.206-1.794 4-4 4H7a4.008 4.008 0 0 1-3.896-3.089l-.417-.146A4 4 0 0 1 0 7c0-2.206 1.794-4 4-4h5a4.009 4.009 0 0 1 3.896 3.089l.417.146A4 4 0 0 1 16 10z" id="outline"/><g id="iconBg"><path class="icon-vs-bg" d="M15 10c0 1.654-1.346 3-3 3H7c-1.654 0-3-1.346-3-3s1.346-3 3-3h3c0 .551-.448 1-1 1H7c-1.103 0-2 .897-2 2s.897 2 2 2h5c1.103 0 2-.897 2-2 0-.816-.493-1.517-1.195-1.828.098-.318.162-.648.177-.993A2.993 2.993 0 0 1 15 10zM2 7c0-1.103.897-2 2-2h5c1.103 0 2 .897 2 2s-.897 2-2 2H7c-.551 0-1 .449-1 1h3c1.654 0 3-1.346 3-3s-1.346-3-3-3H4C2.346 4 1 5.346 1 7c0 1.309.847 2.412 2.018 2.821.016-.345.079-.676.177-.993A2.001 2.001 0 0 1 2 7z"/></g></svg>