<svg id="Icons" xmlns="http://www.w3.org/2000/svg" viewBox="0 0 64 64"><defs><style>.cls-1{fill:#004880}</style></defs><path class="cls-1" d="M48.86 64H28.14A15.24 15.24 0 0113 48.7V28.3A15.24 15.24 0 0128.14 13h20.72A15.24 15.24 0 0164 28.3v20.4A15.24 15.24 0 0148.86 64z"/><path d="M57.9 47.83a10.72 10.72 0 11-10.72-10.76A10.77 10.77 0 0157.9 47.83zM25.95 20.65a6.72 6.72 0 11-6.76 6.71 6.73 6.73 0 016.76-6.71z" fill="#fff"/><path class="cls-1" d="M0 6.5A5.5 5.5 0 105.5 1 5.5 5.5 0 000 6.5"/></svg>