<svg xmlns="http://www.w3.org/2000/svg" width="16" height="16"><style type="text/css">.icon-canvas-transparent{opacity:0;fill:#F6F6F6;} .icon-vs-out{fill:#F6F6F6;} .icon-vs-bg{fill:#424242;} .icon-vs-fg{fill:#F0EFF1;}</style><path class="icon-canvas-transparent" d="M16 16h-16v-16h16v16z" id="canvas"/><path class="icon-vs-out" d="M16 3.556v8.444c0 .97-.701 2-2 2h-2c0 .97-.701 2-2 2h-8c-.97 0-2-.701-2-2v-10c0-1.299 1.03-2 2-2h2c0-1.299 1.03-2 2-2h6.061l3.939 3.556z" id="outline"/><path class="icon-vs-bg" d="M15 4v8s-.035 1-1.035 1h-2.049v-1h2.084v-7h-2.699l-.301-.271v-2.729h-6c0-1 .964-1 .964-1h5.677l3.359 3zm-4 2v8s-.035 1-1.035 1h-8s-.965 0-.965-1v-10c0-1 .964-1 .964-1h5.677l3.359 3zm-1 1h-3v-3h-5v10h8v-7zm-5-1h-2v1h2v-1zm2 2h-3v1h3v-1zm2 0h-1v1h1v-1zm-1 2h-4v1h4v-1zm-1 2h-4v1h4v-1z" id="iconBg"/><path class="icon-vs-fg" d="M14 5v7h-2v-6.444l-.615-.556h2.615zm-3-3h-2.939l2.939 2.653v-2.653zm-1 5v7h-8v-10h5v3h3zm-7 0h2v-1h-2v1zm1 1v1h3v-1h-3zm3 4h-4v1h4v-1zm1-2h-4v1h4v-1zm1-2h-1v1h1v-1z" id="iconFg"/></svg>