<svg xmlns="http://www.w3.org/2000/svg" viewBox="0 0 16 16"><style>.st0{opacity:0}.st0,.st1{fill:#f6f6f6}.st2{fill:#424242}.st3{fill:#f0eff1}</style><g id="outline"><path class="st0" d="M0 0h16v16H0z"/><path class="st1" d="M9.762 0a6.239 6.239 0 0 0-6.239 6.239c0 .274.024.542.058.807A2.002 2.002 0 0 0 2 9v2H1v2a2 2 0 0 0 2 2h3a2 2 0 0 0 2-2v-.779a6.21 6.21 0 0 0 1.762.257c3.445 0 6.238-2.793 6.238-6.239S13.207 0 9.762 0z"/></g><g id="icon_x5F_bg"><path class="st2" d="M7 8H4a1 1 0 0 0-1 1v2.5h1V9h2v3.5a.5.5 0 0 1-1 0V12H2v1a1 1 0 0 0 1 1h3a1 1 0 0 0 1-1v-3h1V9a1 1 0 0 0-1-1z"/><path class="st2" d="M14.991 6.078a5.246 5.246 0 1 0-10.469.63c.009.099.024.195.039.292H7c.051 0 .099.011.148.015a15.321 15.321 0 0 1-1.695-.457 3.794 3.794 0 0 1-.015-.303c0-.614.131-1.197.361-1.727.514.152 1.087.296 1.725.405a9.79 9.79 0 0 0-.057.943 9.54 9.54 0 0 0 .072 1.207c.536.151.977.516 1.229 1.001.319.026.641.052.978.055.101.002.201.002.302.002.261 0 .524-.008.79-.021-.229.744-.568 1.559-1.014 2.445-.025 0-.049.004-.074.004-.127 0-.254-.008-.378-.02A14.103 14.103 0 0 1 9 9.613V11H8v.194c.287.102.582.185.89.235l.015.002c.131.022.262.039.396.051a4.772 4.772 0 0 0 .964-.001A5.252 5.252 0 0 0 15 6.255c0-.06-.008-.118-.009-.177zm-1.68-2.253c-.515.177-1 .3-1.463.372a8.766 8.766 0 0 0-.688-2.013 4.307 4.307 0 0 1 2.151 1.641zm-4.11-1.843c.18-.023.362-.039.549-.039.124 0 .245.008.366.019.351.608.708 1.384.915 2.33-.428.029-.85.033-1.277.029a12.703 12.703 0 0 1-1.304-.083 9.12 9.12 0 0 1 .751-2.256zM7.639 4.121a14.216 14.216 0 0 1-1.427-.328 4.32 4.32 0 0 1 1.976-1.554 9.847 9.847 0 0 0-.549 1.882zm2.115 3.2a12.92 12.92 0 0 1-1.378-.092 9.257 9.257 0 0 1-.093-1.345c.004-.29.023-.566.051-.836a13.551 13.551 0 0 0 1.714.092c.366 0 .737-.012 1.116-.04.028.254.049.513.053.785.004.433-.052.902-.157 1.402a16.77 16.77 0 0 1-1.306.034zm1.034 3.117c.409-.861.725-1.662.929-2.396a9.49 9.49 0 0 0 2.164-.55 4.322 4.322 0 0 1-3.093 2.946zm3.261-3.902a8.806 8.806 0 0 1-2.136.647 6.907 6.907 0 0 0 .063-2.174 9.373 9.373 0 0 0 1.737-.453 4.29 4.29 0 0 1 .349 1.699c.001.095-.007.188-.013.281z"/></g><g id="icon_x5F_fg"><path class="st3" d="M11.977 5.009a9.373 9.373 0 0 0 1.737-.453 4.29 4.29 0 0 1 .349 1.699c0 .095-.008.188-.014.28a8.806 8.806 0 0 1-2.136.647 6.907 6.907 0 0 0 .064-2.173zM13.311 3.825c-.515.177-1 .3-1.463.372a8.766 8.766 0 0 0-.688-2.013 4.307 4.307 0 0 1 2.151 1.641zM9.754 7.321a12.92 12.92 0 0 1-1.378-.092 9.257 9.257 0 0 1-.093-1.345c.004-.29.023-.566.051-.836a13.551 13.551 0 0 0 1.714.092c.366 0 .737-.012 1.116-.04.028.254.049.513.053.785.004.433-.052.902-.157 1.402a16.77 16.77 0 0 1-1.306.034zM9.75 1.943c.124 0 .245.008.366.019.351.608.708 1.384.915 2.33-.428.029-.85.033-1.277.029a12.703 12.703 0 0 1-1.304-.083 9.12 9.12 0 0 1 .751-2.256c.18-.023.362-.039.549-.039zM8.188 2.239a9.847 9.847 0 0 0-.549 1.882 14.216 14.216 0 0 1-1.427-.328 4.32 4.32 0 0 1 1.976-1.554zM5.438 6.255c0-.614.131-1.197.361-1.727.514.152 1.087.296 1.725.405a9.79 9.79 0 0 0-.057.943 9.68 9.68 0 0 0 .073 1.227 14.585 14.585 0 0 1-2.087-.545 3.794 3.794 0 0 1-.015-.303zM10.788 10.438c.409-.861.725-1.662.929-2.396a9.49 9.49 0 0 0 2.164-.55 4.322 4.322 0 0 1-3.093 2.946zM4 9v3h1v.5a.5.5 0 0 0 1 0V9H4zM10.048 8.141c-.101 0-.201 0-.302-.002a13.343 13.343 0 0 1-.978-.055C8.911 8.359 9 8.668 9 9v.613c.115.311.23.622.372.936.124.012.251.02.378.02.025 0 .049-.004.074-.004.445-.887.785-1.701 1.014-2.445-.266.013-.529.021-.79.021z"/></g></svg>