<svg xmlns="http://www.w3.org/2000/svg" width="16" height="16"><style type="text/css">.icon-canvas-transparent{opacity:0;fill:#F6F6F6;} .icon-vs-out{fill:#F6F6F6;} .icon-vs-bg{fill:#424242;} .icon-vs-fg{fill:#F0EFF1;}</style><path class="icon-canvas-transparent" d="M16 16h-16v-16h16v16z" id="canvas"/><path class="icon-vs-out" d="M16 3.556v8.444c0 .97-.701 2-2 2h-4.988v1.988h-9v-9h3.988v-4.988c0-1.299 1.03-2 2-2h6.061l3.939 3.556z" id="outline"/><path class="icon-vs-bg" d="M15 4v8s-.035 1-1.035 1h-4.953v-1h4.988v-7h-3v-3h-5v4.988h-1v-4.988c0-1 .964-1 .964-1h5.677l3.359 3zm-7 4v7h-7v-7h7zm-.961.993h-5.061v5.061h5.061v-5.061zm-3.039 1.007l-1 1h1.293l-1.283 1.283.707.707 1.283-1.283v1.293l1-1v-2h-2z" id="iconBg"/><path class="icon-vs-fg" d="M14 5v7h-4.988v-5.012h-3.012v-4.988h5v3h3zm-7 4v5h-5v-5h5zm-1 1h-2l-1 1h1.293l-1.283 1.283.707.707 1.283-1.283v1.293l1-1v-2z" id="iconFg"/></svg>