<svg xmlns="http://www.w3.org/2000/svg" viewBox="0 0 16 16"><style>.st0{opacity:0}.st0,.st1{fill:#f6f6f6}.st2{fill:#424242}.st3{fill:#f0eff1}</style><g id="outline"><path class="st0" d="M0 0h16v16H0z"/><path class="st1" d="M13.547 0H8c-.969 0-2 .701-2 2v1H5c-.969 0-2 .701-2 2v2H0v9h9v-1h2c1.299 0 2-1.03 2-2v-1h1c1.299 0 2-1.03 2-2V2.062L13.547 0z"/></g><g id="icon_x5F_bg"><path class="st2" d="M12.625 1h-4.66S7 1 7 2v1h1V2h4v2h2v6h-1v1h.965c1 0 1.035-1 1.035-1V3.136L12.625 1z"/><path class="st2" d="M9.625 4h-4.66S4 4 4 5v2h1V5h4v2h2v6H9v1h1.965c1 0 1.035-1 1.035-1V6.136L9.625 4z"/><path class="st2" d="M1 8v7h7V8H1zm6 6H2V9h5v5z"/><path class="st2" d="M4.293 11l-1.535 1.535.707.707L5 11.707V13h1v-3H3v1z"/></g><g id="icon_x5F_fg"><path class="st3" d="M2 9v5h5V9H2zm4 4H5v-1.293l-1.535 1.535-.707-.707L4.293 11H3v-1h3v3zM12 3.96V2H8v1h2.547L13 5.062V10h1V3.996z"/><path class="st3" d="M9 6.96V5H5v2h4v6h2V6.996z"/></g></svg>