<?xml version="1.0" encoding="UTF-8" ?>
<!DOCTYPE svg PUBLIC "-//W3C//DTD SVG 1.1//EN" "http://www.w3.org/Graphics/SVG/1.1/DTD/svg11.dtd">
<svg width="526pt" height="480pt" viewBox="0 0 526 480" version="1.1" xmlns="http://www.w3.org/2000/svg">
<g id="#000000ff">
<path fill="#000000" opacity="1.00" d=" M 0.00 0.00 L 526.00 0.00 L 526.00 48.89 C 350.67 48.90 175.33 48.89 0.00 48.89 L 0.00 0.00 Z" />
<path fill="#000000" opacity="1.00" d=" M 389.17 98.10 C 393.00 97.83 396.83 97.37 400.62 96.72 C 405.74 96.49 410.90 96.49 416.02 96.73 C 419.77 97.38 423.55 97.82 427.34 98.14 L 427.39 98.14 C 430.32 98.91 433.28 99.60 436.25 100.22 L 436.32 100.24 C 439.09 101.29 441.89 102.27 444.74 103.09 C 465.95 111.37 483.60 128.43 492.84 149.21 C 493.74 151.71 494.73 154.18 495.79 156.62 C 496.65 158.78 497.37 161.01 497.80 163.29 C 498.30 167.13 499.07 170.93 500.00 174.68 C 500.00 175.07 499.98 175.83 499.98 176.21 C 499.76 177.81 500.00 179.42 500.41 180.97 C 500.93 183.96 500.69 187.01 500.73 190.03 C 500.72 220.37 500.73 250.71 500.73 281.04 C 500.56 287.36 501.11 293.72 500.41 300.00 C 500.01 301.57 499.79 303.17 499.94 304.79 C 499.93 305.18 499.91 305.95 499.91 306.33 C 499.05 309.97 498.32 313.64 497.79 317.35 L 497.78 317.40 C 496.59 320.43 495.56 323.53 494.79 326.70 C 491.82 334.91 487.52 342.75 481.89 349.44 C 479.98 351.37 478.19 353.42 476.63 355.64 C 470.47 362.58 462.95 368.37 454.84 372.87 C 452.00 374.17 449.19 375.55 446.42 377.00 C 444.87 377.74 443.27 378.37 441.62 378.84 C 432.76 381.53 423.65 383.00 414.46 384.03 C 410.19 384.29 405.89 384.31 401.63 384.01 C 396.53 383.15 391.40 382.51 386.25 382.07 L 385.59 381.91 C 382.90 381.10 380.19 380.38 377.46 379.76 C 366.37 376.28 355.86 370.53 347.20 362.75 C 346.29 361.63 345.23 360.65 344.01 359.88 C 343.35 359.43 342.77 358.91 342.25 358.33 C 340.37 355.88 338.28 353.61 336.05 351.50 C 330.78 345.27 326.26 338.28 323.23 330.69 C 322.41 327.84 321.36 325.07 320.09 322.39 C 318.58 318.66 317.74 314.68 317.13 310.72 C 316.87 306.80 316.41 302.89 315.74 299.01 C 315.43 266.01 315.70 232.99 315.61 199.98 C 315.70 193.94 315.42 187.89 315.74 181.86 C 316.36 178.14 316.83 174.40 317.13 170.64 C 317.16 170.43 317.21 170.01 317.24 169.81 C 318.15 165.95 319.19 162.13 320.03 158.26 C 320.55 156.34 321.22 154.45 322.05 152.64 C 324.11 148.49 326.18 144.35 328.21 140.19 C 330.32 136.35 333.12 132.96 335.68 129.43 L 336.41 129.15 C 338.43 128.75 339.68 127.07 340.14 125.15 C 340.60 123.44 342.11 122.39 343.42 121.35 C 345.63 119.81 347.63 117.98 349.52 116.06 C 352.47 113.44 355.74 111.18 359.16 109.23 C 363.30 107.26 367.38 105.19 371.48 103.13 L 371.63 103.07 C 377.31 101.25 383.04 99.61 388.82 98.17 C 388.91 98.15 389.08 98.12 389.17 98.10 M 391.99 149.11 C 383.86 152.70 377.01 159.31 373.11 167.29 C 370.07 172.07 368.65 177.88 368.97 183.52 C 368.63 188.66 368.94 193.82 368.84 198.97 C 368.92 231.80 368.67 264.65 368.96 297.47 C 368.62 303.04 369.99 308.87 373.14 313.52 C 374.15 315.69 375.39 317.79 376.97 319.60 C 378.66 322.74 381.26 325.32 384.39 327.04 C 388.39 330.27 393.20 332.54 398.18 333.80 C 400.76 335.60 404.07 335.21 407.04 335.42 C 411.72 335.36 416.82 335.58 420.94 332.99 C 429.03 330.31 436.14 324.75 440.84 317.66 C 443.60 314.59 445.51 310.68 445.91 306.56 L 445.92 306.53 C 447.20 304.00 447.74 301.18 447.33 298.37 C 447.69 272.60 447.38 246.81 447.48 221.03 C 447.33 207.96 447.79 194.87 447.25 181.82 L 447.46 182.77 C 447.60 179.82 447.41 176.77 445.89 174.16 C 444.47 168.60 441.64 163.30 437.70 159.12 C 438.85 157.10 435.90 154.11 433.90 155.33 C 429.70 151.35 424.36 148.58 418.80 147.09 C 415.18 145.20 411.00 145.31 407.04 145.28 C 401.89 145.53 396.37 146.20 391.99 149.11 Z" />
<path fill="#000000" opacity="1.00" d=" M 95.08 164.00 C 110.43 163.87 125.78 163.88 141.12 164.00 C 139.07 175.98 137.66 188.06 135.81 200.07 C 135.30 203.03 135.02 206.03 134.90 209.04 C 119.55 209.10 104.21 209.12 88.86 209.02 C 90.97 196.79 92.43 184.45 94.30 172.17 C 94.76 169.47 94.98 166.73 95.08 164.00 Z" />
<path fill="#000000" opacity="1.00" d=" M 194.71 169.94 C 195.03 167.68 194.47 163.43 198.01 163.95 C 212.39 163.91 226.79 163.88 241.18 163.98 C 239.02 178.99 236.66 193.98 234.84 209.03 C 219.56 209.12 204.28 209.07 189.00 209.05 C 191.19 196.06 192.85 182.98 194.71 169.94 Z" />
<path fill="#000000" opacity="1.00" d=" M 80.20 269.96 C 95.38 269.86 110.57 269.96 125.76 269.92 C 124.48 277.63 123.58 285.40 122.36 293.12 C 120.93 300.39 120.76 307.86 118.83 315.04 C 103.85 315.10 88.87 315.10 73.89 315.04 C 75.25 299.94 78.19 285.00 80.20 269.96 Z" />
<path fill="#000000" opacity="1.00" d=" M 180.16 269.95 C 195.43 269.92 210.70 269.88 225.97 269.97 C 223.21 284.92 222.22 300.19 218.93 315.03 C 203.88 315.12 188.84 315.09 173.79 315.04 C 175.70 299.97 178.33 285.01 180.16 269.95 Z" />
<path fill="#000000" opacity="1.00" d=" M 0.00 431.11 C 175.33 431.06 350.66 431.13 526.00 431.10 L 526.00 480.00 L 0.00 480.00 L 0.00 431.11 Z" />
</g>
<g id="#000000bc">
<path fill="#000000" opacity="0.74" d=" M 201.67 116.09 C 203.45 105.12 213.88 96.18 225.05 96.39 C 235.40 96.46 245.05 104.21 247.55 114.23 C 249.04 119.23 247.93 124.45 247.13 129.47 C 245.58 140.77 243.71 152.02 242.27 163.33 C 249.83 163.33 257.40 163.33 264.97 163.32 C 277.60 162.70 289.15 174.39 288.57 186.99 C 288.76 199.11 278.03 209.81 266.02 210.18 C 255.83 210.29 245.63 210.17 235.43 210.22 C 232.80 229.93 229.38 249.55 227.16 269.31 C 234.44 269.29 241.71 269.29 248.98 269.29 C 257.43 269.06 265.52 274.42 269.35 281.84 C 272.10 286.57 272.22 292.29 271.51 297.58 C 269.56 306.51 261.98 314.05 252.92 315.60 C 246.96 316.15 240.95 316.44 234.97 315.98 C 230.01 315.56 225.06 316.37 220.10 316.23 C 218.17 329.18 216.39 342.16 214.49 355.12 C 213.84 359.24 213.36 363.53 211.34 367.26 C 206.87 376.25 196.20 381.93 186.25 379.83 C 175.02 377.65 165.86 366.58 167.18 354.95 C 168.69 341.99 170.87 329.11 172.62 316.18 C 168.42 315.88 164.22 316.05 160.01 316.20 C 148.71 315.48 137.40 316.70 126.08 316.03 C 123.98 315.83 121.88 316.00 119.81 316.34 C 118.21 329.12 116.16 341.83 114.42 354.59 C 113.74 359.11 113.24 363.83 110.85 367.84 C 106.44 376.27 96.48 381.51 87.05 380.00 C 75.39 378.26 65.73 366.86 66.90 354.95 C 68.80 342.02 70.45 329.05 72.60 316.16 C 63.78 315.60 54.92 316.58 46.12 315.60 C 37.05 314.08 29.48 306.52 27.52 297.60 C 26.79 292.31 26.91 286.58 29.67 281.85 C 33.64 274.11 42.24 268.72 51.03 269.28 C 60.44 269.33 69.85 269.26 79.26 269.33 C 82.18 249.64 84.95 229.93 87.81 210.23 C 80.19 210.08 72.57 210.43 64.97 210.08 C 53.40 209.15 43.47 198.68 43.56 187.00 C 43.08 174.52 54.36 162.84 66.92 163.32 C 76.09 163.38 85.25 163.23 94.41 163.41 C 96.73 150.69 98.21 137.83 100.13 125.04 C 101.06 119.44 101.31 113.51 104.24 108.49 C 108.54 101.35 116.43 96.16 124.94 96.38 C 137.58 96.43 149.16 108.24 147.86 121.05 C 146.72 135.23 143.67 149.20 142.20 163.35 C 159.69 163.32 177.18 163.32 194.67 163.35 C 197.32 147.65 199.09 131.80 201.67 116.09 M 95.08 164.00 C 94.98 166.73 94.76 169.47 94.30 172.17 C 92.43 184.45 90.97 196.79 88.86 209.02 C 104.21 209.12 119.55 209.10 134.90 209.04 C 135.02 206.03 135.30 203.03 135.81 200.07 C 137.66 188.06 139.07 175.98 141.12 164.00 C 125.78 163.88 110.43 163.87 95.08 164.00 M 194.71 169.94 C 192.85 182.98 191.19 196.06 189.00 209.05 C 204.28 209.07 219.56 209.12 234.84 209.03 C 236.66 193.98 239.02 178.99 241.18 163.98 C 226.79 163.88 212.39 163.91 198.01 163.95 C 194.47 163.43 195.03 167.68 194.71 169.94 M 135.45 210.26 C 132.74 227.49 130.49 244.78 127.84 262.02 C 127.45 264.40 127.28 266.80 127.15 269.21 C 144.53 269.23 161.90 269.15 179.27 269.25 C 182.29 249.63 185.03 229.96 187.83 210.30 C 170.37 210.25 152.91 210.33 135.45 210.26 M 80.20 269.96 C 78.19 285.00 75.25 299.94 73.89 315.04 C 88.87 315.10 103.85 315.10 118.83 315.04 C 120.76 307.86 120.93 300.39 122.36 293.12 C 123.58 285.40 124.48 277.63 125.76 269.92 C 110.57 269.96 95.38 269.86 80.20 269.96 M 180.16 269.95 C 178.33 285.01 175.70 299.97 173.79 315.04 C 188.84 315.09 203.88 315.12 218.93 315.03 C 222.22 300.19 223.21 284.92 225.97 269.97 C 210.70 269.88 195.43 269.92 180.16 269.95 Z" />
</g>
<g id="#14141481">
<path fill="#141414" opacity="0.51" d=" M 389.17 98.10 C 392.72 96.48 396.79 96.46 400.62 96.72 C 396.83 97.37 393.00 97.83 389.17 98.10 Z" />
</g>
<g id="#1414147d">
<path fill="#141414" opacity="0.49" d=" M 416.02 96.73 C 419.81 96.46 423.83 96.50 427.34 98.14 C 423.55 97.82 419.77 97.38 416.02 96.73 Z" />
</g>
<g id="#1313137a">
<path fill="#131313" opacity="0.48" d=" M 371.63 103.07 C 376.82 100.13 382.87 98.48 388.82 98.17 C 383.04 99.61 377.31 101.25 371.63 103.07 Z" />
</g>
<g id="#15151574">
<path fill="#151515" opacity="0.45" d=" M 427.39 98.14 C 430.43 98.12 433.71 98.35 436.25 100.22 C 433.28 99.60 430.32 98.91 427.39 98.14 Z" />
</g>
<g id="#13131389">
<path fill="#131313" opacity="0.54" d=" M 436.32 100.24 C 439.33 100.43 442.23 101.41 444.74 103.09 C 441.89 102.27 439.09 101.29 436.32 100.24 Z" />
<path fill="#131313" opacity="0.54" d=" M 414.46 384.03 C 423.65 383.00 432.76 381.53 441.62 378.84 C 433.21 382.62 423.67 384.34 414.46 384.03 Z" />
</g>
<g id="#11111173">
<path fill="#111111" opacity="0.45" d=" M 359.16 109.23 C 362.68 106.26 366.99 104.17 371.48 103.13 C 367.38 105.19 363.30 107.26 359.16 109.23 Z" />
</g>
<g id="#0f0f0fa0">
<path fill="#0f0f0f" opacity="0.63" d=" M 343.42 121.35 C 345.02 119.15 347.02 117.22 349.52 116.06 C 347.63 117.98 345.63 119.81 343.42 121.35 Z" />
</g>
<g id="#101010bf">
<path fill="#101010" opacity="0.75" d=" M 336.41 129.15 C 336.24 127.45 338.40 124.85 340.14 125.15 C 339.68 127.07 338.43 128.75 336.41 129.15 Z" />
</g>
<g id="#11111163">
<path fill="#111111" opacity="0.39" d=" M 322.05 152.64 C 323.10 148.11 325.14 143.69 328.21 140.19 C 326.18 144.35 324.11 148.49 322.05 152.64 Z" />
</g>
<g id="#1010107e">
<path fill="#101010" opacity="0.49" d=" M 391.99 149.11 C 396.37 146.20 401.89 145.53 407.04 145.28 C 411.00 145.31 415.18 145.20 418.80 147.09 C 409.85 145.05 400.54 145.84 391.99 149.11 Z" />
</g>
<g id="#13131364">
<path fill="#131313" opacity="0.39" d=" M 492.84 149.21 C 494.65 151.28 495.50 153.92 495.79 156.62 C 494.73 154.18 493.74 151.71 492.84 149.21 Z" />
</g>
<g id="#111111c2">
<path fill="#111111" opacity="0.76" d=" M 433.90 155.33 C 435.90 154.11 438.85 157.10 437.70 159.12 C 436.36 157.92 435.09 156.65 433.90 155.33 Z" />
</g>
<g id="#1313136b">
<path fill="#131313" opacity="0.42" d=" M 317.24 169.81 C 317.11 165.82 317.99 161.71 320.03 158.26 C 319.19 162.13 318.15 165.95 317.24 169.81 Z" />
</g>
<g id="#14141480">
<path fill="#141414" opacity="0.50" d=" M 497.80 163.29 C 499.54 166.82 500.08 170.79 500.00 174.68 C 499.07 170.93 498.30 167.13 497.80 163.29 Z" />
<path fill="#141414" opacity="0.50" d=" M 317.13 310.72 C 315.58 307.04 315.41 302.94 315.74 299.01 C 316.41 302.89 316.87 306.80 317.13 310.72 Z" />
</g>
<g id="#12121266">
<path fill="#121212" opacity="0.40" d=" M 368.97 183.52 C 368.65 177.88 370.07 172.07 373.11 167.29 C 371.15 172.53 369.93 178.01 368.97 183.52 Z" />
</g>
<g id="#14141485">
<path fill="#141414" opacity="0.52" d=" M 316.44 170.59 L 317.13 170.64 C 316.83 174.40 316.36 178.14 315.74 181.86 C 315.28 178.08 315.99 174.32 316.44 170.59 Z" />
</g>
<g id="#13131379">
<path fill="#131313" opacity="0.47" d=" M 445.89 174.16 C 447.41 176.77 447.60 179.82 447.46 182.77 L 447.25 181.82 C 446.72 179.28 446.28 176.72 445.89 174.16 Z" />
</g>
<g id="#21212173">
<path fill="#212121" opacity="0.45" d=" M 499.98 176.21 C 501.94 176.39 501.68 179.94 500.41 180.97 C 500.00 179.42 499.76 177.81 499.98 176.21 Z" />
</g>
<g id="#1313137e">
<path fill="#131313" opacity="0.49" d=" M 368.96 297.47 C 369.86 302.93 371.09 308.36 373.14 313.52 C 369.99 308.87 368.62 303.04 368.96 297.47 Z" />
</g>
<g id="#13131375">
<path fill="#131313" opacity="0.46" d=" M 447.33 298.37 C 447.74 301.18 447.20 304.00 445.92 306.53 C 446.36 303.80 446.83 301.08 447.33 298.37 Z" />
</g>
<g id="#2121216d">
<path fill="#212121" opacity="0.43" d=" M 499.94 304.79 C 499.79 303.17 500.01 301.57 500.41 300.00 C 501.70 301.05 501.93 304.60 499.94 304.79 Z" />
</g>
<g id="#12121286">
<path fill="#121212" opacity="0.53" d=" M 440.84 317.66 C 442.69 314.03 444.40 310.33 445.91 306.56 C 445.51 310.68 443.60 314.59 440.84 317.66 Z" />
</g>
<g id="#15151580">
<path fill="#151515" opacity="0.50" d=" M 497.79 317.35 C 498.32 313.64 499.05 309.97 499.91 306.33 C 500.05 310.09 499.57 313.99 497.79 317.35 Z" />
</g>
<g id="#13131397">
<path fill="#131313" opacity="0.59" d=" M 494.79 326.70 C 495.56 323.53 496.59 320.43 497.78 317.40 C 497.42 320.66 496.61 323.93 494.79 326.70 Z" />
</g>
<g id="#10101066">
<path fill="#101010" opacity="0.40" d=" M 376.97 319.60 C 379.52 322.00 381.99 324.48 384.39 327.04 C 381.26 325.32 378.66 322.74 376.97 319.60 Z" />
</g>
<g id="#121212a3">
<path fill="#121212" opacity="0.64" d=" M 320.09 322.39 C 321.36 325.07 322.41 327.84 323.23 330.69 C 321.52 328.22 320.51 325.35 320.09 322.39 Z" />
</g>
<g id="#0e0e0e96">
<path fill="#0e0e0e" opacity="0.59" d=" M 398.18 333.80 C 405.73 335.47 413.51 335.01 420.94 332.99 C 416.82 335.58 411.72 335.36 407.04 335.42 C 404.07 335.21 400.76 335.60 398.18 333.80 Z" />
</g>
<g id="#0e0e0ea1">
<path fill="#0e0e0e" opacity="0.63" d=" M 476.63 355.64 C 478.19 353.42 479.98 351.37 481.89 349.44 C 480.76 351.98 478.87 354.04 476.63 355.64 Z" />
</g>
<g id="#10101087">
<path fill="#101010" opacity="0.53" d=" M 336.05 351.50 C 338.28 353.61 340.37 355.88 342.25 358.33 C 339.73 356.52 337.47 354.29 336.05 351.50 Z" />
</g>
<g id="#12121248">
<path fill="#121212" opacity="0.28" d=" M 344.01 359.88 C 345.23 360.65 346.29 361.63 347.20 362.75 C 345.65 363.84 342.94 361.52 344.01 359.88 Z" />
</g>
<g id="#10101054">
<path fill="#101010" opacity="0.33" d=" M 446.42 377.00 C 449.19 375.55 452.00 374.17 454.84 372.87 C 452.56 375.13 449.56 376.44 446.42 377.00 Z" />
</g>
<g id="#13131366">
<path fill="#131313" opacity="0.40" d=" M 377.46 379.76 C 380.19 380.38 382.90 381.10 385.59 381.91 C 382.73 381.95 379.80 381.51 377.46 379.76 Z" />
</g>
<g id="#15151593">
<path fill="#151515" opacity="0.58" d=" M 386.25 382.07 C 391.40 382.51 396.53 383.15 401.63 384.01 C 396.10 384.45 390.51 383.58 385.22 381.99 L 386.25 382.07 Z" />
</g>
</svg>
