<?xml version="1.0" encoding="utf-8"?>
<!-- Generator: Adobe Illustrator 21.1.0, SVG Export Plug-In . SVG Version: 6.00 Build 0)  -->
<svg version="1.1" id="Capa_1" xmlns="http://www.w3.org/2000/svg" xmlns:xlink="http://www.w3.org/1999/xlink" x="0px" y="0px"
	 viewBox="0 0 303.4 261" style="enable-background:new 0 0 303.4 261;" xml:space="preserve">
<style type="text/css">
	.st0{fill:#FF7328;}
</style>
<g>
	<path class="st0" d="M65.1,142.6c22-36.5,42.6-73.8,67-108.8c4.9-7,9.9-13.9,13.8-21.5c2.3-4.5,1.7-8-1.4-10.3
		c-3.1-2.3-7.1-2.2-9.8-1.9C67.5,5.5,0.6,50.4,0,115.1c0.2,23.6,13.4,52.2,24.1,59.7c8.1,5.7,15.2,4.9,23.3-4.9
		C54.3,161.5,59.5,151.9,65.1,142.6z"/>
	<path class="st0" d="M255.9,169.9c8,9.8,15.2,10.5,23.3,4.9c10.8-7.5,23.9-36.1,24.1-59.7C302.7,50.4,235.9,5.5,168.8,0.1
		c-2.7-0.3-6.7-0.3-9.8,1.9c-3.1,2.3-3.7,5.8-1.4,10.3c3.9,7.6,8.9,14.5,13.8,21.5c24.4,35,45,72.3,67,108.8
		C243.9,151.9,249,161.5,255.9,169.9z"/>
	<path class="st0" d="M164.3,114.8c-6.3-1-11.2-1-12.6-1.1l0,0c-1.4,0-6.3,0.1-12.6,1.1c-36.9,5.5-62.5,26.3-78.4,59.3
		c-8.1,16.9-4.5,28.5,10.1,40c0.9,0.7,1.7,1.3,2.6,2c2.7,1.8,5.3,3.5,7.9,5.2c38.2,25,52.2,33.8,57.9,36.4c2.3,1.1,6.5,3.1,12.2,3.2
		v0c0.1,0,0.2,0,0.3,0c0.1,0,0.2,0,0.3,0v0c5.7-0.1,9.8-2.1,12.2-3.2c5.6-2.6,19.6-11.5,57.9-36.4c2.6-1.7,5.2-3.4,7.9-5.2
		c0.9-0.7,1.7-1.3,2.6-2c14.6-11.5,18.2-23.1,10.1-40C226.8,141.1,201.2,120.3,164.3,114.8z"/>
</g>
</svg>
