<?xml version="1.0" encoding="UTF-8" standalone="no"?>
<!-- Generator: Adobe Illustrator 17.0.0, SVG Export Plug-In . SVG Version: 6.00 Build 0)  -->

<svg
   xmlns:dc="http://purl.org/dc/elements/1.1/"
   xmlns:cc="http://creativecommons.org/ns#"
   xmlns:rdf="http://www.w3.org/1999/02/22-rdf-syntax-ns#"
   xmlns:svg="http://www.w3.org/2000/svg"
   xmlns="http://www.w3.org/2000/svg"
   xmlns:sodipodi="http://sodipodi.sourceforge.net/DTD/sodipodi-0.dtd"
   xmlns:inkscape="http://www.inkscape.org/namespaces/inkscape"
   version="1.1"
   id="Capa_1"
   x="0px"
   y="0px"
   width="1000"
   height="1101.8308"
   viewBox="0 0 1000 1101.8308"
   enable-background="new 0 0 180.486 55"
   xml:space="preserve"
   inkscape:version="0.48.5 r10040"
   sodipodi:docname="antena3-television.svg"><metadata
   id="metadata3053"><rdf:RDF><cc:Work
       rdf:about=""><dc:format>image/svg+xml</dc:format><dc:type
         rdf:resource="http://purl.org/dc/dcmitype/StillImage" /></cc:Work></rdf:RDF></metadata><defs
   id="defs3051" /><sodipodi:namedview
   pagecolor="#ffffff"
   bordercolor="#666666"
   borderopacity="1"
   objecttolerance="10"
   gridtolerance="10"
   guidetolerance="10"
   inkscape:pageopacity="0"
   inkscape:pageshadow="2"
   inkscape:window-width="1045"
   inkscape:window-height="1021"
   id="namedview3049"
   showgrid="false"
   fit-margin-left="0.5"
   fit-margin-bottom="0.5"
   fit-margin-top="0.5"
   fit-margin-right="0.5"
   inkscape:zoom="0.26245388"
   inkscape:cx="946.25969"
   inkscape:cy="141.49413"
   inkscape:window-x="865"
   inkscape:window-y="-4"
   inkscape:window-maximized="0"
   inkscape:current-layer="Capa_1"><inkscape:grid
     type="xygrid"
     id="grid3066"
     empspacing="5"
     visible="true"
     enabled="true"
     snapvisiblegridlinesonly="true"
     originx="164.0492px"
     originy="740.87907px" /></sodipodi:namedview>


<g
   id="g3021"
   transform="matrix(13.732902,0,0,13.732902,-650.41209,776.12206)"
   style="fill:#ff7328;fill-opacity:1">
	<g
   id="g3023"
   style="fill:#ff7328;fill-opacity:1">
		<g
   id="g3025"
   style="fill:#ff7328;fill-opacity:1">
			<path
   d="m 60.074,23.054 -0.115,0.224 c -0.446,0.257 -1.025,0.401 -1.685,0.401 -0.694,0 -1.239,-0.16 -1.685,-0.481 -0.38,-0.289 -0.727,-0.723 -1.058,-1.284 h -4.084 l -0.612,1.574 h -3.437 l 4.577,-10.437 h 3.007 l 3.205,6.824 c 0.38,0.818 0.644,0.98 0.908,0.98 0.149,0 0.315,-0.064 0.363,-0.113 l 0.198,0.113 0.418,2.199 z m -7.8,-3.228 h 2.347 l -1.14,-3.099 -1.207,3.099 z"
   id="path3027"
   inkscape:connector-curvature="0"
   style="fill:#ff7328;fill-opacity:1" />
			<path
   d="m 69.724,18.798 v 4.689 h -3.239 v -4.463 c 0,-0.627 -0.347,-1.108 -1.074,-1.108 -0.711,0 -1.074,0.481 -1.074,1.108 v 4.463 h -3.239 v -4.961 c 0,-0.337 -0.133,-0.514 -0.363,-0.514 -0.099,0 -0.182,0.033 -0.232,0.08 l -0.198,-0.113 -0.347,-2.088 0.115,-0.224 c 0.479,-0.273 1.058,-0.401 1.586,-0.401 0.761,0 1.437,0.273 1.851,0.851 0.694,-0.514 1.603,-0.851 2.644,-0.851 2.099,0 3.57,1.364 3.57,3.532 z"
   id="path3029"
   inkscape:connector-curvature="0"
   style="fill:#ff7328;fill-opacity:1" />
			<path
   d="m 77.904,22.764 -0.083,0.224 c -0.628,0.45 -1.471,0.69 -2.313,0.69 -1.702,0 -3.421,-0.995 -3.421,-3.323 v -2.649 h -1.455 v -2.248 h 1.455 V 13.21 l 2.959,-0.353 0.248,0.144 v 2.456 h 2.347 v 2.248 h -2.348 v 2.264 c 0,0.739 0.38,1.06 0.826,1.06 0.232,0 0.496,-0.096 0.727,-0.257 l 0.198,0.113 0.86,1.879 z"
   id="path3031"
   inkscape:connector-curvature="0"
   style="fill:#ff7328;fill-opacity:1" />
			<path
   d="m 81.507,20.212 c 0.133,0.883 0.975,1.253 1.917,1.253 0.793,0 1.487,-0.257 1.984,-0.722 h 0.232 l 1.355,1.301 v 0.224 c -0.975,1.06 -2.479,1.413 -3.768,1.413 -2.561,0 -4.826,-1.413 -4.826,-4.19 0,-2.472 1.802,-4.223 4.561,-4.223 2.694,0 4.495,1.685 4.495,4.223 0,0.241 -0.016,0.481 -0.066,0.723 h -5.883 v -0.002 h -10e-4 z m -0.016,-1.445 h 2.876 c -0.016,-0.835 -0.595,-1.397 -1.439,-1.397 -0.844,0 -1.421,0.561 -1.437,1.397 z"
   id="path3033"
   inkscape:connector-curvature="0"
   style="fill:#ff7328;fill-opacity:1" />
			<path
   d="m 97.768,18.798 v 4.689 h -3.239 v -4.463 c 0,-0.627 -0.347,-1.108 -1.074,-1.108 -0.71,0 -1.074,0.481 -1.074,1.108 v 4.463 h -3.239 v -4.961 c 0,-0.337 -0.132,-0.514 -0.363,-0.514 -0.099,0 -0.182,0.033 -0.232,0.08 l -0.198,-0.113 -0.347,-2.088 0.115,-0.224 c 0.48,-0.273 1.058,-0.401 1.586,-0.401 0.761,0 1.437,0.273 1.851,0.851 0.694,-0.514 1.603,-0.851 2.644,-0.851 2.099,0 3.57,1.364 3.57,3.532 z"
   id="path3035"
   inkscape:connector-curvature="0"
   style="fill:#ff7328;fill-opacity:1" />
			<path
   d="m 108.411,23.054 -0.115,0.224 c -0.479,0.273 -1.007,0.401 -1.536,0.401 -0.761,0 -1.437,-0.273 -1.867,-0.835 -0.678,0.497 -1.586,0.835 -2.66,0.835 -1.885,0 -3.437,-1.011 -3.437,-2.633 0,-1.702 1.719,-2.521 3.752,-2.521 0.628,0 1.124,0.08 1.586,0.209 v -0.257 c 0,-0.61 -0.529,-1.075 -1.421,-1.075 -0.761,0 -1.388,0.337 -1.719,0.643 h -0.232 l -1.338,-1.284 v -0.224 c 0.86,-0.754 2.099,-1.268 3.669,-1.268 2.033,0 4.182,0.883 4.182,3.131 v 2.024 c 0,0.337 0.133,0.514 0.363,0.514 0.099,0 0.182,-0.033 0.232,-0.08 l 0.198,0.113 0.343,2.083 z m -4.281,-2.168 v -0.497 c -0.214,-0.08 -0.595,-0.193 -1.025,-0.193 -0.777,0 -1.14,0.353 -1.14,0.818 0,0.514 0.479,0.82 1.024,0.82 0.711,-0.001 1.141,-0.531 1.141,-0.948 z"
   id="path3037"
   inkscape:connector-curvature="0"
   style="fill:#ff7328;fill-opacity:1" />
			<path
   d="m 120.077,20.5 c 0,1.991 -1.851,3.179 -4.479,3.179 -1.637,0 -3.504,-0.658 -4.363,-1.814 V 21.64 l 1.52,-1.525 h 0.232 c 0.414,0.466 1.356,1.157 2.396,1.157 0.826,0 1.372,-0.37 1.372,-0.964 0,-0.771 -0.694,-1.093 -1.752,-1.093 h -1.157 v -2.088 h 1.405 c 0.777,0 1.306,-0.401 1.306,-0.964 0,-0.723 -0.66,-0.9 -1.306,-0.9 -0.727,0 -1.455,0.289 -1.966,0.674 h -0.232 l -1.239,-1.606 v -0.224 c 1.074,-0.851 2.38,-1.252 3.916,-1.252 2.182,0 4.016,0.931 4.016,3.051 0,0.851 -0.513,1.605 -1.256,2.135 0.975,0.484 1.587,1.304 1.587,2.459 z"
   id="path3039"
   inkscape:connector-curvature="0"
   style="fill:#ff7328;fill-opacity:1" />
		</g>
	</g>
</g><g
   id="g3041"
   transform="matrix(24.529526,0,0,24.529526,-14.526009,-24.035338)"
   style="fill:#ff7328;fill-opacity:1">
	<path
   d="M 9.385,20.122 C 12.331,15.23 15.098,10.228 18.364,5.533 19.016,4.596 19.698,3.674 20.215,2.652 20.519,2.051 20.443,1.585 20.024,1.276 19.612,0.972 19.066,0.983 18.707,1.017 9.705,1.741 0.743,7.764 0.66,16.429 c 0.022,3.165 1.791,6.996 3.234,8.006 1.081,0.758 2.044,0.657 3.123,-0.656 0.926,-1.128 1.618,-2.413 2.368,-3.657 z"
   id="path3043"
   inkscape:connector-curvature="0"
   style="fill:#ff7328;fill-opacity:1" />
	<path
   d="m 34.982,23.779 c 1.079,1.313 2.041,1.414 3.123,0.656 1.442,-1.011 3.211,-4.842 3.234,-8.006 C 41.255,7.764 32.293,1.741 23.291,1.017 22.932,0.983 22.386,0.972 21.974,1.276 c -0.418,0.309 -0.495,0.775 -0.191,1.376 0.517,1.022 1.199,1.944 1.851,2.881 3.267,4.695 6.033,9.697 8.979,14.589 0.75,1.244 1.442,2.529 2.369,3.657 z"
   id="path3045"
   inkscape:connector-curvature="0"
   style="fill:#ff7328;fill-opacity:1" />
	<path
   d="m 22.69,16.39 c -0.849,-0.128 -1.503,-0.14 -1.691,-0.141 l 0,0 c -0.188,0.001 -0.842,0.014 -1.691,0.141 -4.947,0.743 -8.387,3.527 -10.511,7.957 -1.086,2.265 -0.604,3.822 1.357,5.367 0.115,0.091 0.231,0.179 0.347,0.268 0.361,0.242 0.717,0.475 1.063,0.701 5.129,3.348 7.005,4.536 7.762,4.884 0.315,0.144 0.869,0.413 1.631,0.432 V 36 c 0.014,0 0.027,-10e-4 0.041,-10e-4 0.014,0 0.027,10e-4 0.041,10e-4 v -0.002 c 0.762,-0.018 1.316,-0.287 1.631,-0.432 0.757,-0.347 2.633,-1.536 7.762,-4.884 0.347,-0.227 0.704,-0.461 1.066,-0.703 0.115,-0.088 0.23,-0.176 0.344,-0.265 1.961,-1.545 2.443,-3.103 1.357,-5.367 -2.122,-4.43 -5.562,-7.215 -10.509,-7.957 z"
   id="path3047"
   inkscape:connector-curvature="0"
   style="fill:#ff7328;fill-opacity:1" />
</g></svg>