<?xml version="1.0" encoding="utf-8"?>
<!-- Generator: Adobe Illustrator 16.0.0, SVG Export Plug-In . SVG Version: 6.00 Build 0)  -->
<!DOCTYPE svg PUBLIC "-//W3C//DTD SVG 1.1//EN" "http://www.w3.org/Graphics/SVG/1.1/DTD/svg11.dtd">
<svg version="1.1" id="Layer_1" xmlns="http://www.w3.org/2000/svg" xmlns:xlink="http://www.w3.org/1999/xlink" x="0px" y="0px"
	 viewBox="0 0 250 200" enable-background="new 0 0 250 200" xml:space="preserve">
<g>
	<path fill="#F7B44B" d="M172.415,20.245c-2.527,0-4.574,2.048-4.574,4.575c-0.004,0.912,0.271,1.803,0.781,2.558l-0.025-0.013
		c0,0-1.797,3.969-4.119,6.439c-2.321,2.471-5.467,6.515-6.587,6.815c0,0-0.063,0.006-0.167,0.011
		c-3.872-2.619-8.382-4.464-13.15-5.261c0.695-2.366,2.887-9.341,6.128-14.967c2.626-4.558,4.005-7.048,4.639-8.214
		c0.317,0.054,0.641,0.088,0.978,0.088c3.12,0,5.651-2.463,5.651-5.502s-2.531-5.502-5.651-5.502c-3.123,0-5.652,2.463-5.652,5.502
		c0,1.204,0.403,2.316,1.078,3.223c-1.295,3.076-5.521,13.127-6.658,16.095c-1.048,2.739-2.824,7.112-3.559,8.916
		c-0.584-0.043-1.172-0.069-1.758-0.08c-10.655-0.156-20.439,5.643-25.63,14.287c-0.472,0.788-0.905,1.597-1.297,2.426
		c-0.179,0.373-0.346,0.748-0.507,1.129c-1.209,2.885-1.938,6.003-2.066,9.264c-0.335,8.493,3.987,15.679,10.756,20.532
		c5.155,3.695,11.724,6.039,18.746,6.573c18.72,1.423,29.559-4.872,30.475-25.757c0.36-8.186-3.697-15.662-10.033-20.897
		c0.242-1.513,2.128-2.964,4.867-5.833c3.145-3.296,7.338-7.254,7.338-7.254c2.528,0,4.578-2.05,4.578-4.578
		C176.99,22.293,174.943,20.245,172.415,20.245L172.415,20.245z"/>
	<path fill="#CD3032" d="M56.431,157.872c0-0.972,7.337-1.349,7.337-7.337c0-5.992-7.039-11.906-27.704-11.981
		c-20.667-0.075-33.246,8.385-33.096,15.349c0.15,6.964,9.434,14.826,13.927,6.216c0,0-5.305-2.044-4.343-7.338
		c1.499-8.237,11.081-9.659,11.081-9.659s0.151,1.273-0.448,2.471c-0.419,0.84-2.097,5.917-1.722,11.006
		c0.374,5.092,0.749,19.471-1.572,21.343c0,0,3.669,2.787,9.285,2.544c6.889-0.3,8.087-3.443,9.209-3.443
		c1.124,0,5.84,3.293,15.649,3.293s14.152-5.765,14.152-9.583C68.187,160.94,56.431,158.846,56.431,157.872z M45.948,173.895
		c-3.639,0-6.589-2.949-6.589-6.588c0-3.638,2.951-6.588,6.589-6.588c3.64,0,6.589,2.95,6.589,6.588
		C52.537,170.945,49.587,173.895,45.948,173.895z M45.948,156.15c-3.639,0-6.589-2.949-6.589-6.589s2.951-6.589,6.589-6.589
		c3.64,0,6.589,2.949,6.589,6.589S49.587,156.15,45.948,156.15z M105.774,170.094c-0.046-3.198,0.225-14.206,0.225-14.767
		c0-0.563-0.225-0.957-1.18-1.404c-0.954-0.451-2.303-1.124-4.941-1.124c-2.64,0-6.514,1.46-6.57,2.022
		c-0.056,0.561,0,1.685-0.899,1.685c-0.842,0-2.021-2.695-8.424-2.695c-6.401,0-15.248,4.056-13.14,14.487
		c1.123,5.561,9.48,12.747,17.128,11.514c5.221-0.843,6.008-4.1,7.187-4.1c1.181,0,3.033,3.818,7.807,3.874
		c4.773,0.057,7.411-2.147,7.076-4.38c-0.506-3.368-4.213-1.236-4.269-5.11V170.094z M79.343,171.648
		c-3.639,0-6.589-2.948-6.589-6.588c0-3.639,2.95-6.588,6.589-6.588c3.639,0,6.589,2.949,6.589,6.588
		C85.932,168.7,82.982,171.648,79.343,171.648z M131.045,153.811c-4.217,0-5.038,2.415-6.513,2.415c-0.45,0-0.563-0.564-0.563-1.349
		v-13.871c0-2.079-5.953-3.371-7.187-3.371c-4.044,0-5.842,3.146-5.842,4.099c0,0.62-0.224,13.312-0.224,17.916
		c0,4.605-1.329,11.191,5.84,16.456c7.75,5.69,20.815,4.23,26.207-0.449c5.022-4.362,3.351-11.609,0.768-15.709
		S136.619,153.811,131.045,153.811z M136.138,171.648c-3.638,0-6.589-2.948-6.589-6.588c0-3.639,2.951-6.588,6.589-6.588
		c3.639,0,6.588,2.949,6.588,6.588C142.726,168.7,139.776,171.648,136.138,171.648z M181.025,156.618
		c-0.616-0.337-3.931-2.19-6.232-2.19c-2.303,0-4.382,1.347-5.111,1.854c-0.729,0.504-0.787,1.685-0.787,2.134s0.17,4.154,0,9.828
		c-0.166,5.672-2.133,7.41-4.1,7.41c-1.966,0-2.751-1.795-2.751-2.749c0-0.956,0.112-13.479,0.112-14.434s-0.112-1.629-0.842-2.021
		c-0.729-0.395-5.109-2.079-6.513-2.079c-3.37,0-4.269,1.067-5.057,1.967c-0.563,0.644-0.504,1.686-0.504,2.415v10.782
		c0,3.987,0.786,8.312,6.064,11.287c5.279,2.978,10.109-0.111,11.345-1.01c1.233-0.898,2.078-0.898,2.078-0.898
		s0.448,6.625-0.34,11.344c-0.784,4.716-3.872,5.167-5.726,5.167c-1.854,0-1.966-0.505-1.91-1.067s1.011-0.506,1.797-2.021
		c0.475-0.917-0.562-3.428-2.751-4.887c-2.189-1.461-5.954-1.742-7.581,0.28c-1.629,2.021-0.899,7.13,7.693,9.885
		c8.593,2.751,14.544-0.112,17.744-3.033c3.202-2.921,3.933-7.695,3.933-10.109s0.224-21.846,0.224-24.71
		C181.812,156.9,181.644,156.953,181.025,156.618L181.025,156.618z"/>
	<path fill="#F29837" d="M196.638,145.104l-3.257,9.154h-4.101l-1.065,3.369h3.818c0,0-3.369,9.771-4.156,12.131
		c-0.786,2.357-1.796,7.918,1.686,10.053c3.481,2.132,7.681,2.233,12.13,0.504c5.784-2.247,9.211-6.063,12.019-13.084l-3.146-0.899
		c0,0-1.74,4.438-3.482,5.953c-1.739,1.517-3.458,2.631-5.108,2.077c-1.518-0.504-1.067-2.695-0.113-5.671
		c0.953-2.977,4.043-11.007,4.043-11.007h4.493l1.291-3.426h-3.761c-0.451,0-0.675-0.28-0.34-1.346
		c0.34-1.069,3.652-9.829,3.652-9.829L196.638,145.104L196.638,145.104z M221.627,153.979h13.928c0,0-5.306,14.011-5.672,15.164
		c-0.393,1.232-1.348,4.716,1.967,4.94c2.028,0.138,4.441-1.452,5.56-3.033c1.629-2.301,0.394-3.705,0.618-6.009
		c0.223-2.304,2.02-8.199,3.537-9.772c1.517-1.57,4.941-2.47,5.335,0.506c0.393,2.976,0.055,5.953-2.808,11.008
		c-3.594,6.347-10.276,12.131-14.433,13.422c-4.156,1.292-8.367,2.021-11.625-0.729c-3.257-2.752-3.033-6.57-1.516-11.008
		C218.034,164.031,221.627,153.979,221.627,153.979L221.627,153.979z"/>
	<circle fill="#EC1C24" cx="156.317" cy="6.476" r="3.744"/>
	<circle fill="#EC1C24" cx="172.415" cy="24.821" r="3.294"/>
	<path fill="#FFFFFF" d="M133.073,51.246c-1.088,3.857-0.928,8.125,1.156,12.886c2.619,5.989,10.363,3.713,11.381,3.444
		c2.544-0.673,6.587-1.947,6.587-1.947l4.494,3.144c0,0,0.45,2.097,4.492,2.172c4.043,0.074,7.788-4.418,7.788-10.109
		c0-0.624-0.063-1.242-0.172-1.85C152.071,51.416,135.846,51.22,133.073,51.246L133.073,51.246z"/>
	<path fill="#FDDD9E" d="M161.632,49.006c-2.396-0.899-4.789,0.674-4.789,0.674s-4.046-8.012-10.859-9.284
		c-5.356-1.002-9.434,2.77-11.83,7.936c-0.436,0.941-0.797,1.916-1.08,2.913c2.772-0.026,18.999,0.17,35.727,7.741
		C167.916,54.048,163.767,49.807,161.632,49.006z"/>
	<path fill="#C63465" d="M157.873,69.034c-0.398,1.563-2.834,2.29-5.438,1.623c-2.604-0.667-4.391-2.474-3.991-4.036
		c0.4-1.563,2.834-2.288,5.438-1.622C156.486,65.665,158.273,67.472,157.873,69.034z"/>
	<path fill="#231F20" d="M146.208,56.401c0,2.243-1.768,4.062-3.948,4.062c-2.183,0-3.952-1.819-3.952-4.062
		c0-2.244,1.77-4.063,3.952-4.063C144.44,52.338,146.208,54.156,146.208,56.401z"/>
	<ellipse fill="#231F20" cx="159.611" cy="61.005" rx="3.364" ry="3.46"/>
	<circle fill="#FFFFFF" cx="144.037" cy="56.793" r="1.273"/>
	<circle fill="#FFFFFF" cx="160.959" cy="61.211" r="1.159"/>
	<path fill="#CB2F32" d="M158.264,79.556c2.096-0.149,3.745-1.572,3.745-1.572s-3.97,2.471-17.296-1.423
		c-7.506-2.192-15.054-10.932-15.054-10.932s0.376,1.143,3.221,4.867c1.664,2.178,0.691,6.608,4.082,10.729
		c1.2-0.013,3.41,0.039,6.044,0.484c3.987,0.674,5.869,2.078,5.673,3.089c-0.151,0.78-0.225,1.292,0.057,1.292
		c0.675,0,0.086-1.797,1.74-1.797c0.754,0,1.566,0.244,2.199,0.492c0.16-1.144,0.377-2.535,0.574-3.357
		C153.622,79.855,156.619,79.672,158.264,79.556z"/>
	<path fill="#EC748F" d="M148.735,86.089c-0.281,0-0.208-0.512-0.057-1.292c0.196-1.011-1.686-2.415-5.673-3.089
		c-2.634-0.445-4.844-0.497-6.044-0.482c0.329,0.419,0.692,0.813,1.085,1.175c5.167,4.793,14.539,4.298,14.539,4.298
		s-0.06-0.869,0.089-1.914c-0.633-0.249-1.445-0.493-2.199-0.493C148.821,84.292,149.411,86.089,148.735,86.089z"/>
	<path fill="#FDDEA3" d="M119.359,112.855c-1.626-2.871-4.35-6.736-7.607-7.59l-0.586,1.92c4.375,1.557,6.655,5.244,7.68,7.498
		c0.062-0.203,0.125-0.407,0.181-0.607C119.142,113.669,119.252,113.265,119.359,112.855z"/>
	<path fill="#C23031" d="M111.317,105.166c0.146,0.024,0.29,0.059,0.435,0.1l0.295-0.967L111.317,105.166z"/>
	<path fill="#71B951" d="M114.835,88.99c-1.205-2.154-19.512-27.71-31.743-42.324c-0.245-0.326-1.005-1.303-1.005-1.303
		l-0.063,0.035c-3.023-3.555-5.607-6.335-7.365-7.764c-8.855-7.193-15.932-7.649-18.374-7.525
		c-10.957,0.553-16.38,16.159-18.151,21.471c-1.771,5.313-5.534,15.939,1.328,27.338c6.862,11.4,20.919,16.934,20.919,16.934
		l-0.112,1.106c0,0-3.984,2.437-7.747,7.085c-3.763,4.649-7.306,22.024-1.882,29.995c5.423,7.968,16.271,4.094,26.785,0.332
		s27.338-16.05,30.327-18.373c2.987-2.324,3.32-7.527,3.32-7.527s2.102-1.548,3.984-6.086
		C116.938,97.845,116.385,91.758,114.835,88.99z"/>
	<path fill="#F7B44B" d="M112.022,107.533c-0.574,0.657-0.949,0.937-0.949,0.937s-0.333,5.203-3.32,7.527
		c-2.562,1.991-15.285,11.297-25.49,16.289c-4.021,12.883,5.43,11.978,14.602,9.793c9.263-2.205,18.668-16.393,21.981-27.396
		C117.889,112.581,115.842,109.238,112.022,107.533z M120.075,80.529l-5.712,7.713c0.229,0.348,0.391,0.604,0.473,0.748
		c0.588,1.05,1.031,2.581,1.254,4.323c1.089,0.24,3.391,0.864,5.742,2.221c0.185-3.059,0.26-5.337,0.491-6.318
		c0.599-2.547,3.444-4.494,3.444-4.494L120.075,80.529L120.075,80.529z"/>
	<path fill="#FDDEA3" d="M115.288,101.766c1.161,0.665,3.481,2.059,5.557,3.705c0.555-3.708,0.817-7.148,0.986-9.937
		c-2.351-1.357-4.652-1.98-5.742-2.221C116.427,95.954,116.249,99.078,115.288,101.766z M113.247,105.883
		c-0.456,0.708-0.876,1.248-1.225,1.65c3.82,1.705,5.867,5.048,6.824,7.15c0.062-0.203,0.125-0.407,0.181-0.607
		c0.115-0.405,0.226-0.812,0.332-1.219C117.99,110.437,115.838,107.32,113.247,105.883z"/>
	<path fill="#C23031" d="M115.057,102.384c-0.606,1.461-1.235,2.609-1.811,3.498c2.592,1.438,4.744,4.555,6.112,6.974
		c0.651-2.502,1.13-4.997,1.486-7.385c-2.076-1.646-4.396-3.04-5.557-3.705C115.213,101.973,115.14,102.182,115.057,102.384z"/>
	<path fill="#B4D263" d="M64.768,98.204c-0.993,0.775-6.1,4.93-7.767,9.438c-1.102,2.982-6.229,18.093,1.16,22.596
		c1.78,1.086,3.972,1.634,6.515,1.634c6.637,0.003,14.531-3.7,19.985-6.805l0.158-0.091c7.033-4.004,21.91-12.462,23.763-16.3
		C90.05,106.138,82.54,104.495,64.768,98.204L64.768,98.204z"/>
	<path fill="#D6E3A0" d="M96.096,34.098c0.097,0.004,9.067,0.6,16.238,18.673c0.161-0.38,0.328-0.756,0.507-1.129
		c-5.858-14.151-13.322-18.301-16.707-18.441c-7.633-0.321-12.916,10.104-13.967,12.364c0.211,0.25,0.425,0.504,0.641,0.761
		C82.927,46.052,88.364,33.78,96.096,34.098z"/>
	<path fill="#CBDE99" d="M57.142,36.052c-12.563,0-14.161,20.19-14.264,28.87c-0.132,11.154,9.01,22.253,24.455,29.691
		c16.868,8.123,38.283,10.75,40.917,11.047c0.538-0.807,2.383-3.618,3.413-5.679c1.237-2.471,0.606-6.771-1.563-10.7
		c-2.474-4.476-21.079-30.609-30.929-40.789C68.692,37.668,60.872,36.052,57.142,36.052z M108.691,106.612l-0.267-0.028
		c-0.233-0.024-23.424-2.466-41.482-11.163c-15.768-7.591-25.1-18.996-24.963-30.509c0.106-8.948,1.797-29.759,15.162-29.759
		c3.873,0,11.967,1.652,22.674,12.717c9.892,10.221,28.583,36.479,31.069,40.977c2.309,4.178,2.944,8.815,1.58,11.538
		c-1.234,2.469-3.526,5.863-3.623,6.004L108.691,106.612z"/>
	<path fill="#D6E3A0" d="M64.768,98.204c-0.993,0.775-6.1,4.93-7.767,9.438c-1.102,2.982-6.229,18.093,1.16,22.596
		c1.78,1.086,3.972,1.634,6.515,1.634c6.637,0.003,14.531-3.7,19.985-6.805l0.158-0.091c7.033-4.004,21.91-12.462,23.763-16.3
		l0.911-0.048l-0.147,0.455c-1.077,3.347-12.997,10.362-24.083,16.673l-0.158,0.091c-5.547,3.159-13.595,6.924-20.429,6.924h-0.002
		c-2.709,0-5.059-0.593-6.981-1.764c-7.79-4.748-3.145-19.322-1.534-23.677c1.932-5.231,7.323-9.126,7.581-9.319L64.768,98.204
		L64.768,98.204z"/>
	<path fill="#67B650" d="M96.134,33.201c3.385,0.141,10.849,4.29,16.707,18.441c0.393-0.829,0.825-1.639,1.297-2.426
		c-5.246-13.7-11.762-24.171-19.146-24.171c-7.846,0-14.711,12.55-16.571,16.265c1.142,1.235,2.4,2.668,3.746,4.254
		C83.22,43.305,88.501,32.88,96.134,33.201z"/>
	<path fill="#67B650" d="M110.267,62.035c0.128-3.261,0.857-6.378,2.068-9.264c-7.172-18.073-16.143-18.668-16.238-18.673
		c-7.733-0.318-13.169,11.954-13.289,12.228c0.756,0.9,1.506,1.805,2.25,2.716c2.567-2.254,5.728-3.588,9.148-3.588
		c8.581,0,15.536,8.375,15.536,18.704c0,4.68-1.43,8.955-3.789,12.234c4.838,6.639,8.376,11.69,8.883,12.598
		c0.324,0.578,0.599,1.306,0.825,2.128c1.365-0.79,2.917-2.012,3.818-3.737c0.496-0.95,1.171-2.42,1.545-4.813
		C114.254,77.713,109.932,70.528,110.267,62.035z"/>
	<path fill="#CB2F32" stroke="#EC1C24" stroke-width="1.823" stroke-miterlimit="10" d="M105.953,76.392
		c2.358-3.28,3.789-7.554,3.789-12.234c0-10.33-6.956-18.705-15.537-18.705c-3.419,0-6.58,1.334-9.146,3.588"/>
	<circle fill="#CB2F32" stroke="#EC1C24" stroke-width="2" stroke-miterlimit="10" cx="72.217" cy="116.315" r="9.45"/>
	<path fill="#B5D164" d="M57.142,36.052c-12.563,0-14.161,20.19-14.264,28.87c-0.132,11.154,9.01,22.253,24.455,29.691
		c16.868,8.123,38.283,10.75,40.917,11.047c0.538-0.807,2.383-3.618,3.413-5.679c1.237-2.471,0.606-6.771-1.563-10.7
		c-2.474-4.476-21.079-30.609-30.929-40.789C68.692,37.668,60.872,36.052,57.142,36.052z"/>
	<circle fill="#CB2F32" stroke="#EC1C24" stroke-width="2" stroke-miterlimit="10" cx="68.09" cy="68.95" r="18.705"/>
	<path fill="#B5D164" d="M110.267,62.035c0.128-3.261,0.857-6.378,2.068-9.264c-7.172-18.073-16.143-18.668-16.238-18.673
		c-7.733-0.318-13.169,11.954-13.289,12.228c0.756,0.9,1.506,1.805,2.25,2.716c2.567-2.254,5.728-3.588,9.148-3.588
		c8.581,0,15.536,8.375,15.536,18.704c0,4.68-1.43,8.955-3.789,12.234c4.838,6.639,8.376,11.69,8.883,12.598
		c0.324,0.578,0.599,1.306,0.825,2.128c1.365-0.79,2.917-2.012,3.818-3.737c0.496-0.95,1.171-2.42,1.545-4.813
		C114.254,77.713,109.932,70.528,110.267,62.035z"/>
</g>
</svg>
