<?xml version="1.0" encoding="UTF-8"?>
<svg width="1e3" height="1e3" version="1.1" viewBox="0 0 264.58 264.58" xmlns="http://www.w3.org/2000/svg">
 <g transform="translate(123.98 91.56)">
  <rect x="-123.98" y="-91.56" width="264.58" height="264.58" fill="#b90005"/>
  <path d="m14.969-11.769c0 4.7643-5.9287 4.4815-5.9287 4.4815h-5.9286v-8.6087h5.9286c6.1013-.04188 5.9287 4.1272 5.9287 4.1272m-11.857-17.256h4.5176c4.6911.24802 4.5141 3.7404 4.5141 3.7404 0 4.3405-5.1873 4.4112-5.1873 4.4112h-3.8445zm10.761 9.8446s4.058-1.7292 4.0218-6.3157c0 0 .61715-7.5167-9.3418-8.4335h-11.051v31.512h12.667s10.584.03141 10.584-8.8911c-.00053 0 .25022-6.072-6.8798-7.8712m-28.599-20.924h46.526v43.843h-46.526zm-23.956 28.335c0 4.7643-5.9287 4.4815-5.9287 4.4815h-5.929v-8.6087h5.929c6.1017-.04188 5.9287 4.1272 5.9287 4.1272m-11.858-17.256h4.5185c4.6913.24802 4.5138 3.7404 4.5138 3.7404 0 4.3405-5.1869 4.4112-5.1869 4.4112h-3.8454zm10.761 9.8446s4.0586-1.7292 4.0222-6.3157c0 0 .61667-7.5167-9.3423-8.4335h-11.051v31.512h12.668s10.584.03141 10.584-8.8911c0 0 .24948-6.072-6.8798-7.8712m-28.599-20.924h46.526v43.843h-46.526zm144.34 8.4336v5.8218s-5.6827-3.4923-11.962-3.5626c0 0-11.716-.23011-12.244 11.23 0 0-.42321 10.539 12.103 11.14 0 0 5.2556.63294 12.385-3.9136v6.0293s-9.5639 5.6822-20.643 1.3057c0 0-9.3135-3.401-9.6683-14.561 0 0-.38734-11.479 12.034-15.289 0 0 3.317-1.2698 9.2779-.70546.00052 0 3.5628.35227 8.7179 2.5048m-37.035 35.409h46.526v-43.843h-46.526z" fill="#fff" stroke-width=".15383"/>
  <g transform="matrix(1.2962 0 0 1.2962 .75318 -3866.2)" fill="#fff" aria-label="WORLD NEWS">
   <path d="m-44.085 3031.2q-1.48-5.12-2.92-10.28t-2.8-10.32q-1.36 5.12-2.8 10.32-1.4 5.16-2.88 10.28h-5.36q-2.12-7-4.04-14.16t-3.64-14.44h5.48q1.16 5.84 2.44 11.72 1.32 5.84 2.76 11.44 1.52-5.52 2.92-11 1.44-5.48 2.76-10.96h5q1.32 5.44 2.72 10.84t2.88 10.8q1.44-5.56 2.72-11.32t2.44-11.52h5.36q-1.76 7.28-3.68 14.44t-4 14.16z"/>
   <path d="m-14.844 3002q3.2 0 5.76 1.04 2.56 1.04 4.4 3 1.88 1.96 2.84 4.72 1 2.76 1 6.16t-1 6.16q-.96 2.72-2.8 4.68t-4.44 3q-2.56 1.04-5.76 1.04t-5.76-1.04-4.44-3q-1.84-1.96-2.84-4.72-.96-2.76-.96-6.16t.96-6.12q1-2.76 2.84-4.72t4.4-3q2.6-1.04 5.8-1.04zm0 25.4q2.72 0 4.68-1.24 1.96-1.28 3-3.6 1.04-2.36 1.04-5.64 0-3.32-1.04-5.64-1.04-2.36-3-3.6-1.96-1.28-4.68-1.28t-4.68 1.28q-1.96 1.24-3 3.6-1.04 2.32-1.04 5.6t1.04 5.64 3 3.64q1.96 1.24 4.68 1.24z"/>
   <path d="m9.9659 3020.2v10.96h-5v-28.6h9.84q5.56 0 8.52 2.32 2.96 2.28 2.96 6.52 0 2.84-1.44 4.88-1.44 2-4.12 3 1.88 2.88 3.72 5.84t3.64 6.04h-5.84q-1.56-2.8-3.2-5.52-1.6-2.72-3.28-5.48-.48.04-1 .04zm0-13.6v9.56h4.52q3.32 0 5-1.12 1.68-1.16 1.68-3.64t-1.68-3.64-4.96-1.16z"/>
   <path d="m31.997 3002.6h5.08v24.2h14.08v4.4h-19.16z"/>
   <path d="m55.581 3031.2v-28.6h10.44q4.48 0 7.64 1.68 3.2 1.68 4.88 4.88 1.72 3.16 1.72 7.68 0 4.56-1.72 7.76-1.68 3.2-4.88 4.92-3.16 1.68-7.68 1.68zm5.08-24.28v19.96h5.04q4.48 0 6.88-2.56t2.4-7.48q0-4.84-2.36-7.36-2.36-2.56-6.88-2.56z"/>
   <path d="m-31.246 3070.8q-2.28-3.56-4.68-7.2-2.36-3.64-4.72-7.2t-4.68-6.92v21.32h-4.88v-28.6h5.12q3.6 5.2 7.08 10.48 3.52 5.28 7 10.72v-21.2h4.88v28.6z"/>
   <path d="m-19.287 3042.2h19.12v4.28h-14.04v7.4h12.52v4.28h-12.52v8.36h14.8v4.28h-19.88z"/>
   <path d="m28.665 3070.8q-1.48-5.12-2.92-10.28t-2.8-10.32q-1.36 5.12-2.8 10.32-1.4 5.16-2.88 10.28h-5.36q-2.12-7-4.04-14.16t-3.64-14.44h5.48q1.16 5.84 2.44 11.72 1.32 5.84 2.76 11.44 1.52-5.52 2.92-11 1.44-5.48 2.76-10.96h5q1.32 5.44 2.72 10.84t2.88 10.8q1.44-5.56 2.72-11.32t2.44-11.52h5.36q-1.76 7.28-3.68 14.44t-4 14.16z"/>
   <path d="m53.469 3071.4q-2.32 0-4.6-.52t-4.28-1.6v-4.64q4.12 2.56 8.96 2.56 3 0 4.6-1.12 1.64-1.12 1.64-3.08 0-1.12-.48-1.84-.48-.76-1.32-1.24-.8-.52-1.88-.84-1.04-.32-2.2-.6-2.12-.52-3.88-1.16-1.72-.68-3-1.6-1.24-.92-1.92-2.28t-.68-3.32q0-2.64 1.32-4.52 1.32-1.92 3.76-2.96t5.8-1.04q2.2 0 4.36.52t3.84 1.4v4.52q-1.6-1-3.76-1.6-2.12-.64-4.52-.64-2.72 0-4.24 1.04-1.52 1-1.52 2.88 0 1.36.72 2.16.72.76 2.04 1.24 1.32.44 3.08.88 1.92.48 3.64 1.08 1.76.6 3.08 1.56 1.36.92 2.12 2.36t.76 3.6q0 2.76-1.36 4.72t-3.96 3.04q-2.56 1.04-6.12 1.04z"/>
  </g>
 </g>
</svg>
