<?xml version="1.0" encoding="UTF-8"?>
<svg xmlns="http://www.w3.org/2000/svg" xmlns:xlink="http://www.w3.org/1999/xlink" width="2000pt" height="1716pt" viewBox="0 0 2000 1716" version="1.1">
<g id="surface1">
<path style=" stroke:none;fill-rule:nonzero;fill:rgb(100%,100%,100%);fill-opacity:1;" d="M 596.445312 636.078125 C 596.695312 624.980469 595.699219 607.519531 610.535156 605.898438 C 641.707031 603.84375 673.191406 604.152344 704.425781 605.714844 C 717.519531 606.023438 725.1875 617.808594 730.859375 628.035156 C 767.144531 693.445312 803.679688 758.667969 840.023438 824.015625 C 878.679688 757.546875 915.585938 690.015625 953.429688 623.046875 C 958.292969 613.757812 966.769531 605.402344 977.992188 605.527344 C 1007.480469 604.339844 1037.15625 603.90625 1066.582031 605.714844 C 1078.988281 605.777344 1082.292969 619.867188 1081.609375 629.84375 C 1081.796875 783.671875 1081.546875 937.503906 1081.734375 1091.332031 C 1081.234375 1101.308594 1082.417969 1116.523438 1069.515625 1119.015625 C 1039.589844 1121.886719 1009.226562 1120.574219 979.175781 1119.890625 C 967.082031 1120.824219 960.597656 1108.601562 961.597656 1097.941406 C 960.660156 1009.585938 961.90625 921.226562 961.035156 832.871094 C 933.851562 878.078125 908.914062 924.65625 881.859375 969.863281 C 870.949219 992.1875 842.832031 985.640625 822.816406 985.703125 C 808.726562 986.886719 801.683594 973.230469 795.324219 963.191406 C 770.074219 919.355469 744.886719 875.460938 719.328125 831.75 C 719.140625 918.296875 719.328125 1004.78125 719.265625 1091.269531 C 719.515625 1102.179688 718.578125 1118.765625 704.300781 1119.578125 C 673.316406 1121.136719 642.082031 1121.261719 611.097656 1119.453125 C 597.070312 1118.332031 596.382812 1102.179688 596.570312 1091.394531 C 596.507812 939.621094 596.695312 787.851562 596.445312 636.078125 Z M 596.445312 636.078125 "/>
<path style=" stroke:none;fill-rule:nonzero;fill:rgb(18.823529%,31.764706%,69.019608%);fill-opacity:1;" d="M 582.667969 0 L 596.882812 0 C 596.074219 155.699219 596.945312 311.460938 596.445312 467.222656 C 597.691406 477.886719 594.328125 492.476562 605.921875 498.527344 C 619.886719 501.519531 634.226562 500.894531 648.441406 501.019531 C 716.894531 500.394531 785.347656 501.144531 853.804688 500.644531 C 901.308594 500.023438 951.308594 489.609375 988.777344 458.617188 C 1036.285156 419.710938 1048.378906 347.253906 1023.378906 292.503906 C 1012.09375 266.753906 989.714844 248.546875 966.273438 234.203125 C 1022.257812 200.28125 1033.105469 124.273438 1008.726562 67.46875 C 1031.234375 44.832031 1053.054688 21.324219 1076.871094 0 L 1090.273438 0 C 1091.210938 141.359375 1090.460938 282.777344 1090.648438 424.136719 C 1091.085938 446.273438 1088.589844 468.71875 1092.894531 490.605469 C 1096.882812 503.140625 1111.96875 499.273438 1122.070312 500.769531 C 1238.902344 501.082031 1355.671875 500.148438 1472.507812 501.207031 C 1475.125 523.34375 1454.425781 535.75 1441.398438 549.90625 C 1421.820312 567.613281 1405.671875 589.3125 1383.976562 604.527344 C 1358.355469 608.082031 1332.105469 602.71875 1306.609375 607.644531 C 1293.765625 610.765625 1289.652344 624.980469 1284.789062 635.582031 C 1232.980469 775.128906 1181.234375 914.742188 1129.300781 1054.292969 C 1122.320312 1074.308594 1112.03125 1093.699219 1110.910156 1115.214844 C 1123.691406 1122.445312 1139.027344 1120.015625 1153.117188 1120.699219 C 1175.1875 1120.140625 1197.507812 1122.007812 1219.515625 1118.953125 C 1229.675781 1117.957031 1233.230469 1107.292969 1236.96875 1099.4375 C 1245.386719 1078.238281 1252.058594 1056.414062 1260.039062 1035.023438 C 1324.25 1035.148438 1388.402344 1035.085938 1452.554688 1035.085938 C 1463.28125 1061.898438 1468.828125 1091.269531 1484.664062 1115.710938 C 1499.9375 1123.007812 1517.644531 1119.765625 1534.039062 1120.699219 C 1557.667969 1119.890625 1582.792969 1124.128906 1604.800781 1113.21875 C 1561.347656 994.929688 1517.582031 876.707031 1473.753906 758.480469 C 1514.464844 717.640625 1555.300781 676.984375 1595.949219 636.078125 C 1604.175781 627.039062 1615.023438 621.363281 1626.558594 617.683594 C 1628.054688 775.691406 1626.683594 933.761719 1627.246094 1091.769531 C 1627.429688 1101.992188 1627.992188 1118.207031 1641.644531 1119.140625 C 1674.066406 1122.445312 1706.796875 1119.578125 1739.339844 1120.386719 C 1795.261719 1119.203125 1852.992188 1126.125 1906.984375 1107.480469 C 1929.175781 1100.933594 1948.316406 1086.964844 1970.261719 1079.796875 C 1984.664062 1076.863281 1994.886719 1088.960938 2001.246094 1100.0625 L 2001.246094 1118.890625 C 1816.335938 1307.078125 1627.992188 1492.023438 1442.019531 1679.148438 C 1425.25 1697.542969 1403.367188 1710.824219 1378.617188 1714.753906 L 109.101562 1714.753906 C 52.929688 1708.269531 5.546875 1661.316406 0 1604.820312 L 0 608.269531 C 3.804688 584.011719 16.148438 562.128906 34.351562 545.789062 C 217.707031 364.464844 398.566406 180.578125 582.667969 0 M 596.445312 636.078125 C 596.695312 787.851562 596.507812 939.621094 596.570312 1091.394531 C 596.382812 1102.179688 597.070312 1118.332031 611.097656 1119.453125 C 642.082031 1121.261719 673.316406 1121.136719 704.300781 1119.578125 C 718.578125 1118.765625 719.515625 1102.179688 719.265625 1091.269531 C 719.328125 1004.78125 719.140625 918.296875 719.328125 831.75 C 744.886719 875.460938 770.074219 919.355469 795.324219 963.191406 C 801.683594 973.230469 808.726562 986.886719 822.816406 985.703125 C 842.832031 985.640625 870.949219 992.1875 881.859375 969.863281 C 908.914062 924.65625 933.851562 878.078125 961.035156 832.871094 C 961.90625 921.226562 960.660156 1009.585938 961.597656 1097.941406 C 960.597656 1108.601562 967.082031 1120.824219 979.175781 1119.890625 C 1009.226562 1120.574219 1039.589844 1121.886719 1069.515625 1119.015625 C 1082.417969 1116.523438 1081.234375 1101.308594 1081.734375 1091.332031 C 1081.546875 937.503906 1081.796875 783.671875 1081.609375 629.84375 C 1082.292969 619.867188 1078.988281 605.777344 1066.582031 605.714844 C 1037.15625 603.90625 1007.480469 604.339844 977.992188 605.527344 C 966.769531 605.402344 958.292969 613.757812 953.429688 623.046875 C 915.585938 690.015625 878.679688 757.546875 840.023438 824.015625 C 803.679688 758.667969 767.144531 693.445312 730.859375 628.035156 C 725.1875 617.808594 717.519531 606.023438 704.425781 605.714844 C 673.191406 604.152344 641.707031 603.84375 610.535156 605.898438 C 595.699219 607.519531 596.695312 624.980469 596.445312 636.078125 Z M 596.445312 636.078125 "/>
<path style=" stroke:none;fill-rule:nonzero;fill:rgb(18.823529%,31.764706%,69.019608%);fill-opacity:1;" d="M 719.265625 95.089844 C 763.902344 95.464844 808.601562 94.15625 853.242188 95.714844 C 870.136719 97.273438 890.898438 100.203125 899.3125 117.164062 C 908.105469 136.308594 905.425781 163.742188 886.285156 175.714844 C 864.960938 188.746094 838.777344 185.941406 814.898438 186.691406 C 801.996094 202.839844 806.296875 224.101562 805.546875 243.246094 C 806.421875 257.585938 803.429688 273.363281 810.847656 286.457031 C 836.472656 296.558594 866.769531 285.585938 891.457031 299.925781 C 913.902344 311.960938 915.648438 342.886719 906.796875 364.089844 C 897.691406 383.730469 874.5 389.28125 854.800781 389.839844 C 809.601562 390.714844 764.464844 389.777344 719.265625 390.152344 C 719.265625 291.757812 719.265625 193.425781 719.265625 95.089844 Z M 719.265625 95.089844 "/>
<path style=" stroke:none;fill-rule:nonzero;fill:rgb(18.823529%,31.764706%,69.019608%);fill-opacity:1;" d="M 1214.089844 95.902344 C 1294.203125 96.523438 1374.5 94.28125 1454.550781 96.960938 C 1456.421875 100.515625 1460.222656 107.6875 1462.09375 111.242188 C 1437.84375 134 1416.457031 160.003906 1390.585938 180.890625 C 1331.859375 182.761719 1272.941406 181.078125 1214.152344 181.578125 C 1214.089844 153.019531 1214.152344 124.460938 1214.089844 95.902344 Z M 1214.089844 95.902344 "/>
<path style=" stroke:none;fill-rule:nonzero;fill:rgb(18.823529%,31.764706%,69.019608%);fill-opacity:1;" d="M 1214.152344 287.953125 C 1283.355469 288.140625 1352.554688 287.640625 1421.757812 288.078125 C 1436.097656 285.523438 1437.34375 305.789062 1427.121094 311.460938 C 1399.066406 337.652344 1371.570312 364.648438 1342.644531 389.839844 C 1300.25 394.519531 1256.921875 390.277344 1214.152344 391.710938 C 1214.152344 357.105469 1214.089844 322.5625 1214.152344 287.953125 Z M 1214.152344 287.953125 "/>
<path style=" stroke:none;fill-rule:nonzero;fill:rgb(18.823529%,31.764706%,69.019608%);fill-opacity:1;" d="M 1750.3125 713.960938 C 1789.898438 716.082031 1831.609375 707.726562 1869.515625 722.253906 C 1897.132812 733.105469 1914.777344 762.097656 1913.777344 791.46875 C 1913.839844 841.726562 1914.777344 892.046875 1913.339844 942.304688 C 1912.40625 975.914062 1884.601562 1004.035156 1852.121094 1009.335938 C 1818.515625 1014.757812 1784.289062 1011.207031 1750.4375 1012.015625 C 1750.125 912.683594 1750.375 813.355469 1750.3125 713.960938 Z M 1750.3125 713.960938 "/>
<path style=" stroke:none;fill-rule:nonzero;fill:rgb(18.823529%,31.764706%,69.019608%);fill-opacity:1;" d="M 1356.609375 752.246094 C 1376.746094 810.050781 1395.886719 868.101562 1415.835938 925.964844 C 1376.371094 926.027344 1336.90625 925.964844 1297.445312 925.964844 C 1316.957031 867.976562 1336.84375 810.175781 1356.609375 752.246094 Z M 1356.609375 752.246094 "/>
</g>
</svg>
