<?xml version="1.0" encoding="utf-8"?>
<!-- Generator: Adobe Illustrator 12.0.1, SVG Export Plug-In . SVG Version: 6.00 Build 51448)  -->
<!DOCTYPE svg PUBLIC "-//W3C//DTD SVG 1.1//EN" "http://www.w3.org/Graphics/SVG/1.1/DTD/svg11.dtd" [
	<!ENTITY ns_svg "http://www.w3.org/2000/svg">
	<!ENTITY ns_xlink "http://www.w3.org/1999/xlink">
]>
<svg  version="1.1" id="Layer_1" xmlns="&ns_svg;" xmlns:xlink="&ns_xlink;" width="300.094" height="71.011"
	 viewBox="0 0 300.094 71.011" overflow="visible" enable-background="new 0 0 300.094 71.011" xml:space="preserve">
<path fill="#010101" d="M7.985,7.813h6.52c5.959,0,8.585,1.883,8.585,5.708c0,3.324-2.626,5.581-7.897,5.581H7.985V7.813z
	 M0.088,45.423h15.98c8.398,0,16.796-3,16.796-12.657c0-5.708-4.002-10.09-9.579-10.724V21.91c4.563-1.367,7.71-4.69,7.71-9.706
	c0-8.088-6.903-11.157-13.61-11.157H0.088V45.423z M7.985,25.868h7.582c6.392,0,9.411,1.632,9.411,6.274
	c0,5.821-5.654,6.515-9.726,6.515H7.985V25.868z"/>
<line fill="none" stroke="#010101" stroke-width="7.5" stroke-miterlimit="10" x1="41.794" y1="45.423" x2="41.794" y2="0"/>
<path fill="#010101" d="M58.099,30.382c0-4.701,3.324-9.022,8.841-9.022c5.517,0,8.831,4.322,8.831,9.022s-3.314,9.023-8.831,9.023
	C61.423,39.405,58.099,35.083,58.099,30.382 M50.576,30.382c0,9.465,7.267,15.789,16.364,15.789c9.086,0,16.364-6.323,16.364-15.789
	S76.026,14.583,66.94,14.583C57.843,14.583,50.576,20.917,50.576,30.382"/>
<path fill="#010101" d="M94.219,30.382c0-4.701,3.324-9.022,8.841-9.022c5.517,0,8.831,4.322,8.831,9.022s-3.314,9.023-8.831,9.023
	C97.543,39.405,94.219,35.083,94.219,30.382 M86.696,30.382c0,9.465,7.268,15.789,16.364,15.789c9.086,0,16.364-6.323,16.364-15.789
	s-7.277-15.798-16.364-15.798C93.964,14.583,86.696,20.917,86.696,30.382"/>
<path fill="#010101" d="M124.006,15.336h7.149v4.706h0.118c1.318-2.822,4.199-5.463,9.214-5.463c4.642,0,7.848,1.814,9.411,5.581
	c2.193-3.816,5.389-5.581,9.893-5.581c8.024,0,10.848,5.713,10.848,12.922v17.923h-7.523V28.376c0-3.757-1.121-7.017-5.576-7.017
	c-4.7,0-6.461,3.884-6.461,7.764v16.3h-7.513V27.5c0-3.708-1.505-6.141-5.143-6.141c-4.947,0-6.894,3.624-6.894,7.641v16.423h-7.523
	V15.336z"/>
<path fill="#010101" d="M201.686,30.382c0,4.706-3.314,9.023-8.841,9.023c-5.518,0-8.841-4.317-8.841-9.023
	c0-4.701,3.323-9.033,8.841-9.033C198.371,21.349,201.686,25.681,201.686,30.382 M176.736,45.423h7.149v-4.51h0.118
	c2.202,3.624,6.146,5.257,10.354,5.257c9.264,0,14.85-6.894,14.85-15.789c0-8.9-5.959-15.798-14.544-15.798
	c-5.636,0-8.654,2.626-10.218,4.583h-0.187V0h-7.523V45.423z"/>
<path fill="#010101" d="M220.134,27.373c0.561-4.332,3.324-7.149,7.769-7.149c4.701,0,7.582,2.759,7.651,7.149H220.134z
	 M243.076,33.013v-2.065c0-10.473-5.703-16.364-14.102-16.364c-9.106,0-16.364,6.333-16.364,15.798s7.258,15.789,16.364,15.789
	c4.75,0,9.214-1.691,12.715-6.009l-5.389-4.066c-1.878,2.307-4.327,4.066-8.084,4.066c-4.198,0-7.592-2.699-8.083-7.149H243.076z"/>
<path fill="#010101" d="M247.974,15.336h7.523v4.765h0.128c1.632-3.447,4.946-5.522,8.899-5.522c0.944,0,1.819,0.192,2.694,0.447
	v7.268c-1.249-0.31-2.448-0.561-3.639-0.561c-7.08,0-8.083,5.959-8.083,7.592v16.099h-7.523V15.336z"/>
<path fill="#010101" d="M284.045,21.359c5.448,0,8.899,3.624,8.899,8.84c0,5.006-3.383,8.831-8.959,8.831
	c-5.074,0-8.841-3.948-8.841-8.713C275.145,24.983,278.773,21.359,284.045,21.359 M292.944,15.336v4.514h-0.118
	c-2.202-3.639-6.155-5.271-10.354-5.271c-9.273,0-14.85,6.898-14.85,15.803c0,8.516,5.959,15.415,14.978,15.415
	c3.766,0,7.65-1.436,9.854-4.381h0.107v2.198c0,5.949-2.242,10.09-9.519,10.09c-4.199,0-7.337-1.574-10.346-4.347l-4.504,6.155
	c4.248,3.776,9.332,4.957,14.918,4.957c11.723,0,16.983-6.903,16.983-17.741V15.336H292.944z"/>
<polygon fill="#010101" points="4.258,58.61 0,58.61 0,55.69 11.811,55.69 11.811,58.61 7.542,58.61 7.542,70.637 4.258,70.637 "/>
<polygon fill="#010101" points="14.574,55.69 24.723,55.69 24.723,58.738 17.868,58.738 17.868,61.531 24.349,61.531 24.349,64.56 
	17.868,64.56 17.868,67.598 25.106,67.598 25.106,70.627 14.574,70.627 "/>
<polygon fill="#010101" points="29.049,55.69 32.344,55.69 32.344,67.598 38.431,67.598 38.431,70.627 29.049,70.627 "/>
<polygon fill="#010101" points="41.559,55.69 51.707,55.69 51.707,58.738 44.853,58.738 44.853,61.531 51.324,61.531 51.324,64.56 
	44.853,64.56 44.853,67.598 52.081,67.598 52.081,70.627 41.559,70.627 "/>
<polygon fill="#010101" points="54.008,55.69 57.774,55.69 61.453,65.484 61.492,65.484 65.249,55.69 68.779,55.69 62.613,70.627 
	59.978,70.627 "/>
<line fill="none" stroke="#010101" stroke-width="3.3" stroke-miterlimit="10" x1="72.909" y1="70.627" x2="72.909" y2="55.69"/>
<path fill="#010101" d="M86.746,59.348c-0.521-0.669-1.583-1.003-2.38-1.003c-0.934,0-2.223,0.433-2.223,1.554
	c0,2.724,6.874,0.963,6.874,6.195c0,3.333-2.675,4.917-5.753,4.917c-1.917,0-3.609-0.57-5.025-1.869l2.34-2.586
	c0.688,0.895,1.78,1.406,2.872,1.406c1.082,0,2.281-0.491,2.281-1.554c0-2.733-7.001-1.259-7.001-6.244
	c0-3.177,2.763-4.849,5.694-4.849c1.682,0,3.304,0.452,4.573,1.563L86.746,59.348z"/>
<line fill="none" stroke="#010101" stroke-width="3.3" stroke-miterlimit="10" x1="94.682" y1="70.627" x2="94.682" y2="55.69"/>
<path fill="#010101" d="M107.554,55.316c4.651,0,8.054,3.059,8.054,7.848s-3.403,7.848-8.054,7.848
	c-4.671,0-8.064-3.059-8.064-7.848S102.883,55.316,107.554,55.316 M107.554,67.972c2.793,0,4.632-2.025,4.632-4.809
	s-1.839-4.809-4.632-4.809c-2.813,0-4.642,2.025-4.642,4.809S104.742,67.972,107.554,67.972"/>
<polygon fill="#010101" points="118.391,55.69 122.866,55.69 129.218,66.075 129.258,66.075 129.258,55.69 132.552,55.69 
	132.552,70.627 128.235,70.627 121.725,59.997 121.686,59.997 121.686,70.627 118.391,70.627 "/>
</svg>
