<?xml version="1.0" encoding="utf-8"?>
<!-- Generator: Adobe Illustrator 22.0.1, SVG Export Plug-In . SVG Version: 6.00 Build 0)  -->
<svg version="1.1" id="Livello_1" xmlns="http://www.w3.org/2000/svg" xmlns:xlink="http://www.w3.org/1999/xlink" x="0px" y="0px"
	 viewBox="0 0 333.5 333.5" style="enable-background:new 0 0 333.5 333.5;" xml:space="preserve">
<style type="text/css">
	.st0{fill:#00A2D3;}
	.st1{fill:#FEFFFE;}
</style>
<path class="st0" d="M166.7,333.5L166.7,333.5C74.7,333.5,0,258.8,0,166.7v0C0,74.7,74.7,0,166.7,0h0c92.1,0,166.7,74.7,166.7,166.7
	v0C333.5,258.8,258.8,333.5,166.7,333.5z"/>
<g id="_x23_fefffeff">
	<path class="st1" d="M149.1,63.3c4.5-1.4,9.5-1.4,13.9,0.2c7.1,3,12.5,10.3,12.4,18.2c0.4,9.9-7.9,19.1-17.8,19.8
		c-10,1.3-20.1-6.3-21.3-16.4C134.6,76,140.4,66.3,149.1,63.3z"/>
	<path class="st1" d="M242.9,69.9c8.9-3,19.1-1.3,26.9,3.7c5.6,3.6,5,13.4-1.2,16c-5,2.5-10.3-0.5-15.3-1.4c-3.9-1-8.1,0.3-11.3,2.8
		c-5.8,4.3-10,11.3-9.7,18.7c-0.1,7.1,2.9,14.4,8.3,19.1c10.3,7.8,27.1,0.6,29.2-12c-6.9-1.1-13.5,6.1-20.1,1.9
		c-3.6-3.8-1.5-10.1,3.1-12c7.9-3.6,16.2-7.4,25-7.2c5.3,0,9,5.2,9.1,10.1c1.6,14.7-8.2,29.2-21.9,34.3c-12,5-26.3,3-37-4.3
		c-0.4,3-0.4,6.4-2.8,8.6c-3.1,2.8-7.2,4.8-11.5,5.1c-4-0.2-6.8-3.6-8.9-6.7c-3.8-6.1-6.9-12.6-9.9-19.1c-0.5-1.2-1.3-2.1-2.2-3
		c1.3,8.9,5.1,17.3,5.8,26.2c0.3,4.6-4.4,8.1-8.8,7c-3.9-0.3-5.5-4.6-5.9-7.9c-2.5-13.5-5.1-27-8.8-40.2c-0.5-2.2-0.6-4.7,0.9-6.5
		c2.9-4,7.9-6.1,12.7-6.4c4.4,0.1,7.5,4,9.4,7.6c3.5,7.2,7,14.4,10.2,21.8c1.2,2.5,2,5.3,4.3,7c-2.7-8.7-5.3-17.5-8-26.3
		c-1.3-4.3-3.6-8.5-3.5-13.1c0.4-5.8,8.4-9,12.6-5.1c1.6,1.2,1.4,4.2,3.5,4.8C222.5,82.7,231.2,73,242.9,69.9z"/>
	<path class="st1" d="M48.6,101.6c9.2-3.7,19.7-6.7,29.5-3.2c10.5,3.6,15.4,16.9,11.3,26.9c-1.2,3.6-4.1,6.1-6,9.4
		c5.7-0.6,11.4-0.4,16.9,0.9c1.2-11.5,8.7-22.2,19.3-26.9c10.4-4.6,23.8-4,32.8,3.4c1.8,1.5,3.4,3.2,5,4.8c0.1-0.7,0.4-2.2,0.6-3
		c1.3-4.4,7.2-6.7,11.2-4.6c1.8,1,2.9,2.8,3.6,4.6c2.4,6.6,3.9,13.5,5.4,20.3c1.4,6.4,2.8,12.9,2.9,19.4c-1.1,3.3-5.3,4.7-8.2,2.9
		c-3.3-1.8-3.8-5.8-5.1-8.9c-1.7,5.1-2.4,10.7-5.8,15.1c-9.7,14.6-31.3,18.7-46.1,9.8c-1.8,4.9-3.9,9.8-7.3,13.7
		c-7.1,8.4-17,13.9-27.1,17.8c-7.6,2.9-16.8,2.3-23.3-2.8c-3.6-2.8-5.1-7.3-6.5-11.4c-5.7-19.2-11-38.5-15-58.1
		c-1.2-6.2-3.3-12.6-1.5-18.9C37.1,107.1,43.2,104,48.6,101.6 M59.1,114.2c-2.6,0.9-6.6,2.1-6.3,5.6c0.2,4.5,1.5,8.8,2.9,13
		c0.7,1.8,1.6,4.5,4.1,3.9c8.1-0.9,15.2-9.5,12.6-17.7C70.7,113.7,63.8,112.4,59.1,114.2 M128.1,124.2c-7.1,1.7-12.8,8.3-13.2,15.6
		c-0.7,7.8,2.8,16.1,9.2,20.7c8,5.1,19.6,2.3,24.6-5.7c5.2-7.7,4-18.8-2.5-25.4C141.7,124.5,134.4,122.5,128.1,124.2 M71.1,151.2
		c-4.5,1.1-8.7,5.6-7.5,10.5c1.6,6.9,2.8,14,5.6,20.6c1.5,3.9,6.6,4.2,9.9,2.7c5.9-2.5,11.6-7,13.6-13.3c2.4-7.5-0.6-17.5-8.5-20.4
		C80,150,75.3,150.1,71.1,151.2z"/>
</g>
</svg>
