<svg xmlns="http://www.w3.org/2000/svg" height="160" width="160" version="1.1" >
<path d="M-51.186,118.57-60.766,73.372-104.7,87.674-70.346,56.78-104.7,25.885-60.766,40.187-51.186-5.0099z" transform="translate(131.20338,23.254237)" fill="#bb2c28"/>
<path fill="#bb2c28" d="M80.031,16.781v1.469l9.563,45.188,43.936-14.282-34.342,30.875,34.342,30.909-43.936-14.315-9.563,45.185v1.75c35.009,0,63.379-28.36,63.379-63.372,0-35.01-28.37-63.407-63.379-63.407z"/>
<path fill="#bb2c28" d="M80.094,0.46875c-44.032,0-79.75,35.718-79.75,79.75,0,44.031,35.718,79.721,79.75,79.721,44.036,0,79.716-35.69,79.716-79.721,0-44.032-35.68-79.75-79.716-79.75zm0,8.75c39.196,0,70.966,31.801,70.966,71,0,39.201-31.77,70.971-70.966,70.971-39.199,0-71-31.77-71-70.971,0-39.199,31.801-71,71-71z"/>
</svg>
