<?xml version="1.0" encoding="utf-8"?>
<!-- Generator: Adobe Illustrator 16.0.0, SVG Export Plug-In . SVG Version: 6.00 Build 0)  -->
<!DOCTYPE svg PUBLIC "-//W3C//DTD SVG 1.1//EN" "http://www.w3.org/Graphics/SVG/1.1/DTD/svg11.dtd">
<svg version="1.1"
	 id="svg3100" xmlns:dc="http://purl.org/dc/elements/1.1/" xmlns:cc="http://creativecommons.org/ns#" xmlns:rdf="http://www.w3.org/1999/02/22-rdf-syntax-ns#" xmlns:svg="http://www.w3.org/2000/svg" xmlns:sodipodi="http://sodipodi.sourceforge.net/DTD/sodipodi-0.dtd" xmlns:inkscape="http://www.inkscape.org/namespaces/inkscape" sodipodi:docname="NBC_30_Conn.png" inkscape:version="0.48.5 r10040"
	 xmlns="http://www.w3.org/2000/svg" xmlns:xlink="http://www.w3.org/1999/xlink" x="0px" y="0px" width="700.806px"
	 height="560.091px" viewBox="-66.809 -112.76 700.806 560.091" enable-background="new -66.809 -112.76 700.806 560.091"
	 xml:space="preserve">
<g>
	<path id="path3113" inkscape:connector-curvature="0" fill="#FFFFFF" d="M283.57-59.301c-10.925-27.278-37.54-56.738-87.388-52.691
		c-63.499,6.903-83.287,67.756-73.689,104.059C97.202-25.058,54.199-32.588,16.664-0.436C-31.8,48.145-5.877,113.845,20.765,129.604
		c-29.362-2.718-75.768,17.122-86.034,69.022c-10.921,64.438,38.201,102.003,86.034,102.003h530.413
		c55.312,0,86-47.851,82.558-92.979c-5.426-58.896-59.321-81.493-88.72-76.651c24.562-13.704,57.365-78.076,7.485-128.682
		c-39.595-37.662-90.07-23.958-107.818-7.532c9.567-31.462-6.122-96.498-70.341-106.784c-4.44-0.497-8.714-0.763-12.787-0.763
		C312.532-112.755,290.488-76.919,283.57-59.301"/>
	<path id="path3115" inkscape:connector-curvature="0" fill="#F37021" d="M25.497,9.818c-28.003,25.35-38.195,82.79,12.286,116.368
		l201.391,138.169L141.526,40.642C121.064-12.149,65.086-23.661,25.497,9.818"/>
	<path id="path3117" inkscape:connector-curvature="0" fill="#CC004C" d="M198.857-98.951c-32.736,0.667-81.893,39.65-60.017,99.178
		l100.995,238.186l35.489-250.526C283.536-74.363,236.427-103.099,198.857-98.951"/>
	<path id="path3119" inkscape:connector-curvature="0" fill="#6460AA" d="M291.084-21.668h19.097c0,0,10.198,0,11.586,4.811
		c-7.515,6.137-27.97,6.906-25.254,39.687l32.103,215.549L428.921-0.432c20.517-53.322-22.548-97.854-60.749-99.215
		c-1.784-0.128-3.575-0.232-5.429-0.232C328.456-99.88,289.164-74.961,291.084-21.668"/>
	<path id="path3121" inkscape:connector-curvature="0" fill="#0089D0" d="M424.883,42.671l-94.872,221.029l201.332-138.898
		c46.41-32.918,38.925-85.546,12.946-111.56C533.398,0.998,513.401-8.46,492.218-8.46C467.192-8.465,440.409,4.809,424.883,42.671"
		/>
	<path id="path3123" inkscape:connector-curvature="0" fill="#0DB14B" d="M508.801,156.251L319.726,288.318h232.806
		c47.763,0,78.457-49.246,64.812-94.438c-9.139-28.406-36.177-50.704-67.56-50.736C536.574,143.149,522.565,147.128,508.801,156.251
		"/>
	<path id="path3125" inkscape:connector-curvature="0" fill="#FCB711" d="M20.072,288.318h229.371L60.32,156.251
		C16.628,128.179-32.5,144.605-50.236,191.19C-65.27,244.517-27.733,288.318,20.072,288.318"/>
	<path fill="#292526" d="M-66.069,383.898c0,22.492,18.387,63.433,88.595,63.433c64.73,0,85.174-29.702,85.174-43.321H57.587
		c0,0-2.38,17.993-30.649,17.993c-28.287,0-35.937-23.611-35.937-37.264c0-13.601,7.65-35.937,35.937-35.937
		c28.269,0,30.649,15.665,30.649,15.665H107.7c0-13.635-15-42.918-85.174-42.918C-47.682,321.549-66.069,365.151-66.069,383.898"/>
	<path fill="#292526" d="M459.487,383.898c0,22.492,18.406,63.433,88.595,63.433c64.724,0,85.176-29.702,85.176-43.321H583.18
		c0,0-2.391,17.993-30.667,17.993c-28.29,0-35.948-23.611-35.948-37.264c0-13.601,7.658-35.937,35.948-35.937
		c28.276,0,30.667,15.665,30.667,15.665h50.078c0-13.635-14.984-42.918-85.176-42.918
		C477.894,321.549,459.487,365.151,459.487,383.898"/>
	<polyline fill="#292526" points="244.659,323.649 244.659,399.79 186.338,323.649 120.732,323.649 120.732,444.25 165.709,444.25 
		165.709,367.234 223.009,444.25 289.639,444.25 289.639,323.649 244.659,323.649 	"/>
	<path fill="#292526" d="M388.786,415.438v0.159h-37.476v-22.144h37.476v0.072c8.002,0,14.469,4.918,14.469,10.974
		C403.255,410.54,396.788,415.438,388.786,415.438 M351.654,347.105h36.11v0.051c6.118,0,11.079,4.025,11.079,8.979
		c0,4.973-4.961,8.963-11.079,8.963v0.054h-36.11V347.105z M425.593,380.134c8.188,0,25.308-9.505,25.308-27.919
		c0-26.221-48.827-28.566-56.317-28.566h-89.962V444.25h89.962c43.268,0,60.649-13.669,60.649-36.495
		S425.593,380.134,425.593,380.134z"/>
</g>
</svg>
