<?xml version="1.0" encoding="utf-8"?>
<!-- Generator: Adobe Illustrator 22.0.1, SVG Export Plug-In . SVG Version: 6.00 Build 0)  -->
<svg version="1.1" id="Layer_1" xmlns="http://www.w3.org/2000/svg" xmlns:xlink="http://www.w3.org/1999/xlink" x="0px" y="0px"
	 width="1000px" height="464.6231995px" viewBox="0 0 1000 464.6231995" enable-background="new 0 0 1000 464.6231995"
	 xml:space="preserve">
<g>
	<path fill="#CC0000" d="M75.813736,232.4557648c0,85.2241669,69.3338623,154.5580292,154.5579529,154.5580292h144.365921
		c9.0664673,0,16.0979004-8.617981,16.0979004-16.0397339V87.7451553c0-17.8921356,14.5570679-32.4532509,32.4449463-32.4532509
		c11.4753723,0,22.1698914,6.0844536,27.9013672,15.8859978c0.7185059,1.2336197,44.4270325,76.5895844,90.697998,156.3770905
		c44.2110596,76.2406616,89.9338379,155.0772095,90.6523438,156.3147583
		c2.3133545,3.9455872,6.8361816,6.4915466,11.5293579,6.4915466c7.4342041,0,13.4854736-6.0470581,13.4854736-13.4855347
		V87.7451553c0-17.8921356,14.5487671-32.4532509,32.4450073-32.4532509c11.4753418,0,22.1698608,6.0844536,27.8971558,15.8859978
		c0.7268677,1.2336197,44.3979492,76.5895844,90.6399536,156.3812866
		c44.1694336,76.2240448,89.850708,155.0396576,90.5858154,156.3105621
		c2.3133545,3.9455872,6.8361816,6.4915466,11.5293579,6.4915466c7.4343262,0,13.4771729-6.0470581,13.4771729-13.4855347V2.0226164
		h-56.9031982v223.1318054c0,0-103.1036987-177.4629822-106.4429321-183.1694794
		C745.7240601,16.2557125,717.1831055,0,686.8065186,0c-47.5834961,0-86.1710205,38.6042442-86.1710205,86.1835098v138.9709167
		c0,0-103.0996094-177.4629822-106.4429016-183.1694794C479.1412659,16.2557125,450.6003723,0,420.2237244,0
		c-47.5834351,0-86.1710205,38.6042442-86.1710205,86.1835098v228.3565674
		c0.0290527,8.3106079-6.2173767,15.553772-15.3129578,15.5703735h-87.7575226
		c-53.9295807,0-97.6505432-43.7208557-97.6505432-97.6546783c0-53.9336853,43.7209625-97.6546783,97.6505432-97.6546783h73.5078278
		V77.8978577h-74.1183624C145.1475983,77.8978577,75.813736,147.23172,75.813736,232.4557648"/>
	<path fill="#CC0000" d="M943.0925903,2.0208421v374.8573303c0,17.8961792-14.5488281,32.4532471-32.4450073,32.4532471
		c-11.4753418,0-22.1699219-6.0844727-27.9014282-15.881958c-0.7183838-1.23349-44.3978271-76.5936279-90.6314697-156.3811493
		c-44.1777954-76.219986-89.8466187-155.0439758-90.5942383-156.3106689
		c-2.3049927-3.945488-6.8361816-6.4956207-11.5292969-6.4956207c-7.4342651,0-13.4772339,6.0470657-13.4772339,13.4813614
		v289.1347961c0,17.8961792-14.5570068,32.4532471-32.4490967,32.4532471c-11.4753418,0-22.1615601-6.0844727-27.9013672-15.881958
		c-0.7184448-1.23349-44.4269409-76.5895691-90.697998-156.3811493
		c-44.2151794-76.2365875-89.9338074-155.072998-90.6565247-156.3106689
		c-2.313324-3.945488-6.8361816-6.4956207-11.5292969-6.4956207c-7.4342957,0-13.4772339,6.0470657-13.4772339,13.4813614
		v283.2329712c0,18.6480408-16.3844299,35.0075684-35.0614319,35.0075684H230.3749695
		c-95.6818695,0-173.5298462-77.8396912-173.5298462-173.5299225c0-95.6818695,77.8479843-173.5256042,173.5298462-173.5256042
		h74.1142273V2.0208421H230.441452C103.1742935,2.0208421,0,105.1869583,0,232.4539948
		c0,127.271347,103.1742935,230.4415131,230.441452,230.4415131h145.7489777
		c55.2128906,0.0290222,90.71875-32.3204041,90.644043-91.9897461V239.4688873c0,0,103.8388062,178.7255096,106.4470215,183.1735382
		c15.0512695,25.7250671,43.5922241,41.9807739,73.968811,41.9807739c47.5876465,0,86.1669312-38.604126,86.1669312-86.1793518
		V239.4688873c0,0,103.1036987,177.4670563,106.4428711,183.1735382
		c15.0554199,25.7250671,43.5963745,41.9807739,73.9729614,41.9807739c47.5834961,0,86.1669312-38.604126,86.1669312-86.1793518
		V2.0208421H943.0925903z"/>
	<path fill="#FFFFFF" d="M56.8468132,232.4557648c0,95.6860504,77.843811,173.5299225,173.5256958,173.5299225h144.365921
		c18.677063,0,35.0656738-16.3594971,35.0656738-35.0116272V87.7451553c0-7.4343033,6.0429382-13.481369,13.4771729-13.481369
		c4.6931763,0,9.2159729,2.5459518,11.5293579,6.4914398c0.7185364,1.2418594,46.4412842,80.07827,90.6565247,156.3148804
		c46.2709961,79.7875061,89.9752808,155.1434631,90.697998,156.3811646
		c5.7355957,9.7974854,16.421814,15.8777466,27.8971558,15.8777466c17.8963013,0,32.4532471-14.5570679,32.4532471-32.4532471
		V87.7451553c0-7.4343033,6.0429688-13.481369,13.4772949-13.481369c4.6930542,0,9.2201538,2.5459518,11.5292969,6.4914398
		c0.7434082,1.2708817,46.4163818,80.0908127,90.5941772,156.3106995
		c46.2336426,79.7875061,89.9088745,155.147644,90.6315918,156.3853455
		c5.7315063,9.7974854,16.4217529,15.8777466,27.8970947,15.8777466c17.8963623,0,32.4492188-14.5570679,32.4492188-32.4532471
		V2.0226164h-18.9718628v374.8531494c0,7.4384766-6.0430298,13.4855347-13.477356,13.4855347
		c-4.6929932,0-9.2159424-2.5459595-11.5292969-6.4915466c-0.7391968-1.2709045-46.4163208-80.0865173-90.5858154-156.3105621
		c-46.2419434-79.7917023-89.9130859-155.1476746-90.6398926-156.3812866
		c-5.7315063-9.8015442-16.421814-15.8859978-27.8971558-15.8859978c-17.8963013,0-32.4491577,14.5611153-32.4491577,32.4532509
		v289.1306152c0,7.4384766-6.0471191,13.4855347-13.4813843,13.4855347c-4.6931152,0-9.2159424-2.5459595-11.5292969-6.4915466
		c-0.7185669-1.2375488-46.4412842-80.0740967-90.6565552-156.3147583
		c-46.2709656-79.7875061-89.9753113-155.1434631-90.697998-156.3770905
		c-5.7314148-9.8015442-16.421814-15.8859978-27.8971863-15.8859978c-17.8920593,0-32.4449463,14.5611153-32.4449463,32.4532509
		v283.2289124c0,7.4217529-7.0314331,16.0397339-16.0979004,16.0397339h-144.365921
		c-85.2240906,0-154.5579529-69.3338623-154.5579529-154.5580292c0-85.2240448,69.3338623-154.5579071,154.5579529-154.5579071
		h74.114212V58.9259758h-74.114212C134.6906281,58.9259758,56.8468132,136.7698364,56.8468132,232.4557648"/>
</g>
</svg>
