<?xml version="1.0" encoding="UTF-8"?>
<svg width="2485pt" height="446pt" version="1.1" viewBox="0 0 2485 446" xmlns="http://www.w3.org/2000/svg">
<g fill="#fd0000">
<path d="m1022.3 2.2148c27.617-0.16406 55.32-0.16406 82.941-0.082032-0.16406 25.414-0.24609 50.828-0.24609 76.328 24.422 0.082031 48.848 0.082031 73.27 0.082031-0.24219 23.855-0.24219 47.797-0.082032 71.734-24.504-0.16406-49.008-0.16406-73.434 0.49219 4.1797 62.637-7.457 127.08 6.8828 188.57 21.723 5.4141 44.016 5.9844 66.062 2.3789 0 22.711 0 45.5-0.65625 68.211-40.078 5.7383-83.68 12.215-121.63-5.9023-25.242-11.887-33.602-41.648-32.945-67.473-0.24609-111.5 0.16406-222.92-0.16406-334.34z"/>
<path d="m1796.6 8.6914c40.406-23.859 98.023 9.4258 94.582 56.898 1.1484 47.879-60.324 79.523-98.844 50.992-39.258-23.281-36.473-87.559 4.2617-107.89z"/>
<path d="m95.156 86.578c58.105-24.762 134.25-23.777 183.67 19.184 18.277 16.152 30.078 37.793 41.391 59.027-23.852 11.07-47.617 22.383-72.125 31.977-9.5078-20.496-24.668-38.945-46.469-46.816-39.996-16.805-87.289 7.7891-103.84 46.16-26.473 52.797-6.2305 135.36 57.699 148.48 44.914 12.051 82.531-24.926 98.762-63.129 23.438 12.461 46.961 24.676 70.32 37.219-21.227 42.961-56.062 83.625-104.34 95.434-48.438 11.312-103.59 7.7031-145.8-20.578-105.48-68.297-95.07-254.24 20.738-306.95z"/>
<path d="m745.58 89.691c58.438-28.039 130.73-28.203 189.24-0.41016 32.047 13.691 46.637 49.52 46.309 82.559 0.16406 80.348 0.32813 160.69 0.49219 240.96-27.129 0.082031-54.258 0.082031-81.469-0.082031-0.082031-7.3789-0.32812-22.055-0.41016-29.352-41.469 33.285-98.84 45.5-150.15 31.809-32.785-10.656-64.91-35.254-72.371-70.586-3.6875-21.234-3.6875-43.535 2.2148-64.359 14.262-33.941 47.535-57.391 82.859-65.508 46.719-10.984 94.336-17.871 140.48-31.48-3.6094-16.973-8.2812-36.484-26.473-43.535-24.016-9.0195-51.145-7.543-75.895-2.2148-20.656 4.9219-25.328 27.711-29.59 45.258-27.129-0.082032-54.336-0.90234-81.301-3.6094 1.9648-37.137 21.555-73.211 56.059-89.445m38.027 187.09c-29.504 11.316-29.012 57.145-1.3906 70.262 33.848 14.758 75.566 4.7578 102.53-19.266 22.129-20.988 12.703-54.273 14.75-81.328-37.125 15.82-78.434 15.902-115.89 30.332z"/>
<path d="m1300.3 125.11c21.637-36.812 63.027-53.863 104.33-54.52 1.0664 27.137 0.90234 54.355 0.98438 81.574-40.078 2.7891-88.188 17.547-98.758 61.816-13.852 65.426-3.5273 133.47-6.5586 199.96-27.867-0.082031-55.566-0.082031-83.352 0 0.57422-111.25-0.82031-222.51 0.65625-333.77 27.617 0.16406 55.238 0.24609 82.859 0.082031 0.082032 14.922 0 29.844-0.16406 44.848z"/>
<path d="m1527.6 78.625c84.664-28.941 186.21 16.23 219.98 99.363 24.098 57.145 15.492 127.57-24.668 175.45-42.293 53.785-116.96 79.117-183.18 61.734-76.551-16.805-137.04-90.266-135.72-169.21-1.7227-75.102 52.289-145.77 123.59-167.33z"/>
<path d="m342.92 79.445c27.047-0.082031 54.094-0.082031 81.137-0.082031 0 63.699 0 127.48-0.16406 191.19 0.082031 22.711 1.6406 49.109 20 65.18 29.504 23.445 74.5 22.465 103.84-0.90234 18.684-15.086 15.98-41.566 18.355-63.047 1.1484-64.113 0.082031-128.31 0.41016-192.42h80.156c-0.65625 77.637 0.57422 155.28-0.57422 232.84-0.32812 35.09-18.52 70.508-49.828 87.562-44.832 25.004-98.926 30.168-148.84 20.496-39.832-9.8398-81.465-32.387-97.367-72.395-7.293-24.922-7.1289-51.242-7.375-76.984 0.32812-63.785-0.16406-127.57 0.24609-191.43z"/>
<path d="m1953 440.67c16.145-103.05 35.734-205.54 54.258-308.27 23.766-0.49219 47.535-0.65625 71.305 0-6.2305 39.762-15.082 79.117-20.574 119.04 31.309 1.3125 62.699 0.82031 94.09 0.49219 10.328-39.516 13.688-80.348 23.688-119.95 22.949-0.082032 45.977-0.16406 69.008 0.32812-18.605 102.89-35.324 206.11-55.812 308.68-22.949 0.082031-45.816 0.082031-68.766-0.16406 6.0664-41.648 14.836-82.887 21.719-124.45-31.555-1.3945-63.105-1.3125-94.66-0.082031-9.8359 40.746-15.41 82.312-23.195 123.47-23.688 1.5586-47.371 1.4766-71.059 0.90234z"/>
<path d="m2266.3 132.08c58.355 3.2812 118.52-10.82 175.39 7.625 21.391 6.9688 37.207 26.809 39.258 49.273 4.0156 47.387-12.129 93.379-18.77 139.87-5.9023 42.551-25.652 89.855-70.156 103.79-58.848 16.809-120.89 5.6562-181.13 6.8867 18.441-102.48 35.898-205.21 55.402-307.45m61.223 62.883c-12.785 60.668-24.094 121.75-32.043 183.24 27.047-0.82031 57.699 7.2969 81.957-8.6914 13.277-12.625 11.805-32.629 15.656-49.109 4.5078-36.402 14.258-71.82 18.93-108.14-15.652-30.746-57.125-17.465-84.5-17.301z"/>
</g>
</svg>
