<svg width="1738.15" height="616.25" xmlns="http://www.w3.org/2000/svg" xmlns:svg="http://www.w3.org/2000/svg" xmlns:xlink="http://www.w3.org/1999/xlink">
 <title>Disney Junior.svg</title>
 <metadata id="metadata3125">image/svg+xml</metadata>
 <defs>
  <linearGradient id="linearGradient3664">
   <stop stop-color="#a12525" id="stop3666" offset="0"/>
   <stop stop-color="#9c2424" id="stop3668" offset="1"/>
  </linearGradient>
  <linearGradient id="linearGradient3653">
   <stop stop-color="#a12525" id="stop3655" offset="0"/>
   <stop stop-color="#651618" id="stop3657" offset="1"/>
  </linearGradient>
  <linearGradient id="linearGradient3519">
   <stop stop-color="#353535" id="stop3521" offset="0"/>
   <stop stop-color="#2a2a2a" id="stop3523" offset="1"/>
  </linearGradient>
  <linearGradient id="linearGradient3452">
   <stop stop-color="#6a1b14" id="stop3454" offset="0"/>
   <stop stop-color="#741a1a" id="stop3456" offset="1"/>
  </linearGradient>
  <linearGradient id="linearGradient3308">
   <stop stop-color="#96272e" id="stop3310" offset="0"/>
   <stop stop-color="#9e231c" id="stop3312" offset="1"/>
  </linearGradient>
  <linearGradient id="linearGradient3288">
   <stop stop-color="#b02726" id="stop3290" offset="0"/>
   <stop stop-color="#460e0d" offset="0.45428" id="stop3296"/>
   <stop stop-color="#7b1a21" id="stop3292" offset="1"/>
  </linearGradient>
  <radialGradient r="60.491985" fy="242.69054" fx="1167.4923" cy="242.69054" cx="1167.4923" gradientTransform="matrix(-0.11580856,0.93530339,-0.88490442,-0.10956807,1498.3051,-807.20601)" gradientUnits="userSpaceOnUse" id="radialGradient3541" xlink:href="#linearGradient3519"/>
  <linearGradient y2="0.980764" x2="0.886238" y1="0.004991" x1="0.886238" id="linearGradient3728" xlink:href="#linearGradient3288"/>
  <linearGradient y2="0.68489" x2="0.18467" y1="0.392144" x1="0.753284" id="linearGradient3730" xlink:href="#linearGradient3308"/>
  <linearGradient y2="1.024479" x2="0.491482" y1="0.040681" x1="0.491482" id="linearGradient3732" xlink:href="#linearGradient3452"/>
  <linearGradient y2="0.939301" x2="0.202582" y1="0.017916" x1="0.202582" id="linearGradient3734" xlink:href="#linearGradient3664"/>
  <linearGradient y2="0.990618" x2="0.495506" y1="0.070851" x1="0.495506" id="linearGradient3736" xlink:href="#linearGradient3653"/>
 </defs>
 <g>
  <title>Layer 1</title>
  <g fill="#282828" id="g3514"/>
  <g id="g3799">
   <g id="g3756">
    <path fill="#e73636" fill-rule="evenodd" d="m927.377258,328.160217c-2.535828,0.002991 -5.076721,0.120483 -7.625,0.3125c-10.631592,0.795807 -20.855469,3.043396 -30.8125,6.71875c-5.277588,1.944092 -10.092773,4.80072 -15.09375,7.28125c-0.206909,0.248291 -0.505981,0.466248 -0.59375,0.75c-3.357239,11.214508 -7.798157,22.1409 -9.75,33.75c-0.755554,4.484467 -1.573547,8.950592 -2.5,13.40625c-0.393494,1.897522 -1.079895,3.733704 -1.75,5.5625c-0.571167,1.560577 -1.851746,2.156464 -3.5,2.1875c-1.520081,0.031006 -2.933838,-0.309296 -4.34375,-0.8125c-2.986206,-1.061829 -5.683411,-2.652527 -8.0625,-4.6875c-6.006104,-5.1362 -10.228455,-11.3992 -12.25,-19.0625c-0.59137,-2.238922 -0.760864,-4.500214 -0.8125,-6.78125c-0.204651,-8.820435 1.026917,-17.499847 2.53125,-26.15625c0.335083,-1.928558 0.700806,-3.821655 0.6875,-5.78125c-0.98938,-0.033295 -1.97937,-0.093689 -2.96875,-0.093689c-39.146667,-0.003998 -78.319824,0 -117.46875,0c-0.825256,0 -1.643494,-0.035522 -2.46875,0c-1.978821,0.082001 -2.347473,0.418945 -2.4375,2.25c-0.058472,1.139404 -0.031189,2.266815 -0.031189,3.40625l0,268.812439l135.1875,0c0.00061,-40.020813 0.043091,-82.980286 0,-117.718689c-0.007019,-4.413544 0.334412,-8.78241 1,-13.125c0.593628,-3.87265 1.695435,-7.633423 3.65625,-11.09375c2.280151,-4.021179 5.614868,-6.80249 10.03125,-8.25c3.498901,-1.14386 7.133911,-1.445801 10.78125,-1.03125c8.115356,0.919952 13.784241,5.088257 16.71875,12.65625c1.239014,3.200958 1.974731,6.521484 2.375,9.9375c0.681335,5.830017 0.875,11.699188 0.875,17.5625l0.031189,111.406189l135.1875,0l-0.031067,-167.843689c0,-7.32193 -0.223816,-14.637756 -1.031189,-21.9375c-1.31311,-11.875122 -3.865601,-23.434662 -8.1875,-34.59375c-4.764893,-12.307373 -11.49231,-23.426392 -21.03125,-32.75c-14.868042,-14.526337 -33.370667,-21.254883 -53.718689,-23.5625c-4.183899,-0.47522 -8.367371,-0.724365 -12.59375,-0.71875l-0.000305,-0.000061z" id="path3132"/>
    <g transform="matrix(2.21674 0 0 2.21674 60.9879 -16.2643)" id="g3318">
     <path fill="url(#linearGradient3728)" id="path3284" d="m108.127106,279.219635c17.955956,-12.238464 31.183395,-27.347855 32.789505,-49.513016l0,-100.780502c5.071472,-5.592896 8.622208,-10.201805 11.955154,-14.669785l0,116.163315c0,0 -0.837677,18.284927 -14.765427,32.212708c-14.076645,14.07666 -29.979233,16.58728 -29.979233,16.58728z"/>
     <path fill="url(#linearGradient3730)" id="path3298" d="m42.411366,211.158478l18.04575,-1.327621c2.952694,5.928848 6.605286,8.533127 10.377274,10.570206c-1.766396,1.039291 -2.842194,2.586395 -12.031361,2.586395c-10.582542,-0.246185 -13.641453,-6.402527 -16.391663,-11.828979z"/>
     <path clip-rule="evenodd" fill="#e73636" fill-rule="evenodd" d="m140.881256,129.058548c0.022003,0.733002 0.065002,1.34938 0.06601,2.082382c0.002991,32.537003 0.046997,65.074997 -0.02301,97.610992c-0.022995,10.766006 -2.102539,16.131912 -7.573532,25.4729c-6.508011,11.11203 -13.122238,17.94812 -23.913834,24.482483c-6.018005,2.444 -14.13884,4.426453 -20.616844,5.026459c-17.971001,1.664001 -41.162987,0.424347 -57.331982,-7.686646c-6.003002,-3.011993 -11.518002,-6.770996 -16.409001,-11.391998c-2.025002,-1.912994 -1.860001,-1.376007 -0.635002,-3.59201c8.662004,-15.676025 18.119443,-32.27594 26.795426,-47.944946c0.319004,-0.574997 0.828938,-1.414093 1.156929,-1.986099c0.344543,0.607849 0.684074,1.286102 0.958069,1.833099c0.993004,1.988007 2.206001,3.809006 3.784004,5.380005c2.424,2.414001 5.357002,3.787994 8.713013,4.358994c3.243,0.55101 6.434998,0.275009 9.603996,-0.475998c1.146004,-0.270996 2.713463,-0.446762 3.769463,-0.969772c4.433998,-2.196991 6.184525,-4.10463 6.383537,-9.006638c0.029999,-0.733002 0.007004,-3.412582 0.007004,-4.146591c0.000999,-21.73999 0.000999,-43.479996 0.001999,-65.222c1.980995,-0.050003 11.718338,0.194 13.690338,0.322006c4.836998,0.313004 9.675987,0.052002 14.484993,-0.438995c5.317993,-0.545013 10.57901,-1.484009 15.73201,-2.96701c7.015991,-2.01799 8.683411,-2.059235 14.830414,-6.023239c2.281006,-1.470001 4.352005,-3.103378 6.526001,-4.717377z" id="path3138"/>
    </g>
    <g transform="matrix(2.21674 0 0 2.21674 60.9879 -16.2643)" id="g3385">
     <path fill="#e73636" fill-rule="evenodd" id="path3134" d="m226.943954,157.700043l0.014069,59.44809c0,0.592072 0.042908,1.18721 0,1.77626c-0.169632,2.353195 -0.293777,4.715363 -1.198257,6.949936c-1.043472,2.575348 -2.88765,4.262619 -5.638901,4.962234c-2.219803,0.562927 -4.449005,0.584229 -6.682098,0.112778c-3.129395,-0.65741 -5.196701,-2.51445 -6.230988,-5.483826c-0.438446,-1.260544 -0.762238,-2.543839 -0.831726,-3.876755c-0.133881,-2.577347 -0.307144,-5.161011 -0.31015,-7.73938l-0.014069,-56.163437l-60.998795,0l0,69.076508c0.002258,3.989685 0.226044,7.96167 0.944519,11.898087c1.766022,9.690231 5.913605,18.222122 12.758011,25.445572c5.884735,6.210175 12.988113,10.684357 20.878021,13.984467c9.916565,4.15152 20.346603,6.13324 31.056244,6.682098c7.732529,0.397064 15.44133,0.042114 23.105392,-1.212372c8.8741,-1.451538 17.386414,-3.974548 25.346832,-8.134125c6.901642,-3.606689 12.963135,-8.260376 17.833038,-14.322784c7.294067,-9.082108 10.804352,-19.51033 10.953552,-30.999893l0.01413,-72.403458l-60.998825,0z"/>
     <path fill="#800000" fill-rule="evenodd" id="path3379" d="m206.051834,157.706573l0.014099,56.142807c0.003006,2.578369 0.176254,5.162033 0.31015,7.73938c0.069489,1.332916 0.39328,2.616226 0.831726,3.876755c1.034271,2.969376 3.101593,4.826416 6.230988,5.483826c1.920975,0.405533 8.426819,1.294571 10.416275,-1.548035c-1.303879,-0.179672 -4.126709,-0.440887 -5.893738,-2.321457c-1.29361,-1.260529 -2.394852,-2.621582 -2.46434,-3.954498c-0.133881,-2.577347 -0.307129,-5.161011 -0.310135,-7.73938l-0.014099,-56.163422l-9.120926,-1.515976z"/>
     <path fill="#800000" fill-rule="evenodd" id="path3372" d="m287.942749,157.681763l-0.014099,72.421738c-0.1492,11.489548 -3.659485,21.917755 -10.953552,30.999863c-4.869904,6.062439 -10.931396,10.716125 -17.833038,14.322815c-7.960419,4.159546 -16.472717,6.682587 -25.346832,8.134125c-7.664063,1.254486 -15.372864,1.609406 -23.105392,1.212341c-9.898575,-0.507263 -19.564468,-2.242584 -28.800674,-5.779877c0.486862,0.215576 0.987091,0.428131 1.480209,0.634399c9.916565,4.15152 16.540436,4.593018 27.250061,5.141876c7.732559,0.397034 15.569504,0.036285 23.233536,-1.218201c8.874115,-1.451538 17.18042,-3.887878 25.140869,-8.047424c6.901611,-3.606689 13.970642,-7.656189 18.840515,-13.718628c7.294067,-9.082108 13.953857,-20.987442 14.103058,-32.477005l0.021698,-70.071152l-4.016357,-1.554871z"/>
    </g>
    <g transform="matrix(2.21674 0 0 2.21674 60.9879 -16.2643)" id="g3672">
     <g id="g3677">
      <path fill="url(#linearGradient3734)" fill-rule="evenodd" id="path3651" d="m734.952454,155.712326c-4.997009,-0.011017 -9.838989,0.265686 -14.788025,1.113678c-2.46875,0.422501 -4.759644,1.049896 -6.992249,1.86084l0,0.028198l0.056396,15.041763c0.135986,0.021027 0.270813,0.046494 0.408813,0.07048c0.977112,-1.270996 1.92627,-2.570343 2.932251,-3.820343c0.063232,-0.078552 0.133789,-0.147705 0.197388,-0.225571c5.985901,-7.329742 13.662415,-11.717926 23.034851,-13.321899c4.949097,-0.847992 9.903809,-0.729965 14.900818,-0.718948c0.350952,0.0009 0.705139,0.017273 1.057251,0.042267c-0.043274,-0.009064 -0.09259,-0.024673 -0.14093,-0.028198c-0.366028,-0.026978 -0.734619,-0.041275 -1.099609,-0.042267l-19.566956,0z"/>
      <path fill="url(#linearGradient3736)" fill-rule="evenodd" id="path3649" d="m628.546326,167.280075l0,109.461868l25.840271,5.422729l0,-123.816162l-25.840271,8.931564z"/>
      <path fill="#e73636" fill-rule="evenodd" id="path3140" d="m754.702698,155.740524c-4.99707,-0.011017 -9.951782,-0.129044 -14.900818,0.718948c-9.472046,1.621017 -17.219238,6.076462 -23.232239,13.54747c-1.006042,1.25 -1.9552,2.549347 -2.932251,3.820343c-0.138,-0.023987 -0.272827,-0.049484 -0.408813,-0.07048l-0.056396,-15.408295l-58.785522,0l0,123.816162l60.237549,0l0,-47.380875c-0.004517,-2.660004 0.24353,-5.282089 0.958618,-7.838074c2.28894,-8.180008 7.437256,-13.673523 15.549255,-16.310516c4.638,-1.51001 9.397705,-1.514709 14.167725,-0.972717c3.371033,0.384003 6.606873,1.363266 9.698914,2.79126c0.422974,0.195007 0.875427,0.607361 1.522522,0.197357l0,-1.46611c0,-17.924011 -0.013062,-35.856003 -0.014038,-53.781006c0,-0.440994 0.015808,-0.492416 -0.013916,-0.93042c-0.028931,-0.413986 -0.266724,-0.65976 -0.690735,-0.690765c-0.366028,-0.026978 -0.734619,-0.04126 -1.099609,-0.042252l-0.000244,-0.000031z"/>
     </g>
    </g>
    <g transform="matrix(2.21674 0 0 2.21674 60.9879 -16.2643)" id="g3447">
     <path fill="#800000" fill-rule="evenodd" id="path3445" d="m570.099182,155.388092c-4.830017,0.009995 -9.658936,0.354187 -14.463806,1.043182c-7.09375,1.018021 -14.030029,2.535538 -20.7229,5.004532c-10.255493,3.785004 -19.336731,9.269775 -26.79892,17.071762c-5.678772,5.938004 -9.864075,12.719147 -12.602966,20.314133c-2.372559,6.570999 -3.546814,13.345032 -3.749878,20.300034c-0.164307,5.534012 0.180481,11.008209 1.452026,16.40921c2.68866,11.439987 8.577209,21.136047 17.536926,29.139038c6.301544,5.630005 13.504242,9.916534 21.427887,13.124542c12.125671,4.90799 24.820557,7.101105 40.233582,7.11911c0.709595,0.009003 1.529907,-0.021484 2.410583,-0.056396c-13.183594,-0.338104 -24.312683,-2.545898 -34.975281,-7.062714c-7.570984,-3.208008 -14.448181,-7.494537 -20.469177,-13.124542c-8.561005,-8.003021 -14.178558,-17.699051 -16.747589,-29.139038c-1.214966,-5.401001 -1.566711,-10.875198 -1.409729,-16.40921c0.194031,-6.955002 1.32782,-13.729034 3.594849,-20.300034c2.617004,-7.595001 6.627136,-14.376129 12.053192,-20.314148c7.129944,-7.801987 15.801575,-13.286758 25.600586,-17.071762c6.394958,-2.468994 13.028625,-3.986511 19.806641,-5.004517c3.718445,-0.55806 7.443665,-0.878052 11.179077,-0.986801c-1.11792,-0.034607 -2.236023,-0.058502 -3.355103,-0.056412l0,0.000031z"/>
     <path fill="url(#linearGradient3732)" fill-rule="evenodd" id="path3437" d="m576.118713,202.698441c-1.446411,0.031693 -2.813904,0.218491 -4.102295,0.53569c2.121521,1.234451 3.920471,2.961197 5.356995,5.230087c4.037659,6.373993 4.524353,13.075272 0.451111,19.609268c-2.429565,3.895966 -5.924316,6.297714 -10.23468,7.302368c2.832764,1.715012 5.933472,2.484055 9.276062,2.32605c5.846985,-0.276993 10.507019,-2.815964 13.491028,-7.823975c3.892029,-6.533997 3.421021,-13.235275 -0.437012,-19.609268c-3.035034,-5.016998 -7.72522,-7.42923 -13.801208,-7.570221z"/>
     <path clip-rule="evenodd" fill="#e73636" fill-rule="evenodd" d="m578.289856,284.910187c-14.72699,-0.018005 -26.85199,-2.205994 -38.437988,-7.114014c-7.570984,-3.207977 -14.458984,-7.493988 -20.47998,-13.123993c-8.561066,-8.002991 -14.177032,-17.703018 -16.746063,-29.143021c-1.214966,-5.401001 -1.555969,-10.874008 -1.398987,-16.408005c0.19397,-6.955002 1.32196,-13.727997 3.588989,-20.298996c2.617004,-7.595001 6.619995,-14.378998 12.046051,-20.317001c7.130005,-7.802002 15.807983,-13.281006 25.606995,-17.065994c6.394958,-2.469009 13.021973,-3.994003 19.799988,-5.012009c4.591003,-0.688995 9.198975,-1.022995 13.814026,-1.03299c4.616943,-0.009003 9.223999,0.321991 13.815979,1.007996c5.460022,0.817001 10.836975,1.914001 16.083008,3.62999c9.536987,3.116013 18.210999,7.765015 25.656982,14.568008c9.708984,8.869995 15.664001,19.832993 18.267029,32.684998c1.290955,6.380997 1.668945,12.832001 1.19397,19.291c-1.029968,14.063995 -6.328979,26.279999 -16.297974,36.38002c-6.979004,7.071014 -15.252014,12.125 -24.445007,15.746002c-5.824036,2.295013 -11.840027,3.884003 -18.020996,4.89502c-5.376038,0.875977 -10.774048,1.355988 -14.046021,1.312988zm-2.174988,-82.206024c-6.479004,0.141998 -11.403992,3.138 -14.497986,9.080994c-1.704041,3.272995 -2.381042,6.800995 -2.05304,10.440994c0.486023,5.403 2.880005,9.78801 7.497986,12.815002c2.976013,1.952011 6.255005,2.822998 9.809021,2.654999c5.846985,-0.276993 10.502014,-2.814987 13.486023,-7.822998c3.891968,-6.533997 3.427979,-13.223999 -0.429993,-19.597992c-3.035034,-5.016998 -7.736023,-7.430008 -13.812012,-7.570999z" id="path3136"/>
    </g>
    <g id="g3428">
     <g id="g3530">
      <path fill="url(#radialGradient3541)" id="path3508" d="m1031.979126,253.092407c0.996948,-29.701279 23.034302,-61.568176 68.155518,-57.47406c31.976074,2.901382 54.868042,31.051254 52.645142,63.885132c-1.787842,26.408691 -26.65979,54.258026 -58.430176,53.919281c-40.040161,-0.42691 -63.426392,-28.871521 -62.370483,-60.330353z"/>
      <path fill="#282828" d="m1003.488342,175.787781c0.661987,-19.485977 15.298096,-40.392731 45.265198,-37.706711c21.236938,1.903488 36.440674,20.371628 34.964355,41.91275c-1.1875,17.325851 -17.706177,35.596817 -38.806396,35.374573c-26.592468,-0.28009 -42.124451,-18.941589 -41.423157,-39.580612z" id="path3510"/>
      <path fill="#282828" id="path3512" d="m1125.817749,196.64743c0.661987,-19.485977 15.298096,-40.392731 45.265259,-37.706711c21.236938,1.903488 36.440674,20.371628 34.964355,41.91275c-1.1875,17.325836 -17.706177,35.596817 -38.806396,35.374573c-26.592529,-0.28009 -42.124512,-18.941589 -41.423218,-39.580612z"/>
      <path fill="#0f1110" fill-rule="evenodd" id="path3403" d="m1022.908508,337.535217l0,69l8.999939,0l0,-72.75l-8.999939,3.75z"/>
      <path fill="#56100c" fill-rule="evenodd" id="path3407" d="m1022.908508,406.535217c0,67.357605 1.048279,124.275391 1.0625,192.749939l7.937439,10.3125l0,-203.062439l-8.999939,0z"/>
      <path fill="#e73636" fill-rule="evenodd" id="rect3400" d="m1031.908447,406.535217l0,203.062439l134,0l0,-203.062439l-134,0z"/>
      <path clip-rule="evenodd" fill="#fde84d" fill-rule="evenodd" id="path3162" d="m1116.313232,439.671753c-0.60083,-6.277802 4.151855,-12.380524 12.435913,-12.786194c6.747803,-0.332489 12.814941,5.87439 12.968018,12.679779c0.148438,6.847534 -6.244629,13.429047 -13.105469,13.032257c-7.97583,-0.46109 -12.93689,-6.424133 -12.298462,-12.925842z"/>
      <path clip-rule="evenodd" fill="#fde84d" fill-rule="evenodd" id="path3164" d="m1083.485474,439.979889c0.576416,6.346527 -4.677246,12.46698 -12.619873,12.599976c-6.929565,0.113068 -12.772949,-6.040649 -12.786255,-12.828308c-0.010986,-6.962799 6.404175,-13.373627 13.251709,-12.846039c8.279541,0.6362 12.786255,6.714508 12.154419,13.074371z"/>
      <path fill="#2a2a2a" fill-rule="evenodd" id="path3409" d="m1031.902832,333.78894l134.011108,0l0,72.745239l-134.011108,0l0,-72.745239z"/>
     </g>
    </g>
   </g>
   <g id="g3592">
    <g fill="#090909" transform="matrix(2.34327 0 0 2.34327 31.3395 -23.6895)" id="g3486">
     <g fill="#090909" id="g3488">
      <g fill="#090909" id="g3490">
       <path clip-rule="evenodd" fill="#090909" fill-rule="evenodd" d="m362.097931,158.980591c-0.09201,0.112 -0.230988,0.209 -0.269012,0.335999c-1.492004,5.059006 -3.459991,9.981995 -4.328003,15.220001c-0.335999,2.022003 -0.700989,4.042999 -1.112,6.052994c-0.175995,0.855011 -0.478973,1.688004 -0.776978,2.514008c-0.253998,0.703995 -0.826996,0.972 -1.561005,0.985001c-0.675995,0.013992 -1.307007,-0.141006 -1.93399,-0.367004c-1.328003,-0.479004 -2.526001,-1.199005 -3.583008,-2.117004c-2.670013,-2.315994 -4.548004,-5.144989 -5.447998,-8.60199c-0.263,-1.01001 -0.337006,-2.020004 -0.360016,-3.049011c-0.091003,-3.978989 0.455994,-7.897995 1.125,-11.804001c0.14801,-0.869995 0.307007,-1.730988 0.300995,-2.61499c0.623016,-1.348999 0.70401,-2.830002 1.029999,-4.251007c1.951019,-8.511993 4.46701,-16.86499 7.088013,-25.188995c0.022003,-0.069 0.054993,-0.136002 0.075989,-0.206001c0.382019,-1.264 0.891022,-2.505997 1.109009,-3.796997c0.230011,-1.366005 -0.768982,-2.472 -1.200012,-3.695999c-1.968994,-5.589005 -2.011993,-11.205002 -0.480988,-16.882004c1.446991,-5.364998 3.873016,-10.280998 6.825012,-14.956001c2.632996,-4.170998 5.641998,-8.053001 9.061981,-11.608002c0.658997,-0.685997 1.365997,-1.336998 2.119019,-1.919998c0.891998,-0.692001 1.817993,-0.519997 2.463989,0.404999c0.247009,0.354004 0.431,0.769005 0.570007,1.181c0.687988,2.042999 0.561981,4.058006 -0.381012,5.988007c-0.675995,1.381996 -1.428009,2.728996 -2.178009,4.073997c-2.462982,4.419998 -4.988983,8.808998 -7.097992,13.416c-0.761993,1.665001 -1.455994,3.361 -1.919006,5.144997c-0.428986,1.650002 -0.241974,3.188004 0.588013,4.659004c0.725006,-0.055 0.947998,-0.673004 1.300995,-1.112c4.838013,-6.007004 9.891998,-11.822006 15.395996,-17.230003c3.35202,-3.294998 6.838013,-6.445 10.792023,-9.026001c1.414001,-0.921997 2.879974,-1.737999 4.481995,-2.312996c2.04599,-0.734001 4.023987,-0.646004 5.985992,0.254997c2.264008,1.039001 4.020996,2.68 5.462006,4.668999c1.843994,2.545998 2.841003,5.446999 3.408997,8.507004c0.942993,5.078995 0.737,10.075996 -1.118988,14.946999c-0.812012,2.131996 -1.805023,4.176003 -3.037018,6.095001c-5.872986,9.137001 -13.80899,15.696991 -24.166992,19.169998c-3.152008,1.057007 -6.423004,1.494995 -9.751007,1.432007c-1.38501,-0.026001 -1.386993,-0.031006 -1.746002,1.319992c-0.565002,2.126007 -1.097992,4.261993 -1.699005,6.376999c-1.540985,5.432999 -3.10498,10.858002 -4.678986,16.279999c-0.162994,0.567001 -0.369995,1.113998 -0.358002,1.712006zm14.065002,-41.084c1.182983,0.219994 2.128998,0.112999 3.062988,-0.073006c6.803009,-1.348999 12.440002,-4.707001 16.96402,-9.935997c1.845978,-2.132004 3.233002,-4.537003 4.043976,-7.258003c0.77002,-2.585999 0.931,-5.188995 0.332001,-7.832001c-0.181976,-0.799995 -0.459991,-1.550995 -0.979004,-2.188995c-1.014984,-1.25 -2.344971,-1.507004 -3.687988,-0.639999c-0.673004,0.433998 -1.290009,0.973 -1.868988,1.528999c-2.183014,2.098 -3.976013,4.521996 -5.716003,6.981003c-4.203003,5.938995 -7.998993,12.136993 -11.640015,18.431999c-0.141998,0.244995 -0.261993,0.501999 -0.510986,0.986z" id="path3492"/>
       <path clip-rule="evenodd" fill="#090909" fill-rule="evenodd" d="m227.455551,74.25708c4.071991,-0.041 6.784805,0.639908 10.584793,1.105911c1.678009,0.207001 3.707733,1.528641 5.335754,1.982635c1.063995,0.296005 2.066986,0.749001 2.997986,1.354004c2.164001,1.406998 2.321014,4.161995 0.09201,5.645996c-0.864014,0.576004 -1.786011,1.002998 -2.76001,1.345001c-2.649994,0.931 -5.77774,1.21991 -8.544739,1.546913c-3.93399,0.465996 -7.516251,0.910088 -11.47226,1.161087c-5.050003,0.320999 -8.052719,0.183273 -13.073715,0.88427c-1.893005,0.264 -5.607635,0.514458 -7.408646,1.183464c-0.695999,0.257996 -3.925095,0.787628 -4.435104,1.349625c-0.625992,0.690002 -0.415909,1.111824 0.385101,1.511818c0.584991,0.292007 4.374451,0.177277 5.011459,0.312271c1.434998,0.304001 4.496002,0.610001 5.951996,0.758003c3.135742,0.068817 4.660461,0.582458 8.244461,0.866463c4.024994,0.32 9.299271,1.303909 13.277267,2.017906c3.259003,0.584999 5.115173,1.718178 8.081177,3.264183c2.809998,2.21418 6.244019,6.871361 6.526001,12.697357c0.307007,6.362999 -1.172638,10.127373 -6.128632,13.816376c-3.244019,2.412994 -8.817642,3.766998 -12.754639,4.46199c-7.922012,1.39801 -12.476456,0.124908 -20.351547,-1.10791c-3.981003,-1.203995 -7.744095,-2.083359 -10.817093,-4.935364c-1.136002,-1.054001 -3.417816,-2.988449 -4.280823,-4.274452c-2.763992,-4.125 -3.383179,-8.646637 0.244827,-11.524643c2.130997,-1.688995 4.942719,-3.791718 7.572723,-4.269714c1.878998,-0.343002 5.10083,-0.714645 7.019821,-0.583641c5.5,0.375999 -3.713669,-1.413231 15.996811,2.928268c1.576965,0.347351 3.398193,0.530273 4.816193,1.329269c0.51001,0.288002 1.00116,0.346809 2.061356,1.029549c2.837189,1.827065 1.627182,2.465553 0.56218,3.74855c-0.522995,0.630005 -4.697189,1.726364 -5.419189,2.087364c-3.320175,0.411819 -4.68454,0.334358 -6.514069,-0.114639c-2.118011,-0.283005 -4.141006,-0.969002 -6.138,-1.709c-1.925003,-0.714005 -3.844009,-1.446007 -5.756012,-2.197006c-1.167999,-0.459 -2.071808,-0.63736 -3.307816,-0.76136c-2.399994,-0.239998 -4.406906,0.688736 -5.824905,2.836731c-1.083008,1.641998 -0.792099,3.081718 0.859909,4.151718c0.744003,0.482002 2.004272,1.274284 2.869263,1.454285c1.292007,0.267998 2.590012,0.630089 3.917007,0.720093c3.539001,0.240997 6.160461,0.405815 9.655457,-0.0382c4.514999,-0.573006 7.158356,-1.651192 11.536362,-2.926193c2.184006,-0.637001 4.702728,-1.885818 6.68573,-3.042824c0.960999,-0.560997 2.220734,-1.488174 2.880707,-2.398178c1.044006,-1.441002 1.415833,-2.952271 0.451111,-4.264908c-1.053986,-0.818001 -2.192444,-1.866821 -3.428467,-2.338821c-3.234985,-1.235001 -6.887177,-1.275536 -10.279175,-1.925537c-5.720551,-0.42009 -8.931992,-0.30336 -14.664001,-0.339363c-3.232986,-0.020996 -6.377441,0.320358 -9.564438,-0.249641c-1.744003,-0.311996 -5.76947,-1.933174 -7.340469,-2.777176c-2.703003,-1.450005 -4.431732,-2.68837 -4.564728,-5.725372c-0.212997,-4.896996 1.262085,-8.626999 5.080093,-11.509003c2.610992,-1.970993 6.303452,-3.928909 9.387451,-4.924904c4.487,-1.450005 7.641098,-2.530182 12.325104,-3.015182c3.875992,-0.401001 8.790634,-0.676086 12.432632,-0.598091l1.985733,0.000023z" id="path3494"/>
       <path clip-rule="evenodd" fill="#090909" fill-rule="evenodd" d="m248.556885,119.750656c0.076019,-4.120995 0.148956,-8.411018 0.714966,-12.480019c0.708008,-5.088997 1.513031,-12.671021 2.884033,-17.63002c0.606018,-2.194 1.317993,-4.352997 2.266998,-6.423996c0.550995,-1.204002 1.177002,-2.368004 2.064972,-3.367004c1.557007,-1.751999 3.089996,-2.007996 5.072998,-0.817001c1.074005,0.645004 4.741211,3.889015 5.630188,4.770012c2.14502,2.124001 4.016998,4.479004 5.843018,6.874001c3.473999,4.556 4.043884,9.269447 7.270905,13.999451c1.033997,1.515999 2.082001,3.022003 3.138,4.523003c0.421997,0.599998 0.86499,1.186996 1.332977,1.752998c0.455994,0.550995 1.24173,2.340546 1.997742,2.168549c0.983002,-0.223999 0.531189,-4.176277 0.646179,-5.03228c0.286011,-2.125999 -0.704529,-5.278633 -1.099548,-7.385628c-0.959991,-5.128014 -1.759552,-10.032463 -3.232544,-15.026459c-1.225006,-4.149002 -3.285461,-8.344551 -4.208435,-12.575554c-0.234009,-1.073997 -0.413025,-2.163002 -0.549011,-3.252998c-0.130005,-1.030998 0.020996,-2.057999 0.330994,-3.043999c0.343018,-1.091003 1.028015,-1.510002 2.181,-1.419006c1.138,0.090004 3.523529,3.176872 4.428528,3.822876c1.570007,1.118996 2.225952,4.300156 3.407959,5.808159c2.092987,2.668999 3.953613,7.132622 5.430603,10.172615c3.227997,6.642006 3.118408,9.889641 4.182404,17.206642c0.871002,5.998001 0.45755,9.691879 -0.451447,15.002701c-0.940002,2.087997 -1.248169,4.603508 -2.711639,6.749794c-1.450989,1.608994 -1.976044,4.069641 -4.115021,4.633636c-1.96402,0.518005 -3.418732,1.875763 -5.086731,0.649765c-1.551025,-1.139999 -2.740936,-1.461349 -3.998932,-2.901352c-2.46698,-2.828003 -4.094177,-4.57618 -6.156158,-7.702179c-2.183014,-3.307007 -3.131287,-4.887901 -4.632385,-8.283455c-0.640991,-0.984001 -2.552277,-4.015282 -3.243256,-4.96328c-0.387024,-0.531998 -1.269287,-2.797089 -1.733276,-3.264091c-0.529999,-0.89138 -4.100067,-10.993538 -4.485138,-0.261894c0.027985,0.778008 -0.075012,2.781128 -0.186981,3.428123c-0.046997,2.91201 -0.042999,4.433891 -0.186981,7.289894c-0.192017,3.807999 -0.011993,7.524986 -0.571991,11.305992c-0.225983,1.518997 -0.478973,3.230019 -0.827972,4.729012c-0.131012,0.564011 -1.003052,1.318008 -1.250061,1.849014c-1.416992,2.527939 -3.34787,2.527878 -4.154724,1.842026c-0.983978,-0.830994 -3.179108,-1.586975 -3.593109,-2.779968c-0.507019,-1.459 -1.972107,-2.34494 -2.058105,-3.891945c-0.084015,-1.540001 -0.230011,-4.536133 -0.291016,-6.076134z" id="path3496"/>
       <path clip-rule="evenodd" fill="#090909" fill-rule="evenodd" d="m330.546692,107.265518c-2.494995,0.077003 -4.990997,0.236 -7.484009,0.205002c-2.341003,-0.028999 -3.656982,1.070999 -4.350983,3.224998c-0.564026,1.750999 -1.06601,3.513 -1.322998,5.333c-0.112,0.792 -0.09201,1.611 -0.064026,2.415001c0.016998,0.494995 0.364014,0.818001 0.865997,0.815002c0.880005,-0.004005 1.767029,-0.007004 2.636017,-0.124001c2.036011,-0.274002 4.066986,-0.594002 6.093994,-0.936005c2.821991,-0.475998 5.63501,-0.999001 8.457001,-1.477997c0.722992,-0.124001 1.459015,-0.160004 2.190002,-0.236c3.109985,-0.322998 5.359985,1.131996 7.145996,3.498001c0.304016,0.402 0.539001,0.881996 0.696991,1.362c0.292023,0.892998 0.167999,1.725998 -0.514984,2.447998c-0.963013,1.018997 -2.020996,1.922997 -3.153015,2.743996c-4.429993,3.21701 -9.258972,5.656006 -14.455994,7.365997c-3.570007,1.17601 -7.225006,1.912003 -10.985992,2.138c-4.868011,0.292999 -8.514008,-1.729996 -11.162994,-5.724991c-1.44101,-2.171997 -2.347992,-4.569 -2.785004,-7.125c-0.322998,-1.894005 -0.23999,-3.781006 0.260986,-5.674004c0.732025,-2.769997 1.662018,-5.473 2.537018,-8.195c0.246979,-0.766998 0.455994,-1.548996 0.738983,-2.303001c0.278015,-0.737999 0.238007,-1.43 -0.10498,-2.123001c-0.130005,-0.263 -0.269012,-0.521996 -0.390015,-0.788994c-0.787994,-1.729004 -0.546997,-3.013 0.838989,-4.368004c0.854004,-0.833 1.903015,-1.372002 2.971008,-1.864998c3.016022,-1.393005 2.738007,-1.019005 3.692017,-4.395004c0.358978,-1.266998 0.598999,-2.569 0.858002,-3.862c0.110992,-0.556999 -0.10202,-1.002998 -0.641998,-1.265999c-0.792023,-0.385002 -1.575012,-0.788002 -2.367004,-1.169998c-1.321014,-0.639999 -2.667023,-1.236 -3.833008,-2.150002c-0.875,-0.686996 -1.657013,-1.446999 -2.040009,-2.537003c-0.423981,-1.206993 -0.177979,-2.167999 0.89502,-2.883995c0.602997,-0.401001 1.289978,-0.694 1.968994,-0.958c1.790985,-0.693001 3.678009,-0.994003 5.565002,-1.280998c3.921997,-0.599007 7.878998,-0.858002 11.826996,-1.200005c4.312988,-0.373001 8.631989,-0.693001 12.945984,-1.061996c5.595001,-0.478004 9.962006,1.846001 13.583008,5.898994c0.194,0.218002 0.360992,0.463005 0.524017,0.708c1.252991,1.867004 1.112,3.170006 -0.59201,4.620003c-1.145996,0.973999 -2.5,1.511002 -4.019012,1.604004c-2.196991,0.133995 -4.390991,0.327995 -6.587982,0.413994c-4.035004,0.159004 -8.059998,0.436005 -12.067993,0.920006c-3.10202,0.372993 -3.337006,0.501999 -4.084015,3.862c-0.188995,0.851997 -0.289001,1.746994 -0.256989,2.615997c0.03299,0.907997 0.311981,1.379997 1.267975,1.510002c0.944,0.127998 1.88501,0.327995 2.833008,0.380997c3.002014,0.167 6.007996,0.279999 9.011993,0.414001c0.220001,0.010002 0.440002,0.026001 0.660004,0.038002c2.503998,0.135994 3.856995,1.450996 4.087006,3.970001c0.234009,2.577995 -0.975006,4.398994 -3.312988,4.973c-1.296021,0.319 -2.627014,0.230995 -3.944,0.273994c-1.541016,0.051003 -3.084015,0.012001 -4.627014,0.012001c-0.001007,-0.018997 -0.001984,-0.039001 -0.002991,-0.057999z" id="path3498"/>
       <g fill="#090909" id="g3500">
        <path clip-rule="evenodd" fill="#090909" fill-rule="evenodd" d="m175.651123,67.720627c-2.046005,-0.020996 -4.889008,-0.325996 -7.674011,-1.042c-0.788986,-0.202995 -1.350998,-0.170998 -1.841995,0.616005c-0.86499,1.383995 -2.216003,2.106995 -3.804001,2.382996c-1.917999,0.333 -3.242004,-0.385002 -4.113998,-2.159996c-0.763992,-1.555 -0.817993,-3.259003 -1.078995,-4.920998c-0.033997,-0.215996 -0.022003,-0.439995 -0.014999,-0.660999c0.028992,-0.993999 -0.320999,-1.806999 -0.932999,-2.612c-1.437012,-1.891998 -2.35701,-4.038998 -2.854004,-6.375c-0.660004,-3.106998 -0.455002,-6.108997 0.796005,-9.054001c1.753998,-4.128998 4.357986,-7.642998 7.648987,-10.647999c6.264999,-5.722002 13.625,-9.122002 22.059006,-10.051001c2.910995,-0.320999 5.858994,-0.418001 8.764999,0.280998c3.438004,0.828001 6.407013,2.528002 9.01001,4.865002c0.746994,0.671 1.540009,1.073 2.494995,1.23c1.456009,0.240999 2.855011,0.659 4.195999,1.278999c2.848007,1.314001 4.393005,3.531004 4.737,6.647001c0.369003,3.337002 -0.422989,6.403999 -1.997986,9.315002c-1.481003,2.736 -3.389999,5.160999 -5.598999,7.324997c-5.749008,5.632 -12.384003,9.855999 -20.07901,12.330994c-3.132004,1.009003 -5.723007,1.359001 -9.716003,1.251999zm-4.223007,-11.569992c2.888,0.964001 5.583008,1.192001 8.279007,1.047001c4.761002,-0.252998 9.182999,-1.826 13.453995,-3.848c2.731995,-1.293999 5.302994,-2.841 7.541,-4.902c0.979004,-0.901001 1.843002,-1.894001 2.531006,-3.030998c0.697998,-1.153 1.082993,-2.392002 1.061996,-3.760002c-0.052002,-3.391998 -2.587997,-5.561001 -5.984009,-5.105c-3.144989,0.422001 -5.852997,1.900002 -8.423996,3.612c-4.345001,2.893002 -8.436996,6.121002 -12.257996,9.683002c-2.089005,1.945 -4.203003,3.865997 -6.201004,6.303997zm-8.537491,-7.242588c0.47699,-0.449001 0.700989,-0.635002 0.895996,-0.847c4.341995,-4.707001 5.525208,-7.336021 10.755341,-11.28384c0.319,-0.202999 1.043182,-1.153759 1.035187,-1.711761c-3.76059,1.201733 -4.050674,1.6441 -7.403671,3.986099c-1.821991,1.273003 -3.263443,3.251503 -4.395447,5.178501c-0.802002,1.367001 -1.355408,2.799999 -0.887405,4.678001z" id="path3502"/>
        <path clip-rule="evenodd" fill="#090909" fill-rule="evenodd" d="m179.872894,119.754631c0.003998,2.863998 -0.103989,5.717995 -0.418991,8.566002c-0.130005,1.173996 -0.373001,2.313995 -0.804001,3.412994c-0.596008,1.514999 -1.718002,2.352005 -3.339005,2.444c-1.024002,0.059006 -2.054993,0.063004 -3.080002,0.018997c-2.15799,-0.093994 -3.740997,-1.125 -4.764999,-3.030991c-0.98999,-1.843002 -1.382996,-3.856003 -1.669998,-5.893005c-0.399994,-2.834999 -0.561996,-5.689003 -0.526001,-8.555c0.057999,-4.694 0.001999,-9.392998 0.193008,-14.081001c0.232986,-5.708 0.496994,-11.422997 1.577988,-17.059998c0.318008,-1.659004 0.690002,-3.303001 1.322998,-4.871002c0.299011,-0.742996 0.649002,-1.487 1.104004,-2.141998c1.235001,-1.777 3.311005,-2.002998 4.975006,-0.598999c0.86499,0.730995 1.390991,1.700996 1.800995,2.726997c0.684998,1.708 1.100006,3.492004 1.425995,5.299004c0.600006,3.322998 0.92601,6.681999 1.17601,10.043999c0.373001,5.043999 0.619995,10.096001 0.723999,15.153999c0.057999,2.858002 0.199005,5.711998 0.302994,8.566002z" id="path3504"/>
       </g>
       <path clip-rule="evenodd" fill="#090909" fill-rule="evenodd" d="m146.263992,127.941177c-2.173996,1.613998 -2.921188,2.112717 -5.202179,3.584717c-6.147003,3.964005 -12.705093,5.457458 -19.721107,7.475449c-5.002121,1.483002 -11.15712,1.361893 -16.712708,1.759964c-4.810005,0.492004 -8.290085,0.299362 -13.12709,-0.013596c-1.972,-0.128006 -4.382843,-0.451233 -6.217758,-0.695419c-1.482552,-0.115265 -3.429077,0.030807 -4.877075,-0.197144c-3.410004,-0.535004 -4.216232,0.239914 -7.565231,-0.601074c-0.824005,-0.207001 -0.983559,1.0616 -1.166565,1.884598c-0.223999,1.005997 -0.491997,1.990997 -0.943001,2.921997c-1.204994,2.483994 -2.642914,2.870712 -5.410919,2.911713c-0.660995,0.01001 -3.288433,-0.415634 -3.943432,-0.482635c-2.412998,-0.248993 -2.876644,0.011902 -4.123642,-2.120071c-0.865997,-1.480011 -1.335995,-3.097 -1.591,-4.772003c-0.219997,-1.449005 -0.365002,-2.912003 -0.486,-4.373001c-0.048004,-0.583008 -0.267002,-0.901001 -0.801998,-1.158005c-0.778965,-2.203003 -7.331963,-5.766541 -10.238144,-6.994965c-7.207996,-3.877991 -10.804039,-7.549805 -16.835041,-13.1008c-2.813999,-2.590004 -5.02824,-4.598183 -7.339241,-7.656181c-1.021,-1.351006 -2.793159,-2.932434 -3.825821,-4.126762c-0.408997,-0.774002 -1.384197,-2.246681 -1.6842,-3.071678c-0.550159,-2.05323 -0.607998,-3.835121 0.970001,-6.033119c0.993999,-1.384003 1.45718,-2.129242 2.782181,-3.18824c2.716,-2.168999 4.371048,-3.357254 7.516048,-4.799255c6.574001,-3.012993 13.476006,-4.989998 20.533009,-6.459999c1.866997,-0.389 3.753994,-0.682999 5.632996,-1.012001c0.571999,-0.099998 3.731728,-0.359993 3.746735,-0.995995c0.017998,-0.733002 0.058994,-1.467003 0.098999,-2.200005c0.339996,-6.160995 1.521278,-10.871422 2.010727,-17.494781c0.031826,-2.02137 0.838341,-6.612137 1.402344,-7.970139c0.339996,-0.820999 0.82576,-1.507092 1.442757,-2.154091c1.112995,-1.167 5.342449,1.085751 6.696445,1.962749c0.82,0.531002 1.766731,1.655724 2.261734,2.482723c0.835999,1.397999 1.221909,3.658459 1.66291,5.213459c0.862999,3.043999 1.123817,5.490089 1.427818,8.635082c0.319,3.284996 0.535995,6.581001 0.792,9.872002c0.083,1.076996 0.088997,1.098 1.138,1.129997c3.887985,0.118004 7.779991,0.133003 11.659988,0.370003c7.709,0.471001 15.302277,2.15696 22.675285,4.604958c3.074997,1.019997 5.810669,2.219559 8.541672,3.983559c2.177002,1.404999 3.597916,2.537918 5.105927,4.668922c1.160995,1.640999 2.430634,4.260841 2.723633,6.26384c0.447998,3.060997 -0.553757,4.663681 -2.433762,7.126678c-1.442993,1.889999 -3.065842,3.749763 -5.127838,4.947762c-0.655991,0.380997 -0.79892,0.558281 -1.560913,0.50528c-2.134171,0.26413 -3.372726,0.270271 -5.263718,0.040298c-2.547012,-0.311996 -9.446739,-2.238571 -8.650299,-3.879372c0.467125,-0.350838 3.017593,-1.526695 3.7836,-2.317696c0.664993,-0.687004 2.302429,-1.624321 2.632431,-2.558319c0.823608,-0.664085 1.471924,-4.013725 1.050919,-4.492722c-0.541,-0.617004 -4.166077,-1.225929 -5.491684,-1.532158c-1.689651,-0.210526 -3.230774,-0.62899 -5.154114,-0.992401c-6.346268,-1.304909 -11.66156,-2.011841 -18.191559,-2.59584c-3.595001,-0.320999 -5.160843,-0.31942 -8.757843,-0.33242c-0.365997,-0.001999 -0.734001,0.006996 -1.098999,0.041c-0.323997,0.029999 -0.550995,0.225998 -0.567001,0.556999c-0.033997,0.732002 -0.064995,1.467003 -0.044998,2.199997c0.103004,3.741005 0.229004,6.268501 0.334,10.008499c0.141998,4.988007 0.262001,9.977005 0.411003,14.965004c0.083,2.786003 0.211998,5.570999 0.306,8.356003c0.019997,0.591003 1.256096,1.737061 1.900101,1.862061c1.284866,0.220993 2.38372,0.383957 5.154716,0.695953c5.120003,0.576004 11.613121,0.481979 16.750122,0.221985c9.354996,-0.475006 14.578644,-1.124924 23.394653,-4.425919c3.794998,-1.420006 8.555099,-2.991982 11.869102,-5.342987c3.639008,-2.580994 7.995117,-4.940933 10.141113,-8.895935c3.147003,-5.801003 5.008041,-12.7164 3.718033,-19.124405c-0.938995,-4.660995 -3.389297,-10.573288 -5.853302,-14.607285c-2.690994,-4.407005 -7.452988,-8.480881 -11.036995,-12.191879c-7.763,-8.038063 -14.355942,-13.209095 -23.906937,-18.929096c-11.375,-6.813999 -24.873802,-11.150398 -37.478798,-15.283401c-9.224998,-3.025 -18.617004,-5.348 -28.208,-6.825998c-5.514996,-0.849001 -7.38472,-1.24036 -12.97472,-1.34836c-1.172001,-0.022001 -5.06319,-0.23455 -6.235191,-0.240551c-5.215,-0.032 -7.329079,0.057911 -12.516079,0.61091c-1.608,0.171999 -3.200001,0.442999 -4.754,0.889999c-0.558,0.16 -1.11,0.394001 -1.610001,0.687c-1.17273,3.046089 5.24428,3.69191 5.99328,4.29591c0.449999,0.363001 0.994999,0.610001 1.497,0.91c1.177,0.704 1.661001,1.414001 1.433001,2.215c-0.292999,1.029001 -1.194,1.202002 -2.075001,1.360003c-2.344,0.422001 -7.77092,0.213909 -10.08292,-0.347092c-0.559,-0.135998 -4.337999,-1.507181 -4.843,-1.79418c-0.962,-0.548 -2.69728,-2.002371 -2.77528,-3.109371c-0.085,-1.198999 0.61182,-3.150999 1.145821,-4.230999c0.426,-0.859001 0.64382,-1.225719 1.068179,-2.227911c0.792001,-0.868999 1.739551,-2.327909 2.481551,-3.234909c1.50465,-1.50465 3.688999,-2.357809 6.505999,-3.096809c3.058001,-0.801999 4.32736,-1.592639 7.460361,-1.96664c7.219999,-0.862 14.468,-1.349 21.743998,-1.361c5.441998,-0.009 10.846004,0.465 16.238998,1.160001c10.230007,1.318999 20.177002,3.815998 29.921005,7.152c14.515999,4.969997 28.225998,11.624996 41.007004,20.103998c9.257996,6.142002 17.984001,12.981003 25.689003,21.041c5.453003,5.702995 10.354004,11.817993 14.039001,18.83699c2.020996,3.853004 3.60199,7.867004 4.371002,12.174004c0.988998,5.538002 0.542999,10.972 -1.167007,16.306c-1.871002,5.838997 -3.596085,9.855362 -7.843094,14.253357c-0.967987,1 -3.307587,4.454781 -5.347,5.707191zm-91.561375,-6.878197c0.322006,-0.373001 0.111687,-0.974091 0.113682,-1.399094c0.022007,-7.041 -0.042995,-12.243362 0.177006,-19.283356c0.078003,-2.492004 0.07,-4.987 0.098,-7.480003c0.007004,-0.585999 0.015999,-1.173996 0,-1.761002c-0.028,-1.063995 -0.129997,-1.144997 -1.120998,-1.085999c-4.390011,0.260002 -9.140034,1.650093 -13.512032,2.144089c-3.937004,0.445 -5.648632,1.04393 -9.510635,1.91993c-2.214996,0.503006 -3.148888,1.096535 -5.21489,2.069534c-1,0.472 -1.64444,1.114632 -2.42944,1.903625c-0.51825,0.897644 -1.002029,1.587212 -0.120029,3.028214c0.616001,1.007996 1.182781,1.68589 1.998779,2.534889c2.349003,2.447998 4.867992,5.027443 7.652,6.944443c7.408993,5.098999 9.392338,6.879555 17.656246,11.049187c0.464001,0.174004 3.660316,-0.421463 4.212311,-0.584457z" id="path3506"/>
      </g>
     </g>
    </g>
    <g fill="#282828" id="g3194" transform="matrix(2.34327 0 0 2.34327 25.9209 -26.1904)">
     <g fill="#282828" id="g3190">
      <g fill="#282828" id="g3243">
       <path clip-rule="evenodd" fill="#282828" fill-rule="evenodd" id="path3148" d="m362.097931,158.980591c-0.09201,0.112 -0.230988,0.209 -0.269012,0.335999c-1.492004,5.059006 -3.459991,9.981995 -4.328003,15.220001c-0.335999,2.022003 -0.700989,4.042999 -1.112,6.052994c-0.175995,0.855011 -0.478973,1.688004 -0.776978,2.514008c-0.253998,0.703995 -0.826996,0.972 -1.561005,0.985001c-0.675995,0.013992 -1.307007,-0.141006 -1.93399,-0.367004c-1.328003,-0.479004 -2.526001,-1.199005 -3.583008,-2.117004c-2.670013,-2.315994 -4.548004,-5.144989 -5.447998,-8.60199c-0.263,-1.01001 -0.337006,-2.020004 -0.360016,-3.049011c-0.091003,-3.978989 0.455994,-7.897995 1.125,-11.804001c0.14801,-0.869995 0.307007,-1.730988 0.300995,-2.61499c0.623016,-1.348999 0.70401,-2.830002 1.029999,-4.251007c1.951019,-8.511993 4.46701,-16.86499 7.088013,-25.188995c0.022003,-0.069 0.054993,-0.136002 0.075989,-0.206001c0.382019,-1.264 0.891022,-2.505997 1.109009,-3.796997c0.230011,-1.366005 -0.768982,-2.472 -1.200012,-3.695999c-1.968994,-5.589005 -2.011993,-11.205002 -0.480988,-16.882004c1.446991,-5.364998 3.873016,-10.280998 6.825012,-14.956001c2.632996,-4.170998 5.641998,-8.053001 9.061981,-11.608002c0.658997,-0.685997 1.365997,-1.336998 2.119019,-1.919998c0.891998,-0.692001 1.817993,-0.519997 2.463989,0.404999c0.247009,0.354004 0.431,0.769005 0.570007,1.181c0.687988,2.042999 0.561981,4.058006 -0.381012,5.988007c-0.675995,1.381996 -1.428009,2.728996 -2.178009,4.073997c-2.462982,4.419998 -4.988983,8.808998 -7.097992,13.416c-0.761993,1.665001 -1.455994,3.361 -1.919006,5.144997c-0.428986,1.650002 -0.241974,3.188004 0.588013,4.659004c0.725006,-0.055 0.947998,-0.673004 1.300995,-1.112c4.838013,-6.007004 9.891998,-11.822006 15.395996,-17.230003c3.35202,-3.294998 6.838013,-6.445 10.792023,-9.026001c1.414001,-0.921997 2.879974,-1.737999 4.481995,-2.312996c2.04599,-0.734001 4.023987,-0.646004 5.985992,0.254997c2.264008,1.039001 4.020996,2.68 5.462006,4.668999c1.843994,2.545998 2.841003,5.446999 3.408997,8.507004c0.942993,5.078995 0.737,10.075996 -1.118988,14.946999c-0.812012,2.131996 -1.805023,4.176003 -3.037018,6.095001c-5.872986,9.137001 -13.80899,15.696991 -24.166992,19.169998c-3.152008,1.057007 -6.423004,1.494995 -9.751007,1.432007c-1.38501,-0.026001 -1.386993,-0.031006 -1.746002,1.319992c-0.565002,2.126007 -1.097992,4.261993 -1.699005,6.376999c-1.540985,5.432999 -3.10498,10.858002 -4.678986,16.279999c-0.162994,0.567001 -0.369995,1.113998 -0.358002,1.712006zm14.065002,-41.084c1.182983,0.219994 2.128998,0.112999 3.062988,-0.073006c6.803009,-1.348999 12.440002,-4.707001 16.96402,-9.935997c1.845978,-2.132004 3.233002,-4.537003 4.043976,-7.258003c0.77002,-2.585999 0.931,-5.188995 0.332001,-7.832001c-0.181976,-0.799995 -0.459991,-1.550995 -0.979004,-2.188995c-1.014984,-1.25 -2.344971,-1.507004 -3.687988,-0.639999c-0.673004,0.433998 -1.290009,0.973 -1.868988,1.528999c-2.183014,2.098 -3.976013,4.521996 -5.716003,6.981003c-4.203003,5.938995 -7.998993,12.136993 -11.640015,18.431999c-0.141998,0.244995 -0.261993,0.501999 -0.510986,0.986z"/>
       <path clip-rule="evenodd" fill="#282828" fill-rule="evenodd" id="path3150" d="m227.455551,74.25708c4.071991,-0.041 6.784805,0.639908 10.584793,1.105911c1.678009,0.207001 3.707733,1.528641 5.335754,1.982635c1.063995,0.296005 2.066986,0.749001 2.997986,1.354004c2.164001,1.406998 2.321014,4.161995 0.09201,5.645996c-0.864014,0.576004 -1.786011,1.002998 -2.76001,1.345001c-2.649994,0.931 -5.77774,1.21991 -8.544739,1.546913c-3.93399,0.465996 -7.516251,0.910088 -11.47226,1.161087c-5.050003,0.320999 -8.052719,0.183273 -13.073715,0.88427c-1.893005,0.264 -5.607635,0.514458 -7.408646,1.183464c-0.695999,0.257996 -3.925095,0.787628 -4.435104,1.349625c-0.625992,0.690002 -0.415909,1.111824 0.385101,1.511818c0.584991,0.292007 4.374451,0.177277 5.011459,0.312271c1.434998,0.304001 4.496002,0.610001 5.951996,0.758003c3.135742,0.068817 4.660461,0.582458 8.244461,0.866463c4.024994,0.32 9.299271,1.303909 13.277267,2.017906c3.259003,0.584999 5.115173,1.718178 8.081177,3.264183c2.809998,2.21418 6.244019,6.871361 6.526001,12.697357c0.307007,6.362999 -1.172638,10.127373 -6.128632,13.816376c-3.244019,2.412994 -8.817642,3.766998 -12.754639,4.46199c-7.922012,1.39801 -12.476456,0.124908 -20.351547,-1.10791c-3.981003,-1.203995 -7.744095,-2.083359 -10.817093,-4.935364c-1.136002,-1.054001 -3.417816,-2.988449 -4.280823,-4.274452c-2.763992,-4.125 -3.383179,-8.646637 0.244827,-11.524643c2.130997,-1.688995 4.942719,-3.791718 7.572723,-4.269714c1.878998,-0.343002 5.10083,-0.714645 7.019821,-0.583641c5.5,0.375999 -3.713669,-1.413231 15.996811,2.928268c1.576965,0.347351 3.398193,0.530273 4.816193,1.329269c0.51001,0.288002 1.00116,0.346809 2.061356,1.029549c2.837189,1.827065 1.627182,2.465553 0.56218,3.74855c-0.522995,0.630005 -4.697189,1.726364 -5.419189,2.087364c-3.320175,0.411819 -4.68454,0.334358 -6.514069,-0.114639c-2.118011,-0.283005 -4.141006,-0.969002 -6.138,-1.709c-1.925003,-0.714005 -3.844009,-1.446007 -5.756012,-2.197006c-1.167999,-0.459 -2.071808,-0.63736 -3.307816,-0.76136c-2.399994,-0.239998 -4.406906,0.688736 -5.824905,2.836731c-1.083008,1.641998 -0.792099,3.081718 0.859909,4.151718c0.744003,0.482002 2.004272,1.274284 2.869263,1.454285c1.292007,0.267998 2.590012,0.630089 3.917007,0.720093c3.539001,0.240997 6.160461,0.405815 9.655457,-0.0382c4.514999,-0.573006 7.158356,-1.651192 11.536362,-2.926193c2.184006,-0.637001 4.702728,-1.885818 6.68573,-3.042824c0.960999,-0.560997 2.220734,-1.488174 2.880707,-2.398178c1.044006,-1.441002 1.415833,-2.952271 0.451111,-4.264908c-1.053986,-0.818001 -2.192444,-1.866821 -3.428467,-2.338821c-3.234985,-1.235001 -6.887177,-1.275536 -10.279175,-1.925537c-5.720551,-0.42009 -8.931992,-0.30336 -14.664001,-0.339363c-3.232986,-0.020996 -6.377441,0.320358 -9.564438,-0.249641c-1.744003,-0.311996 -5.76947,-1.933174 -7.340469,-2.777176c-2.703003,-1.450005 -4.431732,-2.68837 -4.564728,-5.725372c-0.212997,-4.896996 1.262085,-8.626999 5.080093,-11.509003c2.610992,-1.970993 6.303452,-3.928909 9.387451,-4.924904c4.487,-1.450005 7.641098,-2.530182 12.325104,-3.015182c3.875992,-0.401001 8.790634,-0.676086 12.432632,-0.598091l1.985733,0.000023z"/>
       <path clip-rule="evenodd" fill="#282828" fill-rule="evenodd" id="path3154" d="m248.556885,119.750656c0.076019,-4.120995 0.148956,-8.411018 0.714966,-12.480019c0.708008,-5.088997 1.513031,-12.671021 2.884033,-17.63002c0.606018,-2.194 1.317993,-4.352997 2.266998,-6.423996c0.550995,-1.204002 1.177002,-2.368004 2.064972,-3.367004c1.557007,-1.751999 3.089996,-2.007996 5.072998,-0.817001c1.074005,0.645004 4.741211,3.889015 5.630188,4.770012c2.14502,2.124001 4.016998,4.479004 5.843018,6.874001c3.473999,4.556 4.043884,9.269447 7.270905,13.999451c1.033997,1.515999 2.082001,3.022003 3.138,4.523003c0.421997,0.599998 0.86499,1.186996 1.332977,1.752998c0.455994,0.550995 1.24173,2.340546 1.997742,2.168549c0.983002,-0.223999 0.531189,-4.176277 0.646179,-5.03228c0.286011,-2.125999 -0.704529,-5.278633 -1.099548,-7.385628c-0.959991,-5.128014 -1.759552,-10.032463 -3.232544,-15.026459c-1.225006,-4.149002 -3.285461,-8.344551 -4.208435,-12.575554c-0.234009,-1.073997 -0.413025,-2.163002 -0.549011,-3.252998c-0.130005,-1.030998 0.020996,-2.057999 0.330994,-3.043999c0.343018,-1.091003 1.028015,-1.510002 2.181,-1.419006c1.138,0.090004 3.523529,3.176872 4.428528,3.822876c1.570007,1.118996 2.225952,4.300156 3.407959,5.808159c2.092987,2.668999 3.953613,7.132622 5.430603,10.172615c3.227997,6.642006 3.118408,9.889641 4.182404,17.206642c0.871002,5.998001 0.45755,9.691879 -0.451447,15.002701c-0.940002,2.087997 -1.248169,4.603508 -2.711639,6.749794c-1.450989,1.608994 -1.976044,4.069641 -4.115021,4.633636c-1.96402,0.518005 -3.418732,1.875763 -5.086731,0.649765c-1.551025,-1.139999 -2.740936,-1.461349 -3.998932,-2.901352c-2.46698,-2.828003 -4.094177,-4.57618 -6.156158,-7.702179c-2.183014,-3.307007 -3.131287,-4.887901 -4.632385,-8.283455c-0.640991,-0.984001 -2.552277,-4.015282 -3.243256,-4.96328c-0.387024,-0.531998 -1.269287,-2.797089 -1.733276,-3.264091c-0.529999,-0.89138 -4.100067,-10.993538 -4.485138,-0.261894c0.027985,0.778008 -0.075012,2.781128 -0.186981,3.428123c-0.046997,2.91201 -0.042999,4.433891 -0.186981,7.289894c-0.192017,3.807999 -0.011993,7.524986 -0.571991,11.305992c-0.225983,1.518997 -0.478973,3.230019 -0.827972,4.729012c-0.131012,0.564011 -1.003052,1.318008 -1.250061,1.849014c-1.416992,2.527939 -3.34787,2.527878 -4.154724,1.842026c-0.983978,-0.830994 -3.179108,-1.586975 -3.593109,-2.779968c-0.507019,-1.459 -1.972107,-2.34494 -2.058105,-3.891945c-0.084015,-1.540001 -0.230011,-4.536133 -0.291016,-6.076134z"/>
       <path clip-rule="evenodd" fill="#282828" fill-rule="evenodd" id="path3156" d="m330.546692,107.265518c-2.494995,0.077003 -4.990997,0.236 -7.484009,0.205002c-2.341003,-0.028999 -3.656982,1.070999 -4.350983,3.224998c-0.564026,1.750999 -1.06601,3.513 -1.322998,5.333c-0.112,0.792 -0.09201,1.611 -0.064026,2.415001c0.016998,0.494995 0.364014,0.818001 0.865997,0.815002c0.880005,-0.004005 1.767029,-0.007004 2.636017,-0.124001c2.036011,-0.274002 4.066986,-0.594002 6.093994,-0.936005c2.821991,-0.475998 5.63501,-0.999001 8.457001,-1.477997c0.722992,-0.124001 1.459015,-0.160004 2.190002,-0.236c3.109985,-0.322998 5.359985,1.131996 7.145996,3.498001c0.304016,0.402 0.539001,0.881996 0.696991,1.362c0.292023,0.892998 0.167999,1.725998 -0.514984,2.447998c-0.963013,1.018997 -2.020996,1.922997 -3.153015,2.743996c-4.429993,3.21701 -9.258972,5.656006 -14.455994,7.365997c-3.570007,1.17601 -7.225006,1.912003 -10.985992,2.138c-4.868011,0.292999 -8.514008,-1.729996 -11.162994,-5.724991c-1.44101,-2.171997 -2.347992,-4.569 -2.785004,-7.125c-0.322998,-1.894005 -0.23999,-3.781006 0.260986,-5.674004c0.732025,-2.769997 1.662018,-5.473 2.537018,-8.195c0.246979,-0.766998 0.455994,-1.548996 0.738983,-2.303001c0.278015,-0.737999 0.238007,-1.43 -0.10498,-2.123001c-0.130005,-0.263 -0.269012,-0.521996 -0.390015,-0.788994c-0.787994,-1.729004 -0.546997,-3.013 0.838989,-4.368004c0.854004,-0.833 1.903015,-1.372002 2.971008,-1.864998c3.016022,-1.393005 2.738007,-1.019005 3.692017,-4.395004c0.358978,-1.266998 0.598999,-2.569 0.858002,-3.862c0.110992,-0.556999 -0.10202,-1.002998 -0.641998,-1.265999c-0.792023,-0.385002 -1.575012,-0.788002 -2.367004,-1.169998c-1.321014,-0.639999 -2.667023,-1.236 -3.833008,-2.150002c-0.875,-0.686996 -1.657013,-1.446999 -2.040009,-2.537003c-0.423981,-1.206993 -0.177979,-2.167999 0.89502,-2.883995c0.602997,-0.401001 1.289978,-0.694 1.968994,-0.958c1.790985,-0.693001 3.678009,-0.994003 5.565002,-1.280998c3.921997,-0.599007 7.878998,-0.858002 11.826996,-1.200005c4.312988,-0.373001 8.631989,-0.693001 12.945984,-1.061996c5.595001,-0.478004 9.962006,1.846001 13.583008,5.898994c0.194,0.218002 0.360992,0.463005 0.524017,0.708c1.252991,1.867004 1.112,3.170006 -0.59201,4.620003c-1.145996,0.973999 -2.5,1.511002 -4.019012,1.604004c-2.196991,0.133995 -4.390991,0.327995 -6.587982,0.413994c-4.035004,0.159004 -8.059998,0.436005 -12.067993,0.920006c-3.10202,0.372993 -3.337006,0.501999 -4.084015,3.862c-0.188995,0.851997 -0.289001,1.746994 -0.256989,2.615997c0.03299,0.907997 0.311981,1.379997 1.267975,1.510002c0.944,0.127998 1.88501,0.327995 2.833008,0.380997c3.002014,0.167 6.007996,0.279999 9.011993,0.414001c0.220001,0.010002 0.440002,0.026001 0.660004,0.038002c2.503998,0.135994 3.856995,1.450996 4.087006,3.970001c0.234009,2.577995 -0.975006,4.398994 -3.312988,4.973c-1.296021,0.319 -2.627014,0.230995 -3.944,0.273994c-1.541016,0.051003 -3.084015,0.012001 -4.627014,0.012001c-0.001007,-0.018997 -0.001984,-0.039001 -0.002991,-0.057999z"/>
       <g fill="#282828" id="g3234">
        <path clip-rule="evenodd" fill="#282828" fill-rule="evenodd" id="path3158" d="m175.651123,67.720627c-2.046005,-0.020996 -4.889008,-0.325996 -7.674011,-1.042c-0.788986,-0.202995 -1.350998,-0.170998 -1.841995,0.616005c-0.86499,1.383995 -2.216003,2.106995 -3.804001,2.382996c-1.917999,0.333 -3.242004,-0.385002 -4.113998,-2.159996c-0.763992,-1.555 -0.817993,-3.259003 -1.078995,-4.920998c-0.033997,-0.215996 -0.022003,-0.439995 -0.014999,-0.660999c0.028992,-0.993999 -0.320999,-1.806999 -0.932999,-2.612c-1.437012,-1.891998 -2.35701,-4.038998 -2.854004,-6.375c-0.660004,-3.106998 -0.455002,-6.108997 0.796005,-9.054001c1.753998,-4.128998 4.357986,-7.642998 7.648987,-10.647999c6.264999,-5.722002 13.625,-9.122002 22.059006,-10.051001c2.910995,-0.320999 5.858994,-0.418001 8.764999,0.280998c3.438004,0.828001 6.407013,2.528002 9.01001,4.865002c0.746994,0.671 1.540009,1.073 2.494995,1.23c1.456009,0.240999 2.855011,0.659 4.195999,1.278999c2.848007,1.314001 4.393005,3.531004 4.737,6.647001c0.369003,3.337002 -0.422989,6.403999 -1.997986,9.315002c-1.481003,2.736 -3.389999,5.160999 -5.598999,7.324997c-5.749008,5.632 -12.384003,9.855999 -20.07901,12.330994c-3.132004,1.009003 -5.723007,1.359001 -9.716003,1.251999zm-4.223007,-11.569992c2.888,0.964001 5.583008,1.192001 8.279007,1.047001c4.761002,-0.252998 9.182999,-1.826 13.453995,-3.848c2.731995,-1.293999 5.302994,-2.841 7.541,-4.902c0.979004,-0.901001 1.843002,-1.894001 2.531006,-3.030998c0.697998,-1.153 1.082993,-2.392002 1.061996,-3.760002c-0.052002,-3.391998 -2.587997,-5.561001 -5.984009,-5.105c-3.144989,0.422001 -5.852997,1.900002 -8.423996,3.612c-4.345001,2.893002 -8.436996,6.121002 -12.257996,9.683002c-2.089005,1.945 -4.203003,3.865997 -6.201004,6.303997zm-8.537491,-7.242588c0.47699,-0.449001 0.700989,-0.635002 0.895996,-0.847c4.341995,-4.707001 5.525208,-7.336021 10.755341,-11.28384c0.319,-0.202999 1.043182,-1.153759 1.035187,-1.711761c-3.76059,1.201733 -4.050674,1.6441 -7.403671,3.986099c-1.821991,1.273003 -3.263443,3.251503 -4.395447,5.178501c-0.802002,1.367001 -1.355408,2.799999 -0.887405,4.678001z"/>
        <path clip-rule="evenodd" fill="#282828" fill-rule="evenodd" id="path3160" d="m179.872894,119.754631c0.003998,2.863998 -0.103989,5.717995 -0.418991,8.566002c-0.130005,1.173996 -0.373001,2.313995 -0.804001,3.412994c-0.596008,1.514999 -1.718002,2.352005 -3.339005,2.444c-1.024002,0.059006 -2.054993,0.063004 -3.080002,0.018997c-2.15799,-0.093994 -3.740997,-1.125 -4.764999,-3.030991c-0.98999,-1.843002 -1.382996,-3.856003 -1.669998,-5.893005c-0.399994,-2.834999 -0.561996,-5.689003 -0.526001,-8.555c0.057999,-4.694 0.001999,-9.392998 0.193008,-14.081001c0.232986,-5.708 0.496994,-11.422997 1.577988,-17.059998c0.318008,-1.659004 0.690002,-3.303001 1.322998,-4.871002c0.299011,-0.742996 0.649002,-1.487 1.104004,-2.141998c1.235001,-1.777 3.311005,-2.002998 4.975006,-0.598999c0.86499,0.730995 1.390991,1.700996 1.800995,2.726997c0.684998,1.708 1.100006,3.492004 1.425995,5.299004c0.600006,3.322998 0.92601,6.681999 1.17601,10.043999c0.373001,5.043999 0.619995,10.096001 0.723999,15.153999c0.057999,2.858002 0.199005,5.711998 0.302994,8.566002z"/>
       </g>
       <path clip-rule="evenodd" fill="#282828" fill-rule="evenodd" id="path3142" d="m146.263992,127.941177c-2.173996,1.613998 -2.921188,2.112717 -5.202179,3.584717c-6.147003,3.964005 -12.705093,5.457458 -19.721107,7.475449c-5.002121,1.483002 -11.15712,1.361893 -16.712708,1.759964c-4.810005,0.492004 -8.290085,0.299362 -13.12709,-0.013596c-1.972,-0.128006 -4.382843,-0.451233 -6.217758,-0.695419c-1.482552,-0.115265 -3.429077,0.030807 -4.877075,-0.197144c-3.410004,-0.535004 -4.216232,0.239914 -7.565231,-0.601074c-0.824005,-0.207001 -0.983559,1.0616 -1.166565,1.884598c-0.223999,1.005997 -0.491997,1.990997 -0.943001,2.921997c-1.204994,2.483994 -2.642914,2.870712 -5.410919,2.911713c-0.660995,0.01001 -3.288433,-0.415634 -3.943432,-0.482635c-2.412998,-0.248993 -2.876644,0.011902 -4.123642,-2.120071c-0.865997,-1.480011 -1.335995,-3.097 -1.591,-4.772003c-0.219997,-1.449005 -0.365002,-2.912003 -0.486,-4.373001c-0.048004,-0.583008 -0.267002,-0.901001 -0.801998,-1.158005c-0.778965,-2.203003 -7.331963,-5.766541 -10.238144,-6.994965c-7.207996,-3.877991 -10.804039,-7.549805 -16.835041,-13.1008c-2.813999,-2.590004 -5.02824,-4.598183 -7.339241,-7.656181c-1.021,-1.351006 -2.793159,-2.932434 -3.825821,-4.126762c-0.408997,-0.774002 -1.384197,-2.246681 -1.6842,-3.071678c-0.550159,-2.05323 -0.607998,-3.835121 0.970001,-6.033119c0.993999,-1.384003 1.45718,-2.129242 2.782181,-3.18824c2.716,-2.168999 4.371048,-3.357254 7.516048,-4.799255c6.574001,-3.012993 13.476006,-4.989998 20.533009,-6.459999c1.866997,-0.389 3.753994,-0.682999 5.632996,-1.012001c0.571999,-0.099998 3.731728,-0.359993 3.746735,-0.995995c0.017998,-0.733002 0.058994,-1.467003 0.098999,-2.200005c0.339996,-6.160995 1.521278,-10.871422 2.010727,-17.494781c0.031826,-2.02137 0.838341,-6.612137 1.402344,-7.970139c0.339996,-0.820999 0.82576,-1.507092 1.442757,-2.154091c1.112995,-1.167 5.342449,1.085751 6.696445,1.962749c0.82,0.531002 1.766731,1.655724 2.261734,2.482723c0.835999,1.397999 1.221909,3.658459 1.66291,5.213459c0.862999,3.043999 1.123817,5.490089 1.427818,8.635082c0.319,3.284996 0.535995,6.581001 0.792,9.872002c0.083,1.076996 0.088997,1.098 1.138,1.129997c3.887985,0.118004 7.779991,0.133003 11.659988,0.370003c7.709,0.471001 15.302277,2.15696 22.675285,4.604958c3.074997,1.019997 5.810669,2.219559 8.541672,3.983559c2.177002,1.404999 3.597916,2.537918 5.105927,4.668922c1.160995,1.640999 2.430634,4.260841 2.723633,6.26384c0.447998,3.060997 -0.553757,4.663681 -2.433762,7.126678c-1.442993,1.889999 -3.065842,3.749763 -5.127838,4.947762c-0.655991,0.380997 -0.79892,0.558281 -1.560913,0.50528c-2.134171,0.26413 -3.372726,0.270271 -5.263718,0.040298c-2.547012,-0.311996 -9.446739,-2.238571 -8.650299,-3.879372c0.467125,-0.350838 3.017593,-1.526695 3.7836,-2.317696c0.664993,-0.687004 2.302429,-1.624321 2.632431,-2.558319c0.823608,-0.664085 1.471924,-4.013725 1.050919,-4.492722c-0.541,-0.617004 -4.166077,-1.225929 -5.491684,-1.532158c-1.689651,-0.210526 -3.230774,-0.62899 -5.154114,-0.992401c-6.346268,-1.304909 -11.66156,-2.011841 -18.191559,-2.59584c-3.595001,-0.320999 -5.160843,-0.31942 -8.757843,-0.33242c-0.365997,-0.001999 -0.734001,0.006996 -1.098999,0.041c-0.323997,0.029999 -0.550995,0.225998 -0.567001,0.556999c-0.033997,0.732002 -0.064995,1.467003 -0.044998,2.199997c0.103004,3.741005 0.229004,6.268501 0.334,10.008499c0.141998,4.988007 0.262001,9.977005 0.411003,14.965004c0.083,2.786003 0.211998,5.570999 0.306,8.356003c0.019997,0.591003 1.256096,1.737061 1.900101,1.862061c1.284866,0.220993 2.38372,0.383957 5.154716,0.695953c5.120003,0.576004 11.613121,0.481979 16.750122,0.221985c9.354996,-0.475006 14.578644,-1.124924 23.394653,-4.425919c3.794998,-1.420006 8.555099,-2.991982 11.869102,-5.342987c3.639008,-2.580994 7.995117,-4.940933 10.141113,-8.895935c3.147003,-5.801003 5.008041,-12.7164 3.718033,-19.124405c-0.938995,-4.660995 -3.389297,-10.573288 -5.853302,-14.607285c-2.690994,-4.407005 -7.452988,-8.480881 -11.036995,-12.191879c-7.763,-8.038063 -14.355942,-13.209095 -23.906937,-18.929096c-11.375,-6.813999 -24.873802,-11.150398 -37.478798,-15.283401c-9.224998,-3.025 -18.617004,-5.348 -28.208,-6.825998c-5.514996,-0.849001 -7.38472,-1.24036 -12.97472,-1.34836c-1.172001,-0.022001 -5.06319,-0.23455 -6.235191,-0.240551c-5.215,-0.032 -7.329079,0.057911 -12.516079,0.61091c-1.608,0.171999 -3.200001,0.442999 -4.754,0.889999c-0.558,0.16 -1.11,0.394001 -1.610001,0.687c-1.17273,3.046089 5.24428,3.69191 5.99328,4.29591c0.449999,0.363001 0.994999,0.610001 1.497,0.91c1.177,0.704 1.661001,1.414001 1.433001,2.215c-0.292999,1.029001 -1.194,1.202002 -2.075001,1.360003c-2.344,0.422001 -7.77092,0.213909 -10.08292,-0.347092c-0.559,-0.135998 -4.337999,-1.507181 -4.843,-1.79418c-0.962,-0.548 -2.69728,-2.002371 -2.77528,-3.109371c-0.085,-1.198999 0.61182,-3.150999 1.145821,-4.230999c0.426,-0.859001 0.64382,-1.225719 1.068179,-2.227911c0.792001,-0.868999 1.739551,-2.327909 2.481551,-3.234909c1.50465,-1.50465 3.688999,-2.357809 6.505999,-3.096809c3.058001,-0.801999 4.32736,-1.592639 7.460361,-1.96664c7.219999,-0.862 14.468,-1.349 21.743998,-1.361c5.441998,-0.009 10.846004,0.465 16.238998,1.160001c10.230007,1.318999 20.177002,3.815998 29.921005,7.152c14.515999,4.969997 28.225998,11.624996 41.007004,20.103998c9.257996,6.142002 17.984001,12.981003 25.689003,21.041c5.453003,5.702995 10.354004,11.817993 14.039001,18.83699c2.020996,3.853004 3.60199,7.867004 4.371002,12.174004c0.988998,5.538002 0.542999,10.972 -1.167007,16.306c-1.871002,5.838997 -3.596085,9.855362 -7.843094,14.253357c-0.967987,1 -3.307587,4.454781 -5.347,5.707191zm-91.561375,-6.878197c0.322006,-0.373001 0.111687,-0.974091 0.113682,-1.399094c0.022007,-7.041 -0.042995,-12.243362 0.177006,-19.283356c0.078003,-2.492004 0.07,-4.987 0.098,-7.480003c0.007004,-0.585999 0.015999,-1.173996 0,-1.761002c-0.028,-1.063995 -0.129997,-1.144997 -1.120998,-1.085999c-4.390011,0.260002 -9.140034,1.650093 -13.512032,2.144089c-3.937004,0.445 -5.648632,1.04393 -9.510635,1.91993c-2.214996,0.503006 -3.148888,1.096535 -5.21489,2.069534c-1,0.472 -1.64444,1.114632 -2.42944,1.903625c-0.51825,0.897644 -1.002029,1.587212 -0.120029,3.028214c0.616001,1.007996 1.182781,1.68589 1.998779,2.534889c2.349003,2.447998 4.867992,5.027443 7.652,6.944443c7.408993,5.098999 9.392338,6.879555 17.656246,11.049187c0.464001,0.174004 3.660316,-0.421463 4.212311,-0.584457z"/>
      </g>
     </g>
    </g>
   </g>
  </g>
 </g>
</svg>