<?xml version="1.0" encoding="utf-8"?>
<!-- Generator: Adobe Illustrator 21.1.0, SVG Export Plug-In . SVG Version: 6.00 Build 0)  -->
<svg version="1.1" id="Livello_1" xmlns="http://www.w3.org/2000/svg" xmlns:xlink="http://www.w3.org/1999/xlink" x="0px" y="0px"
	 viewBox="0 0 318 456" style="enable-background:new 0 0 318 456;" xml:space="preserve">
<style type="text/css">
	.st0{fill:#F85397;}
</style>
<g>
	<path d="M77.7,214.1c-15.6,48.6-23,77-22.2,85c1.6,16.3,11.7,24.4,29.9,24.4c14.9,0,31.2-5.3,48.9-15.8c1-5.1,2.5-10.7,4.3-16.4
		l54.9-170.7c-10.7-10.3-23.4-15.5-37.9-15.5c-18.6,0-33.8,8.2-45.7,24.5C103.6,138.7,93,166.9,77.7,214.1 M290,34.3l-82.7,257.5
		c-6.5,20.1,1.8,30,24.7,30l-1.5,4.3h-85.8c-2.9,0-5.4-2.3-7.4-7c-2.1-4.6-3.3-6.9-3.6-6.9c-18.8,10.3-35.3,15.4-49.6,15.4
		c-33.7,0-57.5-10-71.4-30.2c-13.8-20.1-15.1-48-3.6-83.5c11.3-35.5,30.4-63.2,57-83.2c26.6-20,56.9-30,90.9-30
		c14.4,0,27.1,4.7,38.3,14.2l26-80.7c6.4-20-1.8-30-24.7-30L198,0h85.8C295.2,0,297.3,11.5,290,34.3"/>
	<path class="st0" d="M313.7,291.7c0,18.7-15.1,33.9-33.8,33.9c0,0,0,0,0,0c-18.7,0-33.9-15.2-34-33.9c0-18.7,15.2-33.9,34-33.9
		C298.6,257.8,313.7,273,313.7,291.7"/>
</g>
<g id="logo-divinity" transform="translate(57.000000, 0.000000)">
	<path id="Fill-1" d="M-43.2,415.6c0,9.7,0.3,15.4,1,17c1.4,3.3,3.9,4.9,7.6,4.9c3,0,5.9-1.1,8.8-3.2c-0.1-1-0.2-2.1-0.2-3.3V397
		c-2.8-2.1-5.7-3.1-8.6-3.1c-3.7,0-6.3,1.6-7.6,4.9C-42.9,400.6-43.2,406.2-43.2,415.6L-43.2,415.6z M-12.1,379.8v51.4
		c0,4,2.3,6,6.9,6v0.9h-17.3c-0.6,0-1.2-0.5-1.9-1.4c-0.7-0.9-1.1-1.4-1.2-1.4c-3.1,2.1-6.1,3.1-9,3.1c-6.8,0-12.2-2-16.3-6
		c-4.1-4-6.1-9.6-6.1-16.7c0-7.1,2-12.6,6.1-16.6c4.1-4,9.5-6,16.3-6c2.9,0,5.8,0.9,8.6,2.8v-16.1c0-4-2.3-6-6.9-6v-0.9h17.3
		C-13.3,372.9-12.1,375.2-12.1,379.8L-12.1,379.8z"/>
	<path id="Fill-2" d="M3.5,384.6c-1.4-1.3-2-3-2-4.8c0-1.9,0.7-3.5,2-4.8c1.4-1.3,3-2,4.9-2c1.9,0,3.5,0.7,4.9,2c1.4,1.3,2,3,2,4.8
		c0,1.9-0.7,3.5-2,4.8c-1.4,1.3-3,2-4.9,2C6.5,386.6,4.9,385.9,3.5,384.6L3.5,384.6z M-5.4,393.5h17.3c2.3,0,3.5,2.3,3.5,6.9v30.8
		c0,4,2.3,6,6.9,6v0.9H-5.4v-0.9c4.6,0,6.9-2,6.9-6v-30.8c0-4-2.3-6-6.9-6V393.5L-5.4,393.5z"/>
	<path id="Fill-3" d="M40.5,399.8l10,24.5l10-24.5c0.4-1,0.6-1.9,0.6-2.8c0-1.8-1.7-2.8-5-2.8v-0.9h11.2v0.9c-2.5,0.1-4.4,2-5.9,5.8
		L46.1,438h-2.8c-1,0-1.8-0.3-2.3-0.9c-0.1-0.1-0.8-1.9-2.1-5.4l-12.6-31.6c-1.2-2.9-2.2-4.5-3.1-5.1c-0.8-0.5-2.2-0.8-4.1-0.8v-0.9
		h16.4C37.2,393.5,39,395.6,40.5,399.8"/>
	<path id="Fill-4" d="M77.9,384.6c-1.4-1.3-2-3-2-4.8c0-1.9,0.7-3.5,2-4.8c1.4-1.3,3-2,4.9-2s3.5,0.7,4.9,2c1.4,1.3,2,3,2,4.8
		c0,1.9-0.7,3.5-2,4.8c-1.4,1.3-3,2-4.9,2S79.2,385.9,77.9,384.6L77.9,384.6z M69,393.5h17.3c2.3,0,3.5,2.3,3.5,6.9v30.8
		c0,4,2.3,6,6.9,6v0.9H69v-0.9c4.6,0,6.9-2,6.9-6v-30.8c0-4-2.3-6-6.9-6V393.5L69,393.5z"/>
	<path id="Fill-5" d="M117.2,400.3v30.8c0,4,2.3,6,6.9,6v0.9H96.5v-0.9c4.6,0,6.9-2,6.9-6v-30.8c0-4-2.3-6-6.9-6v-0.9h17.3
		c0.5,0,1.1,0.4,1.9,1.3c0.7,0.9,1.1,1.3,1.3,1.3c3.1-2.1,6.1-3.1,9-3.1c14.9,0,22.4,5.3,22.4,15.8v22.3c0,4,2.3,6,6.9,6v0.9h-27.6
		v-0.9c4.6,0,6.9-2,6.9-6v-21.4c0-10.6-2.9-15.8-8.6-15.8c-3,0-5.9,1.1-8.8,3.2C117.1,398.1,117.2,399.2,117.2,400.3"/>
	<path id="Fill-6" d="M163.7,384.6c-1.4-1.3-2-3-2-4.8c0-1.9,0.7-3.5,2-4.8c1.4-1.3,3-2,4.9-2c1.9,0,3.5,0.7,4.9,2
		c1.4,1.3,2,3,2,4.8c0,1.9-0.7,3.5-2,4.8c-1.4,1.3-3,2-4.9,2C166.7,386.6,165.1,385.9,163.7,384.6L163.7,384.6z M154.8,393.5H172
		c2.3,0,3.5,2.3,3.5,6.9v30.8c0,4,2.3,6,6.9,6v0.9h-27.6v-0.9c4.6,0,6.9-2,6.9-6v-30.8c0-4-2.3-6-6.9-6V393.5L154.8,393.5z"/>
	<path id="Fill-8" d="M234.2,399.8l10,24.4l9.9-24.4c0.4-1,0.6-1.9,0.6-2.7c0-1.8-1.7-2.7-5.1-2.7v-0.9H261v0.9
		c-2.5,0.1-4.4,2-5.9,5.8l-10.3,25.4l-4.8,12.1l-4.9,12.1c-2,4.2-4.5,6.3-7.4,6.3c-1.9,0-3.5-0.7-4.9-2c-1.4-1.3-2-3-2-4.8
		c0-1.9,0.7-3.5,2-4.8c1.3-1.3,2.9-2,4.8-2c1.8,0,3.3,0.6,4.7,1.8c1.2,1,2.1,1.5,2.8,1.5c0.4,0,0.7-0.2,0.9-0.7l1-2l-0.9-2.6
		l-1.3-3.3c-0.1-0.1-2.1-5.4-2.1-5.4l-12.6-31.6c-1.1-2.8-2.2-4.5-3.1-5.1c-0.8-0.5-2.2-0.8-4.1-0.8v-0.9H229
		C230.9,393.5,232.7,395.6,234.2,399.8"/>
	<path d="M203,394.3h12.1v-0.9H203v-12h-8.6c0,8-2.8,12-8.3,12h-3.8v0.9c4.6,0,6.9,2,6.9,6v0h0v30.8c0,4-2.3,6-6.9,6v0.9h27.6v-0.9
		c-4.6,0-6.9-2-6.9-6L203,394.3z"/>
</g>
</svg>
