<?xml version="1.0" encoding="UTF-8"?>
<!DOCTYPE svg  PUBLIC '-//W3C//DTD SVG 1.1//EN'  'http://www.w3.org/Graphics/SVG/1.1/DTD/svg11.dtd'>
<svg width="630pt" height="298pt" version="1.1" viewBox="0 0 630 298" xmlns="http://www.w3.org/2000/svg">
<g fill="#fefffe">
<path d="m387.67 90.7c12.54-6.92 27.36-7.17 41.29-6.09 15.58 1.44 30.75 7.32 42.97 17.15-6.4 8.54-12.27 17.46-18.6 26.05-10.57-7.61-23.23-12.78-36.36-13.18-4.87-0.08-11 0.89-13.32 5.8-1.02 3.06-0.53 6.8 2.07 8.95 3.58 2.7 8.03 3.85 12.27 5.09 14.35 3.61 29.48 6.12 42.08 14.4 7.42 4.71 13.08 12.34 14.59 21.09 1.97 11.23 0.08 23.56-6.89 32.82-10.91 14.61-30.42 19.3-47.81 18.69-21.77-0.01-43.73-7.39-60.23-21.78 6.63-8.34 13.64-16.37 20.34-24.66 11.48 8.77 25.24 15.43 39.92 15.72 5.28 0.06 11.27 0.51 15.58-3.14 3.5-2.71 3.71-8.58 0.35-11.48-3.51-2.89-8.02-4.07-12.28-5.39-14.05-3.74-28.86-6.09-41.44-13.82-8.46-5.05-14.84-13.88-15.76-23.83-0.38-5.09-0.48-10.28 0.41-15.34 2.26-11.61 10.32-21.72 20.82-27.05z"/>
<path d="m495.39 95.33c10.5-8.46 24.39-11.57 37.66-11.15 19.14-0.34 38.75 5.26 53.59 17.64-6.25 8.58-12.28 17.31-18.39 25.99-10.89-7.7-23.84-12.98-37.3-13.2-4.23 0.11-9.13 0.94-11.82 4.56-2.06 3.51-1.39 9.01 2.49 11.02 9.09 4.94 19.6 5.89 29.41 8.73 11.42 3.22 23.37 7.43 31.47 16.56 6.9 7.62 8.51 18.6 7.28 28.49-0.96 10.75-6.85 20.91-15.65 27.15-10.95 7.89-24.82 10.66-38.11 10.35-22.2 0.24-44.79-7.08-61.53-21.9 6.85-8.18 13.69-16.36 20.49-24.59 12.13 9.69 27.33 16.27 43.07 15.8 4.89 0.12 10.78-0.49 13.84-4.84 2.56-3.68 1.03-9.06-2.88-11.1-8.72-4.64-18.7-5.79-28.09-8.46-11.11-3.08-22.75-6.8-31.08-15.17-7.89-7.73-10.23-19.61-8.71-30.23 1.16-9.98 6.36-19.41 14.26-25.65z"/>
<path d="m51.18 86.34c17.29-0.01 34.57 0 51.85 0 19.25 0.03 39.42 3.8 55.17 15.51 11.9 8.78 19.34 22.65 21.55 37.15 2.61 17.13 0.35 35.71-9.41 50.38-8.42 12.75-22.12 21.17-36.56 25.5-9.64 3.06-19.77 3.96-29.82 4.43-17.56 0.13-35.12-0.1-52.67 0.11-0.24-44.36-0.03-88.72-0.11-133.08z"/>
<path d="m185.44 86.31c12.3 0.06 24.6-0.01 36.9 0.05 0.03 17.94-0.18 35.89 0.1 53.82 14.78-18.18 30.29-35.76 45.2-53.84 14.55 0.05 29.12-0.09 43.67 0.07-15.93 18.03-31.67 36.25-47.66 54.24-0.74 1.09-2.3 1.91-2.07 3.44 17.13 25.09 34.47 50.06 51.37 75.3-14.64-0.1-29.28-0.05-43.92-0.02-11.13-16.38-22.35-32.7-33.16-49.28-4.84 4.65-9.29 9.78-13.51 14.97-0.14 11.42 0.02 22.86-0.07 34.29-12.27 0.01-24.53-0.06-36.8 0.03-0.06-44.35 0.05-88.71-0.05-133.07z"/>
<path d="m317.62 86.36c12.35-0.03 24.69-0.03 37.04-0.02-0.14 44.34-0.01 88.69-0.07 133.03-12.31-0.07-24.63-0.01-36.94-0.02-0.06-44.33 0-88.66-0.03-132.99z"/>
</g>
<path d="m8.97 4.83c4.21-3.41 9.73-4.36 15.01-4.25 192.34-0.01 384.69 0 577.03-0.01 5.96 0.07 12.36-0.53 17.73 2.59 6.4 3.2 10.26 9.91 11.26 16.83v258.67c-1.04 5.47-3.42 10.9-7.95 14.36-3.35 2.94-7.75 4.17-12.03 4.98h-589.86c-6.19-0.97-12.27-3.82-15.82-9.17-6.14-8.07-2.87-19.01-4.34-28.26v-236.72l0.85 3.94c-1.63-8.35 0.96-17.92 8.12-22.96m378.7 85.87c-10.5 5.33-18.56 15.44-20.82 27.05-0.89 5.06-0.79 10.25-0.41 15.34 0.92 9.95 7.3 18.78 15.76 23.83 12.58 7.73 27.39 10.08 41.44 13.82 4.26 1.32 8.77 2.5 12.28 5.39 3.36 2.9 3.15 8.77-0.35 11.48-4.31 3.65-10.3 3.2-15.58 3.14-14.68-0.29-28.44-6.95-39.92-15.72-6.7 8.29-13.71 16.32-20.34 24.66 16.5 14.39 38.46 21.77 60.23 21.78 17.39 0.61 36.9-4.08 47.81-18.69 6.97-9.26 8.86-21.59 6.89-32.82-1.51-8.75-7.17-16.38-14.59-21.09-12.6-8.28-27.73-10.79-42.08-14.4-4.24-1.24-8.69-2.39-12.27-5.09-2.6-2.15-3.09-5.89-2.07-8.95 2.32-4.91 8.45-5.88 13.32-5.8 13.13 0.4 25.79 5.57 36.36 13.18 6.33-8.59 12.2-17.51 18.6-26.05-12.22-9.83-27.39-15.71-42.97-17.15-13.93-1.08-28.75-0.83-41.29 6.09m107.72 4.63c-7.9 6.24-13.1 15.67-14.26 25.65-1.52 10.62 0.82 22.5 8.71 30.23 8.33 8.37 19.97 12.09 31.08 15.17 9.39 2.67 19.37 3.82 28.09 8.46 3.91 2.04 5.44 7.42 2.88 11.1-3.06 4.35-8.95 4.96-13.84 4.84-15.74 0.47-30.94-6.11-43.07-15.8-6.8 8.23-13.64 16.41-20.49 24.59 16.74 14.82 39.33 22.14 61.53 21.9 13.29 0.31 27.16-2.46 38.11-10.35 8.8-6.24 14.69-16.4 15.65-27.15 1.23-9.89-0.38-20.87-7.28-28.49-8.1-9.13-20.05-13.34-31.47-16.56-9.81-2.84-20.32-3.79-29.41-8.73-3.88-2.01-4.55-7.51-2.49-11.02 2.69-3.62 7.59-4.45 11.82-4.56 13.46 0.22 26.41 5.5 37.3 13.2 6.11-8.68 12.14-17.41 18.39-25.99-14.84-12.38-34.45-17.98-53.59-17.64-13.27-0.42-27.16 2.69-37.66 11.15m-444.21-8.99c0.08 44.36-0.13 88.72 0.11 133.08 17.55-0.21 35.11 0.02 52.67-0.11 10.05-0.47 20.18-1.37 29.82-4.43 14.44-4.33 28.14-12.75 36.56-25.5 9.76-14.67 12.02-33.25 9.41-50.38-2.21-14.5-9.65-28.37-21.55-37.15-15.75-11.71-35.92-15.48-55.17-15.51-17.28 0-34.56-0.01-51.85 0m134.26-0.03c0.1 44.36-0.01 88.72 0.05 133.07 12.27-0.09 24.53-0.02 36.8-0.03 0.09-11.43-0.07-22.87 0.07-34.29 4.22-5.19 8.67-10.32 13.51-14.97 10.81 16.58 22.03 32.9 33.16 49.28 14.64-0.03 29.28-0.08 43.92 0.02-16.9-25.24-34.24-50.21-51.37-75.3-0.23-1.53 1.33-2.35 2.07-3.44 15.99-17.99 31.73-36.21 47.66-54.24-14.55-0.16-29.12-0.02-43.67-0.07-14.91 18.08-30.42 35.66-45.2 53.84-0.28-17.93-0.07-35.88-0.1-53.82-12.3-0.06-24.6 0.01-36.9-0.05m132.18 0.05c0.03 44.33-0.03 88.66 0.03 132.99 12.31 0.01 24.63-0.05 36.94 0.02 0.06-44.34-0.07-88.69 0.07-133.03-12.35-0.01-24.69-0.01-37.04 0.02z" fill="#642e84"/>
</svg>
