<?xml version="1.0" encoding="utf-8"?>
<!-- Generator: Adobe Illustrator 22.1.0, SVG Export Plug-In . SVG Version: 6.00 Build 0)  -->
<svg version="1.1"
	 id="svg2985" inkscape:version="0.48.5 r10040" sodipodi:docname="Eurosport1.jpg" xmlns:cc="http://creativecommons.org/ns#" xmlns:dc="http://purl.org/dc/elements/1.1/" xmlns:inkscape="http://www.inkscape.org/namespaces/inkscape" xmlns:rdf="http://www.w3.org/1999/02/22-rdf-syntax-ns#" xmlns:sodipodi="http://sodipodi.sourceforge.net/DTD/sodipodi-0.dtd" xmlns:svg="http://www.w3.org/2000/svg"
	 xmlns="http://www.w3.org/2000/svg" xmlns:xlink="http://www.w3.org/1999/xlink" x="0px" y="0px" viewBox="0 0 653.3 66"
	 style="enable-background:new 0 0 653.3 66;" xml:space="preserve">
<style type="text/css">
	.st0{fill:#171F50;}
	.st1{fill:#D30132;}
	.st2{fill:#FFFFFF;}
</style>
<g id="g3044">
	<path id="XMLID_193_" inkscape:connector-curvature="0" class="st0" d="M56.3,64.2L35,50.3L2.1,64.2l19.5-22.4L0,28h33.5L56.3,1.7
		V28h32.4L56.3,41.6V64.2z"/>
	<path id="XMLID_192_" inkscape:connector-curvature="0" class="st0" d="M96.7,14.6c1.2,0,2.1-0.9,2.1-2.1V3.8
		c0-1.2-0.9-2.1-2.1-2.1h-35v12.9C61.7,14.6,96.7,14.6,96.7,14.6z"/>
	<path id="XMLID_191_" inkscape:connector-curvature="0" class="st0" d="M96.7,64.2c1.2,0,2.1-0.9,2.1-2.1v-8.8
		c0-1.2-0.9-2.1-2.1-2.1h-35v12.9C61.7,64.2,96.7,64.2,96.7,64.2z"/>
	<path id="XMLID_179_" inkscape:connector-curvature="0" class="st0" d="M153.9,1.7H145c-1.2,0-2.1,0.9-2.1,2.1v38.7
		c0,1.6-0.2,3-0.9,4.4c-0.5,1.2-1.4,2.3-2.3,3c-0.9,0.9-2.1,1.4-3.5,1.8c-1.4,0.5-3.8,0.7-5.4,0.7s-4.2-0.2-5.6-0.7
		c-1.4-0.5-2.6-1.2-3.5-1.8c-0.9-0.7-1.6-1.8-2.3-3c-0.5-1.2-0.9-2.8-0.9-4.4V3.8c0-1.2-0.9-2.1-2.1-2.1h-8.9
		c-1.2,0-2.1,0.9-2.1,2.1v38.9c0,3.7,0.7,6.9,2.1,9.7s3.3,5.1,5.6,7.1c2.3,1.8,5.2,3.5,8.2,4.4c3,0.9,6.3,1.4,9.6,1.4
		c3.3,0,6.6-0.5,9.6-1.4c3-0.9,5.9-2.5,8-4.4c2.3-1.8,4.2-4.4,5.4-7.1c1.4-2.8,2.1-6,2.1-9.7V3.8C156,2.6,155.1,1.7,153.9,1.7
		L153.9,1.7z"/>
	<path id="XMLID_177_" inkscape:connector-curvature="0" class="st0" d="M216.8,60.9l-14.5-17.7c0,0,11.7-4.1,11.7-18.9
		c0-3-0.5-6-1.6-8.8c-0.9-2.8-2.6-5.3-4.7-7.4c-2.1-2.1-4.5-3.7-7.3-4.8s-6.1-1.8-9.6-1.8h-23.5c-1.2,0-2.1,0.9-2.1,2.1v58.5
		c0,1.2,0.9,2.1,2.1,2.1h8.9c1.2,0,2.1-0.9,2.1-2.1V14.6h13.1c1.4,0,2.8,0.2,3.8,0.7c1.2,0.5,2.1,1.2,3,2.1c0.7,0.9,1.4,1.8,1.9,3
		s0.7,2.5,0.7,4.1c0,1.4-0.2,2.8-0.7,3.9c-0.5,1.2-1.2,2.3-1.9,3.2c-0.9,0.9-1.9,1.4-2.8,1.8c-1.2,0.5-3,0.7-7,0.7h-5.6
		c0,0-1.9,0.9-1.2,2.3l20.6,26.7c0.5,0.5,0.9,0.9,1.6,0.9h11.5C217.3,64.4,218.4,62.8,216.8,60.9L216.8,60.9z"/>
	<path id="XMLID_183_" inkscape:connector-curvature="0" class="st0" d="M274.3,9.3c-3-2.8-6.3-4.8-10.3-6.2c-4-1.4-8-2.1-12.4-2.1
		c-4.2,0-8.4,0.7-12.2,2.1c-4,1.4-7.5,3.5-10.3,6.2c-3,2.8-5.4,6.2-7,10.1c-1.6,3.9-2.6,8.5-2.6,13.6s0.9,9.7,2.6,13.6
		c1.6,3.9,4,7.4,7,10.1c3,2.8,6.3,4.8,10.3,6.2c4,1.4,8,2.1,12.4,2.1c4.7,0,9.1-0.7,13.1-2.3c4-1.6,7.5-3.7,10.3-6.7
		c2.8-2.8,5.2-6.2,6.8-10.1c1.6-3.9,2.3-8.3,2.3-13.1c0-5.1-0.9-9.7-2.6-13.6C279.7,15.6,277.1,12.1,274.3,9.3L274.3,9.3z
		 M269.1,41.8c-0.9,2.3-2.3,4.4-4,6c-1.6,1.6-3.8,2.8-6.1,3.7s-4.7,1.2-7.5,1.2c-2.6,0-5.2-0.5-7.5-1.2c-2.3-0.9-4.2-2.1-5.9-3.7
		c-1.6-1.6-3-3.7-4-6c-0.9-2.5-1.6-5.3-1.6-8.5s0.5-6.2,1.6-8.5c0.9-2.5,2.3-4.4,4-6c1.6-1.6,3.8-2.8,6.1-3.7s4.9-1.4,7.5-1.4
		c2.6,0,5.2,0.5,7.5,1.4c2.3,0.9,4.2,2.1,5.9,3.7s3,3.7,4,6.2c0.9,2.5,1.6,5.3,1.6,8.5C270.5,36.3,270,39.3,269.1,41.8z"/>
	<path id="XMLID_186_" inkscape:connector-curvature="0" class="st0" d="M301.5,19.7c0,1.4,0.2,2.1,0.7,2.8c0.5,0.7,1.4,1.4,2.3,2.1
		c1.2,0.5,2.3,0.9,4,1.4c1.6,0.5,3.3,0.7,4.9,0.9c3,0.5,6.1,1.2,8.9,1.8c3,0.7,5.6,1.8,8,3.2s4.2,3.5,5.4,5.8
		c1.4,2.5,1.9,5.5,1.9,9.2c-0.2,3.5-1.2,6.7-2.8,9s-3.8,4.4-6.3,5.8s-4.9,2.5-8,3s-6.3,0.7-9.1,0.7c-7.3-0.2-17.8-4.4-23.2-11.5
		c-0.5-0.7-0.9-1.6,0.2-2.8c1.2-1.2,6.6-6.7,6.6-6.7c1.2-1.2,2.1-0.2,2.6,0.2c3,4.6,9.4,7.8,14.3,8.1c2.6,0,2.8,0,4.5-0.2
		c1.4-0.2,2.8-0.5,4-1.2c1.2-0.5,2.1-1.2,2.8-2.1c0.7-0.9,1.2-2.1,1.2-3.5c0-1.4-0.2-2.5-0.9-3.2c-0.7-0.9-1.6-1.6-2.8-2.3
		c-1.2-0.7-2.8-1.2-4.5-1.4c-1.6-0.2-3.5-0.7-5.2-0.9c-2.8-0.5-5.6-0.9-8.2-1.6c-2.8-0.7-5.2-1.8-7.3-3.2c-2.1-1.4-4-3.2-5.2-5.5
		c-1.4-2.3-1.9-4.8-1.9-8.3c0.2-3.2,0.9-6.2,2.6-8.8c1.4-2.3,3.5-4.4,5.9-6c2.3-1.4,4.9-2.5,8-3.2c5.6-1.4,11.5-1.2,17.1,0.7
		c6.1,1.8,11,6.5,13.4,9.7c0.5,0.7,0.9,1.6,0,2.5l-6.3,6.2c-1.2,1.2-2.3,0.9-3-0.2c-3.3-4.8-7.5-6.9-12.4-7.1
		C307.8,13,301.7,14.2,301.5,19.7z"/>
	<path id="XMLID_187_" inkscape:connector-curvature="0" class="st0" d="M390.6,15.8c-0.9-2.8-2.6-5.3-4.7-7.4s-4.5-3.7-7.3-4.8
		c-2.8-1.2-6.1-1.8-9.6-1.8h-23.7c-1.2,0-2.1,0.9-2.1,2.1v58.5c0,1.2,0.9,2.1,2.1,2.1h8.9c1.2,0,2.1-0.9,2.1-2.1v-15H369
		c3.5,0,6.8-0.7,9.6-1.8s5.2-2.8,7.3-4.8s3.5-4.4,4.7-7.1c0.9-2.8,1.6-6,1.6-9C392,21.3,391.6,18.5,390.6,15.8z M378.2,28.5
		c-0.5,1.2-1.2,2.3-1.9,3.2c-0.9,0.9-1.9,1.4-2.8,1.8c-1.2,0.5-3,0.7-7,0.7h-10.1V14.6h13.1c1.4,0,2.8,0.2,3.8,0.7
		c1.2,0.5,2.1,1.2,3,2.1c0.7,0.9,1.4,1.8,1.9,3c0.5,1.2,0.7,2.5,0.7,4.1C378.9,25.9,378.7,27.3,378.2,28.5z"/>
	<path id="XMLID_180_" inkscape:connector-curvature="0" class="st0" d="M451.6,9.3c-3-2.8-6.3-4.8-10.3-6.2c-4-1.4-8-2.1-12.4-2.1
		c-4.2,0-8.4,0.7-12.2,2.1c-4,1.4-7.5,3.5-10.3,6.2c-3,2.8-5.4,6.2-7,10.1s-2.6,8.5-2.6,13.6s0.9,9.7,2.6,13.6s4,7.4,7,10.1
		c3,2.8,6.3,4.8,10.3,6.2c4,1.4,8,2.1,12.4,2.1c4.7,0,9.1-0.7,13.1-2.3s7.5-3.7,10.3-6.7c2.8-2.8,5.2-6.2,6.8-10.1
		c1.6-3.9,2.3-8.3,2.3-13.1c0-5.1-0.9-9.7-2.6-13.6C457,15.6,454.7,12.1,451.6,9.3L451.6,9.3z M446.5,41.8c-0.9,2.3-2.3,4.4-4,6
		c-1.6,1.6-3.8,2.8-6.1,3.7s-4.7,1.2-7.5,1.2c-2.6,0-5.2-0.5-7.5-1.2c-2.3-0.9-4.2-2.1-5.9-3.7c-1.6-1.6-3-3.7-4-6
		c-0.9-2.5-1.6-5.3-1.6-8.5s0.5-6.2,1.6-8.5c0.9-2.5,2.3-4.4,4-6c1.6-1.6,3.8-2.8,6.1-3.7s4.9-1.4,7.5-1.4s5.2,0.5,7.5,1.4
		c2.3,0.9,4.2,2.1,5.9,3.7c1.6,1.6,3,3.7,4,6.2c0.9,2.5,1.6,5.3,1.6,8.5C448.1,36.3,447.4,39.3,446.5,41.8z"/>
	<path id="XMLID_175_" inkscape:connector-curvature="0" class="st0" d="M519.2,60.9l-14.5-17.7c0,0,11.7-4.1,11.7-18.9
		c0-3-0.5-6-1.6-8.8c-0.9-2.8-2.6-5.3-4.7-7.4s-4.5-3.7-7.3-4.8c-2.8-1.2-6.1-1.8-9.6-1.8h-23.7c-1.2,0-2.1,0.9-2.1,2.1v58.5
		c0,1.2,0.9,2.1,2.1,2.1h8.9c1.2,0,2.1-0.9,2.1-2.1V14.4h13.1c1.4,0,2.8,0.2,3.8,0.7c1.2,0.5,2.1,1.2,3,2.1c0.7,0.9,1.4,1.8,1.9,3
		c0.5,1.2,0.7,2.5,0.7,4.1c0,1.4-0.2,2.8-0.7,3.9c-0.5,1.2-1.2,2.3-1.9,3.2c-0.9,0.9-1.9,1.4-2.8,1.8c-1.2,0.5-3,0.7-7,0.7h-5.6
		c-1.2,0-1.9,0.9-1.2,2.3L504.4,63c0.5,0.5,0.9,0.9,1.6,0.9h11.5C519.7,64.4,520.6,62.8,519.2,60.9L519.2,60.9z"/>
	<path id="XMLID_190_" inkscape:connector-curvature="0" class="st0" d="M564,1.7h-43.4c-1.2,0-2.1,0.9-2.1,2.1v8.8
		c0,1.2,0.9,2.1,2.1,2.1h15.2v47.7c0,1.2,0.9,2.1,2.1,2.1h8.9c1.2,0,2.1-0.9,2.1-2.1V14.6h15.2c1.2,0,2.1-0.9,2.1-2.1V3.8
		C566.1,2.6,565.2,1.7,564,1.7z"/>
	<path class="st1" d="M590.3,0h63v66h-63V0z"/>
	<path class="st2" d="M611.7,9.4V19h7.6v36.6h9.9V19V9.4h-9.9H611.7z"/>
</g>
</svg>
