<?xml version="1.0" encoding="utf-8"?>
<!-- Generator: Adobe Illustrator 22.0.1, SVG Export Plug-In . SVG Version: 6.00 Build 0)  -->
<svg version="1.1" id="Layer_1" xmlns="http://www.w3.org/2000/svg" xmlns:xlink="http://www.w3.org/1999/xlink" x="0px" y="0px"
	 width="1000px" height="100.5495529px" viewBox="0 0 1000 100.5495529" enable-background="new 0 0 1000 100.5495529"
	 xml:space="preserve">
<g>
	<polygon fill="#1D0F44" points="86.1233597,98.7856903 53.572731,77.3954697 3.2582006,98.7233963 32.8876343,63.944561 
		0,42.3669128 51.2882767,42.3669128 86.1233597,1.5396864 86.1233597,42.3669128 135.8386841,42.3669128 86.1233597,63.5449295 	
		"/>
	<path fill="#1D0F44" d="M147.8683929,21.4607105c1.7414398,0,3.1582947-1.4168072,3.1582947-3.1581955l0.0062408-13.6693954
		c0-1.7413895-1.4168549-3.1583877-3.1582947-3.1583877H94.5702972v19.9922657L147.8683929,21.4607105z"/>
	<path fill="#1D0F44" d="M147.8683929,98.9710236c1.7414398,0,3.1582947-1.4168015,3.1582947-3.1581955l0.0062408-13.6693954
		c0-1.7413864-1.4168549-3.1583862-3.1582947-3.1583862H94.5702972v19.9922638L147.8683929,98.9710236z"/>
	<path fill="#1D0F44" d="M863.2444458,1.4358735h-66.5930176c-1.7476807,0-3.1707764,1.4232841-3.1707764,3.1646738v13.6943474
		c0,1.7476749,1.4230957,3.1707687,3.1707764,3.1707687h23.2816162v74.4387817c0,1.741394,1.4230957,3.1646729,3.1707764,3.1646729
		h13.6881104c1.7476807,0,3.1707764-1.4232788,3.1707764-3.1646729V21.4656639h23.2817383
		c1.7476807,0,3.1644897-1.4230938,3.1644897-3.1707687V4.6005473
		C866.4089355,2.8591576,864.9921265,1.4358735,863.2444458,1.4358735"/>
	<path fill="#1D0F44" d="M597.7956543,23.3232479c-1.5791626-4.3005199-3.9384766-8.1078815-7.0031738-11.328557
		c-3.0647583-3.2020082-6.8284912-5.7860918-11.1915283-7.6836767c-4.3816528-1.9036806-9.3625488-2.8711405-14.8115234-2.8711405
		h-36.2332153c-1.741394,0-3.1646118,1.4230936-3.1646118,3.1707692v91.1978073
		c0,1.7539597,1.4232178,3.1707687,3.1646118,3.1707687h13.6881104c1.7476807,0,3.1707764-1.4168091,3.1707764-3.1707687
		l-0.0062866-23.3626633h19.3806152c5.442749,0,10.3987427-0.9425049,14.7304077-2.7962799
		c4.3317261-1.8600616,8.0768433-4.4254761,11.1414795-7.6274834c3.0584717-3.2020073,5.4240723-6.9470825,7.046936-11.147789
		c1.6104126-4.1631813,2.4280396-9.4561157,2.4280396-14.0812149
		C600.1362915,32.0991516,599.3497925,27.5677662,597.7956543,23.3232479 M578.9144897,43.1781769
		c-0.7241211,1.9101563-1.7352905,3.5827827-3.0147705,4.9622536c-1.2609253,1.373188-2.7089233,2.2345505-4.4378662,3.0084801
		c-1.7040405,0.7678337-4.7437744,1.2297516-10.6734009,1.2297516h-15.3796387V21.4694729h20.1795044
		c2.1534424,0,4.1383667,0.3933468,5.8922119,1.1672764c1.772644,0.7802162,3.3143921,1.853775,4.5751953,3.183342
		c1.2545776,1.3232803,2.2282715,2.9459991,2.9024048,4.8247261c0.6990356,1.9474907,1.0548706,4.0633698,1.0548706,6.2916336
		C580.0130005,39.1399498,579.6447144,41.2432556,578.9144897,43.1781769"/>
	<path fill="#1D0F44" d="M461.5875549,29.4432545c-0.0874329,2.0162563,0.4368591,3.245821,1.2045898,4.3317585
		c0.8613586,1.2297554,2.0847473,2.2596931,3.6264038,3.0648613c1.7165527,0.8924103,3.7450867,1.5977669,6.0233459,2.0972099
		c2.4966431,0.5428772,5.0494995,1.0486069,7.602356,1.4979553c4.6188965,0.7303085,9.1878052,1.6478615,13.5570984,2.7338028
		c4.5689087,1.1297493,8.6197815,2.8338051,12.05896,5.0496864c3.5640259,2.3094101,6.3977966,5.3803635,8.4325256,9.1315346
		c2.0535889,3.7825966,2.9649048,8.6012306,2.715271,14.3248405c-0.2434692,5.5550385-1.666626,10.2988129-4.2319336,14.1061707
		c-2.5154419,3.7326965-5.7611694,6.7724152-9.6497803,9.0505829c-3.8136292,2.2282639-7.5711975,3.8761215-12.2337036,4.7437668
		c-4.5689087,0.848793-9.6809082,1.1047974-14.1499939,0.9112701c-11.0852966-0.4868698-27.4573669-6.853363-35.6714478-18.0885849
		c-0.6491699-0.8986969-1.4543152-2.4341736,0.3120117-4.2317581c1.7601624-1.791481,10.1990051-10.3801422,10.1990051-10.3801422
		c1.703949-1.7975845,3.3580933-0.5242081,4.0633545,0.5057297c4.8061829,7.028038,14.3746643,12.2710648,21.8959656,12.5956497
		c3.9510803,0.1748581,4.4253845,0.0188522,6.8908691-0.3057251c2.2470398-0.2933426,4.2319641-0.8739319,6.0919189-1.7227249
		c1.704071-0.7802124,3.1396179-1.8101501,4.263092-3.251915c1.0424194-1.3358536,1.6478577-3.2208633,1.7976685-5.4053192
		c0.1435547-2.1097794-0.4431458-3.8012619-1.4169006-5.1620712c-1.0548706-1.4853783-2.5154114-2.621418-4.2693787-3.5326843
		c-1.9723511-1.0236511-4.2381287-1.6791-6.7347717-2.1471176c-2.6777039-0.5057297-5.3491211-0.9487915-7.9332275-1.3232803
		c-4.2755432-0.5430641-8.5261536-1.416996-12.6270752-2.5840836c-4.2380371-1.2108955-8.026825-2.9212379-11.2662659-5.0807343
		c-3.3642883-2.2471199-6.0794373-5.1557884-8.0705261-8.6511383c-2.0285645-3.5827827-2.9648743-7.6398659-2.7401123-12.7705078
		c0.2247009-5.1618805,1.510437-9.6997414,3.8136597-13.4884357c2.2782593-3.7511692,5.2680664-6.8409834,8.8944702-9.187726
		c3.5390625-2.2970266,7.6211243-3.982224,12.12146-5.0058761c8.7508545-1.9848261,17.5018005-1.6541487,26.1839905,1.0922258
		c9.3500977,2.9648578,16.8589172,10.1428041,20.3231201,15.2298269c0.6365967,0.9299335,1.2669678,2.4031239-0.0874023,3.9323158
		c-1.3544617,1.5229073-9.6122437,9.5997391-9.6122437,9.5997391c-1.7789001,1.7040558-3.601532,1.3107109-4.6126099-0.1809578
		c-5.0683594-7.4463348-11.5909729-10.7856808-19.1558838-11.2851257
		C471.0811768,19.1194935,461.9620361,20.942028,461.5875549,29.4432545"/>
	<path fill="#1D0F44" d="M419.7785645,13.2372074c-4.5128174-4.3005199-9.8244934-7.6086268-15.797821-9.8492708
		c-5.9296265-2.2158811-12.2899475-3.3456318-18.8936768-3.3456318c-6.5163879,0-12.8517456,1.1297508-18.8188782,3.3456318
		c-6.0169678,2.2343578-11.3723755,5.542655-15.9226074,9.8431759c-4.5564575,4.300519-8.2203674,9.6370726-10.8980713,15.8664179
		c-2.6838989,6.2230568-4.0384216,13.3448105-4.0384216,21.1782074c0,7.9145432,1.3357544,15.0612526,3.963562,21.2344017
		c2.6339722,6.1855316,6.2541809,11.503418,10.7607117,15.8039398c4.5065308,4.2942352,9.8245239,7.6086273,15.8040466,9.8431778
		c5.9296265,2.222168,12.2837219,3.3456268,18.8874512,3.3456268c7.2341614,0,13.9815063-1.2171783,20.0609436-3.6264038
		c6.1105957-2.4217911,11.434845-5.9047623,15.8102417-10.3549957c4.356781-4.4254761,7.8084412-9.787178,10.2614746-15.9289017
		c2.4404602-6.1232452,3.6825867-12.9579391,3.6825867-20.3168449c0-7.8271103-1.3607178-14.9551506-4.0384216-21.184494
		C427.9177856,22.868185,424.2788086,17.5316315,419.7785645,13.2372074 M411.7891846,63.7889366
		c-1.5354919,3.7639351-3.6452637,6.9470787-6.2854614,9.4625893c-2.6402588,2.5278931-5.7423706,4.4565277-9.2190552,5.7361908
		c-3.5327759,1.3044205-7.3590088,1.9659653-11.3661804,1.9659653c-4.1007996,0-7.9769287-0.6615448-11.5035095-1.9659653
		c-3.4641113-1.2733765-6.5101013-3.1896286-9.0504761-5.6988525c-2.5653381-2.5216064-4.6438599-5.7236176-6.1855469-9.4999275
		c-1.5479431-3.801075-2.3344421-8.3076973-2.3344421-13.3821449c0-5.0807381,0.786499-9.5810738,2.3344421-13.3884354
		c1.5354919-3.7700272,3.6388855-6.9596519,6.2354431-9.4812584c2.5903625-2.5216045,5.6737061-4.4690971,9.1628723-5.7986641
		c3.5265808-1.3419476,7.3902283-2.0160637,11.4785461-2.0160637c3.9947205,0,7.8083496,0.6741161,11.3349609,2.0223503
		c3.4766846,1.3169956,6.553833,3.2831535,9.144104,5.8422852c2.6090393,2.571701,4.7125244,5.7923775,6.254303,9.5685005
		c1.5541382,3.8075485,2.3406372,8.2640762,2.3406372,13.2512856
		C414.1298218,55.4812393,413.3433228,59.981575,411.7891846,63.7889366"/>
	<path fill="#1D0F44" d="M691.3772583,13.2372074c-4.5128174-4.3005199-9.8245239-7.6086268-15.7978516-9.8492708
		c-5.9296265-2.2158811-12.289917-3.3456318-18.8936768-3.3456318c-6.5163574,0-12.8517456,1.1297508-18.8188477,3.3456318
		c-6.0169678,2.2343578-11.3723755,5.542655-15.9226074,9.8431759c-4.5564575,4.300519-8.2203979,9.6370726-10.8980713,15.8664179
		c-2.6838989,6.2230568-4.0384521,13.3448105-4.0384521,21.1782074c0,7.9145432,1.3357544,15.0612526,3.963562,21.2344017
		c2.6339722,6.1855316,6.2542114,11.503418,10.7607422,15.8039398c4.5065308,4.2942352,9.8245239,7.6086273,15.8040161,9.8431778
		c5.9296265,2.222168,12.2837524,3.3456268,18.8875122,3.3456268c7.2341309,0,13.9814453-1.2171783,20.0609131-3.6264038
		c6.1105957-2.4217911,11.4348145-5.9047623,15.8102417-10.3549957c4.3568115-4.4254761,7.8084106-9.787178,10.2614746-15.9289017
		c2.4404297-6.1232452,3.6825562-12.9579391,3.6825562-20.3168449c0-7.8271103-1.3607178-14.9551506-4.0383911-21.184494
		C699.5164795,22.868185,695.8775024,17.5316315,691.3772583,13.2372074 M683.3878784,63.7889366
		c-1.5355225,3.7639351-3.6452637,6.9470787-6.2854614,9.4625893c-2.6402588,2.5278931-5.7423706,4.4565277-9.2190552,5.7361908
		c-3.5327759,1.3044205-7.3590088,1.9659653-11.3662109,1.9659653c-4.100769,0-7.9768677-0.6615448-11.503479-1.9659653
		c-3.4641113-1.2733765-6.5101318-3.1896286-9.0504761-5.6988525c-2.5653076-2.5216064-4.6438599-5.7236176-6.1855469-9.4999275
		c-1.5479736-3.801075-2.3344727-8.3076973-2.3344727-13.3821449c0-5.0807381,0.786499-9.5810738,2.3344727-13.3884354
		c1.5354614-3.7700272,3.638855-6.9596519,6.2354126-9.4812584c2.5903931-2.5216045,5.6737061-4.4690971,9.1629028-5.7986641
		c3.5266113-1.3419476,7.3902588-2.0160637,11.4785767-2.0160637c3.9946899,0,7.8083496,0.6741161,11.3348999,2.0223503
		c3.4766846,1.3169956,6.553833,3.2831535,9.144104,5.8422852c2.6090698,2.571701,4.7125244,5.7923775,6.2543335,9.5685005
		c1.5541382,3.8075485,2.3406372,8.2640762,2.3406372,13.2512856
		C685.7285156,55.4812393,684.9420166,59.981575,683.3878784,63.7889366"/>
	<path fill="#1D0F44" d="M235.5733795,1.4402546h-13.7380676c-1.7414856,0-3.1645813,1.4232842-3.1645813,3.1646738v60.376236
		c0,2.5715179-0.4306793,4.8310165-1.2795563,6.7036514c-0.8488922,1.8661499-2.0160675,3.4515381-3.476593,4.6999588
		c-1.5043335,1.292038-3.3206787,2.2968369-5.3929291,2.9835281c-2.1346436,0.7177353-5.7423859,1.073555-8.2577972,1.073555
		c-2.5216064,0-6.3353424-0.3619156-8.5198975-1.0798416c-2.1222534-0.6927872-3.9822235-1.6977692-5.5301819-3.0021973
		c-1.4917603-1.2484207-2.671463-2.8151398-3.5140533-4.6750031c-0.8488922-1.8789215-1.2795715-4.1321335-1.2795715-6.7036514
		V4.6049285c0-1.7413898-1.4231415-3.1646738-3.1708221-3.1646738h-13.6818695
		c-1.7476654,0-3.1707611,1.4232842-3.1707611,3.1646738v60.8568268c0,5.5799866,1.0485992,10.5984344,3.1083832,14.9176254
		c2.0534973,4.294426,4.9184875,8.0019684,8.5137024,11.0230255c3.557785,2.9898071,7.7272491,5.2742615,12.3960266,6.7785034
		c4.6001434,1.4855728,9.599823,2.2406387,14.8490448,2.2406387c5.1681671,0,10.1178589-0.7550659,14.7180023-2.2406387
		c4.6812897-1.5105286,8.8196106-3.8012695,12.3024902-6.8034592c3.4890594-3.0147629,6.2979126-6.716217,8.3451233-10.9980698
		c2.0660706-4.3254776,3.1083984-9.3437347,3.1083984-14.9176254V4.6049285
		C238.7378693,2.8635387,237.3210602,1.4402546,235.5733795,1.4402546"/>
	<path fill="#1D0F44" d="M331.8220215,93.6805725l-22.2392883-27.5820389c0,0,17.957428-6.5350647,17.957428-29.3112297
		c0-4.6875801-0.786499-9.2189655-2.3406372-13.463295c-1.5791931-4.3007088-3.9385071-8.1080704-7.0094604-11.3287468
		c-3.0585022-3.2020082-6.8222351-5.7860913-11.1914368-7.6836767c-4.3754578-1.9036806-9.3625793-2.8711405-14.811615-2.8711405
		H255.997467c-1.741394,0-3.1645813,1.4230937-3.1645813,3.1644835V95.809021c0,1.7539597,1.4231873,3.1709595,3.1645813,3.1709595
		h13.6506348c1.7477722,0,3.1708679-1.4169998,3.1708679-3.1709595l-0.0062866-74.338974h20.2669373
		c2.1596069,0,4.1382141,0.3933468,5.8921814,1.1672764c1.772644,0.7802143,3.3143005,1.8537731,4.5813904,3.1833401
		c1.2483215,1.3232822,2.2282715,2.9460011,2.8961792,4.8186321c0.6990967,1.9535866,1.0548096,4.0694656,1.0548096,6.2979164
		c0,2.2033119-0.3681946,4.3068085-1.0985107,6.2417259c-0.7178345,1.9099693-1.735199,3.5764999-3.0147705,4.9620667
		c-1.2608032,1.373188-2.7089539,2.2345467-4.4378662,3.0084801c-1.6977539,0.7678337-4.7436523,1.2297516-10.6733704,1.2297516
		h-8.4761963c-1.6791077,0-2.9648438,1.510334-1.6791077,3.582592l31.6955261,41.6948738
		c0.5929565,0.8301239,1.5542297,1.3232803,2.5777893,1.3232803h17.5018005
		C332.477356,98.9799805,334.2001038,96.6141891,331.8220215,93.6805725"/>
	<path fill="#1D0F44" d="M794.6559448,93.6805725L772.416626,66.0985336c0,0,17.9574585-6.5350647,17.9574585-29.3112297
		c0-4.6875801-0.786499-9.2189655-2.3406372-13.463295c-1.5792236-4.3007088-3.9385376-8.1080704-7.0094604-11.3287468
		c-3.0584717-3.2020082-6.8222656-5.7860913-11.1914063-7.6836767c-4.3754883-1.9036806-9.3626099-2.8711405-14.8116455-2.8711405
		h-36.1895752c-1.741394,0-3.1645508,1.4230937-3.1645508,3.1644835V95.809021c0,1.7539597,1.4231567,3.1709595,3.1645508,3.1709595
		h13.6506348c1.7478027,0,3.1708984-1.4169998,3.1708984-3.1709595l-0.0062866-74.338974h20.2669067
		c2.1596069,0,4.1382446,0.3933468,5.8922119,1.1672764c1.772644,0.7802143,3.31427,1.8537731,4.5813599,3.1833401
		c1.2483521,1.3232822,2.2282715,2.9460011,2.8962402,4.8186321c0.6990356,1.9535866,1.0547485,4.0694656,1.0547485,6.2979164
		c0,2.2033119-0.3681641,4.3068085-1.0985107,6.2417259c-0.7178345,1.9099693-1.7351685,3.5764999-3.0147705,4.9620667
		c-1.2608032,1.373188-2.7089233,2.2345467-4.4378052,3.0084801c-1.6978149,0.7678337-4.7437134,1.2297516-10.6734009,1.2297516
		h-8.4761963c-1.6790771,0-2.9648438,1.510334-1.6790771,3.582592l31.6954956,41.6948738
		c0.5929565,0.8301239,1.5541992,1.3232803,2.5777588,1.3232803h17.5018311
		C795.3112793,98.9799805,797.0339966,96.6141891,794.6559448,93.6805725"/>
	<path fill="#E40138" d="M996.7294312,100.5495529h-90.8796387c-1.803833,0-3.2705688-1.4604263-3.2705688-3.2705841V3.2660279
		c0-1.8038678,1.4667358-3.2642961,3.2705688-3.2642961h90.8796387c1.8036499,0,3.2705688,1.4604282,3.2705688,3.2642961v94.0129395
		C1000,99.0891266,998.5330811,100.5495529,996.7294312,100.5495529"/>
	<path fill="#FFFFFF" d="M929.3112183,80.8649216v1.9911118c0,1.2297516,0.8925171,2.2345428,2.1221924,2.2345428h42.2064819
		h0.0374756c1.2296143,0,2.1222534-1.0047913,2.1222534-2.2345428v-9.7620316c0-1.1297531-0.9238892-2.2219772-2.2095947-2.2219772
		h-19.7738037l12.3086548-16.4843445c7.340271-9.4625893,8.944397-20.0421715,4.9372559-28.1315746
		c-3.3581543-6.7785053-10.4237061-10.6732979-19.399292-10.6732979
		c-13.9877319,0.1060982-21.8648071,7.7396793-22.1768188,21.4902172l-0.0625,3.2644882
		c0,1.3293762,0.9613037,2.159687,2.2907715,2.159687h9.4998779c1.2296143,0,2.1534424-0.9674568,2.2219849-2.2221642
		l0.1436157-2.9898109c0.2059326-3.6763115,1.7102661-8.0642624,7.7335205-8.0642624
		c4.8809814,0,7.3277588,3.1084824,7.4526367,6.2792511c0.1373291,3.5016365-0.7240601,6.1293411-3.7825317,10.1239471
		l-24.5861206,32.3945694C929.6794434,78.8863754,929.3112183,79.6041183,929.3112183,80.8649216"/>
</g>
</svg>
