<?xml version="1.0" encoding="UTF-8" standalone="no"?>
<svg
   xmlns:dc="http://purl.org/dc/elements/1.1/"
   xmlns:cc="http://creativecommons.org/ns#"
   xmlns:rdf="http://www.w3.org/1999/02/22-rdf-syntax-ns#"
   xmlns:svg="http://www.w3.org/2000/svg"
   xmlns="http://www.w3.org/2000/svg"
   viewBox="0 0 258.53333 72.26667"
   height="72.26667"
   width="258.53333"
   xml:space="preserve"
   id="svg2"
   version="1.1"><metadata
     id="metadata8"><rdf:RDF><cc:Work
         rdf:about=""><dc:format>image/svg+xml</dc:format><dc:type
           rdf:resource="http://purl.org/dc/dcmitype/StillImage" /></cc:Work></rdf:RDF></metadata><defs
     id="defs6"><clipPath
       id="clipPath18"
       clipPathUnits="userSpaceOnUse"><path
         id="path16"
         d="M 0,54.2 H 193.9 V 0 H 0 Z" /></clipPath></defs><g
     transform="matrix(1.3333333,0,0,-1.3333333,0,72.266667)"
     id="g10"><g
       id="g12"><g
         clip-path="url(#clipPath18)"
         id="g14"><g
           transform="translate(79.1421,35.2444)"
           id="g20"><path
             id="path22"
             style="fill:#000000;fill-opacity:1;fill-rule:nonzero;stroke:none"
             d="M 0,0 -0.127,-3.27 H -9.05 c -0.097,-1.287 -0.109,-2.649 -0.16,-3.954 h 7.709 c 0.027,-1.255 -0.055,-2.516 -0.09,-3.788 h -7.671 c -0.046,0.017 -0.085,0.043 -0.093,0 l -0.146,-4.31 h 8.798 c -0.026,-1.153 -0.108,-2.197 -0.167,-3.367 h -12.803 l 0.713,18.69 12.96,0 z" /></g><g
           transform="translate(83.9761,35.2269)"
           id="g24"><path
             id="path26"
             style="fill:#000000;fill-opacity:1;fill-rule:nonzero;stroke:none"
             d="m 0,0 4.309,-14.778 c -0.008,-0.025 0.024,-0.043 0.031,-0.059 l 0.133,0.203 2.43,5.808 L 4.333,0 C 5.515,0.017 6.698,0.017 7.88,0 8.289,-1.171 8.619,-2.413 9.027,-3.585 l 0.095,0.128 1.41,3.458 c 1.23,0.046 2.467,0.013 3.718,0 l -3.613,-8.798 1.385,-4.543 c 0.147,-0.467 0.278,-0.933 0.44,-1.384 l 0.281,0.61 L 18.452,0 h 3.827 l -0.133,-0.378 -4.383,-10.669 -2.186,-5.242 c -0.284,-0.82 -0.636,-1.596 -0.957,-2.4 -1.533,-0.046 -3.19,-0.058 -4.761,0 l -1.332,4.591 -0.054,0.059 -0.305,-0.652 -1.693,-3.998 H 1.753 L 0.945,-16.13 -3.858,0 Z" /></g><g
           transform="translate(107.3623,35.243)"
           id="g28"><path
             id="path30"
             style="fill:#000000;fill-opacity:1;fill-rule:nonzero;stroke:none"
             d="M 0,0 H 12.882 C 12.91,-1.018 12.806,-2.041 12.763,-3.092 L 8.127,-3.134 7.33,-18.69 c -1.159,-0.072 -2.372,0.012 -3.562,0 l 0.226,7.448 0.29,8.063 -0.055,0.034 H -0.143 C -0.092,-2.085 -0.073,-1.042 0,0" /></g><g
           transform="translate(127.5928,35.077)"
           id="g32"><path
             id="path34"
             style="fill:#000000;fill-opacity:1;fill-rule:nonzero;stroke:none"
             d="m 0,0 6.269,-14.525 c 0.015,-0.008 0.023,-0.041 0.054,-0.035 l 0.039,0.06 0.677,14.499 h 3.477 L 9.632,-18.69 H 3.806 l -1.985,4.572 -4.333,9.845 -0.039,0.042 -0.038,-0.059 -0.808,-14.4 h -3.494 l 0.823,18.689 H 0 Z" /></g><g
           transform="translate(52.9844,35.8821)"
           id="g36"><path
             id="path38"
             style="fill:#000000;fill-opacity:1;fill-rule:nonzero;stroke:none"
             d="m 0,0 c 1.488,-3.864 1.49,-8.649 1.49,-8.649 l -5.243,-0.145 c 0,0 -0.577,4.724 -1.156,7.995 -0.578,3.27 -3.177,8.868 -3.177,8.868 l 2.528,0.799 c 0,0 3.321,-3.054 5.558,-8.868 m -0.936,-19.552 c -2.397,-5.268 -6.065,-8.139 -6.065,-8.139 l -1.878,0.725 c 0,0 2.671,2.689 4.188,8.796 0.897,3.612 0.938,8.068 0.938,8.068 l 5.126,0.363 c 0,0 0.434,-3.78 -2.309,-9.813 m -9.821,-11.047 c -0.868,-0.507 -3.973,-2.109 -3.973,-2.109 0,0 2.456,1.964 3.323,2.691 0.865,0.725 1.804,2.106 1.804,2.106 l 1.661,-0.654 c 0,0 -1.95,-1.525 -2.815,-2.034 m -10.763,-3.49 c 0,0 1.807,2.034 2.891,3.923 1.083,1.892 1.516,3.708 1.516,3.708 0,0 1.805,-0.216 3.25,-0.508 1.445,-0.29 2.888,-0.725 2.888,-0.725 0,0 -2.094,-2.399 -4.623,-4.074 -2.527,-1.669 -5.922,-2.324 -5.922,-2.324 m -3.607,-0.436 c -4.695,0 -7.293,8.214 -7.293,8.214 0,0 4.62,0.434 7.147,0.434 2.528,0 7.004,-0.434 7.004,-0.434 0,0 -2.671,-8.214 -6.858,-8.214 m -9.678,2.836 c -3.465,2.227 -4.405,4.07 -4.405,4.07 0,0 1.444,0.435 2.601,0.653 1.155,0.217 3.033,0.509 3.033,0.509 0,0 0.506,-1.815 1.516,-3.561 1.01,-1.746 2.888,-4.07 2.888,-4.07 0,0 -3.033,0.724 -5.633,2.399 m -4.188,0.727 c -1.876,1.162 -3.538,2.396 -3.538,2.396 l 1.878,0.655 c 0,0 1.226,-1.598 1.949,-2.325 0.722,-0.726 3.467,-2.618 3.467,-2.618 -1.301,0.526 -2.557,1.159 -3.756,1.892 m -10.326,11.048 c -3.105,6.905 -2.527,10.394 -2.527,10.394 l 4.766,-0.363 c 0,0 0.123,-3.114 0.938,-6.398 1.806,-7.268 4.767,-10.612 4.767,-10.612 l -2.24,-0.725 c 0,0 -3.652,3.139 -5.704,7.704 m 0.072,22.53 c 2.534,4.975 4.043,5.961 4.043,5.961 l 2.455,-0.799 c 0,0 -2.021,-3.198 -3.321,-7.56 -1.3,-4.362 -1.084,-8.867 -1.084,-8.867 l -4.765,0.363 c 0,0 -0.217,5.234 2.672,10.902 m 7.872,9.45 c 2.165,1.89 5.921,3.417 5.921,3.417 0,0 -2.312,-1.454 -4.187,-3.563 -1.879,-2.107 -2.384,-2.98 -2.384,-2.98 l -2.311,0.655 c 0,0 1.605,1.288 2.961,2.471 m 9.315,0.654 c -1.444,-2.835 -2.023,-4.652 -2.023,-4.652 l -1.854,0.03 -2.31,1.89 -1.324,-1.557 -1.298,0.218 c 0,0 2.615,3.177 4.836,4.87 4.766,3.636 7.727,3.562 7.727,3.562 0,0 -2.311,-1.526 -3.754,-4.361 m 7.149,4.579 c 1.083,0 3.393,-1.816 4.404,-3.271 1.012,-1.454 2.528,-5.669 2.528,-5.669 l -1.782,-0.623 -13.021,0.261 c 0,0 0.555,2.793 2.742,5.596 2.384,3.052 4.045,3.706 5.129,3.706 m 10.18,-3.561 c 2.745,-2.181 3.9,-3.853 3.9,-3.853 0,0 -1.516,0.073 -2.671,-0.29 -1.156,-0.364 -3.322,-0.872 -3.322,-0.872 0,0 -0.722,1.889 -1.372,3.343 -0.65,1.453 -3.25,4.651 -3.25,4.651 0,0 4.347,-1.098 6.715,-2.979 m 1.662,-22.969 c 0,0 1.878,2.981 3.105,5.67 1.23,2.689 1.95,5.016 2.095,5.598 0.143,0.581 0.287,1.817 0.287,1.817 0,0 1.59,-4.581 1.951,-6.615 0.361,-2.035 0.65,-6.178 0.65,-6.178 z m -1.95,-9.159 c 0.506,3.417 0.651,7.052 0.651,7.052 l 0.506,0.798 8.954,0.364 c 0,0 0.058,-4.6 -1.372,-8.722 -2.095,-6.032 -3.827,-7.706 -3.827,-7.706 0,0 -1.662,0.51 -3.178,0.802 -1.516,0.29 -3.392,0.508 -3.392,0.508 0,0 1.153,3.488 1.658,6.904 m -17.939,-1.557 c 0,0 0.176,3.157 2.703,5.992 2.527,2.835 4.812,3.156 4.812,3.156 v 2.915 c 0,0 0.532,0.907 0.748,1.343 0.217,0.436 0.311,1.817 0.311,1.817 v 3.955 h -1.732 v 1.458 h 1.797 v 1.885 h 1.507 V 0.706 h 1.606 v -1.493 h -1.757 v -3.865 c 0,0 0.073,-1.017 0.361,-1.744 0.29,-0.727 0.819,-1.489 0.819,-1.489 V -10.8 c 0,0 1.492,-0.176 2.937,-1.047 1.446,-0.872 2.406,-2.586 2.406,-2.586 l 0.772,1.134 c 0,0 -0.435,-4.29 -0.937,-6.688 -0.506,-2.398 -1.228,-5.088 -1.228,-5.088 0,0 -3.683,0.435 -7.366,0.435 -3.682,0 -7.582,-0.435 -7.582,-0.435 l -1.228,5.128 z m -1.991,15.513 c 0,0 0.144,3.053 0.434,5.088 0.288,2.036 0.867,4.579 0.867,4.579 l 9.987,-0.043 c 0,0 -4.499,-2.937 -6.811,-4.972 -2.31,-2.036 -4.477,-4.652 -4.477,-4.652 m -1.999,9.771 2.072,-0.103 c 0,0 -0.361,-1.744 -0.578,-2.98 -0.218,-1.236 -0.579,-4.58 -0.579,-4.58 z m 0.338,-29.468 c 1.156,1.308 1.589,2.762 1.589,2.762 l 1.01,-3.925 c 0,0 -1.372,-0.217 -2.528,-0.437 -1.154,-0.218 -2.752,-0.486 -2.752,-0.486 0,0 1.525,0.778 2.681,2.086 m -2.794,28.159 1.422,-13.112 -7.944,0.362 c 0,0 -0.295,1.601 0.362,5.233 1.3,7.196 4.116,10.974 4.116,10.974 l 0.867,-0.144 -0.988,-1.133 z m -1.683,-29.25 c 0,0 -3.322,4.87 -4.261,10.612 -0.244,1.491 -0.388,2.996 -0.433,4.507 l 7.438,-0.218 c 0,0 -1.444,-3.125 -2.02,-5.743 -0.579,-2.616 -0.796,-6.104 -0.867,-6.978 -0.073,-0.872 0.143,-2.18 0.143,-2.18 M -9.24,12.212 c 2.021,-1.527 2.743,-2.327 2.743,-2.327 L -8.808,9.158 c 0,0 -1.01,1.309 -2.311,2.982 -1.299,1.672 -4.692,3.706 -4.692,3.706 0,0 4.548,-2.108 6.571,-3.634 m -15.966,6.129 c -15.328,0 -27.754,-12.143 -27.754,-27.123 0,-14.98 12.426,-27.124 27.754,-27.124 15.329,0 27.755,12.144 27.755,27.124 0,14.98 -12.426,27.123 -27.755,27.123" /></g><g
           transform="translate(45.9473,4.7693)"
           id="g40"><path
             id="path42"
             style="fill:#000000;fill-opacity:1;fill-rule:nonzero;stroke:none"
             d="m 0,0 c -0.056,0.031 -0.146,0.047 -0.271,0.047 h -0.19 v -0.459 h 0.202 c 0.094,0 0.165,0.01 0.213,0.028 0.087,0.035 0.13,0.101 0.13,0.198 C 0.084,-0.094 0.056,-0.031 0,0 m -0.241,0.199 c 0.157,0 0.272,-0.014 0.345,-0.045 C 0.236,0.1 0.301,-0.008 0.301,-0.167 0.301,-0.28 0.26,-0.363 0.177,-0.417 0.134,-0.445 0.073,-0.466 -0.005,-0.479 0.093,-0.494 0.166,-0.535 0.212,-0.603 0.258,-0.67 0.281,-0.734 0.281,-0.799 v -0.093 c 0,-0.029 10e-4,-0.06 0.003,-0.093 0.002,-0.034 0.006,-0.056 0.011,-0.067 L 0.303,-1.067 H 0.094 C 0.093,-1.062 0.092,-1.059 0.09,-1.055 0.089,-1.05 0.088,-1.046 0.087,-1.04 L 0.083,-1 v 0.101 c 0,0.146 -0.04,0.243 -0.12,0.29 -0.047,0.026 -0.13,0.04 -0.248,0.04 H -0.461 V -1.067 H -0.684 V 0.199 Z M -0.92,0.264 c -0.192,-0.194 -0.289,-0.428 -0.289,-0.702 0,-0.277 0.096,-0.513 0.288,-0.708 0.192,-0.195 0.426,-0.291 0.702,-0.291 0.276,0 0.51,0.096 0.702,0.291 0.193,0.195 0.289,0.431 0.289,0.708 0,0.274 -0.096,0.508 -0.289,0.702 -0.193,0.195 -0.427,0.292 -0.702,0.292 -0.273,0 -0.507,-0.097 -0.701,-0.292 m 1.518,-1.52 c -0.225,-0.225 -0.497,-0.339 -0.817,-0.339 -0.32,0 -0.592,0.114 -0.816,0.339 -0.223,0.226 -0.334,0.498 -0.334,0.819 0,0.318 0.113,0.588 0.338,0.814 0.224,0.225 0.494,0.336 0.812,0.336 0.32,0 0.592,-0.111 0.817,-0.336 0.225,-0.225 0.338,-0.495 0.338,-0.814 0,-0.32 -0.113,-0.592 -0.338,-0.819" /></g><path
           id="path44"
           style="fill:#000000;fill-opacity:1;fill-rule:nonzero;stroke:none"
           d="m 148.433,10.757 h -2 v 29.501 h 2 z" /><g
           transform="translate(161.9619,38.6917)"
           id="g46"><path
             id="path48"
             style="fill:#231f20;fill-opacity:1;fill-rule:nonzero;stroke:none"
             d="m 0,0 c -0.24,0.253 -0.527,0.453 -0.86,0.6 -0.334,0.146 -0.72,0.219 -1.161,0.219 -0.453,0 -0.86,-0.083 -1.219,-0.25 -0.361,-0.166 -0.665,-0.389 -0.915,-0.67 -0.25,-0.279 -0.442,-0.604 -0.575,-0.974 -0.134,-0.37 -0.201,-0.759 -0.201,-1.165 0,-0.407 0.067,-0.795 0.201,-1.165 0.133,-0.37 0.325,-0.696 0.575,-0.975 0.25,-0.28 0.554,-0.504 0.915,-0.67 0.359,-0.167 0.766,-0.25 1.219,-0.25 0.367,0 0.719,0.045 1.055,0.135 0.337,0.09 0.639,0.211 0.905,0.365 v 2.369 H -1.75 v 0.66 H 0.659 V -5.24 C 0.26,-5.474 -0.179,-5.652 -0.655,-5.775 -1.132,-5.898 -1.587,-5.96 -2.021,-5.96 c -0.526,0 -1.014,0.093 -1.464,0.279 -0.451,0.187 -0.84,0.446 -1.17,0.776 -0.33,0.33 -0.589,0.721 -0.776,1.175 -0.186,0.453 -0.279,0.95 -0.279,1.49 0,0.54 0.093,1.036 0.279,1.49 0.187,0.453 0.446,0.845 0.776,1.175 0.33,0.33 0.719,0.588 1.17,0.775 0.45,0.187 0.938,0.279 1.464,0.279 0.567,0 1.055,-0.078 1.465,-0.234 C -0.146,1.088 0.22,0.85 0.54,0.529 Z" /></g><path
           id="path50"
           style="fill:#231f20;fill-opacity:1;fill-rule:nonzero;stroke:none"
           d="m 164.842,32.911 h -0.66 v 7.56 h 0.66 z" /><g
           transform="translate(170.2021,35.2513)"
           id="g52"><path
             id="path54"
             style="fill:#231f20;fill-opacity:1;fill-rule:nonzero;stroke:none"
             d="M 0,0 C 0,0.26 -0.042,0.504 -0.125,0.73 -0.209,0.957 -0.327,1.153 -0.48,1.32 -0.634,1.486 -0.819,1.618 -1.035,1.715 -1.252,1.812 -1.497,1.86 -1.771,1.86 -2.044,1.86 -2.289,1.812 -2.506,1.715 -2.723,1.618 -2.905,1.486 -3.056,1.32 -3.205,1.153 -3.322,0.957 -3.405,0.73 -3.489,0.504 -3.53,0.26 -3.53,0 c 0,-0.26 0.041,-0.503 0.125,-0.729 0.083,-0.228 0.2,-0.424 0.349,-0.591 0.151,-0.166 0.333,-0.298 0.55,-0.395 0.217,-0.097 0.462,-0.144 0.735,-0.144 0.274,0 0.519,0.047 0.736,0.144 0.216,0.097 0.401,0.229 0.555,0.395 0.153,0.167 0.271,0.363 0.355,0.591 C -0.042,-0.503 0,-0.26 0,0 M 0.72,0 C 0.72,-0.354 0.658,-0.68 0.534,-0.979 0.411,-1.28 0.239,-1.54 0.02,-1.76 -0.2,-1.979 -0.462,-2.151 -0.766,-2.274 -1.069,-2.398 -1.404,-2.46 -1.771,-2.46 c -0.36,0 -0.691,0.062 -0.995,0.186 -0.303,0.123 -0.564,0.295 -0.785,0.514 -0.22,0.22 -0.391,0.48 -0.514,0.781 C -4.188,-0.68 -4.25,-0.354 -4.25,0 c 0,0.354 0.062,0.68 0.185,0.98 0.123,0.3 0.294,0.56 0.514,0.78 0.221,0.22 0.482,0.391 0.785,0.515 0.304,0.123 0.635,0.185 0.995,0.185 0.367,0 0.702,-0.062 1.005,-0.185 C -0.462,2.151 -0.2,1.98 0.02,1.76 0.239,1.54 0.411,1.28 0.534,0.98 0.658,0.68 0.72,0.354 0.72,0" /></g><g
           transform="translate(176.1514,35.2513)"
           id="g56"><path
             id="path58"
             style="fill:#231f20;fill-opacity:1;fill-rule:nonzero;stroke:none"
             d="M 0,0 C 0,0.26 -0.042,0.504 -0.125,0.73 -0.209,0.957 -0.327,1.153 -0.48,1.32 -0.634,1.486 -0.818,1.618 -1.035,1.715 -1.252,1.812 -1.497,1.86 -1.771,1.86 -2.044,1.86 -2.294,1.812 -2.521,1.715 -2.747,1.618 -2.943,1.486 -3.11,1.32 -3.277,1.153 -3.407,0.957 -3.5,0.73 -3.594,0.504 -3.641,0.26 -3.641,0 c 0,-0.26 0.047,-0.503 0.141,-0.729 0.093,-0.228 0.223,-0.424 0.39,-0.591 0.167,-0.166 0.363,-0.298 0.589,-0.395 0.227,-0.097 0.477,-0.144 0.75,-0.144 0.274,0 0.519,0.047 0.736,0.144 0.217,0.097 0.401,0.229 0.555,0.395 0.153,0.167 0.271,0.363 0.355,0.591 C -0.042,-0.503 0,-0.26 0,0 M -4.271,5.22 H -3.61 V 1.561 h 0.02 c 0.107,0.159 0.233,0.295 0.38,0.409 0.147,0.113 0.3,0.207 0.46,0.28 0.16,0.073 0.325,0.127 0.495,0.16 0.17,0.033 0.331,0.05 0.484,0.05 0.368,0 0.703,-0.062 1.005,-0.185 C -0.462,2.151 -0.2,1.98 0.02,1.76 0.24,1.54 0.411,1.28 0.535,0.98 0.658,0.68 0.72,0.354 0.72,0 0.72,-0.354 0.658,-0.68 0.535,-0.979 0.411,-1.28 0.24,-1.54 0.02,-1.76 -0.2,-1.979 -0.462,-2.151 -0.766,-2.274 -1.068,-2.398 -1.403,-2.46 -1.771,-2.46 c -0.153,0 -0.314,0.017 -0.484,0.05 -0.17,0.034 -0.335,0.087 -0.495,0.16 -0.16,0.073 -0.313,0.167 -0.46,0.28 -0.147,0.114 -0.273,0.25 -0.38,0.41 h -0.02 v -0.78 h -0.661 z" /></g><g
           transform="translate(180.4111,35.2415)"
           id="g60"><path
             id="path62"
             style="fill:#231f20;fill-opacity:1;fill-rule:nonzero;stroke:none"
             d="m 0,0 c -0.167,0 -0.375,-0.009 -0.625,-0.025 -0.25,-0.017 -0.49,-0.057 -0.72,-0.121 -0.23,-0.063 -0.426,-0.161 -0.59,-0.294 -0.164,-0.133 -0.245,-0.317 -0.245,-0.55 0,-0.154 0.032,-0.285 0.095,-0.395 0.064,-0.11 0.148,-0.2 0.255,-0.27 0.106,-0.07 0.226,-0.12 0.355,-0.15 0.13,-0.03 0.262,-0.045 0.395,-0.045 0.24,0 0.448,0.039 0.625,0.12 0.177,0.08 0.325,0.188 0.445,0.325 0.12,0.136 0.208,0.297 0.265,0.48 0.057,0.183 0.085,0.378 0.085,0.585 l 0,0.34 z m 0.34,0.54 v 0.12 c 0,0.807 -0.4,1.21 -1.2,1.21 -0.546,0 -1.024,-0.183 -1.43,-0.55 l -0.399,0.47 c 0.439,0.453 1.099,0.68 1.979,0.68 0.227,0 0.445,-0.033 0.655,-0.1 C 0.155,2.303 0.337,2.201 0.49,2.064 0.644,1.928 0.767,1.757 0.86,1.55 0.953,1.343 1,1.097 1,0.81 V -1.28 C 1,-1.46 1.009,-1.648 1.025,-1.845 1.042,-2.042 1.061,-2.203 1.08,-2.33 H 0.44 C 0.42,-2.217 0.405,-2.094 0.396,-1.96 0.385,-1.827 0.38,-1.697 0.38,-1.57 H 0.36 C 0.167,-1.884 -0.062,-2.108 -0.325,-2.245 -0.588,-2.382 -0.91,-2.45 -1.29,-2.45 c -0.207,0 -0.406,0.028 -0.6,0.085 -0.193,0.056 -0.365,0.143 -0.515,0.26 -0.15,0.117 -0.27,0.26 -0.36,0.43 -0.089,0.17 -0.134,0.368 -0.134,0.595 0,0.38 0.097,0.679 0.295,0.894 0.196,0.217 0.443,0.379 0.739,0.486 0.297,0.106 0.613,0.174 0.95,0.2 0.337,0.026 0.645,0.04 0.925,0.04 z" /></g><path
           id="path64"
           style="fill:#231f20;fill-opacity:1;fill-rule:nonzero;stroke:none"
           d="m 183.512,32.911 h -0.66 v 7.56 h 0.66 z" /><g
           transform="translate(162.5615,23.3318)"
           id="g66"><path
             id="path68"
             style="fill:#231f20;fill-opacity:1;fill-rule:nonzero;stroke:none"
             d="M 0,0 C -0.12,-0.18 -0.269,-0.351 -0.445,-0.51 -0.622,-0.67 -0.823,-0.809 -1.05,-0.925 -1.276,-1.042 -1.521,-1.134 -1.785,-1.2 -2.049,-1.267 -2.327,-1.3 -2.62,-1.3 c -0.526,0 -1.015,0.093 -1.465,0.279 -0.45,0.187 -0.84,0.446 -1.17,0.776 -0.33,0.33 -0.589,0.722 -0.775,1.175 -0.187,0.453 -0.28,0.95 -0.28,1.49 0,0.539 0.093,1.036 0.28,1.49 0.186,0.453 0.445,0.844 0.775,1.174 0.33,0.331 0.72,0.588 1.17,0.776 0.45,0.186 0.939,0.279 1.465,0.279 0.44,0 0.88,-0.087 1.32,-0.26 0.44,-0.173 0.817,-0.46 1.13,-0.86 L -0.8,4.549 c -0.073,0.114 -0.174,0.227 -0.3,0.34 -0.127,0.113 -0.272,0.214 -0.435,0.3 -0.163,0.087 -0.338,0.157 -0.525,0.21 -0.187,0.054 -0.374,0.08 -0.56,0.08 -0.453,0 -0.86,-0.083 -1.22,-0.25 C -4.2,5.063 -4.505,4.839 -4.755,4.559 -5.005,4.28 -5.196,3.955 -5.33,3.584 -5.464,3.214 -5.53,2.826 -5.53,2.42 c 0,-0.407 0.066,-0.795 0.2,-1.165 0.134,-0.37 0.325,-0.695 0.575,-0.975 0.25,-0.28 0.555,-0.504 0.915,-0.67 0.36,-0.167 0.767,-0.25 1.22,-0.25 0.186,0 0.372,0.016 0.555,0.05 0.183,0.033 0.363,0.09 0.54,0.17 0.176,0.08 0.343,0.189 0.5,0.325 0.157,0.136 0.301,0.308 0.435,0.515 z" /></g><g
           transform="translate(165.9512,24.5418)"
           id="g70"><path
             id="path72"
             style="fill:#231f20;fill-opacity:1;fill-rule:nonzero;stroke:none"
             d="m 0,0 c -0.167,0 -0.375,-0.009 -0.625,-0.025 -0.25,-0.017 -0.49,-0.057 -0.72,-0.121 -0.23,-0.063 -0.426,-0.161 -0.59,-0.294 -0.164,-0.133 -0.245,-0.317 -0.245,-0.55 0,-0.154 0.032,-0.285 0.095,-0.395 0.064,-0.11 0.148,-0.2 0.255,-0.27 0.106,-0.07 0.226,-0.12 0.355,-0.15 0.13,-0.03 0.262,-0.045 0.395,-0.045 0.24,0 0.448,0.039 0.625,0.12 0.177,0.08 0.325,0.188 0.445,0.325 0.12,0.136 0.208,0.297 0.265,0.48 0.057,0.183 0.085,0.378 0.085,0.585 l 0,0.34 z m 0.34,0.54 v 0.12 c 0,0.807 -0.4,1.21 -1.2,1.21 -0.546,0 -1.024,-0.184 -1.43,-0.55 l -0.399,0.47 c 0.439,0.453 1.099,0.679 1.979,0.679 0.227,0 0.445,-0.033 0.655,-0.099 C 0.155,2.302 0.337,2.201 0.49,2.064 0.644,1.927 0.767,1.756 0.86,1.55 0.953,1.343 1,1.097 1,0.81 V -1.28 C 1,-1.46 1.009,-1.648 1.025,-1.845 1.042,-2.042 1.061,-2.203 1.08,-2.33 H 0.44 C 0.42,-2.217 0.405,-2.094 0.396,-1.96 0.385,-1.827 0.38,-1.697 0.38,-1.57 H 0.36 C 0.167,-1.884 -0.062,-2.108 -0.325,-2.245 -0.588,-2.382 -0.91,-2.45 -1.29,-2.45 c -0.207,0 -0.406,0.028 -0.6,0.085 -0.193,0.056 -0.365,0.143 -0.515,0.26 -0.15,0.117 -0.27,0.26 -0.36,0.43 -0.089,0.17 -0.134,0.368 -0.134,0.595 0,0.38 0.097,0.679 0.295,0.894 0.196,0.217 0.443,0.379 0.739,0.486 0.297,0.106 0.613,0.174 0.95,0.2 0.337,0.026 0.645,0.04 0.925,0.04 z" /></g><g
           transform="translate(170.6611,26.2913)"
           id="g74"><path
             id="path76"
             style="fill:#231f20;fill-opacity:1;fill-rule:nonzero;stroke:none"
             d="m 0,0 h -1.35 v -2.759 c 0,-0.174 0.017,-0.316 0.05,-0.426 0.033,-0.109 0.08,-0.194 0.141,-0.255 0.059,-0.06 0.131,-0.102 0.215,-0.125 0.083,-0.023 0.174,-0.034 0.274,-0.034 0.113,0 0.231,0.016 0.351,0.05 0.12,0.033 0.229,0.076 0.33,0.13 L 0.04,-4.03 c -0.246,-0.113 -0.543,-0.17 -0.89,-0.17 -0.127,0 -0.258,0.017 -0.395,0.05 -0.137,0.034 -0.262,0.097 -0.375,0.191 -0.113,0.092 -0.206,0.219 -0.279,0.379 -0.074,0.161 -0.111,0.371 -0.111,0.63 V 0 H -3 v 0.6 h 0.99 v 1.32 h 0.66 V 0.6 L 0,0.6 Z" /></g><g
           transform="translate(171.3213,29.7708)"
           id="g78"><path
             id="path80"
             style="fill:#231f20;fill-opacity:1;fill-rule:nonzero;stroke:none"
             d="m 0,0 h 0.66 v -3.629 h 0.021 c 0.073,0.126 0.166,0.242 0.279,0.35 0.113,0.106 0.24,0.198 0.38,0.274 0.14,0.077 0.289,0.137 0.445,0.181 0.156,0.043 0.312,0.064 0.465,0.064 0.601,0 1.044,-0.158 1.33,-0.474 0.287,-0.318 0.431,-0.768 0.431,-1.355 v -2.97 h -0.66 v 2.59 c 0,0.52 -0.09,0.918 -0.271,1.195 -0.18,0.276 -0.514,0.415 -1,0.415 -0.033,0 -0.127,-0.014 -0.28,-0.04 -0.154,-0.028 -0.315,-0.101 -0.485,-0.22 -0.169,-0.12 -0.322,-0.3 -0.455,-0.54 -0.133,-0.24 -0.2,-0.574 -0.2,-1 v -2.4 H 0 Z" /></g><g
           transform="translate(180.6514,24.5516)"
           id="g82"><path
             id="path84"
             style="fill:#231f20;fill-opacity:1;fill-rule:nonzero;stroke:none"
             d="M 0,0 C 0,0.26 -0.042,0.504 -0.125,0.73 -0.209,0.957 -0.327,1.153 -0.48,1.32 -0.634,1.486 -0.819,1.618 -1.035,1.714 -1.252,1.811 -1.497,1.86 -1.771,1.86 -2.044,1.86 -2.289,1.811 -2.506,1.714 -2.723,1.618 -2.905,1.486 -3.056,1.32 -3.205,1.153 -3.322,0.957 -3.405,0.73 -3.489,0.504 -3.53,0.26 -3.53,0 c 0,-0.26 0.041,-0.503 0.125,-0.729 0.083,-0.228 0.2,-0.424 0.349,-0.591 0.151,-0.166 0.333,-0.298 0.55,-0.395 0.217,-0.097 0.462,-0.144 0.735,-0.144 0.274,0 0.519,0.047 0.736,0.144 0.216,0.097 0.401,0.229 0.555,0.395 0.153,0.167 0.271,0.363 0.355,0.591 C -0.042,-0.503 0,-0.26 0,0 M 0.72,0 C 0.72,-0.354 0.658,-0.68 0.534,-0.979 0.411,-1.28 0.239,-1.54 0.02,-1.76 -0.2,-1.979 -0.462,-2.151 -0.766,-2.274 -1.069,-2.398 -1.404,-2.46 -1.771,-2.46 c -0.36,0 -0.691,0.062 -0.995,0.186 -0.303,0.123 -0.564,0.295 -0.785,0.514 -0.22,0.22 -0.391,0.48 -0.514,0.781 C -4.188,-0.68 -4.25,-0.354 -4.25,0 c 0,0.354 0.062,0.68 0.185,0.98 0.123,0.3 0.294,0.56 0.514,0.779 0.221,0.221 0.482,0.392 0.785,0.516 0.304,0.123 0.635,0.184 0.995,0.184 0.367,0 0.702,-0.061 1.005,-0.184 C -0.462,2.151 -0.2,1.98 0.02,1.759 0.239,1.54 0.411,1.28 0.534,0.98 0.658,0.68 0.72,0.354 0.72,0" /></g><path
           id="path86"
           style="fill:#231f20;fill-opacity:1;fill-rule:nonzero;stroke:none"
           d="m 183.142,22.212 h -0.66 v 7.559 h 0.66 z" /><path
           id="path88"
           style="fill:#231f20;fill-opacity:1;fill-rule:nonzero;stroke:none"
           d="m 185.302,22.212 h -0.66 v 4.679 h 0.66 z m 0.149,6.48 c 0,-0.141 -0.05,-0.256 -0.149,-0.346 -0.101,-0.09 -0.21,-0.135 -0.33,-0.135 -0.12,0 -0.231,0.045 -0.33,0.135 -0.101,0.09 -0.151,0.205 -0.151,0.346 0,0.139 0.05,0.255 0.151,0.344 0.099,0.09 0.21,0.135 0.33,0.135 0.12,0 0.229,-0.045 0.33,-0.135 0.099,-0.089 0.149,-0.205 0.149,-0.344" /><g
           transform="translate(190.0605,25.7918)"
           id="g90"><path
             id="path92"
             style="fill:#231f20;fill-opacity:1;fill-rule:nonzero;stroke:none"
             d="M 0,0 C -0.113,0.173 -0.271,0.32 -0.475,0.439 -0.679,0.559 -0.91,0.62 -1.17,0.62 -1.443,0.626 -1.688,0.583 -1.905,0.49 -2.122,0.396 -2.307,0.267 -2.46,0.1 c -0.153,-0.166 -0.269,-0.365 -0.35,-0.595 -0.08,-0.23 -0.12,-0.479 -0.12,-0.745 0,-0.267 0.04,-0.515 0.12,-0.745 0.081,-0.23 0.197,-0.428 0.35,-0.595 0.153,-0.167 0.338,-0.297 0.555,-0.39 0.217,-0.093 0.462,-0.136 0.735,-0.13 0.26,0 0.491,0.06 0.695,0.18 0.204,0.12 0.362,0.267 0.475,0.44 l 0.54,-0.41 c -0.233,-0.273 -0.497,-0.475 -0.79,-0.605 -0.293,-0.13 -0.6,-0.198 -0.92,-0.205 -0.38,-0.007 -0.724,0.052 -1.03,0.175 -0.307,0.124 -0.569,0.295 -0.785,0.515 -0.216,0.22 -0.381,0.482 -0.494,0.785 -0.115,0.303 -0.17,0.631 -0.17,0.985 0,0.353 0.055,0.681 0.17,0.985 0.113,0.303 0.278,0.565 0.494,0.785 0.216,0.22 0.478,0.391 0.785,0.514 0.306,0.123 0.65,0.182 1.03,0.175 C -0.85,1.212 -0.543,1.144 -0.25,1.014 0.043,0.884 0.307,0.683 0.54,0.41 Z" /></g><g
           transform="translate(161.8516,12.5916)"
           id="g94"><path
             id="path96"
             style="fill:#231f20;fill-opacity:1;fill-rule:nonzero;stroke:none"
             d="m 0,0 h 0.02 v 6 h 0.72 v -7.08 h -0.9 L -4.38,4.979 H -4.4 V -1.08 H -5.12 V 6 h 0.9 z" /></g><g
           transform="translate(167.6719,14.2117)"
           id="g98"><path
             id="path100"
             style="fill:#231f20;fill-opacity:1;fill-rule:nonzero;stroke:none"
             d="M 0,0 C 0,0.446 -0.134,0.808 -0.4,1.085 -0.667,1.361 -1.04,1.5 -1.521,1.5 -1.733,1.5 -1.94,1.458 -2.141,1.375 -2.341,1.291 -2.516,1.18 -2.665,1.04 -2.815,0.899 -2.936,0.74 -3.025,0.56 -3.115,0.38 -3.16,0.193 -3.16,0 Z m -3.181,-0.54 c 0.021,-0.233 0.077,-0.453 0.17,-0.66 0.094,-0.207 0.217,-0.385 0.37,-0.535 0.154,-0.15 0.33,-0.269 0.531,-0.355 0.2,-0.087 0.417,-0.13 0.65,-0.13 0.353,0 0.658,0.081 0.915,0.244 0.256,0.164 0.451,0.352 0.585,0.566 l 0.51,-0.42 c -0.28,-0.354 -0.589,-0.607 -0.925,-0.76 -0.337,-0.153 -0.699,-0.23 -1.085,-0.23 -0.347,0 -0.669,0.061 -0.966,0.185 -0.296,0.123 -0.552,0.295 -0.764,0.515 -0.213,0.22 -0.382,0.479 -0.505,0.78 -0.123,0.3 -0.185,0.626 -0.185,0.98 0,0.353 0.06,0.679 0.18,0.98 0.12,0.3 0.286,0.56 0.5,0.779 0.213,0.221 0.463,0.392 0.75,0.516 0.286,0.123 0.596,0.185 0.929,0.185 0.354,0 0.67,-0.064 0.951,-0.19 C -0.29,1.783 -0.056,1.615 0.135,1.405 0.324,1.194 0.47,0.948 0.569,0.665 0.67,0.382 0.72,0.08 0.72,-0.24 v -0.3 z" /></g><g
           transform="translate(171.7715,15.5916)"
           id="g102"><path
             id="path104"
             style="fill:#231f20;fill-opacity:1;fill-rule:nonzero;stroke:none"
             d="m 0,0 h -1.35 v -2.76 c 0,-0.174 0.017,-0.315 0.05,-0.426 0.033,-0.109 0.08,-0.194 0.141,-0.254 0.059,-0.06 0.131,-0.102 0.215,-0.125 0.083,-0.024 0.174,-0.035 0.274,-0.035 0.113,0 0.231,0.016 0.351,0.05 0.12,0.033 0.229,0.076 0.33,0.13 L 0.04,-4.03 c -0.246,-0.114 -0.543,-0.17 -0.89,-0.17 -0.127,0 -0.258,0.016 -0.395,0.05 -0.137,0.034 -0.262,0.096 -0.375,0.19 -0.113,0.093 -0.206,0.22 -0.279,0.38 -0.074,0.16 -0.111,0.37 -0.111,0.63 V 0 H -3 v 0.6 h 0.99 v 1.32 h 0.66 V 0.6 L 0,0.6 Z" /></g><g
           transform="translate(173.1494,16.1209)"
           id="g106"><path
             id="path108"
             style="fill:#231f20;fill-opacity:1;fill-rule:nonzero;stroke:none"
             d="M 0,0 1.08,-3.8 H 1.1 L 2.35,0 H 3.03 L 4.28,-3.8 H 4.3 L 5.38,0 H 6.16 L 4.68,-4.68 H 3.94 L 2.7,-0.84 H 2.68 L 1.44,-4.68 H 0.7 L -0.78,0 Z" /></g><g
           transform="translate(184.1416,13.8514)"
           id="g110"><path
             id="path112"
             style="fill:#231f20;fill-opacity:1;fill-rule:nonzero;stroke:none"
             d="M 0,0 C 0,0.26 -0.042,0.504 -0.125,0.73 -0.209,0.957 -0.327,1.153 -0.48,1.32 -0.634,1.486 -0.819,1.618 -1.035,1.715 -1.252,1.812 -1.497,1.86 -1.771,1.86 -2.044,1.86 -2.289,1.812 -2.506,1.715 -2.723,1.618 -2.905,1.486 -3.056,1.32 -3.205,1.153 -3.322,0.957 -3.405,0.73 -3.489,0.504 -3.53,0.26 -3.53,0 c 0,-0.26 0.041,-0.503 0.125,-0.729 0.083,-0.228 0.2,-0.424 0.349,-0.591 0.151,-0.166 0.333,-0.298 0.55,-0.395 0.217,-0.097 0.462,-0.144 0.735,-0.144 0.274,0 0.519,0.047 0.736,0.144 0.216,0.097 0.401,0.229 0.555,0.395 0.153,0.167 0.271,0.363 0.355,0.591 C -0.042,-0.503 0,-0.26 0,0 M 0.72,0 C 0.72,-0.354 0.658,-0.68 0.534,-0.979 0.411,-1.28 0.239,-1.54 0.02,-1.76 -0.2,-1.979 -0.462,-2.151 -0.766,-2.274 -1.069,-2.398 -1.404,-2.46 -1.771,-2.46 c -0.36,0 -0.691,0.062 -0.995,0.186 -0.303,0.123 -0.564,0.295 -0.785,0.514 -0.22,0.22 -0.391,0.48 -0.514,0.781 C -4.188,-0.68 -4.25,-0.354 -4.25,0 c 0,0.354 0.062,0.68 0.185,0.98 0.123,0.3 0.294,0.56 0.514,0.78 0.221,0.22 0.482,0.391 0.785,0.515 0.304,0.123 0.635,0.185 0.995,0.185 0.367,0 0.702,-0.062 1.005,-0.185 C -0.462,2.151 -0.2,1.98 0.02,1.76 0.239,1.54 0.411,1.28 0.534,0.98 0.658,0.68 0.72,0.354 0.72,0" /></g><g
           transform="translate(185.6592,14.7312)"
           id="g114"><path
             id="path116"
             style="fill:#231f20;fill-opacity:1;fill-rule:nonzero;stroke:none"
             d="M 0,0 C 0,0.207 -0.005,0.417 -0.015,0.63 -0.025,0.844 -0.033,1.12 -0.04,1.46 H 0.61 V 0.59 H 0.63 C 0.677,0.717 0.743,0.839 0.83,0.955 0.917,1.072 1.021,1.177 1.145,1.271 1.269,1.363 1.411,1.438 1.575,1.495 1.738,1.552 1.923,1.58 2.13,1.58 2.316,1.58 2.479,1.561 2.62,1.521 L 2.49,0.87 C 2.403,0.903 2.276,0.92 2.11,0.92 1.856,0.92 1.64,0.872 1.46,0.775 1.28,0.679 1.13,0.556 1.01,0.405 0.89,0.255 0.802,0.094 0.745,-0.08 0.688,-0.253 0.66,-0.42 0.66,-0.58 V -3.22 H 0 Z" /></g><g
           transform="translate(190.4258,14.0818)"
           id="g118"><path
             id="path120"
             style="fill:#231f20;fill-opacity:1;fill-rule:nonzero;stroke:none"
             d="M 0,0 2.21,2.109 H 3.2 L 0.87,-0.03 3.45,-2.57 H 2.43 L 0,-0.11 V -2.57 H -0.66 V 4.989 H 0 Z" /></g></g></g></g></svg>