<?xml version="1.0" encoding="UTF-8" standalone="no"?>
<!-- Created with Inkscape (http://www.inkscape.org/) -->
<svg
   xmlns:dc="http://purl.org/dc/elements/1.1/"
   xmlns:cc="http://creativecommons.org/ns#"
   xmlns:rdf="http://www.w3.org/1999/02/22-rdf-syntax-ns#"
   xmlns:svg="http://www.w3.org/2000/svg"
   xmlns="http://www.w3.org/2000/svg"
   xmlns:sodipodi="http://sodipodi.sourceforge.net/DTD/sodipodi-0.dtd"
   xmlns:inkscape="http://www.inkscape.org/namespaces/inkscape"
   version="1.0"
   width="1832"
   height="794"
   viewBox="0.4 -4 1832 794"
   id="svg2"
   xml:space="preserve"
   sodipodi:version="0.32"
   inkscape:version="0.46"
   sodipodi:docname="FOX_wordmark-orange.svg"
   inkscape:output_extension="org.inkscape.output.svg.inkscape"><metadata
   id="metadata8"><rdf:RDF><cc:Work
       rdf:about=""><dc:format>image/svg+xml</dc:format><dc:type
         rdf:resource="http://purl.org/dc/dcmitype/StillImage" /></cc:Work></rdf:RDF></metadata><sodipodi:namedview
   inkscape:window-height="843"
   inkscape:window-width="1440"
   inkscape:pageshadow="2"
   inkscape:pageopacity="0.0"
   guidetolerance="10.0"
   gridtolerance="10.0"
   objecttolerance="10.0"
   borderopacity="1.0"
   bordercolor="#666666"
   pagecolor="#ffffff"
   id="base"
   showgrid="false"
   inkscape:zoom="0.29694323"
   inkscape:cx="1185.4118"
   inkscape:cy="-78.428914"
   inkscape:window-x="-9"
   inkscape:window-y="-9"
   inkscape:current-layer="svg2" />
<defs
   id="defs4"><inkscape:perspective
   sodipodi:type="inkscape:persp3d"
   inkscape:vp_x="0 : 397 : 1"
   inkscape:vp_y="0 : 1000 : 0"
   inkscape:vp_z="1832 : 397 : 1"
   inkscape:persp3d-origin="916 : 264.66667 : 1"
   id="perspective10" />
</defs>
<path
   d="M 1829.1,787.9 C 1745.9,787.9 1661.2,787.9 1579,787.9 C 1576.7,787.9 1572.5,777.8 1571.3,775.7 C 1536.9,713.6 1502.5,651.2 1468.3,589.2 C 1431.7,655.2 1396.1,722.3 1359.6,788.4 C 1277.7,788.6 1196.5,788 1115.3,788.2 C 1124.5,771 1134.3,754.2 1144.1,737.3 C 1212.4,619.3 1279.7,499.7 1348.1,381.6 C 1275.4,254.6 1201.6,128.6 1128.5,1.9 C 1128.3,1.9 1127.8,1.1 1128.3,1.2 C 1212.1,1.2 1295.8,1.2 1379.6,1.2 C 1410.5,57.4 1440.6,114.3 1471,170.9 C 1502.6,114.8 1533.1,57.6 1564.4,1.2 C 1645.4,1.2 1726.3,1.2 1807.3,1.2 C 1807.5,2.2 1806.8,3.3 1806.3,4.1 C 1735.4,128.7 1662.8,253.7 1592,378.5 C 1670.7,515.1 1750.9,651.6 1829.1,787.9 z "
   style="fill:#f58500;fill-opacity:1"
   id="path1371_1_" />
<path
   d="M 1221.9,306.5 C 1228.3,332.5 1232,361.1 1232,391.2 C 1232,485.1 1204.8,554.7 1167,611.3 C 1160.6,620.9 1154.1,630.1 1147.1,638.9 C 1126.6,664.9 1101.8,688.6 1074.1,708.3 C 1055.5,721.5 1036.1,733.5 1014.6,743.6 C 971.8,763.7 920.1,779.4 860.5,779.4 C 767.3,779.4 698.5,751 642.8,712 C 587.1,672.9 543.7,621.2 514.2,556 C 494.4,512.3 481.4,461.9 479.9,400.5 C 479.2,370.1 483,340.1 488.5,314.1 C 502.5,248.5 530,197.1 564.8,152.8 C 599.6,108.6 643.7,74 697,47.9 C 717.9,37.7 741.3,29 766.8,22.7 C 792.3,16.4 820.5,12.1 851,12.1 C 851.2,12.1 851.3,12.1 851.5,12.1 C 881.3,10.7 912.9,15.5 937.7,21 C 963.5,26.7 987.4,35.4 1008.7,45 C 1074.7,74.8 1123.9,119.4 1163.5,175.1 C 1189.6,211.6 1209.2,255.4 1221.9,306.5 z M 921.9,567.1 C 924.3,557.5 923.6,545.2 923.6,532.5 C 923.6,435.6 923.6,340.7 923.6,243.5 C 923.6,231.1 922.2,221.5 918.6,212.5 C 915.3,204.3 910.2,196.8 904.2,190.7 C 892.5,178.8 874.9,168.1 852.8,169.8 C 842.1,170.6 833.2,174 825.4,178.9 C 810.9,188.1 799.9,202.2 795.4,220.9 C 793.1,230.4 793.2,242.5 793.2,255 C 793.2,350.6 793.2,447.5 793.2,544 C 793.2,550.2 792.9,556.2 793.7,561.5 C 795.8,576.7 802.6,588.9 811.5,598 C 823,609.7 840.8,619.5 863.8,617 C 893.5,613.8 915.3,594.1 921.9,567.1 z "
   style="fill:#f58500;fill-opacity:1"
   id="path1373_1_" />
<path
   d="M 490.1,215.8 C 401.5,215.8 313,215.8 224.4,215.8 C 223.3,248.8 224.2,285.3 223.9,318.5 C 295.7,319.1 368.6,318.6 440.9,318.7 C 440.9,390.5 440.9,462.2 440.9,534 C 368.1,534.2 294.7,533.7 222.3,534.2 C 222.4,619.6 222.8,703.4 222.8,788.8 C 222.8,789.1 222.7,789.2 222.6,789.3 C 148.8,789.3 74.9,789.3 1.1,789.3 C 0.7,789.4 0.7,789.1 0.4,789.1 C -0.1,526.9 -0.1,263 0.3,0.7 C 0.3,0.4 0.3,0 0.5,0 C 158.7,0 316.9,0 475,0 C 475.3,0 475.4,0 475.5,0.2 C 480.5,72 485.3,143.9 490.1,215.8 z "
   style="fill:#f58500;fill-opacity:1"
   id="path1377_1_" />
</svg>