<?xml version="1.0" encoding="utf-8"?>
<!-- Generator: Adobe Illustrator 19.0.0, SVG Export Plug-In . SVG Version: 6.00 Build 0)  -->
<svg version="1.0" id="Ebene_1" xmlns="http://www.w3.org/2000/svg" xmlns:xlink="http://www.w3.org/1999/xlink" x="0px" y="0px"
	 viewBox="0 0 231 71.1" style="enable-background:new 0 0 231 71.1;" xml:space="preserve">
<style type="text/css">
	.st0{fill:#E95C0F;}
</style>
<g>
	<g>
		<path class="st0" d="M170.4,18.6v12.1h13.4V18.6h8.1v31.6h-8.1V37h-13.4v13.2h-8.1V18.6H170.4z"/>
		<path class="st0" d="M199.1,19.1c3-0.4,6.9-0.7,11-0.7c6.9,0,11.4,1.1,14.8,3.4c3.7,2.4,6.1,6.3,6.1,11.9c0,6-2.5,10.2-5.9,12.8
			c-3.8,2.8-9.6,4.1-16.7,4.1c-4.2,0-7.3-0.2-9.3-0.5V19.1z M207.2,44.8c0.7,0.1,1.9,0.1,2.8,0.1c7.4,0,12.3-3.5,12.3-11
			c0-6.6-4.4-10-11.5-10c-1.8,0-3,0.1-3.7,0.3V44.8z"/>
	</g>
</g>
<g>
	
		
	<g id="g2385_1_">
		<path id="path1371_2_" class="st0" d="M164.8,71c-7.5,0-15.1,0-22.5,0c-0.2,0-0.6-0.9-0.7-1.1c-3.1-5.6-6.2-11.2-9.3-16.8
			c-3.3,5.9-6.5,12-9.8,17.9c-7.4,0-14.7,0-22,0c0.8-1.5,1.7-3.1,2.6-4.6c6.2-10.6,12.2-21.4,18.4-32c-6.6-11.4-13.2-22.8-19.8-34.2
			c0,0-0.1-0.1,0-0.1c7.6,0,15.1,0,22.6,0c2.8,5.1,5.5,10.2,8.2,15.3c2.8-5.1,5.6-10.2,8.4-15.3c7.3,0,14.6,0,21.9,0
			c0,0.1,0,0.2-0.1,0.3c-6.4,11.2-12.9,22.5-19.3,33.7C150.5,46.4,157.8,58.7,164.8,71z"/>
		<path id="path1373_2_" class="st0" d="M110.1,27.6c0.6,2.3,0.9,4.9,0.9,7.6c0,8.5-2.5,14.7-5.9,19.8c-0.6,0.9-1.2,1.7-1.8,2.5
			c-1.8,2.3-4.1,4.5-6.6,6.3c-1.7,1.2-3.4,2.3-5.4,3.2c-3.9,1.8-8.5,3.2-13.9,3.2c-8.4,0-14.6-2.6-19.6-6.1
			c-5-3.5-8.9-8.2-11.6-14.1c-1.8-3.9-3-8.5-3.1-14c-0.1-2.7,0.3-5.4,0.8-7.8c1.3-5.9,3.7-10.5,6.9-14.5c3.1-4,7.1-7.1,11.9-9.5
			c1.9-0.9,4-1.7,6.3-2.3c2.3-0.6,4.8-1,7.6-1c0,0,0,0,0,0c2.7-0.1,5.5,0.3,7.8,0.8c2.3,0.5,4.5,1.3,6.4,2.2
			c5.9,2.7,10.4,6.7,13.9,11.7C107.2,19.1,108.9,23,110.1,27.6z M83.1,51.1c0.2-0.9,0.2-2,0.2-3.1c0-8.7,0-17.3,0-26
			c0-1.1-0.1-2-0.5-2.8c-0.3-0.7-0.8-1.4-1.3-2c-1.1-1.1-2.6-2-4.6-1.9c-1,0.1-1.8,0.4-2.5,0.8c-1.3,0.8-2.3,2.1-2.7,3.8
			c-0.2,0.9-0.2,1.9-0.2,3.1c0,8.6,0,17.3,0,26c0,0.6,0,1.1,0,1.6c0.2,1.4,0.8,2.5,1.6,3.3c1,1.1,2.6,1.9,4.7,1.7
			C80.5,55.3,82.5,53.5,83.1,51.1z"/>
		<path id="path1377_2_" class="st0" d="M44.2,19.4c-8,0-16,0-23.9,0c-0.1,3,0,6.3,0,9.3c6.5,0.1,13,0,19.6,0c0,6.5,0,12.9,0,19.4
			c-6.6,0-13.2,0-19.7,0c0,7.7,0,15.2,0,22.9c0,0,0,0,0,0c-6.6,0-13.3,0-20,0c0,0,0,0-0.1,0c0-23.6,0-47.4,0-71C0,0,0,0,0,0
			c14.3,0,28.5,0,42.8,0c0,0,0,0,0,0C43.3,6.5,43.7,13,44.2,19.4z"/>
	</g>
</g>
</svg>
