<?xml version="1.0" encoding="UTF-8" standalone="no"?>
<!-- Created with Inkscape (http://www.inkscape.org/) -->
<svg
   xmlns:dc="http://purl.org/dc/elements/1.1/"
   xmlns:cc="http://web.resource.org/cc/"
   xmlns:rdf="http://www.w3.org/1999/02/22-rdf-syntax-ns#"
   xmlns:svg="http://www.w3.org/2000/svg"
   xmlns="http://www.w3.org/2000/svg"
   xmlns:xlink="http://www.w3.org/1999/xlink"
   xmlns:sodipodi="http://sodipodi.sourceforge.net/DTD/sodipodi-0.dtd"
   xmlns:inkscape="http://www.inkscape.org/namespaces/inkscape"
   width="105"
   height="99"
   id="svg2"
   sodipodi:version="0.32"
   inkscape:version="0.45.1"
   version="1.0"
   inkscape:output_extension="org.inkscape.output.svg.inkscape">
  <g
     inkscape:label="Layer 1"
     inkscape:groupmode="layer"
     id="layer1"
     transform="translate(-391.11415,-474.56036)">
    <g
       id="g8315"
       clip-path="url(#id273)"
       transform="matrix(1,0,0,-1,3.335611,855.3713)">
      <g
         id="g8317"
         transform="matrix(7.6449432,0,0,7.9367218,266.3172,448.89307)">
        <use
           id="use8319"
           xlink:href="#id274"
           x="0"
           y="0"
           width="744.09448"
           height="1052.3622" />
      </g>
    </g>
    <g
       id="g15821"
       clip-path="url(#id401)"
       transform="matrix(1,0,0,-1,3.335611,855.3713)">
      <g
         id="g15823"
         transform="matrix(9.3100739,0,0,9.3100739,373.32361,306.15338)">
        <use
           id="use15825"
           xlink:href="#id402"
           x="0"
           y="0"
           width="744.09448"
           height="1052.3622" />
      </g>
    </g>
    <g
       id="g19059"
       clip-path="url(#id624)"
       transform="matrix(5.3374736,0,0,-5.3374736,-2895.4523,2789.3351)">
      <g
         id="g19061"
         transform="translate(623.3562,415.1355)">
        <path
           id="path19063"
           d="M 0,0 C 1.82,0.009 3.955,0.254 6.197,0.756 C 8.341,1.235 10.371,1.904 12.069,2.687 L 12.069,18.548 L -7.603,18.548 L -7.603,0 L 0,0"
           style="fill:#ffffff;fill-rule:nonzero;stroke:none" />
      </g>
      <g
         id="g19065"
         transform="translate(625.1545,422.3031)">
        <path
           id="path19067"
           d="M 0,0 C 0.444,-0.282 1.662,-0.276 2.96,0.014 C 4.578,0.376 5.81,1.051 5.706,1.518 C 5.689,1.596 5.633,1.665 5.541,1.723 C 5.096,2.005 3.879,2 2.581,1.709 C 1.283,1.419 0.179,0.905 -0.103,0.461 C -0.162,0.368 -0.183,0.282 -0.165,0.205 C -0.148,0.127 -0.092,0.058 0,0"
           style="fill:#54b7ea;fill-rule:nonzero;stroke:none" />
      </g>
      <g
         id="g19069"
         transform="translate(622.9053,422.2846)">
        <path
           id="path19071"
           d="M 0,0 C 0.01,0.007 0.023,0.005 0.03,-0.005 C 0.037,-0.015 0.036,-0.028 0.026,-0.036 C -0.48,-0.443 -0.71,-0.831 -0.637,-1.157 C -0.598,-1.33 -0.476,-1.483 -0.273,-1.611 C 0.633,-2.186 3.041,-2.191 5.58,-1.622 C 8.789,-0.904 11.222,0.473 11.004,1.448 C 10.93,1.774 10.559,2.027 9.927,2.18 C 9.915,2.183 9.907,2.194 9.91,2.206 C 9.913,2.217 9.923,2.225 9.935,2.223 C 10.972,2.067 11.577,1.728 11.686,1.245 C 11.734,1.029 11.678,0.794 11.522,0.546 C 10.861,-0.495 8.529,-1.617 5.72,-2.246 C 2.909,-2.875 0.321,-2.854 -0.721,-2.193 C -0.969,-2.036 -1.119,-1.847 -1.167,-1.631 C -1.275,-1.148 -0.872,-0.584 0,0 M 4.798,1.869 C 6.768,2.31 8.485,2.16 8.625,1.533 C 8.652,1.413 8.621,1.283 8.535,1.146 C 8.169,0.571 6.872,-0.052 5.307,-0.402 C 3.337,-0.842 1.62,-0.692 1.479,-0.066 C 1.339,0.56 2.828,1.428 4.798,1.869 M -3.032,-3.015 C -2.971,-3.287 -2.779,-3.528 -2.462,-3.729 C -1.088,-4.6 2.339,-4.626 6.065,-3.792 C 8.69,-3.204 11.04,-2.285 12.52,-1.268 L 12.52,11.399 L -7.152,11.399 L -7.152,-7.149 L -4.361,-7.149 C -4.978,-6.81 -5.349,-6.389 -5.46,-5.894 C -5.483,-5.79 -5.495,-5.684 -5.495,-5.576 C -5.495,-5.122 -5.29,-4.637 -4.881,-4.128 C -4.874,-4.118 -4.861,-4.116 -4.851,-4.123 C -4.842,-4.129 -4.838,-4.142 -4.844,-4.152 C -5.074,-4.551 -5.151,-4.928 -5.073,-5.275 C -4.803,-6.481 -2.714,-7.136 0.255,-7.149 L 0.451,-7.149 C 2.271,-7.14 4.406,-6.895 6.648,-6.393 C 8.792,-5.914 10.821,-5.245 12.52,-4.462 L 12.52,-2.178 C 10.927,-3.139 8.696,-3.972 6.229,-4.526 C 2.292,-5.406 -1.359,-5.361 -2.855,-4.412 C -3.221,-4.179 -3.442,-3.9 -3.514,-3.581 C -3.628,-3.073 -3.345,-2.484 -2.698,-1.877 C -2.689,-1.869 -2.676,-1.869 -2.667,-1.877 C -2.659,-1.885 -2.658,-1.898 -2.665,-1.908 C -2.984,-2.306 -3.107,-2.679 -3.032,-3.015"
           style="fill:#54b7ea;fill-rule:nonzero;stroke:none" />
      </g>
      <g
         id="g19073"
         transform="translate(623.7293,430.1113)">
        <path
           id="path19075"
           d="M 0,0 L 0.274,0.966 L 0.559,0 L 0,0 z M -0.168,1.779 L -1.135,-0.92 L -0.269,-0.92 L -0.168,-0.561 L 0.711,-0.561 L 0.816,-0.92 L 1.697,-0.92 L 0.732,1.779 L -0.168,1.779 z M -6.168,-0.92 L -5.283,-0.92 L -5.283,-0.005 L -4.314,-0.005 L -4.314,0.625 L -5.283,0.625 L -5.283,1.151 L -4.066,1.151 L -4.066,1.781 L -6.168,1.781 L -6.168,-0.92 z M 9.948,1.151 L 9.948,1.781 L 7.719,1.781 L 7.719,-0.92 L 9.948,-0.92 L 9.948,-0.289 L 8.605,-0.289 L 8.605,0.116 L 9.719,0.116 L 9.719,0.745 L 8.605,0.745 L 8.605,1.151 L 9.948,1.151 z M -2.394,0.618 L -2.903,0.618 L -2.903,1.158 L -2.394,1.158 C -2.216,1.158 -2.129,1.069 -2.129,0.889 C -2.129,0.708 -2.216,0.618 -2.394,0.618 M -1.341,0.868 C -1.341,1.456 -1.696,1.779 -2.341,1.779 L -3.719,1.779 L -3.719,-0.92 L -2.903,-0.92 L -2.903,-0.003 L -2.616,-0.003 C -2.579,-0.074 -2.145,-0.92 -2.145,-0.92 L -1.261,-0.92 C -1.261,-0.92 -1.761,0.012 -1.834,0.142 C -1.533,0.265 -1.341,0.541 -1.341,0.868 M 6.094,-0.311 C 5.706,-0.311 5.581,0.066 5.581,0.43 C 5.581,0.793 5.706,1.171 6.094,1.171 C 6.438,1.171 6.514,0.872 6.529,0.774 L 7.339,0.774 C 7.266,1.451 6.859,1.84 6.117,1.844 C 5.286,1.844 4.748,1.28 4.748,0.43 C 4.748,-0.368 5.244,-0.983 6.117,-0.983 C 6.908,-0.983 7.35,-0.405 7.35,0.138 L 6.534,0.138 C 6.484,-0.115 6.374,-0.311 6.094,-0.311 M 3.564,0.336 L 3.556,0.336 L 2.77,1.779 L 1.918,1.779 L 1.918,-0.92 L 2.706,-0.92 L 2.706,0.555 L 2.713,0.555 L 3.54,-0.92 L 4.35,-0.92 L 4.35,1.779 L 3.564,1.779 L 3.564,0.336"
           style="fill:#ffffff;fill-rule:nonzero;stroke:none" />
      </g>
      <g
         id="g19077"
         transform="translate(623.249,426.1831)">
        <path
           id="path19079"
           d="M 0,0 L -1.082,0 L 0,1.241 L 0,0 z M 1.323,0 L 1.323,2.469 L 0.057,2.469 L -1.967,0.114 L -1.967,-0.878 L -3.892,-0.878 L -3.892,-0.872 C -3.058,-0.362 -1.952,-0.007 -1.952,1.128 C -1.952,2.068 -2.683,2.519 -3.758,2.519 C -4.949,2.519 -5.705,1.82 -5.635,0.604 L -4.44,0.604 C -4.453,1.146 -4.28,1.515 -3.771,1.515 C -3.473,1.515 -3.237,1.374 -3.237,0.973 C -3.237,0.649 -3.607,0.472 -3.835,0.331 C -4.401,-0.012 -5.037,-0.351 -5.407,-0.866 C -5.623,-1.164 -5.751,-1.533 -5.725,-1.96 L -1.888,-1.96 L -1.888,-1.082 L 0,-1.082 L 0,-1.96 L 1.323,-1.96 L 1.323,-1.082 L 1.922,-1.082 L 1.922,0 L 1.323,0"
           style="fill:#ffffff;fill-rule:nonzero;stroke:none" />
      </g>
    </g>
  </g>
</svg>
