<?xml version="1.0" encoding="UTF-8" ?>
<!DOCTYPE svg PUBLIC "-//W3C//DTD SVG 1.1//EN" "http://www.w3.org/Graphics/SVG/1.1/DTD/svg11.dtd">
<svg width="177pt" height="37pt" viewBox="0 0 177 37" version="1.1" xmlns="http://www.w3.org/2000/svg">
<g id="#390f1158">
<path fill="#390f11" opacity="0.35" d=" M 14.99 0.00 L 63.10 0.00 C 62.94 0.33 62.61 0.99 62.45 1.32 C 46.59 0.83 30.65 1.11 14.77 1.17 L 14.99 0.00 Z" />
</g>
<g id="#a52b31ff">
<path fill="#a52b31" opacity="1.00" d=" M 2.49 25.38 C -2.68 15.87 4.12 2.71 14.77 1.17 C 30.65 1.11 46.59 0.83 62.45 1.32 C 61.01 3.73 59.62 6.16 58.26 8.62 C 51.13 8.75 43.99 8.64 36.86 8.66 C 33.14 14.93 29.58 21.29 26.00 27.63 C 28.41 27.61 30.95 28.04 33.30 27.46 C 35.92 22.77 38.49 17.97 41.39 13.48 C 48.52 13.24 55.81 13.81 62.85 13.20 C 64.79 5.70 72.39 0.44 80.01 0.64 C 88.67 0.66 97.33 0.65 105.99 0.64 C 114.02 0.74 122.51 5.71 124.31 13.97 C 127.35 9.99 129.55 5.31 131.97 0.90 C 141.21 0.31 150.59 0.81 159.88 0.65 C 156.08 6.68 152.79 13.01 149.18 19.15 C 148.37 20.63 147.26 21.99 146.98 23.70 C 156.57 23.67 166.16 23.76 175.75 23.65 C 173.87 27.66 171.58 31.53 169.18 35.26 C 158.09 35.21 147.00 35.27 135.91 35.23 C 130.36 34.26 125.93 29.88 123.87 24.77 C 122.53 25.90 121.96 27.60 120.85 28.90 C 117.28 33.22 111.57 35.54 106.01 35.25 C 97.34 35.09 88.61 35.54 79.97 35.02 C 71.96 34.30 63.61 29.42 62.19 20.92 C 59.49 25.36 56.97 29.92 54.43 34.45 C 54.13 34.66 53.53 35.08 53.23 35.30 C 42.46 35.16 31.69 35.30 20.92 35.23 C 13.96 34.35 5.92 32.16 2.49 25.38 M 85.43 24.37 C 84.91 25.43 83.87 26.46 84.11 27.73 C 86.29 27.68 88.48 27.80 90.67 27.64 C 94.54 21.12 98.40 14.46 101.99 7.75 C 99.65 7.56 97.29 7.66 94.94 7.71 C 91.78 13.26 88.63 18.83 85.43 24.37 Z" />
</g>
</svg>
