<?xml version="1.0" encoding="utf-8"?>
<!-- Generator: Adobe Illustrator 23.0.1, SVG Export Plug-In . SVG Version: 6.00 Build 0)  -->
<!DOCTYPE svg PUBLIC "-//W3C//DTD SVG 1.1//EN" "http://www.w3.org/Graphics/SVG/1.1/DTD/svg11.dtd" [
	<!ENTITY ns_extend "http://ns.adobe.com/Extensibility/1.0/">
	<!ENTITY ns_ai "http://ns.adobe.com/AdobeIllustrator/10.0/">
	<!ENTITY ns_graphs "http://ns.adobe.com/Graphs/1.0/">
	<!ENTITY ns_vars "http://ns.adobe.com/Variables/1.0/">
	<!ENTITY ns_imrep "http://ns.adobe.com/ImageReplacement/1.0/">
	<!ENTITY ns_sfw "http://ns.adobe.com/SaveForWeb/1.0/">
	<!ENTITY ns_custom "http://ns.adobe.com/GenericCustomNamespace/1.0/">
	<!ENTITY ns_adobe_xpath "http://ns.adobe.com/XPath/1.0/">
]>
<svg version="1.1" id="Livello_1" xmlns:x="&ns_extend;" xmlns:i="&ns_ai;" xmlns:graph="&ns_graphs;"
	 xmlns="http://www.w3.org/2000/svg" xmlns:xlink="http://www.w3.org/1999/xlink" x="0px" y="0px" viewBox="0 0 1164.1 421.4"
	 style="enable-background:new 0 0 1164.1 421.4;" xml:space="preserve">
<style type="text/css">
	.st0{fill:#FF003B;}
</style>
<metadata>
	<sfw  xmlns="&ns_sfw;">
		<slices></slices>
		<sliceSourceBounds  bottomLeftOrigin="true" height="421.4" width="1164.1" x="-438.8" y="-160.9"></sliceSourceBounds>
	</sfw>
</metadata>
<g>
	<g>
		<polygon class="st0" points="27.3,141.2 148.1,227.8 118.5,312.1 0,225.5 		"/>
		<polygon class="st0" points="221,0 175.4,141.2 86.6,141.2 132.1,0 		"/>
		<polygon class="st0" points="221,282.5 293.9,334.9 173.1,421.4 102.5,369.1 		"/>
		<polygon class="st0" points="387.3,54.7 414.6,141.2 266.5,141.2 239.2,54.7 		"/>
		<polygon class="st0" points="414.6,316.7 341.7,369.1 296.2,227.8 366.8,175.4 		"/>
	</g>
	<g>
		<path class="st0" d="M592.3,273.4h9.1c15.9,0,22.8-9.1,36.4-36.4h6.8l-6.8,45.6H530.8v-6.8c13.7-2.3,15.9-4.6,15.9-15.9v-98
			c0-11.4-2.3-11.4-15.9-13.7v-6.8h61.5v6.8c-13.7,2.3-15.9,2.3-15.9,13.7v98C576.4,271.1,580.9,273.4,592.3,273.4z"/>
		<path class="st0" d="M747.2,271.1c2.3,0,6.8-2.3,9.1-2.3v4.6c-4.6,6.8-13.7,9.1-22.8,9.1c-11.4,0-18.2-4.6-20.5-15.9
			c-4.6,6.8-15.9,15.9-29.6,15.9c-18.2,0-27.3-9.1-27.3-25.1c0-18.2,11.4-25.1,27.3-29.6l29.6-11.4v-18.2c0-11.4-4.6-18.2-13.7-18.2
			s-13.7,6.8-13.7,15.9c0,4.6,0,9.1,2.3,13.7l-18.2,2.3c-4.6-2.3-9.1-6.8-9.1-13.7c0-15.9,18.2-25.1,41-25.1
			c25.1,0,38.7,9.1,38.7,31.9v54.7C740.4,266.5,742.7,271.1,747.2,271.1z M713,223.3l-15.9,6.8c-9.1,4.6-13.7,9.1-13.7,20.5
			c0,9.1,4.6,15.9,13.7,15.9c6.8,0,11.4-2.3,15.9-4.6V223.3z"/>
		<path class="st0" d="M829.2,139c43.3,0,66.1,31.9,66.1,68.3c0,47.8-29.6,75.2-68.3,75.2c-43.3,0-66.1-31.9-66.1-68.3
			C760.9,168.6,790.5,139,829.2,139z M826.9,145.8c-22.8,0-34.2,31.9-34.2,63.8c0,34.2,11.4,66.1,36.4,66.1
			c22.8,0,34.2-31.9,34.2-63.8C863.4,177.7,852,145.8,826.9,145.8z"/>
		<path class="st0" d="M970.5,175.4v9.1h-27.3v66.1c0,11.4,4.6,18.2,15.9,18.2c4.6,0,9.1-2.3,13.7-6.8l2.3,4.6
			c-6.8,9.1-15.9,15.9-29.6,15.9c-15.9,0-29.6-6.8-29.6-29.6v-68.3h-11.4V180c13.7-6.8,25.1-18.2,34.2-31.9h4.6v27.3H970.5z"/>
		<path class="st0" d="M1036.5,275.6v6.8h-57v-6.8c9.1-2.3,13.7-2.3,13.7-9.1v-70.6l-13.7-6.8v-4.6l36.4-11.4h4.6v29.6
			c9.1-22.8,15.9-29.6,27.3-29.6c4.6,0,6.8,2.3,9.1,4.6v20.5h-4.6c-11.4,0-22.8,0-31.9,11.4v54.7
			C1020.6,273.4,1025.1,273.4,1036.5,275.6z"/>
		<path class="st0" d="M1155,271.1c2.3,0,4.6-2.3,6.8-2.3l2.3,4.6c-6.8,6.8-13.7,9.1-22.8,9.1c-11.4,0-18.2-4.6-20.5-15.9
			c-6.8,6.8-18.2,15.9-31.9,15.9c-15.9,0-27.3-9.1-27.3-25.1c0-18.2,13.7-25.1,27.3-29.6l29.6-11.4v-18.2c0-11.4-2.3-18.2-13.7-18.2
			c-9.1,0-13.7,6.8-13.7,15.9c0,4.6,2.3,9.1,2.3,13.7l-15.9,2.3c-6.8-2.3-9.1-6.8-9.1-13.7c0-15.9,15.9-25.1,38.7-25.1
			c25.1,0,41,9.1,41,31.9v54.7C1148.2,266.5,1148.2,271.1,1155,271.1z M1118.5,223.3l-15.9,6.8c-9.1,4.6-13.7,9.1-13.7,20.5
			c0,9.1,4.6,15.9,15.9,15.9c4.6,0,9.1-2.3,13.7-4.6V223.3z"/>
	</g>
</g>
</svg>
