<?xml version="1.0" encoding="UTF-8" standalone="no"?>
<!-- Created with Inkscape (http://www.inkscape.org/) -->

<svg
   xmlns:dc="http://purl.org/dc/elements/1.1/"
   xmlns:cc="http://creativecommons.org/ns#"
   xmlns:rdf="http://www.w3.org/1999/02/22-rdf-syntax-ns#"
   xmlns:svg="http://www.w3.org/2000/svg"
   xmlns="http://www.w3.org/2000/svg"
   xmlns:sodipodi="http://sodipodi.sourceforge.net/DTD/sodipodi-0.dtd"
   xmlns:inkscape="http://www.inkscape.org/namespaces/inkscape"
   id="svg2985"
   version="1.1"
   inkscape:version="0.48.5 r10040"
   width="1000"
   height="1437.1229"
   xml:space="preserve"
   sodipodi:docname="A.svg"><metadata
     id="metadata2991"><rdf:RDF><cc:Work
         rdf:about=""><dc:format>image/svg+xml</dc:format><dc:type
           rdf:resource="http://purl.org/dc/dcmitype/StillImage" /><dc:title></dc:title></cc:Work></rdf:RDF></metadata><defs
     id="defs2989"><clipPath
       clipPathUnits="userSpaceOnUse"
       id="clipPath3001"><path
         d="m 626.457,470.551 -289.134,0 0,-365.669 289.134,0 0,365.669 z"
         id="path3003"
         inkscape:connector-curvature="0" /></clipPath><clipPath
       clipPathUnits="userSpaceOnUse"
       id="clipPath3021"><path
         d="m 0,0 674.646,0 0,708.662 L 0,708.662 0,0 z"
         id="path3023"
         inkscape:connector-curvature="0" /></clipPath><clipPath
       clipPathUnits="userSpaceOnUse"
       id="clipPath3033"><path
         d="m 298.976,73.518 20,0 0,14.539 -20,0 0,-14.539 z"
         id="path3035"
         inkscape:connector-curvature="0" /></clipPath><clipPath
       clipPathUnits="userSpaceOnUse"
       id="clipPath3087"><path
         d="m 56.693,101.48 280.63,0 0,352.063 -280.63,0 0,-352.063 z"
         id="path3089"
         inkscape:connector-curvature="0" /></clipPath><clipPath
       clipPathUnits="userSpaceOnUse"
       id="clipPath3107"><path
         d="m 64.845,154.096 264.326,0 0,265.258 -264.326,0 0,-265.258 z"
         id="path3109"
         inkscape:connector-curvature="0" /></clipPath><clipPath
       clipPathUnits="userSpaceOnUse"
       id="clipPath3119"><path
         d="m 56.693,101.48 280.63,0 0,352.063 -280.63,0 0,-352.063 z"
         id="path3121"
         inkscape:connector-curvature="0" /></clipPath><clipPath
       clipPathUnits="userSpaceOnUse"
       id="clipPath3135"><path
         d="m 56.693,101.48 280.63,0 0,352.063 -280.63,0 0,-352.063 z"
         id="path3137"
         inkscape:connector-curvature="0" /></clipPath><clipPath
       clipPathUnits="userSpaceOnUse"
       id="clipPath3151"><path
         d="m 56.693,101.48 280.63,0 0,352.063 -280.63,0 0,-352.063 z"
         id="path3153"
         inkscape:connector-curvature="0" /></clipPath><clipPath
       clipPathUnits="userSpaceOnUse"
       id="clipPath3213"><path
         d="m 56.693,101.48 280.63,0 0,352.063 -280.63,0 0,-352.063 z"
         id="path3215"
         inkscape:connector-curvature="0" /></clipPath><clipPath
       clipPathUnits="userSpaceOnUse"
       id="clipPath3229"><path
         d="m 56.693,101.48 280.63,0 0,352.063 -280.63,0 0,-352.063 z"
         id="path3231"
         inkscape:connector-curvature="0" /></clipPath><clipPath
       clipPathUnits="userSpaceOnUse"
       id="clipPath3255"><path
         d="m 56.693,101.48 280.63,0 0,352.063 -280.63,0 0,-352.063 z"
         id="path3257"
         inkscape:connector-curvature="0" /></clipPath><clipPath
       clipPathUnits="userSpaceOnUse"
       id="clipPath3283"><path
         d="m 56.693,101.48 280.63,0 0,352.063 -280.63,0 0,-352.063 z"
         id="path3285"
         inkscape:connector-curvature="0" /></clipPath><clipPath
       clipPathUnits="userSpaceOnUse"
       id="clipPath3309"><path
         d="m 56.693,101.48 280.63,0 0,352.063 -280.63,0 0,-352.063 z"
         id="path3311"
         inkscape:connector-curvature="0" /></clipPath><clipPath
       clipPathUnits="userSpaceOnUse"
       id="clipPath3325"><path
         d="m 56.693,101.48 280.63,0 0,352.063 -280.63,0 0,-352.063 z"
         id="path3327"
         inkscape:connector-curvature="0" /></clipPath><clipPath
       clipPathUnits="userSpaceOnUse"
       id="clipPath3349"><path
         d="m 56.693,101.48 280.63,0 0,352.063 -280.63,0 0,-352.063 z"
         id="path3351"
         inkscape:connector-curvature="0" /></clipPath><clipPath
       clipPathUnits="userSpaceOnUse"
       id="clipPath3361"><path
         d="m 64.845,154.096 264.326,0 0,265.258 -264.326,0 0,-265.258 z"
         id="path3363"
         inkscape:connector-curvature="0" /></clipPath><clipPath
       clipPathUnits="userSpaceOnUse"
       id="clipPath3377"><path
         d="m 56.693,101.48 280.63,0 0,352.063 -280.63,0 0,-352.063 z"
         id="path3379"
         inkscape:connector-curvature="0" /></clipPath><clipPath
       clipPathUnits="userSpaceOnUse"
       id="clipPath3393"><path
         d="m 56.693,101.48 280.63,0 0,352.063 -280.63,0 0,-352.063 z"
         id="path3395"
         inkscape:connector-curvature="0" /></clipPath><clipPath
       clipPathUnits="userSpaceOnUse"
       id="clipPath3405"><path
         d="m 64.845,154.096 264.326,0 0,265.258 -264.326,0 0,-265.258 z"
         id="path3407"
         inkscape:connector-curvature="0" /></clipPath><clipPath
       clipPathUnits="userSpaceOnUse"
       id="clipPath3421"><path
         d="m 56.693,101.48 280.63,0 0,352.063 -280.63,0 0,-352.063 z"
         id="path3423"
         inkscape:connector-curvature="0" /></clipPath><clipPath
       clipPathUnits="userSpaceOnUse"
       id="clipPath3443"><path
         d="m 56.693,101.48 280.63,0 0,352.063 -280.63,0 0,-352.063 z"
         id="path3445"
         inkscape:connector-curvature="0" /></clipPath><clipPath
       clipPathUnits="userSpaceOnUse"
       id="clipPath3459"><path
         d="m 56.693,101.48 280.63,0 0,352.063 -280.63,0 0,-352.063 z"
         id="path3461"
         inkscape:connector-curvature="0" /></clipPath><clipPath
       clipPathUnits="userSpaceOnUse"
       id="clipPath3475"><path
         d="m 56.693,101.48 280.63,0 0,352.063 -280.63,0 0,-352.063 z"
         id="path3477"
         inkscape:connector-curvature="0" /></clipPath><clipPath
       clipPathUnits="userSpaceOnUse"
       id="clipPath3491"><path
         d="m 56.693,101.48 280.63,0 0,352.063 -280.63,0 0,-352.063 z"
         id="path3493"
         inkscape:connector-curvature="0" /></clipPath><clipPath
       clipPathUnits="userSpaceOnUse"
       id="clipPath3507"><path
         d="m 56.693,101.48 280.63,0 0,352.063 -280.63,0 0,-352.063 z"
         id="path3509"
         inkscape:connector-curvature="0" /></clipPath><clipPath
       clipPathUnits="userSpaceOnUse"
       id="clipPath3523"><path
         d="m 56.693,101.48 280.63,0 0,352.063 -280.63,0 0,-352.063 z"
         id="path3525"
         inkscape:connector-curvature="0" /></clipPath><clipPath
       clipPathUnits="userSpaceOnUse"
       id="clipPath3539"><path
         d="m 56.693,101.48 280.63,0 0,352.063 -280.63,0 0,-352.063 z"
         id="path3541"
         inkscape:connector-curvature="0" /></clipPath><clipPath
       clipPathUnits="userSpaceOnUse"
       id="clipPath3555"><path
         d="m 56.693,101.48 280.63,0 0,352.063 -280.63,0 0,-352.063 z"
         id="path3557"
         inkscape:connector-curvature="0" /></clipPath><clipPath
       clipPathUnits="userSpaceOnUse"
       id="clipPath3571"><path
         d="m 56.693,101.48 280.63,0 0,352.063 -280.63,0 0,-352.063 z"
         id="path3573"
         inkscape:connector-curvature="0" /></clipPath><clipPath
       clipPathUnits="userSpaceOnUse"
       id="clipPath3587"><path
         d="m 56.693,101.48 280.63,0 0,352.063 -280.63,0 0,-352.063 z"
         id="path3589"
         inkscape:connector-curvature="0" /></clipPath><clipPath
       clipPathUnits="userSpaceOnUse"
       id="clipPath3603"><path
         d="m 56.693,101.48 280.63,0 0,352.063 -280.63,0 0,-352.063 z"
         id="path3605"
         inkscape:connector-curvature="0" /></clipPath><clipPath
       clipPathUnits="userSpaceOnUse"
       id="clipPath3619"><path
         d="m 56.693,101.48 280.63,0 0,352.063 -280.63,0 0,-352.063 z"
         id="path3621"
         inkscape:connector-curvature="0" /></clipPath><clipPath
       clipPathUnits="userSpaceOnUse"
       id="clipPath3635"><path
         d="m 56.693,101.48 280.63,0 0,352.063 -280.63,0 0,-352.063 z"
         id="path3637"
         inkscape:connector-curvature="0" /></clipPath><clipPath
       clipPathUnits="userSpaceOnUse"
       id="clipPath3651"><path
         d="m 56.693,101.48 280.63,0 0,352.063 -280.63,0 0,-352.063 z"
         id="path3653"
         inkscape:connector-curvature="0" /></clipPath><clipPath
       clipPathUnits="userSpaceOnUse"
       id="clipPath3667"><path
         d="m 56.693,101.48 280.63,0 0,352.063 -280.63,0 0,-352.063 z"
         id="path3669"
         inkscape:connector-curvature="0" /></clipPath><clipPath
       clipPathUnits="userSpaceOnUse"
       id="clipPath3683"><path
         d="m 56.693,101.48 280.63,0 0,352.063 -280.63,0 0,-352.063 z"
         id="path3685"
         inkscape:connector-curvature="0" /></clipPath><clipPath
       clipPathUnits="userSpaceOnUse"
       id="clipPath3699"><path
         d="m 56.693,101.48 280.63,0 0,352.063 -280.63,0 0,-352.063 z"
         id="path3701"
         inkscape:connector-curvature="0" /></clipPath><clipPath
       clipPathUnits="userSpaceOnUse"
       id="clipPath3715"><path
         d="m 56.693,101.48 280.63,0 0,352.063 -280.63,0 0,-352.063 z"
         id="path3717"
         inkscape:connector-curvature="0" /></clipPath><clipPath
       clipPathUnits="userSpaceOnUse"
       id="clipPath3731"><path
         d="m 56.693,101.48 280.63,0 0,352.063 -280.63,0 0,-352.063 z"
         id="path3733"
         inkscape:connector-curvature="0" /></clipPath><clipPath
       clipPathUnits="userSpaceOnUse"
       id="clipPath3747"><path
         d="m 56.693,101.48 280.63,0 0,352.063 -280.63,0 0,-352.063 z"
         id="path3749"
         inkscape:connector-curvature="0" /></clipPath><clipPath
       clipPathUnits="userSpaceOnUse"
       id="clipPath3775"><path
         d="m 56.693,101.48 280.63,0 0,352.063 -280.63,0 0,-352.063 z"
         id="path3777"
         inkscape:connector-curvature="0" /></clipPath><clipPath
       clipPathUnits="userSpaceOnUse"
       id="clipPath3791"><path
         d="m 56.693,101.48 280.63,0 0,352.063 -280.63,0 0,-352.063 z"
         id="path3793"
         inkscape:connector-curvature="0" /></clipPath><clipPath
       clipPathUnits="userSpaceOnUse"
       id="clipPath3807"><path
         d="m 56.693,101.48 280.63,0 0,352.063 -280.63,0 0,-352.063 z"
         id="path3809"
         inkscape:connector-curvature="0" /></clipPath><clipPath
       clipPathUnits="userSpaceOnUse"
       id="clipPath3823"><path
         d="m 56.693,101.48 280.63,0 0,352.063 -280.63,0 0,-352.063 z"
         id="path3825"
         inkscape:connector-curvature="0" /></clipPath><clipPath
       clipPathUnits="userSpaceOnUse"
       id="clipPath3839"><path
         d="m 56.693,101.48 280.63,0 0,352.063 -280.63,0 0,-352.063 z"
         id="path3841"
         inkscape:connector-curvature="0" /></clipPath><clipPath
       clipPathUnits="userSpaceOnUse"
       id="clipPath3855"><path
         d="m 56.693,101.48 280.63,0 0,352.063 -280.63,0 0,-352.063 z"
         id="path3857"
         inkscape:connector-curvature="0" /></clipPath><clipPath
       clipPathUnits="userSpaceOnUse"
       id="clipPath3871"><path
         d="m 56.693,101.48 280.63,0 0,352.063 -280.63,0 0,-352.063 z"
         id="path3873"
         inkscape:connector-curvature="0" /></clipPath><clipPath
       clipPathUnits="userSpaceOnUse"
       id="clipPath3887"><path
         d="m 56.693,101.48 280.63,0 0,352.063 -280.63,0 0,-352.063 z"
         id="path3889"
         inkscape:connector-curvature="0" /></clipPath><clipPath
       clipPathUnits="userSpaceOnUse"
       id="clipPath3903"><path
         d="m 56.693,101.48 280.63,0 0,352.063 -280.63,0 0,-352.063 z"
         id="path3905"
         inkscape:connector-curvature="0" /></clipPath><clipPath
       clipPathUnits="userSpaceOnUse"
       id="clipPath3919"><path
         d="m 56.693,101.48 280.63,0 0,352.063 -280.63,0 0,-352.063 z"
         id="path3921"
         inkscape:connector-curvature="0" /></clipPath><clipPath
       clipPathUnits="userSpaceOnUse"
       id="clipPath3953"><path
         d="m 476.504,571.181 138.614,0 0,77.598 -138.614,0 0,-77.598 z"
         id="path3955"
         inkscape:connector-curvature="0" /></clipPath><clipPath
       clipPathUnits="userSpaceOnUse"
       id="clipPath4073"><path
         d="m 0,0 674.646,0 0,708.662 L 0,708.662 0,0 z"
         id="path4075"
         inkscape:connector-curvature="0" /></clipPath><clipPath
       clipPathUnits="userSpaceOnUse"
       id="clipPath4235"><path
         d="m 0,0 674.646,0 0,708.662 L 0,708.662 0,0 z"
         id="path4237"
         inkscape:connector-curvature="0" /></clipPath><clipPath
       clipPathUnits="userSpaceOnUse"
       id="clipPath4305"><path
         d="m 0,0 674.646,0 0,708.662 L 0,708.662 0,0 z"
         id="path4307"
         inkscape:connector-curvature="0" /></clipPath></defs><sodipodi:namedview
     pagecolor="#ffffff"
     bordercolor="#666666"
     borderopacity="1"
     objecttolerance="10"
     gridtolerance="10"
     guidetolerance="10"
     inkscape:pageopacity="0"
     inkscape:pageshadow="2"
     inkscape:window-width="1062"
     inkscape:window-height="994"
     id="namedview2987"
     showgrid="false"
     fit-margin-left="0.5"
     fit-margin-bottom="0.5"
     fit-margin-top="0.5"
     fit-margin-right="0.5"
     inkscape:zoom="0.24650776"
     inkscape:cx="939.16352"
     inkscape:cy="193.42802"
     inkscape:window-x="850"
     inkscape:window-y="21"
     inkscape:window-maximized="0"
     inkscape:current-layer="g2993"
     showguides="true"
     inkscape:guide-bbox="true"><inkscape:grid
       type="xygrid"
       id="grid4352"
       empspacing="5"
       visible="true"
       enabled="true"
       snapvisiblegridlinesonly="true"
       originx="-526.5px"
       originy="443.19514px" /></sodipodi:namedview><g
     id="g2993"
     inkscape:groupmode="layer"
     inkscape:label="dppp_guidetopolicies_april2016"
     transform="matrix(1.25,0,0,-1.25,-39.369875,2039.1639)"><path
       style="fill:#20303a;fill-opacity:1;stroke:none"
       d="m 31.8959,486.58277 0,24.87294 17.203785,0 0,124.36471 -17.203785,0 0,24.87294 49.745885,0 0,-149.23765 16.581961,0 0,-24.87294 z"
       id="path4354"
       inkscape:connector-curvature="0"
       sodipodi:nodetypes="ccccccccccc" /><path
       style="fill:#20303a;fill-opacity:1;stroke:none"
       d="m 162.28453,617.27942 c -36.62638,0 -48.2509,-19.64618 -50.71749,-41.58445 l 32.2571,0 c 1.30701,13.83162 8.62828,19.30244 18.65471,19.30244 13.59839,0 17.77513,-15.06303 17.81265,-22.34678 l 0.0648,-8.80917 c 0,0 -6.55445,0.38864 -11.33532,0.38864 -37.39015,0 -62.70054,-14.47101 -62.70054,-42.16741 0,-27.40034 18.13071,-39.96512 40.15944,-39.96512 27.198,0 36.72645,20.79223 36.72645,20.79223 l 0,-16.32287 43.52765,0 0,24.87294 -16.58196,0 0,63.67214 c 0,24.36684 -13.11584,42.16741 -47.86746,42.16741 z m 7.96711,-70.92675 c 3.06275,-0.01 6.38242,-0.2605 9.91032,-0.7125 l 0,-9.97509 c 0.0249,-17.68632 -8.14301,-28.43547 -22.02292,-28.43547 -11.35123,0 -19.43199,8.3287 -19.43199,17.81265 0,11.25248 10.1054,21.37828 31.54459,21.31041 z"
       id="path4367"
       inkscape:connector-curvature="0" /><path
       style="fill:#20303a;fill-opacity:1;stroke:none"
       d="m 246.01048,486.58277 0,61.7678 26.75085,0 c 0,-20.45681 14.62139,-38.71494 34.85785,-38.71494 15.93025,0 24.71166,10.25532 24.71166,22.38913 0,38.1268 -85.29475,22.02483 -85.29475,82.16654 0,26.91029 18.10203,48.44939 52.25947,48.44939 27.28414,0 36.25751,-19.56556 36.25751,-19.56556 l 0,16.58196 25.90932,0 -2e-5,-58.65879 -27.47122,0 c 0,15.18781 -9.96269,35.82585 -31.34535,35.82585 -12.8976,0 -23.05751,-7.33862 -23.05751,-18.59054 0,-36.57027 85.59528,-19.51265 85.59528,-83.29608 0,-30.39076 -22.27178,-50.6477 -54.4578,-50.6477 -26.68541,0 -38.39143,18.49554 -38.39143,18.49554 l 0,-16.2026 z"
       id="path4370"
       inkscape:connector-curvature="0"
       sodipodi:nodetypes="ccccccccccccccccccc" /><path
       id="path4378"
       d="m 766.64648,617.27942 c -36.62639,0 -48.25092,-19.64617 -50.71749,-41.58445 l 32.2571,0 c 1.307,13.83161 8.62827,19.30244 18.65471,19.30244 13.59837,0 17.77514,-15.06302 17.81265,-22.34678 l 0.0648,-8.80917 c 0,0 -6.55446,0.38864 -11.33533,0.38864 -37.39015,0 -62.70054,-14.47102 -62.70054,-42.16741 0,-27.40034 18.13072,-39.96512 40.15944,-39.96512 27.19799,0 36.72645,20.79223 36.72645,20.79223 l 0,-16.32287 43.52765,0 0,24.87294 -16.58196,0 0,63.67214 c 0,24.36683 -13.11584,42.16741 -47.86746,42.16741 z m 7.96711,-70.92675 c 3.06274,-0.0104 6.3824,-0.26049 9.91032,-0.7125 l 0,-9.97509 c 0.0259,-17.68632 -8.14302,-28.43547 -22.02292,-28.43547 -11.35124,0 -19.43199,8.3287 -19.43199,17.81265 0,11.25247 10.10539,21.37827 31.54459,21.31041 z"
       style="fill:#20303a;fill-opacity:1;stroke:none"
       inkscape:connector-curvature="0" /><path
       style="fill:#20303a;fill-opacity:1;stroke:none"
       d="m 431.93572,617.21465 c -32.79949,0 -57.64822,-22.07959 -57.64822,-68.53014 0,-42.88049 20.85465,-66.65171 59.20278,-66.65171 30.4084,0 55.03072,20.76702 55.7698,45.60039 l -32.45141,0 c -1.32824,-12.40614 -9.98529,-21.89337 -24.35476,-21.89337 -20.64732,0 -25.84454,20.4505 -25.84454,39.90035 l 83.36322,0 0,9.39213 c 0,41.29969 -24.24196,62.18235 -58.03687,62.18235 z m 1.16592,-22.8002 c 12.02881,0 24.09494,-11.86634 24.03089,-28.04683 l -49.61634,0 c 0,15.13829 12.63884,28.04683 25.58545,28.04683 z"
       id="path4380"
       inkscape:connector-curvature="0" /><path
       style="fill:#20303a;fill-opacity:1;stroke:none"
       d="m 498.26357,486.58277 0,24.873 10.20684,0 27.10257,41.47171 -24.87294,36.25628 -9.32735,0 0,24.87294 52.855,0 0,-24.87294 -10.36373,0 16.58197,-24.87295 16.58196,24.87295 -10.36373,0 0,24.87294 49.33134,0 0,-24.87294 -9.94918,0 -24.87294,-36.41911 28.18823,-41.30888 10.15753,0 0,-24.873 -54.92772,0 0,24.873 10.36372,0 -18.6547,29.12584 -18.09731,-29.12594 11.87907,0 0,-24.8729 z"
       id="path4384"
       inkscape:connector-curvature="0"
       sodipodi:nodetypes="ccccccccccccccccccccccccccccc" /><path
       style="fill:#20303a;fill-opacity:1;stroke:none"
       d="m 645.42848,589.18376 -16.58196,0 0,24.87294 17.61831,0 0,29.51187 31.0912,7.79754 0,-37.30941 24.87294,0 0,-24.87294 -24.87294,0 0,-64.2551 c 0,-12.42132 6.87393,-17.39612 23.00745,-13.64418 l 0,-23.66524 c 0,0 -10.32364,-1.55576 -20.45764,-1.55576 -22.9039,0 -34.71969,7.11889 -34.71969,30.12132 z"
       id="path4386"
       inkscape:connector-curvature="0"
       sodipodi:nodetypes="cccccccccccccccc" /><path
       style="fill:#44dd3a;fill-opacity:1;stroke:none"
       d="m 552.47259,1049.905 -61.08584,100.8628 -258.54942,0 0,241.5022 139.21891,238.6611 281.27906,0 -141.15967,-238.6611 118.43005,0 200.30476,-342.365 -186.09876,-103.70374 z"
       id="path4403"
       inkscape:connector-curvature="0"
       sodipodi:nodetypes="ccccccccccc" /><path
       style="fill:#3bb33b;fill-opacity:1;stroke:none"
       d="m 232.83733,707.54025 0,238.66101 258.54942,0 61.08584,103.70374 278.43785,0 -200.30476,-342.36475 z"
       id="path4401"
       inkscape:connector-curvature="0"
       sodipodi:nodetypes="ccccccc" /><path
       style="fill:#338a3b;fill-opacity:1;stroke:none"
       d="M 232.83733,707.54025 32.872528,1049.8245 232.83733,1392.27 372.05624,1150.7678 311.62735,1049.8245 372.05624,946.20126 z"
       id="path4399"
       inkscape:connector-curvature="0" /></g></svg>