<?xml version="1.0" encoding="UTF-8"?>
<!DOCTYPE svg  PUBLIC '-//W3C//DTD SVG 1.1//EN'  'http://www.w3.org/Graphics/SVG/1.1/DTD/svg11.dtd'>
<svg width="1152pt" height="163pt" version="1.1" viewBox="0 0 1152 163" xmlns="http://www.w3.org/2000/svg">
<g fill="#fff">
<path d="m58.88 67.73c3.21-3.92 7.41-6.96 12.17-8.72-0.58 0.56-1.73 1.68-2.31 2.23 3.01-0.63 5.99 0.11 8.86 0.96 0.42 2.75 0.6 5.53 0.84 8.3 0.86-2.68 1.18-5.49 1.44-8.28 2.77-0.92 5.65-1.52 8.57-1.05-0.38-0.53-1.13-1.6-1.51-2.13 4.36 2.1 8.58 4.77 11.49 8.73l-2.56-1.26c1.11 2.65 1.66 5.47 1.93 8.32-2.44 1.29-4.99 2.36-7.44 3.6 2.64 0.23 5.19-0.71 7.75-1.18 2.06 2.18 3.04 5.03 3.8 7.87 0.42-0.52 1.27-1.56 1.69-2.08-0.67 4.54-1.99 8.96-4.25 12.97-0.13-0.51-0.38-1.54-0.51-2.06-2.08 1.98-4.59 3.44-7.37 4.19-1.15-1.61-3.22-2.83-3.38-4.94-0.46 0.01-1.36 0.05-1.82 0.07 0.91 2.05 2.28 3.86 3.19 5.92-0.69 2.42-3.03 4.09-5.15 5.3l0.25 0.94-1.09 0.12 0.23 1.08c-3.34 0.48-6.72 0.44-10.06-0.05-0.51-3.2-4.52-4.17-5.93-7.02 1.48-2.52 2.92-5.06 4.11-7.72 4.61-0.01 9.22-0.01 13.83 0 1.38-4.36 2.87-8.69 4.24-13.06-3.7-2.74-7.43-5.43-11.17-8.12-3.31 2.44-6.72 4.75-9.92 7.35-0.63 0.11-1.88 0.33-2.5 0.44-1.93-1.59-4.31-2.41-6.55-3.44-0.05-2.91 0.74-5.73 1.81-8.41l-2.68 1.13z"/>
<path d="m55.51 85.2c0.62-2.89 1.88-5.58 3.65-7.94 3.01 0.5 6.07 1 8.79 2.46 1.21 4.02 2.47 8.03 3.84 12-2.03 2.11-4.03 4.24-5.95 6.45-2.24-0.78-4.35-1.87-6.27-3.25-0.66 0.69-1.67 0.94-2.18-0.06-2.03-3.77-2.98-7.98-3.33-12.22 0.36 0.64 1.09 1.92 1.45 2.56z"/>
</g>
<path d="m58.35 4.37c4.73-1.75 9.59-3.64 14.72-3.4 1.86 11.19 4.55 22.27 5.93 33.53-11.36 1.76-21.36 9.09-27 19.02-10.21-5.31-20.09-11.31-29.93-17.28 7.75-14.5 21.03-25.85 36.28-31.87z" fill="#8e2f89"/>
<path d="m79.71 9.7c17.02-3.45 35.24 0.52 49.92 9.62 3.48 2.33 7.17 4.53 9.84 7.81-7.54 8.58-14.81 17.42-22.56 25.82-8.66-7.62-20.58-11.29-32.02-9.24-2.01-11.29-3.38-22.69-5.18-34.01z" fill="#e61e29"/>
<g fill="#e20b1a">
<path d="m586.79 23.97c-0.27-5.29 0.59-11.21 4.21-15.3 0.82 2.51 1.69 5.03 3.03 7.32 5.97 10.36 11.95 20.72 17.93 31.07 1.91 3.3 2.74 7.06 3.15 10.81 10.81 3.06 22.07 7.86 28.77 17.33 4.4 6.08 4.5 14.76 0.22 20.94-6.09 9.14-16.66 13.97-26.84 17.07-19.26 5.31-40.28 5.03-59.17-1.66-8.48-3.1-16.82-7.89-21.96-15.54-4.09-6.09-4.07-14.59 0.21-20.58 6.66-9.66 18.1-14.59 29.07-17.55 0.23 4.56 1.02 9.19 3.36 13.19 5.97 10.41 12 20.79 17.98 31.2 1.26 2.2 2.07 4.61 2.86 7.02 4.51-7.38 5.04-17.13 0.79-24.74-4.95-8.69-10.04-17.3-14.97-26-4.45-7.95-3.65-18.02 1-25.71 1.08 2.77 1.98 5.62 3.51 8.18 5.24 9.1 10.5 18.18 15.75 27.27 2.94 5.28 6.42 10.33 8.23 16.15 4.42-7.19 4.98-16.71 0.95-24.2-3.1-5.57-6.38-11.05-9.54-16.59-3.4-6.28-8.18-12.26-8.54-19.68z"/>
<path d="m683.93 38.57c10.13-2.58 20.86-1.28 30.8 1.58-0.08 3.82-0.85 7.6-2.15 11.2-6.93-2.39-14.37-3.71-21.69-2.87-3.81 0.5-8.14 2.44-9.11 6.54-1.31 4.39 1.4 8.9 5.18 11.05 8.04 4.85 17.77 6.76 24.89 13.18 7.15 6.04 8.29 17.38 3.62 25.25-3.54 5.75-10.16 8.76-16.62 9.81-10.18 1.52-20.83 0.57-30.41-3.31 0.23-3.77 0.92-7.5 1.95-11.13 8.55 3.25 17.95 5.34 27.06 3.39 2.98-0.76 6.29-2.24 7.5-5.3 1.63-3.78 0.3-8.46-2.92-10.96-8.4-6.5-19.95-7.73-27.53-15.46-5.47-5.48-6.52-14.16-4.22-21.31 1.96-6.08 7.61-10.2 13.65-11.66z"/>
<path d="m847.49 39.76c3.91-1.18 7.98-1.63 12.06-1.73-0.09 6.74-0.03 13.47-0.04 20.21h18.54c-0.13 3.47-0.45 6.94-1.16 10.34-5.8-0.16-11.59-0.05-17.38-0.07-0.01 8.83-0.01 17.67-0.02 26.51-0.1 3.17 1.05 6.91 4.22 8.24 4.54 2 9.61 0.54 14.19-0.63-0.53 3.39-1 6.79-1.44 10.19-5.27 1.88-11.06 2.2-16.52 1.1-4.04-0.85-8.01-3.12-10.02-6.82-1.96-3.32-2.52-7.24-2.45-11.03 0.05-18.77 0.02-37.54 0.02-56.31z"/>
<path d="m1039.7 39.83c3.75-1.54 7.86-1.64 11.86-1.82-0.11 25.09 0.04 50.17-0.08 75.26-3.63-0.02-7.26-0.02-10.89-0.01-0.24-2.13-0.46-4.27-0.65-6.41-5.23 8.79-17.55 9.41-25.96 5.31-8.28-3.99-12.19-13.39-12.76-22.12-0.78-9.6 0.97-20.61 8.77-27.12 8.18-6.79 19.72-7.26 29.79-5.68-0.06-5.8 0.07-11.61-0.08-17.41m-21.45 31.36c-4.67 4.98-5.44 12.37-4.72 18.87 0.57 5.1 2.68 10.74 7.64 13.06 6.02 2.96 13.29 1.35 18.58-2.41 0-10.89 0.09-21.79-0.04-32.68-7.04-1.89-15.83-2.3-21.46 3.16z"/>
<path d="m733.06 64.01c5.71-5.71 14.11-7.52 21.93-7.54 7.01-0.04 14.09 0.72 20.75 3.01 0.04 17.92 0.01 35.84 0.02 53.76-3.72 0.02-7.44 0.02-11.15 0.01-0.17-1.97-0.41-3.94-0.81-5.88-5.15 8.1-16.56 8.68-24.66 5.21-8.43-3.57-12.88-12.75-13.57-21.48-0.93-9.42 0.38-20.17 7.49-27.09m11.04 6.02c-6.28 4.76-7.23 13.62-6.19 20.9 0.62 4.68 2.7 9.71 7.11 11.99 5.96 3.15 13.45 1.77 18.74-2.13-0.04-11.13 0.01-22.25-0.03-33.37-6.55-0.89-13.98-1.51-19.63 2.61z"/>
<path d="m788.26 59.47c12.01-2.65 25.01-4.93 36.9-0.57 6.71 2.25 10.66 9.23 10.67 16.09 0.38 12.75 0.07 25.51 0.17 38.26-4.09 0-8.16 0.02-12.24-0.03-0.05-12.06 0.02-24.13-0.02-36.19-0.02-3.48-1.65-7.29-5.03-8.69-5.85-2.39-12.37-1.56-18.45-0.7-0.03 15.2 0.02 30.39-0.03 45.59-4 0.03-8 0.03-11.99 0.02 0.01-17.93-0.03-35.86 0.02-53.78z"/>
<path d="m889.57 63.54c6.23-5.83 15.2-7.28 23.44-7.06 6.34 0.11 12.7 0.93 18.72 2.99 0.07 17.92 0.01 35.85 0.03 53.78-3.72 0.01-7.44 0-11.15 0.01-0.2-1.97-0.42-3.94-0.74-5.89-5.67 8.59-18.2 8.86-26.53 4.3-7.7-4.23-11.31-13.15-11.85-21.56-0.77-9.33 0.8-19.97 8.08-26.57m11.7 5.71c-5.16 2.94-7.29 9.1-7.65 14.73-0.32 6.02 0.52 12.9 5.06 17.31 5.92 5.09 15.14 4 21.08-0.51-0.04-11.13 0.03-22.26-0.04-33.38-6.13-0.76-12.9-1.45-18.45 1.85z"/>
<path d="m944.28 59.45c10.65-2.38 21.81-4.24 32.64-1.89 4.86 1.11 9.81 3.5 12.37 7.99 3.07 5.27 2.66 11.59 2.72 17.47-0.02 10.08 0 20.15-0.01 30.23h-12c-0.05-11.11 0.08-22.22-0.06-33.32-0.08-4.06-0.48-9.17-4.58-11.25-5.94-2.86-12.81-1.9-19.1-1.04-0.04 15.2 0.03 30.39-0.04 45.59-4 0.03-7.99 0.03-11.98 0.01 0.03-17.93-0.05-35.86 0.04-53.79z"/>
<path d="m1065.3 67.25c3.62-6.31 10.71-9.9 17.8-10.54 8.32-1.04 17.88 0.85 23.28 7.79 5.69 7.24 5.6 17.05 4.45 25.74-12.57 0.04-25.14-0.01-37.7 0.02 0.94 5.24 3.79 10.68 9.1 12.53 8.97 3.14 18.84 0.75 27.4-2.63-0.48 3.68-1.15 7.34-1.81 10.99-9.28 3.91-19.95 4.48-29.61 1.69-8.2-2.34-14.49-9.54-16.15-17.85-1.95-9.2-1.61-19.46 3.24-27.74m14.06 1.09c-4.23 2.4-5.72 7.4-6.41 11.89 8.8 0.02 17.6 0.01 26.41 0.01-0.23-3.34-0.8-6.87-3.01-9.51-4.06-4.82-11.69-5.26-16.99-2.39z"/>
<path d="m1121.3 59.43c9.95-2.91 20.45-3.49 30.74-2.55v2.65c-0.21 2.58-0.63 5.14-1.04 7.7-5.89-0.64-11.82-0.59-17.69 0.17-0.05 15.28 0.01 30.56-0.04 45.84-4 0.02-7.99 0.02-11.98 0.01 0-17.94-0.04-35.88 0.01-53.82z"/>
</g>
<g fill="#030406">
<path d="m358.47 30.68c6.02-2.48 13.65 1.74 14.44 8.28 1.26 6.42-4.37 13.02-10.94 12.59-6.39 0.31-11.54-6.34-10.28-12.45 0.53-3.75 3.2-7.13 6.78-8.42z"/>
<path d="m186.75 41c6.34 0 12.67-0.01 19.01 0.01-0.02 18.66 0 37.32-0.01 55.99h22.75c0 5.59 0.02 11.18-0.02 16.77-13.91-0.03-27.82-0.01-41.73-0.02v-72.75z"/>
<path d="m303.75 41h19.25v56c7.59 0.01 15.17-0.01 22.76 0.01-0.01 5.58 0 11.16-0.01 16.74-14 0.01-28 0-42 0.01-0.01-24.25 0-48.5 0-72.76z"/>
<path d="m399.5 54.68c7.71-1.45 15.95 1.05 21.29 6.87-0.04-2.02-0.05-4.03-0.05-6.04 5.73-0.04 11.47 0.02 17.21-0.05 0.1 16.85 0.05 33.7 0.03 50.54 0.08 7.83-2.53 16.07-8.67 21.22-9.59 7.97-23.65 8.85-35.02 4.55-7.76-2.82-13.77-9.76-14.99-17.99 6.64-0.05 13.28-0.04 19.92-0.02 3.58 6.25 12.53 5.83 17.83 2.17 3.29-2.37 3.21-6.79 3-10.42-5.34 4.24-12.14 7.2-19.08 6.35-6.76-0.63-13.17-4.31-17.07-9.86-6.28-8.71-7.08-20.59-3.52-30.54 2.93-8.34 10.18-15.46 19.12-16.78m4.63 15.47c-10.1 3.21-11.43 18.97-3.07 24.83 5.28 3.62 13.13 2.04 16.96-2.98 4.63-5.76 3.77-15.29-2.12-19.87-3.32-2.52-7.83-2.9-11.77-1.98z"/>
<path d="m73.56 55.77c9.38-1.91 19.61 1.64 25.76 8.97 7.47 8.49 8.66 21.73 2.82 31.41-5.66 9.89-17.99 15.4-29.12 12.78-12.29-2.38-21.95-14.35-21.36-26.92-0.22-12.52 9.62-24.11 21.9-26.24m-14.68 11.96l2.68-1.13c-1.07 2.68-1.86 5.5-1.81 8.41 2.24 1.03 4.62 1.85 6.55 3.44 0.62-0.11 1.87-0.33 2.5-0.44 3.2-2.6 6.61-4.91 9.92-7.35 3.74 2.69 7.47 5.38 11.17 8.12-1.37 4.37-2.86 8.7-4.24 13.06-4.61-0.01-9.22-0.01-13.83 0-1.19 2.66-2.63 5.2-4.11 7.72 1.41 2.85 5.42 3.82 5.93 7.02 3.34 0.49 6.72 0.53 10.06 0.05l-0.23-1.08 1.09-0.12-0.25-0.94c2.12-1.21 4.46-2.88 5.15-5.3-0.91-2.06-2.28-3.87-3.19-5.92 0.46-0.02 1.36-0.06 1.82-0.07 0.16 2.11 2.23 3.33 3.38 4.94 2.78-0.75 5.29-2.21 7.37-4.19 0.13 0.52 0.38 1.55 0.51 2.06 2.26-4.01 3.58-8.43 4.25-12.97-0.42 0.52-1.27 1.56-1.69 2.08-0.76-2.84-1.74-5.69-3.8-7.87-2.56 0.47-5.11 1.41-7.75 1.18 2.45-1.24 5-2.31 7.44-3.6-0.27-2.85-0.82-5.67-1.93-8.32l2.56 1.26c-2.91-3.96-7.13-6.63-11.49-8.73 0.38 0.53 1.13 1.6 1.51 2.13-2.92-0.47-5.8 0.13-8.57 1.05-0.26 2.79-0.58 5.6-1.44 8.28-0.24-2.77-0.42-5.55-0.84-8.3-2.87-0.85-5.85-1.59-8.86-0.96 0.58-0.55 1.73-1.67 2.31-2.23-4.76 1.76-8.96 4.8-12.17 8.72m-3.37 17.47c-0.36-0.64-1.09-1.92-1.45-2.56 0.35 4.24 1.3 8.45 3.33 12.22 0.51 1 1.52 0.75 2.18 0.06 1.92 1.38 4.03 2.47 6.27 3.25 1.92-2.21 3.92-4.34 5.95-6.45-1.37-3.97-2.63-7.98-3.84-12-2.72-1.46-5.78-1.96-8.79-2.46-1.77 2.36-3.03 5.05-3.65 7.94z"/>
<path d="m240.97 61.9c6.68-6.49 16.94-9.35 25.9-6.49 3.55 1.09 6.49 3.44 9.36 5.7 0.01-1.86 0.01-3.73 0.01-5.6 5.8-0.06 11.61 0.08 17.41-0.1 0.24 19.44 0.03 38.9 0.1 58.34-5.91 0.01-11.83 0-17.74 0.01-0.01-1.76-0.01-3.53-0.01-5.29-10.74 10.35-30.32 8.71-38.89-3.6-8.69-12.85-7.55-32.07 3.86-42.97m17.47 9.73c-9.51 2.99-11.66 16.28-5.35 23.29 4.68 5.75 14.12 5.47 19.26 0.49 6.04-5.45 5.74-16.09-0.43-21.33-3.66-3.15-8.95-3.89-13.48-2.45z"/>
<path d="m456.48 60.36c9.35-8.04 24.79-8.3 33.5 0.89 0-1.94 0.03-3.88 0.1-5.81 5.8 0.12 11.61 0.03 17.42 0.06 0.01 19.42 0 38.83 0 58.25-6 0.01-11.99-0.01-17.99 0.01-0.01-1.65-0.01-3.3-0.01-4.94-10.91 9.8-30.05 8.35-38.58-3.83-9.31-13.43-7.46-34.19 5.56-44.63m15.92 11.21c-10.03 2.86-12.07 17.17-4.98 24.01 5.11 5.39 14.5 4.48 19.28-0.87 5.97-6.02 4.63-17.45-2.69-21.79-3.41-2.21-7.79-2.47-11.61-1.35z"/>
<path d="m353.25 113.75c0.03-19.43-0.08-38.87 0.05-58.3 5.9 0.09 11.8 0.02 17.7 0.05-0.01 19.42 0.01 38.84-0.01 58.26-5.91-0.01-11.83 0-17.74-0.01z"/>
</g>
<path d="m1.74 64.12c1.15-9.76 3.66-19.68 9.07-27.97 9.75 5.23 19.58 10.35 29.23 15.76 1.63 0.81-0.12 2.56-0.4 3.68-4.68 9.36-4.42 20.51-0.69 30.15-10.5 4.53-21.32 8.28-31.93 12.54-5.15-10.5-6.14-22.63-5.28-34.16z" fill="#1a5ca8"/>
<path d="m113.26 63.07c7.62-8.63 15.64-16.95 23.74-25.14 16.11 14.14 24.93 36.26 23.12 57.59-11.43-0.29-22.85-0.89-34.26-1.62 0.51-11.51-3.97-23.1-12.6-30.83z" fill="#f38a21"/>
<path d="m8.84 103.11c7.23-3.77 14.94-6.6 22.39-9.93 2.67 5.22 5.73 10.38 10.27 14.2 4.13 3.86 9.33 6.26 14.64 8.03-1.64 6.41-3.48 12.82-5.98 18.95h0.61c-2.03 4.54-3.04 9.43-4.75 14.08-8-2.04-15.56-5.81-22.16-10.77l-0.89 0.67 0.64-1.11c-6.42-3.93-11.56-9.75-15.97-15.8-3.1-4.14-5.59-8.73-7.64-13.48v-1.49c2.5-0.73 4.88-1.79 7.12-3.09l0.51 0.8 0.1-1.52 1.11 0.46z" fill="#229ad7"/>
<path d="m112.51 110.64c1.99-4.14 2.33-8.75 3.33-13.16 11.36 1 22.74 1.76 34.1 2.71-0.73 21.52-12.45 42.17-30.02 54.47-7.16-9-13.71-18.48-20.55-27.73 5.48-4.41 10.45-9.69 13.14-16.29z" fill="#fddd18"/>
<path d="m57.14 126.01c11.09 3.09 23.41 1.29 32.81-5.49 6.86 9.22 12.95 19 19.39 28.53-8.92 7.02-20.07 10.73-31.17 12.53-5.48 1.9-11.32 1.15-17 1.08-3.77-2.52-9.39-0.95-12.98-3.89 2.59-11 5.84-21.88 8.95-32.76z" fill="#23a751"/>
</svg>
