<?xml version="1.0" encoding="UTF-8" standalone="no"?>
<svg
   xmlns:dc="http://purl.org/dc/elements/1.1/"
   xmlns:cc="http://creativecommons.org/ns#"
   xmlns:rdf="http://www.w3.org/1999/02/22-rdf-syntax-ns#"
   xmlns:svg="http://www.w3.org/2000/svg"
   xmlns="http://www.w3.org/2000/svg"
   xmlns:sodipodi="http://sodipodi.sourceforge.net/DTD/sodipodi-0.dtd"
   xmlns:inkscape="http://www.inkscape.org/namespaces/inkscape"
   width="500mm"
   height="500mm"
   version="1.1"
   viewBox="0 0 1417.3229 1417.3228"
   id="svg62"
   sodipodi:docname="laliga_tv.svg"
   inkscape:version="0.92.4 (5da689c313, 2019-01-14)">
  <metadata
     id="metadata68">
    <rdf:RDF>
      <cc:Work
         rdf:about="">
        <dc:format>image/svg+xml</dc:format>
        <dc:type
           rdf:resource="http://purl.org/dc/dcmitype/StillImage" />
        <dc:title></dc:title>
      </cc:Work>
    </rdf:RDF>
  </metadata>
  <defs
     id="defs66" />
  <sodipodi:namedview
     pagecolor="#ffffff"
     bordercolor="#666666"
     borderopacity="1"
     objecttolerance="10"
     gridtolerance="10"
     guidetolerance="10"
     inkscape:pageopacity="0"
     inkscape:pageshadow="2"
     inkscape:window-width="1920"
     inkscape:window-height="1017"
     id="namedview64"
     showgrid="false"
     units="mm"
     inkscape:zoom="0.18592437"
     inkscape:cx="-175.70622"
     inkscape:cy="1146.0942"
     inkscape:window-x="-8"
     inkscape:window-y="-8"
     inkscape:window-maximized="1"
     inkscape:current-layer="svg62"
     inkscape:pagecheckerboard="true" />
  <g
     id="g894"
     transform="matrix(1.729811,0,0,1.729811,-253.0568,26.736252)">
    <path
       id="path2"
       d="m 480.18,236.68 c 10.83,-16 27.39,-27.94 45.84,-33.57 -2.76,2.61 -5.69,5.07 -8.06,8.05 10.04,-1.16 20.44,-0.11 29.73,4.01 0.98,8.65 2.03,17.3 2.96,25.96 0.6,-0.53 0.9,-1.19 0.92,-1.99 0.86,-8 1.81,-15.99 2.72,-23.99 9.32,-4.13 19.74,-5.17 29.81,-3.96 -2.41,-3 -5.4,-5.44 -8.15,-8.11 18.11,5.7 34.56,17.2 45.32,32.94 -3.23,-1.54 -6.22,-3.55 -9.6,-4.74 4.11,8.99 6.34,18.9 5.51,28.82 -7.64,4.72 -16.73,7.29 -24.49,11.97 8.78,-1.37 17.48,-3.37 26.2,-5.16 7.16,7.47 10.81,17.36 13.47,27.15 1.64,-2.99 3.14,-6.05 4.33,-9.25 1.27,18.63 -5.87,37.03 -16.43,52.14 0.18,-3.4 0.99,-6.72 1.35,-10.1 -2.81,1.73 -5.07,4.2 -7.87,5.94 -5.53,3.84 -11.8,6.53 -18.34,8.09 -6.26,-6.6 -12.19,-13.51 -18.56,-20.01 3.52,8.36 8.88,15.86 12.97,23.98 -5.22,8.81 -13.11,15.72 -21.94,20.77 3.47,0.62 6.97,1.06 10.45,1.64 -17.58,6.12 -36.93,5.68 -54.63,0.28 3.33,-1.01 6.81,-1.27 10.21,-1.89 -8.63,-5.34 -16.84,-12.01 -21.76,-21.08 4.32,-7.89 9.41,-15.44 12.97,-23.7 -6.33,6.49 -12.32,13.32 -18.47,19.98 -7.1,-1.52 -13.8,-4.68 -19.67,-8.91 -2.28,-1.6 -4.22,-3.65 -6.63,-5.04 0.39,3.45 1.06,6.85 1.63,10.28 -11.47,-15.2 -17.32,-34.17 -17.37,-53.14 1.71,3.34 3.21,6.78 4.99,10.1 2.56,-9.86 6.35,-19.64 13.37,-27.24 8.78,1.63 17.46,3.93 26.33,5.06 -7.89,-4.21 -16.24,-7.59 -24.37,-11.32 -1.3,-10.04 1.25,-20.21 5.37,-29.33 -3.58,1.36 -6.98,3.16 -10.11,5.37 m 32.68,36.5 c 4.84,14.9 9.75,29.77 14.47,44.7 15.79,0.17 31.6,0.24 47.39,-0.03 4.58,-14.97 9.62,-29.79 14.39,-44.69 -12.7,-9.23 -25.39,-18.47 -38.1,-27.68 -12.76,9.18 -25.45,18.44 -38.15,27.7 z"
       inkscape:connector-curvature="0"
       style="fill:#ffffff" />
    <path
       id="path4"
       d="m 523.18,1.34 c 2.35,-0.18 5.15,-0.95 7.29,0.25 0.99,2 1.15,4.26 1.59,6.41 6.57,35.68 13.33,71.34 19.85,107.02 0.75,2.55 -1.8,4 -3.95,4.12 -34.08,6.1 -65.18,26.82 -84.05,55.83 -1.97,2.72 -3.26,5.89 -5.43,8.47 -1.34,1.44 -3.27,0.58 -4.68,-0.23 -32.04,-18.64 -64.09,-37.27 -96.15,-55.89 -1.3,-0.8 -2.77,-1.68 -2.99,-3.35 0.75,-3.26 3.01,-5.87 4.59,-8.75 C 394.86,56.61 455.89,14.39 523.18,1.34 Z"
       inkscape:connector-curvature="0"
       style="fill:#931c80" />
    <path
       id="path6"
       d="m 579.68,28.82 c 65.29,-4.55 132.08,18.03 180.95,61.58 1.55,1.68 0.46,4.01 -0.92,5.37 -24.49,28.21 -48.91,56.48 -73.37,84.7 -1.41,2 -4.24,1.47 -5.67,-0.18 -27.92,-24.63 -66.94,-36.1 -103.73,-30.22 -2.06,0.63 -4.93,-0.03 -5.06,-2.58 -5.54,-37.11 -10.98,-74.24 -16.48,-111.36 -0.49,-1.78 -0.15,-4.08 1.86,-4.7 7.39,-1.41 14.92,-2.04 22.42,-2.61 z"
       inkscape:connector-curvature="0"
       style="fill:#e10b17" />
    <path
       id="path8"
       d="m 313.23,126.13 c 1.92,-1.14 3.92,0.24 5.66,1.06 32.49,17.5 65.06,34.88 97.55,52.4 3.03,1.12 2.09,4.54 0.69,6.61 -17.47,32.4 -19.83,72.47 -6.22,106.69 1.34,2.18 0.71,5.38 -2.07,5.96 -34.56,13.33 -69.13,26.63 -103.69,39.97 -1.93,0.91 -5.04,1.54 -5.91,-1.1 -14.55,-36.17 -19.85,-75.87 -16.28,-114.64 3.09,-33.02 12.85,-65.39 28.52,-94.61 0.43,-0.9 1.01,-1.68 1.75,-2.34 z"
       inkscape:connector-curvature="0"
       style="fill:#02509b" />
    <path
       id="path10"
       d="m 752.42,132.38 c 1.14,-0.69 2.85,-0.65 3.86,0.32 53.62,49.42 83.31,123.58 78.51,196.35 -0.51,2.17 -3.01,2.4 -4.85,2.2 -37.36,-1.85 -74.73,-3.54 -112.08,-5.48 -2.55,0.2 -3.37,-2.72 -3,-4.74 2.1,-37.24 -13.25,-74.97 -40.64,-100.26 -2.04,-1.4 -2.3,-4.25 -0.32,-5.83 16.52,-17.47 33.08,-34.89 49.61,-52.34 9.69,-10.03 19.01,-20.43 28.91,-30.22 z"
       inkscape:connector-curvature="0"
       style="fill:#ef8704" />
    <g
       id="g16"
       style="fill:#1e1e1c">
      <path
         id="path12"
         d="m 541.06,192.13 c 15.83,-1.53 32.08,0.62 46.72,6.97 18.83,7.99 34.87,22.36 44.94,40.15 9.6,16.79 13.72,36.61 11.73,55.83 -1.59,16.26 -7.6,32.06 -17.17,45.3 -11.57,16.14 -28.35,28.52 -47.28,34.59 -16.69,5.43 -34.9,6.05 -51.92,1.77 -17.22,-4.24 -33.1,-13.61 -45.26,-26.49 -14.01,-14.65 -23.08,-33.98 -25.24,-54.15 -2.47,-21.5 2.76,-43.84 14.71,-61.91 15.1,-23.36 41.05,-39.34 68.77,-42.06 m -60.88,44.55 c 3.13,-2.21 6.53,-4.01 10.11,-5.37 -4.12,9.12 -6.67,19.29 -5.37,29.33 8.13,3.73 16.48,7.11 24.37,11.32 -8.87,-1.13 -17.55,-3.43 -26.33,-5.06 -7.02,7.6 -10.81,17.38 -13.37,27.24 -1.78,-3.32 -3.28,-6.76 -4.99,-10.1 0.05,18.97 5.9,37.94 17.37,53.14 -0.57,-3.43 -1.24,-6.83 -1.63,-10.28 2.41,1.39 4.35,3.44 6.63,5.04 5.87,4.23 12.57,7.39 19.67,8.91 6.15,-6.66 12.14,-13.49 18.47,-19.98 -3.56,8.26 -8.65,15.81 -12.97,23.7 4.92,9.07 13.13,15.74 21.76,21.08 -3.4,0.62 -6.88,0.88 -10.21,1.89 17.7,5.4 37.05,5.84 54.63,-0.28 -3.48,-0.58 -6.98,-1.02 -10.45,-1.64 8.83,-5.05 16.72,-11.96 21.94,-20.77 -4.09,-8.12 -9.45,-15.62 -12.97,-23.98 6.37,6.5 12.3,13.41 18.56,20.01 6.54,-1.56 12.81,-4.25 18.34,-8.09 2.8,-1.74 5.06,-4.21 7.87,-5.94 -0.36,3.38 -1.17,6.7 -1.35,10.1 10.56,-15.11 17.7,-33.51 16.43,-52.14 -1.19,3.2 -2.69,6.26 -4.33,9.25 -2.66,-9.79 -6.31,-19.68 -13.47,-27.15 -8.72,1.79 -17.42,3.79 -26.2,5.16 7.76,-4.68 16.85,-7.25 24.49,-11.97 0.83,-9.92 -1.4,-19.83 -5.51,-28.82 3.38,1.19 6.37,3.2 9.6,4.74 -10.76,-15.74 -27.21,-27.24 -45.32,-32.94 2.75,2.67 5.74,5.11 8.15,8.11 -10.07,-1.21 -20.49,-0.17 -29.81,3.96 -0.91,8 -1.86,15.99 -2.72,23.99 -0.02,0.8 -0.32,1.46 -0.92,1.99 -0.93,-8.66 -1.98,-17.31 -2.96,-25.96 -9.29,-4.12 -19.69,-5.17 -29.73,-4.01 2.37,-2.98 5.3,-5.44 8.06,-8.05 -18.45,5.63 -35.01,17.57 -45.84,33.57 z"
         inkscape:connector-curvature="0" />
      <path
         id="path14"
         d="m 512.86,273.18 c 12.7,-9.26 25.39,-18.52 38.15,-27.7 12.71,9.21 25.4,18.45 38.1,27.68 -4.77,14.9 -9.81,29.72 -14.39,44.69 -15.79,0.27 -31.6,0.2 -47.39,0.03 -4.72,-14.93 -9.63,-29.8 -14.47,-44.7 z"
         inkscape:connector-curvature="0" />
    </g>
    <path
       id="path18"
       d="m 383.42,324.43 c 2.79,-1.09 4.21,2.12 5.04,4.17 14.65,33.83 44.77,60.4 80.06,70.98 2.4,0.31 4.06,2.65 2.94,4.98 -11.15,35.76 -22.23,71.56 -33.47,107.29 -0.38,2.37 -2.72,3.71 -4.94,2.7 -51.16,-15.45 -96.85,-48.14 -128.22,-91.37 -11.1,-15.3 -20.66,-31.79 -27.89,-49.26 -1.12,-2.35 1.11,-4.24 3.13,-4.88 34.47,-14.8 68.84,-29.9 103.35,-44.61 z"
       inkscape:connector-curvature="0"
       style="fill:#198ccd" />
    <path
       id="path20"
       d="m 680.29,339.42 c 1.33,-1.04 3.13,-0.51 4.68,-0.5 36.37,2.85 72.73,5.72 109.1,8.5 2.2,-0.04 5.29,0.67 4.93,3.54 -4.43,72.53 -43.18,141.92 -102.21,184.2 -1.92,1.51 -4.4,0.28 -5.43,-1.63 -21,-28.64 -42,-57.28 -62.99,-85.92 -1.38,-1.94 -2.99,-3.74 -4.02,-5.89 -0.85,-2.43 1.6,-3.81 3.2,-5.04 29.37,-21.56 48.66,-56.25 51.36,-92.6 0.23,-1.58 -0.02,-3.56 1.38,-4.66 z"
       inkscape:connector-curvature="0"
       style="fill:#fdea14" />
    <path
       id="path22"
       d="m 587.49,420.47 c 1.93,-1.61 4.6,-0.61 5.6,1.54 20.47,30.48 40.93,60.96 61.4,91.44 1.1,1.78 3.08,4.28 1.02,6.16 -59.68,41.79 -138.41,54.42 -208.36,34.39 -2.33,-0.37 -2.92,-3.1 -2.13,-5 9.43,-34.31 18.93,-68.59 28.37,-102.89 0.63,-2.27 1.13,-4.6 2.08,-6.76 1.42,-2.35 4.41,-1.07 6.51,-0.58 35.61,9.76 75.17,2.64 105.51,-18.3 z"
       inkscape:connector-curvature="0"
       style="fill:#009541" />
    <g
       id="g38">
      <path
         id="path24"
         d="m 577.38,607.58 c 3.91,-1.28 8.26,-1.15 12.17,0.08 7.52,2.59 12.96,10.39 12.23,18.41 -0.16,9.69 -9.1,18.11 -18.78,17.73 -8.55,0.41 -16.42,-6.4 -17.85,-14.72 -1.99,-8.91 3.53,-18.7 12.23,-21.5 z"
         inkscape:connector-curvature="0" />
      <path
         id="path26"
         d="m 278.43,751.9 c 0.24,-42.07 -0.13,-84.14 0.18,-126.2 10.92,0.08 21.84,0.1 32.76,-0.01 0.31,32.51 0.03,65.04 0.14,97.56 13.15,-0.03 26.3,0.04 39.45,-0.04 0.09,9.59 0.01,19.19 0.04,28.79 -24.19,-0.07 -48.39,0.14 -72.57,-0.1 z"
         inkscape:connector-curvature="0" />
      <path
         id="path28"
         d="m 482,625.75 c 10.93,0.04 21.86,-0.09 32.79,0.07 -0.08,32.47 -0.02,64.95 -0.03,97.42 13.2,-0.04 26.4,0.12 39.6,-0.08 0.33,9.6 0.05,19.23 0.14,28.84 H 482 Z"
         inkscape:connector-curvature="0" />
      <path
         id="path30"
         d="m 395.82,649.76 c 9,-1.68 18.78,-1.23 27,3.14 4.01,2.08 7.5,5 10.95,7.9 -0.03,-3.34 -0.03,-6.69 0,-10.03 10.15,-0.03 20.31,-0.04 30.46,0 0.04,33.74 0.01,67.48 0.02,101.23 -10.35,-0.03 -20.7,0.06 -31.04,-0.05 0.03,-3 0.07,-6.01 0.02,-9.01 -6.41,5.23 -13.84,9.49 -22.09,10.86 -13.53,2.26 -28.32,-1.07 -38.7,-10.29 -9.07,-7.99 -14.1,-19.76 -15.58,-31.58 -1.97,-13.51 0.24,-27.86 7.57,-39.51 6.87,-11.33 18.28,-20.09 31.39,-22.66 m 7.51,28.79 c -6.78,2.03 -12.26,7.58 -14.54,14.24 -2.75,8.01 -1.55,17.28 3.11,24.34 3.07,4.7 8.09,8.08 13.61,9.16 8.37,1.69 17.58,-1.27 23.26,-7.69 9.03,-9.97 7.8,-27.32 -2.56,-35.89 -6.24,-5.23 -15.2,-6.52 -22.88,-4.16 z"
         inkscape:connector-curvature="0" />
      <path
         id="path32"
         d="m 630.71,656.75 c 10.47,-7.93 24.76,-9.72 37.23,-6.15 6.77,1.94 12.4,6.41 17.29,11.33 0.03,-3.68 0.04,-7.36 -0.05,-11.03 9.72,-0.38 19.46,0.03 29.19,-0.22 0.31,24.78 0.04,49.57 0.13,74.35 -0.15,11.59 1.13,23.74 -3.72,34.64 -5.22,13.06 -17.49,22.25 -30.89,25.67 -15.78,3.98 -33.36,2.67 -47.63,-5.51 -10.19,-5.7 -17.74,-16.14 -19.07,-27.85 11.49,0.09 22.97,-0.1 34.46,0.1 2.32,4.2 6.42,7.52 11.33,7.94 7.78,0.9 17.05,-0.4 22.15,-6.98 3.6,-4.49 2.44,-10.51 2.63,-15.81 -9.47,7.97 -22.09,13.05 -34.59,11.1 -10.86,-1.24 -20.92,-7.26 -27.5,-15.93 -8.77,-11.37 -11.66,-26.45 -10.01,-40.51 1.57,-13.52 7.93,-26.93 19.05,-35.14 m 26.76,18.98 c -6.08,1.19 -11.21,5.6 -13.73,11.19 -5.06,10.82 -3.21,26.03 7.37,32.89 8.85,5.36 21.44,3.38 28.19,-4.5 7.54,-8.38 7.81,-21.85 1.7,-31.09 -4.97,-7.54 -15.01,-10.22 -23.53,-8.49 z"
         inkscape:connector-curvature="0" />
      <path
         id="path34"
         d="m 750.58,656.61 c 10,-6.84 22.79,-9.21 34.64,-6.88 7.6,1.58 14.19,6.07 19.77,11.31 0,-3.43 0.01,-6.86 0.01,-10.29 10.08,0.01 20.16,-0.03 30.24,0.02 0.02,33.74 0.01,67.49 0.01,101.23 h -30.74 c -0.02,-3.26 -0.1,-6.51 0.13,-9.75 -16.99,17.23 -48.05,15.93 -64.21,-1.77 -10.17,-11.15 -13.7,-26.87 -13.07,-41.6 0.82,-16.6 9.24,-33 23.22,-42.27 m 23.73,21.99 c -6.82,2.1 -12.32,7.67 -14.48,14.45 -3.81,11.35 0.4,25.9 11.52,31.49 10.06,4.9 23.22,1.42 29.84,-7.52 7.47,-9.99 6.05,-25.62 -3.41,-33.86 -6.22,-5.7 -15.58,-7.04 -23.47,-4.56 z"
         inkscape:connector-curvature="0" />
      <path
         id="path36"
         d="m 567.76,650.78 c 10.2,-0.11 20.41,0.07 30.61,-0.1 0.37,33.72 -0.09,67.46 0.23,101.18 -10.28,0.32 -20.57,0.05 -30.85,0.14 0.01,-33.74 -0.02,-67.48 0.01,-101.22 z"
         inkscape:connector-curvature="0" />
    </g>
  </g>
</svg>
