<?xml version="1.0" encoding="utf-8"?>
<!-- Generator: Adobe Illustrator 21.1.0, SVG Export Plug-In . SVG Version: 6.00 Build 0)  -->
<svg version="1.1" id="Livello_1" xmlns="http://www.w3.org/2000/svg" xmlns:xlink="http://www.w3.org/1999/xlink" x="0px" y="0px"
	 viewBox="0 0 284 103.1" style="enable-background:new 0 0 284 103.1;" xml:space="preserve">
<style type="text/css">
	.st0{fill:#FF003B;}
</style>
<g>
	<path class="st0" d="M24.8,90.1l29.5-21.3l17.8,12.9l-29.5,21.4L24.8,90.1z"/>
	<path class="st0" d="M6.9,34.3l29.4,21.5l-6.8,20.9L0,55.2L6.9,34.3z"/>
	<path class="st0" d="M54.4,0L43.1,34.7l-22,0.1L32.4,0H54.4z"/>
	<path class="st0" d="M58.9,13.8l36.4-0.1l6.9,20.9l-36.5,0.1L58.9,13.8z"/>
	<path class="st0" d="M90.5,42.8l10.9,34.8l-18,12.8L72.5,55.5L90.5,42.8z"/>
</g>
<g>
	<path class="st0" d="M140.9,64.4c0,2.6,1.2,3.3,4.3,3.3h2.1c3.7,0,5.4-2.3,8.9-8.7h1.7l-1.7,10.6h-26.3V68c3.4-0.4,3.9-0.7,3.9-3.4
		V40.5c0-2.7-0.5-3-3.9-3.4v-1.7h15v1.7c-3.4,0.4-3.9,0.7-3.9,3.4V64.4z"/>
	<path class="st0" d="M181.1,64.3c0,1.7,0.3,2.7,1.6,2.7c0.7,0,1.4-0.2,2-0.5l0.3,1.1c-1.4,1.7-3.3,2.6-5.6,2.6
		c-2.6,0-4.4-1.6-4.9-4.3c-1.6,2.1-4.1,4.2-7.6,4.2c-4,0-6.6-2.4-6.6-6.3c0-4.2,3-5.9,6.7-7.3l7.4-2.7v-4.2c0-2.8-0.9-4.8-3.5-4.8
		c-2.3,0-3.3,1.8-3.3,4.1c0,1,0.1,2,0.4,3l-4.1,0.5c-1.3-0.4-2.2-1.5-2.2-3.1c0-4.1,4.2-6.2,9.6-6.2c6.3,0,9.7,2.3,9.7,8V64.3z
		 M174.4,64.7v-9.1l-4.2,1.7c-2.1,0.8-3.3,1.9-3.3,4.6c0,2.5,1.2,4.3,3.8,4.3C172.1,66.3,173,65.7,174.4,64.7z"/>
	<path class="st0" d="M186.3,53.2c0-11.2,7.1-18.3,16.5-18.3c10.3,0,15.9,8,15.9,17c0,11.2-7.1,18.3-16.5,18.3
		C191.8,70.2,186.3,62.2,186.3,53.2z M211,52.8c0-8.2-2.6-15.9-8.7-15.9c-5.7,0-8.3,7.4-8.3,15.3c0,8.2,2.6,15.9,8.7,15.9
		C208.4,68.2,211,60.7,211,52.8z"/>
	<path class="st0" d="M230.7,43.8h6.4V46h-6.4v16.2c0,3,1.1,4.3,3.4,4.3c1.4,0,2.4-0.4,3.7-1.4l0.6,0.9c-1.6,2.4-4,4.2-7.5,4.2
		c-4,0-6.9-2.1-6.9-7.6V46h-3v-1.1c3.4-1.5,6.3-4.3,8.4-7.5h1.5V43.8z"/>
	<path class="st0" d="M249.2,65.5c0,2,1.1,2.3,4.2,2.5v1.6h-14v-1.6c2.3-0.1,3.1-0.4,3.1-2.1V48.6l-2.9-1.7V46l8.7-2.7h1.1l-0.2,7.2
		c2.3-5.3,3.8-7.2,6.7-7.2c1,0,1.8,0.3,2.1,0.8v5.3h-0.9c-3,0-5.4,0.1-7.9,2.6V65.5z"/>
	<path class="st0" d="M280.2,64.3c0,1.7,0.3,2.7,1.6,2.7c0.7,0,1.4-0.2,2-0.5l0.3,1.1c-1.4,1.7-3.3,2.6-5.6,2.6
		c-2.6,0-4.4-1.6-4.9-4.3c-1.6,2.1-4.1,4.2-7.6,4.2c-4,0-6.6-2.4-6.6-6.3c0-4.2,3-5.9,6.7-7.3l7.4-2.7v-4.2c0-2.8-0.9-4.8-3.5-4.8
		c-2.3,0-3.3,1.8-3.3,4.1c0,1,0.1,2,0.4,3l-4.1,0.5c-1.3-0.4-2.2-1.5-2.2-3.1c0-4.1,4.2-6.2,9.6-6.2c6.3,0,9.7,2.3,9.7,8V64.3z
		 M273.4,64.7v-9.1l-4.2,1.7c-2.1,0.8-3.3,1.9-3.3,4.6c0,2.5,1.2,4.3,3.8,4.3C271.1,66.3,272,65.7,273.4,64.7z"/>
</g>
</svg>
