<?xml version="1.0" encoding="UTF-8" standalone="no"?>
<!-- Generator: Adobe Illustrator 18.1.0, SVG Export Plug-In . SVG Version: 6.00 Build 0)  -->

<svg
   xmlns:dc="http://purl.org/dc/elements/1.1/"
   xmlns:cc="http://creativecommons.org/ns#"
   xmlns:rdf="http://www.w3.org/1999/02/22-rdf-syntax-ns#"
   xmlns:svg="http://www.w3.org/2000/svg"
   xmlns="http://www.w3.org/2000/svg"
   xmlns:sodipodi="http://sodipodi.sourceforge.net/DTD/sodipodi-0.dtd"
   xmlns:inkscape="http://www.inkscape.org/namespaces/inkscape"
   version="1.1"
   id="Layer_1"
   x="0px"
   y="0px"
   viewBox="0 0 724.60302 471.72299"
   enable-background="new 0 0 725 472"
   xml:space="preserve"
   inkscape:version="0.91 r13725"
   sodipodi:docname="Disney XD.svg"
   width="724.60303"
   height="471.72299"><metadata
     id="metadata25"><rdf:RDF><cc:Work
         rdf:about=""><dc:format>image/svg+xml</dc:format><dc:type
           rdf:resource="http://purl.org/dc/dcmitype/StillImage" /><dc:title></dc:title></cc:Work></rdf:RDF></metadata><defs
     id="defs23" /><sodipodi:namedview
     pagecolor="#ffffff"
     bordercolor="#666666"
     borderopacity="1"
     objecttolerance="10"
     gridtolerance="10"
     guidetolerance="10"
     inkscape:pageopacity="0"
     inkscape:pageshadow="2"
     inkscape:window-width="1680"
     inkscape:window-height="931"
     id="namedview21"
     showgrid="false"
     inkscape:zoom="0.42758621"
     inkscape:cx="23.387099"
     inkscape:cy="236"
     inkscape:window-x="0"
     inkscape:window-y="1"
     inkscape:window-maximized="1"
     inkscape:current-layer="Layer_1" /><path
     d="m 24.002608,0.02302418 c -10.2,0.3 -18.5000004,1.60000012 -20.3000004,3.60000012 -1.6,1.8 -3.69999999,3.3 -3.69999999,5.7 -0.1,2.3999997 2.69999999,2.5999997 4.29999999,2.4999997 1.6,0 3.1,-0.1 3.1,-1.1 0,-1.2999997 -2.2,-1.0999997 -2.2,-2.4999997 0,-1.6 8.4000004,-1.9 12.6000004,-1.9 36.1,-0.1 77.7,25.2999997 77.7,46.9999997 0.1,16.7 -21.3,20.5 -33.1,20.5 -4.2,0 -8.3,-0.4 -12.2,-1.2 -0.2,-5.3 -0.5,-16.5 -0.6,-23.6 1.4,0 2.6,-0.1 3.7,-0.1 8.8,0 20.3,3.1 20.3,5.2 0,1.8 -3.1,3 -3.1,4.7 0,1.3 2.8,1 5.3,1.2 0.4,0.1 5.4,-2.8 5.4,-7.2 0,-5.9 -7.2,-12.8 -30.7,-12.7 l -1,0 c -0.2,-6.6 -1.2,-17 -4.9,-17 -3,0 -3.9,11.5 -4.2,17.8 -13.2,2.1 -24.9,7.5 -24.9,12.9 0,4.4 9.4,15.5 24.7,22.2 0.3,5 1.2,8.4 5.6,8.4 3.2,0 4.2,-2.4 4.5,-4.8 4.9,1.3 10.3,2 16,2 22.1,-0.1 39.900002,-12.1 39.800002,-28.6 -0.1,-22.2 -44.000002,-53.99999974 -82.100002,-52.99999982 m -6,55.09999982 c 0,-3.8 11.5,-5.3 22.1,-5.9 0,6.1 -0.1,14.8 -0.1,20.6 -13.1,-4.7 -22,-12.2 -22,-14.7"
     id="path3"
     inkscape:connector-curvature="0"
     style="fill:#08ee59" /><path
     d="m 114.00261,40.623024 c -3.7,0 -3.8,15.4 -4,21 -0.3,12.8 1.6,14.3 5,14.3 3,0 4,-0.4 3.8,-11.1 -0.6,-20.3 -1.9,-24.2 -4.8,-24.2"
     id="path5"
     inkscape:connector-curvature="0"
     style="fill:#08ee59" /><path
     d="m 115.90261,35.523024 c 8.3,0 21.5,-9.6 21.4,-17.6 0,-3.6 -1.8,-5.4 -6.3,-6.1 -1.9,-1.8999997 -4.7,-3.9999997 -8.9,-3.8999997 -12.9,0 -21.3,10.4999997 -21.3,16.1999997 0,2.1 0.7,4.7 2.5,6.8 0.1,4.6 1.2,5.7 2.6,5.7 1.6,0 2.6,-1 3.2,-2.1 2,0.7 4.2,1.1 6.8,1 m 0.9,-6.4 c -1.9,0 -3.5,-0.3 -4.9,-0.7 3.7,-4.2 12.5,-12.2 16.9,-12.2 2.8,0 3.3,2.3 3.3,3.2 0,5.3 -10.7,9.7 -15.3,9.7 m 0.6,-14.1 c -3.9,2.4 -8,5.7 -10.7,9 -0.1,-0.4 -0.2,-0.9 -0.2,-1.3 -0.1,-2.6 3.6,-6.5 10.9,-7.7"
     id="path7"
     inkscape:connector-curvature="0"
     style="fill:#08ee59" /><path
     d="m 158.80261,43.423024 c 0,-3.5 -9,-3.5 -14,-3.5 -3.8,0 -23,0.5 -23,11.4 0,7.4 10.8,5.6 17.9,6.3 5.8,0.6 12.8,2.5 12.9,4.5 0,4.3 -15.4,6.1 -18.5,6.1 -6.5,0 -6.7,-1.9 -6.7,-2.9 0,-1 1.1,-2.6 3.5,-2.6 2.4,0 7.5,3.2 10.9,3.2 3.4,0 6.3,-1.6 6.3,-3.2 0,-2.9 -11.5,-4.3 -15.1,-4.3 -3.7,0 -9.1,1.6 -9.1,7.3 0,3 4.8,10 18.1,9.9 13.2,-0.1 16.5,-7.7 16.5,-11.6 0,-9.5 -8.9,-10.6 -16.7,-11.3 -5.8,-0.5 -12.1,-0.8 -12,-2.1 0.3,-4.5 29,-1.3 29,-7.2"
     id="path9"
     inkscape:connector-curvature="0"
     style="fill:#08ee59" /><path
     d="m 180.70261,35.323024 c -1.1,0 -1.3,1.2 -1.3,2.4 0,3.8 5.1,16.7 5.1,21.7 0,1 -0.1,2.9 -0.9,3.1 -1.2,0.4 -11.8,-19.4 -16.2,-19.7 -4.5,-0.4 -7,19.3 -6.9,24.2 0,4.8 0.9,8.1 4.4,8.1 5.2,0 2.5,-19.7 4.6,-19.7 1.6,0 10.1,18 14.9,18 5.1,0 8.2,-7.7 8.2,-12.7 -0.1,-11.4 -7.5,-25.4 -11.9,-25.4"
     id="path11"
     inkscape:connector-curvature="0"
     style="fill:#08ee59" /><path
     d="m 216.30261,65.723024 c -1.8,0 -12.1,2.3 -12.8,1.7 -0.7,-0.6 0.6,-6.7 1.9,-7.1 1.3,-0.4 9.3,-0.3 10.6,-0.4 3.7,-0.2 3,-5.3 0.7,-5.5 -1.2,-0.1 -8.4,-0.1 -8.8,-0.8 -0.4,-0.7 0.1,-4.1 0.9,-4.4 1.7,-0.7 12.7,-1 13.5,-1.2 1.4,-0.4 2.4,-1.1 2.7,-2.3 0.3,-1.2 -3.8,-6.1 -9,-5.5 -8.8,1 -20.3,0.9 -20.3,3.9 0,2.8 5.4,3.9 5.5,4.6 0.1,0.7 -0.7,3.6 -1,4.5 -0.3,1 -4.2,1.3 -4.4,3.9 -0.1,0.6 1,1.6 0.8,2.4 -0.6,2.3 -2.5,6.9 -2.4,8.9 0,3 2.2,9.7 8.2,9.4 9.5,-0.3 18,-7 18.1,-8.2 0.2,-1.8 -2.4,-3.9 -4.2,-3.9"
     id="path13"
     inkscape:connector-curvature="0"
     style="fill:#08ee59" /><path
     d="m 253.10261,42.923024 c -5.2,0.3 -15.1,11.5 -20.9,19 -0.4,-0.8 -0.6,-1.5 -0.6,-2.2 0,-3.2 5.9,-12.7 7,-15.1 1.1,-2.5 -0.1,-5.8 -1.6,-4.6 -2.8,2.3 -11.6,12.8 -11.6,22.6 0,2.2 0.6,5 1.8,7.5 -2,6.5 -6.8,21.1 -6.7,29.999996 0.1,4.60001 4.6,9.00001 7.4,8.50001 1,-0.2 1.2,-6.2 2.6,-10.300006 1.9,-5.8 5,-16.5 6,-21.1 0.5,0.1 1,0.1 1.5,0.1 10.8,0 22.8,-11.8 22.8,-21.9 0,-10.3 -5.9,-12.7 -7.7,-12.5 m -12.5,24.9 c 4.4,-7.7 10.7,-17.8 13,-17.8 1.6,0 2.3,1.7 2.3,4.2 0,7.5 -8.9,13.7 -15.3,13.6"
     id="path15"
     inkscape:connector-curvature="0"
     style="fill:#08ee59" /><path
     d="m 377.80261,465.52303 0,-102.6 c 0,-1.3 -0.3,-2.6 -0.8,-3.9 -0.5,-1.3 -1.4,-2.6 -2.4,-3.5 l -63.6,-64.8 c -2.2,-2.3 -2.2,-5.9 0,-8.1 l 63.6,-64.8 c 1,-1 1.8,-2.1 2.4,-3.5 0.5,-1.3 0.8,-2.6 0.8,-3.9 l 0,-102.7 c 0,-1.5 -0.5,-2.9 -1.6,-4.1 -1.1,-1.1 -2.6,-1.6 -4,-1.6 l -96.9,0 c -1.3,0 -2.6,0.2 -3.8,0.8 -1.4,0.5 -2.5,1.4 -3.5,2.3 l -67.5,68.8 c -2.2,2.2 -5.7,2.2 -8,0 l -67.5,-68.8 c -0.9,-1 -2.1,-1.8 -3.4,-2.3 -1.3,-0.6 -2.6,-0.8 -3.9,-0.8 l -96.800002,0 c -1.4,0 -2.9,0.5 -4,1.6 -1.1,1.1 -1.6,2.6 -1.6,4 l 0,102.7 c 0,1.3 0.3,2.7 0.8,3.9 0.6,1.4 1.4,2.5 2.3,3.5 l 63.6,64.8 c 2.2,2.2 2.2,5.9 0,8.1 l -63.6,64.8 c -0.9,1 -1.8,2.2 -2.3,3.5 -0.5,1.3 -0.8,2.6 -0.8,3.9 l 0,102.7 c 0,1.4 0.5,2.9 1.6,4 1.1,1.1 2.6,1.7 4,1.7 l 100.700002,0 c 1.3,0 2.6,-0.3 3.9,-0.8 1.3,-0.5 2.5,-1.4 3.5,-2.4 l 63.6,-64.8 c 2.2,-2.3 5.8,-2.3 8,0 l 63.6,64.8 c 0.9,1 2.1,1.8 3.5,2.4 1.3,0.5 2.6,0.8 3.9,0.8 l 100.8,0 c 1.4,0 2.9,-0.6 4,-1.7 0.9,-1 1.4,-2.5 1.4,-4"
     id="path17"
     inkscape:connector-curvature="0"
     style="fill:#08ee59" /><path
     d="m 644.90261,471.22303 c 1.3,0 2.6,-0.3 3.8,-0.8 1.4,-0.5 2.5,-1.4 3.4,-2.4 l 69.5,-70.8 c 0.9,-0.9 1.6,-2.1 2.2,-3.4 0.5,-1.3 0.8,-2.7 0.8,-4.1 l 0,-206.3 c 0,-1.4 -0.3,-2.8 -0.8,-4.1 -0.5,-1.3 -1.3,-2.4 -2.2,-3.4 l -69.5,-70.8 c -0.9,-1 -2.1,-1.8 -3.4,-2.3 -1.3,-0.6 -2.6,-0.8 -3.8,-0.8 l -243.5,0 c -1.4,0 -2.9,0.5 -4,1.6 -1.1,1.1 -1.7,2.6 -1.7,4 l 0,357.9 c 0,1.4 0.6,2.9 1.7,4 1.1,1.1 2.5,1.7 4,1.7 l 243.5,0 0,0 z"
     id="path19"
     inkscape:connector-curvature="0"
     style="fill:#08ee59" /></svg>