<?xml version="1.0" encoding="utf-8"?>
<!-- Generator: Adobe Illustrator 21.0.0, SVG Export Plug-In . SVG Version: 6.00 Build 0)  -->
<svg version="1.1" id="Capa_1" xmlns="http://www.w3.org/2000/svg" xmlns:xlink="http://www.w3.org/1999/xlink" x="0px" y="0px"
	 viewBox="0 0 245 69" style="enable-background:new 0 0 245 69;" xml:space="preserve">
<style type="text/css">
	.st0{fill:#F95741;}
</style>
<g>
	<path class="st0" d="M38.3,27.6c-1.5-2.1-3.4-3.8-5.7-5.1c-2.3-1.3-4.9-1.9-8-1.9c-3.1,0-5.8,0.6-8,1.9c-2.2,1.3-4.2,3.1-5.5,5.3
		V6.3H0v61h11.1v-6c1.3,2.3,3.3,4.1,5.5,5.3c2.2,1.3,4.9,1.9,7.9,1.9c3,0,5.7-0.6,8-1.9c2.3-1.3,4.2-3,5.7-5.1
		c1.5-2.2,2.6-4.7,3.3-7.6c0.7-2.9,1.1-6,1.1-9.4c0-3.3-0.4-6.4-1.1-9.4C40.9,32.3,39.8,29.8,38.3,27.6z M30.7,51.1
		c0,2.7-0.7,4.8-2.4,6.4c-1.7,1.6-3.9,2.4-6.9,2.4c-3.6,0-6.2-1.1-7.9-3.2c-1.6-2.2-2.5-5-2.5-8.6v-6.8c0-3.6,0.9-6.5,2.5-8.6
		c1.6-2.2,4.3-3.2,7.9-3.2c3,0,5.2,0.8,6.8,2.4c1.7,1.6,2.4,3.7,2.4,6.4V51.1z"/>
	<path class="st0" d="M81.6,26.9c-1.8-1.9-4-3.5-6.5-4.6c-2.5-1.1-5.3-1.7-8.5-1.7c-3.1,0-5.9,0.6-8.5,1.7c-2.5,1.1-4.7,2.8-6.5,4.8
		c-1.8,2.1-3.2,4.6-4.2,7.5c-1,2.9-1.5,6.2-1.5,9.8c0,3.6,0.5,6.9,1.4,9.8c0.9,3,2.3,5.5,4.1,7.6c1.8,2.1,3.9,3.7,6.5,4.9
		c2.6,1.2,5.5,1.8,8.7,1.8c5.6,0,10.2-1.6,13.7-4.4c3.6-2.8,5.7-6.7,6.4-12H75.6c-0.3,2.7-1.2,4.3-2.8,5.6c-1.6,1.3-3.6,2-6,2
		c-2.5,0-4.7-0.7-6.5-2.2c-1.8-1.5-2.8-3.6-2.8-6.4v-3h29.4v-5.7c0-3.1-0.3-6-1.3-8.7C84.6,31.1,83.4,28.8,81.6,26.9z M75.7,39.3
		H57.5v-1.4c0-2.5,1-4.6,2.7-6.2c1.7-1.6,3.9-2.4,6.5-2.4c2.6,0,4.8,0.8,6.5,2.4c1.7,1.6,2.6,3.6,2.6,6.2V39.3z"/>
	<polygon class="st0" points="108.2,6.3 97.1,6.3 97.1,21.5 88.2,21.5 88.2,30.4 97.1,30.4 97.1,67.4 119.4,67.4 119.4,58.5 
		108.2,58.5 108.2,30.4 119.4,30.4 119.4,21.5 108.2,21.5 	"/>
	<path class="st0" d="M156.4,26.9c-1.8-1.9-4-3.5-6.5-4.6c-2.5-1.1-5.3-1.7-8.5-1.7c-3.1,0-5.9,0.6-8.5,1.7
		c-2.5,1.1-4.7,2.8-6.5,4.8c-1.8,2.1-3.2,4.6-4.2,7.5c-1,2.9-1.5,6.2-1.5,9.8c0,3.6,0.5,6.9,1.4,9.8c0.9,3,2.3,5.5,4.1,7.6
		c1.8,2.1,3.9,3.7,6.5,4.9c2.6,1.2,5.5,1.8,8.7,1.8c5.6,0,10.2-1.6,13.7-4.4c3.6-2.8,5.7-6.7,6.4-12h-11.2c-0.3,2.7-1.2,4.3-2.8,5.6
		c-1.6,1.3-3.6,2-6,2c-2.5,0-4.5-0.7-6.3-2.2c-1.8-1.5-2.6-3.6-2.6-6.4v-3h29.4v-5.7c0-3.1-0.6-6-1.5-8.7
		C159.7,31.1,158.2,28.8,156.4,26.9z M150.6,39.3h-17.8v-1.4c0-2.5,0.7-4.6,2.4-6.2c1.7-1.6,3.8-2.4,6.4-2.4c2.6,0,4.8,0.8,6.5,2.4
		c1.7,1.6,2.6,3.6,2.6,6.2V39.3z"/>
	<polygon class="st0" points="193.3,21.5 183,54.9 182.7,54.9 172.6,21.5 160.8,21.5 176.7,67.4 189.1,67.4 205.2,21.5 	"/>
	<path class="st0" d="M245,48.2v-5.7c0-3.1-0.5-6-1.5-8.7c-1-2.7-2.4-5-4.2-6.9c-1.8-1.9-4-3.5-6.5-4.6c-2.5-1.1-5.4-1.7-8.5-1.7
		c-3.1,0-5.9,0.6-8.5,1.7c-2.5,1.1-4.7,2.8-6.5,4.8c-1.8,2.1-3.2,4.6-4.2,7.5c-1,2.9-1.5,6.2-1.5,9.8c0,3.6,0.5,6.9,1.4,9.8
		c0.9,3,2.3,5.5,4.1,7.6c1.8,2.1,3.9,3.7,6.5,4.9c2.6,1.2,5.5,1.8,8.7,1.8c5.6,0,10.2-1.6,13.7-4.4c3.6-2.8,5.7-6.7,6.4-12h-11.2
		c-0.3,2.7-1.2,4.3-2.8,5.6c-1.6,1.3-3.6,2-6,2c-2.5,0-4.5-0.7-6.3-2.2c-1.8-1.5-2.6-3.6-2.6-6.4v-3H245z M215.6,37.9
		c0-2.5,0.8-4.6,2.5-6.2c1.7-1.6,3.8-2.4,6.4-2.4c2.6,0,4.8,0.8,6.5,2.4c1.7,1.6,2.5,3.6,2.5,6.2v1.4h-17.8V37.9z"/>
	<rect x="213.8" y="5.6" transform="matrix(0.939 -0.344 0.344 0.939 10.3125 78.0254)" class="st0" width="22.6" height="8.7"/>
</g>
</svg>
