<?xml version="1.0" encoding="UTF-8" standalone="no"?>
<svg
   xmlns:dc="http://purl.org/dc/elements/1.1/"
   xmlns:cc="http://creativecommons.org/ns#"
   xmlns:rdf="http://www.w3.org/1999/02/22-rdf-syntax-ns#"
   xmlns:svg="http://www.w3.org/2000/svg"
   xmlns="http://www.w3.org/2000/svg"
   version="1.1"
   id="Capa_1"
   x="0px"
   y="0px"
   width="190"
   height="56.153904"
   viewBox="9.46 0 190 56.153904"
   enable-background="new 9.46 0 180.49 55"
   xml:space="preserve"><metadata
   id="metadata9"><rdf:RDF><cc:Work
       rdf:about=""><dc:format>image/svg+xml</dc:format><dc:type
         rdf:resource="http://purl.org/dc/dcmitype/StillImage" /><dc:title></dc:title></cc:Work></rdf:RDF></metadata><defs
   id="defs7" />
<path
   d="m 175.40569,1.0007111 h -14.4669 L 151.2735,23.704511 h -26.05377 v 10.557058 h 10.26084 v 6.321517 c -2.15577,1.41133 -4.83265,2.154217 -8.3253,2.154217 -8.2524,0 -14.12415,-6.020641 -14.12415,-14.423482 v -0.148887 c 0,-7.954628 5.7973,-14.273043 13.30682,-14.273043 5.12887,0 8.84795,1.783549 12.56239,4.908636 l 8.47418,-10.1848379 c -5.49953,-4.758198 -11.96994,-7.614978 -21.11412,-7.614978 -0.0171,0 -0.0326,-0.0016 -0.0496,0 v 0 H 58.963221 L 42.700358,22.640585 26.670132,1.0007111 H 10.46 V 55.153904 H 25.165747 V 27.200267 L 42.7717,51.113778 60.213257,27.200267 v 27.953637 h 0.06514 v 0 h 43.999373 v -9.707158 c 5.09164,6.064066 13.01835,9.707158 22.2804,9.707158 0.24349,0 27.10839,0 27.10839,0 l 3.86642,-9.601696 h 20.88924 l 3.94552,9.601696 H 198.46 Z M 76.589336,42.389898 v -8.58895 H 95.035883 V 21.965939 H 76.589336 v -8.201222 h 25.129424 0.53972 c -2.572963,4.136281 -4.021514,9.03251 -4.021514,14.327324 v 0.148887 c 0,5.327383 1.384964,10.125905 3.844714,14.14897 z m 85.354444,-8.436961 6.11059,-15.284237 6.03615,15.284237 z"
   id="path2"
   style="fill:#bc0014;stroke-width:1.55091202" />
</svg>