<?xml version="1.0" encoding="UTF-8" ?>
<!DOCTYPE svg PUBLIC "-//W3C//DTD SVG 1.1//EN" "http://www.w3.org/Graphics/SVG/1.1/DTD/svg11.dtd">
<svg width="140pt" height="100pt" viewBox="0 0 140 100" version="1.1" xmlns="http://www.w3.org/2000/svg">
<g id="#004f7cff">
<path fill="#004f7c" opacity="1.00" d=" M 70.41 2.67 C 74.20 0.94 78.97 1.03 82.31 3.68 C 86.97 7.29 88.75 13.24 90.22 18.70 C 92.64 29.31 92.92 40.57 90.41 51.19 C 89.66 54.96 84.39 57.85 81.53 54.44 C 78.94 50.46 80.90 45.44 80.94 41.05 C 81.02 36.72 82.24 31.52 79.21 27.91 C 76.32 25.16 72.40 27.90 70.63 30.55 C 64.93 38.66 63.74 48.84 59.73 57.73 C 54.70 68.38 37.72 69.55 31.00 59.98 C 26.65 53.80 23.51 46.86 19.38 40.54 C 18.38 39.19 16.95 37.36 15.03 37.85 C 12.60 38.16 11.97 40.95 12.05 42.99 C 12.26 50.23 16.06 56.77 16.85 63.91 C 17.25 66.64 14.89 69.47 12.03 68.93 C 8.74 68.71 7.28 65.29 6.19 62.66 C 2.32 52.35 -0.16 41.10 1.83 30.10 C 2.95 23.81 4.81 17.12 9.68 12.65 C 14.03 8.60 21.46 7.99 26.05 11.99 C 32.42 17.21 35.24 25.34 40.68 31.34 C 44.01 35.18 50.89 35.12 53.47 30.46 C 57.00 23.75 58.96 16.29 62.69 9.67 C 64.50 6.66 67.17 4.10 70.41 2.67 Z" />
<path fill="#004f7c" opacity="1.00" d=" M 113.92 1.56 C 116.86 1.47 119.81 1.48 122.75 1.60 C 122.75 7.01 122.74 12.41 122.76 17.82 C 122.76 20.79 122.75 23.76 122.73 26.72 C 119.78 26.75 116.83 26.76 113.89 26.76 C 108.51 26.74 103.13 26.77 97.75 26.73 C 97.59 23.77 97.59 20.81 97.68 17.85 C 103.08 17.77 108.47 17.84 113.87 17.80 C 113.90 12.39 113.84 6.98 113.92 1.56 Z" />
<path fill="#004f7c" opacity="1.00" d=" M 96.15 76.20 C 97.46 76.20 98.77 76.20 100.08 76.20 C 100.10 77.42 100.12 78.65 100.14 79.87 C 101.40 79.88 102.67 79.89 103.93 79.90 C 103.93 80.71 103.93 82.34 103.94 83.16 C 102.67 83.17 101.40 83.19 100.13 83.20 C 100.17 86.41 99.92 89.63 100.28 92.82 C 100.45 94.77 102.77 94.69 104.16 95.14 C 104.16 95.96 104.16 97.60 104.16 98.42 C 101.22 98.36 97.22 97.94 96.49 94.42 C 95.68 88.40 96.31 82.27 96.15 76.20 Z" />
<path fill="#004f7c" opacity="1.00" d=" M 3.70 82.89 C 6.24 78.30 12.79 79.05 16.89 80.88 C 20.99 79.00 27.70 78.32 30.05 83.08 C 30.99 88.08 30.29 93.23 30.49 98.29 C 29.50 98.29 27.52 98.29 26.53 98.30 C 26.43 94.19 26.63 90.08 26.43 85.98 C 26.63 82.34 21.16 82.20 19.25 84.25 C 18.38 88.86 18.99 93.61 18.81 98.28 C 17.49 98.29 16.16 98.30 14.84 98.31 C 14.64 93.71 15.18 89.05 14.52 84.48 C 12.86 82.09 7.03 82.30 7.24 85.95 C 6.98 90.06 7.18 94.19 7.11 98.31 C 5.80 98.30 4.50 98.29 3.19 98.29 C 3.46 93.17 2.58 87.91 3.70 82.89 Z" />
<path fill="#004f7c" opacity="1.00" d=" M 37.31 80.39 C 40.29 79.18 43.79 79.20 46.82 80.26 C 50.23 81.64 50.64 85.82 50.61 89.02 C 50.58 92.02 50.42 95.79 47.55 97.54 C 44.64 99.04 41.06 98.96 37.98 98.07 C 34.59 97.02 33.78 93.09 33.81 89.99 C 33.76 86.61 33.77 82.11 37.31 80.39 M 39.35 83.53 C 37.02 85.94 37.80 89.91 38.20 92.93 C 38.78 95.48 41.95 95.34 43.97 95.02 C 46.71 94.57 46.51 91.16 46.61 89.05 C 46.45 87.10 46.76 84.34 44.65 83.33 C 42.94 82.86 40.98 82.76 39.35 83.53 Z" />
<path fill="#004f7c" opacity="1.00" d=" M 52.58 79.90 C 53.97 79.89 55.35 79.89 56.74 79.89 C 57.19 84.89 58.60 89.73 60.65 94.30 C 63.21 89.92 64.26 84.87 64.84 79.89 C 66.22 79.89 67.59 79.89 68.97 79.90 C 68.51 86.44 65.95 92.57 62.92 98.30 C 61.50 98.30 60.08 98.31 58.66 98.32 C 55.50 92.63 52.97 86.47 52.58 79.90 Z" />
<path fill="#004f7c" opacity="1.00" d=" M 72.07 79.89 C 73.38 79.89 74.69 79.89 76.00 79.89 C 76.00 86.03 76.01 92.16 75.99 98.30 C 74.68 98.30 73.37 98.30 72.07 98.29 C 72.06 92.16 72.05 86.02 72.07 79.89 Z" />
<path fill="#004f7c" opacity="1.00" d=" M 82.31 80.39 C 85.34 78.95 88.78 79.68 91.98 80.02 C 91.98 80.84 92.00 82.49 92.01 83.31 C 89.21 83.25 85.80 81.88 83.45 83.99 C 83.54 87.11 87.75 86.82 89.79 88.25 C 93.57 89.34 94.27 94.86 91.24 97.12 C 87.96 99.41 83.71 98.63 80.05 97.91 C 80.03 97.06 80.00 95.36 79.98 94.51 C 82.97 94.82 88.02 96.89 89.46 93.09 C 87.53 89.89 82.66 90.63 80.45 87.65 C 78.89 85.30 79.69 81.62 82.31 80.39 Z" />
<path fill="#004f7c" opacity="1.00" d=" M 108.53 79.96 C 112.29 79.62 116.62 78.77 119.94 81.11 C 122.62 83.21 121.97 86.99 122.10 89.98 C 121.96 92.39 122.36 95.41 120.23 97.10 C 117.31 99.16 113.31 98.98 110.05 97.95 C 105.63 96.53 105.41 89.43 109.52 87.51 C 112.26 86.15 115.40 86.76 118.32 86.90 C 118.29 81.54 112.00 82.96 108.50 83.21 C 108.51 82.39 108.52 80.77 108.53 79.96 M 110.52 91.97 C 110.07 95.65 115.22 96.12 117.49 94.53 C 118.26 93.22 117.99 91.59 118.24 90.15 C 115.69 90.14 111.72 88.79 110.52 91.97 Z" />
<path fill="#004f7c" opacity="1.00" d=" M 125.65 83.68 C 126.57 79.54 131.50 79.37 134.92 79.48 C 134.93 80.32 134.94 81.99 134.94 82.83 C 133.19 83.22 130.57 82.50 129.63 84.49 C 129.05 89.06 129.53 93.70 129.36 98.29 C 128.37 98.30 126.38 98.30 125.39 98.30 C 125.51 93.43 125.04 88.52 125.65 83.68 Z" />
</g>
<g id="#20a5d5ff">
<path fill="#20a5d5" opacity="1.00" d=" M 122.76 17.82 C 128.16 17.82 133.57 17.77 138.97 17.86 C 139.09 20.80 139.09 23.74 138.96 26.68 C 133.56 26.82 128.16 26.72 122.76 26.76 C 122.72 32.17 122.81 37.58 122.69 42.99 C 119.77 43.09 116.84 43.08 113.92 42.95 C 113.85 37.55 113.89 32.16 113.89 26.76 C 116.83 26.76 119.78 26.75 122.73 26.72 C 122.75 23.76 122.76 20.79 122.76 17.82 Z" />
</g>
</svg>
