<?xml version="1.0" encoding="UTF-8" ?>
<!DOCTYPE svg PUBLIC "-//W3C//DTD SVG 1.1//EN" "http://www.w3.org/Graphics/SVG/1.1/DTD/svg11.dtd">
<svg width="1620pt" height="423pt" viewBox="0 0 1620 423" version="1.1" xmlns="http://www.w3.org/2000/svg">
<g id="#ffffffff">
<path fill="#ffffff" opacity="1.00" d=" M 1119.99 196.25 C 1129.59 190.33 1139.10 184.25 1148.65 178.23 C 1149.08 193.83 1148.79 209.46 1148.79 225.07 C 1158.84 224.95 1168.89 225.00 1178.94 225.04 C 1179.04 233.20 1178.98 241.37 1179.00 249.53 C 1168.99 249.37 1158.98 249.57 1148.97 249.42 C 1148.67 266.29 1148.95 283.18 1148.83 300.06 C 1148.69 304.76 1149.43 309.82 1152.53 313.55 C 1159.28 320.43 1170.33 317.85 1177.96 313.84 C 1177.74 322.46 1177.88 331.09 1177.85 339.71 C 1167.96 342.55 1157.27 343.12 1147.26 340.60 C 1138.33 338.28 1130.06 332.60 1125.71 324.33 C 1119.75 313.95 1119.89 301.59 1120.00 289.99 C 1119.96 276.46 1120.08 262.93 1119.94 249.40 C 1113.99 249.53 1108.03 249.45 1102.09 249.47 C 1102.18 241.31 1102.17 233.14 1102.09 224.98 C 1108.06 225.03 1114.03 225.00 1120.00 225.01 C 1119.98 215.42 1120.02 205.84 1119.99 196.25 Z" />
<path fill="#ffffff" opacity="1.00" d=" M 525.00 180.09 C 541.32 180.26 557.65 180.14 573.97 180.15 C 593.05 179.93 612.73 185.97 626.79 199.23 C 638.63 210.27 645.76 225.70 648.30 241.56 C 651.10 258.62 650.32 276.48 644.82 292.95 C 639.82 307.79 629.89 321.05 616.44 329.23 C 604.39 336.62 590.16 340.53 576.02 340.15 C 559.03 340.19 542.05 340.04 525.07 340.23 C 524.91 286.85 525.04 233.47 525.00 180.09 M 555.00 207.88 C 554.97 242.90 555.06 277.92 554.96 312.94 C 568.12 312.87 581.92 313.02 594.09 307.22 C 604.10 302.74 612.03 294.04 615.70 283.72 C 619.78 272.39 620.07 260.02 618.56 248.18 C 616.72 235.24 610.11 222.33 598.47 215.67 C 585.49 207.70 569.74 207.56 555.00 207.88 Z" />
<path fill="#ffffff" opacity="1.00" d=" M 1446.20 207.63 C 1461.92 198.72 1477.35 189.28 1493.07 180.40 C 1497.30 179.76 1501.67 180.41 1505.96 180.09 C 1506.01 233.44 1506.00 286.80 1505.97 340.16 C 1496.33 340.17 1486.70 340.06 1477.07 340.23 C 1476.94 300.37 1477.00 260.51 1477.03 220.65 C 1466.81 227.04 1456.39 233.11 1446.02 239.25 C 1446.34 228.71 1446.01 218.17 1446.20 207.63 Z" />
<path fill="#ffffff" opacity="1.00" d=" M 684.60 230.45 C 696.68 223.38 711.42 221.72 725.06 224.19 C 736.45 226.33 747.29 232.40 754.35 241.70 C 760.27 248.95 763.97 257.85 765.87 266.98 C 767.81 275.16 766.92 283.63 767.20 291.95 C 740.76 292.02 714.32 291.96 687.87 291.99 C 688.60 299.83 692.02 307.80 698.53 312.52 C 707.51 319.23 720.45 319.36 730.10 314.01 C 735.49 311.16 738.99 306.04 742.27 301.08 C 749.62 304.21 757.23 306.70 764.69 309.56 L 765.07 310.13 C 759.86 321.68 751.03 332.05 739.26 337.22 C 727.82 342.30 714.82 343.10 702.55 341.35 C 688.32 339.17 675.23 330.68 667.77 318.33 C 657.14 301.08 655.22 279.01 661.74 259.92 C 665.65 247.87 673.60 236.93 684.60 230.45 M 704.36 249.24 C 696.17 252.60 690.23 260.60 688.78 269.25 C 705.24 269.05 721.70 269.19 738.17 269.19 C 736.74 265.32 735.63 261.25 733.20 257.84 C 729.49 252.05 722.91 248.07 716.00 247.84 C 712.09 247.74 708.02 247.66 704.36 249.24 Z" />
<path fill="#ffffff" opacity="1.00" d=" M 808.73 236.00 C 815.17 227.72 825.60 223.20 835.99 223.13 C 850.13 222.91 865.09 227.38 874.72 238.21 C 885.86 250.53 889.42 267.80 889.12 283.98 C 889.10 299.67 885.08 316.35 873.90 327.92 C 865.97 336.53 854.41 340.87 842.96 341.95 C 830.58 343.41 817.14 339.67 808.70 330.18 C 809.05 349.11 808.69 368.06 808.89 387.00 C 799.29 387.01 789.70 386.99 780.11 386.99 C 780.18 333.00 780.26 279.00 780.06 225.01 C 789.69 225.01 799.32 225.01 808.95 225.00 C 808.82 228.66 808.87 232.33 808.73 236.00 M 826.32 248.39 C 820.25 250.08 815.00 254.22 811.81 259.64 C 807.56 266.61 806.26 274.93 806.11 282.97 C 806.38 293.36 808.81 304.67 816.92 311.85 C 826.62 320.96 843.74 319.18 851.59 308.52 C 858.73 299.38 859.90 287.13 858.87 275.94 C 857.75 266.07 853.36 255.72 844.35 250.66 C 838.94 247.47 832.34 247.22 826.32 248.39 Z" />
<path fill="#ffffff" opacity="1.00" d=" M 947.44 223.58 C 962.76 221.87 979.19 224.87 991.70 234.28 C 1003.77 243.14 1011.18 257.38 1013.11 272.08 C 1015.54 288.94 1012.41 307.28 1001.85 321.01 C 993.45 332.43 980.01 339.43 966.13 341.44 C 951.29 343.45 935.37 341.65 922.50 333.56 C 910.71 326.36 902.39 314.23 898.96 300.93 C 896.67 293.17 896.65 285.03 896.90 277.01 C 897.81 260.25 905.75 243.54 919.61 233.70 C 927.74 227.86 937.50 224.53 947.44 223.58 M 948.40 248.42 C 937.41 251.18 930.05 261.45 927.77 272.12 C 925.32 283.87 926.65 297.10 933.93 306.98 C 940.05 315.67 951.85 319.79 962.06 316.87 C 970.20 314.97 976.66 308.51 980.10 301.08 C 983.72 292.92 984.92 283.63 983.28 274.83 C 981.77 265.06 976.54 255.30 967.58 250.53 C 961.74 247.34 954.79 247.27 948.40 248.42 Z" />
<path fill="#ffffff" opacity="1.00" d=" M 1056.00 243.46 C 1064.30 228.76 1082.27 219.92 1098.94 224.05 C 1098.82 233.42 1098.72 242.79 1099.02 252.16 C 1091.71 247.69 1082.13 247.76 1074.61 251.67 C 1067.76 255.41 1063.06 262.21 1060.51 269.46 C 1055.54 282.70 1055.91 297.07 1056.00 310.99 C 1055.99 320.71 1056.00 330.43 1055.99 340.16 C 1046.54 340.19 1037.08 340.04 1027.63 340.23 C 1027.25 301.85 1027.62 263.45 1027.45 225.06 C 1036.96 224.94 1046.48 225.04 1055.99 225.01 C 1056.00 231.16 1055.99 237.31 1056.00 243.46 Z" />
<path fill="#ffffff" opacity="1.00" d=" M 1198.29 238.29 C 1213.51 222.79 1238.20 219.44 1258.09 226.84 C 1275.25 233.33 1286.77 250.19 1289.83 267.87 C 1291.55 275.79 1290.88 283.93 1290.96 291.97 C 1264.54 291.98 1238.13 292.02 1211.71 291.95 C 1212.27 300.60 1216.66 309.30 1224.24 313.82 C 1232.49 318.87 1243.25 318.99 1251.96 315.01 C 1258.18 312.24 1262.40 306.71 1266.03 301.17 C 1273.69 304.24 1281.50 306.95 1289.25 309.83 C 1285.55 316.64 1281.59 323.49 1275.78 328.75 C 1266.02 338.03 1252.28 342.18 1239.00 342.13 C 1228.58 342.53 1217.91 340.42 1208.84 335.16 C 1198.69 329.43 1191.19 319.77 1186.85 309.06 C 1177.50 285.86 1180.96 256.91 1198.29 238.29 M 1226.15 250.13 C 1218.95 253.85 1213.89 261.25 1212.61 269.21 C 1228.96 269.14 1245.31 269.12 1261.66 269.21 C 1259.94 261.32 1255.54 253.34 1247.89 249.90 C 1241.12 246.81 1232.86 246.97 1226.15 250.13 Z" />
<path fill="#ffffff" opacity="1.00" d=" M 1316.43 230.60 C 1334.93 217.00 1364.17 222.55 1376.51 241.91 C 1371.19 247.60 1364.80 252.16 1359.59 257.96 C 1354.66 251.80 1347.19 247.01 1339.02 247.80 C 1332.81 247.61 1327.90 254.78 1330.59 260.50 C 1333.63 266.24 1340.39 267.92 1346.04 269.97 C 1355.98 273.25 1366.45 276.51 1374.29 283.78 C 1380.54 289.60 1383.24 298.51 1382.25 306.89 C 1381.71 315.94 1377.52 324.65 1371.13 331.04 C 1358.66 342.99 1338.96 345.04 1323.30 338.73 C 1310.82 333.67 1300.65 323.29 1295.47 310.90 C 1303.26 306.96 1310.76 302.44 1318.67 298.77 C 1320.83 306.11 1325.93 312.96 1333.08 316.04 C 1338.20 318.18 1344.15 318.50 1349.28 316.21 C 1355.93 313.51 1357.93 302.71 1351.64 298.55 C 1345.29 294.02 1337.46 292.49 1330.37 289.53 C 1322.08 286.27 1313.34 282.27 1308.27 274.57 C 1299.18 260.76 1302.97 240.24 1316.43 230.60 Z" />
</g>
<g id="#004e7eff">
<path fill="#004e7e" opacity="1.00" d=" M 279.64 0.00 L 288.37 0.00 C 298.65 1.09 308.19 6.24 315.27 13.69 C 322.05 20.79 326.92 29.53 330.50 38.63 C 339.93 61.68 344.35 86.50 345.85 111.27 C 343.73 117.29 345.55 123.77 345.20 130.00 C 345.71 136.20 343.74 142.64 345.85 148.65 C 345.18 158.19 343.98 167.70 342.49 177.15 C 341.07 185.52 338.89 194.46 332.45 200.47 C 327.84 205.36 320.60 207.76 314.04 205.90 C 308.44 204.61 304.32 199.78 302.56 194.49 C 300.48 188.88 300.88 182.81 301.12 176.95 C 302.81 159.69 305.06 142.41 304.84 125.03 C 304.33 116.93 303.89 108.05 298.54 101.46 C 293.48 95.32 283.96 94.00 277.29 98.23 C 266.16 104.90 259.39 116.62 253.91 127.99 C 243.08 151.54 236.31 176.64 228.23 201.20 C 223.20 215.77 214.25 229.74 200.57 237.49 C 186.48 245.34 169.74 247.17 153.90 245.73 C 135.03 243.41 118.70 230.96 108.82 215.10 C 98.75 198.66 89.42 181.78 79.79 165.07 C 75.45 157.62 71.53 149.79 65.76 143.30 C 62.62 139.82 58.07 136.62 53.14 137.67 C 48.20 138.33 44.07 142.26 42.79 147.02 C 40.86 153.75 41.36 160.89 42.33 167.74 C 45.74 188.42 54.14 207.82 58.72 228.21 C 60.46 235.65 60.87 244.43 55.58 250.59 C 48.89 258.28 35.72 257.08 29.19 249.79 C 22.00 241.53 18.72 230.86 15.05 220.76 C 7.15 197.42 1.52 173.19 0.00 148.56 L 0.00 130.64 C 1.61 109.04 5.46 87.27 14.47 67.43 C 20.94 53.37 31.07 40.05 45.60 33.71 C 56.85 28.66 70.15 28.05 81.81 32.08 C 92.20 35.74 99.86 44.03 107.22 51.83 C 119.61 67.18 129.79 84.13 140.28 100.79 C 146.60 110.23 154.95 119.33 166.14 122.72 C 177.33 126.33 190.39 121.80 197.33 112.41 C 201.56 107.12 204.00 100.73 206.57 94.54 C 214.45 74.98 222.03 55.28 231.19 36.28 C 240.55 17.66 258.41 2.29 279.64 0.00 Z" />
</g>
<g id="#01da95ff">
<path fill="#01da95" opacity="1.00" d=" M 443.22 95.14 C 451.81 95.16 460.40 95.16 468.98 95.15 C 495.32 94.69 521.66 95.26 548.00 95.16 C 883.00 95.16 1217.99 95.16 1552.98 95.16 C 1564.17 95.37 1575.39 94.69 1586.56 95.54 C 1604.31 97.04 1619.46 113.10 1619.56 130.99 C 1619.90 156.67 1619.61 182.37 1619.71 208.06 C 1619.71 266.72 1619.70 325.38 1619.72 384.04 C 1619.62 390.46 1618.91 397.06 1615.88 402.83 C 1610.91 413.29 1600.69 420.85 1589.36 423.00 L 472.86 423.00 C 466.86 421.39 460.96 418.98 456.31 414.75 C 448.17 407.99 443.38 397.57 443.15 387.03 C 443.15 340.01 443.15 292.99 443.15 245.97 C 443.30 195.69 442.75 145.42 443.22 95.14 M 1119.99 196.25 C 1120.02 205.84 1119.98 215.42 1120.00 225.01 C 1114.03 225.00 1108.06 225.03 1102.09 224.98 C 1102.17 233.14 1102.18 241.31 1102.09 249.47 C 1108.03 249.45 1113.99 249.53 1119.94 249.40 C 1120.08 262.93 1119.96 276.46 1120.00 289.99 C 1119.89 301.59 1119.75 313.95 1125.71 324.33 C 1130.06 332.60 1138.33 338.28 1147.26 340.60 C 1157.27 343.12 1167.96 342.55 1177.85 339.71 C 1177.88 331.09 1177.74 322.46 1177.96 313.84 C 1170.33 317.85 1159.28 320.43 1152.53 313.55 C 1149.43 309.82 1148.69 304.76 1148.83 300.06 C 1148.95 283.18 1148.67 266.29 1148.97 249.42 C 1158.98 249.57 1168.99 249.37 1179.00 249.53 C 1178.98 241.37 1179.04 233.20 1178.94 225.04 C 1168.89 225.00 1158.84 224.95 1148.79 225.07 C 1148.79 209.46 1149.08 193.83 1148.65 178.23 C 1139.10 184.25 1129.59 190.33 1119.99 196.25 M 525.00 180.09 C 525.04 233.47 524.91 286.85 525.07 340.23 C 542.05 340.04 559.03 340.19 576.02 340.15 C 590.16 340.53 604.39 336.62 616.44 329.23 C 629.89 321.05 639.82 307.79 644.82 292.95 C 650.32 276.48 651.10 258.62 648.30 241.56 C 645.76 225.70 638.63 210.27 626.79 199.23 C 612.73 185.97 593.05 179.93 573.97 180.15 C 557.65 180.14 541.32 180.26 525.00 180.09 M 1446.20 207.63 C 1446.01 218.17 1446.34 228.71 1446.02 239.25 C 1456.39 233.11 1466.81 227.04 1477.03 220.65 C 1477.00 260.51 1476.94 300.37 1477.07 340.23 C 1486.70 340.06 1496.33 340.17 1505.97 340.16 C 1506.00 286.80 1506.01 233.44 1505.96 180.09 C 1501.67 180.41 1497.30 179.76 1493.07 180.40 C 1477.35 189.28 1461.92 198.72 1446.20 207.63 M 684.60 230.45 C 673.60 236.93 665.65 247.87 661.74 259.92 C 655.22 279.01 657.14 301.08 667.77 318.33 C 675.23 330.68 688.32 339.17 702.55 341.35 C 714.82 343.10 727.82 342.30 739.26 337.22 C 751.03 332.05 759.86 321.68 765.07 310.13 L 764.69 309.56 C 757.23 306.70 749.62 304.21 742.27 301.08 C 738.99 306.04 735.49 311.16 730.10 314.01 C 720.45 319.36 707.51 319.23 698.53 312.52 C 692.02 307.80 688.60 299.83 687.87 291.99 C 714.32 291.96 740.76 292.02 767.20 291.95 C 766.92 283.63 767.81 275.16 765.87 266.98 C 763.97 257.85 760.27 248.95 754.35 241.70 C 747.29 232.40 736.45 226.33 725.06 224.19 C 711.42 221.72 696.68 223.38 684.60 230.45 M 808.73 236.00 C 808.87 232.33 808.82 228.66 808.95 225.00 C 799.32 225.01 789.69 225.01 780.06 225.01 C 780.26 279.00 780.18 333.00 780.11 386.99 C 789.70 386.99 799.29 387.01 808.89 387.00 C 808.69 368.06 809.05 349.11 808.70 330.18 C 817.14 339.67 830.58 343.41 842.96 341.95 C 854.41 340.87 865.97 336.53 873.90 327.92 C 885.08 316.35 889.10 299.67 889.12 283.98 C 889.42 267.80 885.86 250.53 874.72 238.21 C 865.09 227.38 850.13 222.91 835.99 223.13 C 825.60 223.20 815.17 227.72 808.73 236.00 M 947.44 223.58 C 937.50 224.53 927.74 227.86 919.61 233.70 C 905.75 243.54 897.81 260.25 896.90 277.01 C 896.65 285.03 896.67 293.17 898.96 300.93 C 902.39 314.23 910.71 326.36 922.50 333.56 C 935.37 341.65 951.29 343.45 966.13 341.44 C 980.01 339.43 993.45 332.43 1001.85 321.01 C 1012.41 307.28 1015.54 288.94 1013.11 272.08 C 1011.18 257.38 1003.77 243.14 991.70 234.28 C 979.19 224.87 962.76 221.87 947.44 223.58 M 1056.00 243.46 C 1055.99 237.31 1056.00 231.16 1055.99 225.01 C 1046.48 225.04 1036.96 224.94 1027.45 225.06 C 1027.62 263.45 1027.25 301.85 1027.63 340.23 C 1037.08 340.04 1046.54 340.19 1055.99 340.16 C 1056.00 330.43 1055.99 320.71 1056.00 310.99 C 1055.91 297.07 1055.54 282.70 1060.51 269.46 C 1063.06 262.21 1067.76 255.41 1074.61 251.67 C 1082.13 247.76 1091.71 247.69 1099.02 252.16 C 1098.72 242.79 1098.82 233.42 1098.94 224.05 C 1082.27 219.92 1064.30 228.76 1056.00 243.46 M 1198.29 238.29 C 1180.96 256.91 1177.50 285.86 1186.85 309.06 C 1191.19 319.77 1198.69 329.43 1208.84 335.16 C 1217.91 340.42 1228.58 342.53 1239.00 342.13 C 1252.28 342.18 1266.02 338.03 1275.78 328.75 C 1281.59 323.49 1285.55 316.64 1289.25 309.83 C 1281.50 306.95 1273.69 304.24 1266.03 301.17 C 1262.40 306.71 1258.18 312.24 1251.96 315.01 C 1243.25 318.99 1232.49 318.87 1224.24 313.82 C 1216.66 309.30 1212.27 300.60 1211.71 291.95 C 1238.13 292.02 1264.54 291.98 1290.96 291.97 C 1290.88 283.93 1291.55 275.79 1289.83 267.87 C 1286.77 250.19 1275.25 233.33 1258.09 226.84 C 1238.20 219.44 1213.51 222.79 1198.29 238.29 M 1316.43 230.60 C 1302.97 240.24 1299.18 260.76 1308.27 274.57 C 1313.34 282.27 1322.08 286.27 1330.37 289.53 C 1337.46 292.49 1345.29 294.02 1351.64 298.55 C 1357.93 302.71 1355.93 313.51 1349.28 316.21 C 1344.15 318.50 1338.20 318.18 1333.08 316.04 C 1325.93 312.96 1320.83 306.11 1318.67 298.77 C 1310.76 302.44 1303.26 306.96 1295.47 310.90 C 1300.65 323.29 1310.82 333.67 1323.30 338.73 C 1338.96 345.04 1358.66 342.99 1371.13 331.04 C 1377.52 324.65 1381.71 315.94 1382.25 306.89 C 1383.24 298.51 1380.54 289.60 1374.29 283.78 C 1366.45 276.51 1355.98 273.25 1346.04 269.97 C 1340.39 267.92 1333.63 266.24 1330.59 260.50 C 1327.90 254.78 1332.81 247.61 1339.02 247.80 C 1347.19 247.01 1354.66 251.80 1359.59 257.96 C 1364.80 252.16 1371.19 247.60 1376.51 241.91 C 1364.17 222.55 1334.93 217.00 1316.43 230.60 Z" />
<path fill="#01da95" opacity="1.00" d=" M 555.00 207.88 C 569.74 207.56 585.49 207.70 598.47 215.67 C 610.11 222.33 616.72 235.24 618.56 248.18 C 620.07 260.02 619.78 272.39 615.70 283.72 C 612.03 294.04 604.10 302.74 594.09 307.22 C 581.92 313.02 568.12 312.87 554.96 312.94 C 555.06 277.92 554.97 242.90 555.00 207.88 Z" />
<path fill="#01da95" opacity="1.00" d=" M 704.36 249.24 C 708.02 247.66 712.09 247.74 716.00 247.84 C 722.91 248.07 729.49 252.05 733.20 257.84 C 735.63 261.25 736.74 265.32 738.17 269.19 C 721.70 269.19 705.24 269.05 688.78 269.25 C 690.23 260.60 696.17 252.60 704.36 249.24 Z" />
<path fill="#01da95" opacity="1.00" d=" M 826.32 248.39 C 832.34 247.22 838.94 247.47 844.35 250.66 C 853.36 255.72 857.75 266.07 858.87 275.94 C 859.90 287.13 858.73 299.38 851.59 308.52 C 843.74 319.18 826.62 320.96 816.92 311.85 C 808.81 304.67 806.38 293.36 806.11 282.97 C 806.26 274.93 807.56 266.61 811.81 259.64 C 815.00 254.22 820.25 250.08 826.32 248.39 Z" />
<path fill="#01da95" opacity="1.00" d=" M 948.40 248.42 C 954.79 247.27 961.74 247.34 967.58 250.53 C 976.54 255.30 981.77 265.06 983.28 274.83 C 984.92 283.63 983.72 292.92 980.10 301.08 C 976.66 308.51 970.20 314.97 962.06 316.87 C 951.85 319.79 940.05 315.67 933.93 306.98 C 926.65 297.10 925.32 283.87 927.77 272.12 C 930.05 261.45 937.41 251.18 948.40 248.42 Z" />
<path fill="#01da95" opacity="1.00" d=" M 1226.15 250.13 C 1232.86 246.97 1241.12 246.81 1247.89 249.90 C 1255.54 253.34 1259.94 261.32 1261.66 269.21 C 1245.31 269.12 1228.96 269.14 1212.61 269.21 C 1213.89 261.25 1218.95 253.85 1226.15 250.13 Z" />
</g>
<g id="#02386eff">
<path fill="#02386e" opacity="1.00" d=" M 345.20 130.00 C 345.55 123.77 343.73 117.29 345.85 111.27 C 346.53 123.73 346.77 136.20 345.85 148.65 C 343.74 142.64 345.71 136.20 345.20 130.00 Z" />
</g>
</svg>
