<?xml version="1.0" encoding="UTF-8" ?>
<!DOCTYPE svg PUBLIC "-//W3C//DTD SVG 1.1//EN" "http://www.w3.org/Graphics/SVG/1.1/DTD/svg11.dtd">
<svg width="2723pt" height="412pt" viewBox="0 0 2723 412" version="1.1" xmlns="http://www.w3.org/2000/svg">
<g id="#ffffffff">
<path fill="#ffffff" opacity="1.00" d=" M 1161.66 117.79 C 1173.08 116.66 1184.63 116.68 1196.06 117.69 C 1206.62 118.76 1217.71 121.85 1225.20 129.82 C 1233.08 138.18 1236.07 149.80 1237.60 160.89 C 1239.09 174.22 1240.42 187.63 1240.24 201.06 C 1240.39 214.78 1239.05 228.47 1237.44 242.08 C 1235.84 253.30 1232.50 265.04 1224.13 273.15 C 1216.14 280.85 1204.81 283.48 1194.08 284.41 C 1181.73 285.31 1169.25 285.33 1156.99 283.46 C 1147.22 281.89 1137.42 277.67 1131.29 269.62 C 1123.50 259.55 1121.48 246.49 1120.29 234.16 C 1118.13 215.16 1117.60 195.96 1119.39 176.90 C 1120.53 165.86 1121.06 154.57 1124.95 144.06 C 1127.56 136.76 1131.97 129.88 1138.47 125.47 C 1145.27 120.75 1153.53 118.72 1161.66 117.79 Z" />
<path fill="#ffffff" opacity="1.00" d=" M 2144.03 215.02 C 2153.32 211.88 2163.26 211.18 2173.01 211.25 C 2190.63 211.06 2208.46 212.19 2225.55 216.73 C 2225.26 229.52 2226.00 242.34 2224.91 255.10 C 2224.28 262.08 2222.64 269.43 2217.79 274.76 C 2212.13 280.94 2203.91 284.04 2195.85 285.51 C 2186.66 287.30 2177.26 286.64 2167.97 286.74 C 2155.02 286.26 2141.19 283.65 2131.22 274.77 C 2119.14 263.75 2117.99 244.39 2125.33 230.43 C 2129.16 223.01 2136.20 217.66 2144.03 215.02 Z" />
</g>
<g id="#00507dff">
<path fill="#00507d" opacity="1.00" d=" M 452.28 0.00 L 461.70 0.00 C 479.86 1.36 496.82 10.68 508.72 24.29 C 523.00 40.07 531.17 60.13 537.91 80.03 C 552.54 123.72 557.17 170.13 557.01 216.01 C 556.75 238.12 554.33 260.14 551.09 281.99 C 549.32 292.05 547.64 302.41 542.64 311.47 C 538.43 319.31 531.96 326.28 523.67 329.80 C 513.98 333.89 501.76 332.40 494.08 324.95 C 487.99 318.98 485.24 310.44 484.28 302.15 C 483.42 292.39 484.44 282.59 485.43 272.88 C 487.97 250.34 490.15 227.71 490.23 205.01 C 489.81 192.62 489.56 179.56 483.64 168.34 C 479.01 159.47 469.16 153.50 459.13 153.81 C 449.07 154.44 440.46 160.64 433.47 167.44 C 423.25 177.80 415.62 190.41 409.32 203.44 C 392.33 239.63 381.51 278.23 369.39 316.20 C 364.82 330.82 358.61 345.11 349.45 357.47 C 339.63 370.93 326.01 381.56 310.44 387.54 C 295.69 393.38 279.75 395.48 263.98 396.00 C 246.41 396.43 228.66 392.30 213.42 383.46 C 196.00 373.45 182.06 358.09 172.01 340.82 C 155.71 313.43 140.10 285.64 124.25 257.99 C 118.52 248.21 113.11 238.03 105.20 229.78 C 100.95 225.26 95.48 221.20 89.04 221.00 C 83.15 221.25 76.98 223.44 73.16 228.12 C 69.42 232.71 67.97 238.67 67.20 244.43 C 65.85 256.36 67.55 268.38 70.05 280.05 C 75.90 307.25 85.92 333.31 92.88 360.22 C 95.58 370.99 98.03 382.54 94.66 393.45 C 92.04 402.23 84.34 409.55 75.12 410.74 C 64.66 412.49 53.12 409.00 46.29 400.67 C 40.24 393.20 35.63 384.63 32.17 375.68 C 23.51 353.98 16.51 331.61 11.06 308.89 C 5.00 283.92 0.88 258.42 0.00 232.71 L 0.00 217.30 C 0.71 197.79 3.04 178.33 7.25 159.26 C 12.98 132.68 21.73 106.07 37.95 83.92 C 49.55 68.02 66.03 55.16 85.29 50.23 C 103.91 45.43 124.74 46.66 141.59 56.47 C 150.30 61.38 157.60 68.32 164.66 75.30 C 173.89 84.24 181.29 94.80 188.69 105.24 C 201.18 123.05 212.71 141.51 224.12 160.02 C 231.46 171.58 240.48 182.36 251.85 190.14 C 262.32 197.34 275.51 201.12 288.15 198.69 C 300.88 196.83 312.14 188.90 319.31 178.38 C 325.67 169.60 329.30 159.31 333.44 149.39 C 345.37 119.64 357.01 89.73 370.75 60.75 C 377.75 46.34 387.50 33.19 399.67 22.74 C 414.33 10.03 432.83 1.46 452.28 0.00 Z" />
<path fill="#00507d" opacity="1.00" d=" M 1922.76 28.95 C 1922.44 26.46 1924.61 24.44 1927.06 24.57 C 1941.70 24.39 1956.35 24.55 1970.99 24.50 C 1973.70 24.24 1977.09 25.64 1976.86 28.86 C 1977.24 44.16 1976.80 59.49 1977.08 74.79 C 1992.40 74.67 2007.73 74.81 2023.05 74.73 C 2024.96 74.78 2027.23 74.64 2028.75 76.09 C 2030.07 77.37 2029.88 79.36 2030.01 81.05 C 2029.96 92.39 2030.04 103.73 2029.97 115.07 C 2030.18 117.83 2027.68 119.91 2025.05 119.73 C 2009.03 119.81 1993.02 119.72 1977.00 119.77 C 1976.99 158.52 1977.00 197.27 1977.00 236.01 C 1977.42 245.56 1978.39 255.49 1983.04 264.02 C 1987.01 271.18 1994.20 276.14 2002.03 278.24 C 2010.44 280.73 2019.30 280.66 2027.99 280.78 C 2030.80 280.56 2033.10 283.16 2032.96 285.89 C 2033.07 296.92 2032.93 307.96 2033.02 319.00 C 2032.93 321.02 2033.22 323.24 2032.16 325.07 C 2031.09 326.88 2028.83 327.35 2026.91 327.48 C 2005.98 327.73 1984.26 327.08 1964.85 318.36 C 1949.99 311.94 1937.74 299.76 1931.38 284.86 C 1923.42 266.36 1922.44 245.83 1922.75 225.97 C 1922.76 160.30 1922.74 94.62 1922.76 28.95 Z" />
<path fill="#00507d" opacity="1.00" d=" M 685.57 80.57 C 704.42 71.99 725.46 69.51 746.00 70.00 C 765.70 69.58 785.82 70.79 804.49 77.61 C 814.39 81.16 823.76 86.65 830.78 94.59 C 841.16 82.42 856.76 76.31 872.04 73.07 C 885.82 70.12 899.96 69.77 913.99 70.00 C 936.41 69.49 959.60 72.60 979.56 83.37 C 995.17 91.67 1007.93 105.84 1012.98 122.94 C 1018.42 140.76 1017.83 159.58 1017.76 177.99 C 1017.74 226.02 1017.79 274.06 1017.74 322.09 C 1017.82 325.20 1014.99 327.66 1011.95 327.48 C 998.01 327.52 984.08 327.50 970.14 327.50 C 967.71 327.58 964.78 326.65 964.08 324.06 C 963.49 321.41 963.79 318.68 963.74 316.00 C 963.76 271.34 963.74 226.69 963.75 182.03 C 963.26 170.00 963.70 157.85 961.72 145.93 C 960.10 136.52 954.06 128.06 945.56 123.68 C 932.20 116.76 916.63 116.80 901.98 117.32 C 888.66 118.07 873.96 121.27 865.14 132.15 C 857.82 141.01 857.89 153.08 857.35 163.95 C 856.61 186.95 857.17 209.97 857.00 232.98 C 857.09 262.96 856.92 292.94 856.68 322.92 C 856.33 325.67 853.68 327.56 850.99 327.48 C 836.98 327.53 822.95 327.51 808.94 327.49 C 806.53 327.58 803.78 326.60 803.05 324.10 C 802.39 320.80 802.87 317.40 802.75 314.06 C 802.62 266.39 803.05 218.71 802.47 171.04 C 801.57 158.65 803.03 145.01 795.86 134.11 C 789.08 123.90 776.64 119.55 765.00 118.02 C 753.11 116.70 740.98 116.62 729.15 118.60 C 718.80 120.48 707.98 125.03 702.31 134.39 C 696.96 142.54 696.85 152.60 696.32 161.98 C 695.36 184.97 695.90 208.00 695.76 231.01 C 695.73 261.31 695.82 291.62 695.72 321.92 C 695.89 325.10 693.05 327.63 689.96 327.48 C 675.76 327.50 661.55 327.54 647.35 327.46 C 644.31 327.63 641.41 325.09 641.76 321.94 C 641.74 269.31 641.75 216.67 641.75 164.04 C 641.67 147.44 642.82 130.28 649.57 114.89 C 656.60 99.34 670.18 87.49 685.57 80.57 Z" />
<path fill="#00507d" opacity="1.00" d=" M 1154.64 70.85 C 1166.74 69.65 1178.91 70.03 1191.06 70.04 C 1212.08 70.83 1233.79 74.05 1252.22 84.82 C 1266.63 93.19 1277.73 106.75 1283.75 122.23 C 1292.60 144.68 1294.50 169.08 1295.01 192.98 C 1295.19 219.17 1294.58 245.86 1286.78 271.09 C 1281.82 287.84 1272.07 303.61 1257.52 313.63 C 1239.39 326.42 1216.80 330.58 1195.06 331.71 C 1174.73 332.41 1154.12 332.43 1134.20 327.83 C 1120.44 324.66 1106.99 319.04 1096.17 309.81 C 1085.02 300.54 1077.31 287.70 1072.72 274.05 C 1064.60 249.60 1063.64 223.55 1063.53 198.01 C 1063.86 179.21 1064.62 160.25 1068.85 141.86 C 1072.10 127.28 1077.47 112.78 1087.16 101.21 C 1095.41 91.00 1106.69 83.53 1118.86 78.81 C 1130.28 74.30 1142.45 72.05 1154.64 70.85 M 1161.66 117.79 C 1153.53 118.72 1145.27 120.75 1138.47 125.47 C 1131.97 129.88 1127.56 136.76 1124.95 144.06 C 1121.06 154.57 1120.53 165.86 1119.39 176.90 C 1117.60 195.96 1118.13 215.16 1120.29 234.16 C 1121.48 246.49 1123.50 259.55 1131.29 269.62 C 1137.42 277.67 1147.22 281.89 1156.99 283.46 C 1169.25 285.33 1181.73 285.31 1194.08 284.41 C 1204.81 283.48 1216.14 280.85 1224.13 273.15 C 1232.50 265.04 1235.84 253.30 1237.44 242.08 C 1239.05 228.47 1240.39 214.78 1240.24 201.06 C 1240.42 187.63 1239.09 174.22 1237.60 160.89 C 1236.07 149.80 1233.08 138.18 1225.20 129.82 C 1217.71 121.85 1206.62 118.76 1196.06 117.69 C 1184.63 116.68 1173.08 116.66 1161.66 117.79 Z" />
<path fill="#00507d" opacity="1.00" d=" M 1776.43 70.60 C 1802.08 68.59 1827.84 71.26 1853.13 75.58 C 1856.44 76.29 1859.88 76.61 1863.05 77.88 C 1865.65 79.18 1865.42 82.47 1865.52 84.94 C 1865.38 95.92 1865.70 106.92 1865.37 117.89 C 1865.39 121.36 1861.72 122.41 1858.93 121.69 C 1835.89 117.66 1812.57 114.07 1789.11 114.83 C 1779.10 115.27 1768.80 116.35 1759.74 120.93 C 1753.94 123.87 1749.13 129.31 1748.15 135.88 C 1746.70 142.91 1748.97 150.72 1754.61 155.34 C 1762.99 162.31 1773.62 165.58 1783.68 169.30 C 1803.75 176.90 1824.36 183.40 1843.36 193.51 C 1854.66 199.63 1865.65 207.52 1872.08 218.94 C 1881.67 235.76 1882.74 256.40 1878.39 274.97 C 1874.27 292.01 1862.89 306.88 1847.86 315.80 C 1826.72 328.69 1801.31 331.90 1776.99 332.02 C 1752.96 331.65 1728.74 328.74 1705.86 321.17 C 1702.96 320.49 1700.21 318.26 1700.27 315.06 C 1700.26 303.00 1700.14 290.92 1700.34 278.85 C 1700.31 276.11 1703.50 274.53 1705.91 275.44 C 1733.33 283.99 1762.33 288.72 1791.07 285.96 C 1801.02 284.79 1811.42 282.75 1819.57 276.53 C 1830.37 268.46 1832.20 250.25 1822.11 240.91 C 1816.41 235.38 1808.92 232.30 1801.70 229.32 C 1782.55 222.12 1763.13 215.64 1744.20 207.89 C 1730.26 202.04 1716.18 194.47 1707.24 181.85 C 1695.92 165.79 1693.81 144.68 1697.85 125.83 C 1701.67 108.55 1712.82 93.04 1728.07 84.04 C 1742.66 75.37 1759.69 71.93 1776.43 70.60 Z" />
<path fill="#00507d" opacity="1.00" d=" M 2097.91 76.25 C 2124.29 71.41 2151.19 69.09 2178.01 70.21 C 2193.82 71.00 2209.76 72.94 2224.78 78.14 C 2240.20 83.76 2254.96 92.79 2264.46 106.47 C 2276.05 122.82 2279.32 143.37 2279.73 162.98 C 2279.80 188.34 2279.73 213.69 2279.77 239.05 C 2279.42 256.70 2278.11 275.02 2270.11 291.09 C 2264.23 302.96 2254.20 312.42 2242.55 318.56 C 2223.14 328.86 2200.80 332.43 2179.01 332.00 C 2157.45 332.24 2135.37 330.69 2115.12 322.75 C 2099.87 316.93 2085.88 306.75 2077.47 292.56 C 2067.56 276.29 2065.71 256.49 2067.54 237.88 C 2069.32 221.51 2076.02 205.44 2087.69 193.65 C 2098.67 182.38 2113.42 175.47 2128.54 171.73 C 2148.95 166.53 2170.26 166.63 2191.13 168.11 C 2202.71 168.98 2214.19 170.77 2225.60 172.85 C 2225.42 161.20 2225.80 148.99 2220.91 138.12 C 2217.51 130.33 2210.62 124.52 2202.86 121.35 C 2194.95 118.13 2186.42 116.90 2177.97 116.13 C 2152.58 114.19 2127.09 116.45 2101.97 120.17 C 2099.68 120.46 2097.31 121.04 2095.11 120.21 C 2093.13 119.28 2092.93 116.92 2092.99 115.03 C 2093.05 104.00 2092.91 92.97 2093.05 81.95 C 2093.00 79.15 2095.03 76.50 2097.91 76.25 M 2144.03 215.02 C 2136.20 217.66 2129.16 223.01 2125.33 230.43 C 2117.99 244.39 2119.14 263.75 2131.22 274.77 C 2141.19 283.65 2155.02 286.26 2167.97 286.74 C 2177.26 286.64 2186.66 287.30 2195.85 285.51 C 2203.91 284.04 2212.13 280.94 2217.79 274.76 C 2222.64 269.43 2224.28 262.08 2224.91 255.10 C 2226.00 242.34 2225.26 229.52 2225.55 216.73 C 2208.46 212.19 2190.63 211.06 2173.01 211.25 C 2163.26 211.18 2153.32 211.88 2144.03 215.02 Z" />
<path fill="#00507d" opacity="1.00" d=" M 2406.42 70.59 C 2421.26 69.40 2436.18 70.27 2451.06 69.99 C 2454.02 69.49 2456.71 72.01 2456.48 75.02 C 2456.53 87.00 2456.47 98.98 2456.51 110.96 C 2456.70 113.43 2455.44 116.32 2452.70 116.60 C 2437.75 117.42 2422.53 115.35 2407.80 118.73 C 2399.86 120.56 2391.87 124.37 2387.21 131.31 C 2382.09 138.42 2381.01 147.42 2380.52 155.94 C 2379.36 176.60 2379.87 197.31 2379.76 218.00 C 2379.74 253.04 2379.79 288.08 2379.73 323.12 C 2380.00 325.98 2377.17 327.66 2374.62 327.47 C 2360.12 327.53 2345.61 327.50 2331.12 327.48 C 2328.42 327.66 2325.34 326.03 2325.77 322.93 C 2325.72 279.29 2325.76 235.64 2325.75 192.00 C 2326.15 171.96 2324.38 151.69 2328.21 131.88 C 2330.61 117.61 2337.49 104.09 2348.02 94.11 C 2363.63 79.18 2385.31 72.51 2406.42 70.59 Z" />
<path fill="#00507d" opacity="1.00" d=" M 1323.74 81.00 C 1323.28 78.24 1324.76 74.72 1328.00 74.82 C 1343.34 74.64 1358.70 74.81 1374.05 74.74 C 1376.82 74.56 1380.46 75.66 1380.69 78.95 C 1383.55 121.19 1392.30 162.97 1405.83 203.07 C 1413.91 227.75 1423.63 251.91 1435.20 275.17 C 1438.04 271.78 1439.26 267.35 1441.34 263.48 C 1467.78 205.67 1485.79 143.49 1490.09 79.89 C 1489.97 77.13 1492.20 74.74 1495.00 74.83 C 1510.32 74.63 1525.65 74.82 1540.98 74.74 C 1543.60 74.46 1547.01 75.86 1546.63 79.04 C 1545.28 119.28 1535.55 158.76 1522.71 196.76 C 1507.74 240.53 1488.15 282.57 1466.41 323.35 C 1465.12 326.28 1461.95 327.62 1458.90 327.49 C 1443.29 327.50 1427.69 327.51 1412.08 327.49 C 1408.86 327.50 1405.29 326.38 1403.84 323.25 C 1383.16 284.66 1363.64 245.26 1349.13 203.87 C 1335.13 164.32 1326.48 122.87 1323.74 81.00 Z" />
<path fill="#00507d" opacity="1.00" d=" M 1593.17 75.29 C 1595.02 74.64 1597.04 74.75 1599.01 74.73 C 1612.64 74.80 1626.28 74.69 1639.92 74.78 C 1642.33 74.58 1645.31 76.06 1644.98 78.88 C 1645.03 103.90 1644.98 128.93 1645.00 153.95 C 1645.53 208.97 1645.11 264.00 1645.27 319.02 C 1645.21 321.02 1645.39 323.09 1644.78 325.04 C 1643.83 327.23 1641.07 327.43 1639.02 327.50 C 1624.69 327.48 1610.36 327.57 1596.04 327.46 C 1593.49 327.61 1590.72 325.87 1591.01 323.07 C 1590.97 242.05 1591.03 161.03 1590.98 80.01 C 1590.82 78.21 1591.23 75.98 1593.17 75.29 Z" />
<path fill="#00507d" opacity="1.00" d=" M 2569.01 79.99 C 2568.65 77.16 2571.30 74.73 2574.05 74.80 C 2588.35 74.67 2602.66 74.79 2616.97 74.74 C 2619.91 74.37 2623.30 76.64 2622.98 79.87 C 2623.02 111.24 2622.99 142.62 2623.00 174.00 C 2622.95 191.98 2623.16 209.97 2622.89 227.95 C 2604.96 228.73 2586.97 228.12 2569.02 228.27 C 2538.00 228.22 2506.98 228.27 2475.96 228.25 C 2472.88 228.67 2469.56 226.25 2469.76 223.02 C 2469.71 208.99 2469.79 194.96 2469.72 180.93 C 2469.69 178.99 2469.65 176.70 2471.33 175.35 C 2473.43 173.52 2476.37 174.07 2478.96 173.98 C 2508.97 174.02 2538.98 173.99 2568.99 174.00 C 2569.02 142.66 2568.98 111.33 2569.01 79.99 Z" />
</g>
<g id="#27a5d5ff">
<path fill="#27a5d5" opacity="1.00" d=" M 2623.00 174.00 C 2653.34 173.98 2683.67 174.04 2714.01 173.97 C 2716.20 174.02 2718.75 173.72 2720.58 175.30 C 2722.68 177.19 2722.72 180.36 2722.67 183.00 C 2722.07 196.66 2723.18 210.36 2722.18 223.99 C 2721.67 226.85 2718.76 228.60 2716.00 228.25 C 2685.03 228.24 2654.06 228.33 2623.09 228.20 C 2622.89 258.79 2623.03 289.39 2623.03 319.98 C 2622.92 321.91 2623.25 324.20 2621.73 325.69 C 2620.39 327.46 2617.99 327.47 2616.02 327.51 C 2602.35 327.46 2588.68 327.54 2575.02 327.48 C 2571.38 328.00 2568.33 324.56 2568.98 321.04 C 2569.04 290.11 2568.95 259.19 2569.02 228.27 C 2586.97 228.12 2604.96 228.73 2622.89 227.95 C 2623.16 209.97 2622.95 191.98 2623.00 174.00 Z" />
</g>
</svg>
