<?xml version="1.0" encoding="UTF-8" ?>
<!DOCTYPE svg PUBLIC "-//W3C//DTD SVG 1.1//EN" "http://www.w3.org/Graphics/SVG/1.1/DTD/svg11.dtd">
<svg width="1537pt" height="423pt" viewBox="0 0 1537 423" version="1.1" xmlns="http://www.w3.org/2000/svg">
<g id="#ffffffff">
<path fill="#ffffff" opacity="1.00" d=" M 1147.74 178.60 C 1157.22 178.48 1166.72 178.44 1176.21 178.60 C 1176.07 232.45 1176.24 286.30 1176.12 340.15 C 1166.68 340.17 1157.24 340.09 1147.81 340.20 C 1147.84 286.33 1147.97 232.46 1147.74 178.60 Z" />
<path fill="#ffffff" opacity="1.00" d=" M 525.01 180.08 C 558.84 180.28 592.67 180.11 626.50 180.17 C 626.47 189.44 626.48 198.72 626.51 208.00 C 602.67 208.00 578.83 208.00 555.00 208.00 C 555.03 220.08 554.95 232.16 555.03 244.24 C 574.17 244.06 593.32 244.24 612.46 244.14 C 612.58 253.40 612.51 262.66 612.47 271.92 C 593.31 271.78 574.15 271.85 554.99 271.88 C 554.96 294.66 555.08 317.45 554.93 340.23 C 544.98 340.09 535.02 340.09 525.07 340.23 C 524.91 286.85 525.04 233.47 525.01 180.08 Z" />
<path fill="#ffffff" opacity="1.00" d=" M 1423.51 180.19 C 1427.72 180.16 1431.95 180.15 1436.18 180.12 C 1436.14 233.48 1436.10 286.84 1436.19 340.20 C 1426.50 340.10 1416.82 340.17 1407.13 340.15 C 1407.25 300.33 1407.03 260.50 1407.24 220.68 C 1397.09 227.07 1386.67 233.04 1376.37 239.20 C 1376.79 228.74 1376.17 218.24 1376.69 207.80 C 1392.05 198.32 1407.95 189.46 1423.51 180.19 Z" />
<path fill="#ffffff" opacity="1.00" d=" M 677.44 223.65 C 692.65 221.80 708.89 224.73 721.51 233.75 C 735.77 244.04 743.90 261.54 744.14 278.95 C 744.47 287.41 743.94 296.00 741.11 304.05 C 736.69 318.54 725.96 331.06 711.98 337.06 C 700.06 342.26 686.59 343.22 673.83 341.24 C 659.30 339.04 645.56 330.91 637.40 318.57 C 627.36 303.62 625.05 284.39 628.84 267.01 C 631.75 253.29 639.75 240.48 651.54 232.71 C 659.25 227.60 668.27 224.59 677.44 223.65 M 679.31 248.33 C 673.30 249.76 668.01 253.52 664.38 258.47 C 658.83 266.09 656.75 275.75 657.08 285.06 C 657.80 294.28 660.56 303.98 667.58 310.42 C 676.79 319.96 693.45 320.14 703.17 311.28 C 711.76 303.54 714.98 291.33 714.32 280.10 C 713.91 269.31 709.45 257.97 700.20 251.82 C 694.19 247.54 686.34 247.17 679.31 248.33 Z" />
<path fill="#ffffff" opacity="1.00" d=" M 801.52 229.65 C 810.08 223.84 821.10 221.62 831.19 224.12 C 831.18 233.47 831.04 242.83 831.26 252.18 C 826.07 248.56 819.38 248.26 813.35 249.38 C 803.83 251.41 796.72 259.51 793.42 268.35 C 788.28 281.23 788.46 295.33 788.52 308.97 C 788.39 319.39 788.77 329.83 788.32 340.25 C 778.88 340.02 769.44 340.20 760.01 340.16 C 759.99 301.77 760.00 263.39 760.01 225.01 C 769.51 224.99 779.01 225.04 788.52 224.98 C 788.29 231.07 788.92 237.20 788.15 243.27 C 792.21 238.39 796.05 233.09 801.52 229.65 Z" />
<path fill="#ffffff" opacity="1.00" d=" M 894.92 224.21 C 906.68 221.35 920.45 224.02 928.78 233.24 C 932.44 236.95 934.46 241.84 936.50 246.55 C 941.36 237.19 949.36 229.17 959.33 225.38 C 968.87 221.73 979.84 222.65 989.03 226.90 C 997.90 231.21 1003.60 240.39 1005.04 249.98 C 1006.17 255.26 1005.80 260.66 1005.85 266.02 C 1005.87 290.73 1005.81 315.44 1005.88 340.15 C 996.30 340.19 986.73 340.05 977.16 340.22 C 977.12 316.13 977.14 292.04 977.15 267.95 C 977.11 263.26 977.60 258.23 975.24 253.97 C 973.25 249.81 968.47 247.48 963.97 247.82 C 956.52 247.12 949.84 252.24 946.28 258.43 C 940.52 268.21 938.94 279.79 938.48 290.96 C 938.50 307.36 938.44 323.76 938.52 340.16 C 928.94 340.14 919.37 340.12 909.81 340.18 C 909.93 314.44 909.80 288.71 909.87 262.98 C 909.84 257.91 908.31 252.10 903.57 249.47 C 900.08 247.32 895.80 247.70 891.92 248.08 C 883.53 250.22 878.34 258.12 875.68 265.86 C 869.73 282.21 871.14 299.87 870.99 316.94 C 870.96 324.70 871.06 332.46 870.92 340.22 C 861.44 340.06 851.95 340.18 842.47 340.17 C 842.56 301.79 842.56 263.41 842.46 225.03 C 851.95 225.00 861.44 224.98 870.94 225.06 C 871.01 231.14 870.96 237.23 871.02 243.31 C 876.55 234.59 884.55 226.59 894.92 224.21 Z" />
<path fill="#ffffff" opacity="1.00" d=" M 1215.00 231.84 C 1223.77 225.86 1234.48 223.46 1244.96 223.12 C 1256.56 222.79 1268.19 227.22 1276.55 235.28 C 1276.52 231.86 1276.47 228.43 1276.45 225.01 C 1285.95 225.03 1295.46 224.96 1304.96 225.04 C 1305.00 263.44 1305.08 301.83 1304.92 340.22 C 1295.42 339.95 1285.90 340.39 1276.41 340.00 C 1276.53 336.31 1276.41 332.62 1276.68 328.94 C 1269.90 337.11 1259.54 341.85 1248.98 342.12 C 1237.30 342.63 1225.24 340.21 1215.33 333.78 C 1200.67 324.37 1192.88 306.97 1191.93 289.96 C 1190.94 279.33 1191.93 268.44 1195.27 258.27 C 1198.80 247.68 1205.51 237.91 1215.00 231.84 M 1244.19 248.34 C 1237.30 250.03 1231.51 254.66 1227.52 260.41 C 1221.90 269.08 1220.66 279.96 1222.05 290.03 C 1223.39 298.82 1227.51 307.75 1235.09 312.81 C 1241.06 317.08 1248.95 318.91 1256.13 317.10 C 1263.36 315.57 1269.48 310.55 1273.44 304.44 C 1279.49 294.33 1280.45 281.66 1277.48 270.40 C 1275.12 261.18 1268.68 252.51 1259.49 249.29 C 1254.66 247.33 1249.23 247.57 1244.19 248.34 Z" />
<path fill="#ffffff" opacity="1.00" d=" M 1026.07 225.05 C 1035.68 224.93 1045.29 225.11 1054.91 224.95 C 1054.78 249.95 1054.91 274.96 1054.84 299.96 C 1054.76 304.80 1056.04 309.89 1059.43 313.50 C 1063.96 317.73 1070.99 318.98 1076.76 316.73 C 1083.71 314.22 1088.48 307.93 1091.52 301.45 C 1095.93 291.63 1097.31 280.69 1097.14 270.01 C 1097.11 255.01 1097.20 240.00 1097.10 225.00 C 1106.71 225.05 1116.32 224.95 1125.93 225.05 C 1125.76 263.41 1125.86 301.78 1125.88 340.15 C 1116.31 340.20 1106.74 340.03 1097.17 340.23 C 1097.11 334.30 1097.10 328.38 1097.23 322.45 C 1091.27 330.23 1083.66 337.20 1074.14 340.20 C 1062.62 343.79 1049.13 342.75 1039.04 335.80 C 1032.84 331.75 1028.98 324.85 1027.32 317.76 C 1025.42 310.32 1026.37 302.61 1026.15 295.04 C 1026.09 271.71 1026.26 248.37 1026.07 225.05 Z" />
</g>
<g id="#004e7eff">
<path fill="#004e7e" opacity="1.00" d=" M 279.64 0.00 L 288.40 0.00 C 299.40 1.20 309.52 7.02 316.75 15.29 C 325.40 25.00 330.35 37.24 334.51 49.38 C 341.23 69.32 344.56 90.28 345.85 111.24 C 345.32 112.79 344.72 114.36 344.84 116.03 C 344.94 123.00 345.41 129.97 345.15 136.95 C 345.04 140.85 344.30 144.91 345.87 148.64 C 345.09 158.78 343.89 168.91 342.17 178.94 C 340.78 186.74 338.39 194.86 332.49 200.49 C 327.84 205.33 320.63 207.75 314.08 205.91 C 308.44 204.62 304.29 199.77 302.55 194.44 C 300.48 188.85 300.89 182.80 301.12 176.97 C 302.83 159.35 305.17 141.71 304.81 123.97 C 304.29 116.61 303.75 108.73 299.34 102.50 C 295.30 96.70 287.35 94.28 280.71 96.63 C 275.92 98.46 271.84 101.78 268.33 105.46 C 261.82 112.60 256.97 121.09 253.06 129.88 C 242.94 152.37 236.38 176.22 228.77 199.62 C 224.48 212.52 217.49 225.00 206.59 233.45 C 196.63 241.23 184.02 244.79 171.58 245.84 C 165.98 244.43 160.03 244.76 154.39 245.75 C 135.33 243.71 118.81 231.08 108.85 215.14 C 98.90 198.91 89.69 182.26 80.19 165.77 C 75.70 158.08 71.69 149.99 65.75 143.28 C 62.59 139.78 57.98 136.58 53.03 137.69 C 47.81 138.41 43.67 142.79 42.55 147.83 C 40.58 156.02 41.62 164.58 43.25 172.74 C 46.17 186.76 50.90 200.31 54.98 214.01 C 57.00 220.86 59.03 227.78 59.79 234.90 C 60.41 241.03 58.92 247.91 54.08 252.08 C 47.90 257.42 38.23 256.71 31.80 252.19 C 26.14 247.52 22.76 240.70 20.01 234.04 C 9.24 206.73 1.91 177.88 0.00 148.54 L 0.00 130.62 C 1.76 107.82 5.83 84.70 16.10 64.08 C 22.85 50.61 33.41 38.25 47.79 32.78 C 59.02 28.48 71.98 28.22 83.21 32.62 C 92.94 36.50 100.17 44.40 107.23 51.83 C 117.04 63.96 125.44 77.16 133.75 90.34 C 138.30 97.65 142.55 105.31 148.75 111.39 C 153.76 116.66 159.90 121.17 167.04 122.96 C 178.25 126.20 191.07 121.33 197.74 111.86 C 201.74 106.70 204.07 100.54 206.56 94.58 C 214.44 75.01 222.02 55.28 231.19 36.26 C 240.56 17.65 258.42 2.29 279.64 0.00 Z" />
</g>
<g id="#01da95ff">
<path fill="#01da95" opacity="1.00" d=" M 443.22 95.15 C 472.82 95.18 502.42 94.78 532.02 95.16 C 845.35 95.16 1158.67 95.16 1471.99 95.16 C 1482.50 95.38 1493.05 94.68 1503.54 95.54 C 1521.34 97.02 1536.48 113.16 1536.55 131.08 C 1536.92 156.70 1536.60 182.34 1536.71 207.97 C 1536.70 266.64 1536.72 325.31 1536.70 383.99 C 1536.80 392.43 1534.96 401.10 1529.82 407.96 C 1524.46 415.75 1515.95 421.00 1506.78 423.00 L 473.39 423.00 C 456.46 420.04 443.21 404.17 443.15 387.02 C 443.15 317.01 443.15 247.01 443.15 177.01 C 442.76 149.72 443.15 122.43 443.22 95.15 M 1147.74 178.60 C 1147.97 232.46 1147.84 286.33 1147.81 340.20 C 1157.24 340.09 1166.68 340.17 1176.12 340.15 C 1176.24 286.30 1176.07 232.45 1176.21 178.60 C 1166.72 178.44 1157.22 178.48 1147.74 178.60 M 525.01 180.08 C 525.04 233.47 524.91 286.85 525.07 340.23 C 535.02 340.09 544.98 340.09 554.93 340.23 C 555.08 317.45 554.96 294.66 554.99 271.88 C 574.15 271.85 593.31 271.78 612.47 271.92 C 612.51 262.66 612.58 253.40 612.46 244.14 C 593.32 244.24 574.17 244.06 555.03 244.24 C 554.95 232.16 555.03 220.08 555.00 208.00 C 578.83 208.00 602.67 208.00 626.51 208.00 C 626.48 198.72 626.47 189.44 626.50 180.17 C 592.67 180.11 558.84 180.28 525.01 180.08 M 1423.51 180.19 C 1407.95 189.46 1392.05 198.32 1376.69 207.80 C 1376.17 218.24 1376.79 228.74 1376.37 239.20 C 1386.67 233.04 1397.09 227.07 1407.24 220.68 C 1407.03 260.50 1407.25 300.33 1407.13 340.15 C 1416.82 340.17 1426.50 340.10 1436.19 340.20 C 1436.10 286.84 1436.14 233.48 1436.18 180.12 C 1431.95 180.15 1427.72 180.16 1423.51 180.19 M 677.44 223.65 C 668.27 224.59 659.25 227.60 651.54 232.71 C 639.75 240.48 631.75 253.29 628.84 267.01 C 625.05 284.39 627.36 303.62 637.40 318.57 C 645.56 330.91 659.30 339.04 673.83 341.24 C 686.59 343.22 700.06 342.26 711.98 337.06 C 725.96 331.06 736.69 318.54 741.11 304.05 C 743.94 296.00 744.47 287.41 744.14 278.95 C 743.90 261.54 735.77 244.04 721.51 233.75 C 708.89 224.73 692.65 221.80 677.44 223.65 M 801.52 229.65 C 796.05 233.09 792.21 238.39 788.15 243.27 C 788.92 237.20 788.29 231.07 788.52 224.98 C 779.01 225.04 769.51 224.99 760.01 225.01 C 760.00 263.39 759.99 301.77 760.01 340.16 C 769.44 340.20 778.88 340.02 788.32 340.25 C 788.77 329.83 788.39 319.39 788.52 308.97 C 788.46 295.33 788.28 281.23 793.42 268.35 C 796.72 259.51 803.83 251.41 813.35 249.38 C 819.38 248.26 826.07 248.56 831.26 252.18 C 831.04 242.83 831.18 233.47 831.19 224.12 C 821.10 221.62 810.08 223.84 801.52 229.65 M 894.92 224.21 C 884.55 226.59 876.55 234.59 871.02 243.31 C 870.96 237.23 871.01 231.14 870.94 225.06 C 861.44 224.98 851.95 225.00 842.46 225.03 C 842.56 263.41 842.56 301.79 842.47 340.17 C 851.95 340.18 861.44 340.06 870.92 340.22 C 871.06 332.46 870.96 324.70 870.99 316.94 C 871.14 299.87 869.73 282.21 875.68 265.86 C 878.34 258.12 883.53 250.22 891.92 248.08 C 895.80 247.70 900.08 247.32 903.57 249.47 C 908.31 252.10 909.84 257.91 909.87 262.98 C 909.80 288.71 909.93 314.44 909.81 340.18 C 919.37 340.12 928.94 340.14 938.52 340.16 C 938.44 323.76 938.50 307.36 938.48 290.96 C 938.94 279.79 940.52 268.21 946.28 258.43 C 949.84 252.24 956.52 247.12 963.97 247.82 C 968.47 247.48 973.25 249.81 975.24 253.97 C 977.60 258.23 977.11 263.26 977.15 267.95 C 977.14 292.04 977.12 316.13 977.16 340.22 C 986.73 340.05 996.30 340.19 1005.88 340.15 C 1005.81 315.44 1005.87 290.73 1005.85 266.02 C 1005.80 260.66 1006.17 255.26 1005.04 249.98 C 1003.60 240.39 997.90 231.21 989.03 226.90 C 979.84 222.65 968.87 221.73 959.33 225.38 C 949.36 229.17 941.36 237.19 936.50 246.55 C 934.46 241.84 932.44 236.95 928.78 233.24 C 920.45 224.02 906.68 221.35 894.92 224.21 M 1215.00 231.84 C 1205.51 237.91 1198.80 247.68 1195.27 258.27 C 1191.93 268.44 1190.94 279.33 1191.93 289.96 C 1192.88 306.97 1200.67 324.37 1215.33 333.78 C 1225.24 340.21 1237.30 342.63 1248.98 342.12 C 1259.54 341.85 1269.90 337.11 1276.68 328.94 C 1276.41 332.62 1276.53 336.31 1276.41 340.00 C 1285.90 340.39 1295.42 339.95 1304.92 340.22 C 1305.08 301.83 1305.00 263.44 1304.96 225.04 C 1295.46 224.96 1285.95 225.03 1276.45 225.01 C 1276.47 228.43 1276.52 231.86 1276.55 235.28 C 1268.19 227.22 1256.56 222.79 1244.96 223.12 C 1234.48 223.46 1223.77 225.86 1215.00 231.84 M 1026.07 225.05 C 1026.26 248.37 1026.09 271.71 1026.15 295.04 C 1026.37 302.61 1025.42 310.32 1027.32 317.76 C 1028.98 324.85 1032.84 331.75 1039.04 335.80 C 1049.13 342.75 1062.62 343.79 1074.14 340.20 C 1083.66 337.20 1091.27 330.23 1097.23 322.45 C 1097.10 328.38 1097.11 334.30 1097.17 340.23 C 1106.74 340.03 1116.31 340.20 1125.88 340.15 C 1125.86 301.78 1125.76 263.41 1125.93 225.05 C 1116.32 224.95 1106.71 225.05 1097.10 225.00 C 1097.20 240.00 1097.11 255.01 1097.14 270.01 C 1097.31 280.69 1095.93 291.63 1091.52 301.45 C 1088.48 307.93 1083.71 314.22 1076.76 316.73 C 1070.99 318.98 1063.96 317.73 1059.43 313.50 C 1056.04 309.89 1054.76 304.80 1054.84 299.96 C 1054.91 274.96 1054.78 249.95 1054.91 224.95 C 1045.29 225.11 1035.68 224.93 1026.07 225.05 Z" />
<path fill="#01da95" opacity="1.00" d=" M 679.31 248.33 C 686.34 247.17 694.19 247.54 700.20 251.82 C 709.45 257.97 713.91 269.31 714.32 280.10 C 714.98 291.33 711.76 303.54 703.17 311.28 C 693.45 320.14 676.79 319.96 667.58 310.42 C 660.56 303.98 657.80 294.28 657.08 285.06 C 656.75 275.75 658.83 266.09 664.38 258.47 C 668.01 253.52 673.30 249.76 679.31 248.33 Z" />
<path fill="#01da95" opacity="1.00" d=" M 1244.19 248.34 C 1249.23 247.57 1254.66 247.33 1259.49 249.29 C 1268.68 252.51 1275.12 261.18 1277.48 270.40 C 1280.45 281.66 1279.49 294.33 1273.44 304.44 C 1269.48 310.55 1263.36 315.57 1256.13 317.10 C 1248.95 318.91 1241.06 317.08 1235.09 312.81 C 1227.51 307.75 1223.39 298.82 1222.05 290.03 C 1220.66 279.96 1221.90 269.08 1227.52 260.41 C 1231.51 254.66 1237.30 250.03 1244.19 248.34 Z" />
</g>
<g id="#02386dff">
<path fill="#02386d" opacity="1.00" d=" M 344.84 116.03 C 344.72 114.36 345.32 112.79 345.85 111.24 C 346.53 123.70 346.75 136.18 345.87 148.64 C 344.30 144.91 345.04 140.85 345.15 136.95 C 345.41 129.97 344.94 123.00 344.84 116.03 Z" />
</g>
<g id="#00336bff">
<path fill="#00336b" opacity="1.00" d=" M 154.39 245.75 C 160.03 244.76 165.98 244.43 171.58 245.84 C 165.86 246.23 160.09 246.39 154.39 245.75 Z" />
</g>
</svg>
