<?xml version="1.0" encoding="UTF-8" ?>
<!DOCTYPE svg PUBLIC "-//W3C//DTD SVG 1.1//EN" "http://www.w3.org/Graphics/SVG/1.1/DTD/svg11.dtd">
<svg width="1223pt" height="423pt" viewBox="0 0 1223 423" version="1.1" xmlns="http://www.w3.org/2000/svg">
<g id="#ffffffff">
<path fill="#ffffff" opacity="1.00" d=" M 1081.44 152.29 C 1087.10 151.72 1090.84 146.96 1094.35 143.00 C 1098.93 147.25 1103.80 151.16 1108.61 155.14 C 1104.28 164.22 1096.15 171.85 1086.07 173.79 C 1080.74 174.33 1075.14 174.19 1070.20 171.90 C 1064.56 169.42 1059.33 165.23 1052.91 165.21 C 1046.85 165.46 1042.49 170.28 1038.93 174.66 C 1034.17 170.54 1029.26 166.60 1024.58 162.39 C 1028.79 153.77 1036.36 146.32 1045.94 144.20 C 1052.66 142.64 1059.84 143.89 1065.87 147.19 C 1070.70 149.70 1075.72 152.99 1081.44 152.29 Z" />
<path fill="#ffffff" opacity="1.00" d=" M 680.26 174.29 C 686.75 172.60 694.26 174.08 698.93 179.10 C 706.19 186.45 705.54 199.87 697.40 206.30 C 688.76 213.69 673.44 210.81 668.87 200.14 C 663.95 190.39 669.40 176.87 680.26 174.29 Z" />
<path fill="#ffffff" opacity="1.00" d=" M 560.89 184.90 C 575.63 178.28 592.36 177.15 608.18 179.69 C 622.05 182.02 635.46 188.50 644.82 199.17 C 651.95 206.97 656.43 216.84 659.08 226.99 C 650.14 229.45 641.09 231.51 632.17 234.04 C 628.53 224.85 622.87 215.99 614.03 211.07 C 602.25 204.73 587.69 204.50 575.33 209.28 C 563.91 213.76 555.23 223.82 551.25 235.29 C 547.30 246.68 546.33 259.03 547.92 270.95 C 549.40 284.44 555.23 298.23 566.48 306.38 C 575.67 313.31 587.69 315.49 598.95 314.16 C 609.02 313.23 618.87 308.21 624.85 299.94 C 628.02 295.97 630.08 291.29 632.16 286.69 C 641.17 288.92 650.12 291.38 659.15 293.52 C 655.68 306.94 648.68 319.81 637.52 328.34 C 621.75 340.73 600.56 343.81 581.11 341.45 C 564.95 339.21 549.38 331.76 538.22 319.76 C 523.26 304.26 516.68 282.16 516.99 260.95 C 516.63 245.98 519.53 230.71 526.50 217.39 C 533.69 202.97 546.10 191.28 560.89 184.90 Z" />
<path fill="#ffffff" opacity="1.00" d=" M 1010.76 188.55 C 1020.76 188.43 1030.77 188.58 1040.77 188.46 C 1058.04 219.36 1075.17 250.35 1092.44 281.25 C 1093.73 283.53 1094.99 285.84 1096.24 288.16 C 1095.86 254.92 1096.50 221.67 1095.91 188.44 C 1105.60 188.58 1115.30 188.45 1125.00 188.52 L 1125.00 188.72 C 1124.70 213.81 1124.95 238.90 1124.87 263.99 C 1124.94 289.22 1124.72 314.44 1124.98 339.67 L 1125.00 340.18 C 1114.90 340.18 1104.81 340.05 1094.73 340.24 C 1076.06 307.03 1057.76 273.60 1039.02 240.43 C 1039.41 273.66 1038.95 306.90 1039.25 340.14 C 1029.76 340.18 1020.28 340.10 1010.80 340.20 C 1010.84 289.65 1010.92 239.10 1010.76 188.55 Z" />
<path fill="#ffffff" opacity="1.00" d=" M 775.25 224.38 C 785.88 221.78 797.78 223.15 807.07 229.12 C 815.31 234.58 819.84 244.29 820.50 253.97 C 820.60 282.47 820.52 310.96 820.54 339.46 C 820.54 339.65 820.54 340.03 820.54 340.22 C 810.98 340.13 801.42 340.07 791.87 340.25 C 792.08 314.60 792.10 288.95 791.86 263.31 C 791.59 256.70 787.72 249.54 780.74 248.25 C 777.63 247.75 774.45 247.74 771.36 248.23 C 765.09 249.84 760.29 254.85 757.13 260.29 C 751.25 270.44 749.68 282.42 749.52 293.98 C 749.46 309.39 749.55 324.80 749.49 340.21 C 740.01 340.12 730.54 340.09 721.06 340.23 L 721.05 339.17 C 720.89 301.21 721.14 263.26 720.93 225.31 L 720.91 224.85 L 722.42 224.91 C 731.24 225.10 740.07 225.03 748.89 224.92 L 749.52 224.90 C 749.44 231.07 749.65 237.24 749.32 243.40 C 755.59 234.48 764.54 227.09 775.25 224.38 Z" />
<path fill="#ffffff" opacity="1.00" d=" M 853.10 237.08 C 865.26 225.17 883.53 221.30 899.99 223.86 C 911.54 225.40 922.46 231.21 930.14 239.99 C 939.43 251.05 944.49 265.57 944.17 280.01 C 944.17 284.06 944.05 288.13 944.31 292.19 C 917.88 291.77 891.43 292.09 864.99 292.02 L 865.16 293.10 C 866.04 300.76 869.68 308.37 876.12 312.86 C 884.21 318.73 895.35 319.16 904.44 315.48 C 910.97 312.76 915.67 307.14 919.27 301.24 C 926.97 304.00 934.55 307.07 942.31 309.64 C 936.78 322.64 926.32 334.09 912.73 338.70 C 904.53 341.71 895.70 342.42 887.03 342.07 C 873.07 341.72 859.06 335.79 849.91 325.10 C 839.32 312.73 834.60 296.07 835.15 279.97 C 835.86 264.22 841.44 248.08 853.10 237.08 M 866.06 268.04 C 865.87 269.77 868.79 269.77 869.68 268.78 L 869.96 268.96 C 885.00 269.37 900.06 268.94 915.11 269.19 C 914.77 268.13 914.45 267.07 914.14 266.02 C 911.86 257.67 905.48 250.31 896.88 248.24 C 892.94 247.74 888.97 247.77 885.03 248.12 C 875.48 250.37 868.24 258.64 866.06 268.04 Z" />
<path fill="#ffffff" opacity="1.00" d=" M 671.14 224.91 L 671.34 224.91 C 680.86 225.12 690.39 224.96 699.92 225.00 C 699.90 263.22 699.73 301.45 700.01 339.67 L 700.02 340.23 C 690.35 340.07 680.68 340.18 671.01 340.15 L 671.02 339.71 C 671.25 303.27 671.11 266.82 671.09 230.38 C 671.10 228.55 671.13 226.73 671.14 224.91 Z" />
</g>
<g id="#004e7eff">
<path fill="#004e7e" opacity="1.00" d=" M 279.83 0.00 L 288.17 0.00 C 300.68 1.21 311.92 8.56 319.38 18.47 C 326.49 27.63 330.77 38.54 334.51 49.40 C 341.19 69.32 344.57 90.22 345.85 111.15 C 343.93 118.32 345.55 125.72 345.24 133.02 C 345.04 138.27 344.45 143.61 345.85 148.77 C 345.15 158.54 343.93 168.29 342.35 177.96 C 340.99 185.89 338.76 194.20 332.92 200.07 C 328.44 204.88 321.54 207.60 315.01 206.15 C 309.53 205.23 305.14 200.93 303.11 195.90 C 300.49 189.94 300.80 183.29 301.13 176.94 C 302.16 165.60 303.70 154.29 304.25 142.90 C 305.05 132.77 305.40 122.49 303.47 112.46 C 302.29 106.94 299.75 101.17 294.67 98.20 C 288.63 94.16 280.34 95.46 274.81 99.80 C 263.75 107.89 257.16 120.47 251.80 132.77 C 242.13 154.90 235.81 178.26 228.24 201.15 C 223.78 213.94 216.52 226.25 205.41 234.33 C 195.49 241.68 183.15 244.86 171.02 245.93 C 162.31 246.43 153.38 246.50 144.98 243.81 C 129.33 239.26 116.53 227.69 108.11 214.00 C 96.25 194.34 85.16 174.23 73.65 154.38 C 70.62 149.51 67.53 144.52 63.11 140.77 C 60.37 138.51 56.72 136.84 53.11 137.71 C 48.19 138.38 44.06 142.28 42.79 147.03 C 40.86 153.75 41.36 160.88 42.34 167.71 C 45.63 187.61 53.45 206.36 58.22 225.89 C 59.94 233.17 61.27 241.47 57.24 248.25 C 51.05 259.22 33.69 257.59 27.35 247.58 C 21.77 240.14 18.84 231.21 15.67 222.58 C 7.43 198.66 1.54 173.78 0.00 148.47 L 0.00 130.86 C 1.54 109.17 5.47 87.31 14.49 67.39 C 21.07 53.10 31.47 39.55 46.39 33.38 C 57.04 28.81 69.35 28.25 80.42 31.60 C 91.68 35.12 99.95 44.02 107.72 52.43 C 118.77 66.33 128.23 81.40 137.53 96.50 C 142.55 104.82 148.67 112.72 156.76 118.26 C 164.25 123.39 174.06 125.61 182.82 122.59 C 192.87 119.75 199.74 110.88 203.60 101.60 C 211.55 82.78 218.59 63.58 227.11 45.01 C 231.38 35.03 236.70 25.22 244.68 17.70 C 253.90 8.00 266.48 1.44 279.83 0.00 Z" />
</g>
<g id="#ff544dff">
<path fill="#ff544d" opacity="1.00" d=" M 443.16 95.18 C 463.43 95.24 483.71 94.90 503.98 94.99 C 554.32 95.33 604.66 95.09 655.00 95.16 C 831.34 95.15 1007.68 95.17 1184.02 95.15 C 1190.67 95.20 1197.43 96.39 1203.33 99.59 C 1214.17 105.18 1221.55 116.46 1223.00 128.51 L 1223.00 389.40 C 1221.93 405.72 1208.94 420.19 1192.83 423.00 L 472.98 423.00 C 456.27 419.80 443.23 404.13 443.16 387.11 C 443.10 347.42 443.15 307.73 443.13 268.04 C 443.27 210.42 442.84 152.80 443.16 95.18 M 1081.44 152.29 C 1075.72 152.99 1070.70 149.70 1065.87 147.19 C 1059.84 143.89 1052.66 142.64 1045.94 144.20 C 1036.36 146.32 1028.79 153.77 1024.58 162.39 C 1029.26 166.60 1034.17 170.54 1038.93 174.66 C 1042.49 170.28 1046.85 165.46 1052.91 165.21 C 1059.33 165.23 1064.56 169.42 1070.20 171.90 C 1075.14 174.19 1080.74 174.33 1086.07 173.79 C 1096.15 171.85 1104.28 164.22 1108.61 155.14 C 1103.80 151.16 1098.93 147.25 1094.35 143.00 C 1090.84 146.96 1087.10 151.72 1081.44 152.29 M 680.26 174.29 C 669.40 176.87 663.95 190.39 668.87 200.14 C 673.44 210.81 688.76 213.69 697.40 206.30 C 705.54 199.87 706.19 186.45 698.93 179.10 C 694.26 174.08 686.75 172.60 680.26 174.29 M 560.89 184.90 C 546.10 191.28 533.69 202.97 526.50 217.39 C 519.53 230.71 516.63 245.98 516.99 260.95 C 516.68 282.16 523.26 304.26 538.22 319.76 C 549.38 331.76 564.95 339.21 581.11 341.45 C 600.56 343.81 621.75 340.73 637.52 328.34 C 648.68 319.81 655.68 306.94 659.15 293.52 C 650.12 291.38 641.17 288.92 632.16 286.69 C 630.08 291.29 628.02 295.97 624.85 299.94 C 618.87 308.21 609.02 313.23 598.95 314.16 C 587.69 315.49 575.67 313.31 566.48 306.38 C 555.23 298.23 549.40 284.44 547.92 270.95 C 546.33 259.03 547.30 246.68 551.25 235.29 C 555.23 223.82 563.91 213.76 575.33 209.28 C 587.69 204.50 602.25 204.73 614.03 211.07 C 622.87 215.99 628.53 224.85 632.17 234.04 C 641.09 231.51 650.14 229.45 659.08 226.99 C 656.43 216.84 651.95 206.97 644.82 199.17 C 635.46 188.50 622.05 182.02 608.18 179.69 C 592.36 177.15 575.63 178.28 560.89 184.90 M 1010.76 188.55 C 1010.92 239.10 1010.84 289.65 1010.80 340.20 C 1020.28 340.10 1029.76 340.18 1039.25 340.14 C 1038.95 306.90 1039.41 273.66 1039.02 240.43 C 1057.76 273.60 1076.06 307.03 1094.73 340.24 C 1104.81 340.05 1114.90 340.18 1125.00 340.18 L 1124.98 339.67 C 1125.69 338.55 1126.04 337.33 1126.01 336.01 C 1125.97 290.67 1125.98 245.33 1126.00 200.00 C 1125.90 196.24 1126.59 192.26 1125.00 188.72 L 1125.00 188.52 C 1115.30 188.45 1105.60 188.58 1095.91 188.44 C 1095.31 189.87 1094.75 191.35 1094.83 192.92 C 1095.05 222.53 1094.76 252.14 1095.03 281.75 C 1094.38 281.62 1093.09 281.37 1092.44 281.25 C 1075.17 250.35 1058.04 219.36 1040.77 188.46 C 1030.77 188.58 1020.76 188.43 1010.76 188.55 M 671.34 224.91 L 671.14 224.91 C 671.13 226.73 671.10 228.55 671.09 230.38 C 670.21 231.76 669.87 233.39 669.91 235.01 C 669.95 268.65 669.97 302.29 669.92 335.92 C 669.85 337.30 670.22 338.57 671.02 339.71 L 671.01 340.15 C 680.68 340.18 690.35 340.07 700.02 340.23 L 700.01 339.67 C 700.93 338.27 701.13 336.60 701.11 334.97 C 701.08 321.31 701.06 307.65 701.08 293.99 C 700.84 270.74 701.53 247.47 700.69 224.23 C 693.14 223.62 685.57 224.02 678.01 223.86 C 675.75 223.90 673.33 223.64 671.34 224.91 M 721.22 224.26 L 722.42 224.91 L 720.91 224.85 L 720.93 225.31 C 720.30 226.45 719.98 227.67 719.96 228.96 C 720.05 265.67 719.99 302.38 719.99 339.09 L 721.05 339.17 L 721.06 340.23 C 730.54 340.09 740.01 340.12 749.49 340.21 C 749.55 324.80 749.46 309.39 749.52 293.98 C 749.68 282.42 751.25 270.44 757.13 260.29 C 760.29 254.85 765.09 249.84 771.36 248.23 C 774.34 249.46 777.74 249.47 780.74 248.25 C 787.72 249.54 791.59 256.70 791.86 263.31 C 791.36 264.83 790.88 266.38 790.92 268.00 C 790.95 290.35 791.02 312.71 790.89 335.07 C 790.83 336.84 791.31 338.57 791.87 340.25 C 801.42 340.07 810.98 340.13 820.54 340.22 C 820.54 340.03 820.54 339.65 820.54 339.46 C 821.66 338.24 822.08 336.65 822.01 335.03 C 821.97 311.67 821.97 288.31 821.98 264.95 C 822.02 260.88 822.10 256.79 821.59 252.73 L 820.50 253.97 C 819.84 244.29 815.31 234.58 807.07 229.12 C 797.78 223.15 785.88 221.78 775.25 224.38 C 764.54 227.09 755.59 234.48 749.32 243.40 C 749.65 237.24 749.44 231.07 749.52 224.90 L 748.89 224.92 C 746.14 223.48 742.97 224.04 740.01 223.99 C 733.74 224.19 727.46 223.68 721.22 224.26 M 853.10 237.08 C 841.44 248.08 835.86 264.22 835.15 279.97 C 834.60 296.07 839.32 312.73 849.91 325.10 C 859.06 335.79 873.07 341.72 887.03 342.07 C 895.70 342.42 904.53 341.71 912.73 338.70 C 926.32 334.09 936.78 322.64 942.31 309.64 C 934.55 307.07 926.97 304.00 919.27 301.24 C 915.67 307.14 910.97 312.76 904.44 315.48 C 895.35 319.16 884.21 318.73 876.12 312.86 C 869.68 308.37 866.04 300.76 865.16 293.10 C 890.11 293.04 915.07 293.04 940.03 293.09 C 941.50 293.13 942.94 292.74 944.31 292.19 C 944.05 288.13 944.17 284.06 944.17 280.01 C 944.49 265.57 939.43 251.05 930.14 239.99 C 922.46 231.21 911.54 225.40 899.99 223.86 C 883.53 221.30 865.26 225.17 853.10 237.08 Z" />
<path fill="#ff544d" opacity="1.00" d=" M 866.06 268.04 C 868.24 258.64 875.48 250.37 885.03 248.12 C 888.89 249.34 892.98 249.32 896.88 248.24 C 905.48 250.31 911.86 257.67 914.14 266.02 C 913.39 266.66 912.65 267.31 911.92 267.96 C 900.96 267.95 889.99 268.01 879.03 267.84 C 875.96 267.77 872.93 268.24 869.96 268.96 L 869.68 268.78 C 868.66 268.01 867.29 267.58 866.06 268.04 Z" />
</g>
<g id="#02386dff">
<path fill="#02386d" opacity="1.00" d=" M 345.24 133.02 C 345.55 125.72 343.93 118.32 345.85 111.15 C 346.53 123.68 346.76 136.24 345.85 148.77 C 344.45 143.61 345.04 138.27 345.24 133.02 Z" />
</g>
<g id="#fe3c36ff">
<path fill="#fe3c36" opacity="1.00" d=" M 1094.83 192.92 C 1094.75 191.35 1095.31 189.87 1095.91 188.44 C 1096.50 221.67 1095.86 254.92 1096.24 288.16 C 1094.99 285.84 1093.73 283.53 1092.44 281.25 C 1093.09 281.37 1094.38 281.62 1095.03 281.75 C 1094.76 252.14 1095.05 222.53 1094.83 192.92 Z" />
</g>
<g id="#ff3b32ff">
<path fill="#ff3b32" opacity="1.00" d=" M 1125.00 188.72 C 1126.59 192.26 1125.90 196.24 1126.00 200.00 C 1125.98 245.33 1125.97 290.67 1126.01 336.01 C 1126.04 337.33 1125.69 338.55 1124.98 339.67 C 1124.72 314.44 1124.94 289.22 1124.87 263.99 C 1124.95 238.90 1124.70 213.81 1125.00 188.72 Z" />
</g>
<g id="#ff3937ff">
<path fill="#ff3937" opacity="1.00" d=" M 671.34 224.91 C 673.33 223.64 675.75 223.90 678.01 223.86 C 685.57 224.02 693.14 223.62 700.69 224.23 C 701.53 247.47 700.84 270.74 701.08 293.99 C 701.06 307.65 701.08 321.31 701.11 334.97 C 701.13 336.60 700.93 338.27 700.01 339.67 C 699.73 301.45 699.90 263.22 699.92 225.00 C 690.39 224.96 680.86 225.12 671.34 224.91 Z" />
</g>
<g id="#fd342dff">
<path fill="#fd342d" opacity="1.00" d=" M 721.22 224.26 C 727.46 223.68 733.74 224.19 740.01 223.99 C 742.97 224.04 746.14 223.48 748.89 224.92 C 740.07 225.03 731.24 225.10 722.42 224.91 L 721.22 224.26 Z" />
</g>
<g id="#fe352dff">
<path fill="#fe352d" opacity="1.00" d=" M 719.96 228.96 C 719.98 227.67 720.30 226.45 720.93 225.31 C 721.14 263.26 720.89 301.21 721.05 339.17 L 719.99 339.09 C 719.99 302.38 720.05 265.67 719.96 228.96 Z" />
</g>
<g id="#fe3c33ff">
<path fill="#fe3c33" opacity="1.00" d=" M 669.91 235.01 C 669.87 233.39 670.21 231.76 671.09 230.38 C 671.11 266.82 671.25 303.27 671.02 339.71 C 670.22 338.57 669.85 337.30 669.92 335.92 C 669.97 302.29 669.95 268.65 669.91 235.01 Z" />
</g>
<g id="#fa3a2fff">
<path fill="#fa3a2f" opacity="1.00" d=" M 771.36 248.23 C 774.45 247.74 777.63 247.75 780.74 248.25 C 777.74 249.47 774.34 249.46 771.36 248.23 Z" />
</g>
<g id="#fe3a33ff">
<path fill="#fe3a33" opacity="1.00" d=" M 885.03 248.12 C 888.97 247.77 892.94 247.74 896.88 248.24 C 892.98 249.32 888.89 249.34 885.03 248.12 Z" />
</g>
<g id="#ff433aff">
<path fill="#ff433a" opacity="1.00" d=" M 820.50 253.97 L 821.59 252.73 C 822.10 256.79 822.02 260.88 821.98 264.95 C 821.97 288.31 821.97 311.67 822.01 335.03 C 822.08 336.65 821.66 338.24 820.54 339.46 C 820.52 310.96 820.60 282.47 820.50 253.97 Z" />
</g>
<g id="#ff332eff">
<path fill="#ff332e" opacity="1.00" d=" M 790.92 268.00 C 790.88 266.38 791.36 264.83 791.86 263.31 C 792.10 288.95 792.08 314.60 791.87 340.25 C 791.31 338.57 790.83 336.84 790.89 335.07 C 791.02 312.71 790.95 290.35 790.92 268.00 Z" />
</g>
<g id="#fc3c31ff">
<path fill="#fc3c31" opacity="1.00" d=" M 911.92 267.96 C 912.65 267.31 913.39 266.66 914.14 266.02 C 914.45 267.07 914.77 268.13 915.11 269.19 C 900.06 268.94 885.00 269.37 869.96 268.96 C 872.93 268.24 875.96 267.77 879.03 267.84 C 889.99 268.01 900.96 267.95 911.92 267.96 Z" />
</g>
<g id="#fa3331ff">
<path fill="#fa3331" opacity="1.00" d=" M 866.06 268.04 C 867.29 267.58 868.66 268.01 869.68 268.78 C 868.79 269.77 865.87 269.77 866.06 268.04 Z" />
</g>
<g id="#ff352bff">
<path fill="#ff352b" opacity="1.00" d=" M 864.99 292.02 C 891.43 292.09 917.88 291.77 944.31 292.19 C 942.94 292.74 941.50 293.13 940.03 293.09 C 915.07 293.04 890.11 293.04 865.16 293.10 L 864.99 292.02 Z" />
</g>
</svg>
