<?xml version="1.0" encoding="UTF-8" standalone="no"?>
<svg
   xmlns:dc="http://purl.org/dc/elements/1.1/"
   xmlns:cc="http://creativecommons.org/ns#"
   xmlns:rdf="http://www.w3.org/1999/02/22-rdf-syntax-ns#"
   xmlns:svg="http://www.w3.org/2000/svg"
   xmlns="http://www.w3.org/2000/svg"
   xmlns:xlink="http://www.w3.org/1999/xlink"
   xmlns:sodipodi="http://sodipodi.sourceforge.net/DTD/sodipodi-0.dtd"
   xmlns:inkscape="http://www.inkscape.org/namespaces/inkscape"
   height="512"
   width="512"
   version="1.1"
   id="svg315"
   sodipodi:docname="Movistar+ (square).svg"
   inkscape:version="0.92.4 (5da689c313, 2019-01-14)"
   inkscape:export-filename="C:\Users\Developer\source\repos\AlphaCentaury\MovistarTV\1.5 'Kruger 60'\Logos\Sources\Movistar+\Comunidad_Andalucía_256x.png"
   inkscape:export-xdpi="48"
   inkscape:export-ydpi="48">
  <metadata
     id="metadata321">
    <rdf:RDF>
      <cc:Work
         rdf:about="">
        <dc:format>image/svg+xml</dc:format>
        <dc:type
           rdf:resource="http://purl.org/dc/dcmitype/StillImage" />
        <dc:title></dc:title>
      </cc:Work>
    </rdf:RDF>
  </metadata>
  <defs
     id="defs319" />
  <sodipodi:namedview
     pagecolor="#ffffff"
     bordercolor="#666666"
     borderopacity="1"
     objecttolerance="10"
     gridtolerance="10"
     guidetolerance="10"
     inkscape:pageopacity="0"
     inkscape:pageshadow="2"
     inkscape:window-width="1920"
     inkscape:window-height="1017"
     id="namedview317"
     showgrid="false"
     inkscape:zoom="1.5146667"
     inkscape:cx="244.40598"
     inkscape:cy="326.19222"
     inkscape:window-x="-8"
     inkscape:window-y="-8"
     inkscape:window-maximized="1"
     inkscape:current-layer="svg315" />
  <linearGradient
     id="a"
     gradientUnits="userSpaceOnUse"
     x1="298.40091"
     x2="318.69284"
     xlink:href="#b"
     y1="115.6875"
     y2="115.6875" />
  <linearGradient
     id="b"
     gradientUnits="userSpaceOnUse"
     x1="12.9409"
     x2="61.898899"
     y1="290.42429"
     y2="290.42429">
    <stop
       offset="0"
       stop-color="#bcbec0"
       id="stop3" />
    <stop
       offset=".4727"
       stop-color="#fff"
       id="stop5" />
    <stop
       offset="1"
       stop-color="#bcbec0"
       id="stop7" />
  </linearGradient>
  <linearGradient
     id="c"
     gradientUnits="userSpaceOnUse"
     x1="-0.132247"
     x2="31.850998"
     y1="63.484375"
     y2="63.484375">
    <stop
       offset="0"
       stop-color="#ffda0f"
       id="stop10" />
    <stop
       offset=".4727"
       stop-color="#fff"
       id="stop12" />
    <stop
       offset="1"
       stop-color="#ffda0f"
       id="stop14" />
  </linearGradient>
  <linearGradient
     id="d"
     gradientUnits="userSpaceOnUse"
     x1="206.71342"
     x2="227.00533"
     xlink:href="#b"
     y1="115.6875"
     y2="115.6875" />
  <linearGradient
     id="e"
     gradientUnits="userSpaceOnUse"
     x1="129.75977"
     x2="129.75977"
     y1="217.98067"
     y2="162.09128">
    <stop
       offset="0"
       stop-color="#ffda0f"
       id="stop18" />
    <stop
       offset=".5"
       stop-color="#fff"
       id="stop20" />
    <stop
       offset="1"
       stop-color="#ffda0f"
       id="stop22" />
  </linearGradient>
  <g
     transform="matrix(2.1298858,0,0,2.1298858,-152.29617,-9.558633)"
     id="g881">
    <path
       style="opacity:1;fill:#004f7c"
       inkscape:connector-curvature="0"
       id="path2"
       d="m 192.31714,13.16987 c 3.79,-1.73 8.56,-1.64 11.9,1.01 4.66,3.61 6.44,9.56 7.91,15.02 2.42,10.61 2.7,21.87 0.19,32.49 -0.75,3.77 -6.02,6.66 -8.88,3.25 -2.59,-3.98 -0.63,-9 -0.59,-13.39 0.08,-4.33 1.3,-9.53 -1.73,-13.14 -2.89,-2.75 -6.81,-0.01 -8.58,2.64 -5.7,8.11 -6.89,18.29 -10.9,27.18 -5.03,10.65 -22.01,11.82 -28.73,2.25 -4.35,-6.18 -7.49,-13.12 -11.62,-19.44 -1,-1.35 -2.43,-3.18 -4.35,-2.69 -2.43,0.31 -3.06,3.1 -2.98,5.14 0.21,7.24 4.01,13.78 4.8,20.92 0.4,2.73 -1.96,5.56 -4.82,5.02 -3.29,-0.22 -4.75,-3.64 -5.84,-6.27 -3.87,-10.31 -6.35,-21.56 -4.36,-32.56 1.12,-6.29 2.98,-12.98 7.85,-17.45 4.35,-4.05 11.78,-4.66 16.37,-0.66 6.37,5.22 9.19,13.35 14.63,19.35 3.33,3.84 10.21,3.78 12.79,-0.88 3.53,-6.71 5.49,-14.17 9.22,-20.79 1.81,-3.01 4.48,-5.57 7.72,-7 z" />
    <path
       style="opacity:1;fill:#004f7c"
       inkscape:connector-curvature="0"
       id="path4"
       d="m 235.82714,12.05987 c 2.94,-0.09 5.89,-0.08 8.83,0.04 0,5.41 -0.01,10.81 0.01,16.22 0,2.97 -0.01,5.94 -0.03,8.9 -2.95,0.03 -5.9,0.04 -8.84,0.04 -5.38,-0.02 -10.76,0.01 -16.14,-0.03 -0.16,-2.96 -0.16,-5.92 -0.07,-8.88 5.4,-0.08 10.79,-0.01 16.19,-0.05 0.03,-5.41 -0.03,-10.82 0.05,-16.24 z" />
    <g
       id="#20a5d5ff"
       transform="translate(121.90714,10.49987)">
      <path
         d="m 122.76,17.82 c 5.4,0 10.81,-0.05 16.21,0.04 0.12,2.94 0.12,5.88 -0.01,8.82 -5.4,0.14 -10.8,0.04 -16.2,0.08 -0.04,5.41 0.05,10.82 -0.07,16.23 -2.92,0.1 -5.85,0.09 -8.77,-0.04 -0.07,-5.4 -0.03,-10.79 -0.03,-16.19 2.94,0 5.89,-0.01 8.84,-0.04 0.02,-2.96 0.03,-5.93 0.03,-8.9 z"
         id="path23"
         inkscape:connector-curvature="0"
         style="opacity:1;fill:#20a5d5" />
    </g>
  </g>
</svg>
