<?xml version="1.0" encoding="UTF-8" ?>
<!DOCTYPE svg PUBLIC "-//W3C//DTD SVG 1.1//EN" "http://www.w3.org/Graphics/SVG/1.1/DTD/svg11.dtd">
<svg width="1011pt" height="423pt" viewBox="0 0 1011 423" version="1.1" xmlns="http://www.w3.org/2000/svg">
<g id="#ffffffff">
<path fill="#ffffff" opacity="1.00" d=" M 541.48 197.50 C 553.34 186.55 569.06 180.15 585.07 178.80 C 600.99 177.34 617.70 180.01 631.31 188.76 C 645.68 197.81 655.24 212.98 659.75 229.13 C 650.55 231.33 641.48 234.06 632.26 236.16 C 627.95 225.91 621.42 215.93 611.42 210.50 C 599.47 204.12 584.63 204.88 572.54 210.47 C 561.60 215.63 553.77 225.98 550.43 237.47 C 546.05 252.43 546.14 268.66 550.43 283.64 C 554.02 296.32 563.39 307.65 576.10 311.89 C 587.19 315.54 599.98 315.74 610.59 310.45 C 620.44 305.46 626.49 295.13 628.19 284.47 C 618.28 284.56 608.38 284.47 598.47 284.53 C 598.55 276.17 598.55 267.82 598.47 259.47 C 618.07 259.57 637.67 259.37 657.27 259.57 C 657.04 286.42 657.09 313.28 657.24 340.14 C 648.86 340.17 640.48 340.12 632.10 340.17 C 631.02 334.66 630.28 329.07 629.70 323.49 C 622.92 333.35 611.87 339.85 600.08 341.55 C 581.23 344.03 561.30 339.33 546.09 327.78 C 531.21 316.61 522.00 299.17 518.70 281.08 C 516.21 267.22 516.21 252.85 518.89 239.02 C 521.99 223.35 529.55 208.28 541.48 197.50 Z" />
<path fill="#ffffff" opacity="1.00" d=" M 805.02 178.46 C 814.51 178.57 824.01 178.53 833.51 178.49 C 833.46 232.38 833.43 286.27 833.53 340.16 C 824.04 340.18 814.55 340.05 805.06 340.23 C 804.93 286.31 805.02 232.38 805.02 178.46 Z" />
<path fill="#ffffff" opacity="1.00" d=" M 868.27 192.34 C 874.38 183.80 884.79 179.34 895.07 178.70 C 902.09 178.32 909.32 178.19 916.15 180.19 C 916.20 188.87 916.03 197.55 916.23 206.23 C 910.88 203.71 904.85 202.32 898.94 203.12 C 895.13 203.88 891.59 206.57 890.42 210.36 C 888.90 215.08 889.66 220.08 889.42 224.94 C 897.57 225.09 905.73 225.01 913.89 224.96 C 913.82 233.13 913.82 241.29 913.89 249.46 C 905.75 249.49 897.61 249.44 889.47 249.49 C 889.51 279.71 889.40 309.94 889.53 340.16 C 879.95 340.15 870.37 340.11 860.80 340.18 C 860.89 309.95 860.86 279.71 860.81 249.48 C 855.91 249.48 851.00 249.48 846.10 249.45 C 846.19 241.29 846.17 233.12 846.11 224.96 C 851.04 225.05 855.97 224.97 860.90 225.04 C 860.57 213.83 861.30 201.66 868.27 192.34 Z" />
<path fill="#ffffff" opacity="1.00" d=" M 722.55 223.62 C 738.12 221.81 754.84 224.93 767.48 234.59 C 779.27 243.38 786.47 257.39 788.46 271.82 C 790.43 286.25 788.71 301.55 781.57 314.43 C 774.11 328.12 760.27 337.91 744.98 340.81 C 728.83 343.89 711.05 342.16 697.04 333.03 C 685.08 325.46 676.98 312.71 673.86 299.03 C 669.88 281.54 672.15 262.16 682.13 247.02 C 690.95 233.40 706.55 225.06 722.55 223.62 M 724.24 248.33 C 720.20 249.45 716.23 251.25 713.22 254.24 C 704.62 261.83 701.60 273.93 701.99 285.02 C 702.56 292.95 704.62 301.11 709.68 307.42 C 715.44 315.30 725.97 319.31 735.51 317.31 C 742.78 316.11 749.42 311.56 753.22 305.25 C 759.07 296.04 760.23 284.58 758.54 273.99 C 756.81 264.67 751.86 255.34 743.24 250.75 C 737.52 247.42 730.59 247.33 724.24 248.33 Z" />
</g>
<g id="#004e7eff">
<path fill="#004e7e" opacity="1.00" d=" M 279.70 0.00 L 288.31 0.00 C 299.35 1.16 309.51 7.01 316.76 15.30 C 321.10 20.17 324.51 25.79 327.45 31.59 C 338.96 56.52 344.17 83.93 345.86 111.21 C 343.81 117.26 345.49 123.73 345.19 129.97 C 345.70 136.21 343.84 142.64 345.85 148.72 C 345.17 158.23 343.98 167.71 342.50 177.13 C 341.11 185.31 338.99 193.97 332.94 200.04 C 328.49 204.88 321.57 207.60 315.03 206.15 C 309.56 205.22 305.10 200.97 303.11 195.90 C 300.36 189.62 300.81 182.59 301.21 175.92 C 302.12 167.29 303.00 158.67 303.82 150.04 C 304.50 138.35 305.78 126.55 303.90 114.91 C 302.96 108.56 300.50 101.65 294.69 98.22 C 289.77 94.93 283.01 95.03 277.92 97.88 C 270.51 101.89 265.13 108.65 260.62 115.59 C 254.17 125.84 249.80 137.19 245.49 148.45 C 239.55 164.86 234.53 181.58 229.24 198.20 C 225.02 211.44 218.09 224.34 207.04 233.10 C 197.04 241.11 184.25 244.77 171.66 245.83 C 165.98 244.42 160.01 244.73 154.30 245.73 C 135.05 243.65 118.47 230.76 108.50 214.63 C 98.36 197.92 88.86 180.83 79.11 163.89 C 74.90 156.61 71.02 148.97 65.25 142.76 C 62.19 139.51 57.75 136.62 53.10 137.72 C 47.87 138.40 43.67 142.76 42.55 147.82 C 40.53 156.25 41.68 165.05 43.39 173.43 C 46.72 189.02 52.20 204.03 56.54 219.35 C 58.09 225.12 59.66 230.97 59.89 236.97 C 60.09 242.47 58.36 248.38 54.09 252.07 C 47.19 257.97 35.90 256.62 29.70 250.33 C 24.45 244.70 21.25 237.55 18.58 230.41 C 8.64 204.17 1.79 176.57 0.00 148.51 L 0.00 130.73 C 1.70 107.87 5.87 84.74 16.11 64.05 C 23.00 50.37 33.81 37.78 48.58 32.50 C 59.85 28.41 72.79 28.29 83.92 32.92 C 93.33 36.90 100.34 44.60 107.24 51.85 C 119.28 66.79 129.28 83.22 139.41 99.47 C 143.69 106.31 149.06 112.53 155.52 117.40 C 163.19 123.10 173.52 125.78 182.77 122.60 C 192.83 119.78 199.73 110.91 203.58 101.62 C 211.45 83.04 218.39 64.07 226.80 45.71 C 231.08 35.73 236.23 25.79 244.19 18.21 C 253.43 8.27 266.16 1.52 279.70 0.00 Z" />
</g>
<g id="#01da95ff">
<path fill="#01da95" opacity="1.00" d=" M 443.22 95.14 C 454.79 95.12 466.37 95.28 477.94 95.01 C 642.97 95.33 808.02 95.06 973.05 95.17 C 983.65 95.22 994.32 99.48 1001.32 107.57 C 1007.73 114.20 1010.72 123.40 1011.00 132.49 L 1011.00 386.55 C 1010.73 395.88 1007.37 405.22 1000.77 411.94 C 995.45 417.77 988.16 421.56 980.43 423.00 L 472.89 423.00 C 466.89 421.41 460.96 419.01 456.32 414.77 C 448.17 407.99 443.36 397.56 443.15 387.01 C 443.15 342.02 443.15 297.03 443.15 252.04 C 443.31 199.74 442.75 147.44 443.22 95.14 M 541.48 197.50 C 529.55 208.28 521.99 223.35 518.89 239.02 C 516.21 252.85 516.21 267.22 518.70 281.08 C 522.00 299.17 531.21 316.61 546.09 327.78 C 561.30 339.33 581.23 344.03 600.08 341.55 C 611.87 339.85 622.92 333.35 629.70 323.49 C 630.28 329.07 631.02 334.66 632.10 340.17 C 640.48 340.12 648.86 340.17 657.24 340.14 C 657.09 313.28 657.04 286.42 657.27 259.57 C 637.67 259.37 618.07 259.57 598.47 259.47 C 598.55 267.82 598.55 276.17 598.47 284.53 C 608.38 284.47 618.28 284.56 628.19 284.47 C 626.49 295.13 620.44 305.46 610.59 310.45 C 599.98 315.74 587.19 315.54 576.10 311.89 C 563.39 307.65 554.02 296.32 550.43 283.64 C 546.14 268.66 546.05 252.43 550.43 237.47 C 553.77 225.98 561.60 215.63 572.54 210.47 C 584.63 204.88 599.47 204.12 611.42 210.50 C 621.42 215.93 627.95 225.91 632.26 236.16 C 641.48 234.06 650.55 231.33 659.75 229.13 C 655.24 212.98 645.68 197.81 631.31 188.76 C 617.70 180.01 600.99 177.34 585.07 178.80 C 569.06 180.15 553.34 186.55 541.48 197.50 M 805.02 178.46 C 805.02 232.38 804.93 286.31 805.06 340.23 C 814.55 340.05 824.04 340.18 833.53 340.16 C 833.43 286.27 833.46 232.38 833.51 178.49 C 824.01 178.53 814.51 178.57 805.02 178.46 M 868.27 192.34 C 861.30 201.66 860.57 213.83 860.90 225.04 C 855.97 224.97 851.04 225.05 846.11 224.96 C 846.17 233.12 846.19 241.29 846.10 249.45 C 851.00 249.48 855.91 249.48 860.81 249.48 C 860.86 279.71 860.89 309.95 860.80 340.18 C 870.37 340.11 879.95 340.15 889.53 340.16 C 889.40 309.94 889.51 279.71 889.47 249.49 C 897.61 249.44 905.75 249.49 913.89 249.46 C 913.82 241.29 913.82 233.13 913.89 224.96 C 905.73 225.01 897.57 225.09 889.42 224.94 C 889.66 220.08 888.90 215.08 890.42 210.36 C 891.59 206.57 895.13 203.88 898.94 203.12 C 904.85 202.32 910.88 203.71 916.23 206.23 C 916.03 197.55 916.20 188.87 916.15 180.19 C 909.32 178.19 902.09 178.32 895.07 178.70 C 884.79 179.34 874.38 183.80 868.27 192.34 M 722.55 223.62 C 706.55 225.06 690.95 233.40 682.13 247.02 C 672.15 262.16 669.88 281.54 673.86 299.03 C 676.98 312.71 685.08 325.46 697.04 333.03 C 711.05 342.16 728.83 343.89 744.98 340.81 C 760.27 337.91 774.11 328.12 781.57 314.43 C 788.71 301.55 790.43 286.25 788.46 271.82 C 786.47 257.39 779.27 243.38 767.48 234.59 C 754.84 224.93 738.12 221.81 722.55 223.62 Z" />
<path fill="#01da95" opacity="1.00" d=" M 724.24 248.33 C 730.59 247.33 737.52 247.42 743.24 250.75 C 751.86 255.34 756.81 264.67 758.54 273.99 C 760.23 284.58 759.07 296.04 753.22 305.25 C 749.42 311.56 742.78 316.11 735.51 317.31 C 725.97 319.31 715.44 315.30 709.68 307.42 C 704.62 301.11 702.56 292.95 701.99 285.02 C 701.60 273.93 704.62 261.83 713.22 254.24 C 716.23 251.25 720.20 249.45 724.24 248.33 Z" />
</g>
<g id="#02386dff">
<path fill="#02386d" opacity="1.00" d=" M 345.19 129.97 C 345.49 123.73 343.81 117.26 345.86 111.21 C 346.51 123.71 346.77 136.22 345.85 148.72 C 343.84 142.64 345.70 136.21 345.19 129.97 Z" />
</g>
<g id="#00336bff">
<path fill="#00336b" opacity="1.00" d=" M 154.30 245.73 C 160.01 244.73 165.98 244.42 171.66 245.83 C 165.88 246.24 160.06 246.39 154.30 245.73 Z" />
</g>
</svg>
