<?xml version="1.0" encoding="UTF-8" standalone="no"?>
<!-- Created with Inkscape (http://www.inkscape.org/) -->

<svg
   xmlns:dc="http://purl.org/dc/elements/1.1/"
   xmlns:cc="http://creativecommons.org/ns#"
   xmlns:rdf="http://www.w3.org/1999/02/22-rdf-syntax-ns#"
   xmlns:svg="http://www.w3.org/2000/svg"
   xmlns="http://www.w3.org/2000/svg"
   xmlns:sodipodi="http://sodipodi.sourceforge.net/DTD/sodipodi-0.dtd"
   xmlns:inkscape="http://www.inkscape.org/namespaces/inkscape"
   width="1000"
   height="618.05737"
   viewBox="0 0 264.58333 163.52768"
   version="1.1"
   id="svg8"
   inkscape:version="0.92.4 (5da689c313, 2019-01-14)"
   sodipodi:docname="A.svg">
  <defs
     id="defs2" />
  <sodipodi:namedview
     id="base"
     pagecolor="#ffffff"
     bordercolor="#666666"
     borderopacity="1.0"
     inkscape:pageopacity="0.0"
     inkscape:pageshadow="2"
     inkscape:zoom="0.98994949"
     inkscape:cx="1046.6092"
     inkscape:cy="189.00667"
     inkscape:document-units="px"
     inkscape:current-layer="layer1"
     showgrid="false"
     units="px"
     inkscape:window-width="1920"
     inkscape:window-height="1017"
     inkscape:window-x="1912"
     inkscape:window-y="-8"
     inkscape:window-maximized="1"
     fit-margin-top="0"
     fit-margin-left="0"
     fit-margin-right="0"
     fit-margin-bottom="0" />
  <metadata
     id="metadata5">
    <rdf:RDF>
      <cc:Work
         rdf:about="">
        <dc:format>image/svg+xml</dc:format>
        <dc:type
           rdf:resource="http://purl.org/dc/dcmitype/StillImage" />
        <dc:title></dc:title>
      </cc:Work>
    </rdf:RDF>
  </metadata>
  <g
     inkscape:label="Layer 1"
     inkscape:groupmode="layer"
     id="layer1"
     transform="translate(-19.826464,201.34222)">
    <g
       id="g74278"
       transform="matrix(34.82276,0,0,-34.82276,206.51128,-37.814543)">
      <path
         d="m 0,0 c -0.014,0.117 -0.031,0.286 -0.031,0.435 0,0.092 0.013,0.464 0.013,0.763 0,0.252 -0.055,0.701 -0.055,0.944 0,0.147 0.011,0.345 -0.005,0.415 0.117,0.076 0.219,0.125 0.541,0.319 0.104,0.064 0.303,0.17 0.303,0.299 0,0.057 -0.015,0.094 -0.096,0.161 C 0.614,3.381 0.553,3.394 0.484,3.394 0.32,3.394 0.246,3.23 0.108,3.145 -0.102,3.017 -0.213,2.954 -0.256,2.93 -0.273,2.938 -0.345,2.98 -0.46,2.98 -0.58,2.98 -0.719,2.926 -0.719,2.77 -0.719,2.699 -0.697,2.621 -0.792,2.571 -0.846,2.537 -1.107,2.388 -1.385,2.22 -1.619,2.079 -1.728,2.09 -1.827,2.031 -1.918,1.976 -1.942,1.907 -1.942,1.848 c 0,-0.053 0.033,-0.12 0.045,-0.135 0.063,-0.08 0.119,-0.124 0.218,-0.124 0.168,0 0.308,0.147 0.567,0.331 0.162,0.115 0.31,0.235 0.397,0.235 0.078,0 0.132,-0.059 0.132,-0.299 0,-0.806 -0.049,-0.934 -0.049,-1.492 0,-0.101 0.004,-0.287 0.007,-0.364 H -1.052 V 1.319 L -1.874,0.626 -2.697,1.319 V 0 h -2.664 v 4.696 h 2.594 l 0.893,-0.94 0.892,0.94 H 1.626 V 2.688 C 1.544,2.561 1.292,2.129 1.122,1.688 1.067,1.544 1.041,1.44 0.968,1.44 0.888,1.44 0.881,1.519 0.873,1.591 0.857,1.745 0.822,2.033 0.806,2.14 0.775,2.345 0.735,2.562 0.505,2.562 0.335,2.562 0.157,2.469 0.157,2.215 0.157,2.071 0.23,1.821 0.355,1.492 0.404,1.362 0.665,0.677 0.703,0.578 0.772,0.397 0.867,0.347 1.017,0.347 c 0.191,0 0.257,0.07 0.335,0.338 0.067,0.228 0.18,0.6 0.274,0.834 0,0 0,0 0,0 V 0 Z M 2.237,2.606 V 0 H 1.808 V 1.907 C 1.9,2.105 2.121,2.453 2.237,2.606 M 1.808,2.954 V 4.696 L 2.237,4.438 V 3.484 C 2.132,3.374 1.911,3.106 1.808,2.954 M -1.638,4.269 -1.874,4.02 -2.514,4.693 -1.702,4.336 Z m 0.029,-3.657 h 0.295 l 0.08,0.067 V 0.928 Z M -2.515,0 h 0.353 v 0.631 l -0.353,0.297 z"
         style="fill:#231f20;fill-opacity:1;fill-rule:nonzero;stroke:none"
         id="path74280"
         inkscape:connector-curvature="0" />
    </g>
  </g>
</svg>
