<?xml version="1.0" encoding="UTF-8" standalone="no"?>
<!-- Generator: Adobe Illustrator 15.0.0, SVG Export Plug-In . SVG Version: 6.00 Build 0)  -->

<svg
   xmlns:dc="http://purl.org/dc/elements/1.1/"
   xmlns:cc="http://creativecommons.org/ns#"
   xmlns:rdf="http://www.w3.org/1999/02/22-rdf-syntax-ns#"
   xmlns:svg="http://www.w3.org/2000/svg"
   xmlns="http://www.w3.org/2000/svg"
   xmlns:sodipodi="http://sodipodi.sourceforge.net/DTD/sodipodi-0.dtd"
   xmlns:inkscape="http://www.inkscape.org/namespaces/inkscape"
   version="1.1"
   id="Layer_1"
   sodipodi:docname="MTV_Logo_2010.svg"
   inkscape:version="0.91 r13725"
   x="0px"
   y="0px"
   width="1472.0001"
   height="895.99994"
   viewBox="496.238 307.076 1472.0001 895.99996"
   enable-background="new 496.238 307.076 22.792 14.096"
   xml:space="preserve"><metadata
   id="metadata6208"><rdf:RDF><cc:Work
       rdf:about=""><dc:format>image/svg+xml</dc:format><dc:type
         rdf:resource="http://purl.org/dc/dcmitype/StillImage" /><dc:title></dc:title></cc:Work></rdf:RDF></metadata><defs
   id="defs6206" />
<sodipodi:namedview
   id="namedview17"
   inkscape:current-layer="g3"
   inkscape:window-y="-8"
   inkscape:window-x="-8"
   fit-margin-bottom="0"
   fit-margin-right="0"
   inkscape:window-height="705"
   inkscape:window-width="1366"
   inkscape:pageshadow="2"
   inkscape:pageopacity="0"
   inkscape:cy="280.4326"
   inkscape:cx="64.694815"
   inkscape:zoom="0.27733851"
   fit-margin-left="0"
   fit-margin-top="0"
   showgrid="false"
   guidetolerance="10"
   gridtolerance="10"
   objecttolerance="10"
   borderopacity="1"
   bordercolor="#666666"
   pagecolor="#ffffff"
   inkscape:window-maximized="1">
	</sodipodi:namedview>
<g
   id="g3"
   transform="translate(-12.746893,875.06269)">
	<path
   id="path5"
   inkscape:connector-curvature="0"
   d="m 509.17873,-567.54201 c 167.76731,-0.0635 335.47006,-0.12705 503.23737,0.0635 57.2785,59.77863 114.8799,119.23963 172.4813,178.70063 57.0848,-59.90568 115.0737,-119.04905 172.2876,-178.76416 168.6714,-0.0635 337.4074,-0.0635 506.0142,0 0.064,122.7336 -0.065,245.40368 0.064,368.20081 -0.3874,5.59035 1.227,11.81597 -1.5498,17.02516 -41.8449,67.27479 -78.1364,138.043542 -105.3873,212.24274 -3.4871,8.004365 -6.7158,17.215738 -14.5941,22.107295 -6.7158,2.795175 -16.5959,1.588168 -20.2121,-5.39977 -4.7786,-8.830213 -4.5203,-19.12154 -5.8764,-28.7776 -4.3911,-37.417232 -8.3948,-75.025045 -14.6586,-112.251697 -3.7454,-18.994488 -8.0074,-39.513618 -22.4078,-53.807128 -13.4963,-12.95944 -34.1604,-14.22998 -51.725,-10.03722 -16.1439,3.49397 -31.3191,12.95945 -39.4557,27.38002 -10.5904,17.851 -10.4612,39.51361 -6.6513,59.270417 6.6513,34.622057 18.5332,67.97358 30.6734,101.070996 24.0222,62.383229 48.3671,124.766457 72.4538,187.086157 6.0056,15.94521 15.4982,32.39863 32.0941,39.57715 14.2712,5.90798 30.4151,5.84445 45.5258,3.68454 13.1088,-1.96932 24.4095,-10.54543 30.9317,-21.6626 12.1402,-20.32855 16.8542,-43.76991 24.0221,-66.06778 14.3357,-45.48513 28.0903,-91.351412 46.5589,-135.438949 0.3875,97.068809 0,194.201149 0.1292,291.269969 -105.2582,0.0635 -210.5809,0 -315.9037,0.0635 -4.262,-36.08317 -7.3616,-72.48397 -5.4243,-108.75772 0.452,-35.44791 1.9373,-70.70523 1.5498,-106.15314 1.0978,-51.393105 -5.6827,-102.341527 -8.6531,-153.607582 -3.358,-39.76772 1.0332,-79.789548 -2.5831,-119.557268 29.8985,-18.42275 61.0885,-34.62206 91.1807,-52.72717 20.2122,-12.32418 41.9096,-22.93314 59.2158,-39.32303 9.5572,-9.14785 16.9834,-23.12373 11.2362,-36.21023 -12.1402,-24.2672 -44.1051,-37.41723 -69.8708,-26.74474 -21.1162,9.529 -33.6438,30.30224 -52.8874,42.37231 -24.0221,14.61115 -48.2379,28.96818 -72.9058,42.62643 -18.6623,-9.59254 -41.07,-12.76887 -61.2176,-6.54326 -10.9779,3.49397 -21.1162,10.86307 -25.5074,21.59909 -5.166,11.81596 -0.8394,24.77541 -3.1642,36.90901 -1.4852,7.49616 -7.4261,12.8324 -13.8837,16.3899 -27.2509,15.88167 -54.7601,31.38219 -81.9464,47.39092 -27.9612,16.072259 -55.083,34.558531 -86.5313,43.515798 -19.1143,5.526823 -41.522,11.879494 -50.7563,31.064561 -8.8469,18.676853 1.6143,40.14888071 16.4021,52.600116 12.7214,11.943021 32.1587,14.48409 48.4317,8.830213 21.2454,-6.860885 38.7454,-21.344975 56.3745,-34.304424 21.9557,-16.516945 44.428,-32.271569 66.9003,-48.08972 12.1402,-8.194945 24.345,-17.152211 38.6162,-21.535554 9.6863,-3.557496 21.8911,0.57174 25.9593,10.2278 9.6218,21.217921 6.5867,45.231018 7.0388,67.8465266 0.5812,75.4697314 -6.4576,150.6853534 -9.1052,226.0915634 -0.1937,35.38438 -0.5166,70.70523 1.1624,106.0896 -27.8967,-0.12705 -55.7287,0.25411 -83.6254,-0.2541 0.2583,-83.4741 0.1937,-167.01172 0.065,-250.485821 -52.952,43.769901 -105.8394,87.730391 -158.7267,131.500291 -53.0166,-43.70638 -105.8394,-87.66686 -158.7268,-131.373238 -0.1291,83.474098 -0.065,167.075248 0,250.549348 -172.28759,0.12705 -344.63977,0.0635 -516.8628,0 0.19373,-298.512014 0.19373,-596.9605 0.19373,-895.47251 l 0,0 z" />
	<path
   id="path7"
   inkscape:connector-curvature="0"
   d="m 1059.75,-567.41496 c 51.0793,21.78967 101.8357,44.02401 152.8504,65.8772 7.749,3.17634 12.7213,10.03722 18.5331,15.62757 -15.1752,16.38989 -31.19,32.01747 -46.3652,48.47088 -41.5867,-43.38874 -83.7545,-86.20574 -125.0183,-129.97565 z" />
	<path
   id="path9"
   inkscape:connector-curvature="0"
   d="m 1897.2305,-567.9867 c 27.9612,16.51695 55.987,32.90684 83.7545,49.61436 -0.1937,60.79507 -0.065,121.65365 -0.065,182.51224 -29.7693,32.20804 -57.6014,66.19483 -83.5608,101.51569 -0.3228,-111.17175 -0.064,-222.40702 -0.1291,-333.64229 z" />
	<path
   id="path11"
   inkscape:connector-curvature="0"
   d="m 1903.5589,-48.655841 c 22.8597,-41.991155 48.4317,-82.711779 77.2324,-121.018379 0.1291,165.8682368 0,331.73648 0.064,497.54119 -27.8966,0.0635 -55.7932,0.0635 -83.6899,0 -0.065,-118.98553 0.065,-238.034582 -0.065,-357.083637 -0.6457,-7.051465 3.2288,-13.340609 6.4576,-19.439174 l 0,0 z" />
	<path
   id="path13"
   inkscape:connector-curvature="0"
   d="m 1060.0083,149.5475 c 23.118,18.86743 45.8486,38.37013 69.225,56.91993 0.452,40.46651 0.1292,80.93303 0.1937,121.46307 -23.118,0 -46.3007,0 -69.4187,0 0,-59.461 -0.065,-118.98553 0,-178.383 z" />
	<path
   id="path15"
   inkscape:connector-curvature="0"
   d="m 1234.9435,211.23193 c 24.6033,-20.4556 49.2712,-40.84767 73.939,-61.23975 -0.1937,16.45342 0.2583,32.90684 -0.3229,49.2332 -5.166,4.00219 -10.2029,8.00437 -15.1752,12.1336 -19.5664,0.0635 -38.9391,0.25411 -58.4409,-0.12705 z" />
</g>
</svg>