<?xml version="1.0" encoding="UTF-8" standalone="no"?>
<!-- Created with Inkscape (http://www.inkscape.org/) -->

<svg
   xmlns:dc="http://purl.org/dc/elements/1.1/"
   xmlns:cc="http://creativecommons.org/ns#"
   xmlns:rdf="http://www.w3.org/1999/02/22-rdf-syntax-ns#"
   xmlns:svg="http://www.w3.org/2000/svg"
   xmlns="http://www.w3.org/2000/svg"
   xmlns:sodipodi="http://sodipodi.sourceforge.net/DTD/sodipodi-0.dtd"
   xmlns:inkscape="http://www.inkscape.org/namespaces/inkscape"
   version="1.1"
   width="215.65343"
   height="56.82811"
   id="svg4689"
   inkscape:version="0.47 r22583"
   sodipodi:docname="Nick Jr..svg">
  <metadata
     id="metadata25">
    <rdf:RDF>
      <cc:Work
         rdf:about="">
        <dc:format>image/svg+xml</dc:format>
        <dc:type
           rdf:resource="http://purl.org/dc/dcmitype/StillImage" />
        <dc:title></dc:title>
      </cc:Work>
    </rdf:RDF>
  </metadata>
  <sodipodi:namedview
     pagecolor="#ffffff"
     bordercolor="#666666"
     borderopacity="1"
     objecttolerance="10"
     gridtolerance="10"
     guidetolerance="10"
     inkscape:pageopacity="0"
     inkscape:pageshadow="2"
     inkscape:window-width="640"
     inkscape:window-height="481"
     id="namedview23"
     showgrid="false"
     inkscape:zoom="2.5040177"
     inkscape:cx="107.82671"
     inkscape:cy="28.414055"
     inkscape:window-x="0"
     inkscape:window-y="0"
     inkscape:window-maximized="0"
     inkscape:current-layer="svg4689" />
  <defs
     id="defs4691">
    <inkscape:perspective
       sodipodi:type="inkscape:persp3d"
       inkscape:vp_x="0 : 28.414055 : 1"
       inkscape:vp_y="0 : 1000 : 0"
       inkscape:vp_z="215.65343 : 28.414055 : 1"
       inkscape:persp3d-origin="107.82671 : 18.942703 : 1"
       id="perspective27" />
    <clipPath
       id="clipPath650">
      <path
         d="m 276.75,138.723 39.788,0 0,10.486 -39.788,0 0,-10.486 z"
         id="path652" />
    </clipPath>
  </defs>
  <path
     d="M 19.15426,18.50169 C 13.886026,18.49627 9.0568117,20.658847 5.6096957,24.111383 2.1571598,27.553079 2.2642e-6,32.387714 2.2642e-6,37.655948 l 0,17.495739 14.5418427358,0 0,-7.658451 0,-9.539189 c 0.0054,-2.097537 0.50406,-3.886135 1.349579,-5.273653 0.856359,-1.371259 1.967458,-2.178838 3.262836,-2.184258 1.295378,0.0054 2.406477,0.812999 3.262836,2.184258 0.845519,1.387518 1.344159,3.176116 1.349579,5.273653 l 0,17.19764 14.541843,0 0,-17.495739 c 0,-5.268234 -2.157158,-10.102869 -5.609694,-13.544565 C 29.251708,20.658847 24.422494,18.49627 19.15426,18.50169"
     id="path656"
     style="fill:#f57c14;fill-opacity:1;fill-rule:nonzero;stroke:none" />
  <path
     d="m 53.95387,13.79388 c 1.463398,-1.463398 2.368537,-3.485056 2.368537,-5.7180934 0,-2.2330374 -0.905139,-4.249275 -2.368537,-5.7126733 C 52.490472,0.89971499 50.468814,-3.9665e-6 48.235777,-3.9665e-6 c -2.227618,0 -4.249275,0.8997189565 -5.712674,2.3631172665 -1.463398,1.4633983 -2.368537,3.4796359 -2.368537,5.7126733 0,2.2330374 0.905139,4.2546954 2.368537,5.7180934 l 1.783178,1.788598 c 2.980997,2.975576 3.192377,3.766896 0.35772,6.601552 l -1.620578,1.620578 c -1.333319,1.333319 -2.151738,3.170697 -2.151738,5.197774 l 0,26.14605 14.693603,0 0,-26.14605 c 0,-2.027077 -0.823839,-3.864455 -2.151737,-5.197774 L 51.812972,22.18403 c -2.834656,-2.834656 -2.623276,-3.625976 0.35772,-6.606972 L 53.95387,13.79388 z"
     id="path660"
     style="fill:#f57c14;fill-opacity:1;fill-rule:nonzero;stroke:none" />
  <path
     d="m 80.00074,43.76591 c -0.861779,1.582638 -1.967458,2.520297 -3.262836,2.520297 -1.295379,0 -2.401057,-0.937659 -3.262836,-2.520297 -0.845519,-1.598898 -1.344159,-3.669336 -1.349579,-6.092073 0.0054,-2.417317 0.50406,-4.487755 1.349579,-6.092073 0.861779,-1.577218 1.967457,-2.514877 3.262836,-2.520297 1.295378,0.0054 2.401057,0.943079 3.262836,2.520297 0.628719,1.192399 1.062319,2.634117 1.246599,4.292635 l 14.558103,0 c -0.42818,-4.558215 -2.466098,-8.69367 -5.522974,-11.745126 -3.447116,-3.452536 -8.28175,-5.609694 -13.544564,-5.609694 -5.262814,0 -10.097448,2.157158 -13.544564,5.609694 -3.452536,3.447116 -5.615114,8.28175 -5.609694,13.544564 -0.0054,5.268234 2.157158,10.102868 5.609694,13.544564 2.655796,2.650377 7.273631,5.615114 13.544564,5.609694 4.715394,0.0054 9.078489,-1.728978 12.411785,-4.569055 2.433578,-2.065017 6.037873,-6.205893 6.655753,-12.785765 l -14.558103,0 c -0.18428,1.658518 -0.61788,3.105656 -1.246599,4.292635"
     id="path664"
     style="fill:#f57c14;fill-opacity:1;fill-rule:nonzero;stroke:none" />
  <path
     d="m 134.27005,52.60808 c 0,-0.487799 -0.14634,-0.937659 -0.38482,-1.322478 l -7.96197,-12.043226 5.51213,-10.010729 c 2.03792,-3.457956 0.88888,-7.913191 -2.56907,-9.951108 -3.45796,-2.037918 -7.91319,-0.888879 -9.95653,2.569077 l -6.57987,11.766806 0,-7.842731 c 0,-4.016215 -3.25742,-7.273631 -7.27364,-7.273631 -4.01079,0 -7.268208,3.257416 -7.268208,7.273631 l 0,29.376366 14.541848,0 0,-11.501227 7.66929,11.495807 11.7397,-0.0054 0,0 c 1.39836,0 2.53114,-1.132779 2.53114,-2.531137"
     id="path668"
     style="fill:#f57c14;fill-opacity:1;fill-rule:nonzero;stroke:none" />
  <path
     d="m 164.81117,41.93883 c 0,8.86169 -4.31431,14.585203 -14.67734,14.585203 l -0.40108,0 c -3.62056,0 -7.41455,-0.959339 -9.78309,-2.482357 -4.11378,-2.650377 -6.79667,-7.002632 -4.08668,-11.598787 2.50946,-4.265535 11.30069,-5.051434 12.60149,2.368538 0.45528,2.596177 1.83196,2.260137 1.83196,-0.1355 l 0.005,-17.65292 c 0,-5.273654 3.25741,-8.52023 7.26821,-8.52023 4.01079,0.0054 7.26279,3.251996 7.26279,7.262792 l -0.0217,16.173261 z m -7.24111,-25.71787 c 3.97285,0 7.18691,-3.219476 7.18691,-7.1923317 0,-3.9728554 -3.21406,-7.1869117 -7.18691,-7.1869117 -3.97286,0 -7.19233,3.2140563 -7.19233,7.1869117 0,3.9728557 3.21947,7.1923317 7.19233,7.1923317"
     id="path672"
     style="fill:#4ac3cb;fill-opacity:1;fill-rule:nonzero;stroke:none" />
  <path
     d="m 182.92425,55.15927 0,-19.555337 c 0,-1.414619 0.88346,-3.793996 2.5203,-4.428135 1.66936,-0.644979 3.19237,0.09756 5.02433,0.780479 6.02703,2.298077 10.72075,-0.742539 11.44703,-4.682875 0.7317,-3.940335 -1.87532,-7.728911 -5.81566,-8.46061 -4.84005,-0.905139 -8.25465,0.61788 -12.21124,3.669336 -0.005,0 -0.005,0.0054 -0.0108,0.0054 -0.28184,0.2168 -1.0298,0.867199 -1.28996,1.083999 -0.93224,-2.937637 -3.68018,-5.067694 -6.92133,-5.067694 -4.0108,0 -7.26279,3.251996 -7.26279,7.257371 l 0,29.398046 14.52016,0 z"
     id="path676"
     style="fill:#4ac3cb;fill-opacity:1;fill-rule:nonzero;stroke:none" />
  <path
     d="m 195.32194,55.55602 c 3.97286,0 7.18691,-3.219476 7.18691,-7.192332 0,-3.972855 -3.21405,-7.186911 -7.18691,-7.186911 -3.96744,0 -7.19233,3.214056 -7.19233,7.186911 0,3.972856 3.22489,7.192332 7.19233,7.192332"
     id="path680"
     style="fill:#4ac3cb;fill-opacity:1;fill-rule:nonzero;stroke:none" />
  <path
     d="m 210.63993,20.76128 0.14634,0 2.36854,2.644957 2.34685,-2.644957 0.15176,0 0,4.964714 -0.88887,0 0,-3.073136 -1.52844,1.821118 -0.1626,0 -1.5447,-1.821118 0,3.073136 -0.88888,0 0,-4.964714 z m -3.42002,0.840099 -1.47423,0 0,-0.758799 3.84277,0 0,0.758799 -1.47966,0 0,4.124615 -0.88888,0 0,-4.124615 z"
     id="path684"
     style="fill:#4ac3cb;fill-opacity:1;fill-rule:nonzero;stroke:none" />
</svg>
