<?xml version="1.0" encoding="utf-8"?>
<!-- Generator: Adobe Illustrator 16.0.0, SVG Export Plug-In . SVG Version: 6.00 Build 0)  -->
<!DOCTYPE svg PUBLIC "-//W3C//DTD SVG 1.1//EN" "http://www.w3.org/Graphics/SVG/1.1/DTD/svg11.dtd">
<svg version="1.1" id="Layer_1" xmlns="http://www.w3.org/2000/svg" xmlns:xlink="http://www.w3.org/1999/xlink" x="0px" y="0px"
	 width="1000px" height="995.836px" viewBox="0 0 1000 995.836" enable-background="new 0 0 1000 995.836" xml:space="preserve">
<g>
	<g id="g3495">
		<g id="g3217" transform="matrix(0.60120052,0,0,0.58150801,29.425545,-3.1295255)">
			<polygon id="polygon3232" fill="#010101" points="470.366,103.937 434.65,122.505 406.927,94.345 413.388,133.494 
				377.96,152.242 417.948,158.758 424.31,199.069 441.965,162.904 481.378,169.235 452.607,140.811 			"/>
			<polygon id="polygon3234" fill="#010101" points="569.716,65.364 547.782,32.452 546.74,72.149 508.376,83.498 546.36,97.749 
				544.939,138.672 569.255,106.547 606.761,120.374 583.87,86.581 608.096,54.284 			"/>
			<polygon id="polygon3236" fill="#010101" points="341.027,170.799 309.679,195.882 277.101,173.619 290.68,210.936 
				259.437,235.84 300.094,234.778 313.956,273.061 324.402,234.167 364.197,232.767 330.667,210.226 			"/>
			<polygon id="polygon3238" fill="#010101" points="717.044,42.078 701.947,5.382 693.113,44.286 653.515,48.153 688.077,69.362 
				678.971,109.14 708.872,82.289 743.065,103.153 727.12,65.756 756.838,38.381 			"/>
			<polygon id="polygon3240" fill="#010101" points="133.536,427.617 128.491,387.135 108.647,422.244 70.474,413.887 
				96.962,443.281 77.118,478.309 114.343,461.769 141.133,492.127 136.659,452.171 173.133,435.719 			"/>
			<polygon id="polygon3242" fill="#010101" points="70.834,562.733 58.295,524.107 45.477,562.48 6.246,561.514 37.869,585.274 
				25.049,623.459 58.295,600.23 90.676,624.783 78.517,586.323 111.377,563.175 			"/>
			<polygon id="polygon3244" fill="#010101" points="228.104,271.02 201.98,301.738 165.996,286.064 186.414,320.037 
				160.49,350.486 199.994,341.608 220.79,376.455 223.735,336.489 262.673,327.347 225.441,311.689 			"/>
			<polygon id="polygon3252" fill="#010101" points="26.531,705.007 6.792,669.541 1.568,709.407 -37.184,716.189 -1.757,733.52 
				-7.078,773.488 21.316,744.085 57.596,762.033 38.505,726.659 66.138,697.616 			"/>
			<polygon id="polygon3272" fill="#010101" points="11.355,853.628 -14.562,822.483 -12.47,862.874 -48.945,876.947 
				-10.862,886.97 -8.579,927.123 13.728,892.871 52.771,903.636 27.218,872.544 48.969,838.663 			"/>
			<polygon id="polygon3280" fill="#010101" points="21.871,1187.102 60.807,1182.077 77.899,1218.345 85.875,1178.218 
				125.953,1173.365 90.914,1154.082 98.405,1114.56 69.253,1142.572 33.554,1123.551 50.636,1160.084 			"/>
			<polygon id="polygon3286" fill="#010101" points="4.778,1011.676 -28.565,1032.543 10.858,1035.113 20.448,1074.071 
				35.925,1036.151 76.386,1038.969 45.516,1013.533 60.525,976.137 26.432,997.965 -5.005,972.348 			"/>
		</g>
		<g id="g3287" transform="matrix(-0.60120052,0,0,0.58150801,185.93354,-3.1295255)">
			<polygon id="polygon3289" fill="#010101" points="-898.196,94.345 -891.737,133.494 -927.164,152.242 -887.174,158.758 
				-880.813,199.069 -863.158,162.904 -823.745,169.235 -852.514,140.811 -834.758,103.937 -870.473,122.505 			"/>
			<polygon id="polygon3291" fill="#010101" points="-758.388,72.149 -796.748,83.498 -758.765,97.749 -760.179,138.672 
				-735.872,106.547 -698.358,120.374 -721.252,86.581 -697.029,54.284 -735.405,65.364 -757.342,32.452 			"/>
			<polygon id="polygon3293" fill="#010101" points="-1028.021,173.619 -1014.444,210.936 -1045.69,235.84 -1005.029,234.778 
				-991.169,273.061 -980.724,234.167 -940.926,232.767 -974.456,210.226 -964.099,170.799 -995.446,195.882 			"/>
			<polygon id="polygon3295" fill="#010101" points="-612.011,44.286 -651.611,48.153 -617.046,69.362 -626.156,109.14 
				-596.251,82.289 -562.06,103.153 -578.005,65.756 -548.291,38.381 -588.081,42.078 -603.177,5.382 			"/>
			<polygon id="polygon3297" fill="#010101" points="-1196.477,422.244 -1234.643,413.887 -1208.163,443.281 -1228.004,478.309 
				-1190.781,461.769 -1163.99,492.127 -1168.459,452.171 -1131.985,435.719 -1171.589,427.617 -1176.631,387.135 			"/>
			<polygon id="polygon3299" fill="#010101" points="-1259.647,562.48 -1298.875,561.514 -1267.258,585.274 -1280.07,623.459 
				-1246.826,600.23 -1214.451,624.783 -1226.604,586.323 -1193.745,563.175 -1234.289,562.733 -1246.826,524.107 			"/>
			<polygon id="polygon3301" fill="#010101" points="-1139.125,286.064 -1118.706,320.037 -1144.633,350.486 -1105.129,341.608 
				-1084.332,376.455 -1081.385,336.489 -1042.45,327.347 -1079.681,311.689 -1077.017,271.02 -1103.142,301.738 			"/>
			<polygon id="polygon3303" fill="#010101" points="-1303.553,709.407 -1342.308,716.189 -1306.883,733.52 -1312.203,773.488 
				-1283.811,744.085 -1247.521,762.033 -1266.618,726.659 -1238.983,697.616 -1278.588,705.007 -1298.326,669.541 			"/>
			<polygon id="polygon3305" fill="#010101" points="-1317.591,862.874 -1354.067,876.947 -1315.989,886.97 -1313.699,927.123 
				-1291.395,892.871 -1252.355,903.636 -1277.903,872.544 -1256.156,838.663 -1293.766,853.628 -1319.684,822.483 			"/>
			<polygon id="polygon3307" fill="#010101" points="-1227.221,1218.345 -1219.247,1178.218 -1179.173,1173.365 -1214.21,1154.082 
				-1206.715,1114.56 -1235.871,1142.572 -1271.569,1123.551 -1254.486,1160.084 -1283.253,1187.102 -1244.314,1182.077 			"/>
			<polygon id="polygon3309" fill="#010101" points="-1294.262,1035.113 -1284.673,1074.071 -1269.193,1036.151 -1228.737,1038.969 
				-1259.603,1013.533 -1244.599,976.137 -1278.694,997.965 -1310.127,972.348 -1300.348,1011.676 -1333.685,1032.543 			"/>
		</g>
	</g>
	<path fill="#010101" d="M211.718,642.24l-1.414-2.184l41.309-68.145l23.607-36.756L301.998,507l-29.245,58.902l-15.854,12.371
		L211.718,642.24z M339.081,583.674l9.869-14.139l9.161-2.355l27.952-53.252l3.289-34.636l15.271-34.165l-1.173-4.479
		l-23.729,29.924l-5.874,2.122l-42.985,65.268l6.104,6.361l-44.398,98.967l29.835-30.867L339.081,583.674z M397.576,593.807
		l-4.464-7.541l-38.059,68.803l-8.925,38.643h7.398l24.313-28.982l9.866-45.238L397.576,593.807z M546.982,294.244l-30.541-30.002
		v98.805l-25.371,69.275l34.455,21.992l-58.729,158.184l11.274,9.738l-30.539,68.961l38.213,41.471h57.631l-9.866-25.131
		l87.076,32.045h98.816l-20.829-35.975l-10.807-28.271l-4.229-21.367l51.367,63.779h63.27l-18.636-38.488l-28.503-28.902
		l-71.723-157.243l-31.947-9.737l-9.24,10.366h-5.621l-16.032-42.256l-16.031-28.432l-22.138-35.66L546.982,294.244z M497.42,96.771
		c-218.272,0-395.216,177.481-395.216,396.419c0,60.155,13.357,117.179,37.26,168.251l150.906-173.649l13.037-4.238l58.136-81.997
		l25.371-21.911l38.053-59.729l22.904-21.913l36.996-51.953l23.256-17.672l43.34,31.102l21.492,39.937l27.486,81.996l32.063,56.9
		l67.297,30.042l60.957,124.757l14.799,49.834l14.447,10.6l12.684,14.846l23.549,44.809
		c41.939-62.947,66.401-138.617,66.401-220.012C892.638,274.252,715.695,96.771,497.42,96.771z"/>
	<g>
		<g>
			<path id="Fill-1" fill="#010101" d="M906.595,771.492h-22.443l-5.172,11.707l-8.74,19.799H859.7l-3.127,6.719h10.803
				l-13.017,28.932c-9.294,20.344-24.042,40.396-32.465,40.396c-1.787,0-2.899-0.828-2.899-2.686c0-1.744,0.485-3.637,2.675-8.713
				c2.67-6.232,6.965-15.074,10.172-21.617c4.643-9.439,12.134-24.26,12.134-31.639c0-7.418-4.702-13.066-13.882-13.066
				c-10.366,0-19.668,6.266-28.258,15.201l5.576-13.527h-21.224l-17.273,39.119c-6.856,13.904-20.997,36.898-29.742,36.898
				c-1.817,0-2.583-1.111-2.583-2.916c0-0.973,0.483-3.006,1.259-4.779c0.778-1.777,11.101-25.678,11.101-25.678l18.69-42.756
				h-22.741l-18.164,41.584c-5.701,12.881-19.902,34.641-29.007,34.641c-1.855,0-3.063-0.936-3.063-3.229
				c0-2.289,1.688-6.365,2.998-9.416l9.518-20.832l0.032,0.008l19.664-42.756h-22.736l-4.438,9.633l-0.014-0.004
				c-3.265,6.477-9.03,14.197-17.916,14.197c-4.322,0-6.284-1.707-7.348-3.379c-1.325-14.4-10.4-22.084-23.971-22.084
				c-18.76,0-32.132,11.105-40.911,24.471c-5.852,8.936-9.84,18.635-13.379,29.799c-8.041,13.18-16.545,23.496-23.135,23.496
				c-1.688,0-2.731-1.006-2.731-3.221c0-2.473,2.182-7.328,3.03-9.146l14.717-31.336c4.102-9.703,6.961-16.111,6.961-22.391
				c0-6.766-4.728-11.598-12.412-11.598c-10.659,0-22.309,6.084-31.448,16.277c0.307-1.426,0.456-3.074,0.456-4.916
				c0-7.426-3.656-11.361-11.529-11.361c-9.763,0-19.789,5.75-28.968,16.326l6.09-14.652h-20.739l-17.384,39.119
				c-8.3,18.432-21.537,36.898-29.087,36.898c-1.764,0-2.769-0.902-2.769-3.148c0-3.617,3.88-12.277,5.438-15.842l23.003-52.189
				c1.714-3.898-9.342-6.313-23.394-6.313c-14.431,0-29.167,7.178-40.085,16.168c-7.618,6.283-13.268,9.479-16.184,9.479
				c-1.417,0-2.051-0.773-2.051-1.682c0-3.219,7.662-12.186,7.662-18.988c0-3.096-1.681-5.176-5.95-5.176
				c-8.266,0-17.95,7.918-25.16,16.096l6.082-14.43h-20.126l-17.347,39.127c-8.303,18.432-21.91,37.695-29.453,37.695
				c-1.759,0-2.772-0.91-2.772-3.154c0-3.48,3.719-12.086,5.822-16.633l23-52.189c1.712-3.898-9.333-6.313-23.381-6.313
				c-20.735,0-40.947,13.977-51.79,28.285c-11.821,15.57-19.831,32.035-20.012,45.463c-0.153,10.76,5.442,17.555,16.718,17.555
				c12.554,0,22.582-9.961,28.572-17.402c-0.14,0.779-0.706,3.52-0.706,4.457c0,7.508,3,12.939,12.104,12.939
				c8.05,0,18.81-6.734,27.461-17.461l-6.993,15.893h21.962l21.513-48.727c7.022-15.859,15.175-24.084,17.365-24.084
				c0.706,0,1.017,0.311,1.017,0.92c0,1.689-3.294,6.135-3.294,10.305c0,4.262,2.323,7.178,8.208,7.178
				c4.701,0,9.987-2.291,14.639-5.166c-11.049,15.021-18.452,30.711-18.625,43.594c-0.143,10.76,5.462,17.555,16.736,17.555
				c11.899,0,22.811-11.143,28.807-18.584c-0.215,1.17-0.434,3.709-0.434,5.156c0,7.314,4.138,13.422,12.593,13.422
				c9.276,0,16.937-5.826,26.262-17.197l-6.888,15.629h22.49l20.52-46.572c8.971-20.27,21.146-30.949,27.157-30.949
				c1.779,0,2.973,0.951,2.973,3.031c0,1.25-0.54,3.549-1.845,6.598l-30.09,67.893l23.029-0.059l21.018-47.383
				c9.035-20.293,19.033-30.332,26.461-30.332c2.245,0,3.205,1.16,3.205,3.613c0,1.359-0.43,3.627-2.166,7.434l-20.138,42.928
				c-1.675,3.668-3.313,8.947-3.313,13.023c0,6.502,3.611,12.344,13.648,12.344c13.058,0,23.098-9.852,34.301-24.711l0.051,3.182
				c0.833,11.795,7.493,21.984,24.865,21.984c20.584,0,37.257-14.26,47.382-36.793c4.545-10.115,6.737-18.74,7.344-25.273
				c1.919,0.961,4.324,1.563,7.348,1.563c2.845,0,6.206-0.564,9.695-2.357l-3.579,7.766c-4.123,8.611-8.713,18.186-12.119,26.166
				c-2.513,5.891-4.02,11.41-4.02,15.096c0,8.072,4.407,13.758,13.577,13.758c9.195,0,21.815-8.623,30.695-20.709h0.278
				c-0.512,2.408-1.014,5.824-1.014,7.635c0,6.648,2.036,13.021,11.421,13.021c10.872,0,19.255-7.867,27.513-17.682l-6.966,15.787
				h22.74l18.124-41.053c10.261-23.168,20.616-37.098,30.205-37.098c2.047,0,3.102,1.357,3.102,3.387
				c0,3.859-5.52,14.498-10.741,25.27c-4.714,9.713-8.219,17.139-10.673,22.98c-2.167,5.176-3.945,11.418-3.945,15.49
				c0,7.135,3.973,12.592,12.708,12.592c13.081,0,26.486-12.611,33.502-22.334c-1.612,4.494-2.625,9.938-2.625,14.232
				c0,13.076,7.956,19.648,18.944,19.648c7.749,0,14.459-2.695,20.384-6.805c8.593-5.961,15.512-14.926,21.381-23.244l-3.868-3.723
				c-5.427,7.658-11.389,15.002-17.513,19.525c-3.837,2.842-7.739,4.582-11.604,4.582c-4.669,0-7.667-2.402-7.667-8.5
				c0-6.006,2.766-14.088,7.071-24.826c0.227-0.52,6.338-14.23,12.199-27.441c4.967-11.18,9.755-22.014,10.677-24.219h14.748
				l2.987-6.719h-14.68L906.595,771.492z M267.782,879.105c-3.25,0-5.424-1.084-5.505-5.297
				c0.159-11.109,9.305-30.654,20.854-46.297c7.999-10.838,18.533-18.84,29.756-18.84l-14.29,31.791
				C288.004,864.494,276.344,879.105,267.782,879.105L267.782,879.105z M407.738,879.105c-3.248,0-5.439-1.084-5.51-5.297
				c0.158-11.109,9.303-30.654,20.849-46.297c7.996-10.838,18.531-18.84,29.751-18.84l-14.29,31.791h0.034
				C427.814,864.842,416.688,879.105,407.738,879.105L407.738,879.105z M632.84,876.348c-5.069,7.113-9.417,9.164-13.18,9.164
				c-5.176,0-6.711-4.322-6.077-10.646c1.132-11.102,10.249-36.732,23.046-54.475c5.824-8.08,9.843-11.438,14.189-11.438
				c4.287,0,5.806,3.689,5.65,8.311C656.066,829.297,645.369,858.748,632.84,876.348L632.84,876.348z"/>
			<g id="Group-5" transform="translate(0.000000, 0.666256)">
				<g id="Clip-4">
				</g>
				<defs>
					<filter id="Adobe_OpacityMaskFilter" filterUnits="userSpaceOnUse" x="37.18" y="696.769" width="261.156" height="234.65">
						<feColorMatrix  type="matrix" values="1 0 0 0 0  0 1 0 0 0  0 0 1 0 0  0 0 0 1 0"/>
					</filter>
				</defs>
				<mask maskUnits="userSpaceOnUse" x="37.18" y="696.769" width="261.156" height="234.65" id="mask-2_1_">
					<g filter="url(#Adobe_OpacityMaskFilter)">
						<polygon id="path-1_1_" fill="#FFFFFF" points="37.18,696.769 298.336,696.769 298.336,931.42 37.18,931.42 						"/>
					</g>
				</mask>
				<path id="Fill-3" mask="url(#mask-2_1_)" fill="#010101" d="M210.331,824.793c7.679-0.9,20.235-3.41,25.015-5.143
					c29.536-8.234,62.991-27.994,62.991-63.084c0-40.414-42.837-59.797-93.888-59.797c-54.482,0-104.451,24.145-122.988,61.455
					c-4.901,9.875-7.634,20.652-7.634,32.17c0,10.406,2.535,19.76,7.634,27.307c7.861,11.641,21.874,18.955,42.576,18.955
					c25.23,0,45.341-13.854,45.341-37.945c0,0,0.374-6.77-7.487-6.77c-6.451,0-8.108,4.432-7.957,6.77
					c0.919,18.936-10.249,33.969-30.305,33.969c-22.398,0-31.807-19.035-31.807-39.449c0-41.719,31.478-69.361,64.231-81.205
					c16.791-6.125,30.3-8.33,47.912-8.33c37.048,0,67.348,14.246,67.348,52.252c0,31.844-26.724,58.93-58.861,61.193l1.269-4.379
					c6.588-23.33,14.532-48.842,27.642-67.828c0.772-1.189,2.14-2.965,3.636-4.863l-1.795-2.234c-2.338,1.35-6.519,4.4-8.189,5.701
					c-61.491,47.879-63.346,182.26-145.216,182.26c-2.97,0-5.74-0.234-8.339-0.648c-17.085-2.75-26.023-14.221-25.966-30.162
					c0.012-3.133,1.083-7.453,1.083-9.906c0-4.135-2.807-8.424-8.948-8.424c-7.307,0-10.305,5.684-10.442,14.059
					c-0.388,23.947,17.198,37.795,44.273,40.289c2.957,0.277,6.028,0.416,9.208,0.416
					C154.535,931.42,193.792,883.277,210.331,824.793"/>
			</g>
		</g>
		<g>
			<polygon id="Fill-6" fill="#010101" points="231.56,974.166 207.33,940.109 197.682,940.109 197.682,995.035 209.099,995.035 
				209.099,961.031 233.258,995.035 242.903,995.035 242.903,940.109 231.56,940.109 			"/>
			<polygon id="Fill-8" fill="#010101" points="301.359,971.752 322.122,971.752 322.122,961.986 301.359,961.986 301.359,950.09 
				325.292,950.09 325.292,940.109 289.943,940.109 289.943,995.023 325.367,995.023 325.367,984.967 301.359,984.967 			"/>
			<polygon id="Fill-10" fill="#010101" points="397.042,950.09 415.454,950.09 415.454,940.109 367.222,940.109 367.222,950.09 
				385.713,950.09 385.713,995.023 397.042,995.023 			"/>
			<polygon id="Fill-12" fill="#010101" points="532.699,940.109 520.324,940.109 508.616,975.799 496.832,940.109 487.478,940.109 
				475.78,975.799 463.988,940.109 451.614,940.109 470.835,995.035 480.494,995.035 492.197,960.221 503.896,995.035 
				513.47,995.035 			"/>
			<path id="Fill-14" fill="#010101" d="M614.178,947.082c-5.376-5.215-12.227-7.781-20.55-7.781
				c-8.396,0-15.251,2.566-20.626,7.781c-5.373,5.145-8.02,11.967-8.02,20.482c0,8.518,2.646,15.359,8.02,20.561
				c5.375,5.139,12.23,7.711,20.626,7.711c8.323,0,15.174-2.572,20.55-7.711c5.369-5.201,8.024-12.043,8.024-20.561
				C622.202,959.049,619.547,952.227,614.178,947.082 M605.852,980.859c-3.094,3.301-7.154,4.916-12.224,4.916
				c-5.082,0-9.195-1.615-12.376-4.916c-3.159-3.301-4.705-7.709-4.705-13.295c0-5.654,1.546-10.053,4.705-13.289
				c3.181-3.307,7.294-4.918,12.376-4.918c5.069,0,9.13,1.611,12.224,4.918c3.163,3.236,4.711,7.635,4.711,13.289
				C610.563,973.15,609.015,977.559,605.852,980.859"/>
			<path id="Fill-16" fill="#010101" d="M705.476,957.734c0-5.508-1.62-9.838-4.854-12.92c-3.244-3.168-7.526-4.705-12.896-4.705
				H664.16v54.926h11.421v-19.76h9.204l10.754,19.76h12.809l-11.709-21.602C702.237,970.725,705.476,965.293,705.476,957.734
				 M686.323,965.219h-10.819v-15.125h10.819c4.502,0,7.596,2.713,7.596,7.641C693.919,962.424,690.825,965.219,686.323,965.219"/>
			<polygon id="Fill-18" fill="#010101" points="781.201,940.109 762.495,962.791 762.495,940.109 751.091,940.109 751.091,995.035 
				762.495,995.035 762.495,979.828 769.27,971.674 784.594,995.035 797.997,995.035 776.86,962.568 795.781,940.109 			"/>
		</g>
	</g>
</g>
</svg>
