<?xml version="1.0" encoding="utf-8"?>
<!-- Generator: Adobe Illustrator 23.1.0, SVG Export Plug-In . SVG Version: 6.00 Build 0)  -->
<svg version="1.1" id="Layer_2" xmlns="http://www.w3.org/2000/svg" xmlns:xlink="http://www.w3.org/1999/xlink" x="0px" y="0px"
	 width="1000px" height="995.8945313px" viewBox="0 0 1000 995.8945313" enable-background="new 0 0 1000 995.8945313"
	 xml:space="preserve">
<path fill="#0067A5" d="M906.578064,771.493042h-22.3994141l-5.2001953,11.7001953l-8.7001953,19.8007813h-10.5
	l-3.0996094,6.6992188h10.7998047l-13,28.9004517c-9.3007813,20.2998047-24,40.4003906-32.5,40.4003906
	c-1.8007813,0-2.9003906-0.7998047-2.9003906-2.7001953c0-1.7001953,0.5-3.5996094,2.7001953-8.7001953
	c2.7001953-6.2001953,7-15.0996094,10.2001953-21.5996094c4.5996094-9.4003906,12.0996094-24.3007813,12.0996094-31.6005859
	c0-7.3994751-4.7001953-13.0996704-13.9003906-13.0996704c-10.3994141,0-19.7002563,6.2998047-28.2998657,15.2002563
	l5.5996094-13.500061h-21.2001953L768.977417,842.093689c-6.8994141,13.9003906-21,36.9003906-29.7001953,36.9003906
	c-1.7998047,0-2.5996094-1.0996094-2.5996094-2.9003906c0-1,0.5-3,1.2998047-4.7998047s11.0996094-25.7001953,11.0996094-25.7001953
	l18.7001953-42.7998657h-22.7001953l-18.1992188,41.5996704c-5.7001953,12.9003906-19.9003906,34.6005859-29.0009766,34.6005859
	c-1.8994141,0-3.0996094-0.9003906-3.0996094-3.2001953s1.7001953-6.4003906,3-9.4003906l9.5-20.7998047l19.7001953-42.7998657
	h-22.7001953l-4.4003906,9.5996094c-3.2998047,6.500061-9,14.2002563-17.8994751,14.2002563
	c-4.2998047,0-6.3007813-1.7001953-7.3007813-3.4003906c-1.2998047-14.3994751-10.3994141-22.0996704-24-22.0996704
	c-18.7998047,0-32.0996094,11.0996094-40.8994141,24.500061c-5.9003906,8.9003906-9.8007813,18.6005859-13.4003906,29.7998047
	c-8,13.2001953-16.5,23.5009766-23.1005859,23.5009766c-1.6992188,0-2.6992188-1.0009766-2.6992188-3.2001953
	c0-2.5,2.1992188-7.3007813,3-9.1005859l14.6992188-31.2998047c4.1005859-9.7001953,7-16.1005859,7-22.4003906
	c0-6.7998657-4.6992188-11.5996704-12.3994141-11.5996704c-10.7001953,0-22.3008423,6.0996094-31.4004517,16.2998657
	c0.2998047-1.4003906,0.5-3.0996094,0.5-4.9003906c0-7.3994751-3.7001953-11.3994751-11.5-11.3994751
	c-9.7998047,0-19.7998047,5.7998047-29,16.2998657l6.0996094-14.7002563h-20.699707l-17.4003906,39.100647
	c-8.2998047,18.3994141-21.5000305,36.8994141-29.1001282,36.8994141c-1.7998047,0-2.7998047-0.8994141-2.7998047-3.0996094
	c0-3.5996094,3.8999023-12.2998047,5.3999023-15.7998047l23.0000305-52.2002563
	c1.7001953-3.9003906-9.2998352-6.3007813-23.3999329-6.3007813c-14.4003906,0-29.2001953,7.2001953-40.1000977,16.2002563
	c-7.6001282,6.3007813-13.3003235,9.5-16.2002258,9.5c-1.3999023,0-2.1000977-0.7998047-2.1000977-1.6992188
	c0-3.2001953,7.7001953-12.2001953,7.7001953-19.000061c0-3.1005859-1.7001953-5.2001953-6-5.2001953
	c-8.300293,0-18.0004883,7.8994141-25.2001953,16.0996704l6.1000977-14.4004517h-20.1000977l-17.3003235,39.100647
	c-8.2998047,18.4003906-21.8999023,37.7001953-29.5,37.7001953c-1.800293,0-2.800293-0.9003906-2.800293-3.2001953
	c0-3.5,3.7001953-12.0996094,5.800293-16.5996094l23-52.2002563c1.7001953-3.9003906-9.2998047-6.3007813-23.3999023-6.3007813
	c-20.7001953,0-40.9004211,14.0010376-51.8003235,28.3008423c-11.800293,15.5996094-19.800293,32-20,45.5
	c-0.2001953,10.7998047,5.3999023,17.5996094,16.699707,17.5996094c12.6000977,0,22.6000977-10,28.6001282-17.3994141
	c-0.0996094,0.7998047-0.699707,3.5-0.699707,4.5c0,7.5,3,12.8994141,12.1000977,12.8994141c8,0,18.7998047-6.6992188,27.5-17.5
	l-7,15.9003906h22l21.5000305-48.7001953c7-15.9003906,15.2001953-24.0996094,17.4003906-24.0996094
	c0.699707,0,1,0.2998047,1,0.8994141c0,1.7001953-3.300293,6.1005859-3.300293,10.2998047
	c0,4.3007813,2.300293,7.2001953,8.2001953,7.2001953c4.7001953,0,10-2.2998047,14.6000977-5.2001953
	c-11,15-18.5,30.7001953-18.6000977,43.6005859c-0.1000977,10.7998047,5.5,17.5996094,16.7001953,17.5996094
	c11.8999329,0,22.7998352-11.0996094,28.7998352-18.5996094c-0.199707,1.2001953-0.3999023,3.7001953-0.3999023,5.2001953
	c0,7.2998047,4.1000977,13.4003906,12.6000977,13.4003906c9.300293,0,16.8999023-5.8007813,26.300293-17.2001953
	l-6.8999023,15.5996094h22.1997375l20.5004883-46.6005859c9-20.2998047,21.0996094-30.8994141,27.2001953-30.8994141
	c1.7998047,0,3,1,3,3c0,1.2998047-0.5,3.5-1.7998047,6.5996094l-30.1005859,67.9003906l23-0.0996094l21-47.4003906
	c9-20.2998047,19-30.3007813,26.500061-30.3007813c2.2001953,0,3.2001953,1.2001953,3.2001953,3.6005859
	c0,1.4003906-0.3994141,3.5996094-2.2001953,7.4003906l-20.0996704,42.8994141
	c-1.7001953,3.7001953-3.2998047,8.9003906-3.2998047,13c0,6.5,3.5996094,12.3007813,13.5996094,12.3007813
	c13.100647,0,23.100647-9.9003906,34.2998657-24.7001953l0.1005859,3.2001953c0.7998047,11.7998047,7.5,22,24.9003906,22
	c20.5996094,0,37.2998047-14.3007813,47.3994141-36.8007813c4.5-10.0996094,6.7001953-18.7001953,7.3007813-25.2998047
	c1.8994141,1,4.2998047,1.5996094,7.2998047,1.5996094c2.7998047,0,6.2002563-0.5996094,9.7002563-2.3994141l-3.6005859,7.7998047
	c-4.0996704,8.5996094-8.6992798,18.2001953-12.0996704,26.2001953c-2.5,5.9003906-4,11.4003906-4,15.0996094
	c0,8.1005859,4.4003906,13.8007813,13.5996094,13.8007813c9.2002563,0,21.8008423-8.6005859,30.7002563-20.7001953h0.3007813
	c-0.5,2.3994141-1.0009766,5.7998047-1.0009766,7.5996094c0,6.6005859,2.0009766,13,11.4003906,13
	c10.9003906,0,19.2998047-7.8994141,27.5-17.7001953l-7,15.8007813h22.7001953l18.1005859-41.1005859
	c10.2998047-23.2001953,20.5996094-37.1005859,30.2002563-37.1005859c2,0,3.0996094,1.4003906,3.0996094,3.4003906
	c0,3.9003906-5.5,14.5-10.7002563,25.2998047c-4.7001953,9.7001953-8.2001953,17.1005859-10.7001953,23
	c-2.2001953,5.2001953-3.8994141,11.4003906-3.8994141,15.5009766c0,7.0996094,4,12.5996094,12.7001953,12.5996094
	c13.0996704,0,26.500061-12.5996094,33.500061-22.2998047c-1.6005859,4.5-2.6005859,9.8994141-2.6005859,14.2001953
	c0,13.0996094,8,19.5996094,18.9003906,19.5996094c7.7001953,0,14.5-2.7001953,20.4003906-6.7998047
	c8.5996094-6,15.5-14.9003906,21.3994141-23.2001953l-3.8994141-3.7001953c-5.4003906,7.7001953-11.4003906,15-17.5,19.5
	c-3.7998047,2.7998047-7.7001953,4.6005859-11.6005859,4.6005859c-4.7001953,0-7.7001953-2.4003906-7.7001953-8.5
	c0-6,2.8007813-14.1005859,7.1005859-24.8007813c0.2001953-0.5,6.2998047-14.2001953,12.2001953-27.4003906
	c5-11.1992188,9.7998047-22.000061,10.7001953-24.1992798h14.6992188l3.0009766-6.7001953h-14.7001953L906.578064,771.493042z
	 M267.7750244,879.093689c-3.2998047,0-5.3999023-1.0996094-5.5-5.2998047
	c0.2001953-11.0996094,9.2998047-30.7001953,20.8999329-46.2998047
	c8.0004883-10.8007813,18.5004883-18.8008423,29.800293-18.8008423l-14.2998047,31.8008423
	C287.9752502,864.4940796,276.2750244,879.093689,267.7750244,879.093689z M407.6759949,879.093689
	c-3.2002258,0-5.4004211-1.0996094-5.5000305-5.2998047c0.199707-11.0996094,9.2998352-30.7001953,20.7998352-46.2998047
	c8-10.8007813,18.5-18.8008423,29.800293-18.8008423l-14.300293,31.8008423
	C427.7760925,864.7938843,416.6759949,879.093689,407.6759949,879.093689z M632.7771606,876.2938843
	c-5.1005859,7.0996094-9.4003906,9.2001953-13.2001953,9.2001953c-5.2001953,0-6.7001953-4.2998047-6.0996094-10.6005859
	c1.0996094-11.0996094,10.1992188-36.7001953,23-54.5c5.7998047-8.0996704,9.7998047-11.3994751,14.2001953-11.3994751
	c4.2998047,0,5.7998047,3.6992798,5.6992188,8.2998657C656.0769653,829.2938843,645.37677,858.6942749,632.7771606,876.2938843z"/>
<path fill="#0067A5" d="M210.2750092,825.4598999c7.699707-0.9003906,20.199707-3.4003906,25.0000153-5.0996094
	c29.5-8.2002563,63.0000305-28.000061,63.0000305-63.100647c0-40.4003906-42.7998352-59.8007813-93.9004364-59.8007813
	c-54.5000305,0-104.5005493,24.1005859-123.0005569,61.5009766c-4.8999023,9.8994141-7.6000977,20.7001953-7.6000977,32.2001953
	c0,10.3994141,2.5,19.7998047,7.6000977,27.2998657c7.89991,11.6005859,21.8999176,19,42.6001205,19
	c25.2002106,0,45.3003082-13.9003906,45.3003082-37.9004517c0,0,0.3999023-6.7998047-7.5-6.7998047
	c-6.5,0-8.1000977,4.4003906-8,6.7998047c0.8999023,18.9004517-10.2001953,34.0010376-30.3003082,34.0010376
	c-22.3999176,0-31.7998199-19.0009766-31.7998199-39.4004517c0-41.7001953,31.5000153-69.4003906,64.2002258-81.2011719
	c16.7998199-6.0996094,30.2998199-8.2998047,47.8999329-8.2998047c37.0005035,0,67.3003082,14.2001953,67.3003082,52.3007813
	c0,31.7998047-26.699707,58.9004517-58.8999176,61.2002563l1.2998047-4.4003906
	c6.6000977-23.2998657,14.5-48.7998657,27.6001129-67.7998657c0.800293-1.2001953,2.1000977-3,3.6000977-4.9003906
	l-1.7998047-2.2001953c-2.300293,1.2998047-6.5,4.4003906-8.2001953,5.7001953
	C173.174408,792.4598389,171.374588,926.8602905,89.4741669,926.8602905c-3,0-5.7002029-0.2001953-8.3003006-0.5996094
	c-17.099617-2.7998047-26.0000114-14.2001953-26.0000114-30.2001953c0-3.1005859,1.1000977-7.5,1.1000977-9.9003906
	c0-4.0996094-2.7998047-8.4003906-8.8999062-8.4003906c-7.3002968,0-10.3002968,5.7001953-10.4003944,14.1005859
	c-0.3999023,23.9003906,17.2002029,37.7998047,44.300312,40.2998047c3,0.2998047,6.0000076,0.4003906,9.2002029,0.4003906
	C154.4746857,932.0604858,193.7745056,883.9598999,210.2750092,825.4598999"/>
<polygon fill="#0067A5" points="233.2750092,994.9941406 242.8751221,994.9941406 242.8751221,940.0947266 231.5748138,940.0947266 
	231.5748138,974.1943359 207.2750092,940.0947266 197.6748962,940.0947266 197.6748962,994.9941406 209.0748138,994.9941406 
	209.0748138,960.9941406 "/>
<polygon fill="#0067A5" points="325.2755432,940.0947266 289.8751526,940.0947266 289.8751526,994.9941406 325.3751526,994.9941406 
	325.3751526,984.9941406 301.3751526,984.9941406 301.3751526,971.7949219 322.0753479,971.7949219 322.0753479,961.9941406 
	301.3751526,961.9941406 301.3751526,950.0947266 325.2755432,950.0947266 "/>
<polygon fill="#0067A5" points="385.6754761,994.9941406 396.975769,994.9941406 396.975769,950.0947266 415.4757996,950.0947266 
	415.4757996,940.0947266 367.1754761,940.0947266 367.1754761,950.0947266 385.6754761,950.0947266 "/>
<polygon fill="#0067A5" points="463.9762878,940.0947266 451.5758972,940.0947266 470.776123,994.9941406 480.4763184,994.9941406 
	492.1765137,960.1943359 503.876709,994.9941406 513.4763184,994.9941406 532.6765137,940.0947266 520.276123,940.0947266 
	508.5759277,975.7949219 496.776123,940.0947266 487.4763184,940.0947266 475.776123,975.7949219 "/>
<path fill="#0067A5" d="M614.1765747,947.0947266c-5.3994141-5.2001953-12.1992188-7.8007813-20.5-7.8007813
	c-8.3994141,0-15.2998047,2.6005859-20.5996094,7.8007813c-5.4003906,5.0996094-8,12-8,20.5s2.5996094,15.3994141,8,20.5996094
	c5.3994141,5.1005859,12.2001953,7.7001953,20.5996094,7.7001953c8.3007813,0,15.2001953-2.5996094,20.5-7.7001953
	c5.4003906-5.2001953,8-12,8-20.5996094C622.1765747,958.9941406,619.477356,952.1943359,614.1765747,947.0947266
	 M605.87677,980.8945313c-3.0996094,3.2998047-7.2001953,4.9003906-12.2001953,4.9003906
	c-5.0996094,0-9.2001953-1.6005859-12.3994141-4.9003906c-3.2001953-3.2998047-4.7001953-7.7001953-4.7001953-13.2998047
	c0-5.7001953,1.5-10.1005859,4.7001953-13.3007813c3.1992188-3.2998047,7.2998047-4.8994141,12.3994141-4.8994141
	c5.1005859,0,9.1005859,1.5996094,12.2001953,4.8994141c3.2001953,3.2001953,4.7001953,7.6005859,4.7001953,13.3007813
	C610.5769653,973.1943359,608.977356,977.5947266,605.87677,980.8945313"/>
<path fill="#0067A5" d="M705.477417,957.6943359c0-5.5-1.5996094-9.7998047-4.9003906-12.9003906
	c-3.1992188-3.1992188-7.5-4.6992188-12.8994141-4.6992188h-23.600647v54.8994141h11.4003906v-19.7998047h9.2001953
	l10.7998657,19.7998047h12.7998047l-11.7001953-21.5996094C702.1776123,970.6943359,705.477417,965.2949219,705.477417,957.6943359
	 M686.2771606,965.1943359H675.477356v-15.0996094h10.7998047c4.500061,0,7.600647,2.6992188,7.600647,7.5996094
	C693.8778076,962.3945313,690.7772217,965.1943359,686.2771606,965.1943359"/>
<polygon fill="#0067A5" points="762.477417,979.7949219 769.2781982,971.6943359 784.5780029,994.9941406 797.977417,994.9941406 
	776.8778076,962.5947266 795.7781982,940.0947266 781.1776123,940.0947266 762.477417,962.7939453 762.477417,940.0947266 
	751.0780029,940.0947266 751.0780029,994.9941406 762.477417,994.9941406 "/>
<polygon fill="#0067A5" points="211.6749115,642.1931763 210.2750092,639.992981 251.5748291,571.892395 275.1749268,535.0925293 
	301.9752502,506.9919434 272.7750244,565.892395 256.8751221,578.2927856 "/>
<polygon fill="#0067A5" points="339.0753479,583.6921997 348.975769,569.5925903 358.1754761,567.1921997 386.1759644,513.892334 
	389.475769,479.291748 404.7755737,445.0915222 403.5758667,440.5915222 379.8756714,470.4919434 373.975769,472.592041 
	330.9752502,537.892334 337.0753479,544.291748 292.6754456,643.2927856 322.4752502,612.392395 "/>
<polygon fill="#0067A5" points="397.5758667,593.7927856 393.0758667,586.2927856 354.975769,655.0925903 346.0753784,693.6932373 
	353.475769,693.6932373 377.7755737,664.6931763 387.6754761,619.492981 "/>
<polygon fill="#0067A5" points="546.9763184,294.1910706 516.4763184,264.1905518 516.4763184,362.991394 491.076416,432.2917175 
	525.5769043,454.2917175 466.8761902,612.492981 478.1760254,622.1921997 447.6759949,691.1932373 485.8762207,732.6932373 
	543.4763184,732.6932373 533.5759277,707.5926514 620.6765747,739.5936279 719.477417,739.5936279 698.6776123,703.5926514 
	687.8768311,675.2927856 683.6775513,653.892395 735.0770264,717.6932373 798.3778076,717.6932373 779.7781982,679.1931763 
	750.977417,650.392395 679.2771606,493.1921387 647.37677,483.4919434 638.1765747,493.8918457 632.5769653,493.8918457 
	616.5769653,451.5915222 600.5769653,423.1916199 578.4763794,387.491394 "/>
<path fill="#0067A5" d="M497.3762207,96.7895966c-218.3009033,0-395.2018433,177.5010529-395.2018433,396.4025269
	c0,60.2001953,13.3999023,117.2002563,37.2998123,168.3008423l150.9009705-173.6011353l13-4.2001953l58.1006165-82.000061
	l25.3999023-21.9003906l38.1001282-59.7002258l22.9003906-21.8999023l37.0000305-52.0005188l23.300293-17.7002106
	l43.2998047,31.1001129l21.500061,39.9004211l27.5,82.0005188l32.1005859,56.9004211l67.2998657,30l61.0009766,124.8003845
	l14.7998047,49.8007813l14.4003906,10.5996094l12.7001953,14.7998047l23.500061,44.8008423
	c41.9003906-62.9004517,66.4003906-138.600647,66.4003906-220.0015869
	C892.578064,274.2906494,715.6776123,96.7895966,497.3762207,96.7895966z"/>
<polygon fill="#0067A5" points="709.3172607,68.0947571 725.9705811,51.6953392 722.0623779,74.4907608 743.3446045,85.3647842 
	719.3563232,89.2026825 715.508667,112.6377487 704.868042,91.5869598 681.180481,95.2505341 698.4959717,78.7353897 
	687.7947998,57.2768822 "/>
<polygon fill="#0067A5" points="641.2566528,15.7583084 641.9187622,38.7866402 664.9441528,45.4155502 642.0984497,53.6733665 
	642.9998169,77.5151749 628.3308716,58.7900696 605.7859497,66.8730774 619.5545044,47.2182846 605.0046997,28.4350719 
	628.0916138,34.8896637 "/>
<polygon fill="#0067A5" points="784.4080811,110.7798386 804.0067139,97.8120575 795.8309326,119.5020142 814.6483765,133.9819946 
	790.1795654,133.4004517 781.8231201,155.6724396 775.5701904,133.0513306 751.6424561,132.2373657 771.7821045,119.0952759 
	765.5897217,96.1841278 "/>
<polygon fill="#0067A5" points="548.6169434,0 553.9069824,22.6211052 577.7156372,24.8891716 556.9128418,37.2168159 
	562.3845215,60.3032532 544.407959,44.7192612 523.8464355,56.8730736 533.4665527,35.1250153 515.6101074,19.1919041 
	539.5378418,21.3437595 "/>
<polygon fill="#0067A5" points="893.3485718,221.960556 905.312439,242.3717041 928.218689,237.5450439 912.2860718,254.6412354 
	924.2509155,274.9942627 901.8856812,265.3995361 885.7733765,283.0191956 888.4188843,259.8175049 866.5341187,250.22229 
	890.3427124,245.5123291 "/>
<polygon fill="#0067A5" points="935.5487671,301.631012 943.2441406,323.9610901 966.8710938,323.3795471 947.8134766,337.2193909 
	955.5683594,359.4337769 935.5487671,345.8844604 916.0692749,360.1896362 923.4042358,337.8014221 903.6239624,324.3683167 
	928.0331421,324.0777893 "/>
<polygon fill="#0067A5" points="849.1581421,172.3003845 870.8016968,163.2285919 858.5370483,182.9419861 874.1083374,200.6778259 
	850.3612671,195.502533 837.8563843,215.7974701 836.1122437,192.5372009 812.664978,187.1875916 835.0907593,178.1158142 
	833.4677124,154.4488068 "/>
<polygon fill="#0067A5" points="966.5087891,386.1813354 969.6347656,409.3835144 992.9619141,413.337616 971.6796875,423.3976746 
	974.8662109,446.6579285 957.7929688,429.5617371 935.968689,439.9709167 947.4511719,419.443573 930.8583374,402.5216675 
	954.6660156,406.8249207 "/>
<polygon fill="#0067A5" points="979.3789063,475.1516113 978.1162109,498.6447754 1000,506.7858887 977.1542969,512.6589355 
	975.7714844,535.9772949 962.3642578,516.0895996 938.8574219,522.3112793 954.2480469,504.2263184 941.1425781,484.5715332 
	963.7470703,493.236084 "/>
<polygon fill="#0067A5" points="934.0487671,684.2625122 923.7675171,705.3143311 918.9579468,681.9959106 894.8495483,679.204895 
	915.9520874,667.9812622 911.4432983,645.0115356 928.9384155,661.2937622 950.4013672,650.2449341 940.1816406,671.4695435 
	957.4355469,687.1707153 "/>
<polygon fill="#0067A5" points="987.7890625,597.2722778 964.0419922,598.7839966 958.3300781,621.4636841 949.0117188,599.4246216 
	924.6620483,601.0525513 943.2392578,586.2244263 934.2216187,564.4763794 954.7226563,577.211731 973.6005859,562.2663574 
	967.7089844,585.1775513 "/>
<polygon fill="#0067A5" points="256.6549072,85.3657608 280.6431885,89.2036591 284.4908752,112.6387253 295.1319885,91.5879364 
	318.8190002,95.2515106 301.5040588,78.7363663 312.2052307,57.2778587 290.6817932,68.0942688 274.0289307,51.6948509 
	277.9366455,74.4902725 "/>
<polygon fill="#0067A5" points="357.8956909,53.6733665 356.9938354,77.5156631 371.6627808,58.7905579 394.2081909,66.8735657 
	380.4411011,47.2187729 394.9899292,28.4355602 371.9039917,34.890152 358.7379761,15.7583084 358.076355,38.7861519 
	335.0504456,45.4155502 "/>
<polygon fill="#0067A5" points="185.3545837,133.9800415 209.8238373,133.3984985 218.1807709,155.6704865 224.4332123,133.0493774 
	248.3609619,132.2354126 228.2212982,119.0933228 234.4136963,96.1821747 215.5953217,110.7783737 195.9961853,97.8101044 
	204.1724701,119.5005493 "/>
<polygon fill="#0067A5" points="443.0861511,37.2163277 437.6149597,60.3027649 455.5910339,44.7187729 476.1520996,56.8725853 
	466.5329285,35.124527 484.388916,19.1914158 460.4611511,21.342783 451.3830261,0.0019531 446.0920105,22.6230583 
	422.283905,24.8911247 "/>
<polygon fill="#0067A5" points="87.7163544,254.6407471 75.7519913,274.9937744 98.1172333,265.3985596 114.2290573,283.0187073 
	111.5840378,259.8165283 133.4678345,250.2218018 109.6597214,245.5113525 106.653862,221.960556 94.6899872,242.3717041 
	71.7837296,237.5450439 "/>
<polygon fill="#0067A5" points="52.1850853,337.2208557 44.4292221,359.4352417 64.4497375,345.8859253 83.9287491,360.1911011 
	76.5937881,337.802887 96.3730927,324.3697815 71.9639053,324.0792542 64.448761,301.6329651 56.7534447,323.9630432 
	33.1264801,323.3815002 "/>
<polygon fill="#0067A5" points="125.894104,200.6802673 149.6416779,195.5049744 162.1465607,215.7999115 163.890213,192.5401306 
	187.3370056,187.190033 164.9121857,178.1182556 166.5352325,154.4512482 150.8443146,172.3033142 129.2012329,163.2320099 
	141.46492,182.9449158 "/>
<polygon fill="#0067A5" points="28.3169079,423.4015808 25.1303825,446.6618347 42.2046089,429.5656433 64.0288391,439.974823 
	52.5454369,419.4474792 69.1387024,402.5255737 45.3305893,406.8288269 33.4863434,386.1847534 30.3603668,409.3864441 
	7.0332065,413.3410339 "/>
<polygon fill="#0067A5" points="22.8457146,512.6618652 24.2285271,535.9802246 37.6357613,516.0915527 61.1426086,522.314209 
	45.7514877,504.229248 58.8579407,484.5739746 36.2524605,493.2385254 20.6215916,475.1535645 21.8842888,498.6467285 
	0,506.7878418 "/>
<polygon fill="#0067A5" points="105.1543503,679.2029419 84.0522842,667.9802856 88.5610809,645.0095825 71.0659561,661.2918091 
	49.6030502,650.242981 59.8227844,671.4675903 42.5688667,687.1687622 65.9560852,684.2615356 76.2368546,705.3123779 
	81.0469131,681.9939575 "/>
<polygon fill="#0067A5" points="50.9829369,599.4226685 75.3320694,601.0505981 56.7549095,586.2224731 65.7729797,564.4744263 
	45.2719955,577.2097778 26.3940563,562.2644043 32.2856598,585.1755981 12.2055721,597.2703247 35.9526558,598.7820435 
	41.6640816,621.461731 "/>
</svg>
