<?xml version="1.0" encoding="UTF-8" standalone="no"?>
<svg
   xmlns:dc="http://purl.org/dc/elements/1.1/"
   xmlns:cc="http://creativecommons.org/ns#"
   xmlns:rdf="http://www.w3.org/1999/02/22-rdf-syntax-ns#"
   xmlns:svg="http://www.w3.org/2000/svg"
   xmlns="http://www.w3.org/2000/svg"
   xmlns:sodipodi="http://sodipodi.sourceforge.net/DTD/sodipodi-0.dtd"
   xmlns:inkscape="http://www.inkscape.org/namespaces/inkscape"
   version="1.0"
   width="100"
   height="13"
   viewBox="0 0 80 10.4"
   preserveAspectRatio="xMidYMid meet"
   id="svg2"
   inkscape:version="0.92.4 (5da689c313, 2019-01-14)"
   sodipodi:docname="PlayBoy TV logo.svg">
  <title
     id="title3008">PlayBoy TV logo</title>
  <defs
     id="defs16" />
  <sodipodi:namedview
     pagecolor="#ffffff"
     bordercolor="#666666"
     borderopacity="1"
     objecttolerance="10"
     gridtolerance="10"
     guidetolerance="10"
     inkscape:pageopacity="0"
     inkscape:pageshadow="2"
     inkscape:window-width="1366"
     inkscape:window-height="705"
     id="namedview14"
     showgrid="false"
     inkscape:showpageshadow="false"
     inkscape:zoom="1"
     inkscape:cx="50.80407"
     inkscape:cy="7.4450211"
     inkscape:window-x="-8"
     inkscape:window-y="-8"
     inkscape:window-maximized="1"
     inkscape:current-layer="svg2" />
  <metadata
     id="metadata4">
Created by potrace 1.10, written by Peter Selinger 2001-2011
<rdf:RDF>
  <cc:Work
     rdf:about="">
    <dc:format>image/svg+xml</dc:format>
    <dc:type
       rdf:resource="http://purl.org/dc/dcmitype/StillImage" />
    <dc:title>PlayBoy TV logo</dc:title>
    <cc:license
       rdf:resource="http://scripts.sil.org/OFL" />
  </cc:Work>
  <cc:License
     rdf:about="http://scripts.sil.org/OFL">
    <cc:permits
       rdf:resource="http://scripts.sil.org/pub/OFL/Reproduction" />
    <cc:permits
       rdf:resource="http://scripts.sil.org/pub/OFL/Distribution" />
    <cc:permits
       rdf:resource="http://scripts.sil.org/pub/OFL/Embedding" />
    <cc:permits
       rdf:resource="http://scripts.sil.org/pub/OFL/DerivativeWorks" />
    <cc:requires
       rdf:resource="http://scripts.sil.org/pub/OFL/Notice" />
    <cc:requires
       rdf:resource="http://scripts.sil.org/pub/OFL/Attribution" />
    <cc:requires
       rdf:resource="http://scripts.sil.org/pub/OFL/ShareAlike" />
    <cc:requires
       rdf:resource="http://scripts.sil.org/pub/OFL/DerivativeRenaming" />
    <cc:requires
       rdf:resource="http://scripts.sil.org/pub/OFL/BundlingWhenSelling" />
  </cc:License>
</rdf:RDF>
</metadata>
  <g
     id="#231f20ff-2-6"
     transform="matrix(0.17281759,0,0,0.17281759,-12.467541,-99.25167)"
     style="fill:#ff0000" />
  <g
     id="g14"
     transform="matrix(0.16353734,0,0,0.16353734,0.26084208,0.43451889)">
    <g
       id="g10">
      <path
         style="fill:#b91616;stroke-width:0.20442167"
         d="M 5.8046875,0.33984375 C 6.3975104,0.85089794 6.600405,1.11603 7.1523438,1.6679688 8.4197581,3.037594 9.2798468,4.4284233 10.363281,5.859375 c 0.06133,0.020442 0.06055,-0.062631 0.06055,-0.1035156 0,-0.8994554 -3.86e-4,-1.7575741 0.183594,-2.5957032 0.163537,-1.471836 1.021745,-2.71810161 1.103516,-2.82031245 z M 0.50976562,0.359375 V 12.378906 H 6.8671875 C 5.7837526,12.092716 4.5783714,11.419372 4.046875,10.335938 3.678916,9.1911751 4.3532774,8.1077914 5.1914062,7.3105469 6.2135148,6.349765 7.5407936,6.0427062 8.9921875,5.9609375 l 0.021484,-0.019531 C 7.7053732,5.4099099 6.3567411,5.0416398 5.2324219,4.0195312 4.3125243,3.2222867 3.6162604,2.3230209 3.0234375,1.3417969 2.8190158,0.9738378 2.6753874,0.78866052 2.5527344,0.359375 Z M 65.085938,0.38085938 c -0.879014,0 -1.676061,0.16211748 -2.371094,0.46875 -0.695034,0.30663252 -1.288685,0.73712402 -1.779297,1.28906252 -0.47017,0.5519385 -0.85821,1.1859569 -1.103516,1.921875 -0.265748,0.735918 -0.388672,1.5320539 -0.388672,2.390625 0,0.8381288 0.122924,1.6146022 0.388672,2.3300781 0.265748,0.7154759 0.633346,1.349363 1.103516,1.880859 0.490612,0.531497 1.063821,0.960946 1.779297,1.267579 0.695033,0.306632 1.49208,0.449218 2.371094,0.449218 0.879013,0 1.67606,-0.142586 2.371093,-0.449218 0.695034,-0.306633 1.287643,-0.71564 1.757813,-1.267579 0.490612,-0.531496 0.860162,-1.1653831 1.105468,-1.880859 0.265749,-0.7154759 0.386719,-1.4919493 0.386719,-2.3300781 0,-0.8585711 -0.12097,-1.654707 -0.386719,-2.390625 -0.245306,-0.7359181 -0.614856,-1.3903787 -1.105468,-1.921875 -0.490612,-0.5519385 -1.062779,-0.98243 -1.757813,-1.28906252 -0.695033,-0.30663252 -1.49208,-0.46875 -2.371093,-0.46875 z m -41.640626,0.265625 V 12.09375 h 9.648438 l 0.900391,-2.5351562 h 4.292968 l 0.857422,2.5546872 h 2.617188 L 37.46875,0.66601562 H 34.892578 L 31.357422,10.007812 H 25.958984 V 0.64648438 Z m 15.332032,0 4.210937,6.99023442 V 12.09375 h 2.513672 v -4.375 L 49.222656,1.5449219 V 0.64648438 H 46.953125 L 44.275391,5.1835938 41.597656,0.64648438 Z m 11.140625,0 V 12.09375 h 5.458984 c 0.551939,0.02044 1.042591,-0.0405 1.533203,-0.183594 0.490612,-0.122653 0.919151,-0.328002 1.28711,-0.59375 0.388401,-0.265748 0.673573,-0.613683 0.898437,-1.042968 0.224864,-0.429286 0.347656,-0.9198073 0.347656,-1.492188 0,-0.7154759 -0.183733,-1.3287896 -0.53125,-1.8398438 -0.347516,-0.5110541 -0.879185,-0.8580783 -1.574218,-1.0625 0.511054,-0.245306 0.900267,-0.5510519 1.166015,-0.9394531 0.265748,-0.3884012 0.388672,-0.858349 0.388672,-1.4511719 0,-0.5314963 -0.08165,-0.9816503 -0.265625,-1.3496093 C 58.442974,1.7707129 58.198168,1.4846295 57.871094,1.2597656 57.544019,1.0349018 57.175248,0.89127334 56.705078,0.7890625 56.25535,0.68685166 55.764829,0.64648438 55.212891,0.64648438 Z m 19.501953,0 4.210937,6.99023442 V 12.09375 h 2.513672 v -4.375 L 80.396484,0.66601562 H 77.576172 V 0.64648438 L 74.917969,5.1640625 72.240234,0.64648438 Z m 12.019531,0 -1.246094,2.12500002 h 4.496094 v 9.3417966 h 2.515625 V 2.7714844 h 3.003906 l 3.025391,9.3417966 h 2.841797 L 99.878906,0.66601562 H 97.283203 V 0.64648438 L 94.707031,8.7011719 h -0.04102 L 92.111328,0.64648438 Z m -67.5,0.0410156 v 11.447266 h 2.515625 V 8.0058594 h 0.01953 2.636719 c 0.715476,0 1.32879,-0.102219 1.839844,-0.3066406 0.511054,-0.2044217 0.91993,-0.4912847 1.226562,-0.8183594 0.327075,-0.3475169 0.552218,-0.7358192 0.695313,-1.1855469 0.143095,-0.4497277 0.224609,-0.8998817 0.224609,-1.3496094 0,-0.4701698 -0.08151,-0.9194129 -0.224609,-1.3691406 C 22.729952,2.547277 22.504809,2.1376216 22.177734,1.8105469 21.871102,1.46303 21.462226,1.1985623 20.951172,0.99414062 20.440118,0.78971895 19.847246,0.6875 19.111328,0.6875 Z m 51.146485,1.8183594 c 0.57238,0 1.042328,0.1032611 1.451171,0.328125 0.388402,0.2248638 0.715632,0.5109472 0.960938,0.8789062 0.245306,0.367959 0.429039,0.7974083 0.53125,1.2675782 0.102211,0.4701698 0.164062,0.9605598 0.164062,1.4511718 0,0.490612 -0.06185,0.9399864 -0.164062,1.4101563 -0.122653,0.4497277 -0.285944,0.8586035 -0.53125,1.2265625 -0.245306,0.367959 -0.572536,0.6540424 -0.960938,0.8789062 -0.388401,0.2248634 -0.878791,0.3261714 -1.451171,0.3261724 -0.572381,0 -1.042329,-0.101309 -1.451172,-0.3261724 C 63.246364,9.7224018 62.919134,9.4363184 62.673828,9.0683594 62.428522,8.7004004 62.244789,8.2915246 62.142578,7.8417969 62.040367,7.3920692 61.978516,6.9222526 61.978516,6.4316406 c 0,-0.5110542 0.06185,-0.981002 0.164062,-1.4511718 0.122653,-0.4701699 0.285944,-0.8996192 0.53125,-1.2675782 0.245306,-0.367959 0.572536,-0.6540424 0.960938,-0.8789062 0.388401,-0.2248639 0.878791,-0.328125 1.451172,-0.328125 z M 16.474609,2.609375 H 18.4375 c 0.28619,0 0.572142,0.019662 0.837891,0.060547 0.265748,0.040884 0.510422,0.1234407 0.714843,0.2460937 0.204422,0.122653 0.367582,0.3063862 0.490235,0.53125 0.122653,0.2248639 0.185547,0.5109473 0.185547,0.8789063 0,0.367959 -0.06289,0.6540424 -0.185547,0.8789062 -0.122653,0.2248639 -0.285813,0.408597 -0.490235,0.53125 -0.204421,0.122653 -0.428653,0.2032563 -0.714843,0.2441407 -0.265749,0.040884 -0.551701,0.0625 -0.837891,0.0625 h -1.962891 z m 35.896485,0 h 2.351562 c 0.224864,0 0.449875,0.019662 0.654297,0.060547 0.204422,0.040884 0.387244,0.1028673 0.550781,0.2050781 0.163538,0.1022108 0.286461,0.2242236 0.388672,0.4082031 0.102211,0.1635374 0.142578,0.3885487 0.142578,0.6542969 0,0.490612 -0.141544,0.8385471 -0.427734,1.0429688 -0.28619,0.2248638 -0.655741,0.3261718 -1.105469,0.3261718 H 52.371094 Z M 36.140625,3.4882812 h 0.01953 l 1.451172,4.2109376 h -2.96289 z m 16.230469,3.515625 h 2.740234 c 0.551939,0 0.979566,0.1229237 1.306641,0.3886719 0.327074,0.245306 0.492187,0.6747553 0.492187,1.2675781 0,0.3066326 -0.04232,0.5503955 -0.144531,0.734375 -0.102211,0.1839796 -0.244666,0.3489611 -0.408203,0.4511719 -0.163537,0.122653 -0.368886,0.1828139 -0.59375,0.2441409 -0.224864,0.04088 -0.468496,0.08203 -0.69336,0.08203 h -2.699218 v -0.01953 z M 6.6914062,7.3320312 A 0.77282512,0.77282512 0 0 0 5.9179688,8.1054688 0.77282512,0.77282512 0 0 0 6.6914062,8.8789062 0.77282512,0.77282512 0 0 0 7.4648438,8.1054688 v -0.00195 A 0.77282512,0.77282512 0 0 0 6.6914062,7.3320312 Z"
         transform="matrix(4.8918492,0,0,4.8918492,-2.4919338,-1.7600674)"
         id="path6"
         inkscape:connector-curvature="0" />
    </g>
  </g>
</svg>
