<?xml version="1.0" encoding="UTF-8"?>
<!-- Generator: Adobe Illustrator 16.0.0, SVG Export Plug-In . SVG Version: 6.00 Build 0)  -->
<!DOCTYPE svg PUBLIC "-//W3C//DTD SVG 1.1//EN" "http://www.w3.org/Graphics/SVG/1.1/DTD/svg11.dtd">
<svg version="1.1" id="svg2" xmlns:dc="http://purl.org/dc/elements/1.1/" xmlns:cc="http://creativecommons.org/ns#" xmlns:rdf="http://www.w3.org/1999/02/22-rdf-syntax-ns#" xmlns:svg="http://www.w3.org/2000/svg" xmlns:sodipodi="http://sodipodi.sourceforge.net/DTD/sodipodi-0.dtd" xmlns:inkscape="http://www.inkscape.org/namespaces/inkscape" sodipodi:docname="SYFY.svg" inkscape:version="0.91 r13725" xmlns="http://www.w3.org/2000/svg" xmlns:xlink="http://www.w3.org/1999/xlink" x="0px" y="0px" width="1000px" height="245.279px" viewBox="-200 303.248 1000 245.279" enable-background="new -200 303.248 1000 245.279" xml:space="preserve">
<sodipodi:namedview showgrid="false" inkscape:cy="489.79096" inkscape:cx="416.96406" inkscape:zoom="0.90509668" borderopacity="1.0" bordercolor="#666666" pagecolor="#ffffff" id="base" inkscape:window-maximized="1" inkscape:current-layer="layer1" inkscape:pageshadow="2" inkscape:pageopacity="0.0" inkscape:document-units="px" inkscape:window-x="-8" inkscape:window-height="1027" inkscape:window-y="-8" inkscape:window-width="1920">
	</sodipodi:namedview>
<g>
	<polygon fill="#E1FF01" points="315.046,545.763 312.312,543 312.312,447.626 312.312,352.252 336.817,327.75 361.323,303.249    444.53,303.249 527.737,303.249 530.472,306.012 533.205,308.774 533.205,352.071 533.205,395.366 530.302,398.315    527.398,401.265 473.883,401.265 420.368,401.265 420.368,413.216 420.368,425.169 473.947,425.169 527.527,425.169    530.366,427.993 533.205,430.814 533.205,468.766 533.205,506.721 530.443,509.455 527.68,512.189 474.024,512.189    420.368,512.189 420.368,527.623 420.368,543.058 417.604,545.792 414.841,548.526 366.311,548.526 317.78,548.526    315.046,545.763  "/>
	<path fill="#E1FF01" d="M627.253,545.754l-2.744-2.773V518.22l0.002-24.76l-30.788-30.918   c-16.935-17.004-31.884-32.078-33.222-33.5l-2.433-2.58v-59.146v-59.148l2.6-2.46l2.603-2.459h48.692h48.692l2.734,2.764   l2.734,2.762v58.197v58.198h12.313h12.312l-0.124-58.193l-0.124-58.192l2.737-2.769l2.739-2.766h49.276h49.276l2.734,2.764   l2.736,2.762V367.1v58.323l-33.708,33.663l-33.71,33.661v24.914v24.916l-3.001,2.975l-2.999,2.974h-48.294h-48.294L627.253,545.754   L627.253,545.754z"/>
	<path fill="#E1FF01" d="M-197.266,545.763L-200,543v-43.959v-43.96l2.734-2.763l2.735-2.764h52.488h52.49v-11.953v-11.953   l1.554-0.066c0.855-0.035,24.36-0.098,52.235-0.141l50.682-0.074l2.988,2.846l2.989,2.846v34.232v34.231l-24.506,24.502   l-24.505,24.503h-83.208h-83.207L-197.266,545.763L-197.266,545.763z"/>
	<polygon fill="#E1FF01" points="114.68,545.97 112.155,543.414 112.189,518.597 112.222,493.781 79.11,460.355 45.995,426.929    45.757,368.077 45.518,309.225 48.343,306.236 51.168,303.248 99.668,303.248 148.17,303.248 150.992,306.087 153.813,308.926    153.813,367.27 153.813,425.613 166.005,425.578 178.198,425.544 178.198,367.371 178.198,309.197 181.198,306.223 184.2,303.248    233.21,303.248 282.219,303.248 284.955,306.011 287.688,308.774 287.688,367.093 287.688,425.412 253.981,459.117    220.272,492.822 220.272,517.94 220.272,543.058 217.51,545.792 214.746,548.527 165.976,548.527 117.204,548.527 114.68,545.97     "/>
	<polygon fill="#E1FF01" points="-197.266,422.407 -200,419.644 -200,385.949 -200,352.252 -175.494,327.75 -150.988,303.248    -67.88,303.248 15.228,303.248 18.061,305.951 20.895,308.653 20.895,352.225 20.895,395.795 18.131,398.53 15.368,401.264    -37.092,401.264 -89.552,401.264 -89.552,413.217 -89.552,425.169 -142.042,425.169 -194.53,425.169 -197.266,422.407  "/>
</g>
</svg>