<?xml version="1.0" encoding="UTF-8"?>
<!-- Generator: Adobe Illustrator 16.0.0, SVG Export Plug-In . SVG Version: 6.00 Build 0)  -->
<!DOCTYPE svg PUBLIC "-//W3C//DTD SVG 1.1//EN" "http://www.w3.org/Graphics/SVG/1.1/DTD/svg11.dtd">
<svg version="1.1" id="svg2" xmlns:dc="http://purl.org/dc/elements/1.1/" xmlns:cc="http://creativecommons.org/ns#" xmlns:rdf="http://www.w3.org/1999/02/22-rdf-syntax-ns#" xmlns:svg="http://www.w3.org/2000/svg" xmlns:sodipodi="http://sodipodi.sourceforge.net/DTD/sodipodi-0.dtd" xmlns:inkscape="http://www.inkscape.org/namespaces/inkscape" sodipodi:docname="SYFY.svg" inkscape:version="0.91 r13725" xmlns="http://www.w3.org/2000/svg" xmlns:xlink="http://www.w3.org/1999/xlink" x="0px" y="0px" width="947.078px" height="1000px" viewBox="-173.538 -74.113 947.078 1000" enable-background="new -173.538 -74.113 947.078 1000" xml:space="preserve">
<sodipodi:namedview showgrid="false" inkscape:cy="489.79096" inkscape:cx="416.96406" inkscape:zoom="0.90509668" borderopacity="1.0" bordercolor="#666666" pagecolor="#ffffff" id="base" inkscape:window-maximized="1" inkscape:current-layer="layer1" inkscape:pageshadow="2" inkscape:pageopacity="0.0" inkscape:document-units="px" inkscape:window-x="-8" inkscape:window-height="1027" inkscape:window-y="-8" inkscape:window-width="1920">
	</sodipodi:namedview>
<g>
	<polygon fill="#E1FF01" points="-168.229,920.524 -173.538,915.157 -173.538,729.945 -173.538,544.728 -125.948,497.147    -78.359,449.565 83.227,449.565 244.813,449.565 250.123,454.932 255.432,460.295 255.432,544.377 255.432,628.455    249.793,634.182 244.155,639.91 140.229,639.91 36.305,639.91 36.305,663.119 36.305,686.333 140.354,686.333 244.404,686.333    249.918,691.815 255.432,697.293 255.432,770.996 255.432,844.704 250.066,850.01 244.701,855.323 140.503,855.323 36.305,855.323    36.305,885.292 36.305,915.268 30.938,920.58 25.572,925.887 -68.673,925.887 -162.918,925.887 -168.229,920.524  "/>
	<path fill="#E1FF01" d="M438.07,920.505l-5.328-5.386v-48.084l0.002-48.085l-59.79-60.042   c-32.885-33.021-61.916-62.294-64.515-65.054l-4.724-5.012v-114.86V459.119l5.049-4.777l5.054-4.776h94.559h94.561l5.31,5.367   l5.31,5.363v113.019v113.019h23.911h23.908l-0.24-113.01l-0.24-113.009l5.316-5.377l5.319-5.372h95.693h95.693l5.31,5.367   l5.313,5.363v113.268v113.263l-65.46,65.373l-65.461,65.368v48.384v48.385l-5.828,5.778l-5.827,5.773h-93.785h-93.783   L438.07,920.505L438.07,920.505z"/>
	<path fill="#E1FF01" d="M-168.229,396.846l-5.31-5.368v-85.367v-85.37l5.31-5.365l5.311-5.366h101.932H40.948v-23.212v-23.212   l3.017-0.128c1.66-0.069,47.308-0.192,101.439-0.273l98.422-0.146l5.802,5.528l5.804,5.527v66.477v66.477l-47.589,47.583   l-47.588,47.583H-1.332h-161.585L-168.229,396.846L-168.229,396.846z"/>
	<polygon fill="#E1FF01" points="437.561,397.248 432.659,392.284 432.724,344.09 432.788,295.897 368.484,230.985 304.178,166.074    303.716,51.784 303.25,-62.506 308.737,-68.31 314.223,-74.113 408.409,-74.113 502.598,-74.113 508.078,-68.599 513.557,-63.085    513.557,50.216 513.557,163.516 537.234,163.449 560.912,163.382 560.912,50.411 560.912,-62.561 566.738,-68.336 572.567,-74.113    667.744,-74.113 762.918,-74.113 768.23,-68.747 773.54,-63.381 773.54,49.872 773.54,163.126 708.08,228.581 642.619,294.035    642.619,342.813 642.619,391.592 637.255,396.901 631.887,402.211 537.177,402.211 442.464,402.211 437.561,397.248  "/>
	<polygon fill="#E1FF01" points="-168.229,157.29 -173.538,151.925 -173.538,86.489 -173.538,21.052 -125.948,-26.53    -78.359,-74.113 83.035,-74.113 244.429,-74.113 249.93,-68.865 255.432,-63.616 255.432,20.998 255.432,105.612 250.066,110.921    244.701,116.231 142.824,116.231 40.948,116.231 40.948,139.444 40.948,162.656 -60.985,162.656 -162.917,162.656 -168.229,157.29     "/>
</g>
</svg>