<?xml version="1.0" encoding="UTF-8" standalone="no"?>
<!-- Generator: Adobe Illustrator 16.0.0, SVG Export Plug-In . SVG Version: 6.00 Build 0)  -->

<svg
   xmlns:dc="http://purl.org/dc/elements/1.1/"
   xmlns:cc="http://creativecommons.org/ns#"
   xmlns:rdf="http://www.w3.org/1999/02/22-rdf-syntax-ns#"
   xmlns:svg="http://www.w3.org/2000/svg"
   xmlns="http://www.w3.org/2000/svg"
   xmlns:sodipodi="http://sodipodi.sourceforge.net/DTD/sodipodi-0.dtd"
   xmlns:inkscape="http://www.inkscape.org/namespaces/inkscape"
   version="1.1"
   id="Layer_1"
   x="0px"
   y="0px"
   width="982.00299"
   height="416.07199"
   viewBox="0 0 982.00296 416.07198"
   enable-background="new 0 0 1000.728 416.07"
   xml:space="preserve"
   inkscape:version="0.91 r13725"
   sodipodi:docname="Turner_Classic_Movies_2013.svg"><metadata
     id="metadata59"><rdf:RDF><cc:Work
         rdf:about=""><dc:format>image/svg+xml</dc:format><dc:type
           rdf:resource="http://purl.org/dc/dcmitype/StillImage" /><dc:title></dc:title></cc:Work></rdf:RDF></metadata><defs
     id="defs57" /><sodipodi:namedview
     pagecolor="#ffffff"
     bordercolor="#666666"
     borderopacity="1"
     objecttolerance="10"
     gridtolerance="10"
     guidetolerance="10"
     inkscape:pageopacity="0"
     inkscape:pageshadow="2"
     inkscape:window-width="1680"
     inkscape:window-height="931"
     id="namedview55"
     showgrid="false"
     inkscape:zoom="1.2390979"
     inkscape:cx="446.46595"
     inkscape:cy="192.55326"
     inkscape:window-x="0"
     inkscape:window-y="1"
     inkscape:window-maximized="1"
     inkscape:current-layer="g3" /><g
     id="g3"
     transform="translate(0,0.00199268)"><rect
       y="0"
       width="981.50403"
       height="306.01401"
       id="rect5"
       style="fill:#000000"
       x="0" /><path
       d="m 839.216,179.751 c 0,1.609 -1.215,3.305 -2.644,3.807 l -8.684,3.519 c -1.394,0.625 -2.537,-0.214 -2.537,-1.839 l 0,-60.371 c 0,-1.607 1.144,-3.181 2.537,-3.84 l 8.684,-3.396 c 1.429,-0.661 2.644,0.107 2.644,1.68 l 0,60.44 z m -101.981,-26.531 -4.253,5.021 c -1.25,1.321 -3.072,1.321 -4.287,0 L 691.64,118.952 c -0.322,-0.553 -0.715,-1.071 -0.715,-1.768 0,-1.34 1.179,-2.448 2.466,-2.448 l 10.255,0 0.214,-0.144 c 0.786,-0.07 1.645,0.322 2.323,0.982 l 31.052,32.928 c 1.251,1.325 1.251,3.451 0,4.718 m 139.464,-38 c 3.573,-1.395 8.255,-3.342 12.007,-4.325 4.181,-1.126 4.859,-2.59 4.502,-4.359 l 0,-12.542 -102.767,0 -30.444,35.447 c -0.286,0.446 -0.75,0.59 -1.072,0.59 -0.571,0 -1.036,-0.144 -1.321,-0.52 l -32.946,-35.518 -102.554,0 0,12.542 c -0.179,1.77 0.393,3.233 4.682,4.359 3.68,0.983 8.325,2.931 12.006,4.325 3.287,1.303 4.037,3.18 3.931,5.627 l 0,68.427 c 0.106,2.521 -0.644,4.36 -3.931,5.7 -3.681,1.465 -8.326,3.377 -12.006,4.359 -4.289,1.126 -4.86,2.662 -4.682,4.324 l 0,12.614 64.068,0 0,-12.614 c 0.287,-1.662 -0.465,-3.198 -4.573,-4.324 -3.609,-0.982 -8.434,-2.895 -11.898,-4.359 -3.324,-1.34 -4.146,-3.18 -4.002,-5.7 l -0.144,-54.116 c 0,-1.25 0.93,-2.27 2.036,-2.27 0.537,0 0.895,0.144 1.18,0.502 l 59.209,68.605 59.638,-70.215 c 0.501,-0.5 1.072,-0.84 1.858,-0.84 1.107,0 1.822,1.037 1.822,2.197 l 0.143,56.136 c 0.143,2.521 -0.75,4.36 -4.038,5.7 -3.608,1.465 -8.325,3.377 -11.935,4.359 -4.181,1.126 -4.931,2.662 -4.573,4.324 l 0,12.614 122.313,0 0,-12.614 c 0.357,-1.662 -0.321,-3.198 -4.502,-4.324 -3.752,-0.982 -8.434,-2.895 -12.007,-4.359 -3.358,-1.34 -4.108,-3.18 -3.966,-5.7 l 0,-68.427 c -0.142,-2.445 0.608,-4.322 3.966,-5.625 m -448.264,66.766 c 1.75,1.714 0.25,5.02 -2.466,4.467 -4.967,-0.43 -26.157,-13.758 -26.157,-34.983 0,-20.528 21.334,-32.517 26.157,-33.069 2.716,-0.519 4.216,2.733 2.466,4.572 -10.256,9.326 -10.828,19.385 -10.828,29.535 0.072,8.556 0.572,20.008 10.828,29.478 m 136.283,-3.574 c -28.943,15.795 -65.318,23.584 -98.514,16.098 -6.182,-1.947 -8.862,-7.914 -9.935,-13.148 -1.93,-8.309 -1.93,-51.85 1.251,-57.995 5.932,-13.167 22.369,-11.56 35.482,-13.023 29.658,0.625 56.922,13.613 65.463,33.48 0.249,1.036 1.321,1.911 3.858,1.108 12.078,-3.628 12.899,-4.109 12.899,-4.109 L 565.86,87.885 552.854,87.009 c 0,0 -2.287,9.291 -9.934,7.969 -53.421,-8.826 -111.915,-12.363 -157.367,14.972 -15.829,10.345 -28.586,24.657 -28.586,43.542 0,19.419 10.685,31.568 26.657,42.218 52.813,33.91 134.282,25.798 191.884,7.217 l -6.36,-22.476 c -0.678,-1.967 -2.251,-2.737 -4.43,-2.039 m -351.18,4.377 c 0,1.607 -1.215,3.377 -2.716,3.877 l -9.326,3.521 c -1.501,0.445 -2.751,-0.216 -2.751,-1.752 l 0,-60.406 c 0,-1.66 1.25,-3.377 2.751,-3.822 l 9.326,-3.609 c 1.501,-0.483 2.716,0.25 2.716,1.751 l 0,60.44 z M 100.98,93.994 c 0,0 -7.825,31.641 -12.328,46.398 l 12.114,4.646 c 3.501,1.431 3.858,-0.696 5.752,-2.751 10.256,-19.688 32.589,-34.144 54.635,-27.229 l 0,74.216 c 0,2.521 -0.785,4.36 -4.18,5.7 -3.896,1.465 -8.897,3.377 -12.828,4.359 -4.431,1.126 -5.109,2.662 -4.896,4.324 l 0,12.614 132.675,0 0,-12.614 c 0.357,-1.662 -0.285,-3.198 -4.823,-4.324 -3.824,-0.982 -8.897,-2.895 -12.685,-4.359 -3.503,-1.34 -4.359,-3.18 -4.217,-5.7 l -0.072,-74.216 c 21.976,-6.915 44.344,7.541 54.636,27.229 1.858,2.055 2.251,4.182 5.824,2.751 l 12.077,-4.646 C 318.162,125.634 310.266,93.994 310.266,93.994 l -209.286,0 z"
       id="path7"
       inkscape:connector-curvature="0"
       style="fill:#ffffff" /><polygon
       points="26.12,414.999 18.295,414.999 18.295,356.682 0,356.682 0,350.179 44.201,350.179 44.201,356.682 26.12,356.682 "
       id="polygon9"
       style="fill:#000000" /><path
       d="m 52.669,396.631 0,-46.452 7.862,0 0,45.523 c 0,10.361 6.683,13.863 13.614,13.863 8.289,0 13.542,-5.288 13.256,-13.506 l 0,-45.881 7.576,0 0,46.095 c 0.071,12.648 -9.006,19.796 -21.369,19.796 -11.183,10e-4 -20.939,-5.537 -20.939,-19.438"
       id="path11"
       style="fill:#000000"
       inkscape:connector-curvature="0" /><path
       d="m 108.234,350.179 20.366,0 c 12.758,0 19.367,7.433 19.367,18.581 0,9.397 -4.537,16.579 -13.827,18.223 l 15.722,28.016 -8.504,0 -14.758,-26.729 -10.47,0 0,26.729 -7.896,0 0,-64.82 z m 18.724,31.873 c 8.754,0 13.221,-4.146 13.221,-12.793 0,-7.539 -3.752,-12.721 -12.685,-12.721 l -11.363,0 0,25.514 10.827,0 z"
       id="path13"
       style="fill:#000000"
       inkscape:connector-curvature="0" /><polygon
       points="203.282,414.999 196.458,414.999 168.157,363.436 167.979,363.436 167.979,414.999 161.011,414.999 161.011,350.179 168.907,350.179 196.101,399.275 196.279,399.275 196.279,350.179 203.282,350.179 "
       id="polygon15"
       style="fill:#000000" /><polygon
       points="247.341,384.804 224.865,384.804 224.865,408.28 253.095,408.28 253.095,414.999 216.968,414.999 216.968,350.179 253.095,350.179 253.095,356.896 224.865,356.896 224.865,378.193 247.341,378.193 "
       id="polygon17"
       style="fill:#000000" /><path
       d="m 264.457,350.179 20.403,0 c 12.721,0 19.331,7.433 19.331,18.581 0,9.397 -4.538,16.579 -13.828,18.223 l 15.759,28.016 -8.541,0 -14.758,-26.729 -10.469,0 0,26.729 -7.897,0 0,-64.82 z m 18.76,31.873 c 8.718,0 13.149,-4.146 13.149,-12.793 0,-7.539 -3.716,-12.721 -12.613,-12.721 l -11.398,0 0,25.514 10.862,0 z"
       id="path19"
       style="fill:#000000"
       inkscape:connector-curvature="0" /><path
       d="m 330.776,394.344 0,-23.262 c 0,-14.258 11.828,-22.048 24.979,-22.048 13.291,0 23.761,6.612 23.761,20.046 l 0,4.646 -15.364,0 0,-3.68 c 0,-4.717 -3.682,-7.432 -8.111,-7.432 -5.253,0 -8.254,2.929 -8.254,8.11 l 0,23.262 c 0,5.574 3.001,8.576 8.254,8.576 4.359,0 8.111,-2.645 8.111,-7.36 l 0,-3.788 15.364,0 0,4.787 c 0,13.364 -10.29,19.868 -23.654,19.868 -13.186,10e-4 -25.086,-6.217 -25.086,-21.725"
       id="path21"
       style="fill:#000000"
       inkscape:connector-curvature="0" /><polygon
       points="387.843,350.179 404.672,350.179 404.672,401.456 431.329,401.456 431.329,414.999 387.843,414.999 "
       id="polygon23"
       style="fill:#000000" /><path
       d="m 455.162,350.107 21.188,0 18.475,64.892 -17.295,0 -3.251,-12.436 -19.117,0 -3.252,12.436 -15.472,0 18.724,-64.892 z m 15.758,39.592 -6.003,-23.261 -0.25,0 -6.003,23.261 12.256,0 z"
       id="path25"
       style="fill:#000000"
       inkscape:connector-curvature="0" /><path
       d="m 497.612,407.53 8.576,-11.077 c 3.858,3.252 9.361,6.538 15.436,6.538 4.289,0 7.647,-1.893 7.647,-5.217 0,-3.43 -2.751,-4.858 -6.861,-6.503 l -8.432,-3.466 c -8.72,-3.537 -13.437,-9.29 -13.437,-18.188 0,-11.077 8.897,-20.546 23.083,-20.546 7.79,0 15.759,2 21.547,7.253 l -8.289,11.113 c -3.609,-3.002 -8.897,-5.824 -13.364,-5.824 -4.467,0 -6.789,2 -6.789,5.36 0,3.465 4.252,4.787 8.683,6.717 l 6.754,3.001 c 9.647,4.218 14.543,10.363 14.543,18.546 0,14.187 -12.471,20.832 -24.977,20.832 -9.291,10e-4 -17.938,-2.464 -24.12,-8.539"
       id="path27"
       style="fill:#000000"
       inkscape:connector-curvature="0" /><path
       d="m 551.426,407.53 8.54,-11.077 c 3.895,3.252 9.361,6.538 15.437,6.538 4.288,0 7.646,-1.893 7.646,-5.217 0,-3.43 -2.751,-4.858 -6.825,-6.503 l -8.468,-3.466 c -8.684,-3.537 -13.437,-9.29 -13.437,-18.188 0,-11.077 8.898,-20.546 23.119,-20.546 7.79,0 15.723,2 21.547,7.253 l -8.325,11.113 c -3.609,-3.002 -8.897,-5.824 -13.364,-5.824 -4.431,0 -6.789,2 -6.789,5.36 0,3.465 4.288,4.787 8.719,6.717 l 6.718,3.001 c 9.647,4.218 14.579,10.363 14.579,18.546 0,14.187 -12.507,20.832 -25.013,20.832 -9.29,10e-4 -17.939,-2.464 -24.084,-8.539"
       id="path29"
       style="fill:#000000"
       inkscape:connector-curvature="0" /><rect
       x="609.24103"
       y="350.17899"
       width="16.795"
       height="64.819"
       id="rect31"
       style="fill:#000000" /><path
       d="m 635.184,394.344 0,-23.262 c 0,-14.258 11.826,-22.048 25.012,-22.048 13.293,0 23.727,6.612 23.727,20.046 l 0,4.646 -15.365,0 0,-3.68 c 0,-4.717 -3.644,-7.432 -8.075,-7.432 -5.253,0 -8.254,2.929 -8.254,8.11 l 0,23.262 c 0,5.574 3.001,8.576 8.254,8.576 4.359,0 8.075,-2.645 8.075,-7.36 l 0,-3.788 15.365,0 0,4.787 c 0,13.364 -10.255,19.868 -23.619,19.868 -13.222,10e-4 -25.12,-6.217 -25.12,-21.725"
       id="path33"
       style="fill:#000000"
       inkscape:connector-curvature="0" /><polygon
       points="760.676,414.999 753.493,414.999 753.493,360.827 753.314,360.827 738.557,393.452 733.019,393.452 718.226,360.898 717.939,360.898 717.939,414.999 710.937,414.999 710.937,350.179 721.12,350.179 736.021,382.41 736.234,382.41 751.028,350.179 760.676,350.179 "
       id="polygon35"
       style="fill:#000000" /><path
       d="m 772.825,396.274 0,-26.442 c 0,-13.435 9.183,-20.867 21.618,-20.867 12.185,0 21.726,6.218 21.726,19.724 l 0,26.585 c 0,13.722 -9.362,20.797 -21.619,20.797 -12.184,-0.001 -21.725,-6.075 -21.725,-19.797 m 35.447,-0.571 0,-27.015 c 0,-8.075 -5.361,-12.972 -14.008,-12.972 -8.719,0 -13.543,5.468 -13.543,14.115 l 0,26.013 c 0,8.147 5.003,13.401 13.9,13.401 8.576,10e-4 13.651,-5.538 13.651,-13.542"
       id="path37"
       style="fill:#000000"
       inkscape:connector-curvature="0" /><polygon
       points="849.543,415.284 841.217,415.284 822.922,350.179 830.926,350.179 845.647,405.35 845.826,405.35 860.548,350.179 867.838,350.179 "
       id="polygon39"
       style="fill:#000000" /><rect
       x="877.05798"
       y="350.17899"
       width="7.8959999"
       height="64.819"
       id="rect41"
       style="fill:#000000" /><polygon
       points="929.012,384.804 906.537,384.804 906.537,408.28 934.765,408.28 934.765,414.999 898.639,414.999 898.639,350.179 934.765,350.179 934.765,356.896 906.537,356.896 906.537,378.193 929.012,378.193 "
       id="polygon43"
       style="fill:#000000" /><path
       d="m 939.982,407.171 5.217,-5.574 c 4.717,4.575 8.79,7.47 17.08,7.47 7.469,0 11.828,-4.359 11.828,-10.363 0,-6.539 -4.896,-9.291 -9.934,-11.648 l -8.612,-4.074 c -7.719,-3.644 -12.113,-9.004 -12.113,-16.58 0,-9.539 7.075,-17.329 18.902,-17.329 7.289,0 13.828,2.25 18.367,7.968 l -5.539,5.217 c -4.181,-4.146 -7.576,-6.468 -13.257,-6.468 -6.182,0 -10.648,2.824 -10.648,9.541 0,5.109 3.18,8.004 9.112,10.791 l 7.396,3.574 c 8.647,4.072 14.222,9.646 14.222,17.938 0,11.184 -9.076,18.438 -21.011,18.438 -9.004,-0.002 -15.971,-3.075 -21.01,-8.901"
       id="path45"
       style="fill:#000000"
       inkscape:connector-curvature="0" /></g></svg>