<?xml version="1.0" encoding="UTF-8"?>
<svg xmlns="http://www.w3.org/2000/svg" xmlns:xlink="http://www.w3.org/1999/xlink" width="1999pt" height="1953pt" viewBox="0 0 1999 1953" version="1.1">
<g id="surface1">
<path style=" stroke:none;fill-rule:nonzero;fill:rgb(100%,100%,100%);fill-opacity:1;" d="M 805.546875 515.121094 C 837.550781 479.039062 887.125 464.464844 934.058594 463.882812 C 1068.339844 463.835938 1202.574219 463.835938 1336.808594 463.882812 C 1353.035156 464.105469 1369.351562 462.808594 1385.53125 465.132812 C 1368.546875 511.589844 1349.414062 558.984375 1313.609375 594.484375 C 1277.847656 631.59375 1226.890625 652.832031 1175.441406 652.742188 C 1074.195312 652.832031 972.949219 652.789062 871.703125 652.789062 C 825.660156 653.949219 779.574219 655.070312 733.757812 659.851562 C 737.78125 644.785156 744.617188 630.746094 750.5625 616.4375 C 765.671875 581.117188 778.589844 543.511719 805.546875 515.121094 Z M 805.546875 515.121094 "/>
<path style=" stroke:none;fill-rule:nonzero;fill:rgb(100%,100%,100%);fill-opacity:1;" d="M 699.648438 754.195312 C 793.96875 750.171875 888.777344 746.058594 982.960938 755.265625 C 1060.875 763.359375 1138.964844 780.664062 1209.277344 816.253906 C 1268.417969 846.164062 1321.164062 892.039062 1350.753906 952.175781 C 1386.113281 1025.144531 1388.394531 1112.332031 1362.957031 1188.789062 C 1337.523438 1264.21875 1277.625 1323.640625 1208.386719 1360.484375 C 1106.691406 1414.984375 990.335938 1434.03125 876.394531 1440.828125 C 776.222656 1445.390625 675.332031 1444.316406 576.054688 1429.25 C 577.753906 1422.542969 579.808594 1415.925781 582.625 1409.621094 C 606.359375 1357.21875 629.246094 1304.503906 652.582031 1251.921875 C 714.757812 1258.675781 777.339844 1259.703125 839.785156 1258.136719 C 909.652344 1254.875 980.367188 1247.140625 1046.257812 1222.503906 C 1085.816406 1207.523438 1124.882812 1185.125 1148.84375 1149.175781 C 1175.707031 1109.875 1172.132812 1053.628906 1142.273438 1016.964844 C 1109.507812 977.214844 1058.636719 958.972656 1010.09375 947.214844 C 910.589844 924.589844 807.691406 927.226562 706.308594 928.882812 C 678.195312 928.703125 650.078125 930.625 621.960938 931.878906 C 645.921875 871.875 673.902344 813.480469 699.648438 754.195312 Z M 699.648438 754.195312 "/>
<path style=" stroke:none;fill-rule:nonzero;fill:rgb(100%,100%,100%);fill-opacity:1;" d="M 789.230469 977.75 C 844.03125 967.019531 903.929688 998.542969 924.136719 1050.988281 C 942.910156 1096.90625 928.960938 1154.183594 889.222656 1184.5 C 840.546875 1223.976562 761.023438 1219.417969 719.988281 1170.949219 C 678.597656 1125.300781 683.78125 1047.589844 729.867188 1006.992188 C 746.316406 991.835938 767.28125 982 789.230469 977.75 Z M 789.230469 977.75 "/>
<path style=" stroke:none;fill-rule:nonzero;fill:rgb(0.392157%,65.098039%,87.058824%);fill-opacity:1;" d="M 892.308594 8.09375 C 926.996094 5.453125 961.816406 0.402344 996.683594 3.84375 C 1059.398438 0.269531 1122.15625 9.164062 1183.933594 19.40625 C 1360.410156 51.464844 1527.632812 132.121094 1662.765625 250.070312 C 1855.511719 416.757812 1981.253906 661.460938 1994.886719 916.808594 C 1991.980469 961.296875 1994.394531 1005.921875 1994.21875 1050.453125 C 1980.136719 1244.546875 1903.117188 1432.914062 1779.789062 1583.144531 C 1676.578125 1710.039062 1541.222656 1810.324219 1390.40625 1873.367188 C 1279.859375 1919.601562 1161.089844 1945.488281 1041.472656 1950.898438 C 1014.699219 1949.691406 987.878906 1950.316406 961.101562 1951.03125 C 814.261719 1945.175781 668.40625 1908.15625 537.789062 1840.59375 C 402.839844 1771.875 283.847656 1671.941406 193.195312 1550.597656 C 98.964844 1425.402344 35.851562 1276.78125 12.382812 1121.769531 C 6.480469 1081.929688 1.027344 1041.601562 4.335938 1001.269531 C 6.527344 960.941406 -0.582031 920.433594 6.214844 880.324219 C 23.734375 704.027344 92.574219 533.675781 200.660156 393.460938 C 303.605469 259.820312 440.789062 152.734375 595.722656 85.980469 C 689.769531 44.800781 790.257812 19.003906 892.308594 8.09375 M 805.546875 515.121094 C 778.589844 543.511719 765.671875 581.117188 750.5625 616.4375 C 744.617188 630.746094 737.78125 644.785156 733.757812 659.851562 C 779.574219 655.070312 825.660156 653.949219 871.703125 652.789062 C 972.949219 652.789062 1074.195312 652.832031 1175.441406 652.742188 C 1226.890625 652.832031 1277.847656 631.59375 1313.609375 594.484375 C 1349.414062 558.984375 1368.546875 511.589844 1385.53125 465.132812 C 1369.351562 462.808594 1353.035156 464.105469 1336.808594 463.882812 C 1202.574219 463.835938 1068.339844 463.835938 934.058594 463.882812 C 887.125 464.464844 837.550781 479.039062 805.546875 515.121094 M 699.648438 754.195312 C 673.902344 813.480469 645.921875 871.875 621.960938 931.878906 C 650.078125 930.625 678.195312 928.703125 706.308594 928.882812 C 807.691406 927.226562 910.589844 924.589844 1010.09375 947.214844 C 1058.636719 958.972656 1109.507812 977.214844 1142.273438 1016.964844 C 1172.132812 1053.628906 1175.707031 1109.875 1148.84375 1149.175781 C 1124.882812 1185.125 1085.816406 1207.523438 1046.257812 1222.503906 C 980.367188 1247.140625 909.652344 1254.875 839.785156 1258.136719 C 777.339844 1259.703125 714.757812 1258.675781 652.582031 1251.921875 C 629.246094 1304.503906 606.359375 1357.21875 582.625 1409.621094 C 579.808594 1415.925781 577.753906 1422.542969 576.054688 1429.25 C 675.332031 1444.316406 776.222656 1445.390625 876.394531 1440.828125 C 990.335938 1434.03125 1106.691406 1414.984375 1208.386719 1360.484375 C 1277.625 1323.640625 1337.523438 1264.21875 1362.957031 1188.789062 C 1388.394531 1112.332031 1386.113281 1025.144531 1350.753906 952.175781 C 1321.164062 892.039062 1268.417969 846.164062 1209.277344 816.253906 C 1138.964844 780.664062 1060.875 763.359375 982.960938 755.265625 C 888.777344 746.058594 793.96875 750.171875 699.648438 754.195312 M 789.230469 977.75 C 767.28125 982 746.316406 991.835938 729.867188 1006.992188 C 683.78125 1047.589844 678.597656 1125.300781 719.988281 1170.949219 C 761.023438 1219.417969 840.546875 1223.976562 889.222656 1184.5 C 928.960938 1154.183594 942.910156 1096.90625 924.136719 1050.988281 C 903.929688 998.542969 844.03125 967.019531 789.230469 977.75 Z M 789.230469 977.75 "/>
</g>
</svg>
