<?xml version="1.0" encoding="UTF-8" standalone="no"?>
<!-- Created with Inkscape (http://www.inkscape.org/) -->

<svg
   xmlns:dc="http://purl.org/dc/elements/1.1/"
   xmlns:cc="http://creativecommons.org/ns#"
   xmlns:rdf="http://www.w3.org/1999/02/22-rdf-syntax-ns#"
   xmlns:svg="http://www.w3.org/2000/svg"
   xmlns="http://www.w3.org/2000/svg"
   xmlns:sodipodi="http://sodipodi.sourceforge.net/DTD/sodipodi-0.dtd"
   xmlns:inkscape="http://www.inkscape.org/namespaces/inkscape"
   version="1.1"
   width="319"
   height="350"
   viewBox="0 0 255.20001 279.99999"
   id="svg7989"
   style="fill-rule:evenodd"
   inkscape:version="0.48.4 r9939"
   sodipodi:docname="TeleSUR-Logo.svg">
  <title
     id="title3001">Telesur logo</title>
  <sodipodi:namedview
     pagecolor="#ffff00"
     bordercolor="#666666"
     borderopacity="1"
     objecttolerance="10"
     gridtolerance="10"
     guidetolerance="10"
     inkscape:pageopacity="0"
     inkscape:pageshadow="2"
     inkscape:window-width="1600"
     inkscape:window-height="844"
     id="namedview24"
     showgrid="false"
     inkscape:showpageshadow="false"
     inkscape:zoom="1"
     inkscape:cx="182.5"
     inkscape:cy="97.686118"
     inkscape:window-x="-4"
     inkscape:window-y="-4"
     inkscape:window-maximized="1"
     inkscape:current-layer="svg7989" />
  <metadata
     id="metadata8039">
    <rdf:RDF>
      <cc:Work
         rdf:about="">
        <dc:format>image/svg+xml</dc:format>
        <dc:type
           rdf:resource="http://purl.org/dc/dcmitype/StillImage" />
        <dc:title>Telesur logo</dc:title>
      </cc:Work>
    </rdf:RDF>
  </metadata>
  <defs
     id="defs8037" />
  <g
     transform="matrix(1.2915493,0,0,1.2915493,-372.26843,-487.51062)"
     id="g8099">
    <path
       d="m 391.847,616.212 c -1.149,3.217 -5.112,3.274 -7.352,5.629 -1.206,-1.091 1.034,-1.838 0.861,-3.044 1.609,-2.125 3.792,-2.987 6.491,-2.585 z"
       id="path8007"
       style="fill:#ffffff;stroke:none"
       inkscape:connector-curvature="0" />
    <path
       d="m 380.646,635.627 c -0.861,2.355 -2.412,4.767 -3.905,6.433 l -0.403,0 c 0,-2.814 3.217,-4.71 3.849,-6.893 l 0.459,0.46 z"
       id="path8013"
       style="fill:#ffffff;stroke:none"
       inkscape:connector-curvature="0" />
    <path
       d="m 400.463,663.198 c -1.034,2.987 -1.091,6.204 -4.767,7.295 l -1.264,0 c -0.23,-2.757 2.987,-6.433 6.031,-7.295 z"
       id="path8019"
       style="fill:#ffffff;stroke:none"
       inkscape:connector-curvature="0" />
    <path
       d="m 368.687,420.318 c 0,2.281 -1.849,4.131 -4.13,4.131 l -33.147,0 c -2.28,0 -4.129,-1.85 -4.129,-4.131 l 0,-33.144 c 0,-2.281 1.849,-4.13 4.129,-4.13 l 33.147,0 c 2.281,0 4.13,1.849 4.13,4.13 l 0,33.144 z"
       id="path8023"
       style="fill:#c15151;stroke:none"
       inkscape:connector-curvature="0" />
    <path
       d="m 413.788,494.694 c 0,2.217 -1.797,4.015 -4.015,4.015 l -32.212,0 c -2.216,0 -4.012,-1.798 -4.012,-4.015 l 0,-32.214 c 0,-2.216 1.796,-4.013 4.012,-4.013 l 32.212,0 c 2.218,0 4.015,1.797 4.015,4.013 l 0,32.214 z"
       id="path8025"
       style="fill:#66689e;stroke:none"
       inkscape:connector-curvature="0" />
    <path
       d="m 386.962,528.669 c 0,1.49 -1.207,2.697 -2.695,2.697 l -21.633,0 c -1.487,0 -2.694,-1.207 -2.694,-2.697 l 0,-21.63 c 0,-1.49 1.207,-2.696 2.694,-2.696 l 21.633,0 c 1.488,0 2.695,1.206 2.695,2.696 l 0,21.63 z"
       id="path8027"
       style="fill:#469bd0;stroke:none"
       inkscape:connector-curvature="0" />
    <path
       d="m 397.653,448.178 c 0,3.106 -2.518,5.625 -5.624,5.625 l -45.126,0 c -3.106,0 -5.623,-2.519 -5.623,-5.625 l 0,-45.126 c 0,-3.106 2.517,-5.624 5.623,-5.624 l 45.126,0 c 3.106,0 5.624,2.518 5.624,5.624 l 0,45.126 z"
       id="path8029"
       style="fill:#edb156;stroke:none"
       inkscape:connector-curvature="0" />
    <path
       d="m 457.332,479.535 c 0,3.073 -2.494,5.566 -5.568,5.566 l -44.663,0 c -3.07,0 -5.56,-2.493 -5.56,-5.566 l 0,-44.661 c 0,-3.072 2.49,-5.565 5.56,-5.565 l 44.663,0 c 3.074,0 5.568,2.493 5.568,5.565 l 0,44.661 z"
       id="path8031"
       style="fill:#00a25d;stroke:none"
       inkscape:connector-curvature="0" />
    <path
       d="m 302.609,545.854 0,11.45 8.398,0 0,4.464 -8.398,0 0,17.328 c 0,3.999 1.133,6.268 4.398,6.268 1.601,0 2.534,-0.135 3.4,-0.399 l 0.267,4.463 c -1.133,0.399 -2.933,0.799 -5.199,0.799 -2.732,0 -4.933,-0.933 -6.332,-2.465 -1.599,-1.799 -2.266,-4.667 -2.266,-8.466 l 0,-17.528 -4.998,0 0,-4.464 4.998,0 0,-9.649 5.732,-1.801 z m 165.416,31.656 6.925,12.212 9.722,0 -7.473,-13.178 c 3.392,-1.381 5.067,-4.295 5.067,-9.1 0,-6.961 -3.462,-10.441 -10.422,-10.441 l -13.599,0 0,32.835 8.14,0 0,-12.328 1.64,0 z M 416.49,560.022 c 0,1.677 0.106,3.397 0.283,5.201 -3.603,-1.804 -6.887,-2.809 -10.168,-2.809 -3.034,0 -4.569,1.132 -4.569,3.226 0,2.264 2.032,2.729 6.173,3.607 6.496,1.383 9.78,3.985 9.78,10.862 0,6.793 -3.821,10.694 -11.029,10.694 -4.104,0 -7.889,-0.587 -11.279,-1.72 -0.069,-3.186 -0.177,-5.955 -0.464,-8.346 3.785,2.181 7.603,3.229 10.745,3.229 3.317,0 4.888,-0.921 4.888,-3.186 0,-2.602 -1.857,-2.936 -5.211,-3.774 -3.106,-0.798 -5.603,-1.343 -7.493,-2.936 -1.928,-1.637 -3.107,-4.402 -3.107,-7.548 0,-6.416 4.068,-10.484 11.78,-10.484 2.747,0 6.031,0.504 9.708,1.637 -0.037,0.837 -0.037,1.676 -0.037,2.347 z m 15.452,-3.019 0,18.954 c 0,4.657 1.572,6.921 5.426,6.921 3.854,0 5.422,-2.264 5.422,-6.921 l 0,-16.069 7.817,-2.885 0,19.121 c 0,10.234 -3.713,14.679 -13.562,14.679 -9.316,0 -13.311,-4.151 -13.311,-14.218 l 0,-16.697 8.208,-2.885 z m -112.738,17.495 c 0.134,7.865 5.133,11.131 10.997,11.131 4.199,0 6.798,-0.733 8.931,-1.666 l 1.067,4.199 c -2.066,0.932 -5.665,2.065 -10.797,2.065 -9.864,0 -15.862,-6.598 -15.862,-16.262 0,-9.729 5.798,-17.394 15.196,-17.394 10.53,0 13.262,9.265 13.262,15.195 0,1.201 -0.066,2.065 -0.199,2.732 l -22.595,0 z m 28.726,-30.959 5.864,0 0,46.024 -5.864,0 0,-46.024 z m 17.729,30.959 c 0.133,7.865 5.132,11.131 10.997,11.131 4.198,0 6.799,-0.733 8.931,-1.666 l 1.066,4.199 c -2.067,0.932 -5.665,2.065 -10.797,2.065 -9.864,0 -15.862,-6.598 -15.862,-16.262 0,-9.729 5.798,-17.394 15.195,-17.394 10.53,0 13.264,9.265 13.264,15.195 0,1.201 -0.066,2.065 -0.201,2.732 l -22.593,0 z m 100.726,-2.609 2.853,0 c 3.498,0 5.211,-0.922 5.211,-4.863 0,-3.564 -1.64,-4.362 -5.03,-4.362 l -3.034,0 0,9.225 z M 382.788,570.3 c 0.066,-3.731 -1.534,-9.53 -8.065,-9.53 -5.999,0 -8.531,5.465 -8.998,9.53 l 17.063,0 z m -46.454,0 c 0.066,-3.731 -1.534,-9.53 -8.065,-9.53 -5.999,0 -8.531,5.465 -8.998,9.53 l 17.063,0 z"
       id="path8033"
       style="fill:#737476;stroke:none"
       inkscape:connector-curvature="0" />
  </g>
</svg>
