<?xml version="1.0" encoding="utf-8"?>
<!-- Generator: Adobe Illustrator 16.0.0, SVG Export Plug-In . SVG Version: 6.00 Build 0)  -->
<!DOCTYPE svg PUBLIC "-//W3C//DTD SVG 1.1//EN" "http://www.w3.org/Graphics/SVG/1.1/DTD/svg11.dtd">
<svg version="1.1" id="Layer_1" xmlns="http://www.w3.org/2000/svg" xmlns:xlink="http://www.w3.org/1999/xlink" x="0px" y="0px"
	 width="1000px" height="302.975px" viewBox="0 0 1000 302.975" enable-background="new 0 0 1000 302.975" xml:space="preserve">
<g>
	<path fill-rule="evenodd" clip-rule="evenodd" fill="#B99C35" d="M99.29,107.784c4.457-0.946,17.658,0.849,21.576,1.637
		c11.718,2.356,23.319,7.021,32.829,13.459c7.652,5.179,12.48,9.304,18.74,16.128c9.626,10.49,16.749,23.481,20.701,37.352
		c1.567,5.493,3.202,13.359,3.169,19.965c-0.02,3.615,0.326,7.656-0.043,11.035c-0.373,3.37-0.774,6.766-1.48,10.25
		c-1.315,6.462-2.994,12.302-5.426,17.731c-3.566,7.971-9.618,18.818-15.621,25.121c-9.211,9.67-16.297,16.331-29.254,22.907
		c-24.196,12.281-51.165,12.917-76.018,2.672c-11.083-4.569-26.073-14.663-33.912-24.141c-1.011-1.225-1.761-1.976-2.685-3.17
		c-8.607-11.072-13.97-20.161-17.949-34.221c-0.909-3.199-1.549-6.024-2.145-9.592c-0.735-4.416-0.606-6.951-1.062-10.353
		c-1.525-11.37,2.693-28.832,7.02-39.131c3.327-7.91,9.816-18.792,15.661-25.099c15.521-16.746,32.555-27.596,55.619-31.424
		L99.29,107.784L99.29,107.784z M109.265,302.927c5.059,0,16.375-2.299,20.932-3.516c6.375-1.697,12.453-4.028,17.755-6.695
		c5.569-2.802,10.197-5.447,15.367-9.098c6.882-4.85,10.565-8.67,16.122-14.186c1.057-1.048,1.92-2.157,2.931-3.268
		c12.054-13.285,20.102-31.543,23.379-49.315l1.315-10.742c0-8.178,0.302-9.295-0.622-17.307
		c-1.676-14.529-6.878-28.69-14.326-40.776c-5.002-8.118-9.687-13.665-16.263-20.243c-7.74-7.74-18.153-15.125-28.833-20.088
		c-5.821-2.703-11.511-4.924-17.897-6.533c-12.849-3.233-23.215-4.061-36.522-2.682c-11.038,1.143-23.394,4.552-33,9.39
		c-21.566,10.86-38.141,26.515-49.078,48.051c-4.831,9.514-9.561,24.382-10.152,35.515c-0.067,1.251-0.322,1.595-0.318,2.611
		c0.004,7.927-0.332,10.548,0.603,18.309c2.008,16.702,9.04,34.486,19.165,47.658c5.486,7.137,10.659,13.122,17.749,18.77
		c12.169,9.687,24.046,16.621,39.576,20.729C90.054,302.922,96.229,302.927,109.265,302.927z"/>
	<path fill-rule="evenodd" clip-rule="evenodd" fill="#B99C35" d="M768.769,110.264l31.617,0c4.23,0,14.48,1.767,18.469,3.373
		c5.784,2.332,9.205,4.583,13.232,8.607c12.092,12.085,14.679,34.703,7.532,50.074c-4.894,10.523-12.203,16.553-23.342,20
		c-3.503,1.083-9.96,2.302-13.922,2.383c-1.626,0.034-3.862,0.316-4.905,0.319h-28.682V110.264L768.769,110.264z M805.93,204.151
		c4.019-0.015,9.89-1.636,13.108-2.55c11.138-3.158,20.513-10.007,26.54-19.421c8.397-13.13,10.694-32.965,4.56-50.285
		c-2.729-7.711-7.22-13.527-12.504-18.462c-5.337-4.992-12.888-8.589-20.088-10.555c-12.73-3.481-43.905-2.398-58.891-2.398v199.84
		h10.113l-0.046-95.516h25.47c1,0.237,29.479,45.922,30.707,47.855c6.086,9.585,12.767,20.64,18.938,29.966l7.598,11.962
		c4.742,7.356,1.458,5.732,14.93,5.732c-0.332-1.431-6.177-10.121-7.459-12.221C852,276.845,806.784,206.332,805.93,204.151z"/>
	<path fill-rule="evenodd" clip-rule="evenodd" fill="#B99C35" d="M363.869,195.676l1.09,19.787
		c0.51,3.723,1.264,7.168,2.076,10.304c1.685,6.515,3.704,12.118,6.406,18.025c5.007,10.938,12.138,20.698,20.178,28.737
		c17.739,17.74,36.874,26.504,61.762,29.847c0.867,0.117,1.37,0.197,2.709,0.229c1.417,0.028,1.849,0.321,2.931,0.321h11.41
		c1.139,0,2.766-0.268,4.249-0.321c7.092-0.249,21.649-3.565,28.023-5.562c4.654-1.461,9.277-3.321,13.622-5.281
		c1.896-0.856,2.061-2.393,3.379-6.069c0.583-1.624,2.432-5.601,2.565-7.217c-5.391,2.833-18.255,7.646-23.741,9.18
		c-7.191,2.017-12.476,3.284-20.093,4.354c-7.61,1.07-17.777,1.248-25.056,0.259c-22.844-3.109-44.507-13.771-59.086-31.549
		c-3.226-3.935-4.134-4.986-7.285-9.646c-20.792-30.733-19.782-74.443,1.818-104.077c15.838-21.73,37.008-34.713,63.871-38.487
		c1.223-0.173,3.65-0.472,5.015-0.532c0.957-0.042,1.982,0.051,2.942-0.001c1.851-0.103,1.432-0.322,4.563-0.322
		c2.427,0,7.943,0.511,10.236,0.854c17.246,2.576,37.559,10.059,51.664,20.368c1.082,0.788,2.136,1.592,3.301,2.25l-2.582-6.558
		c-0.926-2.36-1.816-4.317-2.772-6.676c-0.478-1.169-0.743-2.271-1.618-2.953c-1.386-1.082-7.389-4.064-9.112-4.898
		c-19.244-9.323-39.793-14.151-62.185-11.549c-20.587,2.396-37.102,10.103-52.579,22.401c-6.714,5.337-13.373,12.473-18.217,19.285
		c-5.5,7.728-9.505,15.017-13.097,24.387c-1.737,4.53-3.173,9.482-4.165,14.405c-0.538,2.68-0.938,5.221-1.34,8.122L363.869,195.676
		z"/>
	<path fill-rule="evenodd" clip-rule="evenodd" fill="#B99C35" d="M550.997,300.208c1.238,0,1.569-1.639,1.933-2.533l29.108-66.083
		c0.937-2.251,1.794-3.889,2.706-6.074l46.846-106.396c0.756-1.82,7.418-17.57,8.402-18.313l16.302,37.488
		c1.824,3.839,3.835,8.492,5.521,12.411c7.109,16.57,14.739,33.326,21.883,49.84l41.053,93.251c0.734,1.545,2.219,4.508,2.611,6.2
		h10.109c-0.441-1.912-18.95-43.206-21.313-48.774c-6.824-16.086-14.524-32.402-21.314-48.46l-12.26-27.823
		c-3.835-8.58-8.258-19.366-12.159-27.627c-1.17-2.483-1.984-4.547-3.06-7.042l-24.43-55.441c-0.484-1.126-1.007-2.244-1.512-3.395
		c-0.509-1.181-1.199-2.468-1.426-3.449h-0.656c-0.1,1.211-11.257,26.079-12.084,28.014c-1.962,4.564-4.22,9.251-6.202,13.995
		l-12.257,27.846c-4.831,11.321-10.646,23.471-15.264,34.613L547.78,286.35c-0.593,1.324-5.951,12.603-5.715,13.788L550.997,300.208
		z"/>
	<path fill-rule="evenodd" clip-rule="evenodd" fill="#B99C35" d="M902.099,143.188c0-5.063,1.699-10.762,3.463-14.478
		c8.484-17.874,27.849-23.801,46.282-19.94c9.351,1.957,19.423,7.263,26.747,13.02c1.429,1.123,7.651,6.393,8.924,6.729
		c-0.89-1.858-1.743-4.565-2.499-6.646l-3.735-9.618l-2.248-1.98c-5.213-3.956-10.957-7.059-17.473-9.27
		c-9.131-3.097-13.578-3.133-22.622-3.133c-12.145,0-23.738,5.299-32.345,12.645c-3.387,2.888-7.49,8.407-9.702,12.794
		c-1.241,2.457-2.316,5.14-3.116,7.959c-2.455,8.672-2.772,19.107,0.479,27.588c2.348,6.135,4.889,10.001,9.058,14.753
		c5.516,6.294,12.828,11.224,20.104,15.418c2.665,1.535,5.146,2.762,7.695,4.037c12.281,6.14,27.313,12.964,38.316,21.024
		c8.624,6.32,17.316,15.112,19.46,27.811c2.362,14.013-4.494,28.128-11.402,35.028c-8.753,8.748-18.605,13.946-31.67,15.604
		c-24.175,3.07-43.557-8.01-55.55-26.023c-1.053-1.582-3.802-6.229-4.794-6.944c-3.969,11.191-5.21,9.441-2.647,13.428
		c0.819,1.268,1.692,2.47,2.536,3.655c4.117,5.8,10.491,11.783,16.348,15.578c3.903,2.53,8.098,4.681,12.566,6.358
		c5.633,2.114,9.471,2.997,15.467,3.774c7.878,1.019,7.785,0.524,14.733,0.238l9.026-1.401c17.01-3.747,32.202-13.651,40.434-29.02
		c5.969-11.15,8.098-25.634,3.813-38.166c-14.713-43.045-78.813-44.151-93.187-76.648
		C902.16,151.944,902.099,148.762,902.099,143.188z"/>
	<path fill-rule="evenodd" clip-rule="evenodd" fill="#B99C35" d="M339.099,246.204c0-1.941-0.739-5.877-1.113-7.692
		c-3.019-14.549-13.54-25.968-25.293-34.036c-8.824-6.056-12.964-7.653-21.887-12.354c-21.918-11.54-52.292-21.242-49.466-51.826
		c1.236-13.356,10.354-24.55,21.609-29.244c7.301-3.044,11.583-3.395,19.096-3.395c22.471-0.002,41.927,19.978,44.339,20.864
		l-4.796-13.138c-1.391-3.543-0.708-2.932-3.63-5.169c-5.417-4.143-10.898-6.999-17.53-9.206c-2.312-0.766-4.322-1.404-6.888-1.915
		c-9.867-1.959-17.541-1.819-27.379,0.511c-16.476,3.902-29.334,16.62-33.792,33.356c-2.087,7.825-2.074,16.569,0.403,24.291
		c5.554,17.299,21.732,28.383,37.478,35.893c16.551,7.893,41.208,19.128,51.456,33.953c8.986,13,8.512,27.43,1.211,41.057
		c-7.578,14.152-24.149,23.456-39.911,24.651c-8.403,0.634-15.977-0.013-24.008-2.675c-6.883-2.287-15.023-7.12-20.065-12.224
		c-3.724-3.767-12.919-14.531-13.935-18.338h-0.655c-0.132,1.561-2.721,7.474-3.452,9.275c-0.817,2.017,0.228,2.906,1.174,4.411
		c10.394,16.489,26.848,26.198,46.246,29.068c5.27,0.775,6.427,0.604,11.455,0.604c1.116,0,1.862-0.295,3.255-0.321
		c5.695-0.11,15.054-2.572,19.93-4.533c12.79-5.145,23.39-13.762,29.966-25.782c1.71-3.125,3.039-6.09,4.134-9.854
		C338.776,256.52,339.099,252.139,339.099,246.204z"/>
	<path fill-rule="evenodd" clip-rule="evenodd" fill="#B99C35" d="M643.259,196c0-0.248,4.82-12.717-3.59-12.717
		c-8.411,0.005-3.589,12.695-3.589,12.717c-0.003,5.523-9.782,2.973-9.782,10.107c0,6.451-0.005,5.705,1.785,12.898
		c0.743,2.993,1.204,5.417,4.41,5.686c0,2.199-0.978,4.566-0.978,6.844c0,4.477-0.188,6.739,0.852,11.214
		c0.302,1.324,1.429,4.972,1.429,6.062c0,2.487-0.324,3.13-0.324,3.589v6.193c0,3.309,1.955,7.792,1.955,16.626
		c0,7.217-9.194,1.017-11.735,7.783l-8.8,0.039l-0.592,1.026c-0.21,0.438-0.288,0.678-0.492,1.148
		c-1.02,2.362-6.102,13.547-5.972,14.948c19.85,0.461,43.262-0.068,63.667,0.044c0.083-1.375-2.602-7.051-3.365-8.799
		c-0.683-1.551-3.125-8.146-4.021-8.368h-8.148c-2.424-2.424-1.236-3.385-6.188-3.597c-3.09-0.13-5.874-0.676-5.874-3.901
		c0-6.707-0.184-3.903,0.96-10.765c1.261-7.556,0.995-4.048,0.995-11.728c0-0.905-0.324-1.181-0.324-1.956
		c0-5.761,2.28-9.616,2.28-13.366c0-3.289,0.072-9.848-1.176-12.586c1.036-0.888,2.468-0.951,3.312-2.238
		c0.636-0.963,1.007-2.95,1.324-4.213c1.643-6.581,1.76-6.445,1.76-12.584C653.034,199.009,643.251,201.587,643.259,196z"/>
	<path fill-rule="evenodd" clip-rule="evenodd" fill="#B99C35" d="M506.657,38.544h3.916V19.637h19.563l-0.006,18.907
		c2.992,0,4.243,0.412,4.243-0.98V0.073h-4.237l-0.006,15.647h-19.576l0.02-15.647h-3.916V38.544z"/>
	<path fill-rule="evenodd" clip-rule="evenodd" fill="#B99C35" d="M547.083,38.544h17.28c1.204,0,1.865-2.803,1.958-3.917h-15.324
		v-14.99h14.344l-0.07-3.722l-14.273-0.098l0.019-12.025l17.914-0.135c-0.363-4.319-1.812-3.604-2.569-3.623l-19.277,0.039V38.544z"
		/>
	<path fill-rule="evenodd" clip-rule="evenodd" fill="#B99C35" d="M472.754,3.663h9.13l-0.001,34.881l4.13-0.084
		c0.34-3.097,0.113-29.486,0.111-34.797h9.126v-3.59h-21.193C473.848,0.964,473.095,2.951,472.754,3.663z"/>
</g>
</svg>
