<?xml version="1.0" encoding="UTF-8" standalone="no"?>
<!-- Created with Inkscape (http://www.inkscape.org/) -->

<svg
   xmlns:dc="http://purl.org/dc/elements/1.1/"
   xmlns:cc="http://creativecommons.org/ns#"
   xmlns:rdf="http://www.w3.org/1999/02/22-rdf-syntax-ns#"
   xmlns:svg="http://www.w3.org/2000/svg"
   xmlns="http://www.w3.org/2000/svg"
   xmlns:sodipodi="http://sodipodi.sourceforge.net/DTD/sodipodi-0.dtd"
   xmlns:inkscape="http://www.inkscape.org/namespaces/inkscape"
   width="1000"
   height="1000"
   viewBox="0 0 264.58333 264.58334"
   version="1.1"
   id="svg14309"
   inkscape:version="0.92.3 (2405546, 2018-03-11)"
   sodipodi:docname="TNT (2001) (Print).svg">
  <defs
     id="defs14303">
	

		
	</defs>
  <sodipodi:namedview
     id="base"
     pagecolor="#ffffff"
     bordercolor="#666666"
     borderopacity="1.0"
     inkscape:pageopacity="0.0"
     inkscape:pageshadow="2"
     inkscape:zoom="0.35"
     inkscape:cx="361.53906"
     inkscape:cy="586.94545"
     inkscape:document-units="px"
     inkscape:current-layer="layer1"
     showgrid="false"
     units="px"
     inkscape:window-width="1024"
     inkscape:window-height="706"
     inkscape:window-x="-8"
     inkscape:window-y="-8"
     inkscape:window-maximized="1" />
  <metadata
     id="metadata14306">
    <rdf:RDF>
      <cc:Work
         rdf:about="">
        <dc:format>image/svg+xml</dc:format>
        <dc:type
           rdf:resource="http://purl.org/dc/dcmitype/StillImage" />
        <dc:title></dc:title>
      </cc:Work>
    </rdf:RDF>
  </metadata>
  <g
     inkscape:label="Layer 1"
     inkscape:groupmode="layer"
     id="layer1"
     transform="translate(0,-32.416658)">
    <path
       d="M 132.3512,32.416678 C 59.413332,32.416678 0,91.724183 0,164.64883 c 0,72.96282 59.413332,132.35116 132.3512,132.35116 72.96433,0 132.23213,-59.38834 132.23213,-132.35116 0,-72.924647 -59.26927,-132.232152 -132.23213,-132.232152 z m 0,21.047495 c 61.29039,0 111.18465,49.905997 111.18465,111.184657 0,61.29039 -49.89279,111.18461 -111.18465,111.18461 -61.27716,0 -111.184651,-49.89278 -111.184651,-111.18461 0,-61.27716 49.906024,-111.184657 111.184651,-111.184657 z M 39.360965,137.8937 v 14.86364 h 19.85834 v 51.60816 h 17.241916 v -51.60816 h 19.85834 V 137.8937 Z m 64.331615,0 v 66.47325 h 16.29089 v -41.50111 h 0.23811 l 23.0686,41.50111 h 17.83869 V 137.8937 h -16.29236 v 40.90583 H 144.5984 L 121.52981,137.8937 Z m 64.92691,0 v 14.86364 h 19.85981 v 51.60816 h 17.24045 v -51.60816 h 19.85981 V 137.8937 Z"
       inkscape:connector-curvature="0"
       id="path12036_8_"
       style="stroke-width:1.46989918" />
  </g>
</svg>
