<?xml version="1.0" encoding="utf-8"?>
<!-- Generator: Adobe Illustrator 22.1.0, SVG Export Plug-In . SVG Version: 6.00 Build 0)  -->
<svg version="1.1"
	 id="svg2" inkscape:version="0.48.2 r9819" sodipodi:docname="VH1 2013.svg" xmlns:cc="http://creativecommons.org/ns#" xmlns:dc="http://purl.org/dc/elements/1.1/" xmlns:inkscape="http://www.inkscape.org/namespaces/inkscape" xmlns:rdf="http://www.w3.org/1999/02/22-rdf-syntax-ns#" xmlns:sodipodi="http://sodipodi.sourceforge.net/DTD/sodipodi-0.dtd" xmlns:svg="http://www.w3.org/2000/svg"
	 xmlns="http://www.w3.org/2000/svg" xmlns:xlink="http://www.w3.org/1999/xlink" x="0px" y="0px" viewBox="0 0 9991.5 3905.8"
	 style="enable-background:new 0 0 9991.5 3905.8;" xml:space="preserve">
<style type="text/css">
	.st0{fill:#6D15A0;}
	.st1{fill:#941BC8;}
</style>
<g id="g3794" transform="matrix(0.17675119,0,0,0.17675119,26.477926,1437.9258)">
	<path id="path3790" inkscape:connector-curvature="0" sodipodi:nodetypes="cssssccccccsssscccsscc" class="st0" d="M39700.2,6637.3
		v6924.1c0,204.1-191.2,400.9-400.9,400.9h-5778c-203.9,0-410.4-113.3-410.4-432.5V6640.7c0-318.6-164.7-453.1-499.2-453.1h-7592.9
		l226.3-6589.2l7357.6,0c342.5,0,508.2-153.1,508.2-465v-6654c0-375.5,161.9-614.8,613.4-614.8h5474.7
		c307.5,0,501.1,188.7,501.1,501.1v6767.9c0,285.2,78.8,464.8,503.6,464.8l5886.6,0v6178.7c0,203.9-113.5,410.4-432.7,410.4h-5452.5
		C39827.3,6187.6,39700.2,6368.3,39700.2,6637.3L39700.2,6637.3z"/>
	<path id="path3786" inkscape:connector-curvature="0" sodipodi:nodetypes="ccccccccccccccccccccc" class="st1" d="M12635.1,13962.3
		H8031.5c-383.7,0-527.8-324.2-654.5-716.1L-83.7-7557.3c-104.6-275.1-135.1-577.1,295.3-577.1h5928
		c424.8-2.2,561.8,228.3,706.9,657.7l3301.8,10703.8c96.6,325.4,275.5,335.6,378.4-12.6l3339.1-10855.3
		c66.5-252.6,256-494.4,614.7-494.4h12470.1c307.5,0,501.1,188.7,501.1,501.1v21195.7c0,204.1-191.2,400.9-400.9,400.9h-5818.1
		c-203.9,0-410.4-113.3-410.4-432.5V-6868.3c0-232.7-202.7-330.7-330.4,0l-7194.1,20159.5
		C13175.7,13625.2,13018.4,13962.3,12635.1,13962.3z"/>
	<path id="path3788" inkscape:connector-curvature="0" sodipodi:nodetypes="sccccccccccccs" class="st1" d="M55877.9-8135.3
		c307.4,0,501.1,188.7,501.1,501.1v21195.7c0,204.1-191.2,400.9-400.9,400.9h-5778c-203.9,0-410.4-113.3-410.4-432.5V85.2
		c0-294.1-150-486.6-451.5-486.6l-3247.9,0l0-4150.6c0-332.1,132.5-484.9,442.9-733.9L49545-7570.1
		c445.6-328.2,652.4-565.3,1081.9-565.3H55877.9z"/>
</g>
</svg>
