<?xml version="1.0" encoding="UTF-8" standalone="no"?>
<svg
   xmlns:dc="http://purl.org/dc/elements/1.1/"
   xmlns:cc="http://creativecommons.org/ns#"
   xmlns:rdf="http://www.w3.org/1999/02/22-rdf-syntax-ns#"
   xmlns:svg="http://www.w3.org/2000/svg"
   xmlns="http://www.w3.org/2000/svg"
   xmlns:xlink="http://www.w3.org/1999/xlink"
   xmlns:sodipodi="http://sodipodi.sourceforge.net/DTD/sodipodi-0.dtd"
   xmlns:inkscape="http://www.inkscape.org/namespaces/inkscape"
   width="512"
   height="512"
   version="1.1"
   id="svg173"
   sodipodi:docname="baleares.svg"
   inkscape:version="0.92.4 (5da689c313, 2019-01-14)">
  <metadata
     id="metadata179">
    <rdf:RDF>
      <cc:Work
         rdf:about="">
        <dc:format>image/svg+xml</dc:format>
        <dc:type
           rdf:resource="http://purl.org/dc/dcmitype/StillImage" />
        <dc:title></dc:title>
      </cc:Work>
    </rdf:RDF>
  </metadata>
  <defs
     id="defs177" />
  <sodipodi:namedview
     pagecolor="#ffffff"
     bordercolor="#666666"
     borderopacity="1"
     objecttolerance="10"
     gridtolerance="10"
     guidetolerance="10"
     inkscape:pageopacity="0"
     inkscape:pageshadow="2"
     inkscape:window-width="1920"
     inkscape:window-height="1017"
     id="namedview175"
     showgrid="false"
     inkscape:zoom="1.0518519"
     inkscape:cx="225.97193"
     inkscape:cy="197.14889"
     inkscape:window-x="-8"
     inkscape:window-y="-8"
     inkscape:window-maximized="1"
     inkscape:current-layer="svg173" />
  <g
     id="g1072"
     transform="matrix(0.44444444,0,0,0.44444444,16.000002,268.44445)">
    <rect
       style="fill:#fcdd09"
       y="-208"
       x="0"
       id="rect2"
       width="1080"
       height="720" />
    <g
       transform="translate(0,-208)"
       style="fill:#da121a"
       id="g12">
      <rect
         x="0"
         id="rect4"
         y="80"
         height="80"
         width="1080" />
      <rect
         x="0"
         id="rect6"
         y="240"
         height="80"
         width="1080" />
      <rect
         x="0"
         id="rect8"
         y="400"
         height="80"
         width="1080" />
      <rect
         x="0"
         id="rect10"
         y="560"
         height="80"
         width="1080" />
    </g>
    <rect
       style="fill:#40104c"
       y="-208"
       x="0"
       id="rect14"
       width="540"
       height="360" />
    <g
       transform="translate(0,-208)"
       style="fill:#ffffff;stroke:#40104c;stroke-width:1.44000006"
       id="g171">
      <rect
         id="rect16"
         x="249.88"
         y="88.403999"
         width="40.236"
         height="172.33" />
      <path
         inkscape:connector-curvature="0"
         id="path18"
         d="m 247.29,83.275 h 45.437 l -2.965,4.7965 h -39.668 l -2.803,-4.7965 z" />
      <path
         inkscape:connector-curvature="0"
         id="path20"
         d="m 253.34,75.036 h -6.5561 v 8.6657 h 46.478 V 75.036 h -6.5561 v 3.7003 H 280.579 V 75.036 h -7.4927 v 3.7003 h -6.1268 V 75.036 h -7.4927 v 3.7003 H 253.34 Z" />
      <g
         id="half">
        <g
           id="g52">
          <rect
             id="rect22"
             x="48.216999"
             y="157.75999"
             width="40.285"
             height="103" />
          <rect
             id="rect24"
             x="88.608002"
             y="113.52"
             width="40.236"
             height="147.22" />
          <rect
             id="rect26"
             x="209.59"
             y="157.75999"
             width="40.285"
             height="103" />
          <rect
             id="rect28"
             x="128.95"
             y="157.75999"
             width="40.285"
             height="103" />
          <rect
             id="rect30"
             x="169.28"
             y="113.52"
             width="40.236"
             height="147.22" />
          <path
             inkscape:connector-curvature="0"
             id="path32"
             d="m 43.552,153.48 h 45.003 v 4.0646 H 47.891 L 43.5517,153.48 Z" />
          <path
             inkscape:connector-curvature="0"
             id="path34"
             d="m 48.633,144.94 h -6.5561 v 8.6657 h 46.478 V 144.94 h -6.5561 v 3.7003 H 75.872 V 144.94 h -7.4927 v 3.7003 H 62.2525 V 144.94 h -7.4927 v 3.7003 H 48.633 Z" />
          <path
             inkscape:connector-curvature="0"
             id="path36"
             d="m 86.018,108.69 h 45.437 l -2.965,4.7965 H 88.822 L 86.0189,108.69 Z" />
          <path
             inkscape:connector-curvature="0"
             id="path38"
             d="m 92.064,100.45 h -6.5561 v 8.6658 h 46.478 V 100.45 h -6.5561 v 3.7003 H 119.303 V 100.45 h -7.4927 v 3.7003 h -6.1268 V 100.45 h -7.4927 v 3.7003 H 92.064 Z" />
          <path
             inkscape:connector-curvature="0"
             id="path40"
             d="m 209.54,151.49 v 6.8905 h 40.39 V 151.49 Z" />
          <path
             inkscape:connector-curvature="0"
             id="path42"
             d="m 215.24,144.94 h -5.6974 v 8.6657 h 40.39 V 144.94 h -5.6974 v 3.7003 h -5.3243 V 144.94 h -6.5113 v 3.7003 h -5.3244 V 144.94 h -6.5113 v 3.7003 h -5.3243 V 144.94 Z" />
          <path
             inkscape:connector-curvature="0"
             id="path44"
             d="m 128.9,151.49 v 6.8905 h 40.39 V 151.49 Z" />
          <path
             inkscape:connector-curvature="0"
             id="path46"
             d="m 134.59,144.94 h -5.6974 v 8.6657 h 40.39 V 144.94 h -5.6974 v 3.7003 h -5.3243 V 144.94 h -6.5113 v 3.7003 h -5.3244 V 144.94 h -6.5113 v 3.7003 h -5.3243 V 144.94 Z" />
          <path
             inkscape:connector-curvature="0"
             id="path48"
             d="m 166.69,108.69 h 45.437 l -2.965,4.7965 h -39.668 l -2.803,-4.7965 z" />
          <path
             inkscape:connector-curvature="0"
             id="path50"
             d="m 172.73,100.45 h -6.5561 v 8.6658 h 46.478 V 100.45 h -6.5561 v 3.7003 H 199.969 V 100.45 h -7.4926 v 3.7003 h -6.1268 V 100.45 h -7.4927 v 3.7003 h -6.1268 V 100.45 Z" />
        </g>
        <g
           style="fill:none"
           id="g84">
          <path
             inkscape:connector-curvature="0"
             id="path54"
             d="m 48.394,216.6 h 221.61 v 14.724 H 48.394" />
          <path
             inkscape:connector-curvature="0"
             id="path56"
             d="m 48.394,201.88 221.61,-0.13346 v -14.361 l -221.61,-0.2296" />
          <path
             inkscape:connector-curvature="0"
             id="path58"
             d="m 68.36,172.86 v 13.998 m 10e-7,15.233 v 14.325 m 0,15.044 v 14.407" />
          <path
             inkscape:connector-curvature="0"
             id="path60"
             d="m 48.394,246.12 h 221.61" />
          <path
             inkscape:connector-curvature="0"
             id="path62"
             d="m 108.73,113.39 v 13.998 m 0,119.16 v 13.998 m 0,-43.84 v 13.998 m 0,-87.475 v 58.385" />
          <path
             inkscape:connector-curvature="0"
             id="path64"
             d="m 229.74,158.88 v 43.067 m 0,15.194 v 14.325" />
          <path
             inkscape:connector-curvature="0"
             id="path66"
             d="m 149.09,158.88 v 43.067 m 0,15.194 v 14.325" />
          <path
             inkscape:connector-curvature="0"
             id="path68"
             d="m 155.82,172.62 v 13.998 M 142.357,172.62 v 13.998 m 94.108,-13.998 v 13.998 M 223.002,172.62 v 13.998" />
          <path
             inkscape:connector-curvature="0"
             id="path70"
             d="m 169.43,157.59 h 39.932 m -120.6,0 h 39.932" />
          <path
             inkscape:connector-curvature="0"
             id="path72"
             d="m 189.39,113.39 v 13.998 m 0,119.16 v 13.998 m 0,-43.84 v 13.998 m 0,-87.475 v 58.385" />
          <path
             inkscape:connector-curvature="0"
             id="path74"
             d="m 169.43,142.62 h 39.932 m -120.6,0 h 39.932" />
          <path
             inkscape:connector-curvature="0"
             id="path76"
             d="m 169.43,127.74 h 39.932 m -120.6,0 h 39.932" />
          <path
             inkscape:connector-curvature="0"
             id="path78"
             d="m 250.03,157.59 19.966,-0.0105 v 14.867 l -221.61,-0.0106" />
          <path
             inkscape:connector-curvature="0"
             id="path80"
             d="m 250.03,127.74 19.966,-0.0749 v 15.106 l -19.966,-0.15157" />
          <path
             inkscape:connector-curvature="0"
             id="path82"
             d="m 250.03,95.531 19.966,0.32161 v 15.503 l -19.966,-0.15156" />
        </g>
        <g
           style="stroke-linejoin:round"
           id="g152">
          <path
             inkscape:connector-curvature="0"
             id="path86"
             d="m 103.23,165.43 -4.9081,-2.073 c 1.7325,-5.1665 4.5242,-9.6238 10.405,-11.505 v 6.4262" />
          <path
             inkscape:connector-curvature="0"
             id="path88"
             d="m 103.82,161.39 -3.4357,-2.3839" />
          <path
             inkscape:connector-curvature="0"
             id="path90"
             d="m 106.08,158.17 -2.0614,-3.3167" />
          <path
             inkscape:connector-curvature="0"
             id="path92"
             d="m 114.22,165.43 4.9081,-2.073 c -1.7325,-5.1665 -4.5242,-9.6238 -10.405,-11.505 v 6.4262" />
          <path
             inkscape:connector-curvature="0"
             id="path94"
             d="m 113.63,161.39 3.4357,-2.3839" />
          <path
             inkscape:connector-curvature="0"
             id="path96"
             d="m 111.38,158.17 2.0614,-3.3167" />
          <path
             inkscape:connector-curvature="0"
             id="path98"
             d="m 222.8,238.93 -6.1963,-2.617 c 2.1872,-6.5225 5.7116,-12.15 13.136,-14.525 v 8.1129" />
          <path
             inkscape:connector-curvature="0"
             id="path100"
             d="m 223.54,233.83 -4.3374,-3.0096" />
          <path
             inkscape:connector-curvature="0"
             id="path102"
             d="m 226.39,229.77 -2.6024,-4.1873" />
          <path
             inkscape:connector-curvature="0"
             id="path104"
             d="m 236.68,238.93 6.1963,-2.617 c -2.1872,-6.5225 -5.7116,-12.15 -13.136,-14.525 v 8.1129" />
          <path
             inkscape:connector-curvature="0"
             id="path106"
             d="m 235.93,233.83 4.3374,-3.0096" />
          <path
             inkscape:connector-curvature="0"
             id="path108"
             d="m 233.08,229.77 2.6024,-4.1873" />
          <path
             inkscape:connector-curvature="0"
             id="path110"
             d="m 142.15,238.93 -6.1963,-2.617 c 2.1872,-6.5225 5.7116,-12.15 13.136,-14.525 v 8.1129" />
          <path
             inkscape:connector-curvature="0"
             id="path112"
             d="m 142.9,233.83 -4.3374,-3.0096" />
          <path
             inkscape:connector-curvature="0"
             id="path114"
             d="m 145.75,229.77 -2.6024,-4.1873" />
          <path
             inkscape:connector-curvature="0"
             id="path116"
             d="m 156.03,238.93 6.1963,-2.617 c -2.1872,-6.5225 -5.7116,-12.15 -13.136,-14.525 v 8.1129" />
          <path
             inkscape:connector-curvature="0"
             id="path118"
             d="m 155.29,233.83 4.3374,-3.0096" />
          <path
             inkscape:connector-curvature="0"
             id="path120"
             d="m 152.44,229.77 2.6024,-4.1873" />
          <path
             inkscape:connector-curvature="0"
             id="path122"
             d="m 183.9,165.43 -4.9081,-2.073 c 1.7325,-5.1665 4.5242,-9.6238 10.405,-11.505 v 6.4262" />
          <path
             inkscape:connector-curvature="0"
             id="path124"
             d="m 184.49,161.39 -3.4357,-2.3839" />
          <path
             inkscape:connector-curvature="0"
             id="path126"
             d="m 186.74,158.17 -2.0614,-3.3167" />
          <path
             inkscape:connector-curvature="0"
             id="path128"
             d="m 194.89,165.43 4.9081,-2.073 c -1.7325,-5.1665 -4.5242,-9.6238 -10.405,-11.505 v 6.4262" />
          <path
             inkscape:connector-curvature="0"
             id="path130"
             d="m 194.3,161.39 3.4357,-2.3839" />
          <path
             inkscape:connector-curvature="0"
             id="path132"
             d="m 192.04,158.17 2.0614,-3.3167" />
          <path
             inkscape:connector-curvature="0"
             id="path134"
             d="m 256.04,134.04 -4.0055,-2.0358 c 1.4139,-5.0738 3.6922,-9.4512 8.4917,-11.299 v 6.3109" />
          <path
             inkscape:connector-curvature="0"
             id="path136"
             d="m 256.52,130.07 -2.8039,-2.3412" />
          <path
             inkscape:connector-curvature="0"
             id="path138"
             d="m 258.37,126.91 -1.6823,-3.2573" />
          <path
             inkscape:connector-curvature="0"
             id="path140"
             d="m 265.02,134.04 4.0055,-2.0358 c -1.4139,-5.0738 -3.6922,-9.4512 -8.4917,-11.299 v 6.3109" />
          <path
             inkscape:connector-curvature="0"
             id="path142"
             d="m 264.53,130.07 2.8039,-2.3412" />
          <path
             inkscape:connector-curvature="0"
             id="path144"
             d="m 262.69,126.91 1.6823,-3.2573" />
          <path
             inkscape:connector-curvature="0"
             id="path146"
             d="m 262.09,220.27 -7.0625,-3.2019 c 2.493,-7.9801 6.5101,-14.865 14.972,-17.771 v 9.9259" />
          <path
             inkscape:connector-curvature="0"
             id="path148"
             d="m 262.94,214.02 -4.95,-3.68" />
          <path
             inkscape:connector-curvature="0"
             id="path150"
             d="m 266.19,209.06 -2.9662,-5.123" />
        </g>
        <g
           style="fill:#40104c"
           id="g166">
          <path
             inkscape:connector-curvature="0"
             id="path154"
             d="m 108.69,157.03 c -3.3011,0.32362 -5.2431,3.2621 -6.1878,8.0754 v 20.646 h 12.376 v -20.646 c -0.94475,-4.8133 -2.8867,-7.7518 -6.1878,-8.0754 z" />
          <path
             inkscape:connector-curvature="0"
             id="path156"
             d="m 229.69,228.34 c -4.1675,0.40854 -6.6192,4.1183 -7.812,10.195 v 22.28 h 15.624 v -22.28 c -1.1927,-6.0767 -3.6444,-9.7865 -7.812,-10.195 z" />
          <path
             inkscape:connector-curvature="0"
             id="path158"
             d="m 149.04,228.34 c -4.1675,0.40854 -6.6192,4.1183 -7.812,10.195 v 22.28 h 15.624 v -22.28 c -1.1927,-6.0767 -3.6444,-9.7865 -7.812,-10.195 z" />
          <path
             inkscape:connector-curvature="0"
             id="path160"
             d="m 189.35,157.03 c -3.3011,0.32362 -5.2431,3.2621 -6.1878,8.0754 v 20.646 h 12.376 v -20.646 c -0.94475,-4.8133 -2.8867,-7.7518 -6.1878,-8.0754 z" />
          <path
             inkscape:connector-curvature="0"
             id="path162"
             d="m 260.5,125.79 c -2.694,0.3178 -4.2789,3.2036 -5.0499,7.9306 v 11.47 h 10.1 v -11.47 c -0.77101,-4.727 -2.3559,-7.6128 -5.0499,-7.9306 z" />
          <path
             inkscape:connector-curvature="0"
             id="path164"
             d="m 269.94,207.3 c -4.7501,0.49985 -7.5446,5.0386 -8.904,12.473 v 41.013 h 17.808 z" />
        </g>
      </g>
      <use
         height="100%"
         width="100%"
         y="0"
         x="0"
         id="use169"
         transform="matrix(-1,0,0,1,540,0)"
         xlink:href="#half" />
    </g>
  </g>
  <g
     id="g881"
     transform="matrix(2.1298858,0,0,2.1298858,-152.93808,-9.558633)">
    <path
       d="m 192.31714,13.16987 c 3.79,-1.73 8.56,-1.64 11.9,1.01 4.66,3.61 6.44,9.56 7.91,15.02 2.42,10.61 2.7,21.87 0.19,32.49 -0.75,3.77 -6.02,6.66 -8.88,3.25 -2.59,-3.98 -0.63,-9 -0.59,-13.39 0.08,-4.33 1.3,-9.53 -1.73,-13.14 -2.89,-2.75 -6.81,-0.01 -8.58,2.64 -5.7,8.11 -6.89,18.29 -10.9,27.18 -5.03,10.65 -22.01,11.82 -28.73,2.25 -4.35,-6.18 -7.49,-13.12 -11.62,-19.44 -1,-1.35 -2.43,-3.18 -4.35,-2.69 -2.43,0.31 -3.06,3.1 -2.98,5.14 0.21,7.24 4.01,13.78 4.8,20.92 0.4,2.73 -1.96,5.56 -4.82,5.02 -3.29,-0.22 -4.75,-3.64 -5.84,-6.27 -3.87,-10.31 -6.35,-21.56 -4.36,-32.56 1.12,-6.29 2.98,-12.98 7.85,-17.45 4.35,-4.05 11.78,-4.66 16.37,-0.66 6.37,5.22 9.19,13.35 14.63,19.35 3.33,3.84 10.21,3.78 12.79,-0.88 3.53,-6.71 5.49,-14.17 9.22,-20.79 1.81,-3.01 4.48,-5.57 7.72,-7 z"
       id="path2"
       inkscape:connector-curvature="0"
       style="opacity:1;fill:#004f7c" />
    <path
       d="m 235.82714,12.05987 c 2.94,-0.09 5.89,-0.08 8.83,0.04 0,5.41 -0.01,10.81 0.01,16.22 0,2.97 -0.01,5.94 -0.03,8.9 -2.95,0.03 -5.9,0.04 -8.84,0.04 -5.38,-0.02 -10.76,0.01 -16.14,-0.03 -0.16,-2.96 -0.16,-5.92 -0.07,-8.88 5.4,-0.08 10.79,-0.01 16.19,-0.05 0.03,-5.41 -0.03,-10.82 0.05,-16.24 z"
       id="path4"
       inkscape:connector-curvature="0"
       style="opacity:1;fill:#004f7c" />
    <g
       transform="translate(121.90714,10.49987)"
       id="#20a5d5ff">
      <path
         style="opacity:1;fill:#20a5d5"
         inkscape:connector-curvature="0"
         id="path23"
         d="m 122.76,17.82 c 5.4,0 10.81,-0.05 16.21,0.04 0.12,2.94 0.12,5.88 -0.01,8.82 -5.4,0.14 -10.8,0.04 -16.2,0.08 -0.04,5.41 0.05,10.82 -0.07,16.23 -2.92,0.1 -5.85,0.09 -8.77,-0.04 -0.07,-5.4 -0.03,-10.79 -0.03,-16.19 2.94,0 5.89,-0.01 8.84,-0.04 0.02,-2.96 0.03,-5.93 0.03,-8.9 z" />
    </g>
  </g>
</svg>
