<?xml version="1.0" encoding="UTF-8" standalone="no"?>
<!-- Created with Inkscape (http://www.inkscape.org/) -->

<svg
   xmlns:dc="http://purl.org/dc/elements/1.1/"
   xmlns:cc="http://creativecommons.org/ns#"
   xmlns:rdf="http://www.w3.org/1999/02/22-rdf-syntax-ns#"
   xmlns:svg="http://www.w3.org/2000/svg"
   xmlns="http://www.w3.org/2000/svg"
   xmlns:sodipodi="http://sodipodi.sourceforge.net/DTD/sodipodi-0.dtd"
   xmlns:inkscape="http://www.inkscape.org/namespaces/inkscape"
   id="svg548"
   height="512"
   width="512"
   y="0.0000000"
   x="0.0000000"
   version="1.0"
   sodipodi:version="0.32"
   inkscape:version="0.92.4 (5da689c313, 2019-01-14)"
   sodipodi:docname="castilla-lamancha.svg"
   inkscape:output_extension="org.inkscape.output.svg.inkscape">
  <metadata
     id="metadata2753">
    <rdf:RDF>
      <cc:Work
         rdf:about="">
        <dc:format>image/svg+xml</dc:format>
        <dc:type
           rdf:resource="http://purl.org/dc/dcmitype/StillImage" />
        <dc:title></dc:title>
      </cc:Work>
    </rdf:RDF>
  </metadata>
  <sodipodi:namedview
     inkscape:window-height="1017"
     inkscape:window-width="1920"
     inkscape:pageshadow="2"
     inkscape:pageopacity="0.0"
     borderopacity="1.0"
     bordercolor="#666666"
     pagecolor="#ffffff"
     id="base"
     inkscape:zoom="0.46167916"
     inkscape:cx="480.65166"
     inkscape:cy="324.5338"
     inkscape:window-x="-8"
     inkscape:window-y="-8"
     inkscape:current-layer="g3524"
     showgrid="false"
     inkscape:window-maximized="1" />
  <defs
     id="defs549">
    <style
       id="style2435"
       type="text/css">
   
    .str0 {stroke:#000000;stroke-width:3}
    .fil1 {fill:none}
    .fil2 {fill:#0039F0}
    .fil0 {fill:#FFFF00}
   
  </style>
  </defs>
  <g
     id="g3524"
     transform="translate(0,12.000018)">
    <g
       id="g2438"
       transform="matrix(1.006896,0,0,1.006896,1069.399,153.8578)">
      <g
         id="g2440" />
      <g
         id="g2442" />
      <g
         id="g2444" />
    </g>
    <g
       id="g2446"
       transform="matrix(1.006896,0,0,1.006896,1069.399,153.8578)" />
    <g
       id="g2448"
       transform="matrix(1.006896,0,0,1.006896,1069.399,153.8578)" />
    <g
       id="g2450"
       transform="matrix(1.006896,0,0,1.006896,1069.399,153.8578)">
      <g
         id="g2452" />
      <g
         id="g2454" />
    </g>
    <g
       id="g2456"
       transform="matrix(1.006896,0,0,1.006896,1069.399,153.8578)">
      <g
         id="g2458" />
      <g
         id="g2460" />
    </g>
    <g
       id="g2462"
       transform="matrix(1.006896,0,0,1.006896,1069.399,153.8578)" />
    <g
       id="g2464"
       transform="matrix(1.006896,0,0,1.006896,1069.399,153.8578)">
      <g
         id="g2466" />
      <g
         id="g2468" />
      <g
         id="g2470" />
      <g
         id="g2472" />
      <g
         id="g2474">
        <g
           id="g2476" />
      </g>
      <g
         id="g2478" />
    </g>
    <g
       id="g2480"
       transform="matrix(1.006896,0,0,1.006896,1069.399,153.8578)">
      <g
         id="g2482" />
    </g>
    <g
       id="g2484"
       transform="matrix(1.006896,0,0,1.006896,1069.399,153.8578)">
      <g
         id="g2486" />
      <g
         id="g2488" />
      <g
         id="g2490" />
    </g>
    <g
       id="g2492"
       transform="matrix(1.006896,0,0,1.006896,1069.399,153.8578)">
      <g
         id="g2494" />
    </g>
    <g
       id="g2617"
       transform="matrix(1.006896,0,0,1.006896,1069.399,153.8578)">
      <g
         id="g2619" />
      <g
         id="g2621" />
    </g>
    <g
       id="g2623"
       transform="matrix(1.006896,0,0,1.006896,1069.399,153.8578)">
      <g
         id="g2625">
        <g
           id="g2627" />
        <g
           id="g2629" />
        <g
           id="g2631" />
      </g>
    </g>
    <g
       id="g2633"
       transform="matrix(1.006896,0,0,1.006896,1069.399,153.8578)">
      <g
         id="g2635" />
      <g
         id="g2637" />
    </g>
    <g
       id="g2639"
       transform="matrix(1.006896,0,0,1.006896,1069.399,153.8578)">
      <g
         id="g2641" />
      <g
         id="g2643" />
    </g>
    <g
       id="g2645"
       transform="matrix(1.006896,0,0,1.006896,1069.399,153.8578)">
      <g
         id="g2647" />
      <g
         id="g2649" />
      <g
         id="g2651" />
      <g
         id="g2653" />
      <g
         id="g2655">
        <g
           id="g2657" />
      </g>
      <g
         id="g2659" />
    </g>
    <rect
       style="fill:#e3dbdb;fill-opacity:1"
       id="rect2849"
       width="5.3215337"
       height="0"
       x="824.83771"
       y="182.03836" />
    <g
       id="g993"
       transform="matrix(0.64,0,0,0.64,16,163.99999)">
      <rect
         width="375"
         height="500"
         x="-5.7012556e-08"
         y="-2.9429793e-05"
         style="font-size:12px;fill:#b81626;fill-opacity:1;fill-rule:evenodd;stroke-width:1.00000003pt"
         id="rect171" />
      <rect
         y="1.2560889e-05"
         x="375"
         height="499.99997"
         width="375"
         id="rect2847"
         style="fill:#fafafa;fill-opacity:1" />
      <g
         transform="translate(3.3127259,1.7037256)"
         id="g3195">
        <path
           id="path3511"
           style="fill:#cab313;fill-opacity:1;fill-rule:evenodd;stroke:#000000;stroke-width:1.23347223;stroke-linecap:butt;stroke-linejoin:miter;stroke-miterlimit:4;stroke-dasharray:none;stroke-opacity:1"
           d="M 72.831488,354.87731 V 331.4153 l 4.047324,-8.74268 v -75.70901 l -3.127526,-6.35665 v -17.67287 l 5.877444,-1.22243 v -50.92302 l -3.150002,-5.239 v -11.8052 l 3.073173,-1.15257 v 6.28679 l 2.919512,-1.46692 v -6.14708 l 3.150002,-1.22244 h 7.759758 v 7.68386 h 6.914637 v -7.75371 h 7.64452 v 7.50922 h 6.45366 v -7.68385 h 6.76098 l 3.34207,1.99081 v 6.4265 l 1.92074,1.01288 v -6.32173 l 3.03475,1.432 v 11.56071 l -2.95793,5.16914 v 72.50768 h 6.53049 v -2.72428 h 21.16648 v -92.78258 l -4.32165,-6.47889 v -14.84382 l 3.9375,-1.60662 v 7.89342 l 4.03354,-1.9559 v -7.614 l 4.26403,-1.67648 h 10.2183 v 9.5699 h 8.83536 v -9.74453 h 10.14147 v 9.5699 h 8.56647 v -9.53497 h 8.75854 l 4.1872,2.27023 v 8.20775 l 2.72744,1.11766 v -7.85849 l 4.11037,1.78125 V 141.817 l -3.78385,6.68845 v 92.48571 h 23.10641 v 2.68935 h 3.80306 v -73.86982 l -3.15001,-4.75002 v -12.17891 l 2.94895,-1.08667 v 6.49528 l 3.1781,-1.77818 v -6.07542 l 2.98796,-1.25954 h 7.90451 v 7.8289 h 6.70933 v -8.00178 h 7.66004 v 7.70542 h 6.57351 v -7.73012 h 6.70932 l 3.09661,1.87696 v 6.66815 l 2.30888,1.01258 v -6.37179 l 2.9608,1.30893 v 11.62985 l -2.9608,5.39863 v 52.86771 l 5.12465,0.34927 v 16.74732 l -3.61098,7.614 v 74.63819 l 4.1872,9.22065 v 23.22621 l -49.92266,19.78955 H 121.80685 Z"
           inkscape:connector-curvature="0" />
        <path
           id="path3513"
           style="fill:#cab313;fill-opacity:1;fill-rule:evenodd;stroke:#000000;stroke-width:1.23347223;stroke-linecap:butt;stroke-linejoin:miter;stroke-miterlimit:4;stroke-dasharray:none;stroke-opacity:1"
           d="m 126.32174,216.76954 h 6.5689 v 7.38698 l 8.50885,-1.67648 v -8.73165 h 7.56768 v 7.07264 h 5.14757 v 17.58555 c -11.61926,-7.22593 -17.03418,-5.96616 -27.58172,0.3842 z"
           inkscape:connector-curvature="0" />
        <path
           id="path3515"
           style="fill:#cab313;fill-opacity:1;fill-rule:evenodd;stroke:#000000;stroke-width:1.23347223;stroke-linecap:butt;stroke-linejoin:miter;stroke-miterlimit:4;stroke-dasharray:none;stroke-opacity:1"
           d="m 242.73338,216.44204 h -6.33161 v 7.39455 l -8.20148,-1.67819 v -8.7406 h -7.29431 v 7.07989 h -4.96161 v 17.60356 c 11.19952,-7.23333 16.41884,-5.97227 26.58536,0.38459 z"
           inkscape:connector-curvature="0" />
        <path
           id="path3517"
           style="fill:#0f47af;fill-opacity:1;fill-rule:evenodd;stroke:#000000;stroke-width:1.23347223;stroke-linecap:butt;stroke-linejoin:miter;stroke-miterlimit:4;stroke-dasharray:none;stroke-opacity:1"
           d="m 98.173403,194.62606 h 8.345587 v -8.62688 c 3.3013,-4.16808 2.60144,-9.7051 -4.13918,-12.87046 -7.315023,3.70968 -7.058581,8.93198 -4.302446,12.70456 z"
           inkscape:connector-curvature="0" />
        <path
           id="path3519"
           style="fill:#0f47af;fill-opacity:1;fill-rule:evenodd;stroke:#000000;stroke-width:1.23347223;stroke-linecap:butt;stroke-linejoin:miter;stroke-miterlimit:4;stroke-dasharray:none;stroke-opacity:1"
           d="m 179.65978,177.84227 h 10.27655 v -10.62292 c 4.06514,-5.13248 3.20336,-11.95064 -5.09688,-15.84838 -9.00755,4.56802 -8.69177,10.99862 -5.29793,15.64409 z"
           inkscape:connector-curvature="0" />
        <path
           id="path3521"
           style="fill:#0f47af;fill-opacity:1;fill-rule:evenodd;stroke:#000000;stroke-width:1.23347223;stroke-linecap:butt;stroke-linejoin:miter;stroke-miterlimit:4;stroke-dasharray:none;stroke-opacity:1"
           d="m 262.77503,194.57559 h 8.34558 v -8.62688 c 3.3013,-4.16809 2.60144,-9.70511 -4.13918,-12.87046 -7.31502,3.70968 -7.05858,8.93197 -4.30244,12.70456 z"
           inkscape:connector-curvature="0" />
        <path
           id="path3523"
           style="fill:#0f47af;fill-opacity:1;fill-rule:evenodd;stroke:#000000;stroke-width:1.23347223;stroke-linecap:butt;stroke-linejoin:miter;stroke-miterlimit:4;stroke-dasharray:none;stroke-opacity:1"
           d="m 180.01448,234.98381 h 10.44269 v -13.58565 c 4.13087,-6.56392 3.25515,-15.28365 -5.17928,-20.26847 -9.15317,5.84203 -8.83229,14.06612 -5.38358,20.0072 z"
           inkscape:connector-curvature="0" />
        <path
           id="path3525"
           style="fill:none;fill-rule:evenodd;stroke:#000000;stroke-width:1.23347223;stroke-linecap:butt;stroke-linejoin:miter;stroke-miterlimit:4;stroke-dasharray:none;stroke-opacity:1"
           d="m 74.058605,240.78159 50.227155,19.89072 H 245.7721 l 48.7795,-19.72157"
           inkscape:connector-curvature="0" />
        <path
           id="path3527"
           style="fill:none;fill-rule:evenodd;stroke:#000000;stroke-width:1.23347223;stroke-linecap:butt;stroke-linejoin:miter;stroke-miterlimit:4;stroke-dasharray:none;stroke-opacity:1"
           d="m 77.2591,247.59419 50.17054,20.54778 h 114.71045 l 49.05733,-20.70685"
           inkscape:connector-curvature="0" />
        <path
           id="path3529"
           style="fill:none;fill-rule:evenodd;stroke:#000000;stroke-width:1.23347223;stroke-linecap:butt;stroke-linejoin:miter;stroke-miterlimit:4;stroke-dasharray:none;stroke-opacity:1"
           d="m 77.40068,264.95082 50.09271,20.52812"
           inkscape:connector-curvature="0" />
        <path
           id="path3531"
           style="fill:none;fill-rule:evenodd;stroke:#000000;stroke-width:1.23347223;stroke-linecap:butt;stroke-linejoin:miter;stroke-miterlimit:4;stroke-dasharray:none;stroke-opacity:1"
           d="m 127.98317,284.91138 h 113.5057"
           inkscape:connector-curvature="0" />
        <path
           id="path3533"
           style="fill:none;fill-rule:evenodd;stroke:#000000;stroke-width:1.23347223;stroke-linecap:butt;stroke-linejoin:miter;stroke-miterlimit:4;stroke-dasharray:none;stroke-opacity:1"
           d="m 241.90182,285.60992 49.25719,-20.60671"
           inkscape:connector-curvature="0" />
        <path
           id="path3535"
           style="fill:none;fill-rule:evenodd;stroke:#000000;stroke-width:1.23347223;stroke-linecap:butt;stroke-linejoin:miter;stroke-miterlimit:4;stroke-dasharray:none;stroke-opacity:1"
           d="m 77.323852,285.67977 50.173698,20.49534"
           inkscape:connector-curvature="0" />
        <path
           id="path3537"
           style="fill:none;fill-rule:evenodd;stroke:#000000;stroke-width:1.23347223;stroke-linecap:butt;stroke-linejoin:miter;stroke-miterlimit:4;stroke-dasharray:none;stroke-opacity:1"
           d="m 76.872022,304.23643 c 0.02717,0 50.747758,21.18989 50.747758,21.18989"
           inkscape:connector-curvature="0" />
        <path
           id="path3539"
           style="fill:none;fill-rule:evenodd;stroke:#000000;stroke-width:1.23347223;stroke-linecap:butt;stroke-linejoin:miter;stroke-miterlimit:4;stroke-dasharray:none;stroke-opacity:1"
           d="m 127.91595,306.47859 h 113.7842 l 49.47807,-20.81628"
           inkscape:connector-curvature="0" />
        <path
           id="path3541"
           style="fill:none;fill-rule:evenodd;stroke:#000000;stroke-width:1.23347223;stroke-linecap:butt;stroke-linejoin:miter;stroke-miterlimit:4;stroke-dasharray:none;stroke-opacity:1"
           d="m 127.56546,325.73504 h 113.70541 l 50.06101,-21.17741"
           inkscape:connector-curvature="0" />
        <path
           id="path3543"
           style="fill:#0f47af;fill-opacity:1;fill-rule:evenodd;stroke:#000000;stroke-width:1.23347223;stroke-linecap:butt;stroke-linejoin:miter;stroke-miterlimit:4;stroke-dasharray:none;stroke-opacity:1"
           d="m 172.49349,343.36857 h 24.7609 v -19.59693 c 8.47954,-15.10398 1.89745,-28.68041 -12.65763,-38.89518 -17.47279,9.66935 -20.44687,25.469 -12.3503,39.6417 z"
           inkscape:connector-curvature="0" />
        <path
           id="path3545"
           style="fill:none;fill-rule:evenodd;stroke:#000000;stroke-width:1.23347223;stroke-linecap:butt;stroke-linejoin:miter;stroke-miterlimit:4;stroke-dasharray:none;stroke-opacity:1"
           d="m 77.054945,322.47496 50.784175,21.30525 h 113.92069 l 49.60011,-21.37926"
           inkscape:connector-curvature="0" />
        <path
           id="path3547"
           style="fill:none;fill-rule:evenodd;stroke:#000000;stroke-width:1.23347223;stroke-linecap:butt;stroke-linejoin:miter;stroke-miterlimit:4;stroke-dasharray:none;stroke-opacity:1"
           d="m 73.062374,331.90924 48.860886,20.67248 h 123.4839 l 50.1359,-20.64776"
           inkscape:connector-curvature="0" />
        <path
           id="path3549"
           style="fill:none;fill-rule:evenodd;stroke:#000000;stroke-width:1.23347223;stroke-linecap:butt;stroke-linejoin:miter;stroke-miterlimit:4;stroke-dasharray:none;stroke-opacity:1"
           d="m 124.07448,243.68051 v 17.07911 l 3.6686,7.59654 v 75.06604 l -5.90907,8.88663 v 22.67171"
           inkscape:connector-curvature="0" />
        <path
           id="path3551"
           style="fill:none;fill-rule:evenodd;stroke:#000000;stroke-width:1.23347223;stroke-linecap:butt;stroke-linejoin:miter;stroke-miterlimit:4;stroke-dasharray:none;stroke-opacity:1"
           d="m 245.39968,243.54391 v 18.27567 l -3.74853,6.47057 v 75.26368 l 3.89046,9.79628 v 21.46242"
           inkscape:connector-curvature="0" />
        <path
           id="path3553"
           style="fill:none;fill-rule:evenodd;stroke:#000000;stroke-width:1.23347223;stroke-linecap:butt;stroke-linejoin:miter;stroke-miterlimit:4;stroke-dasharray:none;stroke-opacity:1"
           d="m 76.498527,165.60064 9.072528,-2.91423 h 35.692525 l 8.04032,3.03771"
           inkscape:connector-curvature="0" />
        <path
           id="path3555"
           style="fill:none;fill-rule:evenodd;stroke:#000000;stroke-width:1.23347223;stroke-linecap:butt;stroke-linejoin:miter;stroke-miterlimit:4;stroke-dasharray:none;stroke-opacity:1"
           d="m 79.350672,170.83637 8.882385,-2.79074 h 29.349903 l 8.95029,3.0871"
           inkscape:connector-curvature="0" />
        <path
           id="path3557"
           style="fill:#cab313;fill-opacity:1;fill-rule:evenodd;stroke:#000000;stroke-width:1.23347223;stroke-linecap:butt;stroke-linejoin:miter;stroke-miterlimit:4;stroke-dasharray:none;stroke-opacity:1"
           d="m 126.77772,203.01637 -9.4258,-3.23863 H 88.12797 l -8.668649,2.89287 c -1.559067,0.91263 -1.781494,2.9706 0,3.9268 l 8.800897,-2.46968 h 29.363492 l 9.30341,2.91422 c 1.05243,-1.17787 0.90735,-2.73732 -0.1494,-4.02558 z"
           inkscape:connector-curvature="0" />
        <path
           id="path3559"
           style="fill:#cab313;fill-opacity:1;fill-rule:evenodd;stroke:#000000;stroke-width:1.23347223;stroke-linecap:butt;stroke-linejoin:miter;stroke-miterlimit:4;stroke-dasharray:none;stroke-opacity:1"
           d="m 79.296345,206.62211 c -1.905143,1.00681 -1.409213,3.57934 0,4.12438 l 8.963873,-3.03772 h 29.336322 l 8.82806,3.03772 c 1.10959,-0.76432 1.66424,-1.79518 0.0815,-3.85271 l -8.96388,-2.79075 H 88.226267 Z"
           inkscape:connector-curvature="0" />
        <path
           id="path3561"
           style="fill:none;fill-rule:evenodd;stroke:#000000;stroke-width:1.23347223;stroke-linecap:butt;stroke-linejoin:miter;stroke-miterlimit:4;stroke-dasharray:none;stroke-opacity:1"
           d="m 85.842689,150.1898 v 12.69418 l 2.499022,4.48248 v 71.60853"
           inkscape:connector-curvature="0" />
        <path
           id="path3563"
           style="fill:none;fill-rule:evenodd;stroke:#000000;stroke-width:1.23347223;stroke-linecap:butt;stroke-linejoin:miter;stroke-miterlimit:4;stroke-dasharray:none;stroke-opacity:1"
           d="m 120.99195,150.01692 v 12.89176 l -3.34108,5.30982 v 83.50006"
           inkscape:connector-curvature="0" />
        <path
           id="path3565"
           style="fill:#cab313;fill-opacity:1;fill-rule:evenodd;stroke:#000000;stroke-width:1.23347223;stroke-linecap:butt;stroke-linejoin:miter;stroke-miterlimit:4;stroke-dasharray:none;stroke-opacity:1"
           d="m 242.76485,202.37425 9.4258,-3.23863 h 29.22395 l 8.66865,2.89287 c 1.55907,0.91263 1.7815,2.9706 0,3.9268 l -8.8009,-2.46968 h -29.36348 l -9.30342,2.91423 c -1.05243,-1.17788 -0.90735,-2.73733 0.1494,-4.02559 z"
           inkscape:connector-curvature="0" />
        <path
           id="path3567"
           style="fill:#cab313;fill-opacity:1;fill-rule:evenodd;stroke:#000000;stroke-width:1.23347223;stroke-linecap:butt;stroke-linejoin:miter;stroke-miterlimit:4;stroke-dasharray:none;stroke-opacity:1"
           d="m 290.24623,205.97999 c 1.90514,1.00681 1.40921,3.57934 0,4.12438 l -8.96388,-3.03772 h -29.33632 l -8.82806,3.03772 c -1.10959,-0.76431 -1.66424,-1.79518 -0.0815,-3.85271 l 8.96388,-2.79075 h 29.31594 z"
           inkscape:connector-curvature="0" />
        <path
           id="path3569"
           style="fill:none;fill-rule:evenodd;stroke:#000000;stroke-width:1.23347223;stroke-linecap:butt;stroke-linejoin:miter;stroke-miterlimit:4;stroke-dasharray:none;stroke-opacity:1"
           d="m 283.69988,149.54768 v 12.69418 l -2.49902,4.48248 v 71.60853"
           inkscape:connector-curvature="0" />
        <path
           id="path3571"
           style="fill:none;fill-rule:evenodd;stroke:#000000;stroke-width:1.23347223;stroke-linecap:butt;stroke-linejoin:miter;stroke-miterlimit:4;stroke-dasharray:none;stroke-opacity:1"
           d="m 248.55062,149.3748 v 12.89176 l 3.34108,5.30982 v 83.50007"
           inkscape:connector-curvature="0" />
        <path
           id="path3573"
           style="fill:none;fill-rule:evenodd;stroke:#000000;stroke-width:1.23347223;stroke-linecap:butt;stroke-linejoin:miter;stroke-miterlimit:4;stroke-dasharray:none;stroke-opacity:1"
           d="m 73.809364,223.71233 9.235508,3.58104 v 9.82935 l 8.447774,2.44499 v -8.81677 l 8.311959,3.18589 v 9.85404 l 7.252595,2.51908 v -9.48359 l 9.29594,3.71075 v 10.89744 l 4.68658,1.57136 v -10.68754 l 2.99634,1.3796 11.08079,-0.0553 v 10.47147 h 8.42061 V 243.5933 h 9.94175 v 10.02692 h 7.95883 v -10.12571 h 9.94176 v 9.87874 h 8.23046 v -9.82934 h 12.00617 v 10.24919 h 8.17614 v -10.24919 h 9.45281 v 9.53298 h 8.69225 v -9.4837 h 9.66434 v 9.41272 h 8.73933 v -9.48258 h 9.00824 l 3.11158,-1.44945 v 10.77487 l 3.59177,-1.39707 v -10.68755 l 9.64208,-3.75461 v 9.77945 l 7.30839,-2.82905 v -10.05887 l 8.19192,-3.10847 v 9.11585 l 8.14391,-2.82906 v -9.84931 l 9.29634,-3.49266"
           inkscape:connector-curvature="0" />
        <path
           id="path3575"
           style="fill:#cab313;fill-opacity:1;fill-rule:evenodd;stroke:#000000;stroke-width:1.23347223;stroke-linecap:butt;stroke-linejoin:miter;stroke-miterlimit:4;stroke-dasharray:none;stroke-opacity:1"
           d="m 153.60512,188.40573 12.29392,-4.2241 h 38.11631 l 11.30638,3.77313 c 2.03347,1.19033 2.32357,3.8745 0,5.12166 l -11.47887,-3.22117 h -38.29831 l -12.13429,3.80098 c -1.37267,-1.53628 -1.18344,-3.57024 0.19486,-5.2505 z"
           inkscape:connector-curvature="0" />
        <path
           id="path3577"
           style="fill:#cab313;fill-opacity:1;fill-rule:evenodd;stroke:#000000;stroke-width:1.23347223;stroke-linecap:butt;stroke-linejoin:miter;stroke-miterlimit:4;stroke-dasharray:none;stroke-opacity:1"
           d="m 215.5343,193.10864 c 2.48484,1.31317 1.83801,4.66847 0,5.37935 l -11.69144,-3.96204 h -38.26288 l -11.51429,3.96204 c -1.44722,-0.99688 -2.17065,-2.34142 -0.10629,-5.02502 l 11.69144,-3.63992 h 38.2363 z"
           inkscape:connector-curvature="0" />
        <path
           id="path3579"
           style="fill:none;fill-rule:evenodd;stroke:#000000;stroke-width:1.23347223;stroke-linecap:butt;stroke-linejoin:miter;stroke-miterlimit:4;stroke-dasharray:none;stroke-opacity:1"
           d="m 239.66417,164.74633 9.60366,-2.65442 h 34.82288 l 8.46083,2.77666"
           inkscape:connector-curvature="0" />
        <path
           id="path3581"
           style="fill:none;fill-rule:evenodd;stroke:#000000;stroke-width:1.23347223;stroke-linecap:butt;stroke-linejoin:miter;stroke-miterlimit:4;stroke-dasharray:none;stroke-opacity:1"
           d="m 242.58368,170.07264 8.98903,-2.82905 h 28.59971 l 9.45,3.091"
           inkscape:connector-curvature="0" />
        <path
           id="path3583"
           style="fill:none;fill-rule:evenodd;stroke:#000000;stroke-width:1.23347223;stroke-linecap:butt;stroke-linejoin:miter;stroke-miterlimit:4;stroke-dasharray:none;stroke-opacity:1"
           d="m 162.14429,121.9366 v 15.70667 l 3.45643,6.07723 v 99.85523"
           inkscape:connector-curvature="0" />
        <path
           id="path3585"
           style="fill:none;fill-rule:evenodd;stroke:#000000;stroke-width:1.23347223;stroke-linecap:butt;stroke-linejoin:miter;stroke-miterlimit:4;stroke-dasharray:none;stroke-opacity:1"
           d="m 208.43306,122.03107 v 15.89161 l -4.14879,6.35665 v 99.12176"
           inkscape:connector-curvature="0" />
        <path
           id="path3587"
           style="fill:none;fill-rule:evenodd;stroke:#000000;stroke-width:1.23347223;stroke-linecap:butt;stroke-linejoin:miter;stroke-miterlimit:4;stroke-dasharray:none;stroke-opacity:1"
           d="m 150.11097,141.44711 11.73452,-3.30938 h 46.39485 l 11.19127,3.45756"
           inkscape:connector-curvature="0" />
        <path
           id="path3589"
           style="fill:none;fill-rule:evenodd;stroke:#000000;stroke-width:1.23347223;stroke-linecap:butt;stroke-linejoin:miter;stroke-miterlimit:4;stroke-dasharray:none;stroke-opacity:1"
           d="m 153.72368,148.21405 12.11481,-3.70453 h 37.7159 l 12.30525,3.96385"
           inkscape:connector-curvature="0" />
        <path
           id="path3591"
           style="fill:none;fill-rule:evenodd;stroke:#000000;stroke-width:1.23347223;stroke-linecap:butt;stroke-linejoin:miter;stroke-miterlimit:4;stroke-dasharray:none;stroke-opacity:1"
           d="m 79.703794,221.6131 v 4.54422"
           inkscape:connector-curvature="0" />
        <path
           id="path3593"
           style="fill:none;fill-rule:evenodd;stroke:#000000;stroke-width:1.23347223;stroke-linecap:butt;stroke-linejoin:miter;stroke-miterlimit:4;stroke-dasharray:none;stroke-opacity:1"
           d="m 289.68004,223.31828 v 2.13053"
           inkscape:connector-curvature="0" />
        <path
           id="path3595"
           style="fill:none;fill-rule:evenodd;stroke:#000000;stroke-width:1.23347223;stroke-linecap:butt;stroke-linejoin:miter;stroke-miterlimit:4;stroke-dasharray:none;stroke-opacity:1"
           d="m 92.958613,253.87908 -0.07683,17.32361"
           inkscape:connector-curvature="0" />
        <path
           id="path3597"
           style="fill:none;fill-rule:evenodd;stroke:#000000;stroke-width:1.23347223;stroke-linecap:butt;stroke-linejoin:miter;stroke-miterlimit:4;stroke-dasharray:none;stroke-opacity:1"
           d="m 104.86715,276.09241 v 20.60672"
           inkscape:connector-curvature="0" />
        <path
           id="path3599"
           style="fill:none;fill-rule:evenodd;stroke:#000000;stroke-width:1.23347223;stroke-linecap:butt;stroke-linejoin:miter;stroke-miterlimit:4;stroke-dasharray:none;stroke-opacity:1"
           d="m 91.883002,291.63474 v 18.89532"
           inkscape:connector-curvature="0" />
        <path
           id="path3601"
           style="fill:none;fill-rule:evenodd;stroke:#000000;stroke-width:1.23347223;stroke-linecap:butt;stroke-linejoin:miter;stroke-miterlimit:4;stroke-dasharray:none;stroke-opacity:1"
           d="m 104.40618,315.62934 v 18.09199"
           inkscape:connector-curvature="0" />
        <path
           id="path3603"
           style="fill:none;fill-rule:evenodd;stroke:#000000;stroke-width:1.23347223;stroke-linecap:butt;stroke-linejoin:miter;stroke-miterlimit:4;stroke-dasharray:none;stroke-opacity:1"
           d="m 141.79901,268.19136 v 16.69508"
           inkscape:connector-curvature="0" />
        <path
           id="path3605"
           style="fill:none;fill-rule:evenodd;stroke:#000000;stroke-width:1.23347223;stroke-linecap:butt;stroke-linejoin:miter;stroke-miterlimit:4;stroke-dasharray:none;stroke-opacity:1"
           d="M 184.96143,284.29371 V 268.29015"
           inkscape:connector-curvature="0" />
        <path
           id="path3607"
           style="fill:none;fill-rule:evenodd;stroke:#000000;stroke-width:1.23347223;stroke-linecap:butt;stroke-linejoin:miter;stroke-miterlimit:4;stroke-dasharray:none;stroke-opacity:1"
           d="m 227.52626,268.24076 v 16.39871"
           inkscape:connector-curvature="0" />
        <path
           id="path3609"
           style="fill:none;fill-rule:evenodd;stroke:#000000;stroke-width:1.23347223;stroke-linecap:butt;stroke-linejoin:miter;stroke-miterlimit:4;stroke-dasharray:none;stroke-opacity:1"
           d="m 161.87266,284.66417 v 21.8567"
           inkscape:connector-curvature="0" />
        <path
           id="path3611"
           style="fill:none;fill-rule:evenodd;stroke:#000000;stroke-width:1.23347223;stroke-linecap:butt;stroke-linejoin:miter;stroke-miterlimit:4;stroke-dasharray:none;stroke-opacity:1"
           d="m 206.77353,284.63947 v 21.93081"
           inkscape:connector-curvature="0" />
        <path
           id="path3613"
           style="fill:none;fill-rule:evenodd;stroke:#000000;stroke-width:1.23347223;stroke-linecap:butt;stroke-linejoin:miter;stroke-miterlimit:4;stroke-dasharray:none;stroke-opacity:1"
           d="m 227.4176,306.52087 v 19.26357"
           inkscape:connector-curvature="0" />
        <path
           id="path3615"
           style="fill:none;fill-rule:evenodd;stroke:#000000;stroke-width:1.23347223;stroke-linecap:butt;stroke-linejoin:miter;stroke-miterlimit:4;stroke-dasharray:none;stroke-opacity:1"
           d="m 141.63603,306.52087 v 19.21417"
           inkscape:connector-curvature="0" />
        <path
           id="path3617"
           style="fill:none;fill-rule:evenodd;stroke:#000000;stroke-width:1.23347223;stroke-linecap:butt;stroke-linejoin:miter;stroke-miterlimit:4;stroke-dasharray:none;stroke-opacity:1"
           d="m 162.00847,325.73504 v 17.97929"
           inkscape:connector-curvature="0" />
        <path
           id="path3619"
           style="fill:none;fill-rule:evenodd;stroke:#000000;stroke-width:1.23347223;stroke-linecap:butt;stroke-linejoin:miter;stroke-miterlimit:4;stroke-dasharray:none;stroke-opacity:1"
           d="m 206.55622,325.88322 v 17.88052"
           inkscape:connector-curvature="0" />
        <path
           id="path3621"
           style="fill:none;fill-rule:evenodd;stroke:#000000;stroke-width:1.23347223;stroke-linecap:butt;stroke-linejoin:miter;stroke-miterlimit:4;stroke-dasharray:none;stroke-opacity:1"
           d="m 275.65955,254.11416 c 0.0543,0.19757 0,17.18901 0,17.18901"
           inkscape:connector-curvature="0" />
        <path
           id="path3623"
           style="fill:none;fill-rule:evenodd;stroke:#000000;stroke-width:1.23347223;stroke-linecap:butt;stroke-linejoin:miter;stroke-miterlimit:4;stroke-dasharray:none;stroke-opacity:1"
           d="m 263.97936,296.64214 v -20.3996"
           inkscape:connector-curvature="0" />
        <path
           id="path3625"
           style="fill:none;fill-rule:evenodd;stroke:#000000;stroke-width:1.23347223;stroke-linecap:butt;stroke-linejoin:miter;stroke-miterlimit:4;stroke-dasharray:none;stroke-opacity:1"
           d="m 276.63743,291.80154 v 18.81904"
           inkscape:connector-curvature="0" />
        <path
           id="path3627"
           style="fill:none;fill-rule:evenodd;stroke:#000000;stroke-width:1.23347223;stroke-linecap:butt;stroke-linejoin:miter;stroke-miterlimit:4;stroke-dasharray:none;stroke-opacity:1"
           d="m 264.25099,315.8563 v 18.12747"
           inkscape:connector-curvature="0" />
        <path
           id="path3629"
           style="fill:none;fill-rule:evenodd;stroke:#000000;stroke-width:1.23347223;stroke-linecap:butt;stroke-linejoin:miter;stroke-miterlimit:4;stroke-dasharray:none;stroke-opacity:1"
           d="m 154.2684,240.50218 v 13.13241"
           inkscape:connector-curvature="0" />
        <path
           id="path3631"
           style="fill:none;fill-rule:evenodd;stroke:#000000;stroke-width:1.23347223;stroke-linecap:butt;stroke-linejoin:miter;stroke-miterlimit:4;stroke-dasharray:none;stroke-opacity:1"
           d="m 215.96233,240.78159 v 12.25925"
           inkscape:connector-curvature="0" />
      </g>
    </g>
    <g
       id="g881"
       transform="matrix(2.1298858,0,0,2.1298858,-152.93808,-21.558651)">
      <path
         d="m 192.31714,13.16987 c 3.79,-1.73 8.56,-1.64 11.9,1.01 4.66,3.61 6.44,9.56 7.91,15.02 2.42,10.61 2.7,21.87 0.19,32.49 -0.75,3.77 -6.02,6.66 -8.88,3.25 -2.59,-3.98 -0.63,-9 -0.59,-13.39 0.08,-4.33 1.3,-9.53 -1.73,-13.14 -2.89,-2.75 -6.81,-0.01 -8.58,2.64 -5.7,8.11 -6.89,18.29 -10.9,27.18 -5.03,10.65 -22.01,11.82 -28.73,2.25 -4.35,-6.18 -7.49,-13.12 -11.62,-19.44 -1,-1.35 -2.43,-3.18 -4.35,-2.69 -2.43,0.31 -3.06,3.1 -2.98,5.14 0.21,7.24 4.01,13.78 4.8,20.92 0.4,2.73 -1.96,5.56 -4.82,5.02 -3.29,-0.22 -4.75,-3.64 -5.84,-6.27 -3.87,-10.31 -6.35,-21.56 -4.36,-32.56 1.12,-6.29 2.98,-12.98 7.85,-17.45 4.35,-4.05 11.78,-4.66 16.37,-0.66 6.37,5.22 9.19,13.35 14.63,19.35 3.33,3.84 10.21,3.78 12.79,-0.88 3.53,-6.71 5.49,-14.17 9.22,-20.79 1.81,-3.01 4.48,-5.57 7.72,-7 z"
         id="path2"
         inkscape:connector-curvature="0"
         style="opacity:1;fill:#004f7c" />
      <path
         d="m 235.82714,12.05987 c 2.94,-0.09 5.89,-0.08 8.83,0.04 0,5.41 -0.01,10.81 0.01,16.22 0,2.97 -0.01,5.94 -0.03,8.9 -2.95,0.03 -5.9,0.04 -8.84,0.04 -5.38,-0.02 -10.76,0.01 -16.14,-0.03 -0.16,-2.96 -0.16,-5.92 -0.07,-8.88 5.4,-0.08 10.79,-0.01 16.19,-0.05 0.03,-5.41 -0.03,-10.82 0.05,-16.24 z"
         id="path4"
         inkscape:connector-curvature="0"
         style="opacity:1;fill:#004f7c" />
      <g
         transform="translate(121.90714,10.49987)"
         id="#20a5d5ff">
        <path
           style="opacity:1;fill:#20a5d5"
           inkscape:connector-curvature="0"
           id="path23"
           d="m 122.76,17.82 c 5.4,0 10.81,-0.05 16.21,0.04 0.12,2.94 0.12,5.88 -0.01,8.82 -5.4,0.14 -10.8,0.04 -16.2,0.08 -0.04,5.41 0.05,10.82 -0.07,16.23 -2.92,0.1 -5.85,0.09 -8.77,-0.04 -0.07,-5.4 -0.03,-10.79 -0.03,-16.19 2.94,0 5.89,-0.01 8.84,-0.04 0.02,-2.96 0.03,-5.93 0.03,-8.9 z" />
      </g>
    </g>
  </g>
</svg>
