<?xml version="1.0" encoding="UTF-8" standalone="no"?>
<svg
   xmlns:dc="http://purl.org/dc/elements/1.1/"
   xmlns:cc="http://creativecommons.org/ns#"
   xmlns:rdf="http://www.w3.org/1999/02/22-rdf-syntax-ns#"
   xmlns:svg="http://www.w3.org/2000/svg"
   xmlns="http://www.w3.org/2000/svg"
   xmlns:sodipodi="http://sodipodi.sourceforge.net/DTD/sodipodi-0.dtd"
   xmlns:inkscape="http://www.inkscape.org/namespaces/inkscape"
   width="512"
   height="512"
   viewBox="0 0 383.99999 384.00001"
   version="1.1"
   id="svg26"
   sodipodi:docname="movistar+.svg"
   inkscape:version="0.92.4 (5da689c313, 2019-01-14)">
  <metadata
     id="metadata32">
    <rdf:RDF>
      <cc:Work
         rdf:about="">
        <dc:format>image/svg+xml</dc:format>
        <dc:type
           rdf:resource="http://purl.org/dc/dcmitype/StillImage" />
        <dc:title></dc:title>
      </cc:Work>
    </rdf:RDF>
  </metadata>
  <defs
     id="defs30" />
  <sodipodi:namedview
     pagecolor="#ffffff"
     bordercolor="#666666"
     borderopacity="1"
     objecttolerance="10"
     gridtolerance="10"
     guidetolerance="10"
     inkscape:pageopacity="0"
     inkscape:pageshadow="2"
     inkscape:window-width="1920"
     inkscape:window-height="1017"
     id="namedview28"
     showgrid="false"
     units="px"
     inkscape:zoom="1.5214286"
     inkscape:cx="93.333333"
     inkscape:cy="253.08979"
     inkscape:window-x="-8"
     inkscape:window-y="-8"
     inkscape:window-maximized="1"
     inkscape:current-layer="svg26" />
  <g
     id="g852"
     transform="matrix(2.609986,0,0,2.609986,9.0586116,-680.00861)">
    <g
       transform="translate(0,284.00001)"
       id="#004f7cff">
      <path
         style="opacity:1;fill:#004f7c"
         inkscape:connector-curvature="0"
         id="path2"
         d="m 70.41,2.67 c 3.79,-1.73 8.56,-1.64 11.9,1.01 4.66,3.61 6.44,9.56 7.91,15.02 2.42,10.61 2.7,21.87 0.19,32.49 -0.75,3.77 -6.02,6.66 -8.88,3.25 -2.59,-3.98 -0.63,-9 -0.59,-13.39 0.08,-4.33 1.3,-9.53 -1.73,-13.14 -2.89,-2.75 -6.81,-0.01 -8.58,2.64 -5.7,8.11 -6.89,18.29 -10.9,27.18 C 54.7,68.38 37.72,69.55 31,59.98 26.65,53.8 23.51,46.86 19.38,40.54 c -1,-1.35 -2.43,-3.18 -4.35,-2.69 -2.43,0.31 -3.06,3.1 -2.98,5.14 0.21,7.24 4.01,13.78 4.8,20.92 0.4,2.73 -1.96,5.56 -4.82,5.02 C 8.74,68.71 7.28,65.29 6.19,62.66 2.32,52.35 -0.16,41.1 1.83,30.1 2.95,23.81 4.81,17.12 9.68,12.65 14.03,8.6 21.46,7.99 26.05,11.99 c 6.37,5.22 9.19,13.35 14.63,19.35 3.33,3.84 10.21,3.78 12.79,-0.88 3.53,-6.71 5.49,-14.17 9.22,-20.79 1.81,-3.01 4.48,-5.57 7.72,-7 z" />
      <path
         style="opacity:1;fill:#004f7c"
         inkscape:connector-curvature="0"
         id="path4"
         d="m 113.92,1.56 c 2.94,-0.09 5.89,-0.08 8.83,0.04 0,5.41 -0.01,10.81 0.01,16.22 0,2.97 -0.01,5.94 -0.03,8.9 -2.95,0.03 -5.9,0.04 -8.84,0.04 -5.38,-0.02 -10.76,0.01 -16.14,-0.03 -0.16,-2.96 -0.16,-5.92 -0.07,-8.88 5.4,-0.08 10.79,-0.01 16.19,-0.05 0.03,-5.41 -0.03,-10.82 0.05,-16.24 z" />
      <path
         style="opacity:1;fill:#004f7c"
         inkscape:connector-curvature="0"
         id="path6"
         d="m 96.15,76.2 c 1.31,0 2.62,0 3.93,0 0.02,1.22 0.04,2.45 0.06,3.67 1.26,0.01 2.53,0.02 3.79,0.03 0,0.81 0,2.44 0.01,3.26 -1.27,0.01 -2.54,0.03 -3.81,0.04 0.04,3.21 -0.21,6.43 0.15,9.62 0.17,1.95 2.49,1.87 3.88,2.32 0,0.82 0,2.46 0,3.28 -2.94,-0.06 -6.94,-0.48 -7.67,-4 C 95.68,88.4 96.31,82.27 96.15,76.2 Z" />
      <path
         style="opacity:1;fill:#004f7c"
         inkscape:connector-curvature="0"
         id="path8"
         d="m 3.7,82.89 c 2.54,-4.59 9.09,-3.84 13.19,-2.01 4.1,-1.88 10.81,-2.56 13.16,2.2 0.94,5 0.24,10.15 0.44,15.21 -0.99,0 -2.97,0 -3.96,0.01 -0.1,-4.11 0.1,-8.22 -0.1,-12.32 0.2,-3.64 -5.27,-3.78 -7.18,-1.73 -0.87,4.61 -0.26,9.36 -0.44,14.03 -1.32,0.01 -2.65,0.02 -3.97,0.03 -0.2,-4.6 0.34,-9.26 -0.32,-13.83 C 12.86,82.09 7.03,82.3 7.24,85.95 6.98,90.06 7.18,94.19 7.11,98.31 5.8,98.3 4.5,98.29 3.19,98.29 3.46,93.17 2.58,87.91 3.7,82.89 Z" />
      <path
         style="opacity:1;fill:#004f7c"
         inkscape:connector-curvature="0"
         id="path10"
         d="m 37.31,80.39 c 2.98,-1.21 6.48,-1.19 9.51,-0.13 3.41,1.38 3.82,5.56 3.79,8.76 -0.03,3 -0.19,6.77 -3.06,8.52 -2.91,1.5 -6.49,1.42 -9.57,0.53 -3.39,-1.05 -4.2,-4.98 -4.17,-8.08 -0.05,-3.38 -0.04,-7.88 3.5,-9.6 m 2.04,3.14 c -2.33,2.41 -1.55,6.38 -1.15,9.4 0.58,2.55 3.75,2.41 5.77,2.09 2.74,-0.45 2.54,-3.86 2.64,-5.97 -0.16,-1.95 0.15,-4.71 -1.96,-5.72 -1.71,-0.47 -3.67,-0.57 -5.3,0.2 z" />
      <path
         style="opacity:1;fill:#004f7c"
         inkscape:connector-curvature="0"
         id="path12"
         d="m 52.58,79.9 c 1.39,-0.01 2.77,-0.01 4.16,-0.01 0.45,5 1.86,9.84 3.91,14.41 2.56,-4.38 3.61,-9.43 4.19,-14.41 1.38,0 2.75,0 4.13,0.01 -0.46,6.54 -3.02,12.67 -6.05,18.4 -1.42,0 -2.84,0.01 -4.26,0.02 C 55.5,92.63 52.97,86.47 52.58,79.9 Z" />
      <path
         style="opacity:1;fill:#004f7c"
         inkscape:connector-curvature="0"
         id="path14"
         d="m 72.07,79.89 c 1.31,0 2.62,0 3.93,0 0,6.14 0.01,12.27 -0.01,18.41 -1.31,0 -2.62,0 -3.92,-0.01 -0.01,-6.13 -0.02,-12.27 0,-18.4 z" />
      <path
         style="opacity:1;fill:#004f7c"
         inkscape:connector-curvature="0"
         id="path16"
         d="m 82.31,80.39 c 3.03,-1.44 6.47,-0.71 9.67,-0.37 0,0.82 0.02,2.47 0.03,3.29 -2.8,-0.06 -6.21,-1.43 -8.56,0.68 0.09,3.12 4.3,2.83 6.34,4.26 3.78,1.09 4.48,6.61 1.45,8.87 -3.28,2.29 -7.53,1.51 -11.19,0.79 -0.02,-0.85 -0.05,-2.55 -0.07,-3.4 2.99,0.31 8.04,2.38 9.48,-1.42 -1.93,-3.2 -6.8,-2.46 -9.01,-5.44 -1.56,-2.35 -0.76,-6.03 1.86,-7.26 z" />
      <path
         style="opacity:1;fill:#004f7c"
         inkscape:connector-curvature="0"
         id="path18"
         d="m 108.53,79.96 c 3.76,-0.34 8.09,-1.19 11.41,1.15 2.68,2.1 2.03,5.88 2.16,8.87 -0.14,2.41 0.26,5.43 -1.87,7.12 -2.92,2.06 -6.92,1.88 -10.18,0.85 -4.42,-1.42 -4.64,-8.52 -0.53,-10.44 2.74,-1.36 5.88,-0.75 8.8,-0.61 -0.03,-5.36 -6.32,-3.94 -9.82,-3.69 0.01,-0.82 0.02,-2.44 0.03,-3.25 m 1.99,12.01 c -0.45,3.68 4.7,4.15 6.97,2.56 0.77,-1.31 0.5,-2.94 0.75,-4.38 -2.55,-0.01 -6.52,-1.36 -7.72,1.82 z" />
      <path
         style="opacity:1;fill:#004f7c"
         inkscape:connector-curvature="0"
         id="path20"
         d="m 125.65,83.68 c 0.92,-4.14 5.85,-4.31 9.27,-4.2 0.01,0.84 0.02,2.51 0.02,3.35 -1.75,0.39 -4.37,-0.33 -5.31,1.66 -0.58,4.57 -0.1,9.21 -0.27,13.8 -0.99,0.01 -2.98,0.01 -3.97,0.01 0.12,-4.87 -0.35,-9.78 0.26,-14.62 z" />
    </g>
    <g
       transform="translate(0,284.00001)"
       id="#20a5d5ff">
      <path
         style="opacity:1;fill:#20a5d5"
         inkscape:connector-curvature="0"
         id="path23"
         d="m 122.76,17.82 c 5.4,0 10.81,-0.05 16.21,0.04 0.12,2.94 0.12,5.88 -0.01,8.82 -5.4,0.14 -10.8,0.04 -16.2,0.08 -0.04,5.41 0.05,10.82 -0.07,16.23 -2.92,0.1 -5.85,0.09 -8.77,-0.04 -0.07,-5.4 -0.03,-10.79 -0.03,-16.19 2.94,0 5.89,-0.01 8.84,-0.04 0.02,-2.96 0.03,-5.93 0.03,-8.9 z" />
    </g>
  </g>
</svg>
