<?xml version="1.0" encoding="UTF-8" standalone="no"?>
<svg
   xmlns:dc="http://purl.org/dc/elements/1.1/"
   xmlns:cc="http://creativecommons.org/ns#"
   xmlns:rdf="http://www.w3.org/1999/02/22-rdf-syntax-ns#"
   xmlns:svg="http://www.w3.org/2000/svg"
   xmlns="http://www.w3.org/2000/svg"
   xmlns:xlink="http://www.w3.org/1999/xlink"
   xmlns:sodipodi="http://sodipodi.sourceforge.net/DTD/sodipodi-0.dtd"
   xmlns:inkscape="http://www.inkscape.org/namespaces/inkscape"
   width="512"
   height="512"
   version="1.1"
   id="svg40"
   sodipodi:docname="murcia.svg"
   inkscape:version="0.92.4 (5da689c313, 2019-01-14)">
  <metadata
     id="metadata46">
    <rdf:RDF>
      <cc:Work
         rdf:about="">
        <dc:format>image/svg+xml</dc:format>
        <dc:type
           rdf:resource="http://purl.org/dc/dcmitype/StillImage" />
        <dc:title></dc:title>
      </cc:Work>
    </rdf:RDF>
  </metadata>
  <defs
     id="defs44" />
  <sodipodi:namedview
     pagecolor="#ffffff"
     bordercolor="#666666"
     borderopacity="1"
     objecttolerance="10"
     gridtolerance="10"
     guidetolerance="10"
     inkscape:pageopacity="0"
     inkscape:pageshadow="2"
     inkscape:window-width="1920"
     inkscape:window-height="1017"
     id="namedview42"
     showgrid="false"
     inkscape:zoom="0.37866667"
     inkscape:cx="375"
     inkscape:cy="250"
     inkscape:window-x="-8"
     inkscape:window-y="-8"
     inkscape:window-maximized="1"
     inkscape:current-layer="svg40" />
  <g
     id="g873"
     transform="matrix(0.64,0,0,0.64,16,168.32)">
    <rect
       style="fill:#9c1f2d"
       y="12"
       x="0"
       id="rect2"
       height="500"
       width="750" />
    <g
       transform="translate(0,12)"
       style="fill:#fcb714;stroke:#000000;stroke-width:0.6904"
       id="castle">
      <path
         inkscape:connector-curvature="0"
         id="path4"
         d="M 37.391,113.35 52.6,62.616 h 31.178 l 15.209,50.733 H 78.672 V 91.512 L 78.563,90.425 78.454,89.339 78.236,88.361 77.801,87.383 77.366,86.514 76.823,85.645 76.28,84.885 75.628,84.124 74.867,83.363 73.998,82.82 73.129,82.277 72.26,81.842 71.282,81.408 70.304,81.19 69.217,81.081 68.239,80.972 h -0.652 l -0.435,0.109 h -0.544 l -0.543,0.109 -0.978,0.218 -0.978,0.434 -0.869,0.435 -0.869,0.543 -0.869,0.543 -0.652,0.761 -0.761,0.761 -0.543,0.76 -0.543,0.869 -0.435,0.869 -0.435,0.978 -0.218,0.978 -0.109,0.543 v 0.543 l -0.109,0.544 v 22.379 H 37.391" />
      <path
         inkscape:connector-curvature="0"
         id="path6"
         d="m 55.207,42.518 v 9.668 h 4.019 v -18.25 h -10.32 v 8.582 h 6.301" />
      <path
         inkscape:connector-curvature="0"
         id="path8"
         d="m 63.898,52.187 v -9.668 h 8.582 v 9.668 h 0.869 V 27.744 h -10.32 v 24.443 h 0.869" />
      <path
         inkscape:connector-curvature="0"
         id="path10"
         d="m 81.279,52.187 v -9.668 h 6.192 v -8.582 h -10.32 v 18.251 h 4.128" />
      <path
         inkscape:connector-curvature="0"
         id="path12"
         d="m 55.207,42.518 v 9.668 h 8.691 v -9.668 h 8.582 v 9.668 h 8.799 v -9.668 h 8.582 v 16.73 H 46.625 v -16.73 h 8.582" />
      <path
         style="stroke-width:0.75"
         inkscape:connector-curvature="0"
         id="path14"
         d="M 46.408,32.975 H 61.725 V 27.217 H 46.408 Z" />
      <path
         style="stroke-width:0.75"
         inkscape:connector-curvature="0"
         id="path16"
         d="M 60.53,26.783 H 75.847 V 20.808 H 60.53 Z" />
      <path
         style="stroke-width:0.75"
         inkscape:connector-curvature="0"
         id="path18"
         d="M 74.653,32.975 H 90.079 V 27.217 H 74.653 Z" />
    </g>
    <use
       height="100%"
       width="100%"
       y="0"
       id="use21"
       x="72.597"
       xlink:href="#castle" />
    <use
       height="100%"
       width="100%"
       x="0"
       id="use23"
       y="106.21344"
       xlink:href="#castle" />
    <use
       height="100%"
       width="100%"
       id="use25"
       y="106.21344"
       x="72.597"
       xlink:href="#castle" />
    <path
       style="fill:#fcb714;stroke:#000000;stroke-width:0.6983;stroke-linejoin:round"
       inkscape:connector-curvature="0"
       d="m 609.33,381.29 c -0.012,-1.7832 -0.67184,-3.4793 -1.3103,-5.1284 -1.1443,-2.5127 -2.6204,-4.8721 -4.2565,-7.0929 1.582,0.55929 3.2377,0.96325 4.7996,1.5895 1.3396,0.71535 2.7603,1.3123 3.9123,2.3276 0.62399,0.49634 1.2605,1.1102 1.5458,1.8665 0.0708,0.77814 0.0259,1.6789 -0.76401,2.0754 -0.48994,0.5491 -1.1815,0.78626 -1.8566,0.98173 0.0885,0.89734 0.50733,1.7398 0.97814,2.4706 0.87447,0.7544 1.9995,1.0486 3.1373,0.9131 1.6285,-0.20029 3.0878,-1.2096 3.9327,-2.6076 0.50637,-0.76272 0.70144,-1.2946 1.0713,-0.11709 0.49287,0.71229 1.095,1.4026 1.7684,1.9642 1.1426,0.82727 2.592,1.0626 3.9742,0.97819 0.83045,-0.0147 1.7707,-0.23689 2.4435,-0.6581 0.78746,-0.73422 0.70645,-2.0173 0.38179,-2.9614 -0.40756,-0.54518 -1.2922,-0.78625 -1.9806,-0.53218 -0.6401,-0.13764 -1.8473,0.79009 -1.165,-0.34002 0.10845,-0.82753 0.71817,-1.5482 1.2832,-2.1297 0.45723,-0.43032 1.2098,-0.66829 1.6436,-0.80403 0.67582,-1.2104 1.2852,-2.6979 2.6206,-3.2748 1.0544,-0.054 1.7657,0.99264 2.3485,1.7488 0.41619,0.50952 0.53732,1.6216 1.1904,1.6359 0.95477,0.30703 1.8445,1.012 2.2374,1.9463 0.19354,0.40725 1.117,1.8687 0.19614,1.389 -0.73468,-0.13896 -1.5285,-0.38955 -2.2582,-0.17133 -0.79159,0.20992 -1.0343,0.93124 -0.98375,1.6833 -0.12017,0.97177 0.39548,2.0008 1.429,2.179 1.1182,0.36839 2.372,0.39719 3.5099,0.17155 1.0781,-0.1781 2.0733,-0.65105 2.79,-1.4988 0.68623,-0.60132 1.1504,-1.431 1.5502,-2.2034 0.62504,1.1222 1.379,2.3536 2.591,2.9525 1.3676,0.79859 3.2331,0.97423 4.6128,0.10455 0.91444,-0.62886 1.2726,-1.7757 1.4202,-2.8384 -0.75003,-0.17593 -1.3738,-0.56081 -1.9597,-1.0506 -1.1772,-0.7659 -0.61857,-2.4599 0.23319,-3.2741 0.99263,-0.98149 2.2026,-1.7927 3.4929,-2.3546 1.1372,-0.51489 2.2338,-1.1363 3.4832,-1.3695 0.81611,-0.3196 1.6561,-0.5566 2.4984,-0.79187 -1.0728,1.3254 -1.9221,2.8462 -2.8976,4.254 -0.97156,1.8806 -2.0636,3.7482 -2.4204,5.8682 -0.48206,1.8959 -0.15196,3.88 -0.24891,5.8184 v 8.1743 h -44.954 v -11.894"
       id="crown" />
    <use
       height="100%"
       width="100%"
       id="use28"
       y="31.532"
       x="-61.868999"
       xlink:href="#crown" />
    <use
       height="100%"
       width="100%"
       x="0"
       id="use30"
       y="31.532"
       xlink:href="#crown" />
    <use
       height="100%"
       width="100%"
       id="use32"
       y="31.532"
       x="61.865002"
       xlink:href="#crown" />
    <use
       height="100%"
       width="100%"
       id="use34"
       y="63.394001"
       x="-33.952"
       xlink:href="#crown" />
    <use
       height="100%"
       width="100%"
       id="use36"
       y="63.394001"
       x="33.933998"
       xlink:href="#crown" />
    <use
       height="100%"
       width="100%"
       x="0"
       id="use38"
       y="94.927002"
       xlink:href="#crown" />
  </g>
  <g
     id="g881"
     transform="matrix(2.1298858,0,0,2.1298858,-152.93808,-9.558633)">
    <path
       d="m 192.31714,13.16987 c 3.79,-1.73 8.56,-1.64 11.9,1.01 4.66,3.61 6.44,9.56 7.91,15.02 2.42,10.61 2.7,21.87 0.19,32.49 -0.75,3.77 -6.02,6.66 -8.88,3.25 -2.59,-3.98 -0.63,-9 -0.59,-13.39 0.08,-4.33 1.3,-9.53 -1.73,-13.14 -2.89,-2.75 -6.81,-0.01 -8.58,2.64 -5.7,8.11 -6.89,18.29 -10.9,27.18 -5.03,10.65 -22.01,11.82 -28.73,2.25 -4.35,-6.18 -7.49,-13.12 -11.62,-19.44 -1,-1.35 -2.43,-3.18 -4.35,-2.69 -2.43,0.31 -3.06,3.1 -2.98,5.14 0.21,7.24 4.01,13.78 4.8,20.92 0.4,2.73 -1.96,5.56 -4.82,5.02 -3.29,-0.22 -4.75,-3.64 -5.84,-6.27 -3.87,-10.31 -6.35,-21.56 -4.36,-32.56 1.12,-6.29 2.98,-12.98 7.85,-17.45 4.35,-4.05 11.78,-4.66 16.37,-0.66 6.37,5.22 9.19,13.35 14.63,19.35 3.33,3.84 10.21,3.78 12.79,-0.88 3.53,-6.71 5.49,-14.17 9.22,-20.79 1.81,-3.01 4.48,-5.57 7.72,-7 z"
       id="path2"
       inkscape:connector-curvature="0"
       style="opacity:1;fill:#004f7c" />
    <path
       d="m 235.82714,12.05987 c 2.94,-0.09 5.89,-0.08 8.83,0.04 0,5.41 -0.01,10.81 0.01,16.22 0,2.97 -0.01,5.94 -0.03,8.9 -2.95,0.03 -5.9,0.04 -8.84,0.04 -5.38,-0.02 -10.76,0.01 -16.14,-0.03 -0.16,-2.96 -0.16,-5.92 -0.07,-8.88 5.4,-0.08 10.79,-0.01 16.19,-0.05 0.03,-5.41 -0.03,-10.82 0.05,-16.24 z"
       id="path4-2"
       inkscape:connector-curvature="0"
       style="opacity:1;fill:#004f7c" />
    <g
       transform="translate(121.90714,10.49987)"
       id="#20a5d5ff">
      <path
         style="opacity:1;fill:#20a5d5"
         inkscape:connector-curvature="0"
         id="path23"
         d="m 122.76,17.82 c 5.4,0 10.81,-0.05 16.21,0.04 0.12,2.94 0.12,5.88 -0.01,8.82 -5.4,0.14 -10.8,0.04 -16.2,0.08 -0.04,5.41 0.05,10.82 -0.07,16.23 -2.92,0.1 -5.85,0.09 -8.77,-0.04 -0.07,-5.4 -0.03,-10.79 -0.03,-16.19 2.94,0 5.89,-0.01 8.84,-0.04 0.02,-2.96 0.03,-5.93 0.03,-8.9 z" />
    </g>
  </g>
</svg>
