<?xml version="1.0" encoding="UTF-8" standalone="no"?>
<svg
   xmlns:dc="http://purl.org/dc/elements/1.1/"
   xmlns:cc="http://creativecommons.org/ns#"
   xmlns:rdf="http://www.w3.org/1999/02/22-rdf-syntax-ns#"
   xmlns:svg="http://www.w3.org/2000/svg"
   xmlns="http://www.w3.org/2000/svg"
   xmlns:sodipodi="http://sodipodi.sourceforge.net/DTD/sodipodi-0.dtd"
   xmlns:inkscape="http://www.inkscape.org/namespaces/inkscape"
   viewBox="0 0 512.00002 512"
   version="1.1"
   id="svg186"
   sodipodi:docname="valencia.svg"
   width="512"
   height="512"
   inkscape:version="0.92.4 (5da689c313, 2019-01-14)">
  <metadata
     id="metadata192">
    <rdf:RDF>
      <cc:Work
         rdf:about="">
        <dc:format>image/svg+xml</dc:format>
        <dc:type
           rdf:resource="http://purl.org/dc/dcmitype/StillImage" />
        <dc:title></dc:title>
      </cc:Work>
    </rdf:RDF>
  </metadata>
  <defs
     id="defs190" />
  <sodipodi:namedview
     pagecolor="#ffffff"
     bordercolor="#666666"
     borderopacity="1"
     objecttolerance="10"
     gridtolerance="10"
     guidetolerance="10"
     inkscape:pageopacity="0"
     inkscape:pageshadow="2"
     inkscape:window-width="1920"
     inkscape:window-height="1017"
     id="namedview188"
     showgrid="false"
     inkscape:zoom="0.22253566"
     inkscape:cx="638.09998"
     inkscape:cy="423.5"
     inkscape:window-x="-8"
     inkscape:window-y="-8"
     inkscape:window-maximized="1"
     inkscape:current-layer="svg186" />
  <style
     type="text/css"
     id="style2">  
	.st0{fill:#FCDD09;}
	.st1{fill:#0072BC;}
	.st2{fill:#DA121A;}
	.st3{fill:#FCDD09;stroke:#000000;}
	.st4{fill:none;stroke:#000000;}
	.st5{fill:#FFFFFF;stroke:#000000;}
	.st6{fill:#DA121A;stroke:#000000;}
	.st7{fill:#078930;stroke:#000000;}
</style>
  <g
     id="g1090"
     transform="matrix(0.37611697,0,0,0.37585137,15.999761,302.66205)">
    <rect
       style="fill:#fcdd09"
       y="-335"
       x="0"
       id="rect4"
       height="847"
       width="1276.2"
       class="st0" />
    <rect
       style="fill:#0072bc"
       y="-335"
       x="0"
       id="rect6"
       height="847"
       width="425.39999"
       class="st1" />
    <polygon
       transform="translate(0,-335)"
       style="fill:#da121a"
       id="polygon8"
       points="426,658.7 426,564.7 1276.2,564.7 1276.2,470.6 426,470.6 426,376.4 1276.2,376.4 1276.2,282.3 426,282.3 426,188.3 1276.2,188.3 1276.2,94.2 426,94.2 426,0 331.8,0 331.8,847 426,847 426,752.8 1276.2,752.8 1276.2,658.7 "
       class="st2" />
    <path
       style="fill:#fcdd09;stroke:#000000"
       inkscape:connector-curvature="0"
       id="path10"
       d="m 194.2,437.3 c 0,0 -38.6,85.3 -55.8,44.4 0,0 4.9,1.9 8.7,-1.9 3.4,-3.4 3,-6.6 -0.9,-11.3 -4.2,-5.1 -16.3,-2.8 -18.7,3.2 -5.5,14 7.6,32.5 19.5,31.6 31.4,-2.1 34.8,-35.7 55.6,-64.3 1.2,-1.9 -8.4,-1.7 -8.4,-1.7 z"
       class="st3" />
    <path
       style="fill:#fcdd09;stroke:#000000"
       inkscape:connector-curvature="0"
       id="path12"
       d="m 194.9,339.2 c 0,0 -38.6,-85.3 -55.8,-44.4 0,0 4.9,-1.9 8.7,1.9 3.4,3.4 3,6.6 -0.9,11.3 -4.2,5.1 -16.3,2.8 -18.7,-3.2 -5.5,-14 7.6,-32.3 19.5,-31.6 31.4,2.1 34.8,35.7 55.6,64.3 1.1,1.7 -8.4,1.7 -8.4,1.7 z"
       class="st3" />
    <path
       style="fill:#fcdd09;stroke:#000000"
       inkscape:connector-curvature="0"
       id="path14"
       d="m 324.4,359.2 c -5.5,10.6 -50.9,28 -50.9,28 0,0 44.2,16.8 50.3,28 l 0.6,16.4 c -22.5,-30.6 -45,-33.5 -62.4,-34.4 -12.3,-0.6 -11.2,6.6 -8.9,9.5 20.2,25.7 -5.9,33.1 -9.8,54.4 -0.2,1.1 -3.2,-3.6 -4.2,-9.8 -0.6,-4 0.6,-10 0.6,-10 -9.1,14.9 -20.4,3 -27.4,18 0,0 -1.5,-2.3 -2.3,-3 -2.1,-1.9 -8.5,-0.9 -9.5,-17.8 0,-0.6 -7.4,1.3 -7.4,1.3 4.2,-14 39.9,-29.5 30.6,-38.8 -10.6,-10.2 -11.3,21.9 -27.8,24.2 -0.9,0.2 2.5,-9.3 2.5,-9.3 -7.8,0.4 -11.2,9.3 -11.9,14.6 l -1.9,-4.9 c -7.4,-4.2 1.9,-25.1 -1.5,-28.7 -2.6,-2.8 -11.5,8.7 -15.3,10.6 -3.8,1.9 -25.3,1.9 -14.7,14.9 0.8,1.1 -2.1,-5.9 2.8,-6.8 5.5,-0.9 5.3,5.5 5.3,6 0,2.6 -4.9,9.3 -12.7,5.5 -0.4,-0.2 -14.7,-10.6 4,-25.3 0,0 -11.5,7 -23.4,-5.5 -2.6,-2.6 -6,-6 -10.2,-8.7 4.2,-2.6 7.2,-5.7 9.8,-8.5 12.1,-12.5 23.4,-5.7 23.4,-5.7 -18.7,-14.7 -4.5,-25.1 -4,-25.3 7.6,-3.8 12.5,2.8 12.7,5.5 0,0.6 0.2,7 -5.3,6 -4.9,-0.9 -2.1,-7.8 -2.8,-6.8 -10.6,13 11,13 14.9,14.9 3.8,1.9 12.7,13.4 15.3,10.6 3.4,-3.6 -5.9,-24.6 1.5,-28.7 l 1.7,-4.9 c 0.9,5.3 4.3,14.2 12.1,14.6 0,0 -3.4,-9.5 -2.5,-9.3 16.4,2.1 17.4,34.4 27.8,24 9.3,-9.1 -26.5,-24.6 -30.6,-38.6 0,0 7.4,1.9 7.4,1.3 0.9,-17 7.4,-16.1 9.3,-18 0.8,-0.8 2.1,-3 2.1,-3 7,14.9 18.5,2.8 27.4,17.8 0,0 -1.3,-6 -0.8,-10 0.9,-6.2 4,-10.8 4.2,-9.8 4.2,21.4 30.2,28.5 10,54.3 -2.3,2.8 -3.4,10.2 9.1,9.5 17.4,-0.9 39.9,-4 62.2,-34.6 z"
       class="st3" />
    <path
       style="fill:none;stroke:#000000"
       inkscape:connector-curvature="0"
       id="path16"
       d="m 184.5,425.4 c 2.5,-20.8 20,-27.6 19.7,-37.8 -0.4,-10.2 -18.1,-20.8 -20.2,-38.2 m 25.1,106.3 C 195.3,427 239.7,417.3 238.4,387.6 237.1,359.4 194.9,347 208.9,319.2 m 64.1,68 H 118.7"
       class="st4" />
    <path
       style="fill:#fcdd09;stroke:#000000"
       inkscape:connector-curvature="0"
       id="path18"
       d="m 259,228.2 c -4.9,-13.4 -19.1,-17.2 -27.2,-17.4 -9.1,-0.4 -23.3,12.1 -32,17.4 -7.8,4.7 -21.7,-1.5 -24,-7 -4.9,-12.1 2.8,-14.4 6.6,-13.8 0,0 -4.5,8.7 3,7.6 4.7,-0.8 6,-7.8 5.3,-10.6 -1.5,-5.7 -9.6,-5.1 -12.9,-4.2 -10.4,3 -8.7,17.6 -5.1,23.1 5.1,8.3 18,9.5 26.1,8.3 12.5,-1.9 22.5,-14.6 29.9,-14.2 1.9,0 4,6.8 2.1,7.2 -12.5,2.3 -10.8,11.2 -10.8,11.2 v 0.2 c 0,0 -1.7,8.7 10.8,11.2 1.9,0.4 -0.6,7.4 -2.5,7.4 -7.4,0.4 -17,-12.7 -29.5,-14.4 -8.1,-1.1 -21,0 -26.1,8.3 -3.4,5.5 -5.1,20 5.1,23.1 3.2,0.9 11.2,1.5 12.9,-4.2 0.8,-2.8 -0.4,-10 -5.3,-10.6 -7.6,-1.1 -3,7.6 -3,7.6 -3.8,0.8 -11.5,-1.7 -6.6,-13.8 2.3,-5.5 16.3,-11.7 24,-7 8.7,5.5 22.9,17.8 32,17.4 8.1,-0.4 22.3,-4 27.2,-17.4 v -15.6 0 z"
       class="st3" />
    <path
       style="fill:#fcdd09;stroke:#000000"
       inkscape:connector-curvature="0"
       id="path20"
       d="m 321.6,219.3 c -1.7,8.9 -24.2,16.6 -24.2,16.6 0,0 22.1,11.5 25.1,20.8 l -0.6,10.8 c -7.2,-24.4 -34.6,-26.3 -34.6,-26.3 5.9,8.3 11,19.7 -3,31 0,0 4.2,-10.6 2.1,-13 0,0 -1.9,6.6 -9.8,12.7 -3.2,2.5 -12.1,2.1 -16.1,4.5 l 3.4,-10.8 c -4.2,8.7 -15.9,9.8 -15.9,9.8 -0.8,-3 -0.4,-10.2 3.2,-15.7 6.8,-10.4 5.3,-18 5.3,-18 -5.9,13 -29.1,14.2 -33.5,11 -0.6,-0.4 5.1,-6 5.1,-6 -2.1,0.4 -7.9,-3.8 -7.8,-4.9 0.2,-1.7 4,-5.3 4.7,-6.4 0,0 -4.3,-3.6 -4.5,-5.3 -0.2,-1.1 5.7,-5.3 7.8,-4.9 0,0 -5.9,-5.7 -5.1,-6 4.3,-3.2 27.6,-2.1 33.5,11 0,0 1.7,-7.4 -5.1,-18 -3.6,-5.5 -4,-12.9 -3.4,-15.7 0,0 11.9,1.1 15.9,9.8 l -3.4,-10.8 c 4,2.3 12.9,1.9 16.1,4.5 7.9,6 9.8,12.7 9.8,12.7 2.1,-2.5 -2.1,-13 -2.1,-13 14,11.3 8.9,22.7 3,31 0,0 27.6,-1.9 34.6,-26.3 z"
       class="st3" />
    <path
       style="fill:#fcdd09;stroke:#000000"
       inkscape:connector-curvature="0"
       id="path22"
       d="m 191.3,238.8 c -7.6,0.2 -18,5.5 -27.4,4.2 -6.8,-0.9 -18.9,-9.1 -18.9,-9.1 0,0 12.3,-6.4 18.5,-7.8 10,-2.3 20,6.4 27.6,6.6 1.6,0 1.7,6.1 0.2,6.1 z"
       class="st3" />
    <path
       style="fill:#fcdd09;stroke:#000000"
       inkscape:connector-curvature="0"
       id="path24"
       d="m 191.5,223.7 c 4.2,-0.9 3.4,12.1 3.4,12.1 0,1.7 0.6,11.3 -3.4,12.1 -4.5,-0.6 -3.2,-12.1 -3.2,-12.1 0,0 -0.6,-12.3 3.2,-12.1 z"
       class="st3" />
    <path
       style="fill:#fcdd09;stroke:#000000"
       inkscape:connector-curvature="0"
       id="path26"
       d="M 219.7,235.4 298,236 m -34.4,31 11.2,-31.2 m -0.1,0 -11,-30.6"
       class="st3" />
    <path
       style="fill:#fcdd09;stroke:#000000"
       inkscape:connector-curvature="0"
       id="path28"
       d="m 194.9,134.8 c 0,0 -38.6,85.3 -55.8,44.4 0,0 4.9,1.9 8.7,-1.9 3.4,-3.4 3,-6.6 -0.9,-11.3 -4.2,-5.1 -16.3,-2.8 -18.7,3.2 -5.5,14 7.6,32.5 19.5,31.6 31.4,-2.1 34.8,-35.7 55.6,-64.3 1.1,-1.9 -8.4,-1.7 -8.4,-1.7 z"
       class="st3" />
    <path
       style="fill:#fcdd09;stroke:#000000"
       inkscape:connector-curvature="0"
       id="path30"
       d="m 195.5,36.7 c 0,0 -38.6,-85.3 -55.8,-44.4 0,0 4.9,-1.9 8.7,1.9 3.4,3.4 3,6.6 -0.9,11.3 -4.2,5.1 -16.3,2.8 -18.7,-3.2 -5.5,-14 7.6,-32.3 19.5,-31.6 31.4,2.1 34.8,35.7 55.6,64.3 1,1.9 -8.4,1.7 -8.4,1.7 z"
       class="st3" />
    <path
       style="fill:#fcdd09;stroke:#000000"
       inkscape:connector-curvature="0"
       id="path32"
       d="m 325,56.7 c -5.5,10.6 -50.9,28 -50.9,28 0,0 44.2,16.8 50.3,28 l 0.6,16.4 C 302.5,98.5 280,95.6 262.6,94.7 c -12.3,-0.6 -11.2,6.6 -8.9,9.5 20.2,25.7 -5.9,33.1 -9.8,54.4 -0.2,1.1 -3.2,-3.6 -4.2,-9.8 -0.6,-4 0.6,-10 0.6,-10 -9.1,14.9 -20.4,3 -27.4,18 0,0 -1.5,-2.3 -2.3,-3 -2.1,-1.9 -8.5,-0.9 -9.5,-17.8 0,-0.6 -7.4,1.3 -7.4,1.3 4.2,-14 39.9,-29.5 30.6,-38.8 -10.6,-10.2 -11.3,21.9 -27.8,24.2 -0.9,0.2 2.5,-9.3 2.5,-9.3 -7.8,0.4 -11.2,9.3 -11.9,14.6 l -1.9,-4.9 c -7.4,-4.2 1.9,-25.1 -1.5,-28.7 -2.6,-2.8 -11.5,8.7 -15.3,10.6 -3.8,1.9 -25.3,1.9 -14.7,14.9 0.8,1.1 -2.1,-5.9 2.8,-6.8 5.5,-0.9 5.3,5.5 5.3,6 0,2.6 -4.9,9.3 -12.7,5.5 -0.4,-0.2 -14.7,-10.6 4,-25.5 0,0 -11.5,7 -23.4,-5.5 -2.6,-2.6 -6,-6 -10.2,-8.7 4.2,-2.6 7.2,-5.7 9.8,-8.5 12.1,-12.7 23.4,-5.7 23.4,-5.7 -18.7,-14.7 -4.5,-25.1 -4,-25.3 7.6,-3.8 12.5,2.8 12.7,5.5 0,0.6 0.2,7 -5.3,6 -4.9,-0.9 -2.1,-7.8 -2.8,-6.8 -10.6,13 11,13 14.9,14.9 3.8,1.9 12.7,13.4 15.3,10.6 3.4,-3.6 -6,-24.6 1.5,-28.7 l 1.7,-4.9 c 0.9,5.3 4.3,14.2 12.1,14.6 0,0 -3.4,-9.5 -2.5,-9.3 16.4,2.1 17.4,34.4 27.8,24 9.3,-9.1 -26.5,-24.6 -30.6,-38.6 0,0 7.4,1.9 7.4,1.3 0.9,-17 7.4,-16.1 9.3,-18 0.8,-0.8 2.1,-3 2.1,-3 7,14.9 18.5,2.8 27.4,17.8 0,0 -1.3,-6 -0.8,-10 0.9,-6.2 4,-10.8 4.2,-9.8 4.2,21.4 30.2,28.5 10,54.3 -2.3,2.8 -3.4,10 9.1,9.5 17.4,-0.9 39.9,-4 62.2,-34.6 z"
       class="st3" />
    <path
       style="fill:none;stroke:#000000"
       inkscape:connector-curvature="0"
       id="path34"
       d="m 185.3,122.9 c 2.5,-20.8 20,-27.6 19.7,-37.8 -0.4,-10.2 -18.1,-20.8 -20.2,-38.2 m 24.9,106.3 C 195.9,124.5 240.3,114.8 239,85.1 237.7,56.9 195.5,44.5 209.5,16.7 m 64.1,68.2 H 119.3"
       class="st4" />
    <path
       style="fill:#fcdd09;stroke:#000000"
       inkscape:connector-curvature="0"
       id="path36"
       d="m 193.6,-164.5 c 0,0 -38.6,85.3 -55.8,44.4 0,0 4.9,1.9 8.7,-1.9 3.4,-3.4 3,-6.6 -0.9,-11.3 -4.2,-5.1 -16.3,-2.8 -18.7,3.2 -5.5,14 7.6,32.5 19.5,31.6 31.4,-2.1 34.8,-35.7 55.6,-64.3 1.1,-1.9 -8.4,-1.7 -8.4,-1.7 z"
       class="st3" />
    <path
       style="fill:#fcdd09;stroke:#000000"
       inkscape:connector-curvature="0"
       id="path38"
       d="m 194.2,-262.6 c 0,0 -38.6,-85.3 -55.8,-44.4 0,0 4.9,-1.9 8.7,1.9 3.4,3.4 3,6.6 -0.9,11.3 -4.2,5.1 -16.3,2.8 -18.7,-3.2 -5.5,-14 7.6,-32.5 19.5,-31.6 31.2,2.3 34.8,35.7 55.6,64.5 1.2,1.7 -8.4,1.5 -8.4,1.5 z"
       class="st3" />
    <path
       style="fill:#fcdd09;stroke:#000000"
       inkscape:connector-curvature="0"
       id="path40"
       d="m 323.7,-242.5 c -5.5,10.6 -50.9,28 -50.9,28 0,0 44.2,16.8 50.3,28 l 0.6,16.4 c -22.5,-30.6 -45,-33.5 -62.4,-34.4 -12.5,-0.6 -11.2,6.6 -8.9,9.5 20.2,25.7 -5.9,33.1 -9.8,54.4 -0.2,1.1 -3.2,-3.6 -4.2,-9.8 -0.6,-4 0.6,-10 0.6,-10 -9.1,14.9 -20.4,3 -27.4,17.8 0,0 -1.5,-2.3 -2.3,-3 -2.1,-1.9 -8.5,-0.9 -9.5,-17.8 0,-0.6 -7.4,1.3 -7.4,1.3 4.2,-14 39.9,-29.5 30.6,-38.8 -10.6,-10.2 -11.3,21.9 -27.8,24.2 -0.9,0.2 2.5,-9.3 2.5,-9.3 -7.8,0.4 -11.2,9.3 -11.9,14.6 l -1.9,-4.9 c -7.4,-4.2 1.7,-25.1 -1.5,-28.7 -2.6,-2.8 -11.5,8.7 -15.3,10.6 -3.8,1.9 -25.3,1.9 -14.7,14.9 0.8,1.1 -2.1,-5.9 2.8,-6.8 5.5,-0.9 5.3,5.5 5.3,6 0,2.6 -4.9,9.3 -12.7,5.5 -0.4,-0.2 -14.7,-10.6 4,-25.5 0,0 -11.5,7 -23.4,-5.5 -2.6,-2.6 -6,-6 -10.2,-8.7 4.2,-2.6 7.2,-5.7 9.8,-8.5 12.1,-12.5 23.4,-5.7 23.4,-5.7 -18.7,-14.7 -4.5,-25.1 -4,-25.3 7.8,-3.8 12.5,2.8 12.7,5.5 0,0.6 0.2,7 -5.3,6 -4.9,-0.9 -2.1,-7.8 -2.8,-6.8 -10.6,13 11,13 14.9,14.9 3.8,1.9 12.7,13.4 15.3,10.6 3.4,-3.6 -5.9,-24.6 1.5,-28.7 l 1.7,-4.9 c 0.9,5.3 4.3,14.2 12.1,14.6 0,0 -3.4,-9.5 -2.5,-9.3 16.4,2.1 17.4,34.4 27.8,24 9.3,-9.1 -26.5,-24.6 -30.6,-38.6 0,0 7.4,1.9 7.4,1.3 0.9,-17 7.4,-16.1 9.3,-18 0.8,-0.8 2.1,-3 2.1,-3 7,14.9 18.5,2.8 27.4,17.8 0,0 -1.3,-6 -0.8,-10 0.9,-6.2 4,-10.8 4.2,-9.8 4.2,21.4 30.2,28.5 10,54.3 -2.3,2.8 -3.4,10.2 9.1,9.5 17.4,-0.9 39.9,-4 62.2,-34.6 z"
       class="st3" />
    <path
       style="fill:none;stroke:#000000"
       inkscape:connector-curvature="0"
       id="path42"
       d="m 184,-176.4 c 2.5,-20.8 20,-27.6 19.7,-37.8 -0.4,-10.2 -18.1,-20.8 -20.2,-38.2 m 25,106.3 c -13.8,-28.7 30.6,-38.4 29.3,-68.1 -1.3,-28.2 -43.5,-40.6 -29.5,-68.4 m 64.1,68.2 H 118.2"
       class="st4" />
    <path
       style="fill:#fcdd09;stroke:#000000"
       inkscape:connector-curvature="0"
       id="path44"
       d="m 258.3,-72.4 c -4.9,-13.4 -19.1,-17.2 -27.2,-17.4 -9.1,-0.4 -23.3,12.1 -32,17.4 -7.8,4.7 -21.7,-1.5 -24,-7 -4.9,-12.1 2.8,-14.4 6.6,-13.8 0,0 -4.5,8.7 3,7.6 4.7,-0.8 6,-7.8 5.1,-10.6 -1.5,-5.7 -9.5,-5.1 -12.7,-4.2 -10.4,3 -8.7,17.6 -5.1,23.1 5.1,8.3 18,9.5 26.1,8.3 12.3,-1.9 22.5,-14.6 29.9,-14.2 1.9,0 4,6.8 2.1,7.2 -12.5,2.3 -10.8,11.2 -10.8,11.2 v 0.2 c 0,0 -1.7,8.7 10.8,11 1.9,0.4 -0.6,7.4 -2.5,7.4 -7.4,0.4 -17,-12.7 -29.5,-14.4 -8.1,-1.1 -21,0 -26.1,8.3 -3.4,5.5 -5.1,20 5.1,23.1 3.2,0.9 11.2,1.5 12.9,-4.2 0.8,-2.8 -0.4,-10 -5.1,-10.6 -7.6,-1.1 -3,7.6 -3,7.6 -3.8,0.8 -11.5,-1.7 -6.6,-13.8 2.3,-5.5 16.3,-11.7 24,-7 8.7,5.3 22.9,17.8 32,17.4 8.1,-0.4 22.3,-4 27.2,-17.4 v -15.1 h -0.2 z"
       class="st3" />
    <path
       style="fill:#fcdd09;stroke:#000000"
       inkscape:connector-curvature="0"
       id="path46"
       d="m 321,-81.3 c -1.7,8.9 -24.2,16.6 -24.2,16.6 0,0 22.1,11.5 25.1,20.8 l -0.6,10.8 c -7.2,-24.4 -34.6,-26.3 -34.6,-26.3 5.9,8.3 11,19.7 -3,31 0,0 4.2,-10.6 2.1,-13 0,0 -1.9,6.6 -9.8,12.7 -3.2,2.6 -12.1,2.1 -16.1,4.5 l 3.4,-10.8 c -4.2,8.7 -15.9,9.8 -15.9,9.8 -0.8,-3 -0.4,-10.2 3.4,-15.7 6.8,-10.4 5.1,-18 5.1,-18 -5.9,13 -29.1,14.2 -33.5,11 -0.6,-0.4 5.1,-6 5.1,-6 -2.1,0.4 -7.9,-3.8 -7.8,-4.9 0.2,-1.7 4,-5.3 4.7,-6.4 0,0 -4.3,-3.6 -4.5,-5.3 -0.2,-1.1 5.7,-5.3 7.8,-4.9 0,0 -5.9,-5.7 -5.1,-6 4.3,-3.2 27.6,-2.1 33.5,11 0,0 1.7,-7.4 -5.3,-18 -3.6,-5.5 -4,-12.9 -3.2,-15.7 0,0 11.9,1.1 15.9,9.8 l -3.4,-10.8 c 4,2.3 12.9,1.9 16.1,4.5 7.9,6 9.8,12.7 9.8,12.7 2.1,-2.5 -2.1,-13 -2.1,-13 14,11.3 8.9,22.7 3,31 0,0 27.6,-1.9 34.6,-26.3 z"
       class="st3" />
    <path
       style="fill:#fcdd09;stroke:#000000"
       inkscape:connector-curvature="0"
       id="path48"
       d="m 190.8,-61.6 c -7.6,0.2 -18,5.5 -27.4,4.2 -6.8,-0.9 -18.9,-9.1 -18.9,-9.1 0,0 12.3,-6.4 18.5,-7.8 10,-2.3 20,6.4 27.6,6.6 1.3,0 1.7,5.9 0.2,6.1 z"
       class="st3" />
    <path
       style="fill:#fcdd09;stroke:#000000"
       inkscape:connector-curvature="0"
       id="path50"
       d="m 191,-76.9 c 4.2,-0.9 3.4,11.9 3.4,11.9 0,1.9 0.6,11.3 -3.4,12.1 -4.5,-0.6 -3.2,-12.1 -3.2,-12.1 0,0 -0.6,-12.1 3.2,-11.9 z"
       class="st3" />
    <path
       style="fill:#fcdd09;stroke:#000000"
       inkscape:connector-curvature="0"
       id="path52"
       d="m 219.1,-65 78.3,0.6 m -34.6,30.8 11.2,-31.2 m 0.1,0 -11,-30.6"
       class="st3" />
    <path
       style="fill:#fcdd09;stroke:#000000"
       inkscape:connector-curvature="0"
       id="path54"
       d="m 323.3,326.1 c -7.8,-20.8 -35.7,-18.5 -35.7,-18.5 0,0 28,0.2 35.2,-24.2 z"
       class="st3" />
    <path
       style="fill:#fcdd09;stroke:#000000"
       inkscape:connector-curvature="0"
       id="path56"
       d="m 323.3,450.4 c -7.8,20.8 -35.7,18.5 -35.7,18.5 0,0 28,-0.2 35.2,24.2 z"
       class="st3" />
    <path
       style="fill:#fcdd09;stroke:#000000"
       inkscape:connector-curvature="0"
       id="path58"
       d="m 258.8,469.5 c 0,0 11.5,9.3 19.3,7.4 0,0 -8.9,8.5 -1.5,15.3 0,0 2.3,-8.9 12.9,-10.4 8.9,-1.3 12.5,-8.7 12.5,-12.3 v 0.2 c 0.2,-3.6 -3.4,-10.8 -12.5,-12.3 -10.6,-1.7 -12.9,-10.4 -12.9,-10.4 -7.4,6.6 1.5,15.3 1.5,15.3 -7.7,-1.9 -19.3,7.2 -19.3,7.2 z"
       class="st3" />
    <path
       style="fill:#fcdd09;stroke:#000000"
       inkscape:connector-curvature="0"
       id="path60"
       d="m 322.3,146.3 c -7.8,20.8 -35.7,18.5 -35.7,18.5 0,0 28,-0.2 35.2,24.2 z"
       class="st3" />
    <path
       style="fill:#fcdd09;stroke:#000000"
       inkscape:connector-curvature="0"
       id="path62"
       d="M 323.3,25.9 C 315.5,5.1 287.6,7.4 287.6,7.4 c 0,0 28,0.2 35.2,-24.2 z"
       class="st3" />
    <path
       style="fill:#fcdd09;stroke:#000000"
       inkscape:connector-curvature="0"
       id="path64"
       d="m 323.3,-155.8 c -7.8,20.8 -35.7,18.5 -35.7,18.5 0,0 28,-0.2 35.2,24.2 z"
       class="st3" />
    <path
       style="fill:#fcdd09;stroke:#000000"
       inkscape:connector-curvature="0"
       id="path66"
       d="m 323.3,-275.3 c -7.8,-20.8 -35.7,-18.5 -35.7,-18.5 0,0 28,0.2 35.2,-24.2 z"
       class="st3" />
    <rect
       style="fill:#fcdd09;stroke:#000000"
       id="rect68"
       height="850.40002"
       width="10.4"
       class="st3"
       y="-336.5"
       x="321.39999" />
    <path
       style="fill:#fcdd09;stroke:#000000"
       inkscape:connector-curvature="0"
       id="path70"
       d="m 259.4,306.3 c 0,0 11.5,9.3 19.3,7.4 0,0 -8.9,8.5 -1.5,15.3 0,0 2.3,-8.9 12.9,-10.4 8.9,-1.3 12.5,-8.7 12.5,-12.3 v 0.2 c 0.2,-3.6 -3.4,-10.8 -12.5,-12.3 -10.6,-1.7 -12.9,-10.4 -12.9,-10.4 -7.4,6.6 1.5,15.3 1.5,15.3 -7.8,-1.9 -19.3,7.2 -19.3,7.2 z"
       class="st3" />
    <path
       style="fill:#fcdd09;stroke:#000000"
       inkscape:connector-curvature="0"
       id="path72"
       d="m 258.8,165.1 c 0,0 11.5,9.3 19.3,7.4 0,0 -8.9,8.5 -1.5,15.3 0,0 2.3,-8.9 12.9,-10.4 8.9,-1.3 12.5,-8.7 12.5,-12.3 v 0.2 c 0.2,-3.6 -3.4,-10.8 -12.5,-12.3 -10.6,-1.7 -12.9,-10.4 -12.9,-10.4 -7.4,6.6 1.5,15.3 1.5,15.3 -7.7,-1.9 -19.3,7.2 -19.3,7.2 z"
       class="st3" />
    <path
       style="fill:#fcdd09;stroke:#000000"
       inkscape:connector-curvature="0"
       id="path74"
       d="m 259.4,7.6 c 0,0 11.5,9.3 19.3,7.4 0,0 -8.9,8.5 -1.5,15.3 0,0 2.3,-8.9 12.9,-10.4 8.9,-1.3 12.5,-8.7 12.5,-12.3 v 0.2 c 0.2,-3.6 -3.4,-10.8 -12.5,-12.3 -10.6,-1.7 -12.9,-10.4 -12.9,-10.4 -7.4,6.6 1.5,15.3 1.5,15.3 -7.8,-1.9 -19.3,7.2 -19.3,7.2 z"
       class="st3" />
    <path
       style="fill:#fcdd09;stroke:#000000"
       inkscape:connector-curvature="0"
       id="path76"
       d="m 259.4,-137.2 c 0,0 11.5,9.3 19.3,7.4 0,0 -8.9,8.5 -1.5,15.3 0,0 2.3,-8.9 12.9,-10.4 8.9,-1.3 12.5,-8.7 12.5,-12.3 v 0.2 c 0.2,-3.6 -3.4,-10.8 -12.5,-12.3 -10.6,-1.7 -12.9,-10.4 -12.9,-10.4 -7.4,6.6 1.5,15.3 1.5,15.3 -7.8,-1.9 -19.3,7.2 -19.3,7.2 z"
       class="st3" />
    <path
       style="fill:#fcdd09;stroke:#000000"
       inkscape:connector-curvature="0"
       id="path78"
       d="m 260.1,-294.2 c 0,0 11.5,9.3 19.3,7.4 0,0 -8.9,8.5 -1.5,15.3 0,0 2.3,-8.9 12.9,-10.4 8.9,-1.3 12.5,-8.7 12.5,-12.3 v 0.2 c 0.2,-3.6 -3.4,-10.8 -12.5,-12.3 -10.6,-1.7 -12.9,-10.4 -12.9,-10.4 -7.4,6.6 1.5,15.3 1.5,15.3 -7.7,-1.8 -19.3,7.2 -19.3,7.2 z"
       class="st3" />
    <path
       style="fill:#ffffff;stroke:#000000"
       inkscape:connector-curvature="0"
       id="path80"
       d="m 390.2,465.3 c 0,7.8 -6.4,14.2 -14.2,14.2 -7.8,0 -14.2,-6.2 -14.2,-14.2 0,-7.8 6.4,-14.2 14.2,-14.2 8,0 14.2,6.4 14.2,14.2 z"
       class="st5" />
    <path
       style="fill:#ffffff;stroke:#000000"
       inkscape:connector-curvature="0"
       id="path82"
       d="m 390.2,277 c 0,7.8 -6.4,14.2 -14.2,14.2 -7.8,0 -14.2,-6.2 -14.2,-14.2 0,-7.8 6.4,-14.2 14.2,-14.2 8,0.2 14.2,6.4 14.2,14.2 z"
       class="st5" />
    <path
       style="fill:#ffffff;stroke:#000000"
       inkscape:connector-curvature="0"
       id="path84"
       d="m 390.2,88.9 c 0,7.8 -6.4,14.2 -14.2,14.2 -7.8,0 -14.2,-6.2 -14.2,-14.2 0,-7.8 6.4,-14.2 14.2,-14.2 8,0 14.2,6.2 14.2,14.2 z"
       class="st5" />
    <path
       style="fill:#ffffff;stroke:#000000"
       inkscape:connector-curvature="0"
       id="path86"
       d="m 390.2,-99.4 c 0,7.8 -6.4,14.2 -14.2,14.2 -7.8,0 -14.2,-6.2 -14.2,-14.2 0,-7.8 6.4,-14.2 14.2,-14.2 8,0 14.2,6.4 14.2,14.2 z"
       class="st5" />
    <path
       style="fill:#ffffff;stroke:#000000"
       inkscape:connector-curvature="0"
       id="path88"
       d="m 390.2,-287.5 c 0,7.8 -6.4,14.2 -14.2,14.2 -7.8,0 -14.2,-6.2 -14.2,-14.2 0,-7.8 6.4,-14.2 14.2,-14.2 8,0 14.2,6.2 14.2,14.2 z"
       class="st5" />
    <polygon
       transform="translate(0,-335)"
       style="fill:#fcdd09;stroke:#000000"
       id="polygon90"
       points="399.5,142.4 376,165.6 352.6,142.4 376,118.9 "
       class="st3" />
    <polygon
       transform="translate(0,-335)"
       style="fill:#da121a;stroke:#000000"
       id="polygon92"
       points="397.8,142.2 390.6,135 383.2,135 383.2,127.6 376.2,120.6 375.9,120.6 368.7,127.6 368.7,135 361.3,135 354.3,142.2 354.3,142.4 361.3,149.5 368.7,149.5 368.7,156.9 375.9,163.9 376.2,163.9 383.2,156.9 383.2,149.5 390.6,149.5 397.8,142.4 "
       class="st6" />
    <path
       style="fill:#fcdd09;stroke:#000000"
       inkscape:connector-curvature="0"
       id="path94"
       d="m 366.2,-211.4 c 1.1,1.1 0,4 -2.5,6.2 -2.5,2.5 -5.3,3.6 -6.2,2.5 -1.1,-1.1 0,-3.8 2.5,-6.2 2.2,-2.5 5.1,-3.6 6.2,-2.5 z"
       class="st3" />
    <path
       style="fill:#fcdd09;stroke:#000000"
       inkscape:connector-curvature="0"
       id="path96"
       d="m 385.9,-211.4 c -1.1,1.1 0,4 2.5,6.2 2.5,2.5 5.3,3.6 6.2,2.5 1.1,-1.1 0,-3.8 -2.5,-6.2 -2.3,-2.5 -5.1,-3.6 -6.2,-2.5 z"
       class="st3" />
    <path
       style="fill:#fcdd09;stroke:#000000"
       inkscape:connector-curvature="0"
       id="path98"
       d="m 385.9,-174.1 c -1.1,-1.1 0,-3.8 2.5,-6.2 2.5,-2.5 5.3,-3.6 6.2,-2.5 1.1,1.1 0,4 -2.5,6.2 -2.3,2.3 -5.1,3.4 -6.2,2.5 z"
       class="st3" />
    <path
       style="fill:#fcdd09;stroke:#000000"
       inkscape:connector-curvature="0"
       id="path100"
       d="m 366.2,-174.1 c -1.1,1.1 -4,0 -6.2,-2.5 -2.5,-2.5 -3.6,-5.3 -2.5,-6.2 1.1,-1.1 4,0 6.2,2.5 2.3,2.2 3.5,5.1 2.5,6.2 z"
       class="st3" />
    <path
       style="fill:#fcdd09;stroke:#000000"
       inkscape:connector-curvature="0"
       id="path102"
       d="m 368.7,-219.3 c 0,-1.1 2.6,-2.3 5.9,-2.6 0.6,0 1.5,-0.8 1.5,-0.8 0,0 0.9,0.8 1.3,0.8 3.4,0.2 6,1.3 6,2.6 0,1.5 -3.4,2.6 -7.6,2.6 -3.9,0.1 -7.1,-1.3 -7.1,-2.6 z"
       class="st3" />
    <path
       style="fill:#fcdd09;stroke:#000000"
       inkscape:connector-curvature="0"
       id="path104"
       d="m 383.6,-166.2 c 0,1.1 -2.6,2.3 -5.9,2.6 -0.6,0 -1.5,0.8 -1.5,0.8 0,0 -0.9,-0.8 -1.3,-0.8 -3.4,-0.2 -6,-1.3 -6,-2.6 0,-1.5 3.4,-2.6 7.6,-2.6 3.7,0 7.1,1.3 7.1,2.6 z"
       class="st3" />
    <path
       style="fill:#fcdd09;stroke:#000000"
       inkscape:connector-curvature="0"
       id="path106"
       d="m 349.2,-185.3 c -1.1,0 -2.3,-2.6 -2.6,-5.9 0,-0.6 -0.8,-1.5 -0.8,-1.5 0,0 0.8,-0.9 0.8,-1.3 0.2,-3.4 1.3,-6 2.6,-6 1.5,0 2.6,3.4 2.6,7.4 0.2,3.9 -1.1,7.3 -2.6,7.3 z"
       class="st3" />
    <path
       style="fill:#fcdd09;stroke:#000000"
       inkscape:connector-curvature="0"
       id="path108"
       d="m 402.9,-200.2 c 1.1,0 2.3,2.6 2.6,5.9 0,0.6 0.8,1.5 0.8,1.5 0,0 -0.8,0.9 -0.8,1.3 -0.2,3.4 -1.3,6 -2.6,6 -1.5,0 -2.6,-3.4 -2.6,-7.4 -0.1,-3.9 1.1,-7.3 2.6,-7.3 z"
       class="st3" />
    <path
       style="fill:#fcdd09;stroke:#000000"
       inkscape:connector-curvature="0"
       id="path110"
       d="m 371.9,27.1 c 0,2.3 1.9,4.2 4.2,4.2 2.3,0 4.3,-1.9 4.3,-4.2 0,-2.3 -1.9,-4.2 -4.3,-4.2 -2.3,-0.2 -4.2,1.7 -4.2,4.2 z"
       class="st3" />
    <path
       style="fill:#fcdd09;stroke:#000000"
       inkscape:connector-curvature="0"
       id="path112"
       d="m 371.9,-39.3 c 0,2.3 1.9,4.2 4.2,4.2 2.3,0 4.3,-1.9 4.3,-4.2 0,-2.3 -1.9,-4.2 -4.3,-4.2 -2.3,-0.2 -4.2,1.7 -4.2,4.2 z"
       class="st3" />
    <path
       style="fill:#fcdd09;stroke:#000000"
       inkscape:connector-curvature="0"
       id="path114"
       d="m 391.7,-6 c 0,15.3 -7,27.8 -15.9,27.8 -8.7,0 -15.9,-12.5 -15.9,-27.8 0,-15.3 7,-28 15.9,-28 8.9,0 15.9,12.5 15.9,28 z"
       class="st3" />
    <path
       style="fill:#078930;stroke:#000000"
       inkscape:connector-curvature="0"
       id="path116"
       d="m 389.3,-6.4 c 0,-13.2 -5.3,-24 -11.9,-25.3 -0.4,0 -1.3,1.7 -1.3,1.7 0,0 -0.9,-1.7 -1.3,-1.7 -6.6,1.3 -11.9,12.1 -11.9,25.3 0,0 0,0 0,0.2 0,0 0,0 0,0.2 0,13.2 5.3,24 11.9,25.3 0.4,0 1.3,-1.7 1.3,-1.7 0,0 0.9,1.7 1.3,1.7 C 384,18 389.3,7.2 389.3,-6 c 0,0 0,0 0,-0.2 0,0 0,0 0,-0.2 z"
       class="st7" />
    <path
       style="fill:#fcdd09;stroke:#000000"
       inkscape:connector-curvature="0"
       id="path118"
       d="m 396.8,-6 c 0,-1.1 -0.9,-2.1 -2.1,-2.1 -1.1,0 -2.1,0.9 -2.1,2.1 0,1.1 0.9,2.1 2.1,2.1 1.2,-0.1 2.1,-1 2.1,-2.1 z"
       class="st3" />
    <path
       style="fill:#fcdd09;stroke:#000000"
       inkscape:connector-curvature="0"
       id="path120"
       d="m 359.4,-6 c 0,-1.1 -0.9,-2.1 -2.1,-2.1 -1.2,0 -2.1,0.9 -2.1,2.1 0,1.1 0.9,2.1 2.1,2.1 1.2,0 2.1,-1 2.1,-2.1 z"
       class="st3" />
    <path
       style="fill:#fcdd09;stroke:#000000"
       inkscape:connector-curvature="0"
       id="path122"
       d="m 389.7,18.5 c 0,-1.1 -0.9,-2.1 -2.1,-2.1 -1.2,0 -2.1,0.9 -2.1,2.1 0,1.1 0.9,2.1 2.1,2.1 1.2,0 2.1,-0.9 2.1,-2.1 z"
       class="st3" />
    <path
       style="fill:#fcdd09;stroke:#000000"
       inkscape:connector-curvature="0"
       id="path124"
       d="m 366.6,18.5 c 0,-1.1 -0.9,-2.1 -2.1,-2.1 -1.1,0 -2.1,0.9 -2.1,2.1 0,1.1 0.9,2.1 2.1,2.1 1.1,0 2.1,-0.9 2.1,-2.1 z"
       class="st3" />
    <path
       style="fill:#fcdd09;stroke:#000000"
       inkscape:connector-curvature="0"
       id="path126"
       d="m 360.9,6.8 c 0,-2.3 -1.9,-4.2 -4.2,-4.2 -2.3,0 -4.3,1.9 -4.3,4.2 0,2.3 1.9,4.2 4.3,4.2 2.3,0 4.2,-1.9 4.2,-4.2 z"
       class="st3" />
    <path
       style="fill:#fcdd09;stroke:#000000"
       inkscape:connector-curvature="0"
       id="path128"
       d="m 399.7,6.6 c 0,-2.3 -1.9,-4.2 -4.2,-4.2 -2.3,0 -4.2,1.9 -4.2,4.2 0,2.3 1.9,4.2 4.2,4.2 2.3,0 4.2,-1.9 4.2,-4.2 z"
       class="st3" />
    <path
       style="fill:#fcdd09;stroke:#000000"
       inkscape:connector-curvature="0"
       id="path130"
       d="m 362.4,-30.8 c 0,1.1 0.9,2.1 2.1,2.1 1.1,0 2.1,-0.9 2.1,-2.1 0,-1.2 -0.9,-2.1 -2.1,-2.1 -1.1,-0.2 -2.1,0.8 -2.1,2.1 z"
       class="st3" />
    <path
       style="fill:#fcdd09;stroke:#000000"
       inkscape:connector-curvature="0"
       id="path132"
       d="m 385.5,-30.8 c 0,1.1 0.9,2.1 2.1,2.1 1.2,0 2.1,-0.9 2.1,-2.1 0,-1.2 -0.9,-2.1 -2.1,-2.1 -1.2,-0.2 -2.1,0.8 -2.1,2.1 z"
       class="st3" />
    <path
       style="fill:#fcdd09;stroke:#000000"
       inkscape:connector-curvature="0"
       id="path134"
       d="m 391.2,-19.1 c 0,2.3 1.9,4.2 4.2,4.2 2.3,0 4.2,-1.9 4.2,-4.2 0,-2.3 -1.9,-4.2 -4.2,-4.2 -2.3,0 -4.2,1.8 -4.2,4.2 z"
       class="st3" />
    <path
       style="fill:#fcdd09;stroke:#000000"
       inkscape:connector-curvature="0"
       id="path136"
       d="m 352.4,-19.1 c 0,2.3 1.9,4.2 4.3,4.2 2.3,0 4.2,-1.9 4.2,-4.2 0,-2.3 -1.9,-4.2 -4.2,-4.2 -2.4,0.1 -4.3,2 -4.3,4.2 z"
       class="st3" />
    <path
       style="fill:#fcdd09;stroke:#000000"
       inkscape:connector-curvature="0"
       id="path138"
       d="m 371.9,400.4 c 0,2.3 1.9,4.2 4.2,4.2 2.3,0 4.3,-1.9 4.3,-4.2 0,-2.3 -1.9,-4.2 -4.3,-4.2 -2.3,0.1 -4.2,2 -4.2,4.2 z"
       class="st3" />
    <path
       style="fill:#fcdd09;stroke:#000000"
       inkscape:connector-curvature="0"
       id="path140"
       d="m 371.9,334.1 c 0,2.3 1.9,4.2 4.2,4.2 2.3,0 4.3,-1.9 4.3,-4.2 0,-2.3 -1.9,-4.2 -4.3,-4.2 -2.3,0 -4.2,1.9 -4.2,4.2 z"
       class="st3" />
    <path
       style="fill:#fcdd09;stroke:#000000"
       inkscape:connector-curvature="0"
       id="path142"
       d="m 391.7,367.4 c 0,15.3 -7,28 -15.9,28 -8.7,0 -15.9,-12.5 -15.9,-28 0,-15.3 7,-27.8 15.9,-27.8 8.9,0 15.9,12.4 15.9,27.8 z"
       class="st3" />
    <path
       style="fill:#078930;stroke:#000000"
       inkscape:connector-curvature="0"
       id="path144"
       d="m 389.3,367.2 c 0,-13.2 -5.3,-24 -11.9,-25.3 -0.4,0 -1.3,1.7 -1.3,1.7 0,0 -0.9,-1.7 -1.3,-1.7 -6.6,1.3 -11.9,12.1 -11.9,25.3 v 0.2 c 0,0 0,0 0,0.2 0,13.2 5.3,24 11.9,25.3 0.4,0 1.3,-1.7 1.3,-1.7 0,0 0.9,1.7 1.3,1.7 6.6,-1.3 11.9,-12.1 11.9,-25.3 0,0 0,0 0,-0.2 0,-0.2 0,-0.2 0,-0.2 z"
       class="st7" />
    <path
       style="fill:#fcdd09;stroke:#000000"
       inkscape:connector-curvature="0"
       id="path146"
       d="m 396.8,367.4 c 0,-1.1 -0.9,-2.1 -2.1,-2.1 -1.1,0 -2.1,0.9 -2.1,2.1 0,1.1 0.9,2.1 2.1,2.1 1.2,-0.1 2.1,-1 2.1,-2.1 z"
       class="st3" />
    <path
       style="fill:#fcdd09;stroke:#000000"
       inkscape:connector-curvature="0"
       id="path148"
       d="m 359.4,367.4 c 0,-1.1 -0.9,-2.1 -2.1,-2.1 -1.2,0 -2.1,0.9 -2.1,2.1 0,1.1 0.9,2.1 2.1,2.1 1.2,0 2.1,-1 2.1,-2.1 z"
       class="st3" />
    <path
       style="fill:#fcdd09;stroke:#000000"
       inkscape:connector-curvature="0"
       id="path150"
       d="m 389.7,391.9 c 0,-1.1 -0.9,-2.1 -2.1,-2.1 -1.2,0 -2.1,0.9 -2.1,2.1 0,1.2 0.9,2.1 2.1,2.1 1.2,0 2.1,-0.9 2.1,-2.1 z"
       class="st3" />
    <path
       style="fill:#fcdd09;stroke:#000000"
       inkscape:connector-curvature="0"
       id="path152"
       d="m 366.6,391.9 c 0,-1.1 -0.9,-2.1 -2.1,-2.1 -1.1,0 -2.1,0.9 -2.1,2.1 0,1.2 0.9,2.1 2.1,2.1 1.1,0 2.1,-0.9 2.1,-2.1 z"
       class="st3" />
    <path
       style="fill:#fcdd09;stroke:#000000"
       inkscape:connector-curvature="0"
       id="path154"
       d="m 360.9,380.2 c 0,-2.3 -1.9,-4.2 -4.2,-4.2 -2.3,0 -4.3,1.9 -4.3,4.2 0,2.3 1.9,4.2 4.3,4.2 2.3,0 4.2,-1.9 4.2,-4.2 z"
       class="st3" />
    <path
       style="fill:#fcdd09;stroke:#000000"
       inkscape:connector-curvature="0"
       id="path156"
       d="m 399.7,380 c 0,-2.3 -1.9,-4.2 -4.2,-4.2 -2.3,0 -4.2,1.9 -4.2,4.2 0,2.3 1.9,4.2 4.2,4.2 2.3,0 4.2,-1.7 4.2,-4.2 z"
       class="st3" />
    <path
       style="fill:#fcdd09;stroke:#000000"
       inkscape:connector-curvature="0"
       id="path158"
       d="m 362.4,342.6 c 0,1.1 0.9,2.1 2.1,2.1 1.1,0 2.1,-0.9 2.1,-2.1 0,-1.1 -0.9,-2.1 -2.1,-2.1 -1.1,0 -2.1,1 -2.1,2.1 z"
       class="st3" />
    <path
       style="fill:#fcdd09;stroke:#000000"
       inkscape:connector-curvature="0"
       id="path160"
       d="m 385.5,342.6 c 0,1.1 0.9,2.1 2.1,2.1 1.2,0 2.1,-0.9 2.1,-2.1 0,-1.1 -0.9,-2.1 -2.1,-2.1 -1.2,0 -2.1,1 -2.1,2.1 z"
       class="st3" />
    <path
       style="fill:#fcdd09;stroke:#000000"
       inkscape:connector-curvature="0"
       id="path162"
       d="m 391.2,354.3 c 0,2.3 1.9,4.2 4.2,4.2 2.3,0 4.2,-1.9 4.2,-4.2 0,-2.3 -1.9,-4.2 -4.2,-4.2 -2.3,0 -4.2,1.9 -4.2,4.2 z"
       class="st3" />
    <path
       style="fill:#fcdd09;stroke:#000000"
       inkscape:connector-curvature="0"
       id="path164"
       d="m 352.4,354.5 c 0,2.3 1.9,4.2 4.3,4.2 2.3,0 4.2,-1.9 4.2,-4.2 0,-2.3 -1.9,-4.2 -4.2,-4.2 -2.4,-0.1 -4.3,1.7 -4.3,4.2 z"
       class="st3" />
    <polygon
       transform="translate(0,-335)"
       style="fill:#fcdd09;stroke:#000000"
       id="polygon166"
       points="352.6,518.2 376,494.8 399.5,518.2 376,541.7 "
       class="st3" />
    <polygon
       transform="translate(0,-335)"
       style="fill:#da121a;stroke:#000000"
       id="polygon168"
       points="397.8,518.2 390.6,511.2 383.2,511.2 383.2,503.8 376.2,496.7 375.9,496.7 368.7,503.8 368.7,511.2 361.3,511.2 354.3,518.2 354.3,518.6 361.3,525.6 368.7,525.6 368.7,533 375.9,540 376.2,540 383.2,533 383.2,525.6 390.6,525.6 397.8,518.6 "
       class="st6" />
    <path
       style="fill:#fcdd09;stroke:#000000"
       inkscape:connector-curvature="0"
       id="path170"
       d="m 366.2,164.9 c 1.1,1.1 0,3.8 -2.5,6.2 -2.5,2.5 -5.3,3.6 -6.2,2.5 -1.1,-1.1 0,-3.8 2.5,-6.2 2.2,-2.5 5.1,-3.7 6.2,-2.5 z"
       class="st3" />
    <path
       style="fill:#fcdd09;stroke:#000000"
       inkscape:connector-curvature="0"
       id="path172"
       d="m 385.9,164.7 c 1.1,-1.1 4,0 6.2,2.5 2.5,2.5 3.6,5.3 2.5,6.2 -1.1,1.1 -4,0 -6.2,-2.5 -2.5,-2.2 -3.7,-5.1 -2.5,-6.2 z"
       class="st3" />
    <path
       style="fill:#fcdd09;stroke:#000000"
       inkscape:connector-curvature="0"
       id="path174"
       d="m 385.9,201.9 c -1.1,-1.1 0,-3.8 2.5,-6.2 2.5,-2.4 5.3,-3.6 6.2,-2.5 1.1,1.1 0,3.8 -2.5,6.2 -2.5,2.4 -5.1,3.7 -6.2,2.5 z"
       class="st3" />
    <path
       style="fill:#fcdd09;stroke:#000000"
       inkscape:connector-curvature="0"
       id="path176"
       d="m 366.2,201.9 c -1.1,1.1 -4,0 -6.4,-2.5 -2.5,-2.5 -3.6,-5.3 -2.5,-6.2 1.1,-1.1 4,0 6.2,2.5 2.7,2.5 3.7,5.3 2.7,6.2 z"
       class="st3" />
    <path
       style="fill:#fcdd09;stroke:#000000"
       inkscape:connector-curvature="0"
       id="path178"
       d="m 368.7,156.7 c 0,-1.1 2.6,-2.3 5.9,-2.6 0.6,0 1.5,-0.8 1.5,-0.8 0,0 0.9,0.8 1.3,0.8 3.4,0.2 6,1.3 6,2.6 0,1.5 -3.4,2.6 -7.6,2.6 -3.9,0.1 -7.1,-1 -7.1,-2.6 z"
       class="st3" />
    <path
       style="fill:#fcdd09;stroke:#000000"
       inkscape:connector-curvature="0"
       id="path180"
       d="m 383.6,210.1 c 0,1.1 -2.6,2.3 -5.9,2.6 -0.6,0 -1.5,0.8 -1.5,0.8 0,0 -0.9,-0.8 -1.3,-0.8 -3.4,-0.2 -6,-1.3 -6,-2.6 0,-1.5 3.4,-2.6 7.6,-2.6 3.7,-0.1 7.1,1 7.1,2.6 z"
       class="st3" />
    <path
       style="fill:#fcdd09;stroke:#000000"
       inkscape:connector-curvature="0"
       id="path182"
       d="m 349.2,190.8 c -1.1,0 -2.3,-2.6 -2.6,-5.9 0,-0.6 -0.8,-1.5 -0.8,-1.5 0,0 0.8,-0.9 0.8,-1.3 0.2,-3.4 1.3,-6 2.6,-6 1.5,0 2.6,3.4 2.6,7.4 0.2,4.1 -1.1,7.3 -2.6,7.3 z"
       class="st3" />
    <path
       style="fill:#fcdd09;stroke:#000000"
       inkscape:connector-curvature="0"
       id="path184"
       d="m 402.9,176 c 1.1,0 2.3,2.6 2.6,5.9 0,0.6 0.8,1.5 0.8,1.5 0,0 -0.8,0.9 -0.8,1.3 -0.2,3.4 -1.3,6 -2.6,6 -1.5,0 -2.6,-3.4 -2.6,-7.4 -0.1,-4.1 1.1,-7.3 2.6,-7.3 z"
       class="st3" />
  </g>
  <g
     id="g881"
     transform="matrix(2.1298858,0,0,2.1298858,-152.93808,-9.558633)">
    <path
       d="m 192.31714,13.16987 c 3.79,-1.73 8.56,-1.64 11.9,1.01 4.66,3.61 6.44,9.56 7.91,15.02 2.42,10.61 2.7,21.87 0.19,32.49 -0.75,3.77 -6.02,6.66 -8.88,3.25 -2.59,-3.98 -0.63,-9 -0.59,-13.39 0.08,-4.33 1.3,-9.53 -1.73,-13.14 -2.89,-2.75 -6.81,-0.01 -8.58,2.64 -5.7,8.11 -6.89,18.29 -10.9,27.18 -5.03,10.65 -22.01,11.82 -28.73,2.25 -4.35,-6.18 -7.49,-13.12 -11.62,-19.44 -1,-1.35 -2.43,-3.18 -4.35,-2.69 -2.43,0.31 -3.06,3.1 -2.98,5.14 0.21,7.24 4.01,13.78 4.8,20.92 0.4,2.73 -1.96,5.56 -4.82,5.02 -3.29,-0.22 -4.75,-3.64 -5.84,-6.27 -3.87,-10.31 -6.35,-21.56 -4.36,-32.56 1.12,-6.29 2.98,-12.98 7.85,-17.45 4.35,-4.05 11.78,-4.66 16.37,-0.66 6.37,5.22 9.19,13.35 14.63,19.35 3.33,3.84 10.21,3.78 12.79,-0.88 3.53,-6.71 5.49,-14.17 9.22,-20.79 1.81,-3.01 4.48,-5.57 7.72,-7 z"
       id="path2"
       inkscape:connector-curvature="0"
       style="opacity:1;fill:#004f7c" />
    <path
       d="m 235.82714,12.05987 c 2.94,-0.09 5.89,-0.08 8.83,0.04 0,5.41 -0.01,10.81 0.01,16.22 0,2.97 -0.01,5.94 -0.03,8.9 -2.95,0.03 -5.9,0.04 -8.84,0.04 -5.38,-0.02 -10.76,0.01 -16.14,-0.03 -0.16,-2.96 -0.16,-5.92 -0.07,-8.88 5.4,-0.08 10.79,-0.01 16.19,-0.05 0.03,-5.41 -0.03,-10.82 0.05,-16.24 z"
       id="path4"
       inkscape:connector-curvature="0"
       style="opacity:1;fill:#004f7c" />
    <g
       transform="translate(121.90714,10.49987)"
       id="#20a5d5ff">
      <path
         style="opacity:1;fill:#20a5d5"
         inkscape:connector-curvature="0"
         id="path23"
         d="m 122.76,17.82 c 5.4,0 10.81,-0.05 16.21,0.04 0.12,2.94 0.12,5.88 -0.01,8.82 -5.4,0.14 -10.8,0.04 -16.2,0.08 -0.04,5.41 0.05,10.82 -0.07,16.23 -2.92,0.1 -5.85,0.09 -8.77,-0.04 -0.07,-5.4 -0.03,-10.79 -0.03,-16.19 2.94,0 5.89,-0.01 8.84,-0.04 0.02,-2.96 0.03,-5.93 0.03,-8.9 z" />
    </g>
  </g>
</svg>
